%TF.GenerationSoftware,KiCad,Pcbnew,7.0.8-7.0.8~ubuntu22.04.1*%
%TF.CreationDate,2023-10-30T15:08:23+03:00*%
%TF.ProjectId,supply,73757070-6c79-42e6-9b69-6361645f7063,rev?*%
%TF.SameCoordinates,Original*%
%TF.FileFunction,Paste,Bot*%
%TF.FilePolarity,Positive*%
%FSLAX46Y46*%
G04 Gerber Fmt 4.6, Leading zero omitted, Abs format (unit mm)*
G04 Created by KiCad (PCBNEW 7.0.8-7.0.8~ubuntu22.04.1) date 2023-10-30 15:08:23*
%MOMM*%
%LPD*%
G01*
G04 APERTURE LIST*
G04 Aperture macros list*
%AMRoundRect*
0 Rectangle with rounded corners*
0 $1 Rounding radius*
0 $2 $3 $4 $5 $6 $7 $8 $9 X,Y pos of 4 corners*
0 Add a 4 corners polygon primitive as box body*
4,1,4,$2,$3,$4,$5,$6,$7,$8,$9,$2,$3,0*
0 Add four circle primitives for the rounded corners*
1,1,$1+$1,$2,$3*
1,1,$1+$1,$4,$5*
1,1,$1+$1,$6,$7*
1,1,$1+$1,$8,$9*
0 Add four rect primitives between the rounded corners*
20,1,$1+$1,$2,$3,$4,$5,0*
20,1,$1+$1,$4,$5,$6,$7,0*
20,1,$1+$1,$6,$7,$8,$9,0*
20,1,$1+$1,$8,$9,$2,$3,0*%
%AMFreePoly0*
4,1,14,0.385355,0.085355,0.400000,0.050000,0.400000,0.000711,0.385355,-0.034644,0.334644,-0.085355,0.299289,-0.100000,-0.350000,-0.100000,-0.385355,-0.085355,-0.400000,-0.050000,-0.400000,0.050000,-0.385355,0.085355,-0.350000,0.100000,0.350000,0.100000,0.385355,0.085355,0.385355,0.085355,$1*%
%AMFreePoly1*
4,1,14,0.334644,0.085355,0.385355,0.034644,0.400000,-0.000711,0.400000,-0.050000,0.385355,-0.085355,0.350000,-0.100000,-0.350000,-0.100000,-0.385355,-0.085355,-0.400000,-0.050000,-0.400000,0.050000,-0.385355,0.085355,-0.350000,0.100000,0.299289,0.100000,0.334644,0.085355,0.334644,0.085355,$1*%
%AMFreePoly2*
4,1,14,0.085355,0.385355,0.100000,0.350000,0.100000,-0.350000,0.085355,-0.385355,0.050000,-0.400000,0.000711,-0.400000,-0.034644,-0.385355,-0.085355,-0.334644,-0.100000,-0.299289,-0.100000,0.350000,-0.085355,0.385355,-0.050000,0.400000,0.050000,0.400000,0.085355,0.385355,0.085355,0.385355,$1*%
%AMFreePoly3*
4,1,14,0.085355,0.385355,0.100000,0.350000,0.100000,-0.299289,0.085355,-0.334644,0.034644,-0.385355,-0.000711,-0.400000,-0.050000,-0.400000,-0.085355,-0.385355,-0.100000,-0.350000,-0.100000,0.350000,-0.085355,0.385355,-0.050000,0.400000,0.050000,0.400000,0.085355,0.385355,0.085355,0.385355,$1*%
%AMFreePoly4*
4,1,14,0.385355,0.085355,0.400000,0.050000,0.400000,-0.050000,0.385355,-0.085355,0.350000,-0.100000,-0.350000,-0.100000,-0.385355,-0.085355,-0.400000,-0.050000,-0.400000,-0.000711,-0.385355,0.034644,-0.334644,0.085355,-0.299289,0.100000,0.350000,0.100000,0.385355,0.085355,0.385355,0.085355,$1*%
%AMFreePoly5*
4,1,14,0.385355,0.085355,0.400000,0.050000,0.400000,-0.050000,0.385355,-0.085355,0.350000,-0.100000,-0.299289,-0.100000,-0.334644,-0.085355,-0.385355,-0.034644,-0.400000,0.000711,-0.400000,0.050000,-0.385355,0.085355,-0.350000,0.100000,0.350000,0.100000,0.385355,0.085355,0.385355,0.085355,$1*%
%AMFreePoly6*
4,1,14,0.034644,0.385355,0.085355,0.334644,0.100000,0.299289,0.100000,-0.350000,0.085355,-0.385355,0.050000,-0.400000,-0.050000,-0.400000,-0.085355,-0.385355,-0.100000,-0.350000,-0.100000,0.350000,-0.085355,0.385355,-0.050000,0.400000,-0.000711,0.400000,0.034644,0.385355,0.034644,0.385355,$1*%
%AMFreePoly7*
4,1,14,0.085355,0.385355,0.100000,0.350000,0.100000,-0.350000,0.085355,-0.385355,0.050000,-0.400000,-0.050000,-0.400000,-0.085355,-0.385355,-0.100000,-0.350000,-0.100000,0.299289,-0.085355,0.334644,-0.034644,0.385355,0.000711,0.400000,0.050000,0.400000,0.085355,0.385355,0.085355,0.385355,$1*%
%AMFreePoly8*
4,1,9,3.862500,-0.866500,0.737500,-0.866500,0.737500,-0.450000,-0.737500,-0.450000,-0.737500,0.450000,0.737500,0.450000,0.737500,0.866500,3.862500,0.866500,3.862500,-0.866500,3.862500,-0.866500,$1*%
G04 Aperture macros list end*
%ADD10C,0.010000*%
%ADD11RoundRect,0.225000X-0.225000X-0.250000X0.225000X-0.250000X0.225000X0.250000X-0.225000X0.250000X0*%
%ADD12RoundRect,0.150000X-0.587500X-0.150000X0.587500X-0.150000X0.587500X0.150000X-0.587500X0.150000X0*%
%ADD13RoundRect,0.250000X-1.000000X-0.650000X1.000000X-0.650000X1.000000X0.650000X-1.000000X0.650000X0*%
%ADD14RoundRect,0.225000X0.250000X-0.225000X0.250000X0.225000X-0.250000X0.225000X-0.250000X-0.225000X0*%
%ADD15RoundRect,0.250000X0.450000X-0.262500X0.450000X0.262500X-0.450000X0.262500X-0.450000X-0.262500X0*%
%ADD16RoundRect,0.250000X-0.450000X0.262500X-0.450000X-0.262500X0.450000X-0.262500X0.450000X0.262500X0*%
%ADD17RoundRect,0.150000X-0.512500X-0.150000X0.512500X-0.150000X0.512500X0.150000X-0.512500X0.150000X0*%
%ADD18RoundRect,0.250000X0.300000X-2.050000X0.300000X2.050000X-0.300000X2.050000X-0.300000X-2.050000X0*%
%ADD19RoundRect,0.250000X2.375000X-2.025000X2.375000X2.025000X-2.375000X2.025000X-2.375000X-2.025000X0*%
%ADD20RoundRect,0.250000X0.262500X0.450000X-0.262500X0.450000X-0.262500X-0.450000X0.262500X-0.450000X0*%
%ADD21RoundRect,0.150000X-0.150000X0.512500X-0.150000X-0.512500X0.150000X-0.512500X0.150000X0.512500X0*%
%ADD22RoundRect,0.250000X-0.650000X1.000000X-0.650000X-1.000000X0.650000X-1.000000X0.650000X1.000000X0*%
%ADD23RoundRect,0.172500X-0.172500X-0.172500X0.172500X-0.172500X0.172500X0.172500X-0.172500X0.172500X0*%
%ADD24FreePoly0,0.000000*%
%ADD25RoundRect,0.050000X-0.350000X-0.050000X0.350000X-0.050000X0.350000X0.050000X-0.350000X0.050000X0*%
%ADD26FreePoly1,0.000000*%
%ADD27FreePoly2,0.000000*%
%ADD28RoundRect,0.050000X-0.050000X-0.350000X0.050000X-0.350000X0.050000X0.350000X-0.050000X0.350000X0*%
%ADD29FreePoly3,0.000000*%
%ADD30FreePoly4,0.000000*%
%ADD31FreePoly5,0.000000*%
%ADD32FreePoly6,0.000000*%
%ADD33FreePoly7,0.000000*%
%ADD34RoundRect,0.225000X0.225000X0.250000X-0.225000X0.250000X-0.225000X-0.250000X0.225000X-0.250000X0*%
%ADD35RoundRect,0.250000X-1.100000X0.325000X-1.100000X-0.325000X1.100000X-0.325000X1.100000X0.325000X0*%
%ADD36RoundRect,0.250000X0.312500X0.625000X-0.312500X0.625000X-0.312500X-0.625000X0.312500X-0.625000X0*%
%ADD37RoundRect,0.250000X-0.262500X-0.450000X0.262500X-0.450000X0.262500X0.450000X-0.262500X0.450000X0*%
%ADD38RoundRect,0.250000X-1.000000X1.400000X-1.000000X-1.400000X1.000000X-1.400000X1.000000X1.400000X0*%
%ADD39RoundRect,0.150000X-0.650000X-0.150000X0.650000X-0.150000X0.650000X0.150000X-0.650000X0.150000X0*%
%ADD40RoundRect,0.225000X-0.250000X0.225000X-0.250000X-0.225000X0.250000X-0.225000X0.250000X0.225000X0*%
%ADD41R,0.900000X1.300000*%
%ADD42FreePoly8,90.000000*%
%ADD43RoundRect,0.250000X1.000000X0.650000X-1.000000X0.650000X-1.000000X-0.650000X1.000000X-0.650000X0*%
%ADD44RoundRect,0.150000X0.150000X-0.512500X0.150000X0.512500X-0.150000X0.512500X-0.150000X-0.512500X0*%
%ADD45RoundRect,0.125000X0.125000X0.125000X-0.125000X0.125000X-0.125000X-0.125000X0.125000X-0.125000X0*%
%ADD46RoundRect,0.042000X0.943000X0.258000X-0.943000X0.258000X-0.943000X-0.258000X0.943000X-0.258000X0*%
%ADD47RoundRect,0.150000X-0.150000X0.675000X-0.150000X-0.675000X0.150000X-0.675000X0.150000X0.675000X0*%
%ADD48RoundRect,0.250000X-0.362500X-1.425000X0.362500X-1.425000X0.362500X1.425000X-0.362500X1.425000X0*%
%ADD49RoundRect,0.250000X-0.325000X-1.100000X0.325000X-1.100000X0.325000X1.100000X-0.325000X1.100000X0*%
%ADD50RoundRect,0.162500X-0.825000X-0.162500X0.825000X-0.162500X0.825000X0.162500X-0.825000X0.162500X0*%
%ADD51RoundRect,0.125000X-0.125000X0.125000X-0.125000X-0.125000X0.125000X-0.125000X0.125000X0.125000X0*%
%ADD52RoundRect,0.250000X1.100000X-0.325000X1.100000X0.325000X-1.100000X0.325000X-1.100000X-0.325000X0*%
%ADD53RoundRect,0.150000X0.650000X0.150000X-0.650000X0.150000X-0.650000X-0.150000X0.650000X-0.150000X0*%
G04 APERTURE END LIST*
%TO.C,U20*%
D10*
X98645000Y-209620000D02*
X97355000Y-209620000D01*
X97355000Y-207980000D01*
X98645000Y-207980000D01*
X98645000Y-209620000D01*
G36*
X98645000Y-209620000D02*
G01*
X97355000Y-209620000D01*
X97355000Y-207980000D01*
X98645000Y-207980000D01*
X98645000Y-209620000D01*
G37*
%TD*%
D11*
%TO.C,C24*%
X95075000Y-159400000D03*
X96625000Y-159400000D03*
%TD*%
D12*
%TO.C,Q6*%
X117062500Y-123950000D03*
X117062500Y-122050000D03*
X118937500Y-123000000D03*
%TD*%
D13*
%TO.C,D25*%
X168500000Y-228750000D03*
X172500000Y-228750000D03*
%TD*%
D14*
%TO.C,C21*%
X106000000Y-151275000D03*
X106000000Y-149725000D03*
%TD*%
D13*
%TO.C,D26*%
X177500000Y-229000000D03*
X181500000Y-229000000D03*
%TD*%
D11*
%TO.C,C17*%
X121225000Y-187750000D03*
X122775000Y-187750000D03*
%TD*%
%TO.C,C23*%
X93975000Y-164250000D03*
X95525000Y-164250000D03*
%TD*%
D15*
%TO.C,R18*%
X135750000Y-229412500D03*
X135750000Y-227587500D03*
%TD*%
D16*
%TO.C,R17*%
X141500000Y-194087500D03*
X141500000Y-195912500D03*
%TD*%
%TO.C,R45*%
X153500000Y-131337500D03*
X153500000Y-133162500D03*
%TD*%
D17*
%TO.C,U19*%
X146662500Y-73150000D03*
X146662500Y-72200000D03*
X146662500Y-71250000D03*
X148937500Y-71250000D03*
X148937500Y-73150000D03*
%TD*%
D15*
%TO.C,R2*%
X131200000Y-182412500D03*
X131200000Y-180587500D03*
%TD*%
D18*
%TO.C,U11*%
X189790000Y-211525000D03*
X187250000Y-211525000D03*
D19*
X184475000Y-204800000D03*
X190025000Y-204800000D03*
X184475000Y-199950000D03*
X190025000Y-199950000D03*
D18*
X184710000Y-211525000D03*
%TD*%
D16*
%TO.C,R44*%
X155000000Y-117387500D03*
X155000000Y-119212500D03*
%TD*%
D20*
%TO.C,R28*%
X103887500Y-147800000D03*
X102062500Y-147800000D03*
%TD*%
D21*
%TO.C,U9*%
X146050000Y-190362500D03*
X147950000Y-190362500D03*
X147000000Y-192637500D03*
%TD*%
D22*
%TO.C,D24*%
X190250000Y-223000000D03*
X190250000Y-227000000D03*
%TD*%
D15*
%TO.C,R35*%
X116500000Y-133912500D03*
X116500000Y-132087500D03*
%TD*%
D23*
%TO.C,U13*%
X106075000Y-102575000D03*
X106075000Y-103425000D03*
X106925000Y-102575000D03*
X106925000Y-103425000D03*
D24*
X105050000Y-103800000D03*
D25*
X105050000Y-103400000D03*
X105050000Y-103000000D03*
X105050000Y-102600000D03*
D26*
X105050000Y-102200000D03*
D27*
X105700000Y-101550000D03*
D28*
X106100000Y-101550000D03*
X106500000Y-101550000D03*
X106900000Y-101550000D03*
D29*
X107300000Y-101550000D03*
D30*
X107950000Y-102200000D03*
D25*
X107950000Y-102600000D03*
X107950000Y-103000000D03*
X107950000Y-103400000D03*
D31*
X107950000Y-103800000D03*
D32*
X107300000Y-104450000D03*
D28*
X106900000Y-104450000D03*
X106500000Y-104450000D03*
X106100000Y-104450000D03*
D33*
X105700000Y-104450000D03*
%TD*%
D34*
%TO.C,C1*%
X107775000Y-191000000D03*
X106225000Y-191000000D03*
%TD*%
D20*
%TO.C,R51*%
X107575000Y-69000000D03*
X105750000Y-69000000D03*
%TD*%
%TO.C,R6*%
X98412500Y-185200000D03*
X96587500Y-185200000D03*
%TD*%
D12*
%TO.C,Q4*%
X101800000Y-140000000D03*
X101800000Y-138100000D03*
X103675000Y-139050000D03*
%TD*%
D35*
%TO.C,C20*%
X174000000Y-214025000D03*
X174000000Y-216975000D03*
%TD*%
D36*
%TO.C,R58*%
X163262500Y-225500000D03*
X160337500Y-225500000D03*
%TD*%
D37*
%TO.C,R22*%
X150087500Y-224250000D03*
X151912500Y-224250000D03*
%TD*%
D38*
%TO.C,D10*%
X114200000Y-200400000D03*
X121000000Y-200400000D03*
%TD*%
D39*
%TO.C,U6*%
X92150000Y-234155000D03*
X92150000Y-232885000D03*
X92150000Y-231615000D03*
X92150000Y-230345000D03*
X99350000Y-230345000D03*
X99350000Y-231615000D03*
X99350000Y-232885000D03*
X99350000Y-234155000D03*
%TD*%
D40*
%TO.C,C29*%
X102750000Y-107225000D03*
X102750000Y-108775000D03*
%TD*%
D16*
%TO.C,R29*%
X105000000Y-107087500D03*
X105000000Y-108912500D03*
%TD*%
%TO.C,R53*%
X142800000Y-71587500D03*
X142800000Y-73412500D03*
%TD*%
D15*
%TO.C,R36*%
X91100000Y-133862500D03*
X91100000Y-132037500D03*
%TD*%
D37*
%TO.C,R42*%
X160087500Y-73000000D03*
X161912500Y-73000000D03*
%TD*%
D14*
%TO.C,C18*%
X143900000Y-195675000D03*
X143900000Y-194125000D03*
%TD*%
D34*
%TO.C,C48*%
X109025000Y-72500000D03*
X107475000Y-72500000D03*
%TD*%
D14*
%TO.C,C36*%
X113000000Y-133775000D03*
X113000000Y-132225000D03*
%TD*%
D40*
%TO.C,C4*%
X148800000Y-173306206D03*
X148800000Y-174856206D03*
%TD*%
D11*
%TO.C,C26*%
X105600000Y-147800000D03*
X107150000Y-147800000D03*
%TD*%
D12*
%TO.C,Q7*%
X108312500Y-114150000D03*
X108312500Y-112250000D03*
X110187500Y-113200000D03*
%TD*%
D15*
%TO.C,R13*%
X109250000Y-229412500D03*
X109250000Y-227587500D03*
%TD*%
D36*
%TO.C,R57*%
X163262500Y-219700000D03*
X160337500Y-219700000D03*
%TD*%
D41*
%TO.C,U4*%
X101500000Y-224450000D03*
D42*
X100000000Y-224362500D03*
D41*
X98500000Y-224450000D03*
%TD*%
D43*
%TO.C,D7*%
X124750000Y-221500000D03*
X120750000Y-221500000D03*
%TD*%
D12*
%TO.C,Q5*%
X115562500Y-141950000D03*
X115562500Y-140050000D03*
X117437500Y-141000000D03*
%TD*%
D39*
%TO.C,U10*%
X145650000Y-233905000D03*
X145650000Y-232635000D03*
X145650000Y-231365000D03*
X145650000Y-230095000D03*
X152850000Y-230095000D03*
X152850000Y-231365000D03*
X152850000Y-232635000D03*
X152850000Y-233905000D03*
%TD*%
D16*
%TO.C,R54*%
X176200000Y-223287500D03*
X176200000Y-225112500D03*
%TD*%
D44*
%TO.C,U18*%
X107537500Y-77000000D03*
X106587500Y-77000000D03*
X105637500Y-77000000D03*
X105637500Y-74725000D03*
X107537500Y-74725000D03*
%TD*%
D20*
%TO.C,R23*%
X161862500Y-228900000D03*
X160037500Y-228900000D03*
%TD*%
D14*
%TO.C,C53*%
X93250000Y-212025000D03*
X93250000Y-210475000D03*
%TD*%
D11*
%TO.C,C41*%
X158225000Y-114500000D03*
X159775000Y-114500000D03*
%TD*%
D45*
%TO.C,D14*%
X123100000Y-123000000D03*
X120900000Y-123000000D03*
%TD*%
D37*
%TO.C,R10*%
X159337500Y-170900000D03*
X161162500Y-170900000D03*
%TD*%
D16*
%TO.C,R61*%
X102900000Y-207337500D03*
X102900000Y-209162500D03*
%TD*%
D46*
%TO.C,U20*%
X100475000Y-206895000D03*
X100475000Y-208165000D03*
X100475000Y-209435000D03*
X100475000Y-210705000D03*
X95525000Y-210705000D03*
X95525000Y-209435000D03*
X95525000Y-208165000D03*
X95525000Y-206895000D03*
%TD*%
D39*
%TO.C,U8*%
X118900000Y-234155000D03*
X118900000Y-232885000D03*
X118900000Y-231615000D03*
X118900000Y-230345000D03*
X126100000Y-230345000D03*
X126100000Y-231615000D03*
X126100000Y-232885000D03*
X126100000Y-234155000D03*
%TD*%
D37*
%TO.C,R9*%
X159337500Y-173500000D03*
X161162500Y-173500000D03*
%TD*%
D47*
%TO.C,U3*%
X100195000Y-185575000D03*
X101465000Y-185575000D03*
X102735000Y-185575000D03*
X104005000Y-185575000D03*
X104005000Y-190825000D03*
X102735000Y-190825000D03*
X101465000Y-190825000D03*
X100195000Y-190825000D03*
%TD*%
D48*
%TO.C,R52*%
X144737500Y-68000000D03*
X150662500Y-68000000D03*
%TD*%
D34*
%TO.C,C32*%
X93950000Y-136800000D03*
X92400000Y-136800000D03*
%TD*%
D49*
%TO.C,C16*%
X120525000Y-184750000D03*
X123475000Y-184750000D03*
%TD*%
D20*
%TO.C,R1*%
X128812500Y-180500000D03*
X126987500Y-180500000D03*
%TD*%
%TO.C,R26*%
X116662500Y-226750000D03*
X114837500Y-226750000D03*
%TD*%
D37*
%TO.C,R15*%
X124087500Y-224500000D03*
X125912500Y-224500000D03*
%TD*%
D50*
%TO.C,U5*%
X151512500Y-174805000D03*
X151512500Y-173535000D03*
X151512500Y-172265000D03*
X151512500Y-170995000D03*
X156587500Y-170995000D03*
X156587500Y-172265000D03*
X156587500Y-173535000D03*
X156587500Y-174805000D03*
%TD*%
D11*
%TO.C,C25*%
X98700000Y-164000000D03*
X100250000Y-164000000D03*
%TD*%
D15*
%TO.C,R40*%
X123250000Y-126912500D03*
X123250000Y-125087500D03*
%TD*%
D51*
%TO.C,D17*%
X103250000Y-116650000D03*
X103250000Y-118850000D03*
%TD*%
D15*
%TO.C,R50*%
X121500000Y-77412500D03*
X121500000Y-75587500D03*
%TD*%
D14*
%TO.C,C34*%
X121000000Y-134025000D03*
X121000000Y-132475000D03*
%TD*%
D40*
%TO.C,C7*%
X96500000Y-222975000D03*
X96500000Y-224525000D03*
%TD*%
D14*
%TO.C,C37*%
X103000000Y-133775000D03*
X103000000Y-132225000D03*
%TD*%
D15*
%TO.C,R47*%
X116587500Y-75525000D03*
X116587500Y-73700000D03*
%TD*%
D37*
%TO.C,R38*%
X117337500Y-119750000D03*
X119162500Y-119750000D03*
%TD*%
D16*
%TO.C,R48*%
X113587500Y-75450000D03*
X113587500Y-77275000D03*
%TD*%
D13*
%TO.C,D5*%
X88750000Y-220000000D03*
X92750000Y-220000000D03*
%TD*%
D14*
%TO.C,C35*%
X95500000Y-133750000D03*
X95500000Y-132200000D03*
%TD*%
D40*
%TO.C,C43*%
X165325000Y-118775000D03*
X165325000Y-120325000D03*
%TD*%
D16*
%TO.C,R24*%
X149600000Y-214487500D03*
X149600000Y-216312500D03*
%TD*%
D37*
%TO.C,R30*%
X102087500Y-142250000D03*
X103912500Y-142250000D03*
%TD*%
D20*
%TO.C,R62*%
X93212500Y-205400000D03*
X91387500Y-205400000D03*
%TD*%
D45*
%TO.C,D15*%
X123100000Y-116500000D03*
X120900000Y-116500000D03*
%TD*%
D43*
%TO.C,D20*%
X162000000Y-123500000D03*
X158000000Y-123500000D03*
%TD*%
D15*
%TO.C,R33*%
X113137500Y-141962500D03*
X113137500Y-140137500D03*
%TD*%
D13*
%TO.C,D9*%
X139600000Y-223800000D03*
X143600000Y-223800000D03*
%TD*%
D15*
%TO.C,R37*%
X114000000Y-122912500D03*
X114000000Y-121087500D03*
%TD*%
D34*
%TO.C,C31*%
X98750000Y-141400000D03*
X97200000Y-141400000D03*
%TD*%
D11*
%TO.C,C52*%
X98575000Y-212550000D03*
X100125000Y-212550000D03*
%TD*%
D36*
%TO.C,RV2*%
X119425000Y-209750000D03*
X116500000Y-209750000D03*
%TD*%
D40*
%TO.C,C10*%
X157750000Y-176975000D03*
X157750000Y-178525000D03*
%TD*%
D11*
%TO.C,C42*%
X153625000Y-115700000D03*
X155175000Y-115700000D03*
%TD*%
D22*
%TO.C,D23*%
X194000000Y-223000000D03*
X194000000Y-227000000D03*
%TD*%
D11*
%TO.C,C50*%
X106725000Y-80000000D03*
X108275000Y-80000000D03*
%TD*%
D37*
%TO.C,R16*%
X142187500Y-190500000D03*
X144012500Y-190500000D03*
%TD*%
D16*
%TO.C,R41*%
X103250000Y-112337500D03*
X103250000Y-114162500D03*
%TD*%
D45*
%TO.C,D18*%
X99850000Y-114500000D03*
X97650000Y-114500000D03*
%TD*%
D43*
%TO.C,D1*%
X154500000Y-177750000D03*
X150500000Y-177750000D03*
%TD*%
D40*
%TO.C,C9*%
X103500000Y-222975000D03*
X103500000Y-224525000D03*
%TD*%
D14*
%TO.C,C22*%
X101500000Y-101525000D03*
X101500000Y-99975000D03*
%TD*%
D16*
%TO.C,R32*%
X96500000Y-145837500D03*
X96500000Y-147662500D03*
%TD*%
D50*
%TO.C,U17*%
X157462500Y-120405000D03*
X157462500Y-119135000D03*
X157462500Y-117865000D03*
X157462500Y-116595000D03*
X162537500Y-116595000D03*
X162537500Y-117865000D03*
X162537500Y-119135000D03*
X162537500Y-120405000D03*
%TD*%
D52*
%TO.C,C47*%
X110587500Y-77587500D03*
X110587500Y-74637500D03*
%TD*%
D20*
%TO.C,R27*%
X143162500Y-226750000D03*
X141337500Y-226750000D03*
%TD*%
D16*
%TO.C,R46*%
X167386000Y-129387500D03*
X167386000Y-131212500D03*
%TD*%
D15*
%TO.C,R5*%
X141750000Y-172412500D03*
X141750000Y-170587500D03*
%TD*%
D12*
%TO.C,Q10*%
X178462500Y-221050000D03*
X178462500Y-219150000D03*
X180337500Y-220100000D03*
%TD*%
D34*
%TO.C,C33*%
X94150000Y-141400000D03*
X92600000Y-141400000D03*
%TD*%
D20*
%TO.C,R25*%
X90162500Y-225750000D03*
X88337500Y-225750000D03*
%TD*%
D34*
%TO.C,C30*%
X105275000Y-99500000D03*
X103725000Y-99500000D03*
%TD*%
D12*
%TO.C,Q9*%
X178662500Y-225150000D03*
X178662500Y-223250000D03*
X180537500Y-224200000D03*
%TD*%
D40*
%TO.C,C2*%
X102700000Y-180725000D03*
X102700000Y-182275000D03*
%TD*%
D34*
%TO.C,C49*%
X118275000Y-78750000D03*
X116725000Y-78750000D03*
%TD*%
D37*
%TO.C,R39*%
X117337500Y-116250000D03*
X119162500Y-116250000D03*
%TD*%
D53*
%TO.C,U15*%
X106575000Y-121295000D03*
X106575000Y-122565000D03*
X106575000Y-123835000D03*
X106575000Y-125105000D03*
X99375000Y-125105000D03*
X99375000Y-123835000D03*
X99375000Y-122565000D03*
X99375000Y-121295000D03*
%TD*%
D51*
%TO.C,D19*%
X100750000Y-116650000D03*
X100750000Y-118850000D03*
%TD*%
D45*
%TO.C,D16*%
X123100000Y-119750000D03*
X120900000Y-119750000D03*
%TD*%
D16*
%TO.C,R34*%
X98750000Y-145837500D03*
X98750000Y-147662500D03*
%TD*%
D40*
%TO.C,C38*%
X105750000Y-112475000D03*
X105750000Y-114025000D03*
%TD*%
%TO.C,C6*%
X145000000Y-171116206D03*
X145000000Y-172666206D03*
%TD*%
D52*
%TO.C,C19*%
X174100000Y-211475000D03*
X174100000Y-208525000D03*
%TD*%
D15*
%TO.C,R49*%
X121500000Y-70912500D03*
X121500000Y-69087500D03*
%TD*%
M02*
