%TF.GenerationSoftware,KiCad,Pcbnew,8.0.3-8.0.3-0~ubuntu22.04.1*%
%TF.CreationDate,2024-07-10T15:47:05+03:00*%
%TF.ProjectId,supply,73757070-6c79-42e6-9b69-6361645f7063,rev?*%
%TF.SameCoordinates,Original*%
%TF.FileFunction,Paste,Bot*%
%TF.FilePolarity,Positive*%
%FSLAX46Y46*%
G04 Gerber Fmt 4.6, Leading zero omitted, Abs format (unit mm)*
G04 Created by KiCad (PCBNEW 8.0.3-8.0.3-0~ubuntu22.04.1) date 2024-07-10 15:47:05*
%MOMM*%
%LPD*%
G01*
G04 APERTURE LIST*
G04 Aperture macros list*
%AMRoundRect*
0 Rectangle with rounded corners*
0 $1 Rounding radius*
0 $2 $3 $4 $5 $6 $7 $8 $9 X,Y pos of 4 corners*
0 Add a 4 corners polygon primitive as box body*
4,1,4,$2,$3,$4,$5,$6,$7,$8,$9,$2,$3,0*
0 Add four circle primitives for the rounded corners*
1,1,$1+$1,$2,$3*
1,1,$1+$1,$4,$5*
1,1,$1+$1,$6,$7*
1,1,$1+$1,$8,$9*
0 Add four rect primitives between the rounded corners*
20,1,$1+$1,$2,$3,$4,$5,0*
20,1,$1+$1,$4,$5,$6,$7,0*
20,1,$1+$1,$6,$7,$8,$9,0*
20,1,$1+$1,$8,$9,$2,$3,0*%
G04 Aperture macros list end*
%ADD10RoundRect,0.225000X0.250000X-0.225000X0.250000X0.225000X-0.250000X0.225000X-0.250000X-0.225000X0*%
%ADD11RoundRect,0.250000X0.262500X0.450000X-0.262500X0.450000X-0.262500X-0.450000X0.262500X-0.450000X0*%
%ADD12RoundRect,0.225000X-0.250000X0.225000X-0.250000X-0.225000X0.250000X-0.225000X0.250000X0.225000X0*%
%ADD13RoundRect,0.250000X-1.000000X-0.650000X1.000000X-0.650000X1.000000X0.650000X-1.000000X0.650000X0*%
%ADD14RoundRect,0.225000X0.225000X0.250000X-0.225000X0.250000X-0.225000X-0.250000X0.225000X-0.250000X0*%
%ADD15RoundRect,0.250000X1.100000X-0.325000X1.100000X0.325000X-1.100000X0.325000X-1.100000X-0.325000X0*%
%ADD16RoundRect,0.250000X0.325000X1.100000X-0.325000X1.100000X-0.325000X-1.100000X0.325000X-1.100000X0*%
%ADD17RoundRect,0.250000X-0.450000X0.262500X-0.450000X-0.262500X0.450000X-0.262500X0.450000X0.262500X0*%
%ADD18RoundRect,0.250000X-1.100000X0.325000X-1.100000X-0.325000X1.100000X-0.325000X1.100000X0.325000X0*%
%ADD19RoundRect,0.162500X-0.825000X-0.162500X0.825000X-0.162500X0.825000X0.162500X-0.825000X0.162500X0*%
%ADD20RoundRect,0.225000X-0.225000X-0.250000X0.225000X-0.250000X0.225000X0.250000X-0.225000X0.250000X0*%
%ADD21RoundRect,0.250000X-0.650000X1.000000X-0.650000X-1.000000X0.650000X-1.000000X0.650000X1.000000X0*%
%ADD22RoundRect,0.125000X-0.125000X0.125000X-0.125000X-0.125000X0.125000X-0.125000X0.125000X0.125000X0*%
%ADD23RoundRect,0.250000X1.000000X0.650000X-1.000000X0.650000X-1.000000X-0.650000X1.000000X-0.650000X0*%
%ADD24RoundRect,0.250000X0.450000X-0.262500X0.450000X0.262500X-0.450000X0.262500X-0.450000X-0.262500X0*%
G04 APERTURE END LIST*
D10*
%TO.C,C42*%
X104785000Y-111150000D03*
X104785000Y-109600000D03*
%TD*%
D11*
%TO.C,R18*%
X153312500Y-187300000D03*
X151487500Y-187300000D03*
%TD*%
D12*
%TO.C,C38*%
X194400000Y-119800000D03*
X194400000Y-121350000D03*
%TD*%
D13*
%TO.C,D3*%
X63900000Y-177900000D03*
X67900000Y-177900000D03*
%TD*%
D12*
%TO.C,C36*%
X196000000Y-119825000D03*
X196000000Y-121375000D03*
%TD*%
D14*
%TO.C,C37*%
X202475000Y-115900000D03*
X200925000Y-115900000D03*
%TD*%
D15*
%TO.C,C12*%
X78500000Y-144775000D03*
X78500000Y-141825000D03*
%TD*%
D16*
%TO.C,C17*%
X132275000Y-156300000D03*
X129325000Y-156300000D03*
%TD*%
D17*
%TO.C,R5*%
X105400000Y-151387500D03*
X105400000Y-153212500D03*
%TD*%
D12*
%TO.C,C33*%
X190800000Y-120425000D03*
X190800000Y-121975000D03*
%TD*%
D18*
%TO.C,C54*%
X167700000Y-140967677D03*
X167700000Y-143917677D03*
%TD*%
D12*
%TO.C,C10*%
X106500000Y-148025000D03*
X106500000Y-149575000D03*
%TD*%
D10*
%TO.C,C7*%
X193400000Y-131575000D03*
X193400000Y-130025000D03*
%TD*%
D12*
%TO.C,C34*%
X189200000Y-120450000D03*
X189200000Y-122000000D03*
%TD*%
D19*
%TO.C,U9*%
X115962500Y-178205000D03*
X115962500Y-176935000D03*
X115962500Y-175665000D03*
X115962500Y-174395000D03*
X121037500Y-174395000D03*
X121037500Y-175665000D03*
X121037500Y-176935000D03*
X121037500Y-178205000D03*
%TD*%
D12*
%TO.C,C8*%
X192100000Y-150325000D03*
X192100000Y-151875000D03*
%TD*%
D11*
%TO.C,R19*%
X61412500Y-178000000D03*
X59587500Y-178000000D03*
%TD*%
D12*
%TO.C,C26*%
X127500000Y-104775000D03*
X127500000Y-106325000D03*
%TD*%
D20*
%TO.C,C25*%
X132500000Y-101950000D03*
X134050000Y-101950000D03*
%TD*%
D14*
%TO.C,C52*%
X157000000Y-148325000D03*
X155450000Y-148325000D03*
%TD*%
D11*
%TO.C,R21*%
X130400000Y-177900000D03*
X128575000Y-177900000D03*
%TD*%
D19*
%TO.C,U10*%
X151062500Y-178505000D03*
X151062500Y-177235000D03*
X151062500Y-175965000D03*
X151062500Y-174695000D03*
X156137500Y-174695000D03*
X156137500Y-175965000D03*
X156137500Y-177235000D03*
X156137500Y-178505000D03*
%TD*%
D18*
%TO.C,C6*%
X178800000Y-121425000D03*
X178800000Y-124375000D03*
%TD*%
D10*
%TO.C,C43*%
X107585000Y-111150000D03*
X107585000Y-109600000D03*
%TD*%
D20*
%TO.C,C29*%
X138700000Y-94400000D03*
X140250000Y-94400000D03*
%TD*%
D14*
%TO.C,C27*%
X143825000Y-101962500D03*
X142275000Y-101962500D03*
%TD*%
D19*
%TO.C,U7*%
X80662500Y-177905000D03*
X80662500Y-176635000D03*
X80662500Y-175365000D03*
X80662500Y-174095000D03*
X85737500Y-174095000D03*
X85737500Y-175365000D03*
X85737500Y-176635000D03*
X85737500Y-177905000D03*
%TD*%
D21*
%TO.C,D14*%
X197500000Y-175100000D03*
X197500000Y-179100000D03*
%TD*%
D17*
%TO.C,R28*%
X113785000Y-104387500D03*
X113785000Y-106212500D03*
%TD*%
D14*
%TO.C,C31*%
X150925000Y-97862500D03*
X149375000Y-97862500D03*
%TD*%
D22*
%TO.C,D12*%
X92385000Y-92900000D03*
X92385000Y-95100000D03*
%TD*%
D12*
%TO.C,C40*%
X119800000Y-104625000D03*
X119800000Y-106175000D03*
%TD*%
D13*
%TO.C,D15*%
X167200000Y-181000000D03*
X171200000Y-181000000D03*
%TD*%
%TO.C,D16*%
X178600000Y-180900000D03*
X182600000Y-180900000D03*
%TD*%
D11*
%TO.C,R22*%
X143862500Y-99362500D03*
X142037500Y-99362500D03*
%TD*%
D17*
%TO.C,R41*%
X144925000Y-149412500D03*
X144925000Y-151237500D03*
%TD*%
D11*
%TO.C,R32*%
X203512500Y-124400000D03*
X201687500Y-124400000D03*
%TD*%
D16*
%TO.C,C15*%
X108775000Y-164600000D03*
X105825000Y-164600000D03*
%TD*%
D12*
%TO.C,C44*%
X199200000Y-123425000D03*
X199200000Y-124975000D03*
%TD*%
D20*
%TO.C,C24*%
X132500000Y-99450000D03*
X134050000Y-99450000D03*
%TD*%
D21*
%TO.C,D13*%
X201200000Y-175100000D03*
X201200000Y-179100000D03*
%TD*%
D14*
%TO.C,C28*%
X143350000Y-94400000D03*
X141800000Y-94400000D03*
%TD*%
D17*
%TO.C,R39*%
X194600000Y-177487500D03*
X194600000Y-179312500D03*
%TD*%
D10*
%TO.C,C32*%
X155750000Y-95137500D03*
X155750000Y-93587500D03*
%TD*%
D20*
%TO.C,C41*%
X200725000Y-120400000D03*
X202275000Y-120400000D03*
%TD*%
D14*
%TO.C,C46*%
X198375000Y-127200000D03*
X196825000Y-127200000D03*
%TD*%
D23*
%TO.C,D4*%
X103100000Y-177800000D03*
X99100000Y-177800000D03*
%TD*%
D11*
%TO.C,R15*%
X118412500Y-187100000D03*
X116587500Y-187100000D03*
%TD*%
D17*
%TO.C,R38*%
X204000000Y-177687500D03*
X204000000Y-179512500D03*
%TD*%
D14*
%TO.C,C30*%
X150925000Y-100362500D03*
X149375000Y-100362500D03*
%TD*%
D23*
%TO.C,D6*%
X137100000Y-177100000D03*
X133100000Y-177100000D03*
%TD*%
D11*
%TO.C,R12*%
X83512500Y-187300000D03*
X81687500Y-187300000D03*
%TD*%
D10*
%TO.C,C4*%
X185600000Y-129175000D03*
X185600000Y-127625000D03*
%TD*%
D11*
%TO.C,R4*%
X199312500Y-155700000D03*
X197487500Y-155700000D03*
%TD*%
D24*
%TO.C,R27*%
X91385000Y-108087500D03*
X91385000Y-106262500D03*
%TD*%
D11*
%TO.C,R20*%
X95412500Y-177700000D03*
X93587500Y-177700000D03*
%TD*%
D10*
%TO.C,C39*%
X97585000Y-107725000D03*
X97585000Y-106175000D03*
%TD*%
M02*
