%TF.GenerationSoftware,KiCad,Pcbnew,8.0.1-8.0.1-1~ubuntu22.04.1*%
%TF.CreationDate,2024-04-05T12:52:07+03:00*%
%TF.ProjectId,supply,73757070-6c79-42e6-9b69-6361645f7063,rev?*%
%TF.SameCoordinates,Original*%
%TF.FileFunction,Copper,L2,Inr*%
%TF.FilePolarity,Positive*%
%FSLAX46Y46*%
G04 Gerber Fmt 4.6, Leading zero omitted, Abs format (unit mm)*
G04 Created by KiCad (PCBNEW 8.0.1-8.0.1-1~ubuntu22.04.1) date 2024-04-05 12:52:07*
%MOMM*%
%LPD*%
G01*
G04 APERTURE LIST*
G04 Aperture macros list*
%AMRoundRect*
0 Rectangle with rounded corners*
0 $1 Rounding radius*
0 $2 $3 $4 $5 $6 $7 $8 $9 X,Y pos of 4 corners*
0 Add a 4 corners polygon primitive as box body*
4,1,4,$2,$3,$4,$5,$6,$7,$8,$9,$2,$3,0*
0 Add four circle primitives for the rounded corners*
1,1,$1+$1,$2,$3*
1,1,$1+$1,$4,$5*
1,1,$1+$1,$6,$7*
1,1,$1+$1,$8,$9*
0 Add four rect primitives between the rounded corners*
20,1,$1+$1,$2,$3,$4,$5,0*
20,1,$1+$1,$4,$5,$6,$7,0*
20,1,$1+$1,$6,$7,$8,$9,0*
20,1,$1+$1,$8,$9,$2,$3,0*%
G04 Aperture macros list end*
%TA.AperFunction,ComponentPad*%
%ADD10R,1.905000X2.000000*%
%TD*%
%TA.AperFunction,ComponentPad*%
%ADD11O,1.905000X2.000000*%
%TD*%
%TA.AperFunction,ComponentPad*%
%ADD12C,2.000000*%
%TD*%
%TA.AperFunction,ComponentPad*%
%ADD13R,1.800000X1.800000*%
%TD*%
%TA.AperFunction,ComponentPad*%
%ADD14C,1.800000*%
%TD*%
%TA.AperFunction,ComponentPad*%
%ADD15R,1.600000X1.600000*%
%TD*%
%TA.AperFunction,ComponentPad*%
%ADD16C,1.600000*%
%TD*%
%TA.AperFunction,ComponentPad*%
%ADD17R,1.560000X1.560000*%
%TD*%
%TA.AperFunction,ComponentPad*%
%ADD18C,1.560000*%
%TD*%
%TA.AperFunction,ComponentPad*%
%ADD19R,2.000000X2.000000*%
%TD*%
%TA.AperFunction,ComponentPad*%
%ADD20RoundRect,0.250000X-0.600000X-0.725000X0.600000X-0.725000X0.600000X0.725000X-0.600000X0.725000X0*%
%TD*%
%TA.AperFunction,ComponentPad*%
%ADD21O,1.700000X1.950000*%
%TD*%
%TA.AperFunction,ComponentPad*%
%ADD22RoundRect,0.250002X1.699998X1.699998X-1.699998X1.699998X-1.699998X-1.699998X1.699998X-1.699998X0*%
%TD*%
%TA.AperFunction,ComponentPad*%
%ADD23RoundRect,0.249999X-1.025001X1.025001X-1.025001X-1.025001X1.025001X-1.025001X1.025001X1.025001X0*%
%TD*%
%TA.AperFunction,ComponentPad*%
%ADD24C,2.550000*%
%TD*%
%TA.AperFunction,ComponentPad*%
%ADD25R,2.400000X2.400000*%
%TD*%
%TA.AperFunction,ComponentPad*%
%ADD26C,2.400000*%
%TD*%
%TA.AperFunction,ComponentPad*%
%ADD27R,1.700000X1.700000*%
%TD*%
%TA.AperFunction,ComponentPad*%
%ADD28O,1.700000X1.700000*%
%TD*%
%TA.AperFunction,ComponentPad*%
%ADD29C,2.200000*%
%TD*%
%TA.AperFunction,ComponentPad*%
%ADD30C,2.500000*%
%TD*%
%TA.AperFunction,ComponentPad*%
%ADD31RoundRect,0.250000X-0.600000X-0.750000X0.600000X-0.750000X0.600000X0.750000X-0.600000X0.750000X0*%
%TD*%
%TA.AperFunction,ComponentPad*%
%ADD32O,1.700000X2.000000*%
%TD*%
%TA.AperFunction,ComponentPad*%
%ADD33RoundRect,0.250000X0.600000X0.725000X-0.600000X0.725000X-0.600000X-0.725000X0.600000X-0.725000X0*%
%TD*%
%TA.AperFunction,ComponentPad*%
%ADD34O,1.600000X1.600000*%
%TD*%
%TA.AperFunction,ComponentPad*%
%ADD35RoundRect,0.250000X-0.725000X0.600000X-0.725000X-0.600000X0.725000X-0.600000X0.725000X0.600000X0*%
%TD*%
%TA.AperFunction,ComponentPad*%
%ADD36O,1.950000X1.700000*%
%TD*%
%TA.AperFunction,ComponentPad*%
%ADD37RoundRect,0.249999X-1.025001X-1.025001X1.025001X-1.025001X1.025001X1.025001X-1.025001X1.025001X0*%
%TD*%
%TA.AperFunction,ComponentPad*%
%ADD38R,2.500000X4.500000*%
%TD*%
%TA.AperFunction,ComponentPad*%
%ADD39O,2.500000X4.500000*%
%TD*%
%TA.AperFunction,ComponentPad*%
%ADD40R,1.524000X1.524000*%
%TD*%
%TA.AperFunction,ComponentPad*%
%ADD41C,1.524000*%
%TD*%
%TA.AperFunction,ComponentPad*%
%ADD42C,3.500000*%
%TD*%
%TA.AperFunction,ComponentPad*%
%ADD43RoundRect,0.249999X1.300001X1.300001X-1.300001X1.300001X-1.300001X-1.300001X1.300001X-1.300001X0*%
%TD*%
%TA.AperFunction,ComponentPad*%
%ADD44C,3.100000*%
%TD*%
%TA.AperFunction,ComponentPad*%
%ADD45RoundRect,0.250000X0.750000X-0.600000X0.750000X0.600000X-0.750000X0.600000X-0.750000X-0.600000X0*%
%TD*%
%TA.AperFunction,ComponentPad*%
%ADD46O,2.000000X1.700000*%
%TD*%
%TA.AperFunction,ComponentPad*%
%ADD47RoundRect,0.250000X-0.750000X0.600000X-0.750000X-0.600000X0.750000X-0.600000X0.750000X0.600000X0*%
%TD*%
%TA.AperFunction,ComponentPad*%
%ADD48RoundRect,0.250000X0.600000X0.750000X-0.600000X0.750000X-0.600000X-0.750000X0.600000X-0.750000X0*%
%TD*%
%TA.AperFunction,ComponentPad*%
%ADD49RoundRect,0.249999X-1.300001X-1.300001X1.300001X-1.300001X1.300001X1.300001X-1.300001X1.300001X0*%
%TD*%
%TA.AperFunction,ComponentPad*%
%ADD50RoundRect,0.249999X1.300001X-1.300001X1.300001X1.300001X-1.300001X1.300001X-1.300001X-1.300001X0*%
%TD*%
%TA.AperFunction,ComponentPad*%
%ADD51C,3.000000*%
%TD*%
%TA.AperFunction,ComponentPad*%
%ADD52C,1.500000*%
%TD*%
%TA.AperFunction,ComponentPad*%
%ADD53R,3.200000X3.200000*%
%TD*%
%TA.AperFunction,ComponentPad*%
%ADD54O,3.200000X3.200000*%
%TD*%
%TA.AperFunction,ViaPad*%
%ADD55C,0.800000*%
%TD*%
%TA.AperFunction,Conductor*%
%ADD56C,5.000000*%
%TD*%
%TA.AperFunction,Conductor*%
%ADD57C,1.000000*%
%TD*%
%TA.AperFunction,Conductor*%
%ADD58C,0.500000*%
%TD*%
%TA.AperFunction,Conductor*%
%ADD59C,2.000000*%
%TD*%
%TA.AperFunction,Conductor*%
%ADD60C,0.300000*%
%TD*%
%TA.AperFunction,Conductor*%
%ADD61C,0.200000*%
%TD*%
G04 APERTURE END LIST*
D10*
%TO.N,Net-(Q10-G)*%
%TO.C,Q10*%
X158867000Y-143602000D03*
D11*
%TO.N,Net-(Q10-D)*%
X156327000Y-143602000D03*
%TO.N,GNDPWR*%
X153787000Y-143602000D03*
%TD*%
D12*
%TO.N,GND*%
%TO.C,J3*%
X88000000Y-171700000D03*
%TD*%
D13*
%TO.N,/Control & Fan/MOSI*%
%TO.C,J14*%
X115230000Y-134520000D03*
D14*
%TO.N,/Control & Fan/+5V_VSYS*%
X117770000Y-134520000D03*
%TO.N,unconnected-(J14-Pin_3-Pad3)*%
X115230000Y-137060000D03*
%TO.N,unconnected-(J14-Pin_4-Pad4)*%
X117770000Y-137060000D03*
%TO.N,/Control & Fan/RESET#*%
X115230000Y-139600000D03*
%TO.N,/Control & Fan/TXD*%
X117770000Y-139600000D03*
%TO.N,/Control & Fan/SCK*%
X115230000Y-142140000D03*
%TO.N,GND*%
X117770000Y-142140000D03*
%TO.N,/Control & Fan/MISO*%
X115230000Y-144680000D03*
%TO.N,GND*%
X117770000Y-144680000D03*
%TD*%
D15*
%TO.N,/Internal 5V & out usb/V_STANDBY*%
%TO.C,C63*%
X131300000Y-155200000D03*
D16*
%TO.N,GNDPWR*%
X128800000Y-155200000D03*
%TD*%
D13*
%TO.N,Net-(D2-A1)*%
%TO.C,D2*%
X111550000Y-231950000D03*
D14*
%TO.N,Net-(D2-K)*%
X109010000Y-231950000D03*
%TO.N,Net-(D2-A2)*%
X106470000Y-231950000D03*
%TD*%
D17*
%TO.N,/Control & Fan/+5V_VSYS*%
%TO.C,RV3*%
X108112500Y-114660000D03*
D18*
%TO.N,Net-(U19A--)*%
X110612500Y-119660000D03*
%TO.N,GND*%
X113112500Y-114660000D03*
%TD*%
D19*
%TO.N,Net-(D8-K)*%
%TO.C,C21*%
X139200000Y-203025000D03*
D12*
%TO.N,GND*%
X139200000Y-198025000D03*
%TD*%
D20*
%TO.N,/Control & Fan/+5V_VSYS*%
%TO.C,J16*%
X109750000Y-97200000D03*
D21*
%TO.N,Net-(J16-Pin_2)*%
X112250000Y-97200000D03*
%TO.N,Net-(J16-Pin_3)*%
X114750000Y-97200000D03*
%TD*%
D22*
%TO.N,/Internal 5V & out usb/V_STANDBY*%
%TO.C,J4*%
X137800000Y-154700000D03*
%TD*%
D23*
%TO.N,/Internal 5V & out usb/USB_2_3_+5V*%
%TO.C,F2*%
X109500000Y-217800000D03*
D24*
%TO.N,/Internal 5V & out usb/VBUS_2_+*%
X109500000Y-222600000D03*
%TD*%
D25*
%TO.N,/Internal 5V & out usb/400V*%
%TO.C,C17*%
X184087246Y-145300000D03*
D26*
%TO.N,GNDPWR*%
X191587246Y-145300000D03*
%TD*%
D27*
%TO.N,/Output connectors/5V_FUSE*%
%TO.C,J26*%
X186650000Y-230275000D03*
D28*
%TO.N,GND*%
X186650000Y-232815000D03*
%TO.N,/Output connectors/3.3V_FUSE*%
X189190000Y-230275000D03*
%TO.N,GND*%
X189190000Y-232815000D03*
%TO.N,/Output connectors/SIGNAL_OUT_PWR_5V*%
X191730000Y-230275000D03*
%TO.N,GND*%
X191730000Y-232815000D03*
%TO.N,/Output connectors/SIGNAL_OUT_PWR_3V3*%
X194270000Y-230275000D03*
%TO.N,/Control & Fan/SIGNAL_OUT*%
X194270000Y-232815000D03*
%TD*%
D29*
%TO.N,Net-(C18-Pad1)*%
%TO.C,C18*%
X173600000Y-160200000D03*
%TO.N,/Internal 5V & out usb/400V*%
X173600000Y-145200000D03*
%TD*%
D30*
%TO.N,Net-(D8-A-Pad1)*%
%TO.C,TR1*%
X162360000Y-185460000D03*
X162360000Y-165140000D03*
X167440000Y-185460000D03*
%TO.N,GND*%
X167440000Y-165140000D03*
%TO.N,Net-(D8-A-Pad1)*%
X172520000Y-185460000D03*
%TO.N,GND*%
X172520000Y-165140000D03*
%TO.N,Net-(D8-A-Pad3)*%
X177600000Y-185460000D03*
%TO.N,GND*%
X177600000Y-165140000D03*
%TO.N,Net-(D8-A-Pad3)*%
X182680000Y-185460000D03*
%TO.N,GND*%
X182680000Y-165140000D03*
%TO.N,Net-(D8-A-Pad3)*%
X187760000Y-185460000D03*
%TO.N,Net-(Q1-S)*%
X187760000Y-165140000D03*
%TO.N,Net-(D8-A-Pad3)*%
X192840000Y-185460000D03*
%TO.N,Net-(C18-Pad1)*%
X192840000Y-165140000D03*
%TD*%
D25*
%TO.N,/Internal 5V & out usb/400V*%
%TO.C,C70*%
X183287246Y-75200000D03*
D26*
%TO.N,GNDPWR*%
X190787246Y-75200000D03*
%TD*%
D20*
%TO.N,Net-(J17-Pin_1)*%
%TO.C,J17*%
X105362500Y-125150000D03*
D21*
%TO.N,/Control & Fan/TFT_DC*%
X107862500Y-125150000D03*
%TO.N,/Control & Fan/MOSI*%
X110362500Y-125150000D03*
%TO.N,/Control & Fan/SCK*%
X112862500Y-125150000D03*
%TO.N,/Control & Fan/TFT_CS*%
X115362500Y-125150000D03*
%TO.N,GND*%
X117862500Y-125150000D03*
%TD*%
D13*
%TO.N,Net-(D13-K)*%
%TO.C,D13*%
X145575000Y-218700000D03*
D14*
%TO.N,/Internal 5V & out usb/+5V_OUT*%
X143035000Y-218700000D03*
%TD*%
D25*
%TO.N,/Internal 5V & out usb/+5V_OUT*%
%TO.C,C23*%
X124700000Y-203412755D03*
D26*
%TO.N,GND*%
X124700000Y-195912755D03*
%TD*%
D31*
%TO.N,GND*%
%TO.C,J28*%
X169750000Y-232250000D03*
D32*
%TO.N,/Output connectors/5V_FUSE*%
X172250000Y-232250000D03*
%TD*%
D33*
%TO.N,GND*%
%TO.C,J10*%
X99787500Y-148400000D03*
D21*
%TO.N,/Control & Fan/ENCODER_V_CLICK*%
X97287500Y-148400000D03*
%TO.N,/Control & Fan/ENCODER_V_B*%
X94787500Y-148400000D03*
%TO.N,/Control & Fan/ENCODER_V_A*%
X92287500Y-148400000D03*
%TD*%
D20*
%TO.N,GND*%
%TO.C,J12*%
X91687500Y-125200000D03*
D21*
%TO.N,/Control & Fan/ENCODER_I_CLICK*%
X94187500Y-125200000D03*
%TO.N,/Control & Fan/ENCODER_I_B*%
X96687500Y-125200000D03*
%TO.N,/Control & Fan/ENCODER_I_A*%
X99187500Y-125200000D03*
%TD*%
D12*
%TO.N,GND*%
%TO.C,J5*%
X125000000Y-105700000D03*
%TD*%
D16*
%TO.N,GNDPWR*%
%TO.C,C72*%
X163600000Y-154300000D03*
D34*
%TO.N,/Internal 5V & out usb/400V*%
X143600000Y-154300000D03*
%TD*%
D15*
%TO.N,/Internal 5V & out usb/V_STANDBY*%
%TO.C,C4*%
X131282380Y-162700000D03*
D16*
%TO.N,GNDPWR*%
X128782380Y-162700000D03*
%TD*%
D35*
%TO.N,GND*%
%TO.C,J20*%
X90500000Y-179200000D03*
D36*
%TO.N,/Output connectors/LIION_CHARGE_VBAT*%
X90500000Y-181700000D03*
%TO.N,/Output connectors/LIION_CHARGE_LED2*%
X90500000Y-184200000D03*
%TO.N,/Output connectors/LIION_CHARGE_LED1*%
X90500000Y-186700000D03*
%TO.N,Net-(J20-Pin_5)*%
X90500000Y-189200000D03*
%TD*%
D37*
%TO.N,/Output connectors/5V_-*%
%TO.C,F6*%
X168100000Y-224200000D03*
D24*
%TO.N,/Output connectors/5V_FUSE*%
X172900000Y-224200000D03*
%TD*%
D29*
%TO.N,GNDPWR*%
%TO.C,C20*%
X194300000Y-157700000D03*
%TO.N,Net-(C18-Pad1)*%
X179300000Y-157700000D03*
%TD*%
D38*
%TO.N,Net-(D24-A-Pad1)*%
%TO.C,D24*%
X144400000Y-73600000D03*
D39*
%TO.N,Net-(D24-K)*%
X149850000Y-73600000D03*
%TO.N,Net-(D24-A-Pad3)*%
X155300000Y-73600000D03*
%TD*%
D15*
%TO.N,Net-(R1-Pad1)*%
%TO.C,U3*%
X133400000Y-189925000D03*
D34*
%TO.N,/Internal 5V & out usb/FEEDBACK*%
X133400000Y-192465000D03*
%TO.N,/Internal 5V & out usb/DCDC_FEEDBACK*%
X141020000Y-192465000D03*
%TO.N,/Internal 5V & out usb/DCDC_5V_VREF*%
X141020000Y-189925000D03*
%TD*%
D19*
%TO.N,Net-(C29-Pad1)*%
%TO.C,C30*%
X121117677Y-168925000D03*
D12*
%TO.N,GND*%
X116117677Y-168925000D03*
%TD*%
D13*
%TO.N,Net-(D6-A1)*%
%TO.C,D6*%
X138050000Y-231950000D03*
D14*
%TO.N,Net-(D6-K)*%
X135510000Y-231950000D03*
%TO.N,Net-(D6-A2)*%
X132970000Y-231950000D03*
%TD*%
D37*
%TO.N,/Output connectors/3.3V_-*%
%TO.C,F5*%
X168100000Y-219200000D03*
D24*
%TO.N,/Output connectors/3.3V_FUSE*%
X172900000Y-219200000D03*
%TD*%
D40*
%TO.N,/Internal 5V & out usb/VBUS_2*%
%TO.C,J8*%
X119000000Y-226972500D03*
D41*
%TO.N,Net-(J8-D-)*%
X121500000Y-226972500D03*
%TO.N,Net-(J8-D+)*%
X123500000Y-226972500D03*
%TO.N,GND*%
X126000000Y-226972500D03*
D42*
X115250000Y-229682500D03*
X129750000Y-229682500D03*
%TD*%
D43*
%TO.N,GNDPWR*%
%TO.C,J1*%
X194200000Y-57900000D03*
D44*
%TO.N,/Internal 5V & out usb/400V*%
X188200000Y-57900000D03*
%TD*%
D19*
%TO.N,/Internal 5V & out usb/+5V_OUT*%
%TO.C,C27*%
X121117677Y-179925000D03*
D12*
%TO.N,GND*%
X116117677Y-179925000D03*
%TD*%
D23*
%TO.N,/Internal 5V & out usb/USB_2_3_+5V*%
%TO.C,F3*%
X136000000Y-218300000D03*
D24*
%TO.N,/Internal 5V & out usb/VBUS_3_+*%
X136000000Y-223100000D03*
%TD*%
D45*
%TO.N,/Control & Fan/+5V_VSYS*%
%TO.C,M1*%
X108587500Y-107400000D03*
D46*
%TO.N,Net-(D20-A)*%
X108587500Y-104900000D03*
%TD*%
D47*
%TO.N,/Control & Fan/+5V_VSYS*%
%TO.C,TH1*%
X118637500Y-115500000D03*
D46*
%TO.N,Net-(U19A-+)*%
X118637500Y-118000000D03*
%TD*%
D47*
%TO.N,/Control & Fan/+5V_VSYS*%
%TO.C,TH2*%
X93112500Y-115650000D03*
D46*
%TO.N,Net-(U19B-+)*%
X93112500Y-118150000D03*
%TD*%
D26*
%TO.N,GNDPWR*%
%TO.C,C71*%
X189400000Y-134450000D03*
%TO.N,Net-(C69-Pad1)*%
X189400000Y-111950000D03*
%TD*%
D12*
%TO.N,GND*%
%TO.C,J2*%
X125000000Y-88700000D03*
%TD*%
D13*
%TO.N,Net-(D9-A1)*%
%TO.C,D9*%
X164550000Y-231950000D03*
D14*
%TO.N,Net-(D9-K)*%
X162010000Y-231950000D03*
%TO.N,Net-(D9-A2)*%
X159470000Y-231950000D03*
%TD*%
D17*
%TO.N,/Control & Fan/+5V_VSYS*%
%TO.C,RV4*%
X98037500Y-114660000D03*
D18*
%TO.N,Net-(U19B--)*%
X100537500Y-119660000D03*
%TO.N,GND*%
X103037500Y-114660000D03*
%TD*%
D10*
%TO.N,Net-(Q2-G)*%
%TO.C,Q2*%
X147760000Y-175245000D03*
D11*
%TO.N,Net-(Q1-S)*%
X150300000Y-175245000D03*
%TO.N,GNDPWR*%
X152840000Y-175245000D03*
%TD*%
D23*
%TO.N,/Internal 5V & out usb/USB_1_BP*%
%TO.C,F1*%
X90000000Y-210700000D03*
D24*
%TO.N,/Internal 5V & out usb/VBUS_1_+*%
X90000000Y-215500000D03*
%TD*%
D48*
%TO.N,/Control & Fan/+5V_VSYS*%
%TO.C,SW3*%
X108612500Y-148400000D03*
D32*
%TO.N,/Control & Fan/IS_ONOFF_BUTTON_PRESSED*%
X106112500Y-148400000D03*
%TD*%
D10*
%TO.N,Net-(Q9-G)*%
%TO.C,Q9*%
X140167000Y-143702000D03*
D11*
%TO.N,/Internal 5V & out usb/400V*%
X137627000Y-143702000D03*
%TO.N,Net-(Q10-D)*%
X135087000Y-143702000D03*
%TD*%
D49*
%TO.N,/Output connectors/POWER_OUT*%
%TO.C,J22*%
X109700000Y-77600000D03*
D44*
%TO.N,GND*%
X115700000Y-77600000D03*
%TD*%
D40*
%TO.N,/Internal 5V & out usb/VBUS_1*%
%TO.C,J7*%
X92500000Y-226972500D03*
D41*
%TO.N,/Internal 5V & out usb/USB_1_D-*%
X95000000Y-226972500D03*
%TO.N,/Internal 5V & out usb/USB_1_D+*%
X97000000Y-226972500D03*
%TO.N,GND*%
X99500000Y-226972500D03*
D42*
X88750000Y-229682500D03*
X103250000Y-229682500D03*
%TD*%
D15*
%TO.N,/Internal 5V & out usb/USB_1_BP*%
%TO.C,C13*%
X93250000Y-199450000D03*
D16*
%TO.N,GND*%
X96750000Y-199450000D03*
%TD*%
D40*
%TO.N,/Internal 5V & out usb/VBUS_3*%
%TO.C,J9*%
X145500000Y-226972500D03*
D41*
%TO.N,Net-(J9-D-)*%
X148000000Y-226972500D03*
%TO.N,Net-(J9-D+)*%
X150000000Y-226972500D03*
%TO.N,GND*%
X152500000Y-226972500D03*
D42*
X141750000Y-229682500D03*
X156250000Y-229682500D03*
%TD*%
D25*
%TO.N,Net-(D24-K)*%
%TO.C,C74*%
X114800000Y-61822220D03*
D26*
%TO.N,GND*%
X114800000Y-69322220D03*
%TD*%
D31*
%TO.N,GND*%
%TO.C,J27*%
X178750000Y-232250000D03*
D32*
%TO.N,/Output connectors/3.3V_FUSE*%
X181250000Y-232250000D03*
%TD*%
D12*
%TO.N,GND*%
%TO.C,J6*%
X125000000Y-147700000D03*
%TD*%
D38*
%TO.N,Net-(D8-A-Pad1)*%
%TO.C,D8*%
X165250000Y-197920000D03*
D39*
%TO.N,Net-(D8-K)*%
X170700000Y-197920000D03*
%TO.N,Net-(D8-A-Pad3)*%
X176150000Y-197920000D03*
%TD*%
D25*
%TO.N,Net-(U25-+)*%
%TO.C,C75*%
X99977780Y-65200000D03*
D26*
%TO.N,GND*%
X92477780Y-65200000D03*
%TD*%
D50*
%TO.N,/Internal 5V & out usb/+5V_OUT*%
%TO.C,J21*%
X114250000Y-199700000D03*
D44*
%TO.N,GND*%
X114250000Y-193700000D03*
%TD*%
D10*
%TO.N,Net-(Q1-G)*%
%TO.C,Q1*%
X147760000Y-169800000D03*
D11*
%TO.N,/Internal 5V & out usb/400V*%
X150300000Y-169800000D03*
%TO.N,Net-(Q1-S)*%
X152840000Y-169800000D03*
%TD*%
D51*
%TO.N,GND*%
%TO.C,TP6*%
X89400000Y-106500000D03*
%TD*%
D13*
%TO.N,unconnected-(J15-Pin_1-Pad1)*%
%TO.C,J15*%
X89930000Y-88820000D03*
D14*
%TO.N,/Control & Fan/+5V_VSYS*%
X92470000Y-88820000D03*
%TO.N,unconnected-(J15-Pin_3-Pad3)*%
X89930000Y-91360000D03*
%TO.N,/Control & Fan/ATTINY_RXD*%
X92470000Y-91360000D03*
%TO.N,/Control & Fan/ATTINY_RESET#*%
X89930000Y-93900000D03*
%TO.N,/Control & Fan/ATTINY_TXD*%
X92470000Y-93900000D03*
%TO.N,unconnected-(J15-Pin_7-Pad7)*%
X89930000Y-96440000D03*
%TO.N,GND*%
X92470000Y-96440000D03*
%TO.N,unconnected-(J15-Pin_9-Pad9)*%
X89930000Y-98980000D03*
%TO.N,GND*%
X92470000Y-98980000D03*
%TD*%
D26*
%TO.N,Net-(C69-Pad1)*%
%TO.C,C69*%
X189400000Y-108950000D03*
%TO.N,/Internal 5V & out usb/400V*%
X189400000Y-86450000D03*
%TD*%
D52*
%TO.N,Net-(U13-XTAL2{slash}PB7)*%
%TO.C,X1*%
X90987500Y-138850000D03*
%TO.N,Net-(U13-XTAL1{slash}PB6)*%
X90987500Y-133970000D03*
%TD*%
D30*
%TO.N,Net-(Q10-D)*%
%TO.C,TR2*%
X174920000Y-134060000D03*
%TO.N,Net-(D24-A-Pad1)*%
X134280000Y-134060000D03*
%TO.N,Net-(Q10-D)*%
X174920000Y-128980000D03*
%TO.N,Net-(D24-A-Pad1)*%
X134280000Y-128980000D03*
%TO.N,N/C*%
X174920000Y-123900000D03*
%TO.N,Net-(D24-A-Pad1)*%
X134280000Y-123900000D03*
%TO.N,Net-(C69-Pad1)*%
X174920000Y-118820000D03*
%TO.N,Net-(D24-A-Pad1)*%
X134280000Y-118820000D03*
%TO.N,Net-(C69-Pad1)*%
X174920000Y-113740000D03*
%TO.N,N/C*%
X134280000Y-113740000D03*
X174920000Y-108660000D03*
X134280000Y-108660000D03*
%TO.N,Net-(D24-A-Pad3)*%
X174920000Y-103580000D03*
%TO.N,GND*%
X134280000Y-103580000D03*
%TO.N,Net-(D24-A-Pad3)*%
X174920000Y-98500000D03*
%TO.N,GND*%
X134280000Y-98500000D03*
%TO.N,Net-(D24-A-Pad3)*%
X174920000Y-93420000D03*
%TO.N,GND*%
X134280000Y-93420000D03*
%TO.N,Net-(D24-A-Pad3)*%
X174920000Y-88340000D03*
%TO.N,GND*%
X134280000Y-88340000D03*
%TD*%
D53*
%TO.N,/Internal 5V & out usb/USB_1_BP*%
%TO.C,D1*%
X102595000Y-199200000D03*
D54*
%TO.N,Net-(D1-A)*%
X106405000Y-199200000D03*
%TD*%
D16*
%TO.N,GNDPWR*%
%TO.C,C19*%
X157700000Y-161900000D03*
D34*
%TO.N,/Internal 5V & out usb/400V*%
X137700000Y-161900000D03*
%TD*%
D15*
%TO.N,Net-(R63-Pad1)*%
%TO.C,U24*%
X145825000Y-89300000D03*
D34*
%TO.N,Net-(Q11-D)*%
X148365000Y-89300000D03*
%TO.N,/Power output/DCDC_FEEDBACK*%
X148365000Y-96920000D03*
%TO.N,/Power output/DCDC_5V_VREF*%
X145825000Y-96920000D03*
%TD*%
D15*
%TO.N,Net-(R54-Pad1)*%
%TO.C,U21*%
X162500000Y-92800000D03*
D34*
%TO.N,Net-(Q7-D)*%
X165040000Y-92800000D03*
%TO.N,Net-(Q8-G)*%
X165040000Y-100420000D03*
%TO.N,/Power output/DCDC_5V_VREF*%
X162500000Y-100420000D03*
%TD*%
D55*
%TO.N,GNDPWR*%
X159200000Y-122000000D03*
%TO.N,GND*%
X92500000Y-165925000D03*
X88900000Y-166700000D03*
X98600000Y-92200000D03*
X104500000Y-204700000D03*
X100700000Y-105200000D03*
X121250000Y-215950000D03*
X99000000Y-96600000D03*
X114700000Y-85400000D03*
X103800000Y-155600000D03*
X106250000Y-166200000D03*
X97612500Y-136150000D03*
X95112500Y-136400000D03*
X99400000Y-91400000D03*
X96400000Y-168700000D03*
X119500000Y-85200000D03*
X110900000Y-85500000D03*
X122500000Y-216950000D03*
X106000000Y-169700000D03*
X100900000Y-172100000D03*
X99400000Y-92200000D03*
X93500000Y-163700000D03*
X151512500Y-82700000D03*
X106400000Y-160400000D03*
X121250000Y-216950000D03*
X101900000Y-160500000D03*
X122500000Y-215950000D03*
X97600000Y-172400000D03*
X98600000Y-91400000D03*
X106862500Y-136200000D03*
X157100000Y-222100000D03*
X96400000Y-162500000D03*
X109250000Y-213450000D03*
X94200000Y-154500000D03*
X97600000Y-170800000D03*
%TO.N,/Control & Fan/+5V_VSYS*%
X95100000Y-167500000D03*
X127000000Y-88700000D03*
X162000000Y-85000000D03*
X87800000Y-159200000D03*
X102100000Y-127300000D03*
X118100000Y-152700000D03*
X94900000Y-96800000D03*
X102612500Y-111400000D03*
X116000000Y-153800000D03*
X153150000Y-222762500D03*
X103612500Y-137800000D03*
X118100000Y-153800000D03*
X96500000Y-233200000D03*
X91200000Y-81129107D03*
X116000000Y-152700000D03*
X96200000Y-102800000D03*
X150000000Y-233200000D03*
X117000000Y-153800000D03*
X92500000Y-167475000D03*
X106000000Y-168200000D03*
X123250000Y-233200000D03*
X117000000Y-152700000D03*
X124900000Y-215118750D03*
X100900000Y-170500000D03*
X145500000Y-85000000D03*
%TO.N,/Internal 5V & out usb/USB_1_+5V*%
X98700000Y-177000000D03*
%TO.N,/Internal 5V & out usb/+3.3_VOUT*%
X181000000Y-202200000D03*
%TO.N,/Control & Fan/RESET#*%
X103500000Y-134200000D03*
%TO.N,/Power output/DCDC_5V_VREF*%
X146300000Y-113800000D03*
%TO.N,Net-(U5-CT)*%
X142400000Y-182300000D03*
X146900000Y-185200000D03*
%TO.N,/Control & Fan/ENABLE_FAN*%
X94612500Y-109900000D03*
X110112500Y-133650000D03*
%TO.N,/Internal 5V & out usb/VBUS_1_+*%
X114750000Y-215700000D03*
X97300000Y-219500000D03*
%TO.N,/Internal 5V & out usb/VBUS_3_+*%
X140024897Y-220825604D03*
X126500000Y-216725500D03*
%TO.N,/Internal 5V & out usb/VBUS_1*%
X114000000Y-214950000D03*
X95450000Y-220250000D03*
%TO.N,/Internal 5V & out usb/VBUS_2*%
X118750000Y-223950000D03*
X118500000Y-219950000D03*
X117250000Y-221449500D03*
%TO.N,/Internal 5V & out usb/VBUS_3*%
X145250000Y-223950000D03*
%TO.N,/Control & Fan/SCK*%
X111587500Y-145537500D03*
X112900000Y-138400000D03*
%TO.N,/Internal 5V & out usb/+5V_OUT*%
X131100000Y-211700000D03*
X132000000Y-211700000D03*
X181000000Y-210200000D03*
X131100000Y-212600000D03*
X132000000Y-209900000D03*
X131100000Y-210800000D03*
X131100000Y-209900000D03*
X133800000Y-211700000D03*
X133800000Y-209900000D03*
X132000000Y-210800000D03*
X133800000Y-212600000D03*
X132900000Y-210800000D03*
X105400000Y-207850000D03*
X164500000Y-222450000D03*
X132900000Y-211700000D03*
X132900000Y-209900000D03*
X133800000Y-210800000D03*
X132900000Y-212600000D03*
X132000000Y-212600000D03*
%TO.N,/Control & Fan/TFT_ENABLE#*%
X108862500Y-131400000D03*
%TO.N,/Control & Fan/POWER_OUTPUT_FB*%
X119200000Y-95500000D03*
X119300000Y-107300000D03*
X119400000Y-87100000D03*
X146000000Y-82450000D03*
%TO.N,/Control & Fan/POWER_OUTPUT_IC_FB*%
X115300000Y-107100000D03*
X102100000Y-94700000D03*
%TO.N,/Control & Fan/IS_ONOFF_BUTTON_PRESSED*%
X115400000Y-109400000D03*
%TO.N,/Internal 5V & out usb/VREF_2V5*%
X150250000Y-229950000D03*
X123250000Y-230200000D03*
X121000000Y-232700000D03*
X96375000Y-230075000D03*
X94885000Y-232585000D03*
X147500000Y-232450000D03*
%TO.N,/Control & Fan/SCL*%
X109000000Y-171700000D03*
X155500000Y-225549500D03*
X104862500Y-130650000D03*
X122590333Y-213546682D03*
X98000000Y-89200000D03*
%TO.N,/Control & Fan/SDA*%
X157400000Y-225300000D03*
X99000000Y-88700000D03*
X106112500Y-130529500D03*
X121550000Y-212797182D03*
X109750000Y-172500000D03*
%TO.N,/Output connectors/3.3V_FUSE*%
X188800000Y-218700000D03*
%TO.N,/Control & Fan/TFT_DC*%
X107362500Y-130650000D03*
%TO.N,/Internal 5V & out usb/V_STANDBY*%
X149800000Y-115700000D03*
X142700000Y-122800000D03*
X134200000Y-179700000D03*
%TO.N,Net-(D8-K)*%
X142600000Y-210000000D03*
X140800000Y-211800000D03*
X143500000Y-210900000D03*
X141700000Y-210900000D03*
X141700000Y-212700000D03*
X140800000Y-210900000D03*
X141700000Y-210000000D03*
X143500000Y-212700000D03*
X143500000Y-211800000D03*
X140800000Y-212700000D03*
X142600000Y-211800000D03*
X142600000Y-212700000D03*
X140800000Y-210000000D03*
X143500000Y-210000000D03*
X141700000Y-211800000D03*
X142600000Y-210900000D03*
%TO.N,/Control & Fan/SIGNAL_OUT*%
X190400000Y-214400000D03*
X184300000Y-214400000D03*
X111000000Y-175700000D03*
%TO.N,/Control & Fan/POWER_OUTPUT_OVERLOADED_LED*%
X112800000Y-85400000D03*
X96100000Y-90300000D03*
%TO.N,/Control & Fan/POWER_OUTPUT_VOLT_SENSE*%
X92700000Y-71800000D03*
%TO.N,/Control & Fan/POWER_OUTPUT_CURRENT_SENSE*%
X94100000Y-78700000D03*
%TO.N,/Control & Fan/SIGNAL_ALWAYS_ON*%
X113249500Y-150800000D03*
X110250000Y-135700000D03*
%TO.N,/Internal 5V & out usb/VBUS1_3.3V*%
X103300000Y-222200000D03*
X94500000Y-231300000D03*
%TO.N,/Control & Fan/TFT_CS*%
X110362500Y-143650000D03*
%TO.N,/Control & Fan/POWER_OUTPUT_VOUT_LED*%
X116600000Y-85400000D03*
X95300000Y-91400000D03*
%TO.N,/Power output/DCDC_SHUTDOWN*%
X162200000Y-104300000D03*
X157300000Y-110500000D03*
%TO.N,/Control & Fan/POWER_OUTPUT_SHUTDOWN#*%
X101900000Y-91000000D03*
X104600000Y-92700000D03*
X164225000Y-86400000D03*
%TO.N,/Internal 5V & out usb/DCDC_FEEDBACK*%
X149000000Y-180300000D03*
%TO.N,/Power output/DCDC_FEEDBACK*%
X148400000Y-101700000D03*
%TO.N,/Control & Fan/SIGNAL_GEN_SHTDN*%
X97700000Y-162500000D03*
X100900000Y-152400000D03*
X102524500Y-135700000D03*
%TO.N,Net-(U2-FB)*%
X103750000Y-184450000D03*
%TO.N,Net-(U22-CT)*%
X156000000Y-99700000D03*
X152100000Y-101600000D03*
%TO.N,Net-(D16-A)*%
X92362500Y-109900000D03*
%TO.N,Net-(D18-A)*%
X96612500Y-109900000D03*
%TO.N,Net-(D1-A)*%
X101100000Y-188500000D03*
X99850000Y-187000000D03*
X101100000Y-187000000D03*
X102350000Y-187000000D03*
X98600000Y-188500000D03*
X99850000Y-188500000D03*
X98600000Y-187000000D03*
X102350000Y-188500000D03*
%TO.N,Net-(Q10-D)*%
X151800000Y-124600000D03*
%TO.N,Net-(U5-OUTA)*%
X127900000Y-183200000D03*
%TO.N,Net-(U5-OUTB)*%
X129500000Y-179600000D03*
%TO.N,Net-(U17-VOUT)*%
X95400000Y-165675000D03*
%TO.N,/Control & Fan/ATTINY_VREF_2V5*%
X104600000Y-95100000D03*
%TO.N,Net-(JP1-C)*%
X87800000Y-163400000D03*
%TD*%
D56*
%TO.N,GND*%
X163400000Y-174500000D02*
X169800000Y-174500000D01*
X139200000Y-198025000D02*
X126812245Y-198025000D01*
X139200000Y-198025000D02*
X150475000Y-198025000D01*
X150475000Y-198025000D02*
X158000000Y-190500000D01*
X158000000Y-179900000D02*
X163400000Y-174500000D01*
X175900000Y-165640000D02*
X175400000Y-165140000D01*
X167440000Y-165140000D02*
X182680000Y-165140000D01*
X169800000Y-174500000D02*
X175900000Y-168400000D01*
X158000000Y-190500000D02*
X158000000Y-179900000D01*
X124700000Y-195912755D02*
X122487245Y-193700000D01*
X126812245Y-198025000D02*
X124700000Y-195912755D01*
X175900000Y-168400000D02*
X175900000Y-165640000D01*
X122487245Y-193700000D02*
X114250000Y-193700000D01*
D57*
%TO.N,/Control & Fan/+5V_VSYS*%
X103612500Y-137800000D02*
X105762500Y-137800000D01*
X109250000Y-181200000D02*
X109250000Y-207950000D01*
X118100000Y-152700000D02*
X116000000Y-152700000D01*
X120400000Y-136100000D02*
X118820000Y-134520000D01*
D58*
X127750000Y-226450000D02*
X142250000Y-226450000D01*
X120212000Y-230162000D02*
X123250000Y-233200000D01*
D57*
X105762500Y-137800000D02*
X108612500Y-140650000D01*
D58*
X92525000Y-167500000D02*
X99100000Y-167500000D01*
X124900000Y-215118750D02*
X124900000Y-216800000D01*
X107900000Y-168200000D02*
X106000000Y-168200000D01*
X104000000Y-164700000D02*
X100900000Y-167800000D01*
X150912500Y-225000000D02*
X127900000Y-225000000D01*
D57*
X107900000Y-179850000D02*
X109250000Y-181200000D01*
D58*
X127900000Y-225000000D02*
X122000000Y-219100000D01*
D57*
X118820000Y-134520000D02*
X117770000Y-134520000D01*
X108612500Y-140650000D02*
X108612500Y-148400000D01*
D58*
X124900000Y-216800000D02*
X123900000Y-217800000D01*
X121500000Y-217800000D02*
X120388000Y-218912000D01*
X146750000Y-229950000D02*
X150000000Y-233200000D01*
X120400000Y-219100000D02*
X120212000Y-218912000D01*
D57*
X107900000Y-168200000D02*
X107900000Y-179850000D01*
X114000000Y-148400000D02*
X113862500Y-148400000D01*
D58*
X142250000Y-226450000D02*
X145750000Y-229950000D01*
X96500000Y-232200000D02*
X96500000Y-233200000D01*
X103000000Y-163600000D02*
X107900000Y-163600000D01*
D57*
X113862500Y-148400000D02*
X118900000Y-148400000D01*
D58*
X108000000Y-220700000D02*
X96500000Y-232200000D01*
D57*
X117000000Y-153800000D02*
X117000000Y-151400000D01*
D58*
X99100000Y-167500000D02*
X103000000Y-163600000D01*
X123900000Y-217800000D02*
X121500000Y-217800000D01*
D57*
X117000000Y-151400000D02*
X114000000Y-148400000D01*
D58*
X145750000Y-229950000D02*
X146750000Y-229950000D01*
D57*
X107900000Y-164800000D02*
X107900000Y-168200000D01*
D58*
X120212000Y-218912000D02*
X120024000Y-219100000D01*
D57*
X118100000Y-152700000D02*
X118100000Y-153800000D01*
X109250000Y-207950000D02*
X120212000Y-218912000D01*
D58*
X100900000Y-167800000D02*
X100900000Y-170500000D01*
X120024000Y-219100000D02*
X116600000Y-219100000D01*
X116600000Y-219100000D02*
X115000000Y-220700000D01*
X115000000Y-220700000D02*
X108000000Y-220700000D01*
X120212000Y-218912000D02*
X127750000Y-226450000D01*
D57*
X118100000Y-153800000D02*
X117000000Y-152700000D01*
D58*
X120212000Y-218912000D02*
X120212000Y-230162000D01*
X92500000Y-167475000D02*
X92525000Y-167500000D01*
D57*
X118900000Y-148400000D02*
X120400000Y-146900000D01*
X120400000Y-146900000D02*
X120400000Y-136100000D01*
X116000000Y-152700000D02*
X116000000Y-153800000D01*
X107900000Y-163600000D02*
X107900000Y-154362500D01*
D58*
X107900000Y-164800000D02*
X107800000Y-164700000D01*
D57*
X108612500Y-148400000D02*
X113862500Y-148400000D01*
D58*
X120388000Y-218912000D02*
X120212000Y-218912000D01*
X122000000Y-219100000D02*
X120400000Y-219100000D01*
X107800000Y-164700000D02*
X104000000Y-164700000D01*
D57*
X118100000Y-153800000D02*
X116000000Y-153800000D01*
X107900000Y-164800000D02*
X107900000Y-163600000D01*
X107900000Y-154362500D02*
X113862500Y-148400000D01*
D58*
X153150000Y-222762500D02*
X150912500Y-225000000D01*
D59*
%TO.N,/Internal 5V & out usb/USB_1_BP*%
X101250000Y-196200000D02*
X102595000Y-197545000D01*
X90000000Y-206700000D02*
X90000000Y-210700000D01*
X93250000Y-203450000D02*
X93250000Y-202450000D01*
X93250000Y-202450000D02*
X93250000Y-197950000D01*
X102595000Y-197545000D02*
X102595000Y-199200000D01*
X95000000Y-196200000D02*
X101250000Y-196200000D01*
X93250000Y-202450000D02*
X93250000Y-199450000D01*
X93250000Y-197950000D02*
X95000000Y-196200000D01*
X90000000Y-206700000D02*
X93250000Y-203450000D01*
D60*
%TO.N,/Control & Fan/RESET#*%
X112190000Y-136560000D02*
X115230000Y-139600000D01*
X103500000Y-134200000D02*
X107162500Y-134200000D01*
X109522500Y-136560000D02*
X112190000Y-136560000D01*
X107162500Y-134200000D02*
X109522500Y-136560000D01*
D58*
%TO.N,Net-(U5-CT)*%
X146900000Y-185200000D02*
X143800000Y-185200000D01*
X142400000Y-183800000D02*
X142400000Y-182300000D01*
X143800000Y-185200000D02*
X142400000Y-183800000D01*
D60*
%TO.N,/Control & Fan/ENABLE_FAN*%
X100612500Y-124802944D02*
X95362500Y-119552944D01*
X109612500Y-133150000D02*
X106112500Y-133150000D01*
X95362500Y-110650000D02*
X94612500Y-109900000D01*
X95362500Y-119552944D02*
X95362500Y-110650000D01*
X100612500Y-127650000D02*
X100612500Y-124802944D01*
X110112500Y-133650000D02*
X109612500Y-133150000D01*
X106112500Y-133150000D02*
X100612500Y-127650000D01*
%TO.N,/Internal 5V & out usb/VBUS_1_+*%
X101500000Y-215700000D02*
X114750000Y-215700000D01*
X97700000Y-219500000D02*
X101500000Y-215700000D01*
X97300000Y-219500000D02*
X97700000Y-219500000D01*
%TO.N,/Internal 5V & out usb/VBUS_3_+*%
X126525500Y-217975500D02*
X126525500Y-216700000D01*
X132500000Y-219200000D02*
X127750000Y-219200000D01*
X127750000Y-219200000D02*
X126525500Y-217975500D01*
X133800000Y-220500000D02*
X132500000Y-219200000D01*
X139699293Y-220500000D02*
X133800000Y-220500000D01*
X140024897Y-220825604D02*
X139699293Y-220500000D01*
%TO.N,/Internal 5V & out usb/VBUS_1*%
X100750000Y-214950000D02*
X95450000Y-220250000D01*
X114000000Y-214950000D02*
X100750000Y-214950000D01*
%TO.N,/Internal 5V & out usb/VBUS_2*%
X117250000Y-220950000D02*
X118250000Y-219950000D01*
X117250000Y-221449500D02*
X117250000Y-220950000D01*
X118250000Y-219950000D02*
X118500000Y-219950000D01*
%TO.N,/Control & Fan/MOSI*%
X113820000Y-134520000D02*
X115230000Y-134520000D01*
X110362500Y-125150000D02*
X110362500Y-131062500D01*
X110362500Y-131062500D02*
X113820000Y-134520000D01*
%TO.N,/Control & Fan/SCK*%
X111587500Y-143812500D02*
X113260000Y-142140000D01*
X113260000Y-142140000D02*
X115230000Y-142140000D01*
X111587500Y-145537500D02*
X111587500Y-143812500D01*
D56*
%TO.N,/Internal 5V & out usb/+5V_OUT*%
X124700000Y-203412755D02*
X117962755Y-203412755D01*
X132400000Y-211200000D02*
X132400000Y-206700000D01*
X124712755Y-203400000D02*
X124700000Y-203412755D01*
X132400000Y-206700000D02*
X129100000Y-203400000D01*
X117962755Y-203412755D02*
X114250000Y-199700000D01*
X129100000Y-203400000D02*
X124712755Y-203400000D01*
D58*
%TO.N,/Control & Fan/POWER_OUTPUT_FB*%
X119200000Y-87300000D02*
X119200000Y-95500000D01*
X119300000Y-95600000D02*
X119300000Y-107300000D01*
D61*
%TO.N,/Control & Fan/SCL*%
X100200000Y-94355636D02*
X104800000Y-98955636D01*
X103712500Y-118221814D02*
X103712500Y-129500000D01*
X104800000Y-98955636D02*
X104800000Y-117134314D01*
X100200000Y-91210050D02*
X100200000Y-94355636D01*
X98189950Y-89200000D02*
X100200000Y-91210050D01*
X98000000Y-89200000D02*
X98189950Y-89200000D01*
X103712500Y-129500000D02*
X104862500Y-130650000D01*
X104800000Y-117134314D02*
X103712500Y-118221814D01*
%TO.N,/Control & Fan/SDA*%
X100600000Y-94189950D02*
X105200000Y-98789950D01*
X104112500Y-118387500D02*
X104112500Y-128529500D01*
X99000000Y-88700000D02*
X100600000Y-90300000D01*
X105200000Y-117300000D02*
X104112500Y-118387500D01*
X104112500Y-128529500D02*
X106112500Y-130529500D01*
X100600000Y-90300000D02*
X100600000Y-94189950D01*
X105200000Y-98789950D02*
X105200000Y-117300000D01*
D60*
%TO.N,/Control & Fan/TFT_DC*%
X107862500Y-130150000D02*
X107862500Y-125150000D01*
X107362500Y-130650000D02*
X107862500Y-130150000D01*
D59*
%TO.N,/Internal 5V & out usb/400V*%
X183287246Y-75200000D02*
X183287246Y-132012754D01*
X174900000Y-140400000D02*
X171300000Y-140400000D01*
X164200000Y-147500000D02*
X143600000Y-147500000D01*
X171300000Y-140400000D02*
X164200000Y-147500000D01*
X183287246Y-132012754D02*
X174900000Y-140400000D01*
D57*
X143600000Y-154300000D02*
X143600000Y-147500000D01*
D59*
X137627000Y-145514500D02*
X137627000Y-143702000D01*
X139612500Y-147500000D02*
X137627000Y-145514500D01*
X143600000Y-147500000D02*
X139612500Y-147500000D01*
D56*
%TO.N,Net-(D8-K)*%
X170700000Y-197920000D02*
X170700000Y-199823911D01*
X167223911Y-203300000D02*
X139475000Y-203300000D01*
X142200000Y-211300000D02*
X139300000Y-208400000D01*
X139300000Y-208400000D02*
X139300000Y-203325000D01*
X170700000Y-199823911D02*
X167223911Y-203300000D01*
X139300000Y-203325000D02*
X139200000Y-203225000D01*
D58*
%TO.N,/Control & Fan/SIGNAL_OUT*%
X125100000Y-211100000D02*
X113743502Y-211100000D01*
X190400000Y-214400000D02*
X184300000Y-214400000D01*
X113743502Y-211100000D02*
X111000000Y-208356498D01*
X195800000Y-231500000D02*
X195800000Y-219100000D01*
X111000000Y-208356498D02*
X111000000Y-175700000D01*
X128400000Y-214400000D02*
X125100000Y-211100000D01*
X195800000Y-219100000D02*
X191100000Y-214400000D01*
X191100000Y-214400000D02*
X190400000Y-214400000D01*
X184300000Y-214400000D02*
X128400000Y-214400000D01*
X194485000Y-232815000D02*
X195800000Y-231500000D01*
D60*
%TO.N,/Control & Fan/SIGNAL_GEN_SHTDN*%
X102000000Y-151200000D02*
X100900000Y-152300000D01*
X97700000Y-155500000D02*
X97700000Y-162500000D01*
X102524500Y-135700000D02*
X102000000Y-136224500D01*
X100900000Y-152300000D02*
X100900000Y-152400000D01*
X100900000Y-152400000D02*
X100800000Y-152400000D01*
X100800000Y-152400000D02*
X97700000Y-155500000D01*
X102000000Y-136224500D02*
X102000000Y-151200000D01*
D56*
%TO.N,Net-(D8-A-Pad3)*%
X185500000Y-195700000D02*
X185500000Y-185860000D01*
X177600000Y-185460000D02*
X192840000Y-185460000D01*
X183280000Y-197920000D02*
X185500000Y-195700000D01*
X185500000Y-185860000D02*
X185100000Y-185460000D01*
X176150000Y-197920000D02*
X183280000Y-197920000D01*
%TD*%
%TA.AperFunction,Conductor*%
%TO.N,/Control & Fan/+5V_VSYS*%
G36*
X122869104Y-232463021D02*
G01*
X123521237Y-232909216D01*
X123526130Y-232916716D01*
X123524286Y-232925479D01*
X123522924Y-232927124D01*
X123250749Y-233200665D01*
X123250707Y-233200707D01*
X122977124Y-233472924D01*
X122968843Y-233476330D01*
X122960578Y-233472882D01*
X122959216Y-233471237D01*
X122513021Y-232819104D01*
X122511177Y-232810341D01*
X122514402Y-232804226D01*
X122854225Y-232464403D01*
X122862497Y-232460977D01*
X122869104Y-232463021D01*
G37*
%TD.AperFunction*%
%TD*%
%TA.AperFunction,Conductor*%
%TO.N,/Control & Fan/+5V_VSYS*%
G36*
X95096207Y-167271450D02*
G01*
X95099989Y-167279567D01*
X95100000Y-167280074D01*
X95100000Y-167734835D01*
X95096573Y-167743108D01*
X95088300Y-167746535D01*
X95085332Y-167746152D01*
X94749216Y-167657995D01*
X94742083Y-167652582D01*
X94740867Y-167643710D01*
X94743559Y-167638772D01*
X95079676Y-167272166D01*
X95087793Y-167268385D01*
X95096207Y-167271450D01*
G37*
%TD.AperFunction*%
%TD*%
%TA.AperFunction,Conductor*%
%TO.N,/Control & Fan/+5V_VSYS*%
G36*
X93285897Y-167247944D02*
G01*
X93293215Y-167253104D01*
X93295027Y-167259358D01*
X93295027Y-167739995D01*
X93291600Y-167748268D01*
X93285144Y-167751553D01*
X92513482Y-167872880D01*
X92504777Y-167870780D01*
X92500107Y-167863139D01*
X92499965Y-167861362D01*
X92499005Y-167477350D01*
X92499904Y-167472829D01*
X92649291Y-167114517D01*
X92655638Y-167108200D01*
X92662657Y-167107606D01*
X93285897Y-167247944D01*
G37*
%TD.AperFunction*%
%TD*%
%TA.AperFunction,Conductor*%
%TO.N,/Control & Fan/+5V_VSYS*%
G36*
X125285939Y-215118714D02*
G01*
X125294202Y-215122162D01*
X125297608Y-215130443D01*
X125297408Y-215132570D01*
X125151790Y-215909206D01*
X125146897Y-215916706D01*
X125140290Y-215918750D01*
X124659710Y-215918750D01*
X124651437Y-215915323D01*
X124648210Y-215909206D01*
X124502591Y-215132570D01*
X124504435Y-215123807D01*
X124511935Y-215118914D01*
X124514052Y-215118714D01*
X124900000Y-215117750D01*
X125285939Y-215118714D01*
G37*
%TD.AperFunction*%
%TD*%
%TA.AperFunction,Conductor*%
%TO.N,/Control & Fan/+5V_VSYS*%
G36*
X106013817Y-167802590D02*
G01*
X106790457Y-167948210D01*
X106797956Y-167953103D01*
X106800000Y-167959710D01*
X106800000Y-168440289D01*
X106796573Y-168448562D01*
X106790456Y-168451789D01*
X106013820Y-168597408D01*
X106005057Y-168595564D01*
X106000164Y-168588064D01*
X105999964Y-168585946D01*
X105999000Y-168200000D01*
X105999964Y-167814059D01*
X106003412Y-167805797D01*
X106011693Y-167802391D01*
X106013817Y-167802590D01*
G37*
%TD.AperFunction*%
%TD*%
%TA.AperFunction,Conductor*%
%TO.N,/Control & Fan/+5V_VSYS*%
G36*
X118124374Y-133695029D02*
G01*
X118126153Y-133695954D01*
X119691548Y-134688951D01*
X119696699Y-134696276D01*
X119695161Y-134705098D01*
X119693554Y-134707104D01*
X119000139Y-135400519D01*
X118992020Y-135403945D01*
X117781844Y-135419844D01*
X117773526Y-135416526D01*
X117769991Y-135408299D01*
X117769990Y-135408268D01*
X117769294Y-134521626D01*
X117770188Y-134517138D01*
X118109082Y-133701344D01*
X118115420Y-133695020D01*
X118124374Y-133695029D01*
G37*
%TD.AperFunction*%
%TD*%
%TA.AperFunction,Conductor*%
%TO.N,/Control & Fan/+5V_VSYS*%
G36*
X109112310Y-146553427D02*
G01*
X109115149Y-146558038D01*
X109441239Y-147547559D01*
X109440574Y-147556489D01*
X109438477Y-147559416D01*
X108620850Y-148392492D01*
X108612609Y-148395996D01*
X108604305Y-148392647D01*
X108604150Y-148392492D01*
X108397849Y-148182293D01*
X107786521Y-147559414D01*
X107783173Y-147551112D01*
X107783758Y-147547565D01*
X108109851Y-146558037D01*
X108115695Y-146551253D01*
X108120963Y-146550000D01*
X109104037Y-146550000D01*
X109112310Y-146553427D01*
G37*
%TD.AperFunction*%
%TD*%
%TA.AperFunction,Conductor*%
%TO.N,/Control & Fan/+5V_VSYS*%
G36*
X149619104Y-232463021D02*
G01*
X150271237Y-232909216D01*
X150276130Y-232916716D01*
X150274286Y-232925479D01*
X150272924Y-232927124D01*
X150000749Y-233200665D01*
X150000707Y-233200707D01*
X149727124Y-233472924D01*
X149718843Y-233476330D01*
X149710578Y-233472882D01*
X149709216Y-233471237D01*
X149263021Y-232819104D01*
X149261177Y-232810341D01*
X149264402Y-232804226D01*
X149604225Y-232464403D01*
X149612497Y-232460977D01*
X149619104Y-232463021D01*
G37*
%TD.AperFunction*%
%TD*%
%TA.AperFunction,Conductor*%
%TO.N,/Control & Fan/+5V_VSYS*%
G36*
X96748563Y-232403427D02*
G01*
X96751790Y-232409544D01*
X96897408Y-233186179D01*
X96895564Y-233194942D01*
X96888064Y-233199835D01*
X96885937Y-233200035D01*
X96500029Y-233200999D01*
X96499971Y-233200999D01*
X96114062Y-233200035D01*
X96105797Y-233196587D01*
X96102391Y-233188306D01*
X96102591Y-233186179D01*
X96248210Y-232409544D01*
X96253103Y-232402044D01*
X96259710Y-232400000D01*
X96740290Y-232400000D01*
X96748563Y-232403427D01*
G37*
%TD.AperFunction*%
%TD*%
%TA.AperFunction,Conductor*%
%TO.N,/Control & Fan/+5V_VSYS*%
G36*
X101148563Y-169703427D02*
G01*
X101151790Y-169709544D01*
X101297408Y-170486179D01*
X101295564Y-170494942D01*
X101288064Y-170499835D01*
X101285937Y-170500035D01*
X100900029Y-170500999D01*
X100899971Y-170500999D01*
X100514062Y-170500035D01*
X100505797Y-170496587D01*
X100502391Y-170488306D01*
X100502591Y-170486179D01*
X100648210Y-169709544D01*
X100653103Y-169702044D01*
X100659710Y-169700000D01*
X101140290Y-169700000D01*
X101148563Y-169703427D01*
G37*
%TD.AperFunction*%
%TD*%
%TA.AperFunction,Conductor*%
%TO.N,/Control & Fan/+5V_VSYS*%
G36*
X109447839Y-147552915D02*
G01*
X110305159Y-147897053D01*
X110311560Y-147903314D01*
X110312500Y-147907910D01*
X110312500Y-148892089D01*
X110309073Y-148900362D01*
X110305158Y-148902947D01*
X109447843Y-149247083D01*
X109438889Y-149246985D01*
X109435109Y-149244394D01*
X109429231Y-149238367D01*
X108619466Y-148408167D01*
X108616144Y-148399854D01*
X108619466Y-148391832D01*
X109435110Y-147555604D01*
X109443339Y-147552075D01*
X109447839Y-147552915D01*
G37*
%TD.AperFunction*%
%TD*%
%TA.AperFunction,Conductor*%
%TO.N,/Control & Fan/+5V_VSYS*%
G36*
X152875479Y-222488213D02*
G01*
X152877124Y-222489575D01*
X153150707Y-222761793D01*
X153150749Y-222761835D01*
X153422924Y-223035375D01*
X153426330Y-223043656D01*
X153422882Y-223051921D01*
X153421237Y-223053283D01*
X152769104Y-223499478D01*
X152760341Y-223501322D01*
X152754224Y-223498095D01*
X152414404Y-223158275D01*
X152410977Y-223150002D01*
X152413021Y-223143395D01*
X152859217Y-222491261D01*
X152866716Y-222486369D01*
X152875479Y-222488213D01*
G37*
%TD.AperFunction*%
%TD*%
%TA.AperFunction,Conductor*%
%TO.N,/Control & Fan/RESET#*%
G36*
X114070269Y-138223676D02*
G01*
X114668229Y-138440269D01*
X115562917Y-138764343D01*
X115569528Y-138770383D01*
X115569933Y-138779329D01*
X115569746Y-138779810D01*
X115232562Y-139596214D01*
X115226236Y-139602553D01*
X115226214Y-139602562D01*
X114409810Y-139939746D01*
X114400856Y-139939737D01*
X114394530Y-139933398D01*
X114394343Y-139932917D01*
X114272382Y-139596214D01*
X114170015Y-139313604D01*
X113853676Y-138440269D01*
X113854081Y-138431323D01*
X113856401Y-138428014D01*
X114058012Y-138226403D01*
X114066284Y-138222977D01*
X114070269Y-138223676D01*
G37*
%TD.AperFunction*%
%TD*%
%TA.AperFunction,Conductor*%
%TO.N,/Control & Fan/RESET#*%
G36*
X104292060Y-134047305D02*
G01*
X104298793Y-134053208D01*
X104300000Y-134058384D01*
X104300000Y-134341615D01*
X104296573Y-134349888D01*
X104292060Y-134352694D01*
X103663425Y-134566038D01*
X103654489Y-134565452D01*
X103648866Y-134559461D01*
X103632180Y-134519439D01*
X103500875Y-134204499D01*
X103500855Y-134195550D01*
X103648866Y-133840537D01*
X103655213Y-133834220D01*
X103663424Y-133833961D01*
X104292060Y-134047305D01*
G37*
%TD.AperFunction*%
%TD*%
%TA.AperFunction,Conductor*%
%TO.N,Net-(U5-CT)*%
G36*
X146894942Y-184804435D02*
G01*
X146899835Y-184811935D01*
X146900035Y-184814062D01*
X146901000Y-185200000D01*
X146901000Y-185200058D01*
X146900035Y-185585937D01*
X146896587Y-185594202D01*
X146888306Y-185597608D01*
X146886179Y-185597408D01*
X146109544Y-185451789D01*
X146102044Y-185446896D01*
X146100000Y-185440289D01*
X146100000Y-184959710D01*
X146103427Y-184951437D01*
X146109542Y-184948210D01*
X146886180Y-184802591D01*
X146894942Y-184804435D01*
G37*
%TD.AperFunction*%
%TD*%
%TA.AperFunction,Conductor*%
%TO.N,Net-(U5-CT)*%
G36*
X142785939Y-182299964D02*
G01*
X142794202Y-182303412D01*
X142797608Y-182311693D01*
X142797408Y-182313820D01*
X142651790Y-183090456D01*
X142646897Y-183097956D01*
X142640290Y-183100000D01*
X142159710Y-183100000D01*
X142151437Y-183096573D01*
X142148210Y-183090456D01*
X142002591Y-182313820D01*
X142004435Y-182305057D01*
X142011935Y-182300164D01*
X142014052Y-182299964D01*
X142400000Y-182299000D01*
X142785939Y-182299964D01*
G37*
%TD.AperFunction*%
%TD*%
%TA.AperFunction,Conductor*%
%TO.N,/Control & Fan/ENABLE_FAN*%
G36*
X94980896Y-109751108D02*
G01*
X94986887Y-109756731D01*
X95280541Y-110352099D01*
X95281127Y-110361035D01*
X95278321Y-110365548D01*
X95078048Y-110565821D01*
X95069775Y-110569248D01*
X95064599Y-110568041D01*
X94469231Y-110274387D01*
X94463328Y-110267654D01*
X94463587Y-110259442D01*
X94609937Y-109903802D01*
X94616253Y-109897457D01*
X94971942Y-109751087D01*
X94980896Y-109751108D01*
G37*
%TD.AperFunction*%
%TD*%
%TA.AperFunction,Conductor*%
%TO.N,/Control & Fan/ENABLE_FAN*%
G36*
X109535420Y-133005945D02*
G01*
X110254279Y-133276202D01*
X110260816Y-133282320D01*
X110261113Y-133291270D01*
X110260981Y-133291605D01*
X110115353Y-133645496D01*
X110109035Y-133651843D01*
X110109000Y-133651858D01*
X109753483Y-133798720D01*
X109744528Y-133798711D01*
X109738322Y-133792653D01*
X109520612Y-133302265D01*
X109519606Y-133297518D01*
X109519606Y-133016898D01*
X109523033Y-133008625D01*
X109531306Y-133005198D01*
X109535420Y-133005945D01*
G37*
%TD.AperFunction*%
%TD*%
%TA.AperFunction,Conductor*%
%TO.N,/Internal 5V & out usb/VBUS_1_+*%
G36*
X114595510Y-215334547D02*
G01*
X114601133Y-215340538D01*
X114749123Y-215695498D01*
X114749144Y-215704452D01*
X114749123Y-215704502D01*
X114601133Y-216059461D01*
X114594786Y-216065779D01*
X114586574Y-216066038D01*
X113957940Y-215852694D01*
X113951207Y-215846791D01*
X113950000Y-215841615D01*
X113950000Y-215562440D01*
X113953427Y-215554167D01*
X113961700Y-215550740D01*
X113963215Y-215550839D01*
X114000000Y-215555682D01*
X114156762Y-215535044D01*
X114252322Y-215495461D01*
X114302832Y-215474540D01*
X114302833Y-215474539D01*
X114302841Y-215474536D01*
X114404793Y-215396305D01*
X114408136Y-215394519D01*
X114586575Y-215333961D01*
X114595510Y-215334547D01*
G37*
%TD.AperFunction*%
%TD*%
%TA.AperFunction,Conductor*%
%TO.N,/Internal 5V & out usb/VBUS_1_+*%
G36*
X97311806Y-219100227D02*
G01*
X97872062Y-219111001D01*
X97880110Y-219114426D01*
X98080227Y-219314543D01*
X98083654Y-219322816D01*
X98080227Y-219331089D01*
X98079820Y-219331477D01*
X97591076Y-219775364D01*
X97582648Y-219778389D01*
X97574958Y-219774997D01*
X97302749Y-219504146D01*
X97299301Y-219495882D01*
X97299978Y-219111902D01*
X97303419Y-219103638D01*
X97311699Y-219100226D01*
X97311806Y-219100227D01*
G37*
%TD.AperFunction*%
%TD*%
%TA.AperFunction,Conductor*%
%TO.N,/Internal 5V & out usb/VBUS_3_+*%
G36*
X126859796Y-216874505D02*
G01*
X126866114Y-216880852D01*
X126866493Y-216888690D01*
X126678014Y-217512114D01*
X126672340Y-217519041D01*
X126666815Y-217520428D01*
X126383556Y-217520428D01*
X126375283Y-217517001D01*
X126372626Y-217512901D01*
X126134496Y-216889177D01*
X126134746Y-216880226D01*
X126140923Y-216874205D01*
X126495500Y-216726375D01*
X126504449Y-216726355D01*
X126859796Y-216874505D01*
G37*
%TD.AperFunction*%
%TD*%
%TA.AperFunction,Conductor*%
%TO.N,/Internal 5V & out usb/VBUS_3_+*%
G36*
X139372785Y-220351479D02*
G01*
X140014544Y-220424427D01*
X140022378Y-220428766D01*
X140024923Y-220436023D01*
X140025884Y-220820728D01*
X140022478Y-220829009D01*
X140022443Y-220829045D01*
X139751110Y-221099422D01*
X139742830Y-221102834D01*
X139734563Y-221099393D01*
X139733865Y-221098627D01*
X139362480Y-220653254D01*
X139359766Y-220645761D01*
X139359766Y-220363105D01*
X139363193Y-220354832D01*
X139371466Y-220351405D01*
X139372785Y-220351479D01*
G37*
%TD.AperFunction*%
%TD*%
%TA.AperFunction,Conductor*%
%TO.N,/Internal 5V & out usb/VBUS_1*%
G36*
X95915548Y-219584178D02*
G01*
X96115821Y-219784451D01*
X96119248Y-219792724D01*
X96118041Y-219797900D01*
X95824387Y-220393268D01*
X95817654Y-220399171D01*
X95809442Y-220398912D01*
X95453804Y-220252563D01*
X95447457Y-220246245D01*
X95447436Y-220246195D01*
X95301087Y-219890557D01*
X95301108Y-219881603D01*
X95306730Y-219875612D01*
X95902099Y-219581957D01*
X95911035Y-219581372D01*
X95915548Y-219584178D01*
G37*
%TD.AperFunction*%
%TD*%
%TA.AperFunction,Conductor*%
%TO.N,/Internal 5V & out usb/VBUS_1*%
G36*
X113845510Y-214584547D02*
G01*
X113851133Y-214590538D01*
X113999123Y-214945498D01*
X113999144Y-214954452D01*
X113999123Y-214954502D01*
X113851133Y-215309461D01*
X113844786Y-215315779D01*
X113836574Y-215316038D01*
X113207940Y-215102694D01*
X113201207Y-215096791D01*
X113200000Y-215091615D01*
X113200000Y-214808384D01*
X113203427Y-214800111D01*
X113207938Y-214797305D01*
X113836575Y-214583961D01*
X113845510Y-214584547D01*
G37*
%TD.AperFunction*%
%TD*%
%TA.AperFunction,Conductor*%
%TO.N,/Internal 5V & out usb/VBUS_2*%
G36*
X118225453Y-219675486D02*
G01*
X118226271Y-219676226D01*
X118499035Y-219947630D01*
X118501603Y-219951472D01*
X118647692Y-220306476D01*
X118647671Y-220315430D01*
X118641324Y-220321748D01*
X118639221Y-220322390D01*
X117954279Y-220462756D01*
X117945486Y-220461060D01*
X117943657Y-220459567D01*
X117743486Y-220259396D01*
X117740059Y-220251123D01*
X117742723Y-220243692D01*
X118208987Y-219677084D01*
X118216888Y-219672875D01*
X118225453Y-219675486D01*
G37*
%TD.AperFunction*%
%TD*%
%TA.AperFunction,Conductor*%
%TO.N,/Internal 5V & out usb/VBUS_2*%
G36*
X117364709Y-220639941D02*
G01*
X117366100Y-220641130D01*
X117565754Y-220840784D01*
X117569077Y-220847498D01*
X117648220Y-221436264D01*
X117645926Y-221444920D01*
X117638183Y-221449419D01*
X117636645Y-221449523D01*
X117254168Y-221450198D01*
X117245889Y-221446786D01*
X116974189Y-221173724D01*
X116970784Y-221165445D01*
X116973021Y-221158593D01*
X117348367Y-220642519D01*
X117356003Y-220637846D01*
X117364709Y-220639941D01*
G37*
%TD.AperFunction*%
%TD*%
%TA.AperFunction,Conductor*%
%TO.N,/Control & Fan/MOSI*%
G36*
X114337232Y-133627232D02*
G01*
X115221728Y-134511728D01*
X115225155Y-134520001D01*
X115221728Y-134528274D01*
X115221025Y-134528922D01*
X114338415Y-135277918D01*
X114329890Y-135280658D01*
X114322380Y-135277073D01*
X113608587Y-134528922D01*
X113446050Y-134358562D01*
X113442819Y-134350212D01*
X113446242Y-134342215D01*
X113649744Y-134138713D01*
X113650909Y-134137694D01*
X114321867Y-133626199D01*
X114330523Y-133623910D01*
X114337232Y-133627232D01*
G37*
%TD.AperFunction*%
%TD*%
%TA.AperFunction,Conductor*%
%TO.N,/Control & Fan/MOSI*%
G36*
X110370058Y-125155397D02*
G01*
X111062466Y-125741493D01*
X111066567Y-125749453D01*
X111065538Y-125755309D01*
X110515632Y-126951853D01*
X110509063Y-126957939D01*
X110505001Y-126958667D01*
X110219999Y-126958667D01*
X110211726Y-126955240D01*
X110209368Y-126951853D01*
X109659460Y-125755307D01*
X109659120Y-125746361D01*
X109662530Y-125741496D01*
X110354941Y-125155397D01*
X110363470Y-125152668D01*
X110370058Y-125155397D01*
G37*
%TD.AperFunction*%
%TD*%
%TA.AperFunction,Conductor*%
%TO.N,/Control & Fan/SCK*%
G36*
X114890067Y-141319328D02*
G01*
X114890276Y-141319801D01*
X115229135Y-142135512D01*
X115229144Y-142144466D01*
X115229135Y-142144488D01*
X114890276Y-142960198D01*
X114883937Y-142966524D01*
X114874983Y-142966515D01*
X114874510Y-142966306D01*
X113436739Y-142293155D01*
X113430699Y-142286544D01*
X113430000Y-142282559D01*
X113430000Y-141997440D01*
X113433427Y-141989167D01*
X113436735Y-141986846D01*
X114874510Y-141313692D01*
X114883456Y-141313288D01*
X114890067Y-141319328D01*
G37*
%TD.AperFunction*%
%TD*%
%TA.AperFunction,Conductor*%
%TO.N,/Control & Fan/SCK*%
G36*
X111737389Y-144740927D02*
G01*
X111740195Y-144745440D01*
X111953538Y-145374074D01*
X111952952Y-145383010D01*
X111946961Y-145388633D01*
X111592002Y-145536623D01*
X111583048Y-145536644D01*
X111582998Y-145536623D01*
X111228038Y-145388633D01*
X111221720Y-145382286D01*
X111221461Y-145374075D01*
X111434805Y-144745439D01*
X111440708Y-144738707D01*
X111445884Y-144737500D01*
X111729116Y-144737500D01*
X111737389Y-144740927D01*
G37*
%TD.AperFunction*%
%TD*%
%TA.AperFunction,Conductor*%
%TO.N,/Control & Fan/POWER_OUTPUT_FB*%
G36*
X119448563Y-94703427D02*
G01*
X119451790Y-94709544D01*
X119597408Y-95486179D01*
X119595564Y-95494942D01*
X119588064Y-95499835D01*
X119585937Y-95500035D01*
X119200029Y-95500999D01*
X119199971Y-95500999D01*
X118814062Y-95500035D01*
X118805797Y-95496587D01*
X118802391Y-95488306D01*
X118802591Y-95486179D01*
X118948210Y-94709544D01*
X118953103Y-94702044D01*
X118959710Y-94700000D01*
X119440290Y-94700000D01*
X119448563Y-94703427D01*
G37*
%TD.AperFunction*%
%TD*%
%TA.AperFunction,Conductor*%
%TO.N,/Control & Fan/POWER_OUTPUT_FB*%
G36*
X119402171Y-87099905D02*
G01*
X119648674Y-87202676D01*
X119757556Y-87248072D01*
X119763874Y-87254419D01*
X119763853Y-87263373D01*
X119763322Y-87264479D01*
X119453327Y-87832105D01*
X119446355Y-87837723D01*
X119443059Y-87838197D01*
X118962519Y-87838197D01*
X118954246Y-87834770D01*
X118950819Y-87826497D01*
X118950846Y-87825706D01*
X118988934Y-87263373D01*
X118999263Y-87110878D01*
X119003240Y-87102859D01*
X119010904Y-87099972D01*
X119397648Y-87099005D01*
X119402171Y-87099905D01*
G37*
%TD.AperFunction*%
%TD*%
%TA.AperFunction,Conductor*%
%TO.N,/Control & Fan/POWER_OUTPUT_FB*%
G36*
X119587559Y-95499968D02*
G01*
X119595822Y-95503416D01*
X119599228Y-95511697D01*
X119599204Y-95512416D01*
X119550702Y-96269157D01*
X119546753Y-96277194D01*
X119539026Y-96280109D01*
X119058300Y-96280109D01*
X119050027Y-96276682D01*
X119047257Y-96272276D01*
X119046165Y-96269157D01*
X118834095Y-95663489D01*
X118834596Y-95654550D01*
X118840635Y-95648825D01*
X119197829Y-95499904D01*
X119202350Y-95499005D01*
X119587559Y-95499968D01*
G37*
%TD.AperFunction*%
%TD*%
%TA.AperFunction,Conductor*%
%TO.N,/Control & Fan/POWER_OUTPUT_FB*%
G36*
X119548563Y-106503427D02*
G01*
X119551790Y-106509544D01*
X119697408Y-107286179D01*
X119695564Y-107294942D01*
X119688064Y-107299835D01*
X119685937Y-107300035D01*
X119300029Y-107300999D01*
X119299971Y-107300999D01*
X118914062Y-107300035D01*
X118905797Y-107296587D01*
X118902391Y-107288306D01*
X118902591Y-107286179D01*
X119048210Y-106509544D01*
X119053103Y-106502044D01*
X119059710Y-106500000D01*
X119540290Y-106500000D01*
X119548563Y-106503427D01*
G37*
%TD.AperFunction*%
%TD*%
%TA.AperFunction,Conductor*%
%TO.N,/Control & Fan/SCL*%
G36*
X98369480Y-89050662D02*
G01*
X98374825Y-89055140D01*
X98705060Y-89569552D01*
X98707388Y-89573177D01*
X98708973Y-89581991D01*
X98705815Y-89587771D01*
X98575543Y-89718043D01*
X98567270Y-89721470D01*
X98564852Y-89721217D01*
X97860676Y-89572456D01*
X97853289Y-89567393D01*
X97851647Y-89558591D01*
X97852272Y-89556562D01*
X97997437Y-89203802D01*
X98003753Y-89197457D01*
X98360526Y-89050641D01*
X98369480Y-89050662D01*
G37*
%TD.AperFunction*%
%TD*%
%TA.AperFunction,Conductor*%
%TO.N,/Control & Fan/SCL*%
G36*
X104374733Y-130016572D02*
G01*
X104943444Y-130250747D01*
X105004756Y-130275994D01*
X105011101Y-130282313D01*
X105011121Y-130291265D01*
X104865063Y-130646195D01*
X104858745Y-130652542D01*
X104858695Y-130652563D01*
X104503765Y-130798621D01*
X104494811Y-130798600D01*
X104488494Y-130792256D01*
X104428351Y-130646195D01*
X104229073Y-130162235D01*
X104229092Y-130153282D01*
X104231616Y-130149512D01*
X104362010Y-130019118D01*
X104370282Y-130015692D01*
X104374733Y-130016572D01*
G37*
%TD.AperFunction*%
%TD*%
%TA.AperFunction,Conductor*%
%TO.N,/Control & Fan/SDA*%
G36*
X99367688Y-88551399D02*
G01*
X99374005Y-88557743D01*
X99633426Y-89187762D01*
X99633407Y-89196717D01*
X99630880Y-89200490D01*
X99500490Y-89330880D01*
X99492217Y-89334307D01*
X99487762Y-89333426D01*
X98857743Y-89074005D01*
X98851398Y-89067686D01*
X98851378Y-89058735D01*
X98997437Y-88703802D01*
X99003753Y-88697457D01*
X99358735Y-88551378D01*
X99367688Y-88551399D01*
G37*
%TD.AperFunction*%
%TD*%
%TA.AperFunction,Conductor*%
%TO.N,/Control & Fan/SDA*%
G36*
X105624733Y-129896072D02*
G01*
X106193444Y-130130247D01*
X106254756Y-130155494D01*
X106261101Y-130161813D01*
X106261121Y-130170765D01*
X106115063Y-130525695D01*
X106108745Y-130532042D01*
X106108695Y-130532063D01*
X105753765Y-130678121D01*
X105744811Y-130678100D01*
X105738494Y-130671756D01*
X105678351Y-130525695D01*
X105479073Y-130041735D01*
X105479092Y-130032782D01*
X105481616Y-130029012D01*
X105612010Y-129898618D01*
X105620282Y-129895192D01*
X105624733Y-129896072D01*
G37*
%TD.AperFunction*%
%TD*%
%TA.AperFunction,Conductor*%
%TO.N,/Control & Fan/TFT_DC*%
G36*
X107870058Y-125155397D02*
G01*
X108562466Y-125741493D01*
X108566567Y-125749453D01*
X108565538Y-125755309D01*
X108015632Y-126951853D01*
X108009063Y-126957939D01*
X108005001Y-126958667D01*
X107719999Y-126958667D01*
X107711726Y-126955240D01*
X107709368Y-126951853D01*
X107159460Y-125755307D01*
X107159120Y-125746361D01*
X107162530Y-125741496D01*
X107854941Y-125155397D01*
X107863470Y-125152668D01*
X107870058Y-125155397D01*
G37*
%TD.AperFunction*%
%TD*%
%TA.AperFunction,Conductor*%
%TO.N,/Control & Fan/TFT_DC*%
G36*
X108003875Y-130060533D02*
G01*
X108007302Y-130068806D01*
X108006554Y-130072920D01*
X107862139Y-130457051D01*
X107736298Y-130791778D01*
X107730179Y-130798316D01*
X107721229Y-130798613D01*
X107720894Y-130798481D01*
X107367003Y-130652853D01*
X107360656Y-130646535D01*
X107360641Y-130646500D01*
X107213779Y-130290983D01*
X107213788Y-130282028D01*
X107219845Y-130275822D01*
X107710234Y-130058111D01*
X107714981Y-130057106D01*
X107995602Y-130057106D01*
X108003875Y-130060533D01*
G37*
%TD.AperFunction*%
%TD*%
%TA.AperFunction,Conductor*%
%TO.N,/Internal 5V & out usb/400V*%
G36*
X144098563Y-152703427D02*
G01*
X144101790Y-152709544D01*
X144397405Y-154286161D01*
X144395561Y-154294924D01*
X144388061Y-154299817D01*
X144385920Y-154300017D01*
X143600015Y-154300999D01*
X143599985Y-154300999D01*
X142814079Y-154300017D01*
X142805811Y-154296580D01*
X142802394Y-154288302D01*
X142802593Y-154286169D01*
X143098210Y-152709542D01*
X143103103Y-152702044D01*
X143109710Y-152700000D01*
X144090290Y-152700000D01*
X144098563Y-152703427D01*
G37*
%TD.AperFunction*%
%TD*%
%TA.AperFunction,Conductor*%
%TO.N,/Control & Fan/SIGNAL_OUT*%
G36*
X190394942Y-214004435D02*
G01*
X190399835Y-214011935D01*
X190400035Y-214014062D01*
X190401000Y-214400000D01*
X190401000Y-214400058D01*
X190400035Y-214785937D01*
X190396587Y-214794202D01*
X190388306Y-214797608D01*
X190386179Y-214797408D01*
X189609544Y-214651789D01*
X189602044Y-214646896D01*
X189600000Y-214640289D01*
X189600000Y-214159710D01*
X189603427Y-214151437D01*
X189609542Y-214148210D01*
X190386180Y-214002591D01*
X190394942Y-214004435D01*
G37*
%TD.AperFunction*%
%TD*%
%TA.AperFunction,Conductor*%
%TO.N,/Control & Fan/SIGNAL_OUT*%
G36*
X184313817Y-214002590D02*
G01*
X185090457Y-214148210D01*
X185097956Y-214153103D01*
X185100000Y-214159710D01*
X185100000Y-214640289D01*
X185096573Y-214648562D01*
X185090456Y-214651789D01*
X184313820Y-214797408D01*
X184305057Y-214795564D01*
X184300164Y-214788064D01*
X184299964Y-214785946D01*
X184299000Y-214400000D01*
X184299964Y-214014059D01*
X184303412Y-214005797D01*
X184311693Y-214002391D01*
X184313817Y-214002590D01*
G37*
%TD.AperFunction*%
%TD*%
%TA.AperFunction,Conductor*%
%TO.N,/Control & Fan/SIGNAL_OUT*%
G36*
X111385939Y-175699964D02*
G01*
X111394202Y-175703412D01*
X111397608Y-175711693D01*
X111397408Y-175713820D01*
X111251790Y-176490456D01*
X111246897Y-176497956D01*
X111240290Y-176500000D01*
X110759710Y-176500000D01*
X110751437Y-176496573D01*
X110748210Y-176490456D01*
X110602591Y-175713820D01*
X110604435Y-175705057D01*
X110611935Y-175700164D01*
X110614052Y-175699964D01*
X111000000Y-175699000D01*
X111385939Y-175699964D01*
G37*
%TD.AperFunction*%
%TD*%
%TA.AperFunction,Conductor*%
%TO.N,/Control & Fan/SIGNAL_OUT*%
G36*
X191329488Y-214287964D02*
G01*
X191336262Y-214293821D01*
X191336910Y-214302752D01*
X191334078Y-214307342D01*
X190996114Y-214645306D01*
X190990963Y-214648309D01*
X190563035Y-214766793D01*
X190554147Y-214765698D01*
X190549108Y-214760005D01*
X190401160Y-214403789D01*
X190401151Y-214394836D01*
X190548895Y-214040467D01*
X190555242Y-214034150D01*
X190563375Y-214033865D01*
X191329488Y-214287964D01*
G37*
%TD.AperFunction*%
%TD*%
%TA.AperFunction,Conductor*%
%TO.N,/Control & Fan/SIGNAL_OUT*%
G36*
X184294942Y-214004435D02*
G01*
X184299835Y-214011935D01*
X184300035Y-214014062D01*
X184301000Y-214400000D01*
X184301000Y-214400058D01*
X184300035Y-214785937D01*
X184296587Y-214794202D01*
X184288306Y-214797608D01*
X184286179Y-214797408D01*
X183509544Y-214651789D01*
X183502044Y-214646896D01*
X183500000Y-214640289D01*
X183500000Y-214159710D01*
X183503427Y-214151437D01*
X183509542Y-214148210D01*
X184286180Y-214002591D01*
X184294942Y-214004435D01*
G37*
%TD.AperFunction*%
%TD*%
%TA.AperFunction,Conductor*%
%TO.N,/Control & Fan/SIGNAL_OUT*%
G36*
X195383537Y-231567942D02*
G01*
X195386484Y-231570087D01*
X195728730Y-231912333D01*
X195732157Y-231920606D01*
X195730681Y-231926294D01*
X195060361Y-233131179D01*
X195053345Y-233136743D01*
X195045671Y-233136305D01*
X194273785Y-232817562D01*
X194267447Y-232811238D01*
X193949551Y-232041403D01*
X193949560Y-232032449D01*
X193955899Y-232026124D01*
X193956758Y-232025808D01*
X195374610Y-231567228D01*
X195383537Y-231567942D01*
G37*
%TD.AperFunction*%
%TD*%
%TA.AperFunction,Conductor*%
%TO.N,/Control & Fan/SIGNAL_GEN_SHTDN*%
G36*
X101306225Y-151694747D02*
G01*
X101506497Y-151895019D01*
X101509924Y-151903292D01*
X101509193Y-151907363D01*
X101273768Y-152541713D01*
X101267677Y-152548277D01*
X101258728Y-152548611D01*
X101258347Y-152548462D01*
X100903804Y-152402563D01*
X100897457Y-152396245D01*
X100897436Y-152396195D01*
X100750702Y-152039621D01*
X100750723Y-152030669D01*
X100755362Y-152025225D01*
X101291795Y-151693072D01*
X101300631Y-151691631D01*
X101306225Y-151694747D01*
G37*
%TD.AperFunction*%
%TD*%
%TA.AperFunction,Conductor*%
%TO.N,/Control & Fan/SIGNAL_GEN_SHTDN*%
G36*
X97849889Y-161703427D02*
G01*
X97852695Y-161707940D01*
X98066038Y-162336574D01*
X98065452Y-162345510D01*
X98059461Y-162351133D01*
X97704502Y-162499123D01*
X97695548Y-162499144D01*
X97695498Y-162499123D01*
X97340538Y-162351133D01*
X97334220Y-162344786D01*
X97333961Y-162336575D01*
X97547305Y-161707939D01*
X97553208Y-161701207D01*
X97558384Y-161700000D01*
X97841616Y-161700000D01*
X97849889Y-161703427D01*
G37*
%TD.AperFunction*%
%TD*%
%TA.AperFunction,Conductor*%
%TO.N,/Control & Fan/SIGNAL_GEN_SHTDN*%
G36*
X102519996Y-135697146D02*
G01*
X102526343Y-135703464D01*
X102526358Y-135703499D01*
X102673071Y-136058654D01*
X102673062Y-136067609D01*
X102666724Y-136073935D01*
X102666641Y-136073969D01*
X102152108Y-136281894D01*
X102147724Y-136282746D01*
X101867514Y-136282746D01*
X101859241Y-136279319D01*
X101855814Y-136271046D01*
X101856705Y-136266567D01*
X101936538Y-136073935D01*
X102150479Y-135557708D01*
X102156813Y-135551378D01*
X102165740Y-135551368D01*
X102519996Y-135697146D01*
G37*
%TD.AperFunction*%
%TD*%
%TA.AperFunction,Conductor*%
%TO.N,/Control & Fan/SIGNAL_GEN_SHTDN*%
G36*
X100539621Y-152250701D02*
G01*
X100896195Y-152397436D01*
X100902542Y-152403754D01*
X100902563Y-152403804D01*
X101048462Y-152758347D01*
X101048441Y-152767301D01*
X101042094Y-152773619D01*
X101041713Y-152773768D01*
X100407363Y-153009193D01*
X100398414Y-153008859D01*
X100395019Y-153006497D01*
X100194747Y-152806225D01*
X100191320Y-152797952D01*
X100193071Y-152791796D01*
X100525224Y-152255362D01*
X100532492Y-152250133D01*
X100539621Y-152250701D01*
G37*
%TD.AperFunction*%
%TD*%
M02*
