%TF.GenerationSoftware,KiCad,Pcbnew,7.0.9-7.0.9~ubuntu22.04.1*%
%TF.CreationDate,2023-12-28T11:37:34+03:00*%
%TF.ProjectId,supply,73757070-6c79-42e6-9b69-6361645f7063,rev?*%
%TF.SameCoordinates,Original*%
%TF.FileFunction,Soldermask,Top*%
%TF.FilePolarity,Negative*%
%FSLAX46Y46*%
G04 Gerber Fmt 4.6, Leading zero omitted, Abs format (unit mm)*
G04 Created by KiCad (PCBNEW 7.0.9-7.0.9~ubuntu22.04.1) date 2023-12-28 11:37:34*
%MOMM*%
%LPD*%
G01*
G04 APERTURE LIST*
G04 Aperture macros list*
%AMRoundRect*
0 Rectangle with rounded corners*
0 $1 Rounding radius*
0 $2 $3 $4 $5 $6 $7 $8 $9 X,Y pos of 4 corners*
0 Add a 4 corners polygon primitive as box body*
4,1,4,$2,$3,$4,$5,$6,$7,$8,$9,$2,$3,0*
0 Add four circle primitives for the rounded corners*
1,1,$1+$1,$2,$3*
1,1,$1+$1,$4,$5*
1,1,$1+$1,$6,$7*
1,1,$1+$1,$8,$9*
0 Add four rect primitives between the rounded corners*
20,1,$1+$1,$2,$3,$4,$5,0*
20,1,$1+$1,$4,$5,$6,$7,0*
20,1,$1+$1,$6,$7,$8,$9,0*
20,1,$1+$1,$8,$9,$2,$3,0*%
%AMFreePoly0*
4,1,14,0.334644,0.085355,0.385355,0.034644,0.400000,-0.000711,0.400000,-0.050000,0.385355,-0.085355,0.350000,-0.100000,-0.350000,-0.100000,-0.385355,-0.085355,-0.400000,-0.050000,-0.400000,0.050000,-0.385355,0.085355,-0.350000,0.100000,0.299289,0.100000,0.334644,0.085355,0.334644,0.085355,$1*%
%AMFreePoly1*
4,1,14,0.385355,0.085355,0.400000,0.050000,0.400000,0.000711,0.385355,-0.034644,0.334644,-0.085355,0.299289,-0.100000,-0.350000,-0.100000,-0.385355,-0.085355,-0.400000,-0.050000,-0.400000,0.050000,-0.385355,0.085355,-0.350000,0.100000,0.350000,0.100000,0.385355,0.085355,0.385355,0.085355,$1*%
%AMFreePoly2*
4,1,14,0.085355,0.385355,0.100000,0.350000,0.100000,-0.350000,0.085355,-0.385355,0.050000,-0.400000,-0.050000,-0.400000,-0.085355,-0.385355,-0.100000,-0.350000,-0.100000,0.299289,-0.085355,0.334644,-0.034644,0.385355,0.000711,0.400000,0.050000,0.400000,0.085355,0.385355,0.085355,0.385355,$1*%
%AMFreePoly3*
4,1,14,0.034644,0.385355,0.085355,0.334644,0.100000,0.299289,0.100000,-0.350000,0.085355,-0.385355,0.050000,-0.400000,-0.050000,-0.400000,-0.085355,-0.385355,-0.100000,-0.350000,-0.100000,0.350000,-0.085355,0.385355,-0.050000,0.400000,-0.000711,0.400000,0.034644,0.385355,0.034644,0.385355,$1*%
%AMFreePoly4*
4,1,14,0.385355,0.085355,0.400000,0.050000,0.400000,-0.050000,0.385355,-0.085355,0.350000,-0.100000,-0.299289,-0.100000,-0.334644,-0.085355,-0.385355,-0.034644,-0.400000,0.000711,-0.400000,0.050000,-0.385355,0.085355,-0.350000,0.100000,0.350000,0.100000,0.385355,0.085355,0.385355,0.085355,$1*%
%AMFreePoly5*
4,1,14,0.385355,0.085355,0.400000,0.050000,0.400000,-0.050000,0.385355,-0.085355,0.350000,-0.100000,-0.350000,-0.100000,-0.385355,-0.085355,-0.400000,-0.050000,-0.400000,-0.000711,-0.385355,0.034644,-0.334644,0.085355,-0.299289,0.100000,0.350000,0.100000,0.385355,0.085355,0.385355,0.085355,$1*%
%AMFreePoly6*
4,1,14,0.085355,0.385355,0.100000,0.350000,0.100000,-0.299289,0.085355,-0.334644,0.034644,-0.385355,-0.000711,-0.400000,-0.050000,-0.400000,-0.085355,-0.385355,-0.100000,-0.350000,-0.100000,0.350000,-0.085355,0.385355,-0.050000,0.400000,0.050000,0.400000,0.085355,0.385355,0.085355,0.385355,$1*%
%AMFreePoly7*
4,1,14,0.085355,0.385355,0.100000,0.350000,0.100000,-0.350000,0.085355,-0.385355,0.050000,-0.400000,0.000711,-0.400000,-0.034644,-0.385355,-0.085355,-0.334644,-0.100000,-0.299289,-0.100000,0.350000,-0.085355,0.385355,-0.050000,0.400000,0.050000,0.400000,0.085355,0.385355,0.085355,0.385355,$1*%
G04 Aperture macros list end*
%ADD10R,1.000000X1.000000*%
%ADD11RoundRect,0.250000X-0.450000X0.262500X-0.450000X-0.262500X0.450000X-0.262500X0.450000X0.262500X0*%
%ADD12RoundRect,0.225000X0.225000X0.250000X-0.225000X0.250000X-0.225000X-0.250000X0.225000X-0.250000X0*%
%ADD13RoundRect,0.150000X-0.150000X0.512500X-0.150000X-0.512500X0.150000X-0.512500X0.150000X0.512500X0*%
%ADD14RoundRect,0.225000X-0.225000X-0.250000X0.225000X-0.250000X0.225000X0.250000X-0.225000X0.250000X0*%
%ADD15RoundRect,0.087500X-0.425000X-0.087500X0.425000X-0.087500X0.425000X0.087500X-0.425000X0.087500X0*%
%ADD16RoundRect,0.087500X-0.087500X-0.425000X0.087500X-0.425000X0.087500X0.425000X-0.087500X0.425000X0*%
%ADD17R,2.100000X2.100000*%
%ADD18R,1.400000X0.300000*%
%ADD19R,2.000000X1.905000*%
%ADD20O,2.000000X1.905000*%
%ADD21C,2.000000*%
%ADD22R,1.800000X1.800000*%
%ADD23C,1.800000*%
%ADD24RoundRect,0.250000X0.262500X0.450000X-0.262500X0.450000X-0.262500X-0.450000X0.262500X-0.450000X0*%
%ADD25FreePoly0,90.000000*%
%ADD26RoundRect,0.050000X0.050000X-0.350000X0.050000X0.350000X-0.050000X0.350000X-0.050000X-0.350000X0*%
%ADD27FreePoly1,90.000000*%
%ADD28FreePoly2,90.000000*%
%ADD29RoundRect,0.050000X0.350000X-0.050000X0.350000X0.050000X-0.350000X0.050000X-0.350000X-0.050000X0*%
%ADD30FreePoly3,90.000000*%
%ADD31FreePoly4,90.000000*%
%ADD32FreePoly5,90.000000*%
%ADD33FreePoly6,90.000000*%
%ADD34FreePoly7,90.000000*%
%ADD35R,1.700000X1.700000*%
%ADD36C,2.200000*%
%ADD37RoundRect,0.150000X-0.150000X0.587500X-0.150000X-0.587500X0.150000X-0.587500X0.150000X0.587500X0*%
%ADD38RoundRect,0.225000X-0.250000X0.225000X-0.250000X-0.225000X0.250000X-0.225000X0.250000X0.225000X0*%
%ADD39RoundRect,0.250000X0.450000X-0.262500X0.450000X0.262500X-0.450000X0.262500X-0.450000X-0.262500X0*%
%ADD40RoundRect,0.225000X0.250000X-0.225000X0.250000X0.225000X-0.250000X0.225000X-0.250000X-0.225000X0*%
%ADD41R,1.560000X1.560000*%
%ADD42C,1.560000*%
%ADD43R,2.000000X2.000000*%
%ADD44RoundRect,0.250000X0.625000X-0.312500X0.625000X0.312500X-0.625000X0.312500X-0.625000X-0.312500X0*%
%ADD45RoundRect,0.250000X-0.600000X-0.725000X0.600000X-0.725000X0.600000X0.725000X-0.600000X0.725000X0*%
%ADD46O,1.700000X1.950000*%
%ADD47RoundRect,0.150000X-0.150000X0.675000X-0.150000X-0.675000X0.150000X-0.675000X0.150000X0.675000X0*%
%ADD48RoundRect,0.250002X1.699998X1.699998X-1.699998X1.699998X-1.699998X-1.699998X1.699998X-1.699998X0*%
%ADD49RoundRect,0.249999X-1.025001X1.025001X-1.025001X-1.025001X1.025001X-1.025001X1.025001X1.025001X0*%
%ADD50C,2.550000*%
%ADD51O,1.700000X1.700000*%
%ADD52C,2.400000*%
%ADD53O,2.400000X2.400000*%
%ADD54RoundRect,0.250000X0.312500X0.625000X-0.312500X0.625000X-0.312500X-0.625000X0.312500X-0.625000X0*%
%ADD55C,2.500000*%
%ADD56RoundRect,0.250000X1.000000X0.650000X-1.000000X0.650000X-1.000000X-0.650000X1.000000X-0.650000X0*%
%ADD57R,2.400000X2.400000*%
%ADD58RoundRect,0.250000X-0.600000X-0.750000X0.600000X-0.750000X0.600000X0.750000X-0.600000X0.750000X0*%
%ADD59O,1.700000X2.000000*%
%ADD60RoundRect,0.150000X-0.587500X-0.150000X0.587500X-0.150000X0.587500X0.150000X-0.587500X0.150000X0*%
%ADD61RoundRect,0.250000X0.600000X0.725000X-0.600000X0.725000X-0.600000X-0.725000X0.600000X-0.725000X0*%
%ADD62RoundRect,0.250000X-0.725000X0.600000X-0.725000X-0.600000X0.725000X-0.600000X0.725000X0.600000X0*%
%ADD63O,1.950000X1.700000*%
%ADD64RoundRect,0.249999X-1.025001X-1.025001X1.025001X-1.025001X1.025001X1.025001X-1.025001X1.025001X0*%
%ADD65R,2.500000X4.500000*%
%ADD66O,2.500000X4.500000*%
%ADD67RoundRect,0.125000X-0.125000X0.125000X-0.125000X-0.125000X0.125000X-0.125000X0.125000X0.125000X0*%
%ADD68R,1.600000X0.550000*%
%ADD69R,0.550000X1.600000*%
%ADD70R,1.600000X1.600000*%
%ADD71O,1.600000X1.600000*%
%ADD72RoundRect,0.150000X-0.825000X-0.150000X0.825000X-0.150000X0.825000X0.150000X-0.825000X0.150000X0*%
%ADD73R,1.524000X1.524000*%
%ADD74C,1.524000*%
%ADD75C,3.500000*%
%ADD76RoundRect,0.249999X1.300001X1.300001X-1.300001X1.300001X-1.300001X-1.300001X1.300001X-1.300001X0*%
%ADD77C,3.100000*%
%ADD78RoundRect,0.250000X0.750000X-0.600000X0.750000X0.600000X-0.750000X0.600000X-0.750000X-0.600000X0*%
%ADD79O,2.000000X1.700000*%
%ADD80RoundRect,0.250000X-0.262500X-0.450000X0.262500X-0.450000X0.262500X0.450000X-0.262500X0.450000X0*%
%ADD81RoundRect,0.250000X-0.750000X0.600000X-0.750000X-0.600000X0.750000X-0.600000X0.750000X0.600000X0*%
%ADD82RoundRect,0.125000X0.125000X-0.125000X0.125000X0.125000X-0.125000X0.125000X-0.125000X-0.125000X0*%
%ADD83RoundRect,0.952500X0.952500X-1.167500X0.952500X1.167500X-0.952500X1.167500X-0.952500X-1.167500X0*%
%ADD84RoundRect,0.087500X0.425000X0.087500X-0.425000X0.087500X-0.425000X-0.087500X0.425000X-0.087500X0*%
%ADD85RoundRect,0.087500X0.087500X0.425000X-0.087500X0.425000X-0.087500X-0.425000X0.087500X-0.425000X0*%
%ADD86RoundRect,0.250000X0.600000X0.750000X-0.600000X0.750000X-0.600000X-0.750000X0.600000X-0.750000X0*%
%ADD87RoundRect,0.249999X-1.300001X-1.300001X1.300001X-1.300001X1.300001X1.300001X-1.300001X1.300001X0*%
%ADD88C,1.600000*%
%ADD89RoundRect,0.162500X-0.162500X0.825000X-0.162500X-0.825000X0.162500X-0.825000X0.162500X0.825000X0*%
%ADD90RoundRect,1.025000X-1.025000X1.025000X-1.025000X-1.025000X1.025000X-1.025000X1.025000X1.025000X0*%
%ADD91RoundRect,0.249999X1.300001X-1.300001X1.300001X1.300001X-1.300001X1.300001X-1.300001X-1.300001X0*%
%ADD92C,3.000000*%
%ADD93C,1.500000*%
%ADD94R,5.000000X3.100000*%
%ADD95RoundRect,0.150000X0.150000X-0.825000X0.150000X0.825000X-0.150000X0.825000X-0.150000X-0.825000X0*%
%ADD96R,3.200000X3.200000*%
%ADD97O,3.200000X3.200000*%
G04 APERTURE END LIST*
D10*
%TO.C,TP5*%
X93900000Y-82100000D03*
%TD*%
D11*
%TO.C,R2*%
X129000000Y-216537500D03*
X129000000Y-218362500D03*
%TD*%
D12*
%TO.C,C66*%
X90475000Y-166700000D03*
X88925000Y-166700000D03*
%TD*%
D13*
%TO.C,U21*%
X104450000Y-168312500D03*
X103500000Y-168312500D03*
X102550000Y-168312500D03*
X102550000Y-170587500D03*
X104450000Y-170587500D03*
%TD*%
D10*
%TO.C,TP2*%
X154800000Y-182800000D03*
%TD*%
%TO.C,TP16*%
X119200000Y-95500000D03*
%TD*%
%TO.C,TP12*%
X98100000Y-101700000D03*
%TD*%
D14*
%TO.C,C11*%
X160325000Y-186200000D03*
X161875000Y-186200000D03*
%TD*%
D15*
%TO.C,U29*%
X155237500Y-221125000D03*
X155237500Y-221775000D03*
X155237500Y-222425000D03*
X155237500Y-223075000D03*
D16*
X156125000Y-223962500D03*
X156775000Y-223962500D03*
X157425000Y-223962500D03*
X158075000Y-223962500D03*
D15*
X158962500Y-223075000D03*
X158962500Y-222425000D03*
X158962500Y-221775000D03*
X158962500Y-221125000D03*
D16*
X158075000Y-220237500D03*
X157425000Y-220237500D03*
X156775000Y-220237500D03*
X156125000Y-220237500D03*
D17*
X157100000Y-222100000D03*
%TD*%
D18*
%TO.C,U17*%
X97600000Y-155700000D03*
X97600000Y-156200000D03*
X97600000Y-156700000D03*
X97600000Y-157200000D03*
X97600000Y-157700000D03*
X102000000Y-157700000D03*
X102000000Y-157200000D03*
X102000000Y-156700000D03*
X102000000Y-156200000D03*
X102000000Y-155700000D03*
%TD*%
D19*
%TO.C,Q11*%
X143745000Y-150800000D03*
D20*
X143745000Y-148260000D03*
X143745000Y-145720000D03*
%TD*%
D21*
%TO.C,J3*%
X88000000Y-171700000D03*
%TD*%
D22*
%TO.C,J14*%
X115230000Y-134520000D03*
D23*
X117770000Y-134520000D03*
X115230000Y-137060000D03*
X117770000Y-137060000D03*
X115230000Y-139600000D03*
X117770000Y-139600000D03*
X115230000Y-142140000D03*
X117770000Y-142140000D03*
X115230000Y-144680000D03*
X117770000Y-144680000D03*
%TD*%
D12*
%TO.C,C4*%
X95800000Y-194450000D03*
X94250000Y-194450000D03*
%TD*%
D14*
%TO.C,C67*%
X96025000Y-170800000D03*
X97575000Y-170800000D03*
%TD*%
D22*
%TO.C,D2*%
X111550000Y-231950000D03*
D23*
X109010000Y-231950000D03*
X106470000Y-231950000D03*
%TD*%
D24*
%TO.C,R23*%
X108162500Y-209700000D03*
X106337500Y-209700000D03*
%TD*%
D25*
%TO.C,U15*%
X98200000Y-93200000D03*
D26*
X98600000Y-93200000D03*
X99000000Y-93200000D03*
X99400000Y-93200000D03*
D27*
X99800000Y-93200000D03*
D28*
X100450000Y-92550000D03*
D29*
X100450000Y-92150000D03*
X100450000Y-91750000D03*
X100450000Y-91350000D03*
D30*
X100450000Y-90950000D03*
D31*
X99800000Y-90300000D03*
D26*
X99400000Y-90300000D03*
X99000000Y-90300000D03*
X98600000Y-90300000D03*
D32*
X98200000Y-90300000D03*
D33*
X97550000Y-90950000D03*
D29*
X97550000Y-91350000D03*
X97550000Y-91750000D03*
X97550000Y-92150000D03*
D34*
X97550000Y-92550000D03*
D35*
X99000000Y-91750000D03*
%TD*%
D14*
%TO.C,C69*%
X100325000Y-160500000D03*
X101875000Y-160500000D03*
%TD*%
D36*
%TO.C,H1*%
X177500000Y-219000000D03*
%TD*%
D37*
%TO.C,Q3*%
X112800000Y-87662500D03*
X110900000Y-87662500D03*
X111850000Y-89537500D03*
%TD*%
D38*
%TO.C,C32*%
X95112500Y-133625000D03*
X95112500Y-135175000D03*
%TD*%
D39*
%TO.C,R10*%
X107000000Y-206112500D03*
X107000000Y-204287500D03*
%TD*%
D40*
%TO.C,C42*%
X97300000Y-153675000D03*
X97300000Y-152125000D03*
%TD*%
D41*
%TO.C,RV3*%
X108112500Y-114660000D03*
D42*
X110612500Y-119660000D03*
X113112500Y-114660000D03*
%TD*%
D43*
%TO.C,C16*%
X139200000Y-203025000D03*
D21*
X139200000Y-198025000D03*
%TD*%
D39*
%TO.C,R70*%
X153150000Y-222762500D03*
X153150000Y-220937500D03*
%TD*%
D44*
%TO.C,R65*%
X164400000Y-225362500D03*
X164400000Y-222437500D03*
%TD*%
D45*
%TO.C,J16*%
X109750000Y-97200000D03*
D46*
X112250000Y-97200000D03*
X114750000Y-97200000D03*
%TD*%
D12*
%TO.C,C38*%
X95775000Y-154400000D03*
X94225000Y-154400000D03*
%TD*%
D47*
%TO.C,U7*%
X102155000Y-208075000D03*
X100885000Y-208075000D03*
X99615000Y-208075000D03*
X98345000Y-208075000D03*
X98345000Y-213325000D03*
X99615000Y-213325000D03*
X100885000Y-213325000D03*
X102155000Y-213325000D03*
%TD*%
D48*
%TO.C,J4*%
X132700000Y-149000000D03*
%TD*%
D24*
%TO.C,R43*%
X106162500Y-166200000D03*
X104337500Y-166200000D03*
%TD*%
D49*
%TO.C,F2*%
X109500000Y-217800000D03*
D50*
X109500000Y-222600000D03*
%TD*%
D11*
%TO.C,R72*%
X95500000Y-158787500D03*
X95500000Y-160612500D03*
%TD*%
D37*
%TO.C,Q4*%
X116600000Y-87662500D03*
X114700000Y-87662500D03*
X115650000Y-89537500D03*
%TD*%
D14*
%TO.C,C68*%
X96025000Y-172400000D03*
X97575000Y-172400000D03*
%TD*%
D35*
%TO.C,J26*%
X186650000Y-230275000D03*
D51*
X186650000Y-232815000D03*
X189190000Y-230275000D03*
X189190000Y-232815000D03*
X191730000Y-230275000D03*
X191730000Y-232815000D03*
X194270000Y-230275000D03*
X194270000Y-232815000D03*
%TD*%
D52*
%TO.C,R58*%
X192200000Y-146680000D03*
D53*
X192200000Y-141600000D03*
%TD*%
D54*
%TO.C,R17*%
X143212500Y-223450000D03*
X140287500Y-223450000D03*
%TD*%
D36*
%TO.C,C12*%
X145445000Y-161780000D03*
X130445000Y-161780000D03*
%TD*%
D54*
%TO.C,R13*%
X117212500Y-223200000D03*
X114287500Y-223200000D03*
%TD*%
D55*
%TO.C,TR1*%
X193100000Y-186460000D03*
X172780000Y-186460000D03*
X193100000Y-181380000D03*
X172780000Y-181380000D03*
X193100000Y-176300000D03*
X172780000Y-176300000D03*
X193100000Y-171220000D03*
X172780000Y-171220000D03*
X193100000Y-166140000D03*
X172780000Y-166140000D03*
X193100000Y-161060000D03*
X172780000Y-161060000D03*
X193100000Y-155980000D03*
X172780000Y-155980000D03*
%TD*%
D10*
%TO.C,TP11*%
X96600000Y-111600000D03*
%TD*%
%TO.C,TP10*%
X92300000Y-111600000D03*
%TD*%
D11*
%TO.C,R67*%
X191400000Y-225675000D03*
X191400000Y-227500000D03*
%TD*%
D56*
%TO.C,D3*%
X162475000Y-177135000D03*
X158475000Y-177135000D03*
%TD*%
D45*
%TO.C,J17*%
X105362500Y-125150000D03*
D46*
X107862500Y-125150000D03*
X110362500Y-125150000D03*
X112862500Y-125150000D03*
X115362500Y-125150000D03*
X117862500Y-125150000D03*
%TD*%
D22*
%TO.C,D12*%
X145575000Y-218700000D03*
D23*
X143035000Y-218700000D03*
%TD*%
D57*
%TO.C,C18*%
X124700000Y-203412755D03*
D52*
X124700000Y-195912755D03*
%TD*%
D58*
%TO.C,J28*%
X169750000Y-232250000D03*
D59*
X172250000Y-232250000D03*
%TD*%
D10*
%TO.C,TP9*%
X94500000Y-111600000D03*
%TD*%
D36*
%TO.C,H6*%
X95000000Y-215500000D03*
%TD*%
D60*
%TO.C,Q6*%
X102675000Y-103450000D03*
X102675000Y-105350000D03*
X104550000Y-104400000D03*
%TD*%
D36*
%TO.C,H5*%
X149500000Y-218500000D03*
%TD*%
D44*
%TO.C,R64*%
X164500000Y-220362500D03*
X164500000Y-217437500D03*
%TD*%
D52*
%TO.C,C58*%
X190000000Y-137350000D03*
X190000000Y-114850000D03*
%TD*%
D61*
%TO.C,J10*%
X99787500Y-148400000D03*
D46*
X97287500Y-148400000D03*
X94787500Y-148400000D03*
X92287500Y-148400000D03*
%TD*%
D45*
%TO.C,J12*%
X91687500Y-125200000D03*
D46*
X94187500Y-125200000D03*
X96687500Y-125200000D03*
X99187500Y-125200000D03*
%TD*%
D21*
%TO.C,J5*%
X125000000Y-105700000D03*
%TD*%
D62*
%TO.C,J20*%
X90500000Y-179200000D03*
D63*
X90500000Y-181700000D03*
X90500000Y-184200000D03*
X90500000Y-186700000D03*
X90500000Y-189200000D03*
%TD*%
D64*
%TO.C,F6*%
X168100000Y-224200000D03*
D50*
X172900000Y-224200000D03*
%TD*%
D36*
%TO.C,C13*%
X130445000Y-169780000D03*
X145445000Y-169780000D03*
%TD*%
D10*
%TO.C,TP7*%
X98400000Y-160700000D03*
%TD*%
D24*
%TO.C,R1*%
X125412500Y-190200000D03*
X123587500Y-190200000D03*
%TD*%
D65*
%TO.C,D22*%
X144400000Y-73600000D03*
D66*
X149850000Y-73600000D03*
X155300000Y-73600000D03*
%TD*%
D38*
%TO.C,C49*%
X106000000Y-168175000D03*
X106000000Y-169725000D03*
%TD*%
D11*
%TO.C,R36*%
X115050000Y-91387500D03*
X115050000Y-93212500D03*
%TD*%
D67*
%TO.C,D15*%
X92312500Y-107800000D03*
X92312500Y-110000000D03*
%TD*%
D68*
%TO.C,U14*%
X99937500Y-133800000D03*
X99937500Y-134600000D03*
X99937500Y-135400000D03*
X99937500Y-136200000D03*
X99937500Y-137000000D03*
X99937500Y-137800000D03*
X99937500Y-138600000D03*
X99937500Y-139400000D03*
D69*
X101387500Y-140850000D03*
X102187500Y-140850000D03*
X102987500Y-140850000D03*
X103787500Y-140850000D03*
X104587500Y-140850000D03*
X105387500Y-140850000D03*
X106187500Y-140850000D03*
X106987500Y-140850000D03*
D68*
X108437500Y-139400000D03*
X108437500Y-138600000D03*
X108437500Y-137800000D03*
X108437500Y-137000000D03*
X108437500Y-136200000D03*
X108437500Y-135400000D03*
X108437500Y-134600000D03*
X108437500Y-133800000D03*
D69*
X106987500Y-132350000D03*
X106187500Y-132350000D03*
X105387500Y-132350000D03*
X104587500Y-132350000D03*
X103787500Y-132350000D03*
X102987500Y-132350000D03*
X102187500Y-132350000D03*
X101387500Y-132350000D03*
%TD*%
D11*
%TO.C,R33*%
X112350000Y-91387500D03*
X112350000Y-93212500D03*
%TD*%
D70*
%TO.C,U3*%
X133400000Y-189925000D03*
D71*
X133400000Y-192465000D03*
X141020000Y-192465000D03*
X141020000Y-189925000D03*
%TD*%
D52*
%TO.C,R15*%
X146345000Y-177640000D03*
D53*
X146345000Y-182720000D03*
%TD*%
D72*
%TO.C,U8*%
X158300000Y-180230000D03*
X158300000Y-181500000D03*
X158300000Y-182770000D03*
X158300000Y-184040000D03*
X163250000Y-184040000D03*
X163250000Y-182770000D03*
X163250000Y-181500000D03*
X163250000Y-180230000D03*
%TD*%
D43*
%TO.C,C24*%
X121117677Y-168925000D03*
D21*
X116117677Y-168925000D03*
%TD*%
D22*
%TO.C,D6*%
X138050000Y-231950000D03*
D23*
X135510000Y-231950000D03*
X132970000Y-231950000D03*
%TD*%
D64*
%TO.C,F5*%
X168100000Y-219200000D03*
D50*
X172900000Y-219200000D03*
%TD*%
D73*
%TO.C,J8*%
X119000000Y-226972500D03*
D74*
X121500000Y-226972500D03*
X123500000Y-226972500D03*
X126000000Y-226972500D03*
D75*
X115250000Y-229682500D03*
X129750000Y-229682500D03*
%TD*%
D76*
%TO.C,J1*%
X194200000Y-57900000D03*
D77*
X188200000Y-57900000D03*
%TD*%
D43*
%TO.C,C21*%
X121117677Y-179925000D03*
D21*
X116117677Y-179925000D03*
%TD*%
D10*
%TO.C,TP13*%
X117800000Y-108000000D03*
%TD*%
D49*
%TO.C,F3*%
X136000000Y-218300000D03*
D50*
X136000000Y-223100000D03*
%TD*%
D10*
%TO.C,TP8*%
X102100000Y-162300000D03*
%TD*%
D78*
%TO.C,M1*%
X108587500Y-107400000D03*
D79*
X108587500Y-104900000D03*
%TD*%
D13*
%TO.C,U18*%
X94350000Y-169962500D03*
X93400000Y-169962500D03*
X92450000Y-169962500D03*
X92450000Y-172237500D03*
X93400000Y-172237500D03*
X94350000Y-172237500D03*
%TD*%
D38*
%TO.C,C10*%
X104500000Y-204675000D03*
X104500000Y-206225000D03*
%TD*%
D80*
%TO.C,R8*%
X94337500Y-208200000D03*
X96162500Y-208200000D03*
%TD*%
D39*
%TO.C,R40*%
X104600000Y-154112500D03*
X104600000Y-152287500D03*
%TD*%
D81*
%TO.C,TH1*%
X118637500Y-115500000D03*
D79*
X118637500Y-118000000D03*
%TD*%
D10*
%TO.C,TP14*%
X117800000Y-105400000D03*
%TD*%
D21*
%TO.C,C15*%
X140845000Y-177080000D03*
X130845000Y-177080000D03*
%TD*%
D82*
%TO.C,D18*%
X104300000Y-164550000D03*
X104300000Y-162350000D03*
%TD*%
D80*
%TO.C,R31*%
X110962500Y-85441072D03*
X112787500Y-85441072D03*
%TD*%
D81*
%TO.C,TH2*%
X93112500Y-115650000D03*
D79*
X93112500Y-118150000D03*
%TD*%
D80*
%TO.C,R24*%
X106337500Y-211950000D03*
X108162500Y-211950000D03*
%TD*%
D52*
%TO.C,C56*%
X163750000Y-146000000D03*
X186250000Y-146000000D03*
%TD*%
D39*
%TO.C,R42*%
X107400000Y-162212500D03*
X107400000Y-160387500D03*
%TD*%
D10*
%TO.C,TP1*%
X165800000Y-183700000D03*
%TD*%
D52*
%TO.C,C57*%
X189700000Y-111600000D03*
X189700000Y-89100000D03*
%TD*%
D21*
%TO.C,J2*%
X125000000Y-88700000D03*
%TD*%
D10*
%TO.C,TP15*%
X111000000Y-174200000D03*
%TD*%
D83*
%TO.C,F4*%
X117000000Y-159925000D03*
X117000000Y-153515000D03*
%TD*%
D22*
%TO.C,D9*%
X164550000Y-231950000D03*
D23*
X162010000Y-231950000D03*
X159470000Y-231950000D03*
%TD*%
D41*
%TO.C,RV4*%
X98037500Y-114660000D03*
D42*
X100537500Y-119660000D03*
X103037500Y-114660000D03*
%TD*%
D84*
%TO.C,U1*%
X123737500Y-217475000D03*
X123737500Y-216825000D03*
X123737500Y-216175000D03*
X123737500Y-215525000D03*
D85*
X122850000Y-214637500D03*
X122200000Y-214637500D03*
X121550000Y-214637500D03*
X120900000Y-214637500D03*
D84*
X120012500Y-215525000D03*
X120012500Y-216175000D03*
X120012500Y-216825000D03*
X120012500Y-217475000D03*
D85*
X120900000Y-218362500D03*
X121550000Y-218362500D03*
X122200000Y-218362500D03*
X122850000Y-218362500D03*
D17*
X121875000Y-216500000D03*
%TD*%
D11*
%TO.C,R66*%
X194100000Y-225787500D03*
X194100000Y-227612500D03*
%TD*%
D19*
%TO.C,Q2*%
X152300000Y-166500000D03*
D20*
X152300000Y-163960000D03*
X152300000Y-161420000D03*
%TD*%
D49*
%TO.C,F1*%
X90000000Y-210700000D03*
D50*
X90000000Y-215500000D03*
%TD*%
D86*
%TO.C,SW3*%
X108612500Y-148400000D03*
D59*
X106112500Y-148400000D03*
%TD*%
D19*
%TO.C,Q10*%
X157100000Y-150700000D03*
D20*
X157100000Y-148160000D03*
X157100000Y-145620000D03*
%TD*%
D87*
%TO.C,J22*%
X109700000Y-77600000D03*
D77*
X115700000Y-77600000D03*
%TD*%
D80*
%TO.C,R35*%
X114737500Y-85435000D03*
X116562500Y-85435000D03*
%TD*%
D73*
%TO.C,J7*%
X92500000Y-226972500D03*
D74*
X95000000Y-226972500D03*
X97000000Y-226972500D03*
X99500000Y-226972500D03*
D75*
X88750000Y-229682500D03*
X103250000Y-229682500D03*
%TD*%
D44*
%TO.C,R11*%
X89700000Y-223062500D03*
X89700000Y-220137500D03*
%TD*%
D70*
%TO.C,C9*%
X93250000Y-199450000D03*
D88*
X96750000Y-199450000D03*
%TD*%
D73*
%TO.C,J9*%
X145500000Y-226972500D03*
D74*
X148000000Y-226972500D03*
X150000000Y-226972500D03*
X152500000Y-226972500D03*
D75*
X141750000Y-229682500D03*
X156250000Y-229682500D03*
%TD*%
D43*
%TO.C,X2*%
X87800000Y-163500000D03*
X92800000Y-163500000D03*
X92800000Y-159300000D03*
X87800000Y-159300000D03*
%TD*%
D57*
%TO.C,C59*%
X114800000Y-61822220D03*
D52*
X114800000Y-69322220D03*
%TD*%
D36*
%TO.C,H4*%
X90500000Y-154500000D03*
%TD*%
D39*
%TO.C,R44*%
X98850000Y-105312500D03*
X98850000Y-103487500D03*
%TD*%
D58*
%TO.C,J27*%
X178750000Y-232250000D03*
D59*
X181250000Y-232250000D03*
%TD*%
D67*
%TO.C,D16*%
X94512500Y-107800000D03*
X94512500Y-110000000D03*
%TD*%
D10*
%TO.C,TP6*%
X104600000Y-92700000D03*
%TD*%
D89*
%TO.C,U19*%
X100205000Y-163062500D03*
X98935000Y-163062500D03*
X97665000Y-163062500D03*
X96395000Y-163062500D03*
X96395000Y-168137500D03*
X97665000Y-168137500D03*
X98935000Y-168137500D03*
X100205000Y-168137500D03*
%TD*%
D38*
%TO.C,C27*%
X99000000Y-95025000D03*
X99000000Y-96575000D03*
%TD*%
D21*
%TO.C,J6*%
X125000000Y-147700000D03*
%TD*%
D90*
%TO.C,L2*%
X142100000Y-211200000D03*
X132500000Y-211200000D03*
%TD*%
D10*
%TO.C,TP4*%
X94100000Y-78600000D03*
%TD*%
D65*
%TO.C,D8*%
X165250000Y-197920000D03*
D66*
X170700000Y-197920000D03*
X176150000Y-197920000D03*
%TD*%
D21*
%TO.C,C14*%
X130800000Y-183800000D03*
X140800000Y-183800000D03*
%TD*%
D36*
%TO.C,H3*%
X103500000Y-81000000D03*
%TD*%
D57*
%TO.C,C60*%
X99977780Y-65200000D03*
D52*
X92477780Y-65200000D03*
%TD*%
D91*
%TO.C,J21*%
X114250000Y-199700000D03*
D77*
X114250000Y-193700000D03*
%TD*%
D38*
%TO.C,C45*%
X100900000Y-170525000D03*
X100900000Y-172075000D03*
%TD*%
D19*
%TO.C,Q1*%
X158445000Y-166440000D03*
D20*
X158445000Y-163900000D03*
X158445000Y-161360000D03*
%TD*%
D92*
%TO.C,TP3*%
X89400000Y-106500000D03*
%TD*%
D22*
%TO.C,J15*%
X89930000Y-88820000D03*
D23*
X92470000Y-88820000D03*
X89930000Y-91360000D03*
X92470000Y-91360000D03*
X89930000Y-93900000D03*
X92470000Y-93900000D03*
X89930000Y-96440000D03*
X92470000Y-96440000D03*
X89930000Y-98980000D03*
X92470000Y-98980000D03*
%TD*%
D52*
%TO.C,C55*%
X189600000Y-85900000D03*
X189600000Y-63400000D03*
%TD*%
D93*
%TO.C,X1*%
X90987500Y-138850000D03*
X90987500Y-133970000D03*
%TD*%
D94*
%TO.C,L1*%
X100500000Y-187750000D03*
X100500000Y-176650000D03*
%TD*%
D36*
%TO.C,H7*%
X131000000Y-222000000D03*
%TD*%
D67*
%TO.C,D17*%
X96612500Y-107800000D03*
X96612500Y-110000000D03*
%TD*%
D36*
%TO.C,H2*%
X179000000Y-72500000D03*
%TD*%
D14*
%TO.C,C39*%
X93525000Y-156300000D03*
X95075000Y-156300000D03*
%TD*%
D40*
%TO.C,C33*%
X95112500Y-139175000D03*
X95112500Y-137625000D03*
%TD*%
%TO.C,C48*%
X100750000Y-105175000D03*
X100750000Y-103625000D03*
%TD*%
D55*
%TO.C,TR2*%
X174920000Y-134060000D03*
X134280000Y-134060000D03*
X174920000Y-128980000D03*
X134280000Y-128980000D03*
X174920000Y-123900000D03*
X134280000Y-123900000D03*
X174920000Y-118820000D03*
X134280000Y-118820000D03*
X174920000Y-113740000D03*
X134280000Y-113740000D03*
X174920000Y-108660000D03*
X134280000Y-108660000D03*
X174920000Y-103580000D03*
X134280000Y-103580000D03*
X174920000Y-98500000D03*
X134280000Y-98500000D03*
X174920000Y-93420000D03*
X134280000Y-93420000D03*
X174920000Y-88340000D03*
X134280000Y-88340000D03*
%TD*%
D95*
%TO.C,U9*%
X151395000Y-179307500D03*
X152665000Y-179307500D03*
X153935000Y-179307500D03*
X155205000Y-179307500D03*
X155205000Y-174357500D03*
X153935000Y-174357500D03*
X152665000Y-174357500D03*
X151395000Y-174357500D03*
%TD*%
D80*
%TO.C,R9*%
X94587500Y-210950000D03*
X96412500Y-210950000D03*
%TD*%
D40*
%TO.C,C40*%
X92500000Y-167475000D03*
X92500000Y-165925000D03*
%TD*%
D80*
%TO.C,R41*%
X100887500Y-152400000D03*
X102712500Y-152400000D03*
%TD*%
D96*
%TO.C,D1*%
X102595000Y-199200000D03*
D97*
X106405000Y-199200000D03*
%TD*%
D70*
%TO.C,U22*%
X145825000Y-89300000D03*
D71*
X148365000Y-89300000D03*
X148365000Y-96920000D03*
X145825000Y-96920000D03*
%TD*%
D70*
%TO.C,U23*%
X162500000Y-92800000D03*
D71*
X165040000Y-92800000D03*
X165040000Y-100420000D03*
X162500000Y-100420000D03*
%TD*%
M02*
