%TF.GenerationSoftware,KiCad,Pcbnew,7.0.6-7.0.6~ubuntu22.04.1*%
%TF.CreationDate,2023-07-24T12:53:55+03:00*%
%TF.ProjectId,supply,73757070-6c79-42e6-9b69-6361645f7063,rev?*%
%TF.SameCoordinates,Original*%
%TF.FileFunction,Paste,Top*%
%TF.FilePolarity,Positive*%
%FSLAX46Y46*%
G04 Gerber Fmt 4.6, Leading zero omitted, Abs format (unit mm)*
G04 Created by KiCad (PCBNEW 7.0.6-7.0.6~ubuntu22.04.1) date 2023-07-24 12:53:55*
%MOMM*%
%LPD*%
G01*
G04 APERTURE LIST*
G04 Aperture macros list*
%AMRoundRect*
0 Rectangle with rounded corners*
0 $1 Rounding radius*
0 $2 $3 $4 $5 $6 $7 $8 $9 X,Y pos of 4 corners*
0 Add a 4 corners polygon primitive as box body*
4,1,4,$2,$3,$4,$5,$6,$7,$8,$9,$2,$3,0*
0 Add four circle primitives for the rounded corners*
1,1,$1+$1,$2,$3*
1,1,$1+$1,$4,$5*
1,1,$1+$1,$6,$7*
1,1,$1+$1,$8,$9*
0 Add four rect primitives between the rounded corners*
20,1,$1+$1,$2,$3,$4,$5,0*
20,1,$1+$1,$4,$5,$6,$7,0*
20,1,$1+$1,$6,$7,$8,$9,0*
20,1,$1+$1,$8,$9,$2,$3,0*%
%AMFreePoly0*
4,1,48,1.015063,1.095106,1.030902,1.095106,1.043715,1.085796,1.058779,1.080902,1.068088,1.068088,1.080902,1.058779,1.085796,1.043715,1.095106,1.030902,1.095106,1.015062,1.100000,1.000000,1.100000,-1.000000,1.095106,-1.015062,1.095106,-1.030902,1.085796,-1.043715,1.080902,-1.058779,1.068088,-1.068088,1.058779,-1.080902,1.043715,-1.085796,1.030902,-1.095106,1.015063,-1.095106,
1.000000,-1.100000,0.000000,-1.100000,-0.007671,-1.097507,-0.015643,-1.098770,-0.036509,-1.088137,-0.058779,-1.080902,-0.063522,-1.074373,-0.070710,-1.070711,-1.070711,-0.070711,-1.077901,-0.056598,-1.089101,-0.045399,-1.091578,-0.029754,-1.098769,-0.015643,-1.096291,0.000000,-1.098769,0.015643,-1.091578,0.029754,-1.089101,0.045399,-1.077901,0.056598,-1.070711,0.070711,-0.070710,1.070711,
-0.063522,1.074373,-0.058779,1.080902,-0.036509,1.088137,-0.015643,1.098770,-0.007671,1.097507,0.000000,1.100000,1.000000,1.100000,1.015063,1.095106,1.015063,1.095106,$1*%
%AMFreePoly1*
4,1,55,1.022267,1.092764,1.045399,1.089101,1.051104,1.083395,1.058779,1.080902,1.072544,1.061955,1.089101,1.045399,1.090363,1.037429,1.095106,1.030902,1.095106,1.007488,1.098770,0.984357,1.095106,0.977166,1.095106,0.969098,1.081341,0.950152,1.070711,0.929290,0.250000,0.108579,0.250000,-0.108579,1.070711,-0.929290,1.081341,-0.950152,1.095106,-0.969098,1.095106,-0.977166,
1.098770,-0.984357,1.095106,-1.007488,1.095106,-1.030902,1.090363,-1.037429,1.089101,-1.045399,1.072544,-1.061955,1.058779,-1.080902,1.051104,-1.083395,1.045399,-1.089101,1.022267,-1.092764,1.000000,-1.100000,-1.000000,-1.100000,-1.015063,-1.095106,-1.030902,-1.095106,-1.043715,-1.085796,-1.058779,-1.080902,-1.068088,-1.068088,-1.080902,-1.058779,-1.085796,-1.043715,-1.095106,-1.030902,
-1.095106,-1.015062,-1.100000,-1.000000,-1.100000,1.000000,-1.095106,1.015062,-1.095106,1.030902,-1.085796,1.043715,-1.080902,1.058779,-1.068088,1.068088,-1.058779,1.080902,-1.043715,1.085796,-1.030902,1.095106,-1.015063,1.095106,-1.000000,1.100000,1.000000,1.100000,1.022267,1.092764,1.022267,1.092764,$1*%
G04 Aperture macros list end*
%ADD10RoundRect,0.250000X-0.450000X0.262500X-0.450000X-0.262500X0.450000X-0.262500X0.450000X0.262500X0*%
%ADD11RoundRect,0.150000X-0.150000X0.587500X-0.150000X-0.587500X0.150000X-0.587500X0.150000X0.587500X0*%
%ADD12RoundRect,0.212500X-0.212500X-0.212500X0.212500X-0.212500X0.212500X0.212500X-0.212500X0.212500X0*%
%ADD13RoundRect,0.087500X-0.425000X-0.087500X0.425000X-0.087500X0.425000X0.087500X-0.425000X0.087500X0*%
%ADD14RoundRect,0.087500X-0.087500X-0.425000X0.087500X-0.425000X0.087500X0.425000X-0.087500X0.425000X0*%
%ADD15RoundRect,0.225000X0.225000X0.250000X-0.225000X0.250000X-0.225000X-0.250000X0.225000X-0.250000X0*%
%ADD16RoundRect,0.250000X0.262500X0.450000X-0.262500X0.450000X-0.262500X-0.450000X0.262500X-0.450000X0*%
%ADD17RoundRect,0.225000X-0.250000X0.225000X-0.250000X-0.225000X0.250000X-0.225000X0.250000X0.225000X0*%
%ADD18RoundRect,0.250000X0.450000X-0.262500X0.450000X0.262500X-0.450000X0.262500X-0.450000X-0.262500X0*%
%ADD19RoundRect,0.150000X-0.150000X0.675000X-0.150000X-0.675000X0.150000X-0.675000X0.150000X0.675000X0*%
%ADD20RoundRect,0.250000X0.312500X0.625000X-0.312500X0.625000X-0.312500X-0.625000X0.312500X-0.625000X0*%
%ADD21RoundRect,0.250000X-0.312500X-0.625000X0.312500X-0.625000X0.312500X0.625000X-0.312500X0.625000X0*%
%ADD22R,1.600000X0.550000*%
%ADD23R,0.550000X1.600000*%
%ADD24RoundRect,0.150000X-0.587500X-0.150000X0.587500X-0.150000X0.587500X0.150000X-0.587500X0.150000X0*%
%ADD25RoundRect,0.250000X-0.262500X-0.450000X0.262500X-0.450000X0.262500X0.450000X-0.262500X0.450000X0*%
%ADD26R,1.300000X1.100000*%
%ADD27R,3.400000X2.000000*%
%ADD28RoundRect,0.952500X0.952500X-1.167500X0.952500X1.167500X-0.952500X1.167500X-0.952500X-1.167500X0*%
%ADD29RoundRect,0.212500X0.212500X0.212500X-0.212500X0.212500X-0.212500X-0.212500X0.212500X-0.212500X0*%
%ADD30RoundRect,0.087500X0.425000X0.087500X-0.425000X0.087500X-0.425000X-0.087500X0.425000X-0.087500X0*%
%ADD31RoundRect,0.087500X0.087500X0.425000X-0.087500X0.425000X-0.087500X-0.425000X0.087500X-0.425000X0*%
%ADD32RoundRect,0.250000X-1.000000X1.400000X-1.000000X-1.400000X1.000000X-1.400000X1.000000X1.400000X0*%
%ADD33FreePoly0,270.000000*%
%ADD34FreePoly1,270.000000*%
%ADD35RoundRect,1.025000X1.025000X1.025000X-1.025000X1.025000X-1.025000X-1.025000X1.025000X-1.025000X0*%
%ADD36R,5.000000X3.100000*%
%ADD37RoundRect,0.250000X0.350000X-0.850000X0.350000X0.850000X-0.350000X0.850000X-0.350000X-0.850000X0*%
%ADD38RoundRect,0.250000X1.125000X-1.275000X1.125000X1.275000X-1.125000X1.275000X-1.125000X-1.275000X0*%
%ADD39RoundRect,0.225000X0.250000X-0.225000X0.250000X0.225000X-0.250000X0.225000X-0.250000X-0.225000X0*%
G04 APERTURE END LIST*
D10*
%TO.C,R21*%
X129000000Y-216837500D03*
X129000000Y-218662500D03*
%TD*%
D11*
%TO.C,Q14*%
X190350000Y-220662500D03*
X188450000Y-220662500D03*
X189400000Y-222537500D03*
%TD*%
D12*
%TO.C,U25*%
X156575000Y-221875000D03*
X156575000Y-222925000D03*
X157625000Y-221875000D03*
X157625000Y-222925000D03*
D13*
X155237500Y-221425000D03*
X155237500Y-222075000D03*
X155237500Y-222725000D03*
X155237500Y-223375000D03*
D14*
X156125000Y-224262500D03*
X156775000Y-224262500D03*
X157425000Y-224262500D03*
X158075000Y-224262500D03*
D13*
X158962500Y-223375000D03*
X158962500Y-222725000D03*
X158962500Y-222075000D03*
X158962500Y-221425000D03*
D14*
X158075000Y-220537500D03*
X157425000Y-220537500D03*
X156775000Y-220537500D03*
X156125000Y-220537500D03*
%TD*%
D15*
%TO.C,C19*%
X98775000Y-199000000D03*
X97225000Y-199000000D03*
%TD*%
D16*
%TO.C,R37*%
X108162500Y-210000000D03*
X106337500Y-210000000D03*
%TD*%
D17*
%TO.C,C38*%
X95500000Y-147225000D03*
X95500000Y-148775000D03*
%TD*%
D18*
%TO.C,R29*%
X107000000Y-206412500D03*
X107000000Y-204587500D03*
%TD*%
%TO.C,R79*%
X153150000Y-223062500D03*
X153150000Y-221237500D03*
%TD*%
D19*
%TO.C,U12*%
X102155000Y-208375000D03*
X100885000Y-208375000D03*
X99615000Y-208375000D03*
X98345000Y-208375000D03*
X98345000Y-213625000D03*
X99615000Y-213625000D03*
X100885000Y-213625000D03*
X102155000Y-213625000D03*
%TD*%
D20*
%TO.C,R39*%
X143212500Y-223750000D03*
X140287500Y-223750000D03*
%TD*%
%TO.C,R32*%
X117212500Y-223500000D03*
X114287500Y-223500000D03*
%TD*%
D16*
%TO.C,R78*%
X190312500Y-225700000D03*
X188487500Y-225700000D03*
%TD*%
D21*
%TO.C,RV2*%
X119287500Y-167500000D03*
X122212500Y-167500000D03*
%TD*%
D17*
%TO.C,C62*%
X148000000Y-71525000D03*
X148000000Y-73075000D03*
%TD*%
D22*
%TO.C,U17*%
X100325000Y-147400000D03*
X100325000Y-148200000D03*
X100325000Y-149000000D03*
X100325000Y-149800000D03*
X100325000Y-150600000D03*
X100325000Y-151400000D03*
X100325000Y-152200000D03*
X100325000Y-153000000D03*
D23*
X101775000Y-154450000D03*
X102575000Y-154450000D03*
X103375000Y-154450000D03*
X104175000Y-154450000D03*
X104975000Y-154450000D03*
X105775000Y-154450000D03*
X106575000Y-154450000D03*
X107375000Y-154450000D03*
D22*
X108825000Y-153000000D03*
X108825000Y-152200000D03*
X108825000Y-151400000D03*
X108825000Y-150600000D03*
X108825000Y-149800000D03*
X108825000Y-149000000D03*
X108825000Y-148200000D03*
X108825000Y-147400000D03*
D23*
X107375000Y-145950000D03*
X106575000Y-145950000D03*
X105775000Y-145950000D03*
X104975000Y-145950000D03*
X104175000Y-145950000D03*
X103375000Y-145950000D03*
X102575000Y-145950000D03*
X101775000Y-145950000D03*
%TD*%
D18*
%TO.C,R49*%
X115500000Y-138662500D03*
X115500000Y-136837500D03*
%TD*%
D24*
%TO.C,Q10*%
X160062500Y-76350000D03*
X160062500Y-78250000D03*
X161937500Y-77300000D03*
%TD*%
D17*
%TO.C,C24*%
X104500000Y-204975000D03*
X104500000Y-206525000D03*
%TD*%
D25*
%TO.C,R25*%
X94337500Y-208500000D03*
X96162500Y-208500000D03*
%TD*%
D26*
%TO.C,X2*%
X87700000Y-116325000D03*
X89800000Y-116325000D03*
X89800000Y-114675000D03*
X87700000Y-114675000D03*
%TD*%
D25*
%TO.C,R38*%
X106337500Y-212250000D03*
X108162500Y-212250000D03*
%TD*%
D27*
%TO.C,L4*%
X91000000Y-84100000D03*
X91000000Y-78400000D03*
%TD*%
D28*
%TO.C,F5*%
X119000000Y-178975000D03*
X119000000Y-172565000D03*
%TD*%
D16*
%TO.C,R73*%
X194612500Y-218400000D03*
X192787500Y-218400000D03*
%TD*%
D29*
%TO.C,U6*%
X122400000Y-217325000D03*
X122400000Y-216275000D03*
X121350000Y-217325000D03*
X121350000Y-216275000D03*
D30*
X123737500Y-217775000D03*
X123737500Y-217125000D03*
X123737500Y-216475000D03*
X123737500Y-215825000D03*
D31*
X122850000Y-214937500D03*
X122200000Y-214937500D03*
X121550000Y-214937500D03*
X120900000Y-214937500D03*
D30*
X120012500Y-215825000D03*
X120012500Y-216475000D03*
X120012500Y-217125000D03*
X120012500Y-217775000D03*
D31*
X120900000Y-218662500D03*
X121550000Y-218662500D03*
X122200000Y-218662500D03*
X122850000Y-218662500D03*
%TD*%
D25*
%TO.C,R77*%
X192887500Y-225700000D03*
X194712500Y-225700000D03*
%TD*%
D32*
%TO.C,D12*%
X122900000Y-162000000D03*
X116100000Y-162000000D03*
%TD*%
D20*
%TO.C,R30*%
X92462500Y-222300000D03*
X89537500Y-222300000D03*
%TD*%
D16*
%TO.C,R74*%
X190312500Y-218400000D03*
X188487500Y-218400000D03*
%TD*%
D33*
%TO.C,JP3*%
X112100000Y-175335000D03*
D34*
X112100000Y-173430000D03*
%TD*%
D35*
%TO.C,L3*%
X134850000Y-200850000D03*
X134850000Y-191250000D03*
%TD*%
D11*
%TO.C,Q13*%
X194650000Y-220662500D03*
X192750000Y-220662500D03*
X193700000Y-222537500D03*
%TD*%
D36*
%TO.C,L2*%
X94100000Y-169950000D03*
X94100000Y-181050000D03*
%TD*%
D37*
%TO.C,Q3*%
X91720000Y-192950000D03*
D38*
X92475000Y-188325000D03*
X95525000Y-188325000D03*
X92475000Y-184975000D03*
X95525000Y-184975000D03*
D37*
X96280000Y-192950000D03*
%TD*%
D39*
%TO.C,C39*%
X95500000Y-152775000D03*
X95500000Y-151225000D03*
%TD*%
D25*
%TO.C,R26*%
X94587500Y-211250000D03*
X96412500Y-211250000D03*
%TD*%
M02*
