%TF.GenerationSoftware,KiCad,Pcbnew,8.0.3-8.0.3-0~ubuntu22.04.1*%
%TF.CreationDate,2024-07-10T15:47:05+03:00*%
%TF.ProjectId,supply,73757070-6c79-42e6-9b69-6361645f7063,rev?*%
%TF.SameCoordinates,Original*%
%TF.FileFunction,Soldermask,Top*%
%TF.FilePolarity,Negative*%
%FSLAX46Y46*%
G04 Gerber Fmt 4.6, Leading zero omitted, Abs format (unit mm)*
G04 Created by KiCad (PCBNEW 8.0.3-8.0.3-0~ubuntu22.04.1) date 2024-07-10 15:47:05*
%MOMM*%
%LPD*%
G01*
G04 APERTURE LIST*
G04 Aperture macros list*
%AMRoundRect*
0 Rectangle with rounded corners*
0 $1 Rounding radius*
0 $2 $3 $4 $5 $6 $7 $8 $9 X,Y pos of 4 corners*
0 Add a 4 corners polygon primitive as box body*
4,1,4,$2,$3,$4,$5,$6,$7,$8,$9,$2,$3,0*
0 Add four circle primitives for the rounded corners*
1,1,$1+$1,$2,$3*
1,1,$1+$1,$4,$5*
1,1,$1+$1,$6,$7*
1,1,$1+$1,$8,$9*
0 Add four rect primitives between the rounded corners*
20,1,$1+$1,$2,$3,$4,$5,0*
20,1,$1+$1,$4,$5,$6,$7,0*
20,1,$1+$1,$6,$7,$8,$9,0*
20,1,$1+$1,$8,$9,$2,$3,0*%
%AMFreePoly0*
4,1,9,3.862500,-0.866500,0.737500,-0.866500,0.737500,-0.450000,-0.737500,-0.450000,-0.737500,0.450000,0.737500,0.450000,0.737500,0.866500,3.862500,0.866500,3.862500,-0.866500,3.862500,-0.866500,$1*%
G04 Aperture macros list end*
%ADD10RoundRect,0.250000X-0.450000X0.262500X-0.450000X-0.262500X0.450000X-0.262500X0.450000X0.262500X0*%
%ADD11R,2.000000X2.000000*%
%ADD12C,2.000000*%
%ADD13R,1.524000X1.524000*%
%ADD14C,1.524000*%
%ADD15C,3.500000*%
%ADD16RoundRect,0.225000X0.225000X0.250000X-0.225000X0.250000X-0.225000X-0.250000X0.225000X-0.250000X0*%
%ADD17RoundRect,0.250000X0.725000X-0.600000X0.725000X0.600000X-0.725000X0.600000X-0.725000X-0.600000X0*%
%ADD18O,1.950000X1.700000*%
%ADD19R,1.000000X1.000000*%
%ADD20RoundRect,0.042000X0.258000X-0.943000X0.258000X0.943000X-0.258000X0.943000X-0.258000X-0.943000X0*%
%ADD21R,3.302000X2.413000*%
%ADD22C,2.200000*%
%ADD23RoundRect,0.225000X-0.250000X0.225000X-0.250000X-0.225000X0.250000X-0.225000X0.250000X0.225000X0*%
%ADD24RoundRect,0.250000X0.600000X0.725000X-0.600000X0.725000X-0.600000X-0.725000X0.600000X-0.725000X0*%
%ADD25O,1.700000X1.950000*%
%ADD26RoundRect,0.125000X-0.125000X-0.125000X0.125000X-0.125000X0.125000X0.125000X-0.125000X0.125000X0*%
%ADD27RoundRect,0.250000X0.625000X-0.312500X0.625000X0.312500X-0.625000X0.312500X-0.625000X-0.312500X0*%
%ADD28RoundRect,0.150000X-0.150000X0.675000X-0.150000X-0.675000X0.150000X-0.675000X0.150000X0.675000X0*%
%ADD29RoundRect,0.225000X-0.225000X-0.250000X0.225000X-0.250000X0.225000X0.250000X-0.225000X0.250000X0*%
%ADD30RoundRect,0.250000X0.262500X0.450000X-0.262500X0.450000X-0.262500X-0.450000X0.262500X-0.450000X0*%
%ADD31RoundRect,0.150000X-0.150000X0.825000X-0.150000X-0.825000X0.150000X-0.825000X0.150000X0.825000X0*%
%ADD32RoundRect,0.225000X-0.225000X0.425000X-0.225000X-0.425000X0.225000X-0.425000X0.225000X0.425000X0*%
%ADD33FreePoly0,270.000000*%
%ADD34RoundRect,0.250000X-0.600000X-0.750000X0.600000X-0.750000X0.600000X0.750000X-0.600000X0.750000X0*%
%ADD35O,1.700000X2.000000*%
%ADD36RoundRect,0.087500X-0.087500X0.725000X-0.087500X-0.725000X0.087500X-0.725000X0.087500X0.725000X0*%
%ADD37R,1.600000X1.600000*%
%ADD38C,1.600000*%
%ADD39RoundRect,0.250000X0.750000X-0.600000X0.750000X0.600000X-0.750000X0.600000X-0.750000X-0.600000X0*%
%ADD40O,2.000000X1.700000*%
%ADD41RoundRect,0.249999X-1.025001X1.025001X-1.025001X-1.025001X1.025001X-1.025001X1.025001X1.025001X0*%
%ADD42C,2.550000*%
%ADD43RoundRect,0.087500X-0.425000X-0.087500X0.425000X-0.087500X0.425000X0.087500X-0.425000X0.087500X0*%
%ADD44RoundRect,0.087500X-0.087500X-0.425000X0.087500X-0.425000X0.087500X0.425000X-0.087500X0.425000X0*%
%ADD45R,2.100000X2.100000*%
%ADD46R,1.700000X1.700000*%
%ADD47O,1.700000X1.700000*%
%ADD48RoundRect,0.087500X0.425000X0.087500X-0.425000X0.087500X-0.425000X-0.087500X0.425000X-0.087500X0*%
%ADD49RoundRect,0.087500X0.087500X0.425000X-0.087500X0.425000X-0.087500X-0.425000X0.087500X-0.425000X0*%
%ADD50R,1.800000X1.800000*%
%ADD51C,1.800000*%
%ADD52RoundRect,0.250000X0.300000X-2.050000X0.300000X2.050000X-0.300000X2.050000X-0.300000X-2.050000X0*%
%ADD53RoundRect,0.250002X5.149998X-4.449998X5.149998X4.449998X-5.149998X4.449998X-5.149998X-4.449998X0*%
%ADD54RoundRect,0.250000X-0.325000X-1.100000X0.325000X-1.100000X0.325000X1.100000X-0.325000X1.100000X0*%
%ADD55RoundRect,0.250000X-0.312500X-0.625000X0.312500X-0.625000X0.312500X0.625000X-0.312500X0.625000X0*%
%ADD56RoundRect,0.225000X0.250000X-0.225000X0.250000X0.225000X-0.250000X0.225000X-0.250000X-0.225000X0*%
%ADD57RoundRect,0.952500X0.952500X-1.167500X0.952500X1.167500X-0.952500X1.167500X-0.952500X-1.167500X0*%
%ADD58RoundRect,0.250000X1.100000X-0.325000X1.100000X0.325000X-1.100000X0.325000X-1.100000X-0.325000X0*%
%ADD59RoundRect,0.162500X-0.162500X0.825000X-0.162500X-0.825000X0.162500X-0.825000X0.162500X0.825000X0*%
%ADD60R,1.560000X1.560000*%
%ADD61C,1.560000*%
%ADD62RoundRect,0.250000X0.450000X-0.262500X0.450000X0.262500X-0.450000X0.262500X-0.450000X-0.262500X0*%
%ADD63RoundRect,0.150000X-0.150000X0.587500X-0.150000X-0.587500X0.150000X-0.587500X0.150000X0.587500X0*%
%ADD64RoundRect,0.150000X-0.650000X-0.150000X0.650000X-0.150000X0.650000X0.150000X-0.650000X0.150000X0*%
%ADD65RoundRect,0.250000X0.325000X1.100000X-0.325000X1.100000X-0.325000X-1.100000X0.325000X-1.100000X0*%
%ADD66RoundRect,0.125000X0.125000X-0.125000X0.125000X0.125000X-0.125000X0.125000X-0.125000X-0.125000X0*%
%ADD67RoundRect,0.250000X-0.725000X0.600000X-0.725000X-0.600000X0.725000X-0.600000X0.725000X0.600000X0*%
%ADD68RoundRect,0.150000X0.512500X0.150000X-0.512500X0.150000X-0.512500X-0.150000X0.512500X-0.150000X0*%
%ADD69R,3.100000X5.000000*%
%ADD70RoundRect,0.250000X-1.100000X0.325000X-1.100000X-0.325000X1.100000X-0.325000X1.100000X0.325000X0*%
%ADD71RoundRect,0.249999X1.300001X-1.300001X1.300001X1.300001X-1.300001X1.300001X-1.300001X-1.300001X0*%
%ADD72C,3.100000*%
%ADD73C,1.500000*%
%ADD74RoundRect,0.125000X-0.125000X0.125000X-0.125000X-0.125000X0.125000X-0.125000X0.125000X0.125000X0*%
%ADD75RoundRect,0.249999X1.025001X1.025001X-1.025001X1.025001X-1.025001X-1.025001X1.025001X-1.025001X0*%
%ADD76RoundRect,0.250000X-0.262500X-0.450000X0.262500X-0.450000X0.262500X0.450000X-0.262500X0.450000X0*%
%ADD77RoundRect,0.150000X-0.150000X0.512500X-0.150000X-0.512500X0.150000X-0.512500X0.150000X0.512500X0*%
%ADD78RoundRect,0.250000X-0.300000X2.050000X-0.300000X-2.050000X0.300000X-2.050000X0.300000X2.050000X0*%
%ADD79RoundRect,0.250002X-5.149998X4.449998X-5.149998X-4.449998X5.149998X-4.449998X5.149998X4.449998X0*%
%ADD80O,1.600000X1.600000*%
%ADD81RoundRect,0.150000X0.587500X0.150000X-0.587500X0.150000X-0.587500X-0.150000X0.587500X-0.150000X0*%
%ADD82RoundRect,0.150000X0.150000X-0.825000X0.150000X0.825000X-0.150000X0.825000X-0.150000X-0.825000X0*%
%ADD83R,3.200000X3.200000*%
%ADD84O,3.200000X3.200000*%
%ADD85R,0.550000X1.600000*%
%ADD86R,1.600000X0.550000*%
%ADD87RoundRect,0.250000X-0.750000X0.600000X-0.750000X-0.600000X0.750000X-0.600000X0.750000X0.600000X0*%
G04 APERTURE END LIST*
D10*
%TO.C,R9*%
X63600000Y-171700000D03*
X63600000Y-173525000D03*
%TD*%
D11*
%TO.C,X2*%
X203500000Y-103400000D03*
X198500000Y-103400000D03*
X198500000Y-107600000D03*
X203500000Y-107600000D03*
%TD*%
%TO.C,C14*%
X104567677Y-160900000D03*
D12*
X109567677Y-160900000D03*
%TD*%
D13*
%TO.C,J7*%
X62500000Y-182272500D03*
D14*
X65000000Y-182272500D03*
X67000000Y-182272500D03*
X69500000Y-182272500D03*
D15*
X58750000Y-184982500D03*
X73250000Y-184982500D03*
%TD*%
D16*
%TO.C,C35*%
X200175000Y-110400000D03*
X198625000Y-110400000D03*
%TD*%
D10*
%TO.C,R31*%
X135400000Y-105287500D03*
X135400000Y-107112500D03*
%TD*%
D17*
%TO.C,J10*%
X130275000Y-106950000D03*
D18*
X130275000Y-104450000D03*
X130275000Y-101950000D03*
X130275000Y-99450000D03*
%TD*%
D19*
%TO.C,TP5*%
X116585000Y-98800000D03*
%TD*%
D20*
%TO.C,U18*%
X152320000Y-161700000D03*
X153590000Y-161700000D03*
X154860000Y-161700000D03*
X156130000Y-161700000D03*
X156130000Y-156750000D03*
X154860000Y-156750000D03*
X153590000Y-156750000D03*
X152320000Y-156750000D03*
D21*
X154225000Y-159225000D03*
%TD*%
D22*
%TO.C,H1*%
X61000000Y-95000000D03*
%TD*%
D23*
%TO.C,C47*%
X105785000Y-95200000D03*
X105785000Y-96750000D03*
%TD*%
D12*
%TO.C,J5*%
X200000000Y-93000000D03*
%TD*%
D24*
%TO.C,J17*%
X157325000Y-151225000D03*
D25*
X154825000Y-151225000D03*
X152325000Y-151225000D03*
X149825000Y-151225000D03*
X147325000Y-151225000D03*
%TD*%
D26*
%TO.C,D9*%
X115885000Y-94200000D03*
X118085000Y-94200000D03*
%TD*%
D27*
%TO.C,R13*%
X94400000Y-173662500D03*
X94400000Y-170737500D03*
%TD*%
D19*
%TO.C,TP4*%
X99385000Y-100800000D03*
%TD*%
D10*
%TO.C,R35*%
X196100000Y-166475000D03*
X196100000Y-168300000D03*
%TD*%
D28*
%TO.C,U8*%
X69405000Y-171075000D03*
X68135000Y-171075000D03*
X66865000Y-171075000D03*
X65595000Y-171075000D03*
X65595000Y-176325000D03*
X66865000Y-176325000D03*
X68135000Y-176325000D03*
X69405000Y-176325000D03*
%TD*%
D22*
%TO.C,H3*%
X121000000Y-122000000D03*
%TD*%
D27*
%TO.C,R37*%
X167500000Y-167262500D03*
X167500000Y-164337500D03*
%TD*%
D23*
%TO.C,C3*%
X184500000Y-134225000D03*
X184500000Y-135775000D03*
%TD*%
D29*
%TO.C,C20*%
X78187500Y-172450000D03*
X79737500Y-172450000D03*
%TD*%
D30*
%TO.C,R40*%
X155237500Y-164025000D03*
X153412500Y-164025000D03*
%TD*%
D31*
%TO.C,Q7*%
X196205000Y-170825000D03*
X194935000Y-170825000D03*
X193665000Y-170825000D03*
X192395000Y-170825000D03*
X192395000Y-175775000D03*
X193665000Y-175775000D03*
X194935000Y-175775000D03*
X196205000Y-175775000D03*
%TD*%
D32*
%TO.C,U6*%
X78862500Y-175050000D03*
D33*
X77362500Y-175137500D03*
D32*
X75862500Y-175050000D03*
%TD*%
D16*
%TO.C,C9*%
X202375000Y-156700000D03*
X200825000Y-156700000D03*
%TD*%
D34*
%TO.C,J22*%
X179750000Y-186550000D03*
D35*
X182250000Y-186550000D03*
%TD*%
D36*
%TO.C,U13*%
X200400000Y-113487500D03*
X199900000Y-113487500D03*
X199400000Y-113487500D03*
X198900000Y-113487500D03*
X198400000Y-113487500D03*
X198400000Y-117712500D03*
X198900000Y-117712500D03*
X199400000Y-117712500D03*
X199900000Y-117712500D03*
X200400000Y-117712500D03*
%TD*%
D37*
%TO.C,C21*%
X64447349Y-153100000D03*
D38*
X67947349Y-153100000D03*
%TD*%
D39*
%TO.C,TH1*%
X94585000Y-108775000D03*
D40*
X94585000Y-106275000D03*
%TD*%
D41*
%TO.C,F4*%
X128100000Y-161500000D03*
D42*
X128100000Y-166300000D03*
%TD*%
D12*
%TO.C,J4*%
X132000000Y-115000000D03*
%TD*%
D10*
%TO.C,R6*%
X139400000Y-160600000D03*
X139400000Y-162425000D03*
%TD*%
%TO.C,R29*%
X103785000Y-95087500D03*
X103785000Y-96912500D03*
%TD*%
D43*
%TO.C,U19*%
X175137500Y-169425000D03*
X175137500Y-170075000D03*
X175137500Y-170725000D03*
X175137500Y-171375000D03*
D44*
X176025000Y-172262500D03*
X176675000Y-172262500D03*
X177325000Y-172262500D03*
X177975000Y-172262500D03*
D43*
X178862500Y-171375000D03*
X178862500Y-170725000D03*
X178862500Y-170075000D03*
X178862500Y-169425000D03*
D44*
X177975000Y-168537500D03*
X177325000Y-168537500D03*
X176675000Y-168537500D03*
X176025000Y-168537500D03*
D45*
X177000000Y-170400000D03*
%TD*%
D46*
%TO.C,J21*%
X193150000Y-183375000D03*
D47*
X193150000Y-185915000D03*
X195690000Y-183375000D03*
X195690000Y-185915000D03*
X198230000Y-183375000D03*
X198230000Y-185915000D03*
X200770000Y-183375000D03*
X200770000Y-185915000D03*
%TD*%
D48*
%TO.C,U4*%
X103987500Y-152412500D03*
X103987500Y-151762500D03*
X103987500Y-151112500D03*
X103987500Y-150462500D03*
D49*
X103100000Y-149575000D03*
X102450000Y-149575000D03*
X101800000Y-149575000D03*
X101150000Y-149575000D03*
D48*
X100262500Y-150462500D03*
X100262500Y-151112500D03*
X100262500Y-151762500D03*
X100262500Y-152412500D03*
D49*
X101150000Y-153300000D03*
X101800000Y-153300000D03*
X102450000Y-153300000D03*
X103100000Y-153300000D03*
D45*
X102125000Y-151437500D03*
%TD*%
D50*
%TO.C,J14*%
X151030000Y-123905000D03*
D51*
X151030000Y-126445000D03*
X148490000Y-123905000D03*
X148490000Y-126445000D03*
X145950000Y-123905000D03*
X145950000Y-126445000D03*
X143410000Y-123905000D03*
X143410000Y-126445000D03*
X140870000Y-123905000D03*
X140870000Y-126445000D03*
%TD*%
D16*
%TO.C,C18*%
X76437500Y-172450000D03*
X74887500Y-172450000D03*
%TD*%
D52*
%TO.C,U5*%
X58500000Y-126675000D03*
X60200000Y-126675000D03*
X61900000Y-126675000D03*
D53*
X61900000Y-117525000D03*
D52*
X63600000Y-126675000D03*
X65300000Y-126675000D03*
%TD*%
D54*
%TO.C,C13*%
X60525000Y-132100000D03*
X63475000Y-132100000D03*
%TD*%
D50*
%TO.C,D5*%
X115950000Y-184000000D03*
D51*
X118490000Y-184000000D03*
X121030000Y-184000000D03*
%TD*%
D24*
%TO.C,J2*%
X191700000Y-125100000D03*
D25*
X189200000Y-125100000D03*
X186700000Y-125100000D03*
X184200000Y-125100000D03*
%TD*%
D55*
%TO.C,R17*%
X134537500Y-178000000D03*
X137462500Y-178000000D03*
%TD*%
D13*
%TO.C,J8*%
X97500000Y-182272500D03*
D14*
X100000000Y-182272500D03*
X102000000Y-182272500D03*
X104500000Y-182272500D03*
D15*
X93750000Y-184982500D03*
X108250000Y-184982500D03*
%TD*%
D13*
%TO.C,J9*%
X132500000Y-182272500D03*
D14*
X135000000Y-182272500D03*
X137000000Y-182272500D03*
X139500000Y-182272500D03*
D15*
X128750000Y-184982500D03*
X143250000Y-184982500D03*
%TD*%
D56*
%TO.C,C49*%
X150625000Y-158800000D03*
X150625000Y-157250000D03*
%TD*%
D41*
%TO.C,F2*%
X65000000Y-161800000D03*
D42*
X65000000Y-166600000D03*
%TD*%
D11*
%TO.C,C1*%
X152700000Y-134900000D03*
D12*
X152700000Y-139900000D03*
%TD*%
D57*
%TO.C,F1*%
X167500000Y-125625000D03*
X167500000Y-119215000D03*
%TD*%
D58*
%TO.C,C2*%
X160800000Y-138575000D03*
X160800000Y-135625000D03*
%TD*%
D59*
%TO.C,U16*%
X200600000Y-124525000D03*
X199330000Y-124525000D03*
X198060000Y-124525000D03*
X196790000Y-124525000D03*
X196790000Y-129600000D03*
X198060000Y-129600000D03*
X199330000Y-129600000D03*
X200600000Y-129600000D03*
%TD*%
D10*
%TO.C,R34*%
X201900000Y-166487500D03*
X201900000Y-168312500D03*
%TD*%
D60*
%TO.C,RV1*%
X104885000Y-114415000D03*
D61*
X102385000Y-109415000D03*
X99885000Y-114415000D03*
%TD*%
D62*
%TO.C,R10*%
X71500000Y-176312500D03*
X71500000Y-174487500D03*
%TD*%
D30*
%TO.C,R1*%
X189112500Y-141800000D03*
X187287500Y-141800000D03*
%TD*%
D63*
%TO.C,Q1*%
X198150000Y-134225000D03*
X196250000Y-134225000D03*
X197200000Y-136100000D03*
%TD*%
D11*
%TO.C,C53*%
X171800000Y-145267677D03*
D12*
X171800000Y-140267677D03*
%TD*%
D64*
%TO.C,U15*%
X102385000Y-103270000D03*
X102385000Y-104540000D03*
X102385000Y-105810000D03*
X102385000Y-107080000D03*
X109585000Y-107080000D03*
X109585000Y-105810000D03*
X109585000Y-104540000D03*
X109585000Y-103270000D03*
%TD*%
D55*
%TO.C,R14*%
X99537500Y-177900000D03*
X102462500Y-177900000D03*
%TD*%
D63*
%TO.C,Q4*%
X199950000Y-166250000D03*
X198050000Y-166250000D03*
X199000000Y-168125000D03*
%TD*%
D65*
%TO.C,C50*%
X181350000Y-145750000D03*
X178400000Y-145750000D03*
%TD*%
D16*
%TO.C,C55*%
X173575000Y-173000000D03*
X172025000Y-173000000D03*
%TD*%
D56*
%TO.C,C19*%
X61700000Y-173550000D03*
X61700000Y-172000000D03*
%TD*%
D66*
%TO.C,D11*%
X203600000Y-130000000D03*
X203600000Y-127800000D03*
%TD*%
D19*
%TO.C,TP3*%
X121385000Y-94200000D03*
%TD*%
D67*
%TO.C,J12*%
X153175000Y-92812500D03*
D18*
X153175000Y-95312500D03*
X153175000Y-97812500D03*
X153175000Y-100312500D03*
%TD*%
D68*
%TO.C,U14*%
X196187500Y-119112500D03*
X196187500Y-118162500D03*
X196187500Y-117212500D03*
X193912500Y-117212500D03*
X193912500Y-118162500D03*
X193912500Y-119112500D03*
%TD*%
D19*
%TO.C,TP7*%
X200800000Y-135000000D03*
%TD*%
D69*
%TO.C,L1*%
X57650000Y-141100000D03*
X68750000Y-141100000D03*
%TD*%
D62*
%TO.C,R42*%
X172200000Y-171312500D03*
X172200000Y-169487500D03*
%TD*%
D12*
%TO.C,J3*%
X89000000Y-100000000D03*
%TD*%
D63*
%TO.C,Q5*%
X194150000Y-166212500D03*
X192250000Y-166212500D03*
X193200000Y-168087500D03*
%TD*%
D23*
%TO.C,C45*%
X202100000Y-113625000D03*
X202100000Y-115175000D03*
%TD*%
D24*
%TO.C,J15*%
X151300000Y-115800000D03*
D25*
X148800000Y-115800000D03*
X146300000Y-115800000D03*
X143800000Y-115800000D03*
X141300000Y-115800000D03*
X138800000Y-115800000D03*
%TD*%
D11*
%TO.C,C16*%
X128232323Y-153100000D03*
D12*
X133232323Y-153100000D03*
%TD*%
D30*
%TO.C,R2*%
X187712500Y-139500000D03*
X185887500Y-139500000D03*
%TD*%
D70*
%TO.C,C51*%
X172375000Y-160550000D03*
X172375000Y-163500000D03*
%TD*%
D62*
%TO.C,R8*%
X71400000Y-172625000D03*
X71400000Y-170800000D03*
%TD*%
D29*
%TO.C,C22*%
X68425000Y-178300000D03*
X69975000Y-178300000D03*
%TD*%
D62*
%TO.C,R26*%
X196600000Y-111612500D03*
X196600000Y-109787500D03*
%TD*%
D39*
%TO.C,TH2*%
X116985000Y-108500000D03*
D40*
X116985000Y-106000000D03*
%TD*%
D71*
%TO.C,J1*%
X105200000Y-132100000D03*
D72*
X105200000Y-126100000D03*
%TD*%
D41*
%TO.C,F6*%
X167800000Y-171600000D03*
D42*
X167800000Y-176400000D03*
%TD*%
D34*
%TO.C,J23*%
X167750000Y-186550000D03*
D35*
X170250000Y-186550000D03*
%TD*%
D60*
%TO.C,RV2*%
X112285000Y-114415000D03*
D61*
X109785000Y-109415000D03*
X107285000Y-114415000D03*
%TD*%
D62*
%TO.C,R25*%
X160150000Y-116687500D03*
X160150000Y-114862500D03*
%TD*%
D73*
%TO.C,X1*%
X138350000Y-92200000D03*
X143230000Y-92200000D03*
%TD*%
D74*
%TO.C,D8*%
X110985000Y-96500000D03*
X110985000Y-98700000D03*
%TD*%
D75*
%TO.C,F3*%
X104800000Y-169700000D03*
D42*
X100000000Y-169700000D03*
%TD*%
D11*
%TO.C,C5*%
X175900000Y-125467677D03*
D12*
X175900000Y-120467677D03*
%TD*%
D10*
%TO.C,R7*%
X139400000Y-164200000D03*
X139400000Y-166025000D03*
%TD*%
D55*
%TO.C,R11*%
X59137500Y-166900000D03*
X62062500Y-166900000D03*
%TD*%
D41*
%TO.C,F5*%
X182600000Y-172000000D03*
D42*
X182600000Y-176800000D03*
%TD*%
D22*
%TO.C,H2*%
X183000000Y-93000000D03*
%TD*%
D74*
%TO.C,D10*%
X113785000Y-96500000D03*
X113785000Y-98700000D03*
%TD*%
D50*
%TO.C,D7*%
X150950000Y-184000000D03*
D51*
X153490000Y-184000000D03*
X156030000Y-184000000D03*
%TD*%
D19*
%TO.C,TP2*%
X202900000Y-117700000D03*
%TD*%
D76*
%TO.C,R23*%
X157087500Y-105200000D03*
X158912500Y-105200000D03*
%TD*%
D12*
%TO.C,J6*%
X165000000Y-93000000D03*
%TD*%
D77*
%TO.C,U3*%
X202500000Y-158825000D03*
X201550000Y-158825000D03*
X200600000Y-158825000D03*
X200600000Y-161100000D03*
X202500000Y-161100000D03*
%TD*%
D62*
%TO.C,R3*%
X199500000Y-143012500D03*
X199500000Y-141187500D03*
%TD*%
D22*
%TO.C,H5*%
X78000000Y-167000000D03*
%TD*%
D78*
%TO.C,U17*%
X182440000Y-150125000D03*
X179900000Y-150125000D03*
D79*
X179900000Y-159275000D03*
D78*
X177360000Y-150125000D03*
%TD*%
D16*
%TO.C,C48*%
X106735000Y-100375000D03*
X105185000Y-100375000D03*
%TD*%
D50*
%TO.C,D2*%
X80950000Y-184000000D03*
D51*
X83490000Y-184000000D03*
X86030000Y-184000000D03*
%TD*%
D37*
%TO.C,U2*%
X202100000Y-145500000D03*
D80*
X199560000Y-145500000D03*
X197020000Y-145500000D03*
X194480000Y-145500000D03*
X194480000Y-153120000D03*
X197020000Y-153120000D03*
X199560000Y-153120000D03*
X202100000Y-153120000D03*
%TD*%
D31*
%TO.C,Q6*%
X202005000Y-170825000D03*
X200735000Y-170825000D03*
X199465000Y-170825000D03*
X198195000Y-170825000D03*
X198195000Y-175775000D03*
X199465000Y-175775000D03*
X200735000Y-175775000D03*
X202005000Y-175775000D03*
%TD*%
D76*
%TO.C,R33*%
X196300000Y-132100000D03*
X198125000Y-132100000D03*
%TD*%
D22*
%TO.C,H4*%
X161000000Y-185000000D03*
%TD*%
D10*
%TO.C,R30*%
X183700000Y-113787500D03*
X183700000Y-115612500D03*
%TD*%
D11*
%TO.C,C11*%
X82300000Y-140832323D03*
D12*
X82300000Y-145832323D03*
%TD*%
D81*
%TO.C,Q2*%
X157687500Y-116825000D03*
X157687500Y-114925000D03*
X155812500Y-115875000D03*
%TD*%
D76*
%TO.C,R24*%
X157087500Y-107600000D03*
X158912500Y-107600000D03*
%TD*%
D82*
%TO.C,U1*%
X186695000Y-136175000D03*
X187965000Y-136175000D03*
X189235000Y-136175000D03*
X190505000Y-136175000D03*
X190505000Y-131225000D03*
X189235000Y-131225000D03*
X187965000Y-131225000D03*
X186695000Y-131225000D03*
%TD*%
D29*
%TO.C,C23*%
X142675000Y-96162500D03*
X144225000Y-96162500D03*
%TD*%
D19*
%TO.C,TP6*%
X111985000Y-92000000D03*
%TD*%
D83*
%TO.C,D1*%
X58600000Y-154305000D03*
D84*
X58600000Y-150495000D03*
%TD*%
D27*
%TO.C,R36*%
X182700000Y-168562500D03*
X182700000Y-165637500D03*
%TD*%
D81*
%TO.C,Q3*%
X101460000Y-96950000D03*
X101460000Y-95050000D03*
X99585000Y-96000000D03*
%TD*%
D19*
%TO.C,TP1*%
X196200000Y-121800000D03*
%TD*%
D85*
%TO.C,U11*%
X145650000Y-99012500D03*
X144850000Y-99012500D03*
X144050000Y-99012500D03*
X143250000Y-99012500D03*
X142450000Y-99012500D03*
X141650000Y-99012500D03*
X140850000Y-99012500D03*
X140050000Y-99012500D03*
D86*
X138600000Y-100462500D03*
X138600000Y-101262500D03*
X138600000Y-102062500D03*
X138600000Y-102862500D03*
X138600000Y-103662500D03*
X138600000Y-104462500D03*
X138600000Y-105262500D03*
X138600000Y-106062500D03*
D85*
X140050000Y-107512500D03*
X140850000Y-107512500D03*
X141650000Y-107512500D03*
X142450000Y-107512500D03*
X143250000Y-107512500D03*
X144050000Y-107512500D03*
X144850000Y-107512500D03*
X145650000Y-107512500D03*
D86*
X147100000Y-106062500D03*
X147100000Y-105262500D03*
X147100000Y-104462500D03*
X147100000Y-103662500D03*
X147100000Y-102862500D03*
X147100000Y-102062500D03*
X147100000Y-101262500D03*
X147100000Y-100462500D03*
%TD*%
D27*
%TO.C,R16*%
X128100000Y-173762500D03*
X128100000Y-170837500D03*
%TD*%
D87*
%TO.C,M1*%
X95110000Y-92750000D03*
D40*
X95110000Y-95250000D03*
%TD*%
D22*
%TO.C,H6*%
X117000000Y-167000000D03*
%TD*%
M02*
