%TF.GenerationSoftware,KiCad,Pcbnew,7.0.6-7.0.6~ubuntu22.04.1*%
%TF.CreationDate,2023-07-24T12:53:55+03:00*%
%TF.ProjectId,supply,73757070-6c79-42e6-9b69-6361645f7063,rev?*%
%TF.SameCoordinates,Original*%
%TF.FileFunction,Soldermask,Bot*%
%TF.FilePolarity,Negative*%
%FSLAX46Y46*%
G04 Gerber Fmt 4.6, Leading zero omitted, Abs format (unit mm)*
G04 Created by KiCad (PCBNEW 7.0.6-7.0.6~ubuntu22.04.1) date 2023-07-24 12:53:55*
%MOMM*%
%LPD*%
G01*
G04 APERTURE LIST*
G04 Aperture macros list*
%AMRoundRect*
0 Rectangle with rounded corners*
0 $1 Rounding radius*
0 $2 $3 $4 $5 $6 $7 $8 $9 X,Y pos of 4 corners*
0 Add a 4 corners polygon primitive as box body*
4,1,4,$2,$3,$4,$5,$6,$7,$8,$9,$2,$3,0*
0 Add four circle primitives for the rounded corners*
1,1,$1+$1,$2,$3*
1,1,$1+$1,$4,$5*
1,1,$1+$1,$6,$7*
1,1,$1+$1,$8,$9*
0 Add four rect primitives between the rounded corners*
20,1,$1+$1,$2,$3,$4,$5,0*
20,1,$1+$1,$4,$5,$6,$7,0*
20,1,$1+$1,$6,$7,$8,$9,0*
20,1,$1+$1,$8,$9,$2,$3,0*%
%AMFreePoly0*
4,1,14,0.385355,0.085355,0.400000,0.050000,0.400000,0.000711,0.385355,-0.034644,0.334644,-0.085355,0.299289,-0.100000,-0.350000,-0.100000,-0.385355,-0.085355,-0.400000,-0.050000,-0.400000,0.050000,-0.385355,0.085355,-0.350000,0.100000,0.350000,0.100000,0.385355,0.085355,0.385355,0.085355,$1*%
%AMFreePoly1*
4,1,14,0.334644,0.085355,0.385355,0.034644,0.400000,-0.000711,0.400000,-0.050000,0.385355,-0.085355,0.350000,-0.100000,-0.350000,-0.100000,-0.385355,-0.085355,-0.400000,-0.050000,-0.400000,0.050000,-0.385355,0.085355,-0.350000,0.100000,0.299289,0.100000,0.334644,0.085355,0.334644,0.085355,$1*%
%AMFreePoly2*
4,1,14,0.085355,0.385355,0.100000,0.350000,0.100000,-0.350000,0.085355,-0.385355,0.050000,-0.400000,0.000711,-0.400000,-0.034644,-0.385355,-0.085355,-0.334644,-0.100000,-0.299289,-0.100000,0.350000,-0.085355,0.385355,-0.050000,0.400000,0.050000,0.400000,0.085355,0.385355,0.085355,0.385355,$1*%
%AMFreePoly3*
4,1,14,0.085355,0.385355,0.100000,0.350000,0.100000,-0.299289,0.085355,-0.334644,0.034644,-0.385355,-0.000711,-0.400000,-0.050000,-0.400000,-0.085355,-0.385355,-0.100000,-0.350000,-0.100000,0.350000,-0.085355,0.385355,-0.050000,0.400000,0.050000,0.400000,0.085355,0.385355,0.085355,0.385355,$1*%
%AMFreePoly4*
4,1,14,0.385355,0.085355,0.400000,0.050000,0.400000,-0.050000,0.385355,-0.085355,0.350000,-0.100000,-0.350000,-0.100000,-0.385355,-0.085355,-0.400000,-0.050000,-0.400000,-0.000711,-0.385355,0.034644,-0.334644,0.085355,-0.299289,0.100000,0.350000,0.100000,0.385355,0.085355,0.385355,0.085355,$1*%
%AMFreePoly5*
4,1,14,0.385355,0.085355,0.400000,0.050000,0.400000,-0.050000,0.385355,-0.085355,0.350000,-0.100000,-0.299289,-0.100000,-0.334644,-0.085355,-0.385355,-0.034644,-0.400000,0.000711,-0.400000,0.050000,-0.385355,0.085355,-0.350000,0.100000,0.350000,0.100000,0.385355,0.085355,0.385355,0.085355,$1*%
%AMFreePoly6*
4,1,14,0.034644,0.385355,0.085355,0.334644,0.100000,0.299289,0.100000,-0.350000,0.085355,-0.385355,0.050000,-0.400000,-0.050000,-0.400000,-0.085355,-0.385355,-0.100000,-0.350000,-0.100000,0.350000,-0.085355,0.385355,-0.050000,0.400000,-0.000711,0.400000,0.034644,0.385355,0.034644,0.385355,$1*%
%AMFreePoly7*
4,1,14,0.085355,0.385355,0.100000,0.350000,0.100000,-0.350000,0.085355,-0.385355,0.050000,-0.400000,-0.050000,-0.400000,-0.085355,-0.385355,-0.100000,-0.350000,-0.100000,0.299289,-0.085355,0.334644,-0.034644,0.385355,0.000711,0.400000,0.050000,0.400000,0.085355,0.385355,0.085355,0.385355,$1*%
%AMFreePoly8*
4,1,9,3.862500,-0.866500,0.737500,-0.866500,0.737500,-0.450000,-0.737500,-0.450000,-0.737500,0.450000,0.737500,0.450000,0.737500,0.866500,3.862500,0.866500,3.862500,-0.866500,3.862500,-0.866500,$1*%
G04 Aperture macros list end*
%ADD10R,1.600000X1.600000*%
%ADD11O,1.600000X1.600000*%
%ADD12R,1.700000X1.700000*%
%ADD13O,1.700000X1.700000*%
%ADD14R,1.800000X1.800000*%
%ADD15C,1.800000*%
%ADD16C,2.200000*%
%ADD17R,1.560000X1.560000*%
%ADD18C,1.560000*%
%ADD19RoundRect,0.250002X1.699998X1.699998X-1.699998X1.699998X-1.699998X-1.699998X1.699998X-1.699998X0*%
%ADD20RoundRect,0.249999X-1.025001X1.025001X-1.025001X-1.025001X1.025001X-1.025001X1.025001X1.025001X0*%
%ADD21C,2.550000*%
%ADD22C,2.400000*%
%ADD23O,2.400000X2.400000*%
%ADD24RoundRect,0.250000X0.750000X-0.600000X0.750000X0.600000X-0.750000X0.600000X-0.750000X-0.600000X0*%
%ADD25O,2.000000X1.700000*%
%ADD26C,1.400000*%
%ADD27C,2.500000*%
%ADD28RoundRect,0.250000X-0.725000X0.600000X-0.725000X-0.600000X0.725000X-0.600000X0.725000X0.600000X0*%
%ADD29O,1.950000X1.700000*%
%ADD30R,2.400000X2.400000*%
%ADD31RoundRect,0.250000X-0.600000X-0.750000X0.600000X-0.750000X0.600000X0.750000X-0.600000X0.750000X0*%
%ADD32O,1.700000X2.000000*%
%ADD33C,2.000000*%
%ADD34RoundRect,0.250000X0.600000X0.725000X-0.600000X0.725000X-0.600000X-0.725000X0.600000X-0.725000X0*%
%ADD35O,1.700000X1.950000*%
%ADD36RoundRect,0.250000X-0.600000X-0.725000X0.600000X-0.725000X0.600000X0.725000X-0.600000X0.725000X0*%
%ADD37RoundRect,0.249999X-1.025001X-1.025001X1.025001X-1.025001X1.025001X1.025001X-1.025001X1.025001X0*%
%ADD38R,4.500000X2.500000*%
%ADD39O,4.500000X2.500000*%
%ADD40R,1.905000X2.000000*%
%ADD41O,1.905000X2.000000*%
%ADD42R,1.524000X1.524000*%
%ADD43C,1.524000*%
%ADD44C,3.500000*%
%ADD45RoundRect,0.249999X-1.300001X-1.300001X1.300001X-1.300001X1.300001X1.300001X-1.300001X1.300001X0*%
%ADD46C,3.100000*%
%ADD47RoundRect,0.250000X-0.750000X0.600000X-0.750000X-0.600000X0.750000X-0.600000X0.750000X0.600000X0*%
%ADD48RoundRect,0.250000X0.600000X0.750000X-0.600000X0.750000X-0.600000X-0.750000X0.600000X-0.750000X0*%
%ADD49RoundRect,0.249999X-1.300001X1.300001X-1.300001X-1.300001X1.300001X-1.300001X1.300001X1.300001X0*%
%ADD50C,1.600000*%
%ADD51R,2.500000X4.500000*%
%ADD52O,2.500000X4.500000*%
%ADD53RoundRect,0.249999X1.300001X1.300001X-1.300001X1.300001X-1.300001X-1.300001X1.300001X-1.300001X0*%
%ADD54C,3.000000*%
%ADD55C,1.500000*%
%ADD56R,3.200000X3.200000*%
%ADD57O,3.200000X3.200000*%
%ADD58RoundRect,0.225000X-0.225000X-0.250000X0.225000X-0.250000X0.225000X0.250000X-0.225000X0.250000X0*%
%ADD59RoundRect,0.150000X-0.587500X-0.150000X0.587500X-0.150000X0.587500X0.150000X-0.587500X0.150000X0*%
%ADD60RoundRect,0.250000X-1.000000X-0.650000X1.000000X-0.650000X1.000000X0.650000X-1.000000X0.650000X0*%
%ADD61RoundRect,0.225000X0.250000X-0.225000X0.250000X0.225000X-0.250000X0.225000X-0.250000X-0.225000X0*%
%ADD62RoundRect,0.250000X0.450000X-0.262500X0.450000X0.262500X-0.450000X0.262500X-0.450000X-0.262500X0*%
%ADD63RoundRect,0.250000X-0.450000X0.262500X-0.450000X-0.262500X0.450000X-0.262500X0.450000X0.262500X0*%
%ADD64RoundRect,0.150000X-0.512500X-0.150000X0.512500X-0.150000X0.512500X0.150000X-0.512500X0.150000X0*%
%ADD65RoundRect,0.250000X0.300000X-2.050000X0.300000X2.050000X-0.300000X2.050000X-0.300000X-2.050000X0*%
%ADD66RoundRect,0.250002X5.149998X-4.449998X5.149998X4.449998X-5.149998X4.449998X-5.149998X-4.449998X0*%
%ADD67RoundRect,0.250000X0.262500X0.450000X-0.262500X0.450000X-0.262500X-0.450000X0.262500X-0.450000X0*%
%ADD68RoundRect,0.150000X-0.150000X0.512500X-0.150000X-0.512500X0.150000X-0.512500X0.150000X0.512500X0*%
%ADD69RoundRect,0.250000X-0.650000X1.000000X-0.650000X-1.000000X0.650000X-1.000000X0.650000X1.000000X0*%
%ADD70FreePoly0,0.000000*%
%ADD71RoundRect,0.050000X-0.350000X-0.050000X0.350000X-0.050000X0.350000X0.050000X-0.350000X0.050000X0*%
%ADD72FreePoly1,0.000000*%
%ADD73FreePoly2,0.000000*%
%ADD74RoundRect,0.050000X-0.050000X-0.350000X0.050000X-0.350000X0.050000X0.350000X-0.050000X0.350000X0*%
%ADD75FreePoly3,0.000000*%
%ADD76FreePoly4,0.000000*%
%ADD77FreePoly5,0.000000*%
%ADD78FreePoly6,0.000000*%
%ADD79FreePoly7,0.000000*%
%ADD80RoundRect,0.250000X-0.262500X-0.450000X0.262500X-0.450000X0.262500X0.450000X-0.262500X0.450000X0*%
%ADD81RoundRect,0.250000X-1.100000X0.325000X-1.100000X-0.325000X1.100000X-0.325000X1.100000X0.325000X0*%
%ADD82RoundRect,0.250000X0.312500X0.625000X-0.312500X0.625000X-0.312500X-0.625000X0.312500X-0.625000X0*%
%ADD83RoundRect,0.250000X-1.000000X1.400000X-1.000000X-1.400000X1.000000X-1.400000X1.000000X1.400000X0*%
%ADD84RoundRect,0.150000X-0.650000X-0.150000X0.650000X-0.150000X0.650000X0.150000X-0.650000X0.150000X0*%
%ADD85RoundRect,0.225000X-0.250000X0.225000X-0.250000X-0.225000X0.250000X-0.225000X0.250000X0.225000X0*%
%ADD86RoundRect,0.225000X0.225000X0.250000X-0.225000X0.250000X-0.225000X-0.250000X0.225000X-0.250000X0*%
%ADD87R,0.900000X1.300000*%
%ADD88FreePoly8,90.000000*%
%ADD89RoundRect,0.250000X1.000000X0.650000X-1.000000X0.650000X-1.000000X-0.650000X1.000000X-0.650000X0*%
%ADD90RoundRect,0.150000X0.150000X-0.512500X0.150000X0.512500X-0.150000X0.512500X-0.150000X-0.512500X0*%
%ADD91RoundRect,0.125000X0.125000X0.125000X-0.125000X0.125000X-0.125000X-0.125000X0.125000X-0.125000X0*%
%ADD92RoundRect,0.150000X-0.150000X0.675000X-0.150000X-0.675000X0.150000X-0.675000X0.150000X0.675000X0*%
%ADD93RoundRect,0.250000X-0.362500X-1.425000X0.362500X-1.425000X0.362500X1.425000X-0.362500X1.425000X0*%
%ADD94RoundRect,0.250000X-0.325000X-1.100000X0.325000X-1.100000X0.325000X1.100000X-0.325000X1.100000X0*%
%ADD95RoundRect,0.162500X-0.825000X-0.162500X0.825000X-0.162500X0.825000X0.162500X-0.825000X0.162500X0*%
%ADD96RoundRect,0.125000X-0.125000X0.125000X-0.125000X-0.125000X0.125000X-0.125000X0.125000X0.125000X0*%
%ADD97RoundRect,0.250000X1.100000X-0.325000X1.100000X0.325000X-1.100000X0.325000X-1.100000X-0.325000X0*%
%ADD98RoundRect,0.150000X0.650000X0.150000X-0.650000X0.150000X-0.650000X-0.150000X0.650000X-0.150000X0*%
G04 APERTURE END LIST*
D10*
%TO.C,U21*%
X165200000Y-74725000D03*
D11*
X165200000Y-77265000D03*
X172820000Y-77265000D03*
X172820000Y-74725000D03*
%TD*%
D12*
%TO.C,J13*%
X113175000Y-145080000D03*
D13*
X115715000Y-145080000D03*
X113175000Y-147620000D03*
X115715000Y-147620000D03*
X113175000Y-150160000D03*
X115715000Y-150160000D03*
X113175000Y-152700000D03*
X115715000Y-152700000D03*
X113175000Y-155240000D03*
X115715000Y-155240000D03*
%TD*%
D14*
%TO.C,D9*%
X111800000Y-232250000D03*
D15*
X109260000Y-232250000D03*
X106720000Y-232250000D03*
%TD*%
D16*
%TO.C,H1*%
X184800000Y-225000000D03*
%TD*%
D17*
%TO.C,RV4*%
X108500000Y-128260000D03*
D18*
X111000000Y-133260000D03*
X113500000Y-128260000D03*
%TD*%
D19*
%TO.C,J4*%
X165100000Y-164750000D03*
%TD*%
D20*
%TO.C,F3*%
X109500000Y-218100000D03*
D21*
X109500000Y-222900000D03*
%TD*%
D12*
%TO.C,J14*%
X91525000Y-106075000D03*
D13*
X88985000Y-106075000D03*
X91525000Y-103535000D03*
X88985000Y-103535000D03*
X91525000Y-100995000D03*
X88985000Y-100995000D03*
X91525000Y-98455000D03*
X88985000Y-98455000D03*
X91525000Y-95915000D03*
X88985000Y-95915000D03*
%TD*%
D12*
%TO.C,J19*%
X186350000Y-230575000D03*
D13*
X186350000Y-233115000D03*
X188890000Y-230575000D03*
X188890000Y-233115000D03*
X191430000Y-230575000D03*
X191430000Y-233115000D03*
X193970000Y-230575000D03*
X193970000Y-233115000D03*
%TD*%
D22*
%TO.C,R61*%
X141000000Y-143360000D03*
D23*
X141000000Y-148440000D03*
%TD*%
D24*
%TO.C,D28*%
X89750000Y-66750000D03*
D25*
X89750000Y-64250000D03*
%TD*%
D16*
%TO.C,C23*%
X188925200Y-160357200D03*
X188925200Y-145357200D03*
%TD*%
D26*
%TO.C,JP6*%
X91500000Y-110750000D03*
X88960000Y-110750000D03*
%TD*%
D27*
%TO.C,TR3*%
X127600000Y-185000000D03*
X127600000Y-164680000D03*
X132680000Y-185000000D03*
X132680000Y-164680000D03*
X137760000Y-185000000D03*
X137760000Y-164680000D03*
X142840000Y-185000000D03*
X142840000Y-164680000D03*
X147920000Y-185000000D03*
X147920000Y-164680000D03*
X153000000Y-185000000D03*
X153000000Y-164680000D03*
X158080000Y-185000000D03*
X158080000Y-164680000D03*
%TD*%
D28*
%TO.C,J15*%
X122025000Y-143000000D03*
D29*
X122025000Y-145500000D03*
X122025000Y-148000000D03*
X122025000Y-150500000D03*
X122025000Y-153000000D03*
X122025000Y-155500000D03*
%TD*%
D14*
%TO.C,D18*%
X149725000Y-218350000D03*
D15*
X152265000Y-218350000D03*
%TD*%
D30*
%TO.C,C26*%
X124400000Y-194950000D03*
D22*
X116900000Y-194950000D03*
%TD*%
D31*
%TO.C,J21*%
X169500000Y-232550000D03*
D32*
X172000000Y-232550000D03*
%TD*%
D16*
%TO.C,H6*%
X104200000Y-217600000D03*
%TD*%
%TO.C,H5*%
X145000000Y-219100000D03*
%TD*%
D33*
%TO.C,C51*%
X135000000Y-154250000D03*
X130000000Y-154250000D03*
%TD*%
D34*
%TO.C,J9*%
X100175000Y-162000000D03*
D35*
X97675000Y-162000000D03*
X95175000Y-162000000D03*
X92675000Y-162000000D03*
%TD*%
D36*
%TO.C,J11*%
X92075000Y-138800000D03*
D35*
X94575000Y-138800000D03*
X97075000Y-138800000D03*
X99575000Y-138800000D03*
%TD*%
D37*
%TO.C,F7*%
X168100000Y-224500000D03*
D21*
X172900000Y-224500000D03*
%TD*%
D16*
%TO.C,C25*%
X189992000Y-179305600D03*
X189992000Y-164305600D03*
%TD*%
D38*
%TO.C,D27*%
X114600000Y-94500000D03*
D39*
X114600000Y-89050000D03*
X114600000Y-83600000D03*
%TD*%
D40*
%TO.C,QP2*%
X153475000Y-147995000D03*
D41*
X156015000Y-147995000D03*
X158555000Y-147995000D03*
%TD*%
D22*
%TO.C,R22*%
X182270400Y-178765200D03*
D23*
X182270400Y-183845200D03*
%TD*%
D14*
%TO.C,D14*%
X138250000Y-232250000D03*
D15*
X135710000Y-232250000D03*
X133170000Y-232250000D03*
%TD*%
D37*
%TO.C,F6*%
X168100000Y-219500000D03*
D21*
X172900000Y-219500000D03*
%TD*%
D42*
%TO.C,J7*%
X119000000Y-227272500D03*
D43*
X121500000Y-227272500D03*
X123500000Y-227272500D03*
X126000000Y-227272500D03*
D44*
X115250000Y-229982500D03*
X129750000Y-229982500D03*
%TD*%
D45*
%TO.C,J2*%
X183750000Y-65250000D03*
D46*
X189750000Y-65250000D03*
%TD*%
D20*
%TO.C,F4*%
X136000000Y-218600000D03*
D21*
X136000000Y-223400000D03*
%TD*%
D24*
%TO.C,M1*%
X108975000Y-121000000D03*
D25*
X108975000Y-118500000D03*
%TD*%
D40*
%TO.C,QP3*%
X171075000Y-148000000D03*
D41*
X173615000Y-148000000D03*
X176155000Y-148000000D03*
%TD*%
D47*
%TO.C,TH1*%
X119025000Y-129100000D03*
D25*
X119025000Y-131600000D03*
%TD*%
D33*
%TO.C,C16*%
X174599600Y-181203600D03*
X174599600Y-186203600D03*
%TD*%
D47*
%TO.C,TH2*%
X93500000Y-129250000D03*
D25*
X93500000Y-131750000D03*
%TD*%
D33*
%TO.C,C50*%
X144250000Y-154250000D03*
X139250000Y-154250000D03*
%TD*%
D22*
%TO.C,C56*%
X189800000Y-132350000D03*
X189800000Y-109850000D03*
%TD*%
D14*
%TO.C,D17*%
X164800000Y-232250000D03*
D15*
X162260000Y-232250000D03*
X159720000Y-232250000D03*
%TD*%
D17*
%TO.C,RV5*%
X98425000Y-128260000D03*
D18*
X100925000Y-133260000D03*
X103425000Y-128260000D03*
%TD*%
D40*
%TO.C,Q5*%
X176960000Y-166695000D03*
D41*
X179500000Y-166695000D03*
X182040000Y-166695000D03*
%TD*%
D20*
%TO.C,F2*%
X90000000Y-211000000D03*
D21*
X90000000Y-215800000D03*
%TD*%
D48*
%TO.C,SW3*%
X109000000Y-162000000D03*
D32*
X106500000Y-162000000D03*
%TD*%
D49*
%TO.C,J18*%
X154300000Y-68526400D03*
D46*
X154300000Y-74526400D03*
%TD*%
D42*
%TO.C,J6*%
X92500000Y-227272500D03*
D43*
X95000000Y-227272500D03*
X97000000Y-227272500D03*
X99500000Y-227272500D03*
D44*
X88750000Y-229982500D03*
X103250000Y-229982500D03*
%TD*%
D10*
%TO.C,C22*%
X106475000Y-196200000D03*
D50*
X102975000Y-196200000D03*
%TD*%
D42*
%TO.C,J8*%
X145500000Y-227272500D03*
D43*
X148000000Y-227272500D03*
X150000000Y-227272500D03*
X152500000Y-227272500D03*
D44*
X141750000Y-229982500D03*
X156250000Y-229982500D03*
%TD*%
D16*
%TO.C,H4*%
X109400000Y-201600000D03*
%TD*%
D31*
%TO.C,J20*%
X178750000Y-232550000D03*
D32*
X181250000Y-232550000D03*
%TD*%
D51*
%TO.C,D10*%
X162250000Y-198770000D03*
D52*
X167700000Y-198770000D03*
X173150000Y-198770000D03*
%TD*%
D33*
%TO.C,C14*%
X164672000Y-181152800D03*
X169672000Y-181152800D03*
%TD*%
D16*
%TO.C,H3*%
X89750000Y-90500000D03*
%TD*%
D30*
%TO.C,C57*%
X136200000Y-68222220D03*
D22*
X136200000Y-75722220D03*
%TD*%
D53*
%TO.C,J17*%
X121000000Y-205750000D03*
D46*
X115000000Y-205750000D03*
%TD*%
D31*
%TO.C,D19*%
X105875000Y-139000000D03*
D32*
X108375000Y-139000000D03*
%TD*%
D40*
%TO.C,Q4*%
X173960000Y-173695000D03*
D41*
X176500000Y-173695000D03*
X179040000Y-173695000D03*
%TD*%
D54*
%TO.C,TP3*%
X91275000Y-121200000D03*
%TD*%
D22*
%TO.C,C55*%
X189800000Y-104918000D03*
X189800000Y-82418000D03*
%TD*%
D55*
%TO.C,X1*%
X91375000Y-152450000D03*
X91375000Y-147570000D03*
%TD*%
D16*
%TO.C,H7*%
X129700000Y-222500000D03*
%TD*%
%TO.C,H2*%
X163000000Y-64600000D03*
%TD*%
D27*
%TO.C,TR4*%
X174920000Y-134360000D03*
X134280000Y-134360000D03*
X174920000Y-129280000D03*
X134280000Y-129280000D03*
X174920000Y-124200000D03*
X134280000Y-124200000D03*
X174920000Y-119120000D03*
X134280000Y-119120000D03*
X174920000Y-114040000D03*
X134280000Y-114040000D03*
X174920000Y-108960000D03*
X134280000Y-108960000D03*
X174920000Y-103880000D03*
X134280000Y-103880000D03*
X174920000Y-98800000D03*
X134280000Y-98800000D03*
X174920000Y-93720000D03*
X134280000Y-93720000D03*
X174920000Y-88640000D03*
X134280000Y-88640000D03*
%TD*%
D56*
%TO.C,D8*%
X111050000Y-185755000D03*
D57*
X111050000Y-181945000D03*
%TD*%
D58*
%TO.C,C35*%
X95075000Y-159400000D03*
X96625000Y-159400000D03*
%TD*%
D59*
%TO.C,Q8*%
X117062500Y-123950000D03*
X117062500Y-122050000D03*
X118937500Y-123000000D03*
%TD*%
D60*
%TO.C,D31*%
X168500000Y-228750000D03*
X172500000Y-228750000D03*
%TD*%
D61*
%TO.C,C32*%
X106000000Y-151275000D03*
X106000000Y-149725000D03*
%TD*%
D60*
%TO.C,D32*%
X177500000Y-229000000D03*
X181500000Y-229000000D03*
%TD*%
D58*
%TO.C,C28*%
X121225000Y-187750000D03*
X122775000Y-187750000D03*
%TD*%
%TO.C,C34*%
X93975000Y-164250000D03*
X95525000Y-164250000D03*
%TD*%
D62*
%TO.C,R36*%
X135750000Y-229412500D03*
X135750000Y-227587500D03*
%TD*%
D63*
%TO.C,R35*%
X141500000Y-194087500D03*
X141500000Y-195912500D03*
%TD*%
%TO.C,R63*%
X153500000Y-131337500D03*
X153500000Y-133162500D03*
%TD*%
D64*
%TO.C,U24*%
X146662500Y-73150000D03*
X146662500Y-72200000D03*
X146662500Y-71250000D03*
X148937500Y-71250000D03*
X148937500Y-73150000D03*
%TD*%
D62*
%TO.C,R20*%
X131200000Y-182412500D03*
X131200000Y-180587500D03*
%TD*%
D65*
%TO.C,U16*%
X189790000Y-211525000D03*
X187250000Y-211525000D03*
D66*
X187250000Y-202375000D03*
D65*
X184710000Y-211525000D03*
%TD*%
D63*
%TO.C,R62*%
X155000000Y-117387500D03*
X155000000Y-119212500D03*
%TD*%
D67*
%TO.C,R46*%
X103887500Y-147800000D03*
X102062500Y-147800000D03*
%TD*%
D68*
%TO.C,U14*%
X146050000Y-190362500D03*
X147950000Y-190362500D03*
X147000000Y-192637500D03*
%TD*%
D69*
%TO.C,D30*%
X190250000Y-223000000D03*
X190250000Y-227000000D03*
%TD*%
D62*
%TO.C,R53*%
X116500000Y-133912500D03*
X116500000Y-132087500D03*
%TD*%
D70*
%TO.C,U18*%
X105050000Y-103800000D03*
D71*
X105050000Y-103400000D03*
X105050000Y-103000000D03*
X105050000Y-102600000D03*
D72*
X105050000Y-102200000D03*
D73*
X105700000Y-101550000D03*
D74*
X106100000Y-101550000D03*
X106500000Y-101550000D03*
X106900000Y-101550000D03*
D75*
X107300000Y-101550000D03*
D76*
X107950000Y-102200000D03*
D71*
X107950000Y-102600000D03*
X107950000Y-103000000D03*
X107950000Y-103400000D03*
D77*
X107950000Y-103800000D03*
D78*
X107300000Y-104450000D03*
D74*
X106900000Y-104450000D03*
X106500000Y-104450000D03*
X106100000Y-104450000D03*
D79*
X105700000Y-104450000D03*
D12*
X106500000Y-103000000D03*
%TD*%
D61*
%TO.C,C12*%
X106200000Y-189375000D03*
X106200000Y-187825000D03*
%TD*%
D67*
%TO.C,R69*%
X107575000Y-69000000D03*
X105750000Y-69000000D03*
%TD*%
D80*
%TO.C,R24*%
X92787500Y-196000000D03*
X94612500Y-196000000D03*
%TD*%
D59*
%TO.C,Q6*%
X101800000Y-140000000D03*
X101800000Y-138100000D03*
X103675000Y-139050000D03*
%TD*%
D81*
%TO.C,C31*%
X174000000Y-214025000D03*
X174000000Y-216975000D03*
%TD*%
D82*
%TO.C,R76*%
X163262500Y-225500000D03*
X160337500Y-225500000D03*
%TD*%
D80*
%TO.C,R40*%
X150087500Y-224250000D03*
X151912500Y-224250000D03*
%TD*%
D83*
%TO.C,D16*%
X114200000Y-200400000D03*
X121000000Y-200400000D03*
%TD*%
D84*
%TO.C,U11*%
X92150000Y-234155000D03*
X92150000Y-232885000D03*
X92150000Y-231615000D03*
X92150000Y-230345000D03*
X99350000Y-230345000D03*
X99350000Y-231615000D03*
X99350000Y-232885000D03*
X99350000Y-234155000D03*
%TD*%
D85*
%TO.C,C40*%
X102750000Y-107225000D03*
X102750000Y-108775000D03*
%TD*%
D63*
%TO.C,R47*%
X105000000Y-107087500D03*
X105000000Y-108912500D03*
%TD*%
%TO.C,R71*%
X142800000Y-71587500D03*
X142800000Y-73412500D03*
%TD*%
D62*
%TO.C,R54*%
X91100000Y-133862500D03*
X91100000Y-132037500D03*
%TD*%
D80*
%TO.C,R60*%
X160087500Y-73000000D03*
X161912500Y-73000000D03*
%TD*%
D61*
%TO.C,C29*%
X143900000Y-195675000D03*
X143900000Y-194125000D03*
%TD*%
D86*
%TO.C,C59*%
X109025000Y-72500000D03*
X107475000Y-72500000D03*
%TD*%
D61*
%TO.C,C47*%
X113000000Y-133775000D03*
X113000000Y-132225000D03*
%TD*%
D85*
%TO.C,C15*%
X148800000Y-173306206D03*
X148800000Y-174856206D03*
%TD*%
D58*
%TO.C,C37*%
X105600000Y-147800000D03*
X107150000Y-147800000D03*
%TD*%
D59*
%TO.C,Q9*%
X108312500Y-114150000D03*
X108312500Y-112250000D03*
X110187500Y-113200000D03*
%TD*%
D62*
%TO.C,R31*%
X109250000Y-229412500D03*
X109250000Y-227587500D03*
%TD*%
D82*
%TO.C,R75*%
X163262500Y-219700000D03*
X160337500Y-219700000D03*
%TD*%
D87*
%TO.C,U9*%
X101500000Y-224450000D03*
D88*
X100000000Y-224362500D03*
D87*
X98500000Y-224450000D03*
%TD*%
D89*
%TO.C,D13*%
X124750000Y-221500000D03*
X120750000Y-221500000D03*
%TD*%
D59*
%TO.C,Q7*%
X115562500Y-141950000D03*
X115562500Y-140050000D03*
X117437500Y-141000000D03*
%TD*%
D84*
%TO.C,U15*%
X145650000Y-233905000D03*
X145650000Y-232635000D03*
X145650000Y-231365000D03*
X145650000Y-230095000D03*
X152850000Y-230095000D03*
X152850000Y-231365000D03*
X152850000Y-232635000D03*
X152850000Y-233905000D03*
%TD*%
D63*
%TO.C,R72*%
X176200000Y-223287500D03*
X176200000Y-225112500D03*
%TD*%
D90*
%TO.C,U23*%
X107537500Y-77000000D03*
X106587500Y-77000000D03*
X105637500Y-77000000D03*
X105637500Y-74725000D03*
X107537500Y-74725000D03*
%TD*%
D67*
%TO.C,R41*%
X161862500Y-228900000D03*
X160037500Y-228900000D03*
%TD*%
D58*
%TO.C,C52*%
X158225000Y-114500000D03*
X159775000Y-114500000D03*
%TD*%
D91*
%TO.C,D20*%
X123100000Y-123000000D03*
X120900000Y-123000000D03*
%TD*%
D80*
%TO.C,R28*%
X159337500Y-170900000D03*
X161162500Y-170900000D03*
%TD*%
D84*
%TO.C,U13*%
X118900000Y-234155000D03*
X118900000Y-232885000D03*
X118900000Y-231615000D03*
X118900000Y-230345000D03*
X126100000Y-230345000D03*
X126100000Y-231615000D03*
X126100000Y-232885000D03*
X126100000Y-234155000D03*
%TD*%
D80*
%TO.C,R27*%
X159337500Y-173500000D03*
X161162500Y-173500000D03*
%TD*%
D92*
%TO.C,U8*%
X100195000Y-185575000D03*
X101465000Y-185575000D03*
X102735000Y-185575000D03*
X104005000Y-185575000D03*
X104005000Y-190825000D03*
X102735000Y-190825000D03*
X101465000Y-190825000D03*
X100195000Y-190825000D03*
%TD*%
D93*
%TO.C,R70*%
X144737500Y-68000000D03*
X150662500Y-68000000D03*
%TD*%
D86*
%TO.C,C43*%
X93950000Y-136800000D03*
X92400000Y-136800000D03*
%TD*%
D94*
%TO.C,C27*%
X120525000Y-184750000D03*
X123475000Y-184750000D03*
%TD*%
D67*
%TO.C,R19*%
X128812500Y-180500000D03*
X126987500Y-180500000D03*
%TD*%
%TO.C,R44*%
X116662500Y-226750000D03*
X114837500Y-226750000D03*
%TD*%
D80*
%TO.C,R33*%
X124087500Y-224500000D03*
X125912500Y-224500000D03*
%TD*%
D95*
%TO.C,U10*%
X151512500Y-174805000D03*
X151512500Y-173535000D03*
X151512500Y-172265000D03*
X151512500Y-170995000D03*
X156587500Y-170995000D03*
X156587500Y-172265000D03*
X156587500Y-173535000D03*
X156587500Y-174805000D03*
%TD*%
D58*
%TO.C,C36*%
X98700000Y-164000000D03*
X100250000Y-164000000D03*
%TD*%
D62*
%TO.C,R58*%
X123250000Y-126912500D03*
X123250000Y-125087500D03*
%TD*%
D96*
%TO.C,D23*%
X103250000Y-116650000D03*
X103250000Y-118850000D03*
%TD*%
D10*
%TO.C,U7*%
X137275000Y-180550000D03*
D11*
X134735000Y-180550000D03*
X134735000Y-172930000D03*
X137275000Y-172930000D03*
%TD*%
D62*
%TO.C,R68*%
X121500000Y-77412500D03*
X121500000Y-75587500D03*
%TD*%
D61*
%TO.C,C45*%
X121000000Y-134025000D03*
X121000000Y-132475000D03*
%TD*%
D85*
%TO.C,C18*%
X96500000Y-222975000D03*
X96500000Y-224525000D03*
%TD*%
D61*
%TO.C,C48*%
X103000000Y-133775000D03*
X103000000Y-132225000D03*
%TD*%
D62*
%TO.C,R65*%
X116587500Y-75525000D03*
X116587500Y-73700000D03*
%TD*%
D80*
%TO.C,R56*%
X117337500Y-119750000D03*
X119162500Y-119750000D03*
%TD*%
D63*
%TO.C,R66*%
X113587500Y-75450000D03*
X113587500Y-77275000D03*
%TD*%
D60*
%TO.C,D11*%
X88750000Y-220000000D03*
X92750000Y-220000000D03*
%TD*%
D61*
%TO.C,C46*%
X95500000Y-133750000D03*
X95500000Y-132200000D03*
%TD*%
D85*
%TO.C,C54*%
X165325000Y-118775000D03*
X165325000Y-120325000D03*
%TD*%
D63*
%TO.C,R42*%
X149600000Y-214487500D03*
X149600000Y-216312500D03*
%TD*%
D80*
%TO.C,R48*%
X102087500Y-142250000D03*
X103912500Y-142250000D03*
%TD*%
D91*
%TO.C,D21*%
X123100000Y-116500000D03*
X120900000Y-116500000D03*
%TD*%
D89*
%TO.C,D26*%
X162000000Y-123500000D03*
X158000000Y-123500000D03*
%TD*%
D62*
%TO.C,R51*%
X113137500Y-141962500D03*
X113137500Y-140137500D03*
%TD*%
D60*
%TO.C,D15*%
X139600000Y-223800000D03*
X143600000Y-223800000D03*
%TD*%
D62*
%TO.C,R55*%
X114000000Y-122912500D03*
X114000000Y-121087500D03*
%TD*%
D86*
%TO.C,C42*%
X98750000Y-141400000D03*
X97200000Y-141400000D03*
%TD*%
D82*
%TO.C,RV3*%
X119425000Y-209750000D03*
X116500000Y-209750000D03*
%TD*%
D85*
%TO.C,C21*%
X157750000Y-176975000D03*
X157750000Y-178525000D03*
%TD*%
D58*
%TO.C,C53*%
X153625000Y-115700000D03*
X155175000Y-115700000D03*
%TD*%
D69*
%TO.C,D29*%
X194000000Y-223000000D03*
X194000000Y-227000000D03*
%TD*%
D58*
%TO.C,C61*%
X106725000Y-80000000D03*
X108275000Y-80000000D03*
%TD*%
D80*
%TO.C,R34*%
X142187500Y-190500000D03*
X144012500Y-190500000D03*
%TD*%
D63*
%TO.C,R59*%
X103250000Y-112337500D03*
X103250000Y-114162500D03*
%TD*%
D91*
%TO.C,D24*%
X99850000Y-114500000D03*
X97650000Y-114500000D03*
%TD*%
D89*
%TO.C,D7*%
X154500000Y-177750000D03*
X150500000Y-177750000D03*
%TD*%
D85*
%TO.C,C20*%
X103500000Y-222975000D03*
X103500000Y-224525000D03*
%TD*%
D61*
%TO.C,C33*%
X101500000Y-101525000D03*
X101500000Y-99975000D03*
%TD*%
D63*
%TO.C,R50*%
X96500000Y-145837500D03*
X96500000Y-147662500D03*
%TD*%
D95*
%TO.C,U22*%
X157462500Y-120405000D03*
X157462500Y-119135000D03*
X157462500Y-117865000D03*
X157462500Y-116595000D03*
X162537500Y-116595000D03*
X162537500Y-117865000D03*
X162537500Y-119135000D03*
X162537500Y-120405000D03*
%TD*%
D97*
%TO.C,C58*%
X110587500Y-77587500D03*
X110587500Y-74637500D03*
%TD*%
D67*
%TO.C,R45*%
X143162500Y-226750000D03*
X141337500Y-226750000D03*
%TD*%
D63*
%TO.C,R64*%
X167386000Y-129387500D03*
X167386000Y-131212500D03*
%TD*%
D62*
%TO.C,R23*%
X141750000Y-172412500D03*
X141750000Y-170587500D03*
%TD*%
D59*
%TO.C,Q12*%
X178462500Y-221050000D03*
X178462500Y-219150000D03*
X180337500Y-220100000D03*
%TD*%
D86*
%TO.C,C44*%
X94150000Y-141400000D03*
X92600000Y-141400000D03*
%TD*%
D67*
%TO.C,R43*%
X90162500Y-225750000D03*
X88337500Y-225750000D03*
%TD*%
D86*
%TO.C,C41*%
X105275000Y-99500000D03*
X103725000Y-99500000D03*
%TD*%
D59*
%TO.C,Q11*%
X178662500Y-225150000D03*
X178662500Y-223250000D03*
X180537500Y-224200000D03*
%TD*%
D86*
%TO.C,C13*%
X104375000Y-182600000D03*
X102825000Y-182600000D03*
%TD*%
%TO.C,C60*%
X118275000Y-78750000D03*
X116725000Y-78750000D03*
%TD*%
D80*
%TO.C,R57*%
X117337500Y-116250000D03*
X119162500Y-116250000D03*
%TD*%
D98*
%TO.C,U20*%
X106575000Y-121295000D03*
X106575000Y-122565000D03*
X106575000Y-123835000D03*
X106575000Y-125105000D03*
X99375000Y-125105000D03*
X99375000Y-123835000D03*
X99375000Y-122565000D03*
X99375000Y-121295000D03*
%TD*%
D96*
%TO.C,D25*%
X100750000Y-116650000D03*
X100750000Y-118850000D03*
%TD*%
D91*
%TO.C,D22*%
X123100000Y-119750000D03*
X120900000Y-119750000D03*
%TD*%
D63*
%TO.C,R52*%
X98750000Y-145837500D03*
X98750000Y-147662500D03*
%TD*%
D85*
%TO.C,C49*%
X105750000Y-112475000D03*
X105750000Y-114025000D03*
%TD*%
%TO.C,C17*%
X145000000Y-171116206D03*
X145000000Y-172666206D03*
%TD*%
D97*
%TO.C,C30*%
X174100000Y-211475000D03*
X174100000Y-208525000D03*
%TD*%
D62*
%TO.C,R67*%
X121500000Y-70912500D03*
X121500000Y-69087500D03*
%TD*%
M02*
