%TF.GenerationSoftware,KiCad,Pcbnew,8.0.3-8.0.3-0~ubuntu22.04.1*%
%TF.CreationDate,2024-07-10T15:47:10+03:00*%
%TF.ProjectId,supply,73757070-6c79-42e6-9b69-6361645f7063,rev?*%
%TF.SameCoordinates,Original*%
%TF.FileFunction,Drillmap*%
%TF.FilePolarity,Positive*%
%FSLAX45Y45*%
G04 Gerber Fmt 4.5, Leading zero omitted, Abs format (unit mm)*
G04 Created by KiCad (PCBNEW 8.0.3-8.0.3-0~ubuntu22.04.1) date 2024-07-10 15:47:10*
%MOMM*%
%LPD*%
G01*
G04 APERTURE LIST*
%ADD10C,0.100000*%
%ADD11C,0.120000*%
%ADD12C,0.200000*%
%ADD13C,0.220000*%
G04 APERTURE END LIST*
D10*
X20500000Y-8900000D02*
X20500000Y-18900000D01*
X5500000Y-8900000D02*
X20500000Y-8900000D01*
X5500000Y-18900000D02*
X5500000Y-8900000D01*
X20500000Y-18900000D02*
X5500000Y-18900000D01*
D11*
X19860000Y-9200000D02*
G75*
G02*
X19640000Y-9200000I-110000J0D01*
G01*
X19640000Y-9200000D02*
G75*
G02*
X19860000Y-9200000I110000J0D01*
G01*
X20360000Y-9200000D02*
G75*
G02*
X20140000Y-9200000I-110000J0D01*
G01*
X20140000Y-9200000D02*
G75*
G02*
X20360000Y-9200000I110000J0D01*
G01*
X13210000Y-11250000D02*
G75*
G02*
X12990000Y-11250000I-110000J0D01*
G01*
X12990000Y-11250000D02*
G75*
G02*
X13210000Y-11250000I110000J0D01*
G01*
X13210000Y-11750000D02*
G75*
G02*
X12990000Y-11750000I-110000J0D01*
G01*
X12990000Y-11750000D02*
G75*
G02*
X13210000Y-11750000I110000J0D01*
G01*
X8910000Y-9750000D02*
G75*
G02*
X8690000Y-9750000I-110000J0D01*
G01*
X8690000Y-9750000D02*
G75*
G02*
X8910000Y-9750000I110000J0D01*
G01*
X8910000Y-10250000D02*
G75*
G02*
X8690000Y-10250000I-110000J0D01*
G01*
X8690000Y-10250000D02*
G75*
G02*
X8910000Y-10250000I110000J0D01*
G01*
X16360000Y-9200000D02*
G75*
G02*
X16140000Y-9200000I-110000J0D01*
G01*
X16140000Y-9200000D02*
G75*
G02*
X16360000Y-9200000I110000J0D01*
G01*
X16860000Y-9200000D02*
G75*
G02*
X16640000Y-9200000I-110000J0D01*
G01*
X16640000Y-9200000D02*
G75*
G02*
X16860000Y-9200000I110000J0D01*
G01*
D12*
D13*
X5990000Y-9390000D02*
X6210000Y-9610000D01*
X6210000Y-9390000D02*
X5990000Y-9610000D01*
X7690000Y-16590000D02*
X7910000Y-16810000D01*
X7910000Y-16590000D02*
X7690000Y-16810000D01*
X11590000Y-16590000D02*
X11810000Y-16810000D01*
X11810000Y-16590000D02*
X11590000Y-16810000D01*
X11990000Y-12090000D02*
X12210000Y-12310000D01*
X12210000Y-12090000D02*
X11990000Y-12310000D01*
X15990000Y-18390000D02*
X16210000Y-18610000D01*
X16210000Y-18390000D02*
X15990000Y-18610000D01*
X18190000Y-9190000D02*
X18410000Y-9410000D01*
X18410000Y-9190000D02*
X18190000Y-9410000D01*
D12*
X5755777Y-19216484D02*
X5755777Y-19016484D01*
X5755777Y-19016484D02*
X5803396Y-19016484D01*
X5803396Y-19016484D02*
X5831967Y-19026008D01*
X5831967Y-19026008D02*
X5851015Y-19045055D01*
X5851015Y-19045055D02*
X5860539Y-19064103D01*
X5860539Y-19064103D02*
X5870062Y-19102198D01*
X5870062Y-19102198D02*
X5870062Y-19130770D01*
X5870062Y-19130770D02*
X5860539Y-19168865D01*
X5860539Y-19168865D02*
X5851015Y-19187912D01*
X5851015Y-19187912D02*
X5831967Y-19206960D01*
X5831967Y-19206960D02*
X5803396Y-19216484D01*
X5803396Y-19216484D02*
X5755777Y-19216484D01*
X5955777Y-19216484D02*
X5955777Y-19083150D01*
X5955777Y-19121246D02*
X5965301Y-19102198D01*
X5965301Y-19102198D02*
X5974824Y-19092674D01*
X5974824Y-19092674D02*
X5993872Y-19083150D01*
X5993872Y-19083150D02*
X6012920Y-19083150D01*
X6079586Y-19216484D02*
X6079586Y-19083150D01*
X6079586Y-19016484D02*
X6070062Y-19026008D01*
X6070062Y-19026008D02*
X6079586Y-19035531D01*
X6079586Y-19035531D02*
X6089110Y-19026008D01*
X6089110Y-19026008D02*
X6079586Y-19016484D01*
X6079586Y-19016484D02*
X6079586Y-19035531D01*
X6203396Y-19216484D02*
X6184348Y-19206960D01*
X6184348Y-19206960D02*
X6174824Y-19187912D01*
X6174824Y-19187912D02*
X6174824Y-19016484D01*
X6308158Y-19216484D02*
X6289110Y-19206960D01*
X6289110Y-19206960D02*
X6279586Y-19187912D01*
X6279586Y-19187912D02*
X6279586Y-19016484D01*
X6536729Y-19216484D02*
X6536729Y-19016484D01*
X6536729Y-19016484D02*
X6603396Y-19159341D01*
X6603396Y-19159341D02*
X6670062Y-19016484D01*
X6670062Y-19016484D02*
X6670062Y-19216484D01*
X6851015Y-19216484D02*
X6851015Y-19111722D01*
X6851015Y-19111722D02*
X6841491Y-19092674D01*
X6841491Y-19092674D02*
X6822443Y-19083150D01*
X6822443Y-19083150D02*
X6784348Y-19083150D01*
X6784348Y-19083150D02*
X6765301Y-19092674D01*
X6851015Y-19206960D02*
X6831967Y-19216484D01*
X6831967Y-19216484D02*
X6784348Y-19216484D01*
X6784348Y-19216484D02*
X6765301Y-19206960D01*
X6765301Y-19206960D02*
X6755777Y-19187912D01*
X6755777Y-19187912D02*
X6755777Y-19168865D01*
X6755777Y-19168865D02*
X6765301Y-19149817D01*
X6765301Y-19149817D02*
X6784348Y-19140293D01*
X6784348Y-19140293D02*
X6831967Y-19140293D01*
X6831967Y-19140293D02*
X6851015Y-19130770D01*
X6946253Y-19083150D02*
X6946253Y-19283150D01*
X6946253Y-19092674D02*
X6965301Y-19083150D01*
X6965301Y-19083150D02*
X7003396Y-19083150D01*
X7003396Y-19083150D02*
X7022443Y-19092674D01*
X7022443Y-19092674D02*
X7031967Y-19102198D01*
X7031967Y-19102198D02*
X7041491Y-19121246D01*
X7041491Y-19121246D02*
X7041491Y-19178389D01*
X7041491Y-19178389D02*
X7031967Y-19197436D01*
X7031967Y-19197436D02*
X7022443Y-19206960D01*
X7022443Y-19206960D02*
X7003396Y-19216484D01*
X7003396Y-19216484D02*
X6965301Y-19216484D01*
X6965301Y-19216484D02*
X6946253Y-19206960D01*
X7127205Y-19197436D02*
X7136729Y-19206960D01*
X7136729Y-19206960D02*
X7127205Y-19216484D01*
X7127205Y-19216484D02*
X7117682Y-19206960D01*
X7117682Y-19206960D02*
X7127205Y-19197436D01*
X7127205Y-19197436D02*
X7127205Y-19216484D01*
X7127205Y-19092674D02*
X7136729Y-19102198D01*
X7136729Y-19102198D02*
X7127205Y-19111722D01*
X7127205Y-19111722D02*
X7117682Y-19102198D01*
X7117682Y-19102198D02*
X7127205Y-19092674D01*
X7127205Y-19092674D02*
X7127205Y-19111722D01*
X5295000Y-19445000D02*
X5495000Y-19645000D01*
X5495000Y-19445000D02*
X5295000Y-19645000D01*
X5746253Y-19455531D02*
X5755777Y-19446008D01*
X5755777Y-19446008D02*
X5774824Y-19436484D01*
X5774824Y-19436484D02*
X5822443Y-19436484D01*
X5822443Y-19436484D02*
X5841491Y-19446008D01*
X5841491Y-19446008D02*
X5851015Y-19455531D01*
X5851015Y-19455531D02*
X5860539Y-19474579D01*
X5860539Y-19474579D02*
X5860539Y-19493627D01*
X5860539Y-19493627D02*
X5851015Y-19522198D01*
X5851015Y-19522198D02*
X5736729Y-19636484D01*
X5736729Y-19636484D02*
X5860539Y-19636484D01*
X5946253Y-19617436D02*
X5955777Y-19626960D01*
X5955777Y-19626960D02*
X5946253Y-19636484D01*
X5946253Y-19636484D02*
X5936729Y-19626960D01*
X5936729Y-19626960D02*
X5946253Y-19617436D01*
X5946253Y-19617436D02*
X5946253Y-19636484D01*
X6031967Y-19455531D02*
X6041491Y-19446008D01*
X6041491Y-19446008D02*
X6060539Y-19436484D01*
X6060539Y-19436484D02*
X6108158Y-19436484D01*
X6108158Y-19436484D02*
X6127205Y-19446008D01*
X6127205Y-19446008D02*
X6136729Y-19455531D01*
X6136729Y-19455531D02*
X6146253Y-19474579D01*
X6146253Y-19474579D02*
X6146253Y-19493627D01*
X6146253Y-19493627D02*
X6136729Y-19522198D01*
X6136729Y-19522198D02*
X6022443Y-19636484D01*
X6022443Y-19636484D02*
X6146253Y-19636484D01*
X6270062Y-19436484D02*
X6289110Y-19436484D01*
X6289110Y-19436484D02*
X6308158Y-19446008D01*
X6308158Y-19446008D02*
X6317682Y-19455531D01*
X6317682Y-19455531D02*
X6327205Y-19474579D01*
X6327205Y-19474579D02*
X6336729Y-19512674D01*
X6336729Y-19512674D02*
X6336729Y-19560293D01*
X6336729Y-19560293D02*
X6327205Y-19598389D01*
X6327205Y-19598389D02*
X6317682Y-19617436D01*
X6317682Y-19617436D02*
X6308158Y-19626960D01*
X6308158Y-19626960D02*
X6289110Y-19636484D01*
X6289110Y-19636484D02*
X6270062Y-19636484D01*
X6270062Y-19636484D02*
X6251015Y-19626960D01*
X6251015Y-19626960D02*
X6241491Y-19617436D01*
X6241491Y-19617436D02*
X6231967Y-19598389D01*
X6231967Y-19598389D02*
X6222443Y-19560293D01*
X6222443Y-19560293D02*
X6222443Y-19512674D01*
X6222443Y-19512674D02*
X6231967Y-19474579D01*
X6231967Y-19474579D02*
X6241491Y-19455531D01*
X6241491Y-19455531D02*
X6251015Y-19446008D01*
X6251015Y-19446008D02*
X6270062Y-19436484D01*
X6460539Y-19436484D02*
X6479586Y-19436484D01*
X6479586Y-19436484D02*
X6498634Y-19446008D01*
X6498634Y-19446008D02*
X6508158Y-19455531D01*
X6508158Y-19455531D02*
X6517682Y-19474579D01*
X6517682Y-19474579D02*
X6527205Y-19512674D01*
X6527205Y-19512674D02*
X6527205Y-19560293D01*
X6527205Y-19560293D02*
X6517682Y-19598389D01*
X6517682Y-19598389D02*
X6508158Y-19617436D01*
X6508158Y-19617436D02*
X6498634Y-19626960D01*
X6498634Y-19626960D02*
X6479586Y-19636484D01*
X6479586Y-19636484D02*
X6460539Y-19636484D01*
X6460539Y-19636484D02*
X6441491Y-19626960D01*
X6441491Y-19626960D02*
X6431967Y-19617436D01*
X6431967Y-19617436D02*
X6422443Y-19598389D01*
X6422443Y-19598389D02*
X6412920Y-19560293D01*
X6412920Y-19560293D02*
X6412920Y-19512674D01*
X6412920Y-19512674D02*
X6422443Y-19474579D01*
X6422443Y-19474579D02*
X6431967Y-19455531D01*
X6431967Y-19455531D02*
X6441491Y-19446008D01*
X6441491Y-19446008D02*
X6460539Y-19436484D01*
X6612920Y-19636484D02*
X6612920Y-19503150D01*
X6612920Y-19522198D02*
X6622443Y-19512674D01*
X6622443Y-19512674D02*
X6641491Y-19503150D01*
X6641491Y-19503150D02*
X6670063Y-19503150D01*
X6670063Y-19503150D02*
X6689110Y-19512674D01*
X6689110Y-19512674D02*
X6698634Y-19531722D01*
X6698634Y-19531722D02*
X6698634Y-19636484D01*
X6698634Y-19531722D02*
X6708158Y-19512674D01*
X6708158Y-19512674D02*
X6727205Y-19503150D01*
X6727205Y-19503150D02*
X6755777Y-19503150D01*
X6755777Y-19503150D02*
X6774824Y-19512674D01*
X6774824Y-19512674D02*
X6784348Y-19531722D01*
X6784348Y-19531722D02*
X6784348Y-19636484D01*
X6879586Y-19636484D02*
X6879586Y-19503150D01*
X6879586Y-19522198D02*
X6889110Y-19512674D01*
X6889110Y-19512674D02*
X6908158Y-19503150D01*
X6908158Y-19503150D02*
X6936729Y-19503150D01*
X6936729Y-19503150D02*
X6955777Y-19512674D01*
X6955777Y-19512674D02*
X6965301Y-19531722D01*
X6965301Y-19531722D02*
X6965301Y-19636484D01*
X6965301Y-19531722D02*
X6974824Y-19512674D01*
X6974824Y-19512674D02*
X6993872Y-19503150D01*
X6993872Y-19503150D02*
X7022443Y-19503150D01*
X7022443Y-19503150D02*
X7041491Y-19512674D01*
X7041491Y-19512674D02*
X7051015Y-19531722D01*
X7051015Y-19531722D02*
X7051015Y-19636484D01*
X7441491Y-19426960D02*
X7270063Y-19684103D01*
X7698634Y-19436484D02*
X7717682Y-19436484D01*
X7717682Y-19436484D02*
X7736729Y-19446008D01*
X7736729Y-19446008D02*
X7746253Y-19455531D01*
X7746253Y-19455531D02*
X7755777Y-19474579D01*
X7755777Y-19474579D02*
X7765301Y-19512674D01*
X7765301Y-19512674D02*
X7765301Y-19560293D01*
X7765301Y-19560293D02*
X7755777Y-19598389D01*
X7755777Y-19598389D02*
X7746253Y-19617436D01*
X7746253Y-19617436D02*
X7736729Y-19626960D01*
X7736729Y-19626960D02*
X7717682Y-19636484D01*
X7717682Y-19636484D02*
X7698634Y-19636484D01*
X7698634Y-19636484D02*
X7679586Y-19626960D01*
X7679586Y-19626960D02*
X7670063Y-19617436D01*
X7670063Y-19617436D02*
X7660539Y-19598389D01*
X7660539Y-19598389D02*
X7651015Y-19560293D01*
X7651015Y-19560293D02*
X7651015Y-19512674D01*
X7651015Y-19512674D02*
X7660539Y-19474579D01*
X7660539Y-19474579D02*
X7670063Y-19455531D01*
X7670063Y-19455531D02*
X7679586Y-19446008D01*
X7679586Y-19446008D02*
X7698634Y-19436484D01*
X7851015Y-19617436D02*
X7860539Y-19626960D01*
X7860539Y-19626960D02*
X7851015Y-19636484D01*
X7851015Y-19636484D02*
X7841491Y-19626960D01*
X7841491Y-19626960D02*
X7851015Y-19617436D01*
X7851015Y-19617436D02*
X7851015Y-19636484D01*
X7984348Y-19436484D02*
X8003396Y-19436484D01*
X8003396Y-19436484D02*
X8022444Y-19446008D01*
X8022444Y-19446008D02*
X8031967Y-19455531D01*
X8031967Y-19455531D02*
X8041491Y-19474579D01*
X8041491Y-19474579D02*
X8051015Y-19512674D01*
X8051015Y-19512674D02*
X8051015Y-19560293D01*
X8051015Y-19560293D02*
X8041491Y-19598389D01*
X8041491Y-19598389D02*
X8031967Y-19617436D01*
X8031967Y-19617436D02*
X8022444Y-19626960D01*
X8022444Y-19626960D02*
X8003396Y-19636484D01*
X8003396Y-19636484D02*
X7984348Y-19636484D01*
X7984348Y-19636484D02*
X7965301Y-19626960D01*
X7965301Y-19626960D02*
X7955777Y-19617436D01*
X7955777Y-19617436D02*
X7946253Y-19598389D01*
X7946253Y-19598389D02*
X7936729Y-19560293D01*
X7936729Y-19560293D02*
X7936729Y-19512674D01*
X7936729Y-19512674D02*
X7946253Y-19474579D01*
X7946253Y-19474579D02*
X7955777Y-19455531D01*
X7955777Y-19455531D02*
X7965301Y-19446008D01*
X7965301Y-19446008D02*
X7984348Y-19436484D01*
X8165301Y-19522198D02*
X8146253Y-19512674D01*
X8146253Y-19512674D02*
X8136729Y-19503150D01*
X8136729Y-19503150D02*
X8127206Y-19484103D01*
X8127206Y-19484103D02*
X8127206Y-19474579D01*
X8127206Y-19474579D02*
X8136729Y-19455531D01*
X8136729Y-19455531D02*
X8146253Y-19446008D01*
X8146253Y-19446008D02*
X8165301Y-19436484D01*
X8165301Y-19436484D02*
X8203396Y-19436484D01*
X8203396Y-19436484D02*
X8222444Y-19446008D01*
X8222444Y-19446008D02*
X8231967Y-19455531D01*
X8231967Y-19455531D02*
X8241491Y-19474579D01*
X8241491Y-19474579D02*
X8241491Y-19484103D01*
X8241491Y-19484103D02*
X8231967Y-19503150D01*
X8231967Y-19503150D02*
X8222444Y-19512674D01*
X8222444Y-19512674D02*
X8203396Y-19522198D01*
X8203396Y-19522198D02*
X8165301Y-19522198D01*
X8165301Y-19522198D02*
X8146253Y-19531722D01*
X8146253Y-19531722D02*
X8136729Y-19541246D01*
X8136729Y-19541246D02*
X8127206Y-19560293D01*
X8127206Y-19560293D02*
X8127206Y-19598389D01*
X8127206Y-19598389D02*
X8136729Y-19617436D01*
X8136729Y-19617436D02*
X8146253Y-19626960D01*
X8146253Y-19626960D02*
X8165301Y-19636484D01*
X8165301Y-19636484D02*
X8203396Y-19636484D01*
X8203396Y-19636484D02*
X8222444Y-19626960D01*
X8222444Y-19626960D02*
X8231967Y-19617436D01*
X8231967Y-19617436D02*
X8241491Y-19598389D01*
X8241491Y-19598389D02*
X8241491Y-19560293D01*
X8241491Y-19560293D02*
X8231967Y-19541246D01*
X8231967Y-19541246D02*
X8222444Y-19531722D01*
X8222444Y-19531722D02*
X8203396Y-19522198D01*
X8412920Y-19436484D02*
X8374825Y-19436484D01*
X8374825Y-19436484D02*
X8355777Y-19446008D01*
X8355777Y-19446008D02*
X8346253Y-19455531D01*
X8346253Y-19455531D02*
X8327206Y-19484103D01*
X8327206Y-19484103D02*
X8317682Y-19522198D01*
X8317682Y-19522198D02*
X8317682Y-19598389D01*
X8317682Y-19598389D02*
X8327206Y-19617436D01*
X8327206Y-19617436D02*
X8336729Y-19626960D01*
X8336729Y-19626960D02*
X8355777Y-19636484D01*
X8355777Y-19636484D02*
X8393872Y-19636484D01*
X8393872Y-19636484D02*
X8412920Y-19626960D01*
X8412920Y-19626960D02*
X8422444Y-19617436D01*
X8422444Y-19617436D02*
X8431968Y-19598389D01*
X8431968Y-19598389D02*
X8431968Y-19550770D01*
X8431968Y-19550770D02*
X8422444Y-19531722D01*
X8422444Y-19531722D02*
X8412920Y-19522198D01*
X8412920Y-19522198D02*
X8393872Y-19512674D01*
X8393872Y-19512674D02*
X8355777Y-19512674D01*
X8355777Y-19512674D02*
X8336729Y-19522198D01*
X8336729Y-19522198D02*
X8327206Y-19531722D01*
X8327206Y-19531722D02*
X8317682Y-19550770D01*
X8603396Y-19436484D02*
X8565301Y-19436484D01*
X8565301Y-19436484D02*
X8546253Y-19446008D01*
X8546253Y-19446008D02*
X8536729Y-19455531D01*
X8536729Y-19455531D02*
X8517682Y-19484103D01*
X8517682Y-19484103D02*
X8508158Y-19522198D01*
X8508158Y-19522198D02*
X8508158Y-19598389D01*
X8508158Y-19598389D02*
X8517682Y-19617436D01*
X8517682Y-19617436D02*
X8527206Y-19626960D01*
X8527206Y-19626960D02*
X8546253Y-19636484D01*
X8546253Y-19636484D02*
X8584349Y-19636484D01*
X8584349Y-19636484D02*
X8603396Y-19626960D01*
X8603396Y-19626960D02*
X8612920Y-19617436D01*
X8612920Y-19617436D02*
X8622444Y-19598389D01*
X8622444Y-19598389D02*
X8622444Y-19550770D01*
X8622444Y-19550770D02*
X8612920Y-19531722D01*
X8612920Y-19531722D02*
X8603396Y-19522198D01*
X8603396Y-19522198D02*
X8584349Y-19512674D01*
X8584349Y-19512674D02*
X8546253Y-19512674D01*
X8546253Y-19512674D02*
X8527206Y-19522198D01*
X8527206Y-19522198D02*
X8517682Y-19531722D01*
X8517682Y-19531722D02*
X8508158Y-19550770D01*
X8698634Y-19436484D02*
X8698634Y-19474579D01*
X8774825Y-19436484D02*
X8774825Y-19474579D01*
X9070063Y-19712674D02*
X9060539Y-19703150D01*
X9060539Y-19703150D02*
X9041491Y-19674579D01*
X9041491Y-19674579D02*
X9031968Y-19655531D01*
X9031968Y-19655531D02*
X9022444Y-19626960D01*
X9022444Y-19626960D02*
X9012920Y-19579341D01*
X9012920Y-19579341D02*
X9012920Y-19541246D01*
X9012920Y-19541246D02*
X9022444Y-19493627D01*
X9022444Y-19493627D02*
X9031968Y-19465055D01*
X9031968Y-19465055D02*
X9041491Y-19446008D01*
X9041491Y-19446008D02*
X9060539Y-19417436D01*
X9060539Y-19417436D02*
X9070063Y-19407912D01*
X9231968Y-19436484D02*
X9193872Y-19436484D01*
X9193872Y-19436484D02*
X9174825Y-19446008D01*
X9174825Y-19446008D02*
X9165301Y-19455531D01*
X9165301Y-19455531D02*
X9146253Y-19484103D01*
X9146253Y-19484103D02*
X9136730Y-19522198D01*
X9136730Y-19522198D02*
X9136730Y-19598389D01*
X9136730Y-19598389D02*
X9146253Y-19617436D01*
X9146253Y-19617436D02*
X9155777Y-19626960D01*
X9155777Y-19626960D02*
X9174825Y-19636484D01*
X9174825Y-19636484D02*
X9212920Y-19636484D01*
X9212920Y-19636484D02*
X9231968Y-19626960D01*
X9231968Y-19626960D02*
X9241491Y-19617436D01*
X9241491Y-19617436D02*
X9251015Y-19598389D01*
X9251015Y-19598389D02*
X9251015Y-19550770D01*
X9251015Y-19550770D02*
X9241491Y-19531722D01*
X9241491Y-19531722D02*
X9231968Y-19522198D01*
X9231968Y-19522198D02*
X9212920Y-19512674D01*
X9212920Y-19512674D02*
X9174825Y-19512674D01*
X9174825Y-19512674D02*
X9155777Y-19522198D01*
X9155777Y-19522198D02*
X9146253Y-19531722D01*
X9146253Y-19531722D02*
X9136730Y-19550770D01*
X9489111Y-19636484D02*
X9489111Y-19436484D01*
X9574825Y-19636484D02*
X9574825Y-19531722D01*
X9574825Y-19531722D02*
X9565301Y-19512674D01*
X9565301Y-19512674D02*
X9546253Y-19503150D01*
X9546253Y-19503150D02*
X9517682Y-19503150D01*
X9517682Y-19503150D02*
X9498634Y-19512674D01*
X9498634Y-19512674D02*
X9489111Y-19522198D01*
X9698634Y-19636484D02*
X9679587Y-19626960D01*
X9679587Y-19626960D02*
X9670063Y-19617436D01*
X9670063Y-19617436D02*
X9660539Y-19598389D01*
X9660539Y-19598389D02*
X9660539Y-19541246D01*
X9660539Y-19541246D02*
X9670063Y-19522198D01*
X9670063Y-19522198D02*
X9679587Y-19512674D01*
X9679587Y-19512674D02*
X9698634Y-19503150D01*
X9698634Y-19503150D02*
X9727206Y-19503150D01*
X9727206Y-19503150D02*
X9746253Y-19512674D01*
X9746253Y-19512674D02*
X9755777Y-19522198D01*
X9755777Y-19522198D02*
X9765301Y-19541246D01*
X9765301Y-19541246D02*
X9765301Y-19598389D01*
X9765301Y-19598389D02*
X9755777Y-19617436D01*
X9755777Y-19617436D02*
X9746253Y-19626960D01*
X9746253Y-19626960D02*
X9727206Y-19636484D01*
X9727206Y-19636484D02*
X9698634Y-19636484D01*
X9879587Y-19636484D02*
X9860539Y-19626960D01*
X9860539Y-19626960D02*
X9851015Y-19607912D01*
X9851015Y-19607912D02*
X9851015Y-19436484D01*
X10031968Y-19626960D02*
X10012920Y-19636484D01*
X10012920Y-19636484D02*
X9974825Y-19636484D01*
X9974825Y-19636484D02*
X9955777Y-19626960D01*
X9955777Y-19626960D02*
X9946253Y-19607912D01*
X9946253Y-19607912D02*
X9946253Y-19531722D01*
X9946253Y-19531722D02*
X9955777Y-19512674D01*
X9955777Y-19512674D02*
X9974825Y-19503150D01*
X9974825Y-19503150D02*
X10012920Y-19503150D01*
X10012920Y-19503150D02*
X10031968Y-19512674D01*
X10031968Y-19512674D02*
X10041492Y-19531722D01*
X10041492Y-19531722D02*
X10041492Y-19550770D01*
X10041492Y-19550770D02*
X9946253Y-19569817D01*
X10117682Y-19626960D02*
X10136730Y-19636484D01*
X10136730Y-19636484D02*
X10174825Y-19636484D01*
X10174825Y-19636484D02*
X10193873Y-19626960D01*
X10193873Y-19626960D02*
X10203396Y-19607912D01*
X10203396Y-19607912D02*
X10203396Y-19598389D01*
X10203396Y-19598389D02*
X10193873Y-19579341D01*
X10193873Y-19579341D02*
X10174825Y-19569817D01*
X10174825Y-19569817D02*
X10146253Y-19569817D01*
X10146253Y-19569817D02*
X10127206Y-19560293D01*
X10127206Y-19560293D02*
X10117682Y-19541246D01*
X10117682Y-19541246D02*
X10117682Y-19531722D01*
X10117682Y-19531722D02*
X10127206Y-19512674D01*
X10127206Y-19512674D02*
X10146253Y-19503150D01*
X10146253Y-19503150D02*
X10174825Y-19503150D01*
X10174825Y-19503150D02*
X10193873Y-19512674D01*
X10270063Y-19712674D02*
X10279587Y-19703150D01*
X10279587Y-19703150D02*
X10298634Y-19674579D01*
X10298634Y-19674579D02*
X10308158Y-19655531D01*
X10308158Y-19655531D02*
X10317682Y-19626960D01*
X10317682Y-19626960D02*
X10327206Y-19579341D01*
X10327206Y-19579341D02*
X10327206Y-19541246D01*
X10327206Y-19541246D02*
X10317682Y-19493627D01*
X10317682Y-19493627D02*
X10308158Y-19465055D01*
X10308158Y-19465055D02*
X10298634Y-19446008D01*
X10298634Y-19446008D02*
X10279587Y-19417436D01*
X10279587Y-19417436D02*
X10270063Y-19407912D01*
X10631968Y-19712674D02*
X10622444Y-19703150D01*
X10622444Y-19703150D02*
X10603396Y-19674579D01*
X10603396Y-19674579D02*
X10593873Y-19655531D01*
X10593873Y-19655531D02*
X10584349Y-19626960D01*
X10584349Y-19626960D02*
X10574825Y-19579341D01*
X10574825Y-19579341D02*
X10574825Y-19541246D01*
X10574825Y-19541246D02*
X10584349Y-19493627D01*
X10584349Y-19493627D02*
X10593873Y-19465055D01*
X10593873Y-19465055D02*
X10603396Y-19446008D01*
X10603396Y-19446008D02*
X10622444Y-19417436D01*
X10622444Y-19417436D02*
X10631968Y-19407912D01*
X10708158Y-19503150D02*
X10708158Y-19636484D01*
X10708158Y-19522198D02*
X10717682Y-19512674D01*
X10717682Y-19512674D02*
X10736730Y-19503150D01*
X10736730Y-19503150D02*
X10765301Y-19503150D01*
X10765301Y-19503150D02*
X10784349Y-19512674D01*
X10784349Y-19512674D02*
X10793873Y-19531722D01*
X10793873Y-19531722D02*
X10793873Y-19636484D01*
X10917682Y-19636484D02*
X10898634Y-19626960D01*
X10898634Y-19626960D02*
X10889111Y-19617436D01*
X10889111Y-19617436D02*
X10879587Y-19598389D01*
X10879587Y-19598389D02*
X10879587Y-19541246D01*
X10879587Y-19541246D02*
X10889111Y-19522198D01*
X10889111Y-19522198D02*
X10898634Y-19512674D01*
X10898634Y-19512674D02*
X10917682Y-19503150D01*
X10917682Y-19503150D02*
X10946254Y-19503150D01*
X10946254Y-19503150D02*
X10965301Y-19512674D01*
X10965301Y-19512674D02*
X10974825Y-19522198D01*
X10974825Y-19522198D02*
X10984349Y-19541246D01*
X10984349Y-19541246D02*
X10984349Y-19598389D01*
X10984349Y-19598389D02*
X10974825Y-19617436D01*
X10974825Y-19617436D02*
X10965301Y-19626960D01*
X10965301Y-19626960D02*
X10946254Y-19636484D01*
X10946254Y-19636484D02*
X10917682Y-19636484D01*
X11041492Y-19503150D02*
X11117682Y-19503150D01*
X11070063Y-19436484D02*
X11070063Y-19607912D01*
X11070063Y-19607912D02*
X11079587Y-19626960D01*
X11079587Y-19626960D02*
X11098634Y-19636484D01*
X11098634Y-19636484D02*
X11117682Y-19636484D01*
X11336730Y-19503150D02*
X11336730Y-19703150D01*
X11336730Y-19512674D02*
X11355777Y-19503150D01*
X11355777Y-19503150D02*
X11393873Y-19503150D01*
X11393873Y-19503150D02*
X11412920Y-19512674D01*
X11412920Y-19512674D02*
X11422444Y-19522198D01*
X11422444Y-19522198D02*
X11431968Y-19541246D01*
X11431968Y-19541246D02*
X11431968Y-19598389D01*
X11431968Y-19598389D02*
X11422444Y-19617436D01*
X11422444Y-19617436D02*
X11412920Y-19626960D01*
X11412920Y-19626960D02*
X11393873Y-19636484D01*
X11393873Y-19636484D02*
X11355777Y-19636484D01*
X11355777Y-19636484D02*
X11336730Y-19626960D01*
X11546253Y-19636484D02*
X11527206Y-19626960D01*
X11527206Y-19626960D02*
X11517682Y-19607912D01*
X11517682Y-19607912D02*
X11517682Y-19436484D01*
X11708158Y-19636484D02*
X11708158Y-19531722D01*
X11708158Y-19531722D02*
X11698634Y-19512674D01*
X11698634Y-19512674D02*
X11679587Y-19503150D01*
X11679587Y-19503150D02*
X11641492Y-19503150D01*
X11641492Y-19503150D02*
X11622444Y-19512674D01*
X11708158Y-19626960D02*
X11689111Y-19636484D01*
X11689111Y-19636484D02*
X11641492Y-19636484D01*
X11641492Y-19636484D02*
X11622444Y-19626960D01*
X11622444Y-19626960D02*
X11612920Y-19607912D01*
X11612920Y-19607912D02*
X11612920Y-19588865D01*
X11612920Y-19588865D02*
X11622444Y-19569817D01*
X11622444Y-19569817D02*
X11641492Y-19560293D01*
X11641492Y-19560293D02*
X11689111Y-19560293D01*
X11689111Y-19560293D02*
X11708158Y-19550770D01*
X11774825Y-19503150D02*
X11851015Y-19503150D01*
X11803396Y-19436484D02*
X11803396Y-19607912D01*
X11803396Y-19607912D02*
X11812920Y-19626960D01*
X11812920Y-19626960D02*
X11831968Y-19636484D01*
X11831968Y-19636484D02*
X11851015Y-19636484D01*
X11993873Y-19626960D02*
X11974825Y-19636484D01*
X11974825Y-19636484D02*
X11936730Y-19636484D01*
X11936730Y-19636484D02*
X11917682Y-19626960D01*
X11917682Y-19626960D02*
X11908158Y-19607912D01*
X11908158Y-19607912D02*
X11908158Y-19531722D01*
X11908158Y-19531722D02*
X11917682Y-19512674D01*
X11917682Y-19512674D02*
X11936730Y-19503150D01*
X11936730Y-19503150D02*
X11974825Y-19503150D01*
X11974825Y-19503150D02*
X11993873Y-19512674D01*
X11993873Y-19512674D02*
X12003396Y-19531722D01*
X12003396Y-19531722D02*
X12003396Y-19550770D01*
X12003396Y-19550770D02*
X11908158Y-19569817D01*
X12174825Y-19636484D02*
X12174825Y-19436484D01*
X12174825Y-19626960D02*
X12155777Y-19636484D01*
X12155777Y-19636484D02*
X12117682Y-19636484D01*
X12117682Y-19636484D02*
X12098634Y-19626960D01*
X12098634Y-19626960D02*
X12089111Y-19617436D01*
X12089111Y-19617436D02*
X12079587Y-19598389D01*
X12079587Y-19598389D02*
X12079587Y-19541246D01*
X12079587Y-19541246D02*
X12089111Y-19522198D01*
X12089111Y-19522198D02*
X12098634Y-19512674D01*
X12098634Y-19512674D02*
X12117682Y-19503150D01*
X12117682Y-19503150D02*
X12155777Y-19503150D01*
X12155777Y-19503150D02*
X12174825Y-19512674D01*
X12251015Y-19712674D02*
X12260539Y-19703150D01*
X12260539Y-19703150D02*
X12279587Y-19674579D01*
X12279587Y-19674579D02*
X12289111Y-19655531D01*
X12289111Y-19655531D02*
X12298634Y-19626960D01*
X12298634Y-19626960D02*
X12308158Y-19579341D01*
X12308158Y-19579341D02*
X12308158Y-19541246D01*
X12308158Y-19541246D02*
X12298634Y-19493627D01*
X12298634Y-19493627D02*
X12289111Y-19465055D01*
X12289111Y-19465055D02*
X12279587Y-19446008D01*
X12279587Y-19446008D02*
X12260539Y-19417436D01*
X12260539Y-19417436D02*
X12251015Y-19407912D01*
M02*
