%TF.GenerationSoftware,KiCad,Pcbnew,7.0.6-7.0.6~ubuntu22.04.1*%
%TF.CreationDate,2023-08-07T15:21:51+03:00*%
%TF.ProjectId,supply,73757070-6c79-42e6-9b69-6361645f7063,rev?*%
%TF.SameCoordinates,Original*%
%TF.FileFunction,Copper,L1,Top*%
%TF.FilePolarity,Positive*%
%FSLAX46Y46*%
G04 Gerber Fmt 4.6, Leading zero omitted, Abs format (unit mm)*
G04 Created by KiCad (PCBNEW 7.0.6-7.0.6~ubuntu22.04.1) date 2023-08-07 15:21:51*
%MOMM*%
%LPD*%
G01*
G04 APERTURE LIST*
G04 Aperture macros list*
%AMRoundRect*
0 Rectangle with rounded corners*
0 $1 Rounding radius*
0 $2 $3 $4 $5 $6 $7 $8 $9 X,Y pos of 4 corners*
0 Add a 4 corners polygon primitive as box body*
4,1,4,$2,$3,$4,$5,$6,$7,$8,$9,$2,$3,0*
0 Add four circle primitives for the rounded corners*
1,1,$1+$1,$2,$3*
1,1,$1+$1,$4,$5*
1,1,$1+$1,$6,$7*
1,1,$1+$1,$8,$9*
0 Add four rect primitives between the rounded corners*
20,1,$1+$1,$2,$3,$4,$5,0*
20,1,$1+$1,$4,$5,$6,$7,0*
20,1,$1+$1,$6,$7,$8,$9,0*
20,1,$1+$1,$8,$9,$2,$3,0*%
%AMFreePoly0*
4,1,6,1.000000,0.000000,0.500000,-0.750000,-0.500000,-0.750000,-0.500000,0.750000,0.500000,0.750000,1.000000,0.000000,1.000000,0.000000,$1*%
%AMFreePoly1*
4,1,6,0.500000,-0.750000,-0.650000,-0.750000,-0.150000,0.000000,-0.650000,0.750000,0.500000,0.750000,0.500000,-0.750000,0.500000,-0.750000,$1*%
%AMFreePoly2*
4,1,48,1.015063,1.095106,1.030902,1.095106,1.043715,1.085796,1.058779,1.080902,1.068088,1.068088,1.080902,1.058779,1.085796,1.043715,1.095106,1.030902,1.095106,1.015062,1.100000,1.000000,1.100000,-1.000000,1.095106,-1.015062,1.095106,-1.030902,1.085796,-1.043715,1.080902,-1.058779,1.068088,-1.068088,1.058779,-1.080902,1.043715,-1.085796,1.030902,-1.095106,1.015063,-1.095106,
1.000000,-1.100000,0.000000,-1.100000,-0.007671,-1.097507,-0.015643,-1.098770,-0.036509,-1.088137,-0.058779,-1.080902,-0.063522,-1.074373,-0.070710,-1.070711,-1.070711,-0.070711,-1.077901,-0.056598,-1.089101,-0.045399,-1.091578,-0.029754,-1.098769,-0.015643,-1.096291,0.000000,-1.098769,0.015643,-1.091578,0.029754,-1.089101,0.045399,-1.077901,0.056598,-1.070711,0.070711,-0.070710,1.070711,
-0.063522,1.074373,-0.058779,1.080902,-0.036509,1.088137,-0.015643,1.098770,-0.007671,1.097507,0.000000,1.100000,1.000000,1.100000,1.015063,1.095106,1.015063,1.095106,$1*%
%AMFreePoly3*
4,1,55,1.022267,1.092764,1.045399,1.089101,1.051104,1.083395,1.058779,1.080902,1.072544,1.061955,1.089101,1.045399,1.090363,1.037429,1.095106,1.030902,1.095106,1.007488,1.098770,0.984357,1.095106,0.977166,1.095106,0.969098,1.081341,0.950152,1.070711,0.929290,0.250000,0.108579,0.250000,-0.108579,1.070711,-0.929290,1.081341,-0.950152,1.095106,-0.969098,1.095106,-0.977166,
1.098770,-0.984357,1.095106,-1.007488,1.095106,-1.030902,1.090363,-1.037429,1.089101,-1.045399,1.072544,-1.061955,1.058779,-1.080902,1.051104,-1.083395,1.045399,-1.089101,1.022267,-1.092764,1.000000,-1.100000,-1.000000,-1.100000,-1.015063,-1.095106,-1.030902,-1.095106,-1.043715,-1.085796,-1.058779,-1.080902,-1.068088,-1.068088,-1.080902,-1.058779,-1.085796,-1.043715,-1.095106,-1.030902,
-1.095106,-1.015062,-1.100000,-1.000000,-1.100000,1.000000,-1.095106,1.015062,-1.095106,1.030902,-1.085796,1.043715,-1.080902,1.058779,-1.068088,1.068088,-1.058779,1.080902,-1.043715,1.085796,-1.030902,1.095106,-1.015063,1.095106,-1.000000,1.100000,1.000000,1.100000,1.022267,1.092764,1.022267,1.092764,$1*%
G04 Aperture macros list end*
%TA.AperFunction,SMDPad,CuDef*%
%ADD10RoundRect,0.250000X-0.450000X0.262500X-0.450000X-0.262500X0.450000X-0.262500X0.450000X0.262500X0*%
%TD*%
%TA.AperFunction,ComponentPad*%
%ADD11R,1.600000X1.600000*%
%TD*%
%TA.AperFunction,ComponentPad*%
%ADD12O,1.600000X1.600000*%
%TD*%
%TA.AperFunction,SMDPad,CuDef*%
%ADD13RoundRect,0.150000X-0.150000X0.587500X-0.150000X-0.587500X0.150000X-0.587500X0.150000X0.587500X0*%
%TD*%
%TA.AperFunction,SMDPad,CuDef*%
%ADD14RoundRect,0.087500X-0.425000X-0.087500X0.425000X-0.087500X0.425000X0.087500X-0.425000X0.087500X0*%
%TD*%
%TA.AperFunction,SMDPad,CuDef*%
%ADD15RoundRect,0.087500X-0.087500X-0.425000X0.087500X-0.425000X0.087500X0.425000X-0.087500X0.425000X0*%
%TD*%
%TA.AperFunction,SMDPad,CuDef*%
%ADD16R,2.100000X2.100000*%
%TD*%
%TA.AperFunction,ComponentPad*%
%ADD17R,1.700000X1.700000*%
%TD*%
%TA.AperFunction,ComponentPad*%
%ADD18O,1.700000X1.700000*%
%TD*%
%TA.AperFunction,SMDPad,CuDef*%
%ADD19RoundRect,0.225000X0.225000X0.250000X-0.225000X0.250000X-0.225000X-0.250000X0.225000X-0.250000X0*%
%TD*%
%TA.AperFunction,ComponentPad*%
%ADD20R,1.800000X1.800000*%
%TD*%
%TA.AperFunction,ComponentPad*%
%ADD21C,1.800000*%
%TD*%
%TA.AperFunction,SMDPad,CuDef*%
%ADD22RoundRect,0.250000X0.262500X0.450000X-0.262500X0.450000X-0.262500X-0.450000X0.262500X-0.450000X0*%
%TD*%
%TA.AperFunction,SMDPad,CuDef*%
%ADD23RoundRect,0.225000X-0.250000X0.225000X-0.250000X-0.225000X0.250000X-0.225000X0.250000X0.225000X0*%
%TD*%
%TA.AperFunction,SMDPad,CuDef*%
%ADD24RoundRect,0.250000X0.450000X-0.262500X0.450000X0.262500X-0.450000X0.262500X-0.450000X-0.262500X0*%
%TD*%
%TA.AperFunction,ComponentPad*%
%ADD25R,1.560000X1.560000*%
%TD*%
%TA.AperFunction,ComponentPad*%
%ADD26C,1.560000*%
%TD*%
%TA.AperFunction,SMDPad,CuDef*%
%ADD27RoundRect,0.150000X-0.150000X0.675000X-0.150000X-0.675000X0.150000X-0.675000X0.150000X0.675000X0*%
%TD*%
%TA.AperFunction,ComponentPad*%
%ADD28RoundRect,0.250002X1.699998X1.699998X-1.699998X1.699998X-1.699998X-1.699998X1.699998X-1.699998X0*%
%TD*%
%TA.AperFunction,ComponentPad*%
%ADD29RoundRect,0.249999X-1.025001X1.025001X-1.025001X-1.025001X1.025001X-1.025001X1.025001X1.025001X0*%
%TD*%
%TA.AperFunction,ComponentPad*%
%ADD30C,2.550000*%
%TD*%
%TA.AperFunction,ComponentPad*%
%ADD31C,2.400000*%
%TD*%
%TA.AperFunction,ComponentPad*%
%ADD32O,2.400000X2.400000*%
%TD*%
%TA.AperFunction,ComponentPad*%
%ADD33RoundRect,0.250000X0.750000X-0.600000X0.750000X0.600000X-0.750000X0.600000X-0.750000X-0.600000X0*%
%TD*%
%TA.AperFunction,ComponentPad*%
%ADD34O,2.000000X1.700000*%
%TD*%
%TA.AperFunction,SMDPad,CuDef*%
%ADD35RoundRect,0.250000X0.312500X0.625000X-0.312500X0.625000X-0.312500X-0.625000X0.312500X-0.625000X0*%
%TD*%
%TA.AperFunction,ComponentPad*%
%ADD36C,2.200000*%
%TD*%
%TA.AperFunction,ComponentPad*%
%ADD37C,1.400000*%
%TD*%
%TA.AperFunction,ComponentPad*%
%ADD38C,2.500000*%
%TD*%
%TA.AperFunction,ComponentPad*%
%ADD39RoundRect,0.250000X-0.725000X0.600000X-0.725000X-0.600000X0.725000X-0.600000X0.725000X0.600000X0*%
%TD*%
%TA.AperFunction,ComponentPad*%
%ADD40O,1.950000X1.700000*%
%TD*%
%TA.AperFunction,ComponentPad*%
%ADD41R,2.400000X2.400000*%
%TD*%
%TA.AperFunction,ComponentPad*%
%ADD42RoundRect,0.250000X-0.600000X-0.750000X0.600000X-0.750000X0.600000X0.750000X-0.600000X0.750000X0*%
%TD*%
%TA.AperFunction,ComponentPad*%
%ADD43O,1.700000X2.000000*%
%TD*%
%TA.AperFunction,SMDPad,CuDef*%
%ADD44RoundRect,0.250000X-0.312500X-0.625000X0.312500X-0.625000X0.312500X0.625000X-0.312500X0.625000X0*%
%TD*%
%TA.AperFunction,SMDPad,CuDef*%
%ADD45C,2.000000*%
%TD*%
%TA.AperFunction,SMDPad,CuDef*%
%ADD46FreePoly0,270.000000*%
%TD*%
%TA.AperFunction,SMDPad,CuDef*%
%ADD47FreePoly1,270.000000*%
%TD*%
%TA.AperFunction,ComponentPad*%
%ADD48C,2.000000*%
%TD*%
%TA.AperFunction,ComponentPad*%
%ADD49RoundRect,0.250000X0.600000X0.725000X-0.600000X0.725000X-0.600000X-0.725000X0.600000X-0.725000X0*%
%TD*%
%TA.AperFunction,ComponentPad*%
%ADD50O,1.700000X1.950000*%
%TD*%
%TA.AperFunction,ComponentPad*%
%ADD51RoundRect,0.250000X-0.600000X-0.725000X0.600000X-0.725000X0.600000X0.725000X-0.600000X0.725000X0*%
%TD*%
%TA.AperFunction,ComponentPad*%
%ADD52RoundRect,0.249999X-1.025001X-1.025001X1.025001X-1.025001X1.025001X1.025001X-1.025001X1.025001X0*%
%TD*%
%TA.AperFunction,ComponentPad*%
%ADD53R,4.500000X2.500000*%
%TD*%
%TA.AperFunction,ComponentPad*%
%ADD54O,4.500000X2.500000*%
%TD*%
%TA.AperFunction,SMDPad,CuDef*%
%ADD55R,1.600000X0.550000*%
%TD*%
%TA.AperFunction,SMDPad,CuDef*%
%ADD56R,0.550000X1.600000*%
%TD*%
%TA.AperFunction,ComponentPad*%
%ADD57R,1.905000X2.000000*%
%TD*%
%TA.AperFunction,ComponentPad*%
%ADD58O,1.905000X2.000000*%
%TD*%
%TA.AperFunction,ComponentPad*%
%ADD59R,1.524000X1.524000*%
%TD*%
%TA.AperFunction,ComponentPad*%
%ADD60C,1.524000*%
%TD*%
%TA.AperFunction,ComponentPad*%
%ADD61C,3.500000*%
%TD*%
%TA.AperFunction,SMDPad,CuDef*%
%ADD62RoundRect,0.150000X-0.587500X-0.150000X0.587500X-0.150000X0.587500X0.150000X-0.587500X0.150000X0*%
%TD*%
%TA.AperFunction,ComponentPad*%
%ADD63RoundRect,0.249999X-1.300001X-1.300001X1.300001X-1.300001X1.300001X1.300001X-1.300001X1.300001X0*%
%TD*%
%TA.AperFunction,ComponentPad*%
%ADD64C,3.100000*%
%TD*%
%TA.AperFunction,SMDPad,CuDef*%
%ADD65RoundRect,0.250000X-0.262500X-0.450000X0.262500X-0.450000X0.262500X0.450000X-0.262500X0.450000X0*%
%TD*%
%TA.AperFunction,ComponentPad*%
%ADD66RoundRect,0.250000X-0.750000X0.600000X-0.750000X-0.600000X0.750000X-0.600000X0.750000X0.600000X0*%
%TD*%
%TA.AperFunction,SMDPad,CuDef*%
%ADD67R,1.300000X1.100000*%
%TD*%
%TA.AperFunction,SMDPad,CuDef*%
%ADD68R,3.400000X2.000000*%
%TD*%
%TA.AperFunction,SMDPad,CuDef*%
%ADD69RoundRect,0.952500X0.952500X-1.167500X0.952500X1.167500X-0.952500X1.167500X-0.952500X-1.167500X0*%
%TD*%
%TA.AperFunction,SMDPad,CuDef*%
%ADD70RoundRect,0.087500X0.425000X0.087500X-0.425000X0.087500X-0.425000X-0.087500X0.425000X-0.087500X0*%
%TD*%
%TA.AperFunction,SMDPad,CuDef*%
%ADD71RoundRect,0.087500X0.087500X0.425000X-0.087500X0.425000X-0.087500X-0.425000X0.087500X-0.425000X0*%
%TD*%
%TA.AperFunction,ComponentPad*%
%ADD72RoundRect,0.250000X0.600000X0.750000X-0.600000X0.750000X-0.600000X-0.750000X0.600000X-0.750000X0*%
%TD*%
%TA.AperFunction,SMDPad,CuDef*%
%ADD73RoundRect,0.250000X-1.000000X1.400000X-1.000000X-1.400000X1.000000X-1.400000X1.000000X1.400000X0*%
%TD*%
%TA.AperFunction,ComponentPad*%
%ADD74RoundRect,0.249999X-1.300001X1.300001X-1.300001X-1.300001X1.300001X-1.300001X1.300001X1.300001X0*%
%TD*%
%TA.AperFunction,ComponentPad*%
%ADD75C,1.600000*%
%TD*%
%TA.AperFunction,SMDPad,CuDef*%
%ADD76FreePoly2,270.000000*%
%TD*%
%TA.AperFunction,SMDPad,CuDef*%
%ADD77FreePoly3,270.000000*%
%TD*%
%TA.AperFunction,SMDPad,CuDef*%
%ADD78RoundRect,1.025000X1.025000X1.025000X-1.025000X1.025000X-1.025000X-1.025000X1.025000X-1.025000X0*%
%TD*%
%TA.AperFunction,ComponentPad*%
%ADD79R,2.500000X4.500000*%
%TD*%
%TA.AperFunction,ComponentPad*%
%ADD80O,2.500000X4.500000*%
%TD*%
%TA.AperFunction,ComponentPad*%
%ADD81RoundRect,0.249999X1.300001X1.300001X-1.300001X1.300001X-1.300001X-1.300001X1.300001X-1.300001X0*%
%TD*%
%TA.AperFunction,ComponentPad*%
%ADD82C,3.000000*%
%TD*%
%TA.AperFunction,ComponentPad*%
%ADD83C,1.500000*%
%TD*%
%TA.AperFunction,SMDPad,CuDef*%
%ADD84R,5.000000X3.100000*%
%TD*%
%TA.AperFunction,SMDPad,CuDef*%
%ADD85RoundRect,0.250000X0.350000X-0.850000X0.350000X0.850000X-0.350000X0.850000X-0.350000X-0.850000X0*%
%TD*%
%TA.AperFunction,SMDPad,CuDef*%
%ADD86RoundRect,0.250000X1.125000X-1.275000X1.125000X1.275000X-1.125000X1.275000X-1.125000X-1.275000X0*%
%TD*%
%TA.AperFunction,SMDPad,CuDef*%
%ADD87RoundRect,0.249997X2.650003X-2.950003X2.650003X2.950003X-2.650003X2.950003X-2.650003X-2.950003X0*%
%TD*%
%TA.AperFunction,SMDPad,CuDef*%
%ADD88RoundRect,0.225000X0.250000X-0.225000X0.250000X0.225000X-0.250000X0.225000X-0.250000X-0.225000X0*%
%TD*%
%TA.AperFunction,ComponentPad*%
%ADD89R,3.200000X3.200000*%
%TD*%
%TA.AperFunction,ComponentPad*%
%ADD90O,3.200000X3.200000*%
%TD*%
%TA.AperFunction,ViaPad*%
%ADD91C,0.800000*%
%TD*%
%TA.AperFunction,Conductor*%
%ADD92C,1.000000*%
%TD*%
%TA.AperFunction,Conductor*%
%ADD93C,0.500000*%
%TD*%
%TA.AperFunction,Conductor*%
%ADD94C,0.300000*%
%TD*%
%TA.AperFunction,Conductor*%
%ADD95C,3.000000*%
%TD*%
%TA.AperFunction,Conductor*%
%ADD96C,5.000000*%
%TD*%
%TA.AperFunction,Conductor*%
%ADD97C,2.000000*%
%TD*%
%TA.AperFunction,Conductor*%
%ADD98C,0.200000*%
%TD*%
%TA.AperFunction,Conductor*%
%ADD99C,2.500000*%
%TD*%
%TA.AperFunction,Conductor*%
%ADD100C,1.500000*%
%TD*%
G04 APERTURE END LIST*
D10*
%TO.P,R3,1*%
%TO.N,/Control & Fan/+5V_VSYS*%
X129000000Y-216837500D03*
%TO.P,R3,2*%
%TO.N,Net-(U1-VPU)*%
X129000000Y-218662500D03*
%TD*%
D11*
%TO.P,U16,1*%
%TO.N,Net-(R42-Pad2)*%
X165200000Y-74725000D03*
D12*
%TO.P,U16,2*%
%TO.N,Net-(Q8-D)*%
X165200000Y-77265000D03*
%TO.P,U16,3*%
%TO.N,GNDPWR*%
X172820000Y-77265000D03*
%TO.P,U16,4*%
%TO.N,Net-(U17-CT)*%
X172820000Y-74725000D03*
%TD*%
D13*
%TO.P,Q12,1,G*%
%TO.N,Net-(Q10-D)*%
X190350000Y-220662500D03*
%TO.P,Q12,2,S*%
%TO.N,/Output connectors/5V_FUSE*%
X188450000Y-220662500D03*
%TO.P,Q12,3,D*%
%TO.N,/Output connectors/SIGNAL_OUT_PWR_5V*%
X189400000Y-222537500D03*
%TD*%
D14*
%TO.P,U21,1,IN-3*%
%TO.N,GND*%
X155237500Y-221425000D03*
%TO.P,U21,2,IN+3*%
X155237500Y-222075000D03*
%TO.P,U21,3,GND*%
X155237500Y-222725000D03*
%TO.P,U21,4,VS*%
%TO.N,/Control & Fan/+5V_VSYS*%
X155237500Y-223375000D03*
D15*
%TO.P,U21,5,A0*%
%TO.N,/Control & Fan/SCL*%
X156125000Y-224262500D03*
%TO.P,U21,6,SCL*%
X156775000Y-224262500D03*
%TO.P,U21,7,SDA*%
%TO.N,/Control & Fan/SDA*%
X157425000Y-224262500D03*
%TO.P,U21,8,WARNING*%
%TO.N,unconnected-(U21-WARNING-Pad8)*%
X158075000Y-224262500D03*
D14*
%TO.P,U21,9,CRITICAL*%
%TO.N,unconnected-(U21-CRITICAL-Pad9)*%
X158962500Y-223375000D03*
%TO.P,U21,10,PV*%
%TO.N,unconnected-(U21-PV-Pad10)*%
X158962500Y-222725000D03*
%TO.P,U21,11,IN-1*%
%TO.N,/Output connectors/5V_-*%
X158962500Y-222075000D03*
%TO.P,U21,12,IN+1*%
%TO.N,/Internal 5V & out usb/+5V_OUT*%
X158962500Y-221425000D03*
D15*
%TO.P,U21,13,TC*%
%TO.N,unconnected-(U21-TC-Pad13)*%
X158075000Y-220537500D03*
%TO.P,U21,14,IN-2*%
%TO.N,/Output connectors/3.3V_-*%
X157425000Y-220537500D03*
%TO.P,U21,15,IN+2*%
%TO.N,/Internal 5V & out usb/+3.3_VOUT*%
X156775000Y-220537500D03*
%TO.P,U21,16,VPU*%
%TO.N,Net-(U21-VPU)*%
X156125000Y-220537500D03*
D16*
%TO.P,U21,17,EP*%
%TO.N,GND*%
X157100000Y-222400000D03*
%TD*%
D17*
%TO.P,J10,1,Pin_1*%
%TO.N,/Control & Fan/MOSI*%
X113175000Y-145080000D03*
D18*
%TO.P,J10,2,Pin_2*%
%TO.N,/Control & Fan/+5V_VSYS*%
X115715000Y-145080000D03*
%TO.P,J10,3,Pin_3*%
%TO.N,unconnected-(J10-Pin_3-Pad3)*%
X113175000Y-147620000D03*
%TO.P,J10,4,Pin_4*%
%TO.N,/Control & Fan/RXD*%
X115715000Y-147620000D03*
%TO.P,J10,5,Pin_5*%
%TO.N,/Control & Fan/RESET#*%
X113175000Y-150160000D03*
%TO.P,J10,6,Pin_6*%
%TO.N,/Control & Fan/TXD*%
X115715000Y-150160000D03*
%TO.P,J10,7,Pin_7*%
%TO.N,/Control & Fan/SCK*%
X113175000Y-152700000D03*
%TO.P,J10,8,Pin_8*%
%TO.N,GND*%
X115715000Y-152700000D03*
%TO.P,J10,9,Pin_9*%
%TO.N,/Control & Fan/MISO*%
X113175000Y-155240000D03*
%TO.P,J10,10,Pin_10*%
%TO.N,GND*%
X115715000Y-155240000D03*
%TD*%
D19*
%TO.P,C8,1*%
%TO.N,GND*%
X98775000Y-199000000D03*
%TO.P,C8,2*%
%TO.N,Net-(U3-Vfb)*%
X97225000Y-199000000D03*
%TD*%
D20*
%TO.P,D3,1,A1*%
%TO.N,Net-(D3-A1)*%
X111800000Y-232250000D03*
D21*
%TO.P,D3,2,K*%
%TO.N,Net-(D3-K)*%
X109260000Y-232250000D03*
%TO.P,D3,3,A2*%
%TO.N,Net-(D3-A2)*%
X106720000Y-232250000D03*
%TD*%
D22*
%TO.P,R19,1*%
%TO.N,/Internal 5V & out usb/+5V_OUT*%
X108162500Y-210000000D03*
%TO.P,R19,2*%
%TO.N,/Internal 5V & out usb/VREF_2V5*%
X106337500Y-210000000D03*
%TD*%
D23*
%TO.P,C27,1*%
%TO.N,Net-(U12-XTAL1{slash}PB6)*%
X95500000Y-147225000D03*
%TO.P,C27,2*%
%TO.N,GND*%
X95500000Y-148775000D03*
%TD*%
D24*
%TO.P,R11,1*%
%TO.N,Net-(U7-VBUS)*%
X107000000Y-206412500D03*
%TO.P,R11,2*%
%TO.N,/Internal 5V & out usb/USB_1_BP*%
X107000000Y-204587500D03*
%TD*%
D25*
%TO.P,RV3,1,1*%
%TO.N,/Control & Fan/+5V_VSYS*%
X108500000Y-128260000D03*
D26*
%TO.P,RV3,2,2*%
%TO.N,Net-(U15A--)*%
X111000000Y-133260000D03*
%TO.P,RV3,3,3*%
%TO.N,GND*%
X113500000Y-128260000D03*
%TD*%
D24*
%TO.P,R63,1*%
%TO.N,/Control & Fan/+5V_VSYS*%
X153150000Y-223062500D03*
%TO.P,R63,2*%
%TO.N,Net-(U21-VPU)*%
X153150000Y-221237500D03*
%TD*%
D27*
%TO.P,U7,1,CSN/NTC*%
%TO.N,unconnected-(U7-CSN{slash}NTC-Pad1)*%
X102155000Y-208375000D03*
%TO.P,U7,2,CSP/FA*%
%TO.N,unconnected-(U7-CSP{slash}FA-Pad2)*%
X100885000Y-208375000D03*
%TO.P,U7,3,GND*%
%TO.N,GND*%
X99615000Y-208375000D03*
%TO.P,U7,4,FB*%
%TO.N,Net-(U3-Vfb)*%
X98345000Y-208375000D03*
%TO.P,U7,5,DM*%
%TO.N,/Internal 5V & out usb/USB_1_D-*%
X98345000Y-213625000D03*
%TO.P,U7,6,DP*%
%TO.N,/Internal 5V & out usb/USB_1_D+*%
X99615000Y-213625000D03*
%TO.P,U7,7,SEL*%
%TO.N,GND*%
X100885000Y-213625000D03*
%TO.P,U7,8,VBUS*%
%TO.N,Net-(U7-VBUS)*%
X102155000Y-213625000D03*
%TD*%
D28*
%TO.P,J2,1,Pin_1*%
%TO.N,/Internal 5V & out usb/V_STANDBY*%
X165100000Y-164750000D03*
%TD*%
D29*
%TO.P,F2,1*%
%TO.N,/Internal 5V & out usb/USB_2_+5V*%
X109500000Y-218100000D03*
D30*
%TO.P,F2,2*%
%TO.N,/Internal 5V & out usb/VBUS_2_+*%
X109500000Y-222900000D03*
%TD*%
D17*
%TO.P,J11,1,Pin_1*%
%TO.N,/Control & Fan/ATTINY_MOSI*%
X91525000Y-106075000D03*
D18*
%TO.P,J11,2,Pin_2*%
%TO.N,/Control & Fan/+5V_VSYS*%
X88985000Y-106075000D03*
%TO.P,J11,3,Pin_3*%
%TO.N,unconnected-(J11-Pin_3-Pad3)*%
X91525000Y-103535000D03*
%TO.P,J11,4,Pin_4*%
%TO.N,/Control & Fan/ATTINY_RXD*%
X88985000Y-103535000D03*
%TO.P,J11,5,Pin_5*%
%TO.N,/Control & Fan/POWER_OUTPUT_RESET#*%
X91525000Y-100995000D03*
%TO.P,J11,6,Pin_6*%
%TO.N,/Control & Fan/ATTINY_TXD*%
X88985000Y-100995000D03*
%TO.P,J11,7,Pin_7*%
%TO.N,/Control & Fan/ATTINY_SCK*%
X91525000Y-98455000D03*
%TO.P,J11,8,Pin_8*%
%TO.N,GND*%
X88985000Y-98455000D03*
%TO.P,J11,9,Pin_9*%
%TO.N,/Control & Fan/ATTINY_MISO*%
X91525000Y-95915000D03*
%TO.P,J11,10,Pin_10*%
%TO.N,GND*%
X88985000Y-95915000D03*
%TD*%
D17*
%TO.P,J20,1,Pin_1*%
%TO.N,/Output connectors/5V_FUSE*%
X186350000Y-230575000D03*
D18*
%TO.P,J20,2,Pin_2*%
%TO.N,GND*%
X186350000Y-233115000D03*
%TO.P,J20,3,Pin_3*%
%TO.N,/Output connectors/3.3V_FUSE*%
X188890000Y-230575000D03*
%TO.P,J20,4,Pin_4*%
%TO.N,GND*%
X188890000Y-233115000D03*
%TO.P,J20,5,Pin_5*%
%TO.N,/Output connectors/SIGNAL_OUT_PWR_5V*%
X191430000Y-230575000D03*
%TO.P,J20,6,Pin_6*%
%TO.N,GND*%
X191430000Y-233115000D03*
%TO.P,J20,7,Pin_7*%
%TO.N,/Output connectors/SIGNAL_OUT_PWR_3V3*%
X193970000Y-230575000D03*
%TO.P,J20,8,Pin_8*%
%TO.N,GND*%
X193970000Y-233115000D03*
%TD*%
D31*
%TO.P,R43,1*%
%TO.N,/Power output/RC_SNABBER_MIDDLEPOINT*%
X141000000Y-143360000D03*
D32*
%TO.P,R43,2*%
%TO.N,Net-(C39-Pad2)*%
X141000000Y-148440000D03*
%TD*%
D33*
%TO.P,D22,1,K*%
%TO.N,GND*%
X89750000Y-66750000D03*
D34*
%TO.P,D22,2,A*%
%TO.N,Net-(D22-A)*%
X89750000Y-64250000D03*
%TD*%
D35*
%TO.P,R21,1*%
%TO.N,/Internal 5V & out usb/VBUS_3*%
X143212500Y-223750000D03*
%TO.P,R21,2*%
%TO.N,/Internal 5V & out usb/VBUS_3_+*%
X140287500Y-223750000D03*
%TD*%
D36*
%TO.P,C12,1*%
%TO.N,Net-(C12-Pad1)*%
X188925200Y-160357200D03*
%TO.P,C12,2*%
%TO.N,/Internal 5V & out usb/400V*%
X188925200Y-145357200D03*
%TD*%
D35*
%TO.P,R14,1*%
%TO.N,/Internal 5V & out usb/VBUS_2*%
X117212500Y-223500000D03*
%TO.P,R14,2*%
%TO.N,/Internal 5V & out usb/VBUS_2_+*%
X114287500Y-223500000D03*
%TD*%
D37*
%TO.P,JP4,1,A*%
%TO.N,/Control & Fan/ATTINY_SCK*%
X91500000Y-110750000D03*
%TO.P,JP4,2,B*%
%TO.N,Net-(JP4-B)*%
X88960000Y-110750000D03*
%TD*%
D38*
%TO.P,TR1,1,1*%
%TO.N,Net-(D4-A-Pad1)*%
X127600000Y-185000000D03*
%TO.P,TR1,2,2*%
X127600000Y-164680000D03*
%TO.P,TR1,3,3*%
X132680000Y-185000000D03*
%TO.P,TR1,4,4*%
%TO.N,GND*%
X132680000Y-164680000D03*
%TO.P,TR1,5,5*%
%TO.N,Net-(D4-A-Pad1)*%
X137760000Y-185000000D03*
%TO.P,TR1,6,6*%
%TO.N,GND*%
X137760000Y-164680000D03*
%TO.P,TR1,7,7*%
%TO.N,Net-(D4-A-Pad3)*%
X142840000Y-185000000D03*
%TO.P,TR1,8,8*%
%TO.N,GND*%
X142840000Y-164680000D03*
%TO.P,TR1,9,9*%
%TO.N,Net-(D4-A-Pad3)*%
X147920000Y-185000000D03*
%TO.P,TR1,10,10*%
%TO.N,GND*%
X147920000Y-164680000D03*
%TO.P,TR1,11,11*%
%TO.N,Net-(D4-A-Pad3)*%
X153000000Y-185000000D03*
%TO.P,TR1,12,12*%
%TO.N,/Internal 5V & out usb/RC_SNABBER_MIDDLEPOINT*%
X153000000Y-164680000D03*
%TO.P,TR1,13,13*%
%TO.N,Net-(D4-A-Pad3)*%
X158080000Y-185000000D03*
%TO.P,TR1,14,14*%
%TO.N,Net-(C12-Pad1)*%
X158080000Y-164680000D03*
%TD*%
D22*
%TO.P,R60,1*%
%TO.N,GND*%
X190312500Y-225700000D03*
%TO.P,R60,2*%
%TO.N,/Output connectors/SIGNAL_OUT_PWR_5V*%
X188487500Y-225700000D03*
%TD*%
D39*
%TO.P,J12,1,Pin_1*%
%TO.N,Net-(J12-Pin_1)*%
X122025000Y-143000000D03*
D40*
%TO.P,J12,2,Pin_2*%
%TO.N,/Control & Fan/TFT_DC*%
X122025000Y-145500000D03*
%TO.P,J12,3,Pin_3*%
%TO.N,/Control & Fan/MOSI*%
X122025000Y-148000000D03*
%TO.P,J12,4,Pin_4*%
%TO.N,/Control & Fan/SCK*%
X122025000Y-150500000D03*
%TO.P,J12,5,Pin_5*%
%TO.N,/Control & Fan/MISO*%
X122025000Y-153000000D03*
%TO.P,J12,6,Pin_6*%
%TO.N,GND*%
X122025000Y-155500000D03*
%TD*%
D20*
%TO.P,D12,1,K*%
%TO.N,Net-(D12-K)*%
X149725000Y-218350000D03*
D21*
%TO.P,D12,2,A*%
%TO.N,/Internal 5V & out usb/+5V_OUT*%
X152265000Y-218350000D03*
%TD*%
D41*
%TO.P,C15,1*%
%TO.N,/Internal 5V & out usb/+5V_OUT*%
X124400000Y-194950000D03*
D31*
%TO.P,C15,2*%
%TO.N,GND*%
X116900000Y-194950000D03*
%TD*%
D42*
%TO.P,J22,1,Pin_1*%
%TO.N,GND*%
X169500000Y-232550000D03*
D43*
%TO.P,J22,2,Pin_2*%
%TO.N,/Output connectors/5V_FUSE*%
X172000000Y-232550000D03*
%TD*%
D44*
%TO.P,RV1,1*%
%TO.N,/Control & Fan/+5V_VSYS*%
X119287500Y-167500000D03*
%TO.P,RV1,2*%
%TO.N,GND*%
X122212500Y-167500000D03*
%TD*%
D45*
%TO.P,TP2,1,1*%
%TO.N,Net-(U19-+)*%
X128900000Y-62800000D03*
%TD*%
D46*
%TO.P,JP3,1,A*%
%TO.N,/Internal 5V & out usb/+5V_OUT*%
X134450000Y-209375000D03*
D47*
%TO.P,JP3,2,B*%
%TO.N,/Internal 5V & out usb/USB_3_+5V*%
X134450000Y-210825000D03*
%TD*%
D48*
%TO.P,C40,1*%
%TO.N,Net-(C39-Pad2)*%
X135000000Y-154250000D03*
%TO.P,C40,2*%
%TO.N,GNDPWR*%
X130000000Y-154250000D03*
%TD*%
D49*
%TO.P,J6,1,Pin_1*%
%TO.N,GND*%
X100175000Y-162000000D03*
D50*
%TO.P,J6,2,Pin_2*%
%TO.N,/Control & Fan/ENCODER_V_CLICK*%
X97675000Y-162000000D03*
%TO.P,J6,3,Pin_3*%
%TO.N,/Control & Fan/ENCODER_V_B*%
X95175000Y-162000000D03*
%TO.P,J6,4,Pin_4*%
%TO.N,/Control & Fan/ENCODER_V_A*%
X92675000Y-162000000D03*
%TD*%
D51*
%TO.P,J8,1,Pin_1*%
%TO.N,GND*%
X92075000Y-138800000D03*
D50*
%TO.P,J8,2,Pin_2*%
%TO.N,/Control & Fan/ENCODER_I_CLICK*%
X94575000Y-138800000D03*
%TO.P,J8,3,Pin_3*%
%TO.N,/Control & Fan/ENCODER_I_B*%
X97075000Y-138800000D03*
%TO.P,J8,4,Pin_4*%
%TO.N,/Control & Fan/ENCODER_I_A*%
X99575000Y-138800000D03*
%TD*%
D46*
%TO.P,JP2,1,A*%
%TO.N,/Internal 5V & out usb/+5V_OUT*%
X111500000Y-212525000D03*
D47*
%TO.P,JP2,2,B*%
%TO.N,/Internal 5V & out usb/USB_2_+5V*%
X111500000Y-213975000D03*
%TD*%
D23*
%TO.P,C51,1*%
%TO.N,GND*%
X148000000Y-71525000D03*
%TO.P,C51,2*%
%TO.N,/Control & Fan/+5V_VSYS*%
X148000000Y-73075000D03*
%TD*%
D39*
%TO.P,J14,1,Pin_1*%
%TO.N,GND*%
X90525000Y-191600000D03*
D40*
%TO.P,J14,2,Pin_2*%
%TO.N,/Output connectors/LIION_CHARGE_VBAT*%
X90525000Y-194100000D03*
%TO.P,J14,3,Pin_3*%
%TO.N,/Output connectors/LIION_CHARGE_LED2*%
X90525000Y-196600000D03*
%TO.P,J14,4,Pin_4*%
%TO.N,/Output connectors/LIION_CHARGE_LED1*%
X90525000Y-199100000D03*
%TO.P,J14,5,Pin_5*%
%TO.N,Net-(J14-Pin_5)*%
X90525000Y-201600000D03*
%TD*%
D52*
%TO.P,F6,1*%
%TO.N,/Output connectors/5V_-*%
X168100000Y-224500000D03*
D30*
%TO.P,F6,2*%
%TO.N,/Output connectors/5V_FUSE*%
X172900000Y-224500000D03*
%TD*%
D36*
%TO.P,C14,1*%
%TO.N,GNDPWR*%
X189992000Y-179305600D03*
%TO.P,C14,2*%
%TO.N,Net-(C12-Pad1)*%
X189992000Y-164305600D03*
%TD*%
D53*
%TO.P,D21,1,A*%
%TO.N,Net-(D21-A-Pad1)*%
X114600000Y-94500000D03*
D54*
%TO.P,D21,2,K*%
%TO.N,Net-(D21-K)*%
X114600000Y-89050000D03*
%TO.P,D21,3,A*%
%TO.N,Net-(D21-A-Pad3)*%
X114600000Y-83600000D03*
%TD*%
D55*
%TO.P,U12,1,PD3*%
%TO.N,/Control & Fan/ENCODER_I_B*%
X100325000Y-147400000D03*
%TO.P,U12,2,PD4*%
%TO.N,/Control & Fan/ENCODER_I_CLICK*%
X100325000Y-148200000D03*
%TO.P,U12,3,GND*%
%TO.N,GND*%
X100325000Y-149000000D03*
%TO.P,U12,4,VCC*%
%TO.N,/Control & Fan/+5V_VSYS*%
X100325000Y-149800000D03*
%TO.P,U12,5,GND*%
%TO.N,GND*%
X100325000Y-150600000D03*
%TO.P,U12,6,VCC*%
%TO.N,/Control & Fan/+5V_VSYS*%
X100325000Y-151400000D03*
%TO.P,U12,7,XTAL1/PB6*%
%TO.N,Net-(U12-XTAL1{slash}PB6)*%
X100325000Y-152200000D03*
%TO.P,U12,8,XTAL2/PB7*%
%TO.N,Net-(U12-XTAL2{slash}PB7)*%
X100325000Y-153000000D03*
D56*
%TO.P,U12,9,PD5*%
%TO.N,/Control & Fan/ENCODER_V_A*%
X101775000Y-154450000D03*
%TO.P,U12,10,PD6*%
%TO.N,/Control & Fan/ENCODER_V_B*%
X102575000Y-154450000D03*
%TO.P,U12,11,PD7*%
%TO.N,/Control & Fan/ENCODER_V_CLICK*%
X103375000Y-154450000D03*
%TO.P,U12,12,PB0*%
%TO.N,/Control & Fan/IS_ONOFF_BUTTON_PRESSED*%
X104175000Y-154450000D03*
%TO.P,U12,13,PB1*%
%TO.N,/Control & Fan/ENABLE_POWER_OUTPUT*%
X104975000Y-154450000D03*
%TO.P,U12,14,PB2*%
%TO.N,/Control & Fan/SIGNAL_OUT*%
X105775000Y-154450000D03*
%TO.P,U12,15,PB3*%
%TO.N,/Control & Fan/MOSI*%
X106575000Y-154450000D03*
%TO.P,U12,16,PB4*%
%TO.N,/Control & Fan/MISO*%
X107375000Y-154450000D03*
D55*
%TO.P,U12,17,PB5*%
%TO.N,/Control & Fan/SCK*%
X108825000Y-153000000D03*
%TO.P,U12,18,AVCC*%
%TO.N,/Control & Fan/+5V_VSYS*%
X108825000Y-152200000D03*
%TO.P,U12,19,ADC6*%
%TO.N,unconnected-(U12-ADC6-Pad19)*%
X108825000Y-151400000D03*
%TO.P,U12,20,AREF*%
%TO.N,/Control & Fan/+5V_VSYS*%
X108825000Y-150600000D03*
%TO.P,U12,21,GND*%
%TO.N,GND*%
X108825000Y-149800000D03*
%TO.P,U12,22,ADC7*%
%TO.N,unconnected-(U12-ADC7-Pad22)*%
X108825000Y-149000000D03*
%TO.P,U12,23,PC0*%
%TO.N,/Control & Fan/ENABLE_FAN*%
X108825000Y-148200000D03*
%TO.P,U12,24,PC1*%
%TO.N,/Control & Fan/POWER_OUTPUT_RESET#*%
X108825000Y-147400000D03*
D56*
%TO.P,U12,25,PC2*%
%TO.N,/Control & Fan/TFT_ENABLE#*%
X107375000Y-145950000D03*
%TO.P,U12,26,PC3*%
%TO.N,/Control & Fan/TFT_DC*%
X106575000Y-145950000D03*
%TO.P,U12,27,PC4*%
%TO.N,/Control & Fan/SDA*%
X105775000Y-145950000D03*
%TO.P,U12,28,PC5*%
%TO.N,/Control & Fan/SCL*%
X104975000Y-145950000D03*
%TO.P,U12,29,~{RESET}/PC6*%
%TO.N,/Control & Fan/RESET#*%
X104175000Y-145950000D03*
%TO.P,U12,30,PD0*%
%TO.N,/Control & Fan/RXD*%
X103375000Y-145950000D03*
%TO.P,U12,31,PD1*%
%TO.N,/Control & Fan/TXD*%
X102575000Y-145950000D03*
%TO.P,U12,32,PD2*%
%TO.N,/Control & Fan/ENCODER_I_A*%
X101775000Y-145950000D03*
%TD*%
D57*
%TO.P,QP1,1,G*%
%TO.N,Net-(QP1-G)*%
X153475000Y-147995000D03*
D58*
%TO.P,QP1,2,D*%
%TO.N,/Internal 5V & out usb/400V*%
X156015000Y-147995000D03*
%TO.P,QP1,3,S*%
%TO.N,/Power output/RC_SNABBER_MIDDLEPOINT*%
X158555000Y-147995000D03*
%TD*%
D24*
%TO.P,R31,1*%
%TO.N,Net-(D13-A)*%
X115500000Y-138662500D03*
%TO.P,R31,2*%
%TO.N,/Control & Fan/+5V_VSYS*%
X115500000Y-136837500D03*
%TD*%
D31*
%TO.P,R4,1*%
%TO.N,/Internal 5V & out usb/RC_SNABBER_MIDDLEPOINT*%
X182270400Y-178765200D03*
D32*
%TO.P,R4,2*%
%TO.N,Net-(C3-Pad2)*%
X182270400Y-183845200D03*
%TD*%
D20*
%TO.P,D8,1,A1*%
%TO.N,Net-(D8-A1)*%
X138250000Y-232250000D03*
D21*
%TO.P,D8,2,K*%
%TO.N,Net-(D8-K)*%
X135710000Y-232250000D03*
%TO.P,D8,3,A2*%
%TO.N,Net-(D8-A2)*%
X133170000Y-232250000D03*
%TD*%
D52*
%TO.P,F5,1*%
%TO.N,/Output connectors/3.3V_-*%
X168100000Y-219500000D03*
D30*
%TO.P,F5,2*%
%TO.N,/Output connectors/3.3V_FUSE*%
X172900000Y-219500000D03*
%TD*%
D59*
%TO.P,J4,1,VBUS*%
%TO.N,/Internal 5V & out usb/VBUS_2*%
X119000000Y-227272500D03*
D60*
%TO.P,J4,2,D-*%
%TO.N,Net-(J4-D-)*%
X121500000Y-227272500D03*
%TO.P,J4,3,D+*%
%TO.N,Net-(J4-D+)*%
X123500000Y-227272500D03*
%TO.P,J4,4,GND*%
%TO.N,GND*%
X126000000Y-227272500D03*
D61*
%TO.P,J4,5,Shield*%
X115250000Y-229982500D03*
X129750000Y-229982500D03*
%TD*%
D62*
%TO.P,Q8,1,G*%
%TO.N,/Control & Fan/POWER_OUTPUT_FB*%
X160062500Y-76350000D03*
%TO.P,Q8,2,S*%
%TO.N,GND*%
X160062500Y-78250000D03*
%TO.P,Q8,3,D*%
%TO.N,Net-(Q8-D)*%
X161937500Y-77300000D03*
%TD*%
D63*
%TO.P,J1,1,Pin_1*%
%TO.N,GNDPWR*%
X183750000Y-65250000D03*
D64*
%TO.P,J1,2,Pin_2*%
%TO.N,/Internal 5V & out usb/400V*%
X189750000Y-65250000D03*
%TD*%
D29*
%TO.P,F3,1*%
%TO.N,/Internal 5V & out usb/USB_3_+5V*%
X136000000Y-218600000D03*
D30*
%TO.P,F3,2*%
%TO.N,/Internal 5V & out usb/VBUS_3_+*%
X136000000Y-223400000D03*
%TD*%
D33*
%TO.P,M1,1,+*%
%TO.N,/Control & Fan/+5V_VSYS*%
X108975000Y-121000000D03*
D34*
%TO.P,M1,2,-*%
%TO.N,Net-(M1--)*%
X108975000Y-118500000D03*
%TD*%
D57*
%TO.P,QP2,1,G*%
%TO.N,Net-(QP2-G)*%
X171075000Y-148000000D03*
D58*
%TO.P,QP2,2,D*%
%TO.N,/Power output/RC_SNABBER_MIDDLEPOINT*%
X173615000Y-148000000D03*
%TO.P,QP2,3,S*%
%TO.N,GNDPWR*%
X176155000Y-148000000D03*
%TD*%
D23*
%TO.P,C13,1*%
%TO.N,GND*%
X104500000Y-204975000D03*
%TO.P,C13,2*%
%TO.N,Net-(U7-VBUS)*%
X104500000Y-206525000D03*
%TD*%
D65*
%TO.P,R7,1*%
%TO.N,/Internal 5V & out usb/USB_1_BP*%
X94337500Y-208500000D03*
%TO.P,R7,2*%
%TO.N,Net-(U3-Vfb)*%
X96162500Y-208500000D03*
%TD*%
D66*
%TO.P,TH1,1*%
%TO.N,/Control & Fan/+5V_VSYS*%
X119025000Y-129100000D03*
D34*
%TO.P,TH1,2*%
%TO.N,Net-(U15A-+)*%
X119025000Y-131600000D03*
%TD*%
D48*
%TO.P,C5,1*%
%TO.N,Net-(C3-Pad2)*%
X174599600Y-181203600D03*
%TO.P,C5,2*%
%TO.N,GNDPWR*%
X174599600Y-186203600D03*
%TD*%
D67*
%TO.P,X2,1,~{ST}*%
%TO.N,/Control & Fan/+5V_VSYS*%
X87700000Y-116325000D03*
%TO.P,X2,2,GND*%
%TO.N,GND*%
X89800000Y-116325000D03*
%TO.P,X2,3,OUT*%
%TO.N,Net-(JP4-B)*%
X89800000Y-114675000D03*
%TO.P,X2,4,Vcc*%
%TO.N,/Control & Fan/+5V_VSYS*%
X87700000Y-114675000D03*
%TD*%
D66*
%TO.P,TH2,1*%
%TO.N,/Control & Fan/+5V_VSYS*%
X93500000Y-129250000D03*
D34*
%TO.P,TH2,2*%
%TO.N,Net-(U15B-+)*%
X93500000Y-131750000D03*
%TD*%
D65*
%TO.P,R20,1*%
%TO.N,/Internal 5V & out usb/VREF_2V5*%
X106337500Y-212250000D03*
%TO.P,R20,2*%
%TO.N,GND*%
X108162500Y-212250000D03*
%TD*%
D48*
%TO.P,C39,1*%
%TO.N,/Internal 5V & out usb/400V*%
X144250000Y-154250000D03*
%TO.P,C39,2*%
%TO.N,Net-(C39-Pad2)*%
X139250000Y-154250000D03*
%TD*%
D68*
%TO.P,L3,1,1*%
%TO.N,Net-(D21-K)*%
X91000000Y-84100000D03*
%TO.P,L3,2,2*%
%TO.N,Net-(U19-+)*%
X91000000Y-78400000D03*
%TD*%
D31*
%TO.P,C45,1*%
%TO.N,GNDPWR*%
X189800000Y-132350000D03*
%TO.P,C45,2*%
%TO.N,Net-(C44-Pad1)*%
X189800000Y-109850000D03*
%TD*%
D69*
%TO.P,F4,1*%
%TO.N,/Internal 5V & out usb/+5V_OUT*%
X119000000Y-178975000D03*
%TO.P,F4,2*%
%TO.N,/Control & Fan/+5V_VSYS*%
X119000000Y-172565000D03*
%TD*%
D22*
%TO.P,R55,1*%
%TO.N,Net-(Q11-G)*%
X194612500Y-218400000D03*
%TO.P,R55,2*%
%TO.N,/Output connectors/3.3V_FUSE*%
X192787500Y-218400000D03*
%TD*%
D20*
%TO.P,D11,1,A1*%
%TO.N,Net-(D11-A1)*%
X164800000Y-232250000D03*
D21*
%TO.P,D11,2,K*%
%TO.N,Net-(D11-K)*%
X162260000Y-232250000D03*
%TO.P,D11,3,A2*%
%TO.N,Net-(D11-A2)*%
X159720000Y-232250000D03*
%TD*%
D25*
%TO.P,RV4,1,1*%
%TO.N,/Control & Fan/+5V_VSYS*%
X98425000Y-128260000D03*
D26*
%TO.P,RV4,2,2*%
%TO.N,Net-(U15B--)*%
X100925000Y-133260000D03*
%TO.P,RV4,3,3*%
%TO.N,GND*%
X103425000Y-128260000D03*
%TD*%
D70*
%TO.P,U1,1,IN-3*%
%TO.N,/Internal 5V & out usb/VBUS_3*%
X123737500Y-217775000D03*
%TO.P,U1,2,IN+3*%
%TO.N,/Internal 5V & out usb/VBUS_3_+*%
X123737500Y-217125000D03*
%TO.P,U1,3,GND*%
%TO.N,GND*%
X123737500Y-216475000D03*
%TO.P,U1,4,VS*%
%TO.N,/Control & Fan/+5V_VSYS*%
X123737500Y-215825000D03*
D71*
%TO.P,U1,5,A0*%
X122850000Y-214937500D03*
%TO.P,U1,6,SCL*%
%TO.N,/Control & Fan/SCL*%
X122200000Y-214937500D03*
%TO.P,U1,7,SDA*%
%TO.N,/Control & Fan/SDA*%
X121550000Y-214937500D03*
%TO.P,U1,8,WARNING*%
%TO.N,unconnected-(U1-WARNING-Pad8)*%
X120900000Y-214937500D03*
D70*
%TO.P,U1,9,CRITICAL*%
%TO.N,unconnected-(U1-CRITICAL-Pad9)*%
X120012500Y-215825000D03*
%TO.P,U1,10,PV*%
%TO.N,unconnected-(U1-PV-Pad10)*%
X120012500Y-216475000D03*
%TO.P,U1,11,IN-1*%
%TO.N,/Internal 5V & out usb/VBUS_1*%
X120012500Y-217125000D03*
%TO.P,U1,12,IN+1*%
%TO.N,/Internal 5V & out usb/VBUS_1_+*%
X120012500Y-217775000D03*
D71*
%TO.P,U1,13,TC*%
%TO.N,unconnected-(U1-TC-Pad13)*%
X120900000Y-218662500D03*
%TO.P,U1,14,IN-2*%
%TO.N,/Internal 5V & out usb/VBUS_2*%
X121550000Y-218662500D03*
%TO.P,U1,15,IN+2*%
%TO.N,/Internal 5V & out usb/VBUS_2_+*%
X122200000Y-218662500D03*
%TO.P,U1,16,VPU*%
%TO.N,Net-(U1-VPU)*%
X122850000Y-218662500D03*
D16*
%TO.P,U1,17,EP*%
%TO.N,GND*%
X121875000Y-216800000D03*
%TD*%
D65*
%TO.P,R59,1*%
%TO.N,GND*%
X192887500Y-225700000D03*
%TO.P,R59,2*%
%TO.N,/Output connectors/SIGNAL_OUT_PWR_3V3*%
X194712500Y-225700000D03*
%TD*%
D57*
%TO.P,Q3,1,G*%
%TO.N,Net-(Q3-G)*%
X176960000Y-166695000D03*
D58*
%TO.P,Q3,2,D*%
%TO.N,/Internal 5V & out usb/RC_SNABBER_MIDDLEPOINT*%
X179500000Y-166695000D03*
%TO.P,Q3,3,S*%
%TO.N,GNDPWR*%
X182040000Y-166695000D03*
%TD*%
D29*
%TO.P,F1,1*%
%TO.N,/Internal 5V & out usb/USB_1_BP*%
X90000000Y-211000000D03*
D30*
%TO.P,F1,2*%
%TO.N,/Internal 5V & out usb/VBUS_1_+*%
X90000000Y-215800000D03*
%TD*%
D72*
%TO.P,SW3,1,1*%
%TO.N,/Control & Fan/+5V_VSYS*%
X109000000Y-162000000D03*
D43*
%TO.P,SW3,2,2*%
%TO.N,/Control & Fan/IS_ONOFF_BUTTON_PRESSED*%
X106500000Y-162000000D03*
%TD*%
D73*
%TO.P,D6,1,A1*%
%TO.N,GND*%
X122900000Y-162000000D03*
%TO.P,D6,2,A2*%
%TO.N,/Control & Fan/+5V_VSYS*%
X116100000Y-162000000D03*
%TD*%
D74*
%TO.P,J16,1,Pin_1*%
%TO.N,/Output connectors/POWER_OUT*%
X154300000Y-68526400D03*
D64*
%TO.P,J16,2,Pin_2*%
%TO.N,GND*%
X154300000Y-74526400D03*
%TD*%
D59*
%TO.P,J3,1,VBUS*%
%TO.N,/Internal 5V & out usb/VBUS_1*%
X92500000Y-227272500D03*
D60*
%TO.P,J3,2,D-*%
%TO.N,/Internal 5V & out usb/USB_1_D-*%
X95000000Y-227272500D03*
%TO.P,J3,3,D+*%
%TO.N,/Internal 5V & out usb/USB_1_D+*%
X97000000Y-227272500D03*
%TO.P,J3,4,GND*%
%TO.N,GND*%
X99500000Y-227272500D03*
D61*
%TO.P,J3,5,Shield*%
X88750000Y-229982500D03*
X103250000Y-229982500D03*
%TD*%
D35*
%TO.P,R12,1*%
%TO.N,/Internal 5V & out usb/VBUS_1*%
X92462500Y-222300000D03*
%TO.P,R12,2*%
%TO.N,/Internal 5V & out usb/VBUS_1_+*%
X89537500Y-222300000D03*
%TD*%
D11*
%TO.P,C11,1*%
%TO.N,/Internal 5V & out usb/USB_1_BP*%
X106475000Y-196200000D03*
D75*
%TO.P,C11,2*%
%TO.N,GND*%
X102975000Y-196200000D03*
%TD*%
D59*
%TO.P,J5,1,VBUS*%
%TO.N,/Internal 5V & out usb/VBUS_3*%
X145500000Y-227272500D03*
D60*
%TO.P,J5,2,D-*%
%TO.N,Net-(J5-D-)*%
X148000000Y-227272500D03*
%TO.P,J5,3,D+*%
%TO.N,Net-(J5-D+)*%
X150000000Y-227272500D03*
%TO.P,J5,4,GND*%
%TO.N,GND*%
X152500000Y-227272500D03*
D61*
%TO.P,J5,5,Shield*%
X141750000Y-229982500D03*
X156250000Y-229982500D03*
%TD*%
D22*
%TO.P,R56,1*%
%TO.N,Net-(Q10-D)*%
X190312500Y-218400000D03*
%TO.P,R56,2*%
%TO.N,/Output connectors/5V_FUSE*%
X188487500Y-218400000D03*
%TD*%
D42*
%TO.P,J21,1,Pin_1*%
%TO.N,GND*%
X178750000Y-232550000D03*
D43*
%TO.P,J21,2,Pin_2*%
%TO.N,/Output connectors/3.3V_FUSE*%
X181250000Y-232550000D03*
%TD*%
D76*
%TO.P,JP1,1,A*%
%TO.N,/Internal 5V & out usb/+5V_OUT*%
X112100000Y-175335000D03*
D77*
%TO.P,JP1,2,B*%
%TO.N,/Internal 5V & out usb/USB_1_+5V*%
X112100000Y-173430000D03*
%TD*%
D78*
%TO.P,L2,1,1*%
%TO.N,Net-(D4-K)*%
X134850000Y-200850000D03*
%TO.P,L2,2,2*%
%TO.N,/Internal 5V & out usb/+5V_OUT*%
X134850000Y-191250000D03*
%TD*%
D79*
%TO.P,D4,1,A*%
%TO.N,Net-(D4-A-Pad1)*%
X162250000Y-198770000D03*
D80*
%TO.P,D4,2,K*%
%TO.N,Net-(D4-K)*%
X167700000Y-198770000D03*
%TO.P,D4,3,A*%
%TO.N,Net-(D4-A-Pad3)*%
X173150000Y-198770000D03*
%TD*%
D48*
%TO.P,C3,1*%
%TO.N,/Internal 5V & out usb/400V*%
X164672000Y-181152800D03*
%TO.P,C3,2*%
%TO.N,Net-(C3-Pad2)*%
X169672000Y-181152800D03*
%TD*%
D41*
%TO.P,C46,1*%
%TO.N,Net-(U19-+)*%
X136200000Y-68222220D03*
D31*
%TO.P,C46,2*%
%TO.N,GND*%
X136200000Y-75722220D03*
%TD*%
D13*
%TO.P,Q11,1,G*%
%TO.N,Net-(Q11-G)*%
X194650000Y-220662500D03*
%TO.P,Q11,2,S*%
%TO.N,/Output connectors/3.3V_FUSE*%
X192750000Y-220662500D03*
%TO.P,Q11,3,D*%
%TO.N,/Output connectors/SIGNAL_OUT_PWR_3V3*%
X193700000Y-222537500D03*
%TD*%
D81*
%TO.P,J15,1,Pin_1*%
%TO.N,/Internal 5V & out usb/+5V_OUT*%
X121000000Y-205750000D03*
D64*
%TO.P,J15,2,Pin_2*%
%TO.N,GND*%
X115000000Y-205750000D03*
%TD*%
D42*
%TO.P,D13,1,K*%
%TO.N,Net-(D13-K)*%
X105875000Y-139000000D03*
D43*
%TO.P,D13,2,A*%
%TO.N,Net-(D13-A)*%
X108375000Y-139000000D03*
%TD*%
D57*
%TO.P,Q2,1,G*%
%TO.N,Net-(Q2-G)*%
X173960000Y-173695000D03*
D58*
%TO.P,Q2,2,D*%
%TO.N,/Internal 5V & out usb/400V*%
X176500000Y-173695000D03*
%TO.P,Q2,3,S*%
%TO.N,/Internal 5V & out usb/RC_SNABBER_MIDDLEPOINT*%
X179040000Y-173695000D03*
%TD*%
D82*
%TO.P,TP1,1,1*%
%TO.N,GND*%
X91275000Y-121200000D03*
%TD*%
D31*
%TO.P,C44,1*%
%TO.N,Net-(C44-Pad1)*%
X189800000Y-104918000D03*
%TO.P,C44,2*%
%TO.N,/Internal 5V & out usb/400V*%
X189800000Y-82418000D03*
%TD*%
D83*
%TO.P,X1,1,1*%
%TO.N,Net-(U12-XTAL2{slash}PB7)*%
X91375000Y-152450000D03*
%TO.P,X1,2,2*%
%TO.N,Net-(U12-XTAL1{slash}PB6)*%
X91375000Y-147570000D03*
%TD*%
D84*
%TO.P,L1,1,1*%
%TO.N,/Internal 5V & out usb/USB_1_+5V*%
X94100000Y-169950000D03*
%TO.P,L1,2,2*%
%TO.N,Net-(D2-A)*%
X94100000Y-181050000D03*
%TD*%
D85*
%TO.P,Q1,1,G*%
%TO.N,Net-(Q1-G)*%
X95020000Y-192900000D03*
D86*
%TO.P,Q1,2,D*%
%TO.N,Net-(D2-A)*%
X95775000Y-188275000D03*
X98825000Y-188275000D03*
D87*
X97300000Y-186600000D03*
D86*
X95775000Y-184925000D03*
X98825000Y-184925000D03*
D85*
%TO.P,Q1,3,S*%
%TO.N,GND*%
X99580000Y-192900000D03*
%TD*%
D88*
%TO.P,C28,1*%
%TO.N,Net-(U12-XTAL2{slash}PB7)*%
X95500000Y-152775000D03*
%TO.P,C28,2*%
%TO.N,GND*%
X95500000Y-151225000D03*
%TD*%
D38*
%TO.P,TR2,1,1*%
%TO.N,/Power output/RC_SNABBER_MIDDLEPOINT*%
X174920000Y-134360000D03*
%TO.P,TR2,2,2*%
%TO.N,Net-(D21-A-Pad1)*%
X134280000Y-134360000D03*
%TO.P,TR2,3,3*%
%TO.N,/Power output/RC_SNABBER_MIDDLEPOINT*%
X174920000Y-129280000D03*
%TO.P,TR2,4,4*%
%TO.N,Net-(D21-A-Pad1)*%
X134280000Y-129280000D03*
%TO.P,TR2,5*%
%TO.N,N/C*%
X174920000Y-124200000D03*
%TO.P,TR2,6,6*%
%TO.N,Net-(D21-A-Pad1)*%
X134280000Y-124200000D03*
%TO.P,TR2,7,7*%
%TO.N,Net-(C44-Pad1)*%
X174920000Y-119120000D03*
%TO.P,TR2,8,8*%
%TO.N,Net-(D21-A-Pad1)*%
X134280000Y-119120000D03*
%TO.P,TR2,9,9*%
%TO.N,Net-(C44-Pad1)*%
X174920000Y-114040000D03*
%TO.P,TR2,10*%
%TO.N,N/C*%
X134280000Y-114040000D03*
%TO.P,TR2,11*%
X174920000Y-108960000D03*
%TO.P,TR2,12*%
X134280000Y-108960000D03*
%TO.P,TR2,13,13*%
%TO.N,Net-(D21-A-Pad3)*%
X174920000Y-103880000D03*
%TO.P,TR2,14,14*%
%TO.N,GND*%
X134280000Y-103880000D03*
%TO.P,TR2,15,15*%
%TO.N,Net-(D21-A-Pad3)*%
X174920000Y-98800000D03*
%TO.P,TR2,16,16*%
%TO.N,GND*%
X134280000Y-98800000D03*
%TO.P,TR2,17,17*%
%TO.N,Net-(D21-A-Pad3)*%
X174920000Y-93720000D03*
%TO.P,TR2,18,18*%
%TO.N,GND*%
X134280000Y-93720000D03*
%TO.P,TR2,19,19*%
%TO.N,Net-(D21-A-Pad3)*%
X174920000Y-88640000D03*
%TO.P,TR2,20,20*%
%TO.N,GND*%
X134280000Y-88640000D03*
%TD*%
D65*
%TO.P,R8,1*%
%TO.N,Net-(U3-Vfb)*%
X94587500Y-211250000D03*
%TO.P,R8,2*%
%TO.N,GND*%
X96412500Y-211250000D03*
%TD*%
D89*
%TO.P,D2,1,K*%
%TO.N,/Internal 5V & out usb/USB_1_BP*%
X111050000Y-185755000D03*
D90*
%TO.P,D2,2,A*%
%TO.N,Net-(D2-A)*%
X111050000Y-181945000D03*
%TD*%
D11*
%TO.P,U2,1*%
%TO.N,Net-(R1-Pad1)*%
X137275000Y-180550000D03*
D12*
%TO.P,U2,2*%
%TO.N,/Internal 5V & out usb/FEEDBACK*%
X134735000Y-180550000D03*
%TO.P,U2,3*%
%TO.N,GNDPWR*%
X134735000Y-172930000D03*
%TO.P,U2,4*%
%TO.N,Net-(U5-CT)*%
X137275000Y-172930000D03*
%TD*%
D91*
%TO.N,GNDPWR*%
X156000000Y-158750000D03*
X149250000Y-171500000D03*
%TO.N,GND*%
X121250000Y-216250000D03*
X98000000Y-149750000D03*
X95500000Y-150000000D03*
X122500000Y-217250000D03*
X110750000Y-77750000D03*
X109000000Y-72500000D03*
X122750000Y-164500000D03*
X121250000Y-217250000D03*
X144800000Y-71587500D03*
X122500000Y-216250000D03*
X151100000Y-222250000D03*
X189500000Y-214500000D03*
X92000000Y-115000000D03*
X107250000Y-149800000D03*
X109250000Y-213750000D03*
%TO.N,/Control & Fan/+5V_VSYS*%
X112900000Y-135500000D03*
X103250000Y-101525000D03*
X114250000Y-162000000D03*
X111250000Y-122000000D03*
X153300000Y-224600000D03*
X104000000Y-151400000D03*
X96500000Y-233500000D03*
X150000000Y-233500000D03*
X150300000Y-73200000D03*
X98000000Y-121500000D03*
X123250000Y-233500000D03*
X126500000Y-215500000D03*
X145500000Y-81600000D03*
%TO.N,/Internal 5V & out usb/USB_1_+5V*%
X107500000Y-169950000D03*
%TO.N,/Internal 5V & out usb/+3.3_VOUT*%
X161700000Y-219200000D03*
%TO.N,/Control & Fan/RESET#*%
X103887500Y-147800000D03*
%TO.N,/Control & Fan/POWER_OUTPUT_RESET#*%
X110500000Y-145750000D03*
%TO.N,Net-(U3-Vfb)*%
X97200000Y-201400000D03*
%TO.N,/Control & Fan/ENABLE_FAN*%
X97000000Y-119250000D03*
X110500000Y-147250000D03*
%TO.N,/Internal 5V & out usb/VBUS_1_+*%
X114750000Y-216000000D03*
X97300000Y-219800000D03*
%TO.N,/Internal 5V & out usb/VBUS_3_+*%
X140024897Y-221125604D03*
X126500000Y-217025500D03*
%TO.N,/Internal 5V & out usb/VBUS_1*%
X92750000Y-224500000D03*
X114000000Y-215250000D03*
X95450000Y-220550000D03*
%TO.N,/Internal 5V & out usb/VBUS_2*%
X118750000Y-224250000D03*
X118500000Y-220250000D03*
X117250000Y-221749500D03*
%TO.N,/Internal 5V & out usb/VBUS_3*%
X145250000Y-224250000D03*
%TO.N,/Output connectors/POWER_OUT*%
X150500000Y-66800000D03*
X150500000Y-67600000D03*
X150500000Y-68500000D03*
X150500000Y-69300000D03*
%TO.N,/Internal 5V & out usb/+5V_OUT*%
X136250000Y-191750000D03*
X135350000Y-190750000D03*
X135300000Y-189900000D03*
X133450000Y-190750000D03*
X134300000Y-189900000D03*
X136250000Y-190750000D03*
X133400000Y-189900000D03*
X105400000Y-208150000D03*
X136250000Y-192750000D03*
X134350000Y-190750000D03*
X134350000Y-191750000D03*
X135350000Y-191750000D03*
X133450000Y-191750000D03*
X134350000Y-192750000D03*
X135350000Y-192750000D03*
X136200000Y-189900000D03*
X162000000Y-222249500D03*
X133450000Y-192750000D03*
X158900000Y-217250000D03*
X161750000Y-208500000D03*
%TO.N,/Control & Fan/TFT_ENABLE#*%
X109500000Y-145000000D03*
%TO.N,/Control & Fan/POWER_OUTPUT_FB*%
X156599312Y-80750500D03*
X158500000Y-76350000D03*
X124260000Y-115740000D03*
%TO.N,/Control & Fan/IS_ONOFF_BUTTON_PRESSED*%
X120250000Y-119750000D03*
%TO.N,/Internal 5V & out usb/VREF_2V5*%
X150250000Y-230250000D03*
X123250000Y-230500000D03*
X121000000Y-233000000D03*
X96375000Y-230375000D03*
X94885000Y-232885000D03*
X147500000Y-232750000D03*
%TO.N,/Control & Fan/SCL*%
X147400000Y-222800000D03*
X105250000Y-144250000D03*
X109250000Y-104250000D03*
X122500000Y-210850500D03*
%TO.N,/Control & Fan/SDA*%
X146400000Y-222750000D03*
X110450000Y-103750000D03*
X106500000Y-144129500D03*
X121450500Y-211650000D03*
%TO.N,Net-(U19-+)*%
X144800000Y-67600000D03*
X144800000Y-66800000D03*
X91000000Y-79000000D03*
X144800000Y-69300000D03*
X89750000Y-79000000D03*
X144800000Y-68500000D03*
X89750000Y-78000000D03*
X91000000Y-78000000D03*
X92250000Y-79000000D03*
X92250000Y-78000000D03*
%TO.N,/Control & Fan/TFT_DC*%
X110250000Y-144250000D03*
%TO.N,/Internal 5V & out usb/V_STANDBY*%
X158000000Y-126250000D03*
X150500000Y-176000000D03*
%TO.N,Net-(D4-K)*%
X136250000Y-200250000D03*
X136250000Y-202250000D03*
X135350000Y-200250000D03*
X133400000Y-199400000D03*
X133450000Y-200250000D03*
X136200000Y-199400000D03*
X134350000Y-200250000D03*
X134350000Y-201250000D03*
X135350000Y-202250000D03*
X135300000Y-199400000D03*
X133450000Y-201250000D03*
X134300000Y-199400000D03*
X136250000Y-201250000D03*
X135350000Y-201250000D03*
X133450000Y-202250000D03*
X134350000Y-202250000D03*
%TO.N,/Control & Fan/ATTINY_SCK*%
X96250000Y-101750000D03*
%TO.N,/Control & Fan/SIGNAL_OUT*%
X114073956Y-158573956D03*
X176200000Y-219800000D03*
X173472536Y-221527464D03*
%TO.N,/Control & Fan/POWER_OUTPUT_OVERLOADED_LED*%
X107000000Y-106000000D03*
X103000000Y-141000000D03*
%TO.N,Net-(Q10-D)*%
X190400000Y-219600000D03*
%TO.N,/Control & Fan/POWER_OUTPUT_VOLT_SENSE*%
X114750000Y-78750000D03*
X121500000Y-73250000D03*
%TO.N,/Control & Fan/POWER_OUTPUT_CURRENT_SENSE*%
X110500000Y-80000000D03*
X124250000Y-76250000D03*
%TO.N,Net-(D21-K)*%
X91000000Y-83500000D03*
X92250000Y-84750000D03*
X89750000Y-84750000D03*
X92250000Y-83500000D03*
X89750000Y-83500000D03*
X91000000Y-84750000D03*
%TO.N,/Control & Fan/ENABLE_POWER_OUTPUT*%
X106718748Y-157542171D03*
X115750000Y-122912500D03*
%TO.N,/Control & Fan/ATTINY_RXD*%
X110250000Y-100750000D03*
%TO.N,/Control & Fan/ATTINY_TXD*%
X112000000Y-101250000D03*
%TO.N,/Output connectors/3.3V_-*%
X161900000Y-220300000D03*
%TO.N,/Output connectors/5V_-*%
X162049500Y-223600000D03*
%TO.N,Net-(Q1-G)*%
X97000000Y-192100000D03*
%TO.N,Net-(Q11-G)*%
X194612500Y-219587500D03*
%TD*%
D92*
%TO.N,GND*%
X100885000Y-211635000D02*
X100885000Y-213625000D01*
D93*
X150625000Y-71525000D02*
X148000000Y-71525000D01*
D94*
X100325000Y-149000000D02*
X101425000Y-149000000D01*
X101475000Y-150550000D02*
X101425000Y-150600000D01*
X101525000Y-149800000D02*
X101475000Y-149750000D01*
D95*
X100200000Y-192900000D02*
X100200000Y-193425000D01*
D94*
X101425000Y-150600000D02*
X100325000Y-150600000D01*
D93*
X151300000Y-72200000D02*
X150625000Y-71525000D01*
D94*
X193970000Y-233115000D02*
X192770000Y-231915000D01*
X101425000Y-149000000D02*
X101475000Y-149050000D01*
X123000000Y-216475000D02*
X122500000Y-216250000D01*
D93*
X100250000Y-112000000D02*
X137000000Y-112000000D01*
D92*
X100275000Y-204025000D02*
X99615000Y-204685000D01*
D93*
X144712500Y-71500000D02*
X139322220Y-71500000D01*
D92*
X100275000Y-198900000D02*
X102975000Y-196200000D01*
D93*
X151300000Y-77200000D02*
X151300000Y-72200000D01*
X155237500Y-222075000D02*
X156775000Y-222075000D01*
D94*
X192770000Y-231915000D02*
X192770000Y-225617500D01*
D93*
X100000000Y-211250000D02*
X100250000Y-211000000D01*
D92*
X122212500Y-167500000D02*
X122212500Y-165037500D01*
D93*
X150350000Y-78250000D02*
X150300000Y-78200000D01*
D94*
X107250000Y-149800000D02*
X101525000Y-149800000D01*
D93*
X89800000Y-116325000D02*
X90675000Y-116325000D01*
D94*
X101475000Y-149750000D02*
X101475000Y-150550000D01*
D96*
X134280000Y-103880000D02*
X134280000Y-77642220D01*
D92*
X100275000Y-204025000D02*
X100275000Y-198900000D01*
D93*
X96412500Y-211250000D02*
X100000000Y-211250000D01*
X137000000Y-112000000D02*
X139500000Y-109500000D01*
X160062500Y-78250000D02*
X150350000Y-78250000D01*
D95*
X100200000Y-193425000D02*
X102975000Y-196200000D01*
D93*
X144887500Y-71500000D02*
X147975000Y-71500000D01*
X144800000Y-71587500D02*
X144887500Y-71500000D01*
D94*
X100325000Y-149000000D02*
X98750000Y-149000000D01*
D92*
X99615000Y-208375000D02*
X99615000Y-210365000D01*
D93*
X95500000Y-150000000D02*
X95500000Y-151225000D01*
X139500000Y-109500000D02*
X139500000Y-89000000D01*
D92*
X108162500Y-212250000D02*
X108162500Y-212662500D01*
X108162500Y-212662500D02*
X109250000Y-213750000D01*
X122900000Y-164350000D02*
X122750000Y-164500000D01*
D94*
X192887500Y-225500000D02*
X190512500Y-225500000D01*
X98750000Y-149000000D02*
X98000000Y-149750000D01*
D93*
X91275000Y-120975000D02*
X100250000Y-112000000D01*
D94*
X101475000Y-149050000D02*
X101475000Y-149750000D01*
D93*
X139322220Y-71500000D02*
X135100000Y-75722220D01*
X144800000Y-71587500D02*
X144712500Y-71500000D01*
X99905000Y-204975000D02*
X99615000Y-204685000D01*
D92*
X100250000Y-211000000D02*
X100885000Y-211635000D01*
D93*
X150300000Y-78200000D02*
X151300000Y-77200000D01*
D96*
X116900000Y-194950000D02*
X115000000Y-196850000D01*
D92*
X99615000Y-210365000D02*
X100250000Y-211000000D01*
X98875000Y-198900000D02*
X98775000Y-199000000D01*
X100275000Y-198900000D02*
X98875000Y-198900000D01*
D93*
X90675000Y-116325000D02*
X92000000Y-115000000D01*
D94*
X155212500Y-222100000D02*
X151250000Y-222100000D01*
D96*
X134280000Y-77642220D02*
X136200000Y-75722220D01*
D92*
X122212500Y-165037500D02*
X122750000Y-164500000D01*
X122900000Y-162000000D02*
X122900000Y-164350000D01*
D93*
X104500000Y-204975000D02*
X99905000Y-204975000D01*
D94*
X155237500Y-221425000D02*
X155237500Y-222725000D01*
D93*
X95500000Y-148775000D02*
X95500000Y-150000000D01*
D94*
X107250000Y-149800000D02*
X108825000Y-149800000D01*
X151250000Y-222100000D02*
X151100000Y-222250000D01*
X123737500Y-216475000D02*
X123000000Y-216475000D01*
D93*
X139500000Y-89000000D02*
X150300000Y-78200000D01*
D96*
X115000000Y-196850000D02*
X115000000Y-205750000D01*
D92*
X99615000Y-204685000D02*
X99615000Y-208375000D01*
%TO.N,/Control & Fan/+5V_VSYS*%
X87750000Y-125000000D02*
X87750000Y-121613730D01*
X97000000Y-125000000D02*
X106000000Y-125000000D01*
D93*
X98000000Y-124000000D02*
X97000000Y-125000000D01*
D92*
X119250000Y-165150000D02*
X119250000Y-172315000D01*
D93*
X108500000Y-128260000D02*
X105250000Y-125010000D01*
X114100000Y-135500000D02*
X115437500Y-136837500D01*
X138650000Y-88850000D02*
X138650000Y-109100000D01*
D94*
X104000000Y-151400000D02*
X107050000Y-151400000D01*
D93*
X138650000Y-109100000D02*
X136450000Y-111300000D01*
X105250000Y-125010000D02*
X105250000Y-125000000D01*
X127581250Y-215418750D02*
X123331250Y-215418750D01*
D92*
X114350000Y-163750000D02*
X89500000Y-163750000D01*
X89500000Y-163750000D02*
X87750000Y-162000000D01*
D93*
X87650000Y-107410000D02*
X87650000Y-118900000D01*
X119025000Y-129100000D02*
X115175000Y-125250000D01*
X93500000Y-127000000D02*
X91500000Y-125000000D01*
X103250000Y-106250000D02*
X103250000Y-101525000D01*
X123331250Y-215418750D02*
X123737500Y-215825000D01*
D94*
X104000000Y-151400000D02*
X100325000Y-151400000D01*
D92*
X87750000Y-135500000D02*
X112900000Y-135500000D01*
X114250000Y-162000000D02*
X116100000Y-162000000D01*
X91500000Y-125000000D02*
X97000000Y-125000000D01*
D93*
X98425000Y-126425000D02*
X97000000Y-125000000D01*
D92*
X116100000Y-162000000D02*
X119250000Y-165150000D01*
D93*
X155237500Y-223375000D02*
X153462500Y-223375000D01*
X153300000Y-223212500D02*
X153300000Y-224600000D01*
X113000289Y-135500000D02*
X114100000Y-135500000D01*
D94*
X99175000Y-151350000D02*
X99175000Y-150075000D01*
D92*
X87750000Y-162000000D02*
X87750000Y-135500000D01*
D93*
X115175000Y-125250000D02*
X106250000Y-125250000D01*
X93500000Y-129250000D02*
X93500000Y-127000000D01*
D94*
X108825000Y-150600000D02*
X107850000Y-150600000D01*
D93*
X98200000Y-111300000D02*
X103250000Y-106250000D01*
D92*
X87750000Y-135500000D02*
X87750000Y-125000000D01*
D94*
X99450000Y-149800000D02*
X100325000Y-149800000D01*
X107850000Y-150600000D02*
X107050000Y-151400000D01*
D93*
X145500000Y-75575000D02*
X148000000Y-73075000D01*
X98425000Y-128260000D02*
X98425000Y-126425000D01*
X153462500Y-223375000D02*
X153150000Y-223062500D01*
X145500000Y-82000000D02*
X145500000Y-75575000D01*
D94*
X100325000Y-151400000D02*
X99225000Y-151400000D01*
D92*
X112900000Y-135500000D02*
X113000000Y-135500000D01*
D93*
X111250000Y-122000000D02*
X108550000Y-124700000D01*
X109000000Y-121500000D02*
X105500000Y-125000000D01*
X88985000Y-106075000D02*
X87650000Y-107410000D01*
X145500000Y-82000000D02*
X138650000Y-88850000D01*
X136450000Y-111300000D02*
X98200000Y-111300000D01*
X87650000Y-118900000D02*
X89056865Y-120306865D01*
D92*
X87750000Y-125000000D02*
X91500000Y-125000000D01*
X116100000Y-162000000D02*
X114350000Y-163750000D01*
D93*
X129000000Y-216837500D02*
X127581250Y-215418750D01*
D92*
X109000000Y-162000000D02*
X114250000Y-162000000D01*
D93*
X148125000Y-73200000D02*
X150200000Y-73200000D01*
X122850000Y-214937500D02*
X123331250Y-215418750D01*
D94*
X107850000Y-152200000D02*
X108825000Y-152200000D01*
D93*
X106300000Y-124700000D02*
X106000000Y-125000000D01*
X108550000Y-124700000D02*
X106300000Y-124700000D01*
D94*
X107050000Y-151400000D02*
X107850000Y-152200000D01*
D92*
X87750000Y-121613730D02*
X89056865Y-120306865D01*
X89056865Y-120306865D02*
X98063730Y-111300000D01*
D93*
X98000000Y-121500000D02*
X98000000Y-124000000D01*
X106250000Y-125250000D02*
X106000000Y-125000000D01*
D94*
X99175000Y-150075000D02*
X99450000Y-149800000D01*
X99225000Y-151400000D02*
X99175000Y-151350000D01*
D97*
%TO.N,/Internal 5V & out usb/USB_1_+5V*%
X112100000Y-170950000D02*
X111100000Y-169950000D01*
X112100000Y-172200000D02*
X112100000Y-170950000D01*
X111100000Y-169950000D02*
X94100000Y-169950000D01*
%TO.N,/Internal 5V & out usb/RC_SNABBER_MIDDLEPOINT*%
X179500000Y-173235000D02*
X179040000Y-173695000D01*
X179500000Y-166695000D02*
X179500000Y-173235000D01*
D93*
%TO.N,/Internal 5V & out usb/USB_1_BP*%
X107000000Y-204587500D02*
X106475000Y-204062500D01*
D97*
X111000000Y-185805000D02*
X111000000Y-191675000D01*
D93*
X94337500Y-208500000D02*
X92575000Y-208500000D01*
X92575000Y-208500000D02*
X90075000Y-211000000D01*
D97*
X111000000Y-191675000D02*
X106475000Y-196200000D01*
D93*
X106475000Y-204062500D02*
X106475000Y-196200000D01*
D94*
%TO.N,/Internal 5V & out usb/+3.3_VOUT*%
X157500000Y-218600000D02*
X161100000Y-218600000D01*
X156800000Y-220031282D02*
X156800000Y-219300000D01*
X156775000Y-220056282D02*
X156800000Y-220031282D01*
X156800000Y-219300000D02*
X157500000Y-218600000D01*
X161100000Y-218600000D02*
X161700000Y-219200000D01*
X156775000Y-220537500D02*
X156775000Y-220056282D01*
%TO.N,/Control & Fan/ENCODER_V_A*%
X100225000Y-154450000D02*
X92675000Y-162000000D01*
X101775000Y-154450000D02*
X100225000Y-154450000D01*
%TO.N,/Control & Fan/ENCODER_V_B*%
X102400000Y-155600000D02*
X101575000Y-155600000D01*
X101575000Y-155600000D02*
X95175000Y-162000000D01*
X102575000Y-154450000D02*
X102575000Y-155425000D01*
X102575000Y-155425000D02*
X102400000Y-155600000D01*
%TO.N,/Control & Fan/ENCODER_V_CLICK*%
X103375000Y-156300000D02*
X97675000Y-162000000D01*
X103375000Y-154450000D02*
X103375000Y-156300000D01*
%TO.N,/Control & Fan/RESET#*%
X104175000Y-147512500D02*
X104175000Y-145950000D01*
X103887500Y-147800000D02*
X104175000Y-147512500D01*
%TO.N,/Control & Fan/ENCODER_I_A*%
X99575000Y-138800000D02*
X99575000Y-143750000D01*
X99575000Y-143750000D02*
X101775000Y-145950000D01*
%TO.N,/Control & Fan/ENCODER_I_B*%
X100325000Y-146825000D02*
X97000000Y-143500000D01*
X100325000Y-147400000D02*
X100325000Y-146825000D01*
X97075000Y-143425000D02*
X97075000Y-138800000D01*
X97000000Y-143500000D02*
X97075000Y-143425000D01*
%TO.N,/Control & Fan/ENCODER_I_CLICK*%
X99225000Y-148200000D02*
X98250000Y-147225000D01*
X98250000Y-146250000D02*
X94575000Y-142575000D01*
X94575000Y-142575000D02*
X94575000Y-138800000D01*
X100325000Y-148200000D02*
X99225000Y-148200000D01*
X98250000Y-147225000D02*
X98250000Y-146250000D01*
%TO.N,/Control & Fan/POWER_OUTPUT_RESET#*%
X108850000Y-147400000D02*
X110500000Y-145750000D01*
D97*
%TO.N,/Power output/RC_SNABBER_MIDDLEPOINT*%
X173615000Y-148000000D02*
X173615000Y-135665000D01*
X174800000Y-134380000D02*
X166215000Y-142965000D01*
X174800000Y-129400000D02*
X174800000Y-134380000D01*
X161185000Y-147995000D02*
X166215000Y-142965000D01*
X173615000Y-135665000D02*
X174920000Y-134360000D01*
X141000000Y-143360000D02*
X165820000Y-143360000D01*
X158555000Y-147995000D02*
X161185000Y-147995000D01*
X165820000Y-143360000D02*
X166215000Y-142965000D01*
D93*
%TO.N,Net-(U3-Vfb)*%
X97200000Y-201400000D02*
X97200000Y-199025000D01*
X98350000Y-205050000D02*
X97200000Y-203900000D01*
X98350000Y-208120000D02*
X98350000Y-205050000D01*
X97200000Y-203900000D02*
X97200000Y-201400000D01*
X98345000Y-208375000D02*
X96287500Y-208375000D01*
X96162500Y-209675000D02*
X94587500Y-211250000D01*
X96162500Y-208500000D02*
X96162500Y-209675000D01*
%TO.N,Net-(U7-VBUS)*%
X104500000Y-211280000D02*
X104500000Y-206525000D01*
X104500000Y-206525000D02*
X106887500Y-206525000D01*
X104500000Y-211280000D02*
X102155000Y-213625000D01*
D94*
%TO.N,/Control & Fan/ENABLE_FAN*%
X110500000Y-147625000D02*
X109925000Y-148200000D01*
X109925000Y-148200000D02*
X108825000Y-148200000D01*
X110500000Y-147250000D02*
X110500000Y-147625000D01*
%TO.N,/Internal 5V & out usb/VBUS_1_+*%
X118275000Y-217775000D02*
X120012500Y-217775000D01*
X92700000Y-219800000D02*
X90200000Y-222300000D01*
X97300000Y-219800000D02*
X92700000Y-219800000D01*
X114750000Y-216000000D02*
X116500000Y-216000000D01*
X90200000Y-222300000D02*
X89537500Y-222300000D01*
D97*
X89500000Y-216575000D02*
X89500000Y-222262500D01*
X90075000Y-216000000D02*
X89500000Y-216575000D01*
D94*
X116500000Y-216000000D02*
X118275000Y-217775000D01*
%TO.N,/Internal 5V & out usb/VBUS_2_+*%
X122200000Y-218662500D02*
X122200000Y-220300000D01*
X121500000Y-221000000D02*
X115750000Y-221000000D01*
X115750000Y-221000000D02*
X114287500Y-222462500D01*
D92*
X109275000Y-223500000D02*
X114287500Y-223500000D01*
D94*
X122200000Y-220300000D02*
X121500000Y-221000000D01*
X114287500Y-222462500D02*
X114287500Y-223500000D01*
%TO.N,/Internal 5V & out usb/VBUS_3_+*%
X126500000Y-217025500D02*
X126400500Y-217125000D01*
X126400500Y-217125000D02*
X123737500Y-217125000D01*
D92*
X139962500Y-223500000D02*
X140250000Y-223787500D01*
D94*
X140024897Y-221125604D02*
X140250000Y-221350707D01*
X140250000Y-221350707D02*
X140250000Y-223712500D01*
D92*
X136075000Y-223500000D02*
X139962500Y-223500000D01*
D94*
%TO.N,/Internal 5V & out usb/VBUS_1*%
X118505561Y-217000000D02*
X118560661Y-217000000D01*
X118685661Y-217125000D02*
X120012500Y-217125000D01*
X114000000Y-215250000D02*
X116755561Y-215250000D01*
X118560661Y-217000000D02*
X118685661Y-217125000D01*
X95450000Y-220550000D02*
X95000000Y-221000000D01*
X95000000Y-221000000D02*
X93300000Y-221000000D01*
X92762500Y-221537500D02*
X92762500Y-222300000D01*
X116755561Y-215250000D02*
X118505561Y-217000000D01*
X93300000Y-221000000D02*
X92762500Y-221537500D01*
D97*
X92500000Y-222337500D02*
X92462500Y-222300000D01*
X92500000Y-227272500D02*
X92500000Y-222337500D01*
D98*
%TO.N,/Internal 5V & out usb/USB_1_D-*%
X98755000Y-223517500D02*
X95000000Y-227272500D01*
X98755000Y-215272501D02*
X98755000Y-223517500D01*
X98345000Y-213625000D02*
X98345000Y-214862501D01*
X98345000Y-214862501D02*
X98755000Y-215272501D01*
%TO.N,/Internal 5V & out usb/USB_1_D+*%
X99615000Y-214862501D02*
X99205000Y-215272501D01*
X97000000Y-225908897D02*
X97000000Y-227272500D01*
X99205000Y-215272501D02*
X99205000Y-223703897D01*
X99615000Y-213625000D02*
X99615000Y-214862501D01*
X99205000Y-223703897D02*
X97000000Y-225908897D01*
D94*
%TO.N,/Internal 5V & out usb/VBUS_2*%
X117200000Y-222400000D02*
X117200000Y-223487500D01*
X121550000Y-219143718D02*
X120443718Y-220250000D01*
X120443718Y-220250000D02*
X118500000Y-220250000D01*
D92*
X117212500Y-223500000D02*
X118000000Y-223500000D01*
D94*
X121550000Y-218662500D02*
X121550000Y-219143718D01*
D92*
X119000000Y-224500000D02*
X119000000Y-227272500D01*
D94*
X117250000Y-221749500D02*
X117250000Y-222350000D01*
X117250000Y-222350000D02*
X117200000Y-222400000D01*
D92*
X118000000Y-223500000D02*
X118750000Y-224250000D01*
X118750000Y-224250000D02*
X119000000Y-224500000D01*
D94*
%TO.N,/Internal 5V & out usb/VBUS_3*%
X123737500Y-217775000D02*
X130775000Y-217775000D01*
X141175604Y-220375604D02*
X143212500Y-222412500D01*
D92*
X145250000Y-224250000D02*
X145250000Y-224500000D01*
D94*
X133375604Y-220375604D02*
X141175604Y-220375604D01*
D92*
X145500000Y-224750000D02*
X145500000Y-227272500D01*
X144500000Y-223750000D02*
X145000000Y-224250000D01*
X143212500Y-223750000D02*
X144500000Y-223750000D01*
X145250000Y-224500000D02*
X145500000Y-224750000D01*
X145000000Y-224250000D02*
X145250000Y-224250000D01*
D94*
X143212500Y-222412500D02*
X143212500Y-223750000D01*
X130775000Y-217775000D02*
X133375604Y-220375604D01*
%TO.N,/Control & Fan/MOSI*%
X106575000Y-155550000D02*
X106575000Y-154450000D01*
X107465000Y-156440000D02*
X106575000Y-155550000D01*
X113175000Y-145080000D02*
X114500000Y-146405000D01*
X113672057Y-156440000D02*
X107465000Y-156440000D01*
X114500000Y-146405000D02*
X114500000Y-155612057D01*
X114500000Y-155612057D02*
X113672057Y-156440000D01*
%TO.N,/Control & Fan/RXD*%
X104845000Y-143380000D02*
X103375000Y-144850000D01*
X117250000Y-144250000D02*
X116380000Y-143380000D01*
X103375000Y-144850000D02*
X103375000Y-145950000D01*
X115715000Y-147620000D02*
X117250000Y-146085000D01*
X116380000Y-143380000D02*
X104845000Y-143380000D01*
X117250000Y-146085000D02*
X117250000Y-144250000D01*
%TO.N,/Control & Fan/TXD*%
X102575000Y-144925000D02*
X102575000Y-145950000D01*
X115715000Y-150160000D02*
X117750000Y-148125000D01*
X117750000Y-143750000D02*
X116880000Y-142880000D01*
X116880000Y-142880000D02*
X104620000Y-142880000D01*
X104620000Y-142880000D02*
X102575000Y-144925000D01*
X117750000Y-148125000D02*
X117750000Y-143750000D01*
%TO.N,/Control & Fan/SCK*%
X112875000Y-153000000D02*
X108825000Y-153000000D01*
%TO.N,/Control & Fan/MISO*%
X113175000Y-155240000D02*
X108165000Y-155240000D01*
X108165000Y-155240000D02*
X107375000Y-154450000D01*
%TO.N,Net-(U12-XTAL1{slash}PB6)*%
X95275000Y-147000000D02*
X91945000Y-147000000D01*
X96225000Y-147225000D02*
X95500000Y-147225000D01*
X100325000Y-152200000D02*
X99225000Y-152200000D01*
X97000000Y-149975000D02*
X97000000Y-148000000D01*
X97000000Y-148000000D02*
X96225000Y-147225000D01*
X91945000Y-147000000D02*
X91375000Y-147570000D01*
X99225000Y-152200000D02*
X97000000Y-149975000D01*
D99*
%TO.N,/Internal 5V & out usb/+5V_OUT*%
X124400000Y-194950000D02*
X127200000Y-194950000D01*
D93*
X152265000Y-218350000D02*
X152265000Y-205765000D01*
X114775000Y-209250000D02*
X114328070Y-209250000D01*
D94*
X161175500Y-221425000D02*
X158962500Y-221425000D01*
D93*
X114328070Y-209250000D02*
X113328070Y-208250000D01*
D94*
X162000000Y-222249500D02*
X161175500Y-221425000D01*
D92*
X109475000Y-210500000D02*
X109500000Y-210500000D01*
D96*
X121000000Y-198250000D02*
X121000000Y-205750000D01*
D92*
X124400000Y-194400000D02*
X119500000Y-189500000D01*
X109500000Y-210500000D02*
X109500000Y-210525000D01*
X109500000Y-210525000D02*
X111500000Y-212525000D01*
D100*
X125000000Y-207750000D02*
X125000000Y-195550000D01*
D96*
X124300000Y-194950000D02*
X121000000Y-198250000D01*
D99*
X130250000Y-198000000D02*
X130250000Y-202500000D01*
X133500000Y-205750000D02*
X152250000Y-205750000D01*
X154000000Y-205750000D02*
X157250000Y-209000000D01*
D92*
X108975000Y-210000000D02*
X109475000Y-210500000D01*
X159000000Y-208500000D02*
X158500000Y-209000000D01*
D97*
X112100000Y-177735000D02*
X112100000Y-175335000D01*
D92*
X161750000Y-208500000D02*
X159000000Y-208500000D01*
D96*
X124400000Y-194950000D02*
X124300000Y-194950000D01*
D93*
X152265000Y-205765000D02*
X152250000Y-205750000D01*
D99*
X157250000Y-209000000D02*
X158500000Y-209000000D01*
D92*
X108162500Y-210000000D02*
X108975000Y-210000000D01*
D100*
X123500000Y-209250000D02*
X125000000Y-207750000D01*
D92*
X111500000Y-212525000D02*
X114775000Y-209250000D01*
X119500000Y-189500000D02*
X119500000Y-179475000D01*
D96*
X134600000Y-191500000D02*
X134850000Y-191250000D01*
D99*
X130250000Y-202500000D02*
X133500000Y-205750000D01*
D93*
X105500000Y-208250000D02*
X105400000Y-208150000D01*
D97*
X115250000Y-180885000D02*
X112100000Y-177735000D01*
D92*
X158900000Y-217250000D02*
X159250000Y-216900000D01*
X128000000Y-198550000D02*
X124400000Y-194950000D01*
D99*
X127200000Y-194950000D02*
X130250000Y-198000000D01*
D96*
X124400000Y-194950000D02*
X127850000Y-191500000D01*
D92*
X134450000Y-209375000D02*
X128000000Y-202925000D01*
X128000000Y-202925000D02*
X128000000Y-198550000D01*
D93*
X113328070Y-208250000D02*
X105500000Y-208250000D01*
D100*
X114775000Y-209250000D02*
X123500000Y-209250000D01*
D97*
X122200000Y-194950000D02*
X115250000Y-188000000D01*
D96*
X127850000Y-191500000D02*
X134600000Y-191500000D01*
D97*
X124400000Y-194950000D02*
X122200000Y-194950000D01*
D99*
X152250000Y-205750000D02*
X154000000Y-205750000D01*
D97*
X115250000Y-188000000D02*
X115250000Y-180885000D01*
D92*
X159250000Y-216900000D02*
X159250000Y-209000000D01*
D94*
%TO.N,Net-(U12-XTAL2{slash}PB7)*%
X91925000Y-153000000D02*
X91375000Y-152450000D01*
X95275000Y-153000000D02*
X91925000Y-153000000D01*
X100325000Y-153000000D02*
X95725000Y-153000000D01*
%TO.N,/Control & Fan/TFT_ENABLE#*%
X109500000Y-145000000D02*
X108500000Y-146000000D01*
X108500000Y-146000000D02*
X107425000Y-146000000D01*
D92*
%TO.N,/Internal 5V & out usb/USB_2_+5V*%
X109275000Y-216450000D02*
X111500000Y-214225000D01*
X109275000Y-218500000D02*
X109275000Y-216450000D01*
D93*
%TO.N,/Control & Fan/POWER_OUTPUT_FB*%
X148239950Y-81250000D02*
X140200000Y-89289950D01*
X156099812Y-81250000D02*
X148239950Y-81250000D01*
X135760000Y-115740000D02*
X124260000Y-115740000D01*
X140200000Y-111300000D02*
X135760000Y-115740000D01*
X140200000Y-89289950D02*
X140200000Y-111300000D01*
X158500000Y-76350000D02*
X160062500Y-76350000D01*
X156599312Y-80750500D02*
X156099812Y-81250000D01*
D97*
%TO.N,Net-(C39-Pad2)*%
X139250000Y-154250000D02*
X135000000Y-154250000D01*
X140000000Y-153500000D02*
X139250000Y-154250000D01*
X140000000Y-149440000D02*
X140000000Y-153500000D01*
X141000000Y-148440000D02*
X140000000Y-149440000D01*
D92*
%TO.N,/Internal 5V & out usb/USB_3_+5V*%
X136075000Y-218153400D02*
X134500000Y-216578400D01*
X134500000Y-216578400D02*
X134500000Y-211250000D01*
D94*
%TO.N,/Control & Fan/IS_ONOFF_BUTTON_PRESSED*%
X104175000Y-154450000D02*
X104175000Y-158675000D01*
X106500000Y-161000000D02*
X106500000Y-162000000D01*
X104175000Y-158675000D02*
X106500000Y-161000000D01*
D92*
%TO.N,/Internal 5V & out usb/VREF_2V5*%
X118500000Y-229375000D02*
X115875000Y-226750000D01*
D93*
X142250000Y-234750000D02*
X144250000Y-232750000D01*
X120000000Y-234750000D02*
X142250000Y-234750000D01*
D92*
X106337500Y-225087500D02*
X106337500Y-210000000D01*
D93*
X94885000Y-232885000D02*
X95500000Y-232270000D01*
X123250000Y-230750000D02*
X121000000Y-233000000D01*
X97750000Y-231750000D02*
X95500000Y-231750000D01*
X100000000Y-234000000D02*
X97750000Y-231750000D01*
X95500000Y-232270000D02*
X95500000Y-231250000D01*
X121000000Y-233000000D02*
X118750000Y-233000000D01*
X147750000Y-232750000D02*
X150250000Y-230250000D01*
X118500000Y-233250000D02*
X117750000Y-234000000D01*
X95500000Y-231250000D02*
X96375000Y-230375000D01*
X118750000Y-233000000D02*
X118500000Y-233250000D01*
X118500000Y-233250000D02*
X120000000Y-234750000D01*
X117750000Y-234000000D02*
X100000000Y-234000000D01*
D92*
X118500000Y-233250000D02*
X118500000Y-229375000D01*
D93*
X144250000Y-232750000D02*
X147750000Y-232750000D01*
X123250000Y-230500000D02*
X123250000Y-230750000D01*
D92*
X115875000Y-226750000D02*
X108000000Y-226750000D01*
X108000000Y-226750000D02*
X106337500Y-225087500D01*
D94*
%TO.N,/Control & Fan/SCL*%
X156111612Y-225350000D02*
X156775000Y-224686612D01*
X156775000Y-224686612D02*
X156775000Y-224262500D01*
X122500000Y-210850500D02*
X122500000Y-211310661D01*
X147400000Y-222800000D02*
X149950000Y-225350000D01*
X156125000Y-224262500D02*
X156775000Y-224262500D01*
X149950000Y-225350000D02*
X156111612Y-225350000D01*
X104975000Y-144525000D02*
X105250000Y-144250000D01*
X122500000Y-211310661D02*
X122200000Y-211610661D01*
X122200000Y-211610661D02*
X122200000Y-214937500D01*
X104975000Y-145950000D02*
X104975000Y-144525000D01*
%TO.N,/Control & Fan/SDA*%
X157425000Y-224743718D02*
X157425000Y-224262500D01*
X149400000Y-225900000D02*
X156268718Y-225900000D01*
X105775000Y-144854500D02*
X105775000Y-145950000D01*
X106500000Y-144129500D02*
X105775000Y-144854500D01*
X156268718Y-225900000D02*
X157425000Y-224743718D01*
X146400000Y-222750000D02*
X146400000Y-222900000D01*
X146400000Y-222900000D02*
X149400000Y-225900000D01*
X121550000Y-211749500D02*
X121450500Y-211650000D01*
X121550000Y-214937500D02*
X121550000Y-211749500D01*
D97*
%TO.N,Net-(C44-Pad1)*%
X189600000Y-110400000D02*
X185960000Y-114040000D01*
X189600000Y-105118000D02*
X189600000Y-110400000D01*
X189800000Y-104918000D02*
X189600000Y-105118000D01*
X185960000Y-114040000D02*
X174900000Y-114040000D01*
X174900000Y-114040000D02*
X174900000Y-119100000D01*
D96*
%TO.N,Net-(U19-+)*%
X101477780Y-68022220D02*
X122500000Y-68022220D01*
X122500000Y-68022220D02*
X127500000Y-68022220D01*
D93*
X128900000Y-66622220D02*
X127500000Y-68022220D01*
D96*
X127500000Y-68022220D02*
X136000000Y-68022220D01*
X91100000Y-78400000D02*
X101477780Y-68022220D01*
D93*
X128900000Y-62800000D02*
X128900000Y-66622220D01*
D95*
%TO.N,Net-(D2-A)*%
X94000000Y-181150000D02*
X94100000Y-181050000D01*
D97*
X111050000Y-181945000D02*
X110005000Y-180900000D01*
D95*
X97300000Y-186600000D02*
X97300000Y-184880000D01*
D97*
X110005000Y-180900000D02*
X95200000Y-180900000D01*
D95*
X94000000Y-181580000D02*
X94000000Y-181150000D01*
X97300000Y-184880000D02*
X94000000Y-181580000D01*
D92*
%TO.N,/Output connectors/3.3V_FUSE*%
X192787500Y-217587500D02*
X192787500Y-219300000D01*
X191600000Y-216400000D02*
X192787500Y-217587500D01*
X192787500Y-218400000D02*
X192787500Y-219300000D01*
X176000000Y-216400000D02*
X191600000Y-216400000D01*
X192787500Y-220625000D02*
X192750000Y-220662500D01*
X192787500Y-219300000D02*
X192787500Y-220625000D01*
X173200000Y-219200000D02*
X176000000Y-216400000D01*
D94*
%TO.N,/Control & Fan/TFT_DC*%
X107475000Y-144250000D02*
X106575000Y-145150000D01*
X110250000Y-144250000D02*
X107475000Y-144250000D01*
X106575000Y-145150000D02*
X106575000Y-145950000D01*
D97*
%TO.N,/Internal 5V & out usb/400V*%
X155155000Y-154250000D02*
X156015000Y-153390000D01*
X176500000Y-176610800D02*
X176500000Y-173695000D01*
X171000000Y-157000000D02*
X171000000Y-167250000D01*
X191642800Y-145357200D02*
X188642800Y-145357200D01*
X194750000Y-142250000D02*
X191642800Y-145357200D01*
X165000000Y-157000000D02*
X162250000Y-154250000D01*
X156015000Y-153390000D02*
X156015000Y-147995000D01*
X177000000Y-157000000D02*
X165000000Y-157000000D01*
X194750000Y-70250000D02*
X194750000Y-142250000D01*
X164672000Y-177110400D02*
X176000400Y-177110400D01*
X171000000Y-167250000D02*
X167250000Y-171000000D01*
X162250000Y-154250000D02*
X155155000Y-154250000D01*
X144250000Y-154250000D02*
X155155000Y-154250000D01*
X188642800Y-145357200D02*
X177000000Y-157000000D01*
X189750000Y-65250000D02*
X194750000Y-70250000D01*
X164672000Y-177110400D02*
X164672000Y-181152800D01*
X176000400Y-177110400D02*
X176500000Y-176610800D01*
X167250000Y-174532400D02*
X164672000Y-177110400D01*
X167250000Y-171000000D02*
X167250000Y-174532400D01*
X189750000Y-65250000D02*
X189750000Y-82368000D01*
D95*
%TO.N,Net-(D4-A-Pad1)*%
X127600000Y-164680000D02*
X127600000Y-185000000D01*
X162250000Y-195800000D02*
X162250000Y-198770000D01*
X137760000Y-185160000D02*
X144500000Y-191900000D01*
X144500000Y-191900000D02*
X158350000Y-191900000D01*
X127600000Y-185000000D02*
X137760000Y-185000000D01*
X158350000Y-191900000D02*
X162250000Y-195800000D01*
X137760000Y-185000000D02*
X137760000Y-185160000D01*
D96*
%TO.N,Net-(D4-K)*%
X159350000Y-204250000D02*
X155950000Y-200850000D01*
X165670000Y-204250000D02*
X159350000Y-204250000D01*
X167700000Y-198770000D02*
X167700000Y-202220000D01*
X167700000Y-202220000D02*
X165670000Y-204250000D01*
X155950000Y-200850000D02*
X134850000Y-200850000D01*
D95*
%TO.N,Net-(D4-A-Pad3)*%
X165330000Y-192250000D02*
X170950000Y-192250000D01*
X170950000Y-192250000D02*
X173150000Y-194450000D01*
X158080000Y-185000000D02*
X165330000Y-192250000D01*
X142840000Y-185000000D02*
X158080000Y-185000000D01*
X173150000Y-194450000D02*
X173150000Y-198770000D01*
D94*
%TO.N,/Control & Fan/ATTINY_SCK*%
X96250000Y-108000000D02*
X93500000Y-110750000D01*
X93500000Y-110750000D02*
X91500000Y-110750000D01*
X96250000Y-101750000D02*
X96250000Y-108000000D01*
D93*
%TO.N,Net-(D13-A)*%
X115500000Y-138662500D02*
X115162500Y-139000000D01*
X115162500Y-139000000D02*
X108375000Y-139000000D01*
D92*
%TO.N,/Output connectors/SIGNAL_OUT_PWR_3V3*%
X193700000Y-222537500D02*
X194712500Y-223550000D01*
X194712500Y-229832500D02*
X193970000Y-230575000D01*
X194712500Y-223550000D02*
X194712500Y-229832500D01*
%TO.N,/Output connectors/SIGNAL_OUT_PWR_5V*%
X188487500Y-225700000D02*
X188487500Y-227632500D01*
X188487500Y-223450000D02*
X188487500Y-225700000D01*
X189400000Y-222537500D02*
X188487500Y-223450000D01*
X188487500Y-227632500D02*
X191430000Y-230575000D01*
D94*
%TO.N,/Control & Fan/SIGNAL_OUT*%
X107165000Y-156940000D02*
X105775000Y-155550000D01*
X114073956Y-158573956D02*
X112440000Y-156940000D01*
X105775000Y-155550000D02*
X105775000Y-154450000D01*
X112440000Y-156940000D02*
X107165000Y-156940000D01*
D92*
%TO.N,/Output connectors/5V_FUSE*%
X188487500Y-218400000D02*
X188487500Y-220625000D01*
X173000000Y-224600000D02*
X173000000Y-231550000D01*
X173000000Y-231550000D02*
X172000000Y-232550000D01*
X186350000Y-230575000D02*
X186350000Y-230050000D01*
X172900000Y-224500000D02*
X180800000Y-224500000D01*
X185600000Y-219700000D02*
X188487500Y-219700000D01*
X180800000Y-224500000D02*
X185600000Y-219700000D01*
X186350000Y-230050000D02*
X180800000Y-224500000D01*
X188487500Y-220625000D02*
X188450000Y-220662500D01*
D93*
%TO.N,Net-(Q10-D)*%
X190312500Y-219587500D02*
X190300000Y-219600000D01*
X190312500Y-218400000D02*
X190400000Y-219600000D01*
X190300000Y-219600000D02*
X190312500Y-219612500D01*
X190312500Y-219612500D02*
X190312500Y-220625000D01*
X190400000Y-219600000D02*
X190312500Y-219587500D01*
D96*
%TO.N,Net-(D21-K)*%
X91000000Y-84750000D02*
X95500000Y-89250000D01*
X95500000Y-89250000D02*
X114400000Y-89250000D01*
D94*
%TO.N,/Control & Fan/ENABLE_POWER_OUTPUT*%
X106718748Y-157542171D02*
X106042171Y-157542171D01*
X106042171Y-157542171D02*
X104975000Y-156475000D01*
X104975000Y-156475000D02*
X104975000Y-154450000D01*
%TO.N,/Output connectors/3.3V_-*%
X157800000Y-219300000D02*
X160600000Y-219300000D01*
X161600000Y-220300000D02*
X161900000Y-220300000D01*
X160600000Y-219300000D02*
X161600000Y-220300000D01*
X157425000Y-219675000D02*
X157800000Y-219300000D01*
X157425000Y-220537500D02*
X157425000Y-219675000D01*
%TO.N,/Output connectors/5V_-*%
X161250000Y-222550000D02*
X160775000Y-222075000D01*
X161250000Y-222560161D02*
X161250000Y-222550000D01*
X162049500Y-223600000D02*
X162049500Y-223349500D01*
X161689339Y-222999500D02*
X161250000Y-222560161D01*
X161699500Y-222999500D02*
X161689339Y-222999500D01*
X162049500Y-223349500D02*
X161699500Y-222999500D01*
X160775000Y-222075000D02*
X158962500Y-222075000D01*
%TO.N,Net-(JP4-B)*%
X89800000Y-113050000D02*
X88960000Y-112210000D01*
X88960000Y-112210000D02*
X88960000Y-110750000D01*
X89800000Y-114675000D02*
X89800000Y-113050000D01*
%TO.N,Net-(Q1-G)*%
X96200000Y-192900000D02*
X95020000Y-192900000D01*
X97000000Y-192100000D02*
X96200000Y-192900000D01*
D93*
%TO.N,Net-(Q8-D)*%
X165200000Y-77265000D02*
X161972500Y-77265000D01*
%TO.N,Net-(Q11-G)*%
X194612500Y-219587500D02*
X194612500Y-218400000D01*
X194612500Y-219587500D02*
X194612500Y-220625000D01*
D94*
%TO.N,Net-(U1-VPU)*%
X122850000Y-218662500D02*
X129000000Y-218662500D01*
%TO.N,Net-(U21-VPU)*%
X153850000Y-220537500D02*
X156125000Y-220537500D01*
X153150000Y-221237500D02*
X153850000Y-220537500D01*
%TD*%
M02*
