%TF.GenerationSoftware,KiCad,Pcbnew,8.0.3-8.0.3-0~ubuntu22.04.1*%
%TF.CreationDate,2024-07-10T15:47:05+03:00*%
%TF.ProjectId,supply,73757070-6c79-42e6-9b69-6361645f7063,rev?*%
%TF.SameCoordinates,Original*%
%TF.FileFunction,Copper,L2,Inr*%
%TF.FilePolarity,Positive*%
%FSLAX46Y46*%
G04 Gerber Fmt 4.6, Leading zero omitted, Abs format (unit mm)*
G04 Created by KiCad (PCBNEW 8.0.3-8.0.3-0~ubuntu22.04.1) date 2024-07-10 15:47:05*
%MOMM*%
%LPD*%
G01*
G04 APERTURE LIST*
G04 Aperture macros list*
%AMRoundRect*
0 Rectangle with rounded corners*
0 $1 Rounding radius*
0 $2 $3 $4 $5 $6 $7 $8 $9 X,Y pos of 4 corners*
0 Add a 4 corners polygon primitive as box body*
4,1,4,$2,$3,$4,$5,$6,$7,$8,$9,$2,$3,0*
0 Add four circle primitives for the rounded corners*
1,1,$1+$1,$2,$3*
1,1,$1+$1,$4,$5*
1,1,$1+$1,$6,$7*
1,1,$1+$1,$8,$9*
0 Add four rect primitives between the rounded corners*
20,1,$1+$1,$2,$3,$4,$5,0*
20,1,$1+$1,$4,$5,$6,$7,0*
20,1,$1+$1,$6,$7,$8,$9,0*
20,1,$1+$1,$8,$9,$2,$3,0*%
G04 Aperture macros list end*
%TA.AperFunction,ComponentPad*%
%ADD10R,2.000000X2.000000*%
%TD*%
%TA.AperFunction,ComponentPad*%
%ADD11C,2.000000*%
%TD*%
%TA.AperFunction,ComponentPad*%
%ADD12R,1.524000X1.524000*%
%TD*%
%TA.AperFunction,ComponentPad*%
%ADD13C,1.524000*%
%TD*%
%TA.AperFunction,ComponentPad*%
%ADD14C,3.500000*%
%TD*%
%TA.AperFunction,ComponentPad*%
%ADD15RoundRect,0.250000X0.725000X-0.600000X0.725000X0.600000X-0.725000X0.600000X-0.725000X-0.600000X0*%
%TD*%
%TA.AperFunction,ComponentPad*%
%ADD16O,1.950000X1.700000*%
%TD*%
%TA.AperFunction,ComponentPad*%
%ADD17RoundRect,0.250000X0.600000X0.725000X-0.600000X0.725000X-0.600000X-0.725000X0.600000X-0.725000X0*%
%TD*%
%TA.AperFunction,ComponentPad*%
%ADD18O,1.700000X1.950000*%
%TD*%
%TA.AperFunction,ComponentPad*%
%ADD19RoundRect,0.250000X-0.600000X-0.750000X0.600000X-0.750000X0.600000X0.750000X-0.600000X0.750000X0*%
%TD*%
%TA.AperFunction,ComponentPad*%
%ADD20O,1.700000X2.000000*%
%TD*%
%TA.AperFunction,ComponentPad*%
%ADD21R,1.600000X1.600000*%
%TD*%
%TA.AperFunction,ComponentPad*%
%ADD22C,1.600000*%
%TD*%
%TA.AperFunction,ComponentPad*%
%ADD23RoundRect,0.250000X0.750000X-0.600000X0.750000X0.600000X-0.750000X0.600000X-0.750000X-0.600000X0*%
%TD*%
%TA.AperFunction,ComponentPad*%
%ADD24O,2.000000X1.700000*%
%TD*%
%TA.AperFunction,ComponentPad*%
%ADD25RoundRect,0.249999X-1.025001X1.025001X-1.025001X-1.025001X1.025001X-1.025001X1.025001X1.025001X0*%
%TD*%
%TA.AperFunction,ComponentPad*%
%ADD26C,2.550000*%
%TD*%
%TA.AperFunction,ComponentPad*%
%ADD27R,1.700000X1.700000*%
%TD*%
%TA.AperFunction,ComponentPad*%
%ADD28O,1.700000X1.700000*%
%TD*%
%TA.AperFunction,ComponentPad*%
%ADD29R,1.800000X1.800000*%
%TD*%
%TA.AperFunction,ComponentPad*%
%ADD30C,1.800000*%
%TD*%
%TA.AperFunction,ComponentPad*%
%ADD31R,1.560000X1.560000*%
%TD*%
%TA.AperFunction,ComponentPad*%
%ADD32C,1.560000*%
%TD*%
%TA.AperFunction,ComponentPad*%
%ADD33RoundRect,0.250000X-0.725000X0.600000X-0.725000X-0.600000X0.725000X-0.600000X0.725000X0.600000X0*%
%TD*%
%TA.AperFunction,ComponentPad*%
%ADD34RoundRect,0.249999X1.300001X-1.300001X1.300001X1.300001X-1.300001X1.300001X-1.300001X-1.300001X0*%
%TD*%
%TA.AperFunction,ComponentPad*%
%ADD35C,3.100000*%
%TD*%
%TA.AperFunction,ComponentPad*%
%ADD36C,1.500000*%
%TD*%
%TA.AperFunction,ComponentPad*%
%ADD37RoundRect,0.249999X1.025001X1.025001X-1.025001X1.025001X-1.025001X-1.025001X1.025001X-1.025001X0*%
%TD*%
%TA.AperFunction,ComponentPad*%
%ADD38O,1.600000X1.600000*%
%TD*%
%TA.AperFunction,ComponentPad*%
%ADD39R,3.200000X3.200000*%
%TD*%
%TA.AperFunction,ComponentPad*%
%ADD40O,3.200000X3.200000*%
%TD*%
%TA.AperFunction,ComponentPad*%
%ADD41RoundRect,0.250000X-0.750000X0.600000X-0.750000X-0.600000X0.750000X-0.600000X0.750000X0.600000X0*%
%TD*%
%TA.AperFunction,ViaPad*%
%ADD42C,0.800000*%
%TD*%
%TA.AperFunction,Conductor*%
%ADD43C,0.500000*%
%TD*%
%TA.AperFunction,Conductor*%
%ADD44C,0.200000*%
%TD*%
%TA.AperFunction,Conductor*%
%ADD45C,1.000000*%
%TD*%
G04 APERTURE END LIST*
D10*
%TO.N,/usb ports/USB_2_+5V*%
%TO.C,C14*%
X104567677Y-160900000D03*
D11*
%TO.N,/+5V_PWR_GND*%
X109567677Y-160900000D03*
%TD*%
D12*
%TO.N,/usb ports/VBUS_1*%
%TO.C,J7*%
X62500000Y-182272500D03*
D13*
%TO.N,/usb ports/USB_1_D-*%
X65000000Y-182272500D03*
%TO.N,/usb ports/USB_1_D+*%
X67000000Y-182272500D03*
%TO.N,/+5V_PWR_GND*%
X69500000Y-182272500D03*
D14*
X58750000Y-184982500D03*
X73250000Y-184982500D03*
%TD*%
D15*
%TO.N,/VSYS_GND*%
%TO.C,J10*%
X130275000Y-106950000D03*
D16*
%TO.N,/Control & Fan/ENCODER_V_CLICK*%
X130275000Y-104450000D03*
%TO.N,/Control & Fan/ENCODER_V_B*%
X130275000Y-101950000D03*
%TO.N,/Control & Fan/ENCODER_V_A*%
X130275000Y-99450000D03*
%TD*%
D11*
%TO.N,/VSYS_GND*%
%TO.C,J5*%
X200000000Y-93000000D03*
%TD*%
D17*
%TO.N,/+5V_PWR_GND*%
%TO.C,J17*%
X157325000Y-151225000D03*
D18*
%TO.N,/Output connectors/LIION_CHARGE_VBAT*%
X154825000Y-151225000D03*
%TO.N,/Output connectors/LIION_CHARGE_LED2*%
X152325000Y-151225000D03*
%TO.N,/Output connectors/LIION_CHARGE_LED1*%
X149825000Y-151225000D03*
%TO.N,Net-(J17-Pin_5)*%
X147325000Y-151225000D03*
%TD*%
D19*
%TO.N,/+5V_PWR_GND*%
%TO.C,J22*%
X179750000Y-186550000D03*
D20*
%TO.N,/Output connectors/3.3V_FUSE*%
X182250000Y-186550000D03*
%TD*%
D21*
%TO.N,/usb ports/USB_1_BP*%
%TO.C,C21*%
X64447349Y-153100000D03*
D22*
%TO.N,/+5V_PWR_GND*%
X67947349Y-153100000D03*
%TD*%
D23*
%TO.N,/VSYS_VCC_FUSE*%
%TO.C,TH1*%
X94585000Y-108775000D03*
D24*
%TO.N,Net-(U15A-+)*%
X94585000Y-106275000D03*
%TD*%
D25*
%TO.N,/usb ports/USB_3_+5V*%
%TO.C,F4*%
X128100000Y-161500000D03*
D26*
%TO.N,/usb ports/VBUS_3_+*%
X128100000Y-166300000D03*
%TD*%
D11*
%TO.N,/VSYS_GND*%
%TO.C,J4*%
X132000000Y-115000000D03*
%TD*%
D27*
%TO.N,/Output connectors/5V_FUSE*%
%TO.C,J21*%
X193150000Y-183375000D03*
D28*
%TO.N,/+5V_PWR_GND*%
X193150000Y-185915000D03*
%TO.N,/Output connectors/3.3V_FUSE*%
X195690000Y-183375000D03*
%TO.N,/+5V_PWR_GND*%
X195690000Y-185915000D03*
%TO.N,/Output connectors/SIGNAL_OUT_PWR_5V*%
X198230000Y-183375000D03*
%TO.N,/+5V_PWR_GND*%
X198230000Y-185915000D03*
%TO.N,/Output connectors/SIGNAL_OUT_PWR_3V3*%
X200770000Y-183375000D03*
%TO.N,/Output connectors/SIGNAL_OUT*%
X200770000Y-185915000D03*
%TD*%
D29*
%TO.N,/Control & Fan/MOSI*%
%TO.C,J14*%
X151030000Y-123905000D03*
D30*
%TO.N,/VSYS_VCC_FUSE*%
X151030000Y-126445000D03*
%TO.N,unconnected-(J14-Pin_3-Pad3)*%
X148490000Y-123905000D03*
%TO.N,/Control & Fan/RXD*%
X148490000Y-126445000D03*
%TO.N,/Control & Fan/RESET#*%
X145950000Y-123905000D03*
%TO.N,/Control & Fan/TXD*%
X145950000Y-126445000D03*
%TO.N,/Control & Fan/SCK*%
X143410000Y-123905000D03*
%TO.N,/VSYS_GND*%
X143410000Y-126445000D03*
%TO.N,/Control & Fan/MISO*%
X140870000Y-123905000D03*
%TO.N,/VSYS_GND*%
X140870000Y-126445000D03*
%TD*%
D29*
%TO.N,Net-(D5-A1)*%
%TO.C,D5*%
X115950000Y-184000000D03*
D30*
%TO.N,Net-(D5-K)*%
X118490000Y-184000000D03*
%TO.N,Net-(D5-A2)*%
X121030000Y-184000000D03*
%TD*%
D17*
%TO.N,/VSYS_SCL*%
%TO.C,J2*%
X191700000Y-125100000D03*
D18*
%TO.N,/VSYS_SDA*%
X189200000Y-125100000D03*
%TO.N,/VSYS_VCC*%
X186700000Y-125100000D03*
%TO.N,/VSYS_GND*%
X184200000Y-125100000D03*
%TD*%
D12*
%TO.N,/usb ports/VBUS_2*%
%TO.C,J8*%
X97500000Y-182272500D03*
D13*
%TO.N,Net-(J8-D-)*%
X100000000Y-182272500D03*
%TO.N,Net-(J8-D+)*%
X102000000Y-182272500D03*
%TO.N,/+5V_PWR_GND*%
X104500000Y-182272500D03*
D14*
X93750000Y-184982500D03*
X108250000Y-184982500D03*
%TD*%
D12*
%TO.N,/usb ports/VBUS_3*%
%TO.C,J9*%
X132500000Y-182272500D03*
D13*
%TO.N,Net-(J9-D-)*%
X135000000Y-182272500D03*
%TO.N,Net-(J9-D+)*%
X137000000Y-182272500D03*
%TO.N,/+5V_PWR_GND*%
X139500000Y-182272500D03*
D14*
X128750000Y-184982500D03*
X143250000Y-184982500D03*
%TD*%
D25*
%TO.N,/usb ports/USB_1_BP*%
%TO.C,F2*%
X65000000Y-161800000D03*
D26*
%TO.N,/usb ports/VBUS_1_+*%
X65000000Y-166600000D03*
%TD*%
D10*
%TO.N,/+5V_PWR_LOGIC*%
%TO.C,C1*%
X152700000Y-134900000D03*
D11*
%TO.N,/+5V_PWR_GND*%
X152700000Y-139900000D03*
%TD*%
D31*
%TO.N,/VSYS_VCC_FUSE*%
%TO.C,RV1*%
X104885000Y-114415000D03*
D32*
%TO.N,Net-(U15A--)*%
X102385000Y-109415000D03*
%TO.N,/VSYS_GND*%
X99885000Y-114415000D03*
%TD*%
D10*
%TO.N,/Output connectors/+5V*%
%TO.C,C53*%
X171800000Y-145267677D03*
D11*
%TO.N,/+5V_PWR_GND*%
X171800000Y-140267677D03*
%TD*%
D33*
%TO.N,/VSYS_GND*%
%TO.C,J12*%
X153175000Y-92812500D03*
D16*
%TO.N,/Control & Fan/ENCODER_I_CLICK*%
X153175000Y-95312500D03*
%TO.N,/Control & Fan/ENCODER_I_B*%
X153175000Y-97812500D03*
%TO.N,/Control & Fan/ENCODER_I_A*%
X153175000Y-100312500D03*
%TD*%
D11*
%TO.N,/VSYS_GND*%
%TO.C,J3*%
X89000000Y-100000000D03*
%TD*%
D17*
%TO.N,Net-(J15-Pin_1)*%
%TO.C,J15*%
X151300000Y-115800000D03*
D18*
%TO.N,/Control & Fan/TFT_DC*%
X148800000Y-115800000D03*
%TO.N,/Control & Fan/MOSI*%
X146300000Y-115800000D03*
%TO.N,/Control & Fan/SCK*%
X143800000Y-115800000D03*
%TO.N,/Control & Fan/TFT_CS*%
X141300000Y-115800000D03*
%TO.N,/VSYS_GND*%
X138800000Y-115800000D03*
%TD*%
D10*
%TO.N,/usb ports/USB_3_+5V*%
%TO.C,C16*%
X128232323Y-153100000D03*
D11*
%TO.N,/+5V_PWR_GND*%
X133232323Y-153100000D03*
%TD*%
D23*
%TO.N,/VSYS_VCC_FUSE*%
%TO.C,TH2*%
X116985000Y-108500000D03*
D24*
%TO.N,Net-(U15B-+)*%
X116985000Y-106000000D03*
%TD*%
D34*
%TO.N,/+5V_PWR_VCC*%
%TO.C,J1*%
X105200000Y-132100000D03*
D35*
%TO.N,/+5V_PWR_GND*%
X105200000Y-126100000D03*
%TD*%
D25*
%TO.N,/Output connectors/5V_-*%
%TO.C,F6*%
X167800000Y-171600000D03*
D26*
%TO.N,/Output connectors/5V_FUSE*%
X167800000Y-176400000D03*
%TD*%
D19*
%TO.N,/+5V_PWR_GND*%
%TO.C,J23*%
X167750000Y-186550000D03*
D20*
%TO.N,/Output connectors/5V_FUSE*%
X170250000Y-186550000D03*
%TD*%
D31*
%TO.N,/VSYS_VCC_FUSE*%
%TO.C,RV2*%
X112285000Y-114415000D03*
D32*
%TO.N,Net-(U15B--)*%
X109785000Y-109415000D03*
%TO.N,/VSYS_GND*%
X107285000Y-114415000D03*
%TD*%
D36*
%TO.N,Net-(U11-XTAL2{slash}PB7)*%
%TO.C,X1*%
X138350000Y-92200000D03*
%TO.N,Net-(U11-XTAL1{slash}PB6)*%
X143230000Y-92200000D03*
%TD*%
D37*
%TO.N,/usb ports/USB_2_+5V*%
%TO.C,F3*%
X104800000Y-169700000D03*
D26*
%TO.N,/usb ports/VBUS_2_+*%
X100000000Y-169700000D03*
%TD*%
D10*
%TO.N,/VSYS_VCC_FUSE*%
%TO.C,C5*%
X175900000Y-125467677D03*
D11*
%TO.N,/VSYS_GND*%
X175900000Y-120467677D03*
%TD*%
D25*
%TO.N,/Output connectors/3V3_-*%
%TO.C,F5*%
X182600000Y-172000000D03*
D26*
%TO.N,/Output connectors/3.3V_FUSE*%
X182600000Y-176800000D03*
%TD*%
D29*
%TO.N,Net-(D7-A1)*%
%TO.C,D7*%
X150950000Y-184000000D03*
D30*
%TO.N,Net-(D7-K)*%
X153490000Y-184000000D03*
%TO.N,Net-(D7-A2)*%
X156030000Y-184000000D03*
%TD*%
D11*
%TO.N,/VSYS_GND*%
%TO.C,J6*%
X165000000Y-93000000D03*
%TD*%
D29*
%TO.N,Net-(D2-A1)*%
%TO.C,D2*%
X80950000Y-184000000D03*
D30*
%TO.N,Net-(D2-K)*%
X83490000Y-184000000D03*
%TO.N,Net-(D2-A2)*%
X86030000Y-184000000D03*
%TD*%
D21*
%TO.N,unconnected-(U2-NC-Pad1)*%
%TO.C,U2*%
X202100000Y-145500000D03*
D38*
%TO.N,Net-(U2-A)*%
X199560000Y-145500000D03*
%TO.N,Net-(Q1-D)*%
X197020000Y-145500000D03*
%TO.N,unconnected-(U2-NC-Pad4)*%
X194480000Y-145500000D03*
%TO.N,/+5V_PWR_GND*%
X194480000Y-153120000D03*
%TO.N,Net-(U2-VO)*%
X197020000Y-153120000D03*
%TO.N,/+5V_PWR_VCC*%
X199560000Y-153120000D03*
X202100000Y-153120000D03*
%TD*%
D10*
%TO.N,/usb ports/USB_1_+5V*%
%TO.C,C11*%
X82300000Y-140832323D03*
D11*
%TO.N,/+5V_PWR_GND*%
X82300000Y-145832323D03*
%TD*%
D39*
%TO.N,/usb ports/USB_1_BP*%
%TO.C,D1*%
X58600000Y-154305000D03*
D40*
%TO.N,/usb ports/DCDC_CLR_PAD*%
X58600000Y-150495000D03*
%TD*%
D41*
%TO.N,/VSYS_VCC_FUSE*%
%TO.C,M1*%
X95110000Y-92750000D03*
D24*
%TO.N,Net-(D12-A)*%
X95110000Y-95250000D03*
%TD*%
D42*
%TO.N,/+5V_PWR_GND*%
X58500000Y-126100000D03*
X173275000Y-160550000D03*
X182475000Y-148550000D03*
X154225000Y-159225000D03*
X201233059Y-157666941D03*
X184500000Y-137500000D03*
X77300000Y-176600000D03*
X139400000Y-167500000D03*
X58500000Y-125100000D03*
X182475000Y-151750000D03*
X182475000Y-150750000D03*
X77300000Y-178100000D03*
X192300000Y-164600000D03*
X198100000Y-164500000D03*
X172375000Y-160550000D03*
X174800000Y-173200000D03*
X68100000Y-173500000D03*
X190500000Y-138000000D03*
X58500000Y-127100000D03*
X58500000Y-128100000D03*
X160800000Y-138600000D03*
X102200000Y-151400000D03*
X182475000Y-149750000D03*
X171475000Y-160550000D03*
X177000000Y-170400000D03*
%TO.N,/+5V_PWR_LOGIC*%
X88450000Y-177950000D03*
X139400000Y-158700000D03*
X104200000Y-149300000D03*
X158700000Y-176900000D03*
X171100000Y-172700000D03*
X125100000Y-177600000D03*
%TO.N,/VSYS_GND*%
X119785000Y-114800000D03*
X105100000Y-105200000D03*
X196800000Y-127200000D03*
X103785000Y-93800000D03*
X143350000Y-103462500D03*
X198900000Y-111800000D03*
X197988541Y-119711459D03*
X194850000Y-130650000D03*
X198500000Y-103400000D03*
X192000000Y-127350000D03*
X199300000Y-119500000D03*
%TO.N,/+5V_PWR_VCC*%
X186400000Y-145700000D03*
%TO.N,/usb ports/USB_2_+5V*%
X95400000Y-150100000D03*
X95400000Y-148600000D03*
%TO.N,/Control & Fan/RESET#*%
X145450000Y-102862500D03*
%TO.N,Net-(U5-FB)*%
X65300000Y-126700000D03*
X68800000Y-168800000D03*
%TO.N,/usb ports/VBUS1_3.3V*%
X82600000Y-175000000D03*
%TO.N,/Control & Fan/ENABLE_FAN*%
X119385000Y-94200000D03*
X144250000Y-105400000D03*
%TO.N,/usb ports/USB_1_BP*%
X71400000Y-173600000D03*
%TO.N,/VSYS_VCC_FUSE*%
X203500000Y-107700000D03*
X107185000Y-101800000D03*
X194400000Y-115800000D03*
X159000000Y-115000000D03*
X199500000Y-139100000D03*
X185600000Y-129175000D03*
X198400000Y-127200000D03*
X196200000Y-117200000D03*
X142450000Y-97362500D03*
X192500000Y-119200000D03*
X152600000Y-103800000D03*
X203000000Y-110400000D03*
X193400000Y-132800000D03*
%TO.N,Net-(U13-CAP{slash}2.5V)*%
X200925000Y-115900000D03*
%TO.N,/Control & Fan/TXD*%
X145740319Y-101571260D03*
%TO.N,/Control & Fan/SCK*%
X186600000Y-113800000D03*
%TO.N,/Control & Fan/MISO*%
X138550000Y-107175000D03*
%TO.N,Net-(U13-VOUT)*%
X200800000Y-120400000D03*
%TO.N,Net-(U15A--)*%
X100385000Y-104600000D03*
%TO.N,Net-(U14-VOUT)*%
X199225000Y-122300000D03*
%TO.N,/Output connectors/+5V*%
X146200000Y-147000000D03*
%TO.N,/usb ports/VBUS_2*%
X119200000Y-174100000D03*
%TO.N,/usb ports/VBUS_3*%
X152835000Y-175965000D03*
%TO.N,/VSYS_SDA*%
X154800000Y-107600000D03*
%TO.N,/VSYS_SCL*%
X154800000Y-105200000D03*
%TO.N,/Control & Fan/SIGNAL_ALWAYS_ON*%
X203600000Y-126000000D03*
X146600000Y-109400000D03*
%TO.N,/Control & Fan/RXD*%
X148550000Y-102175000D03*
%TO.N,/Output connectors/5V_-*%
X173800000Y-169300000D03*
X169986275Y-167813725D03*
%TO.N,Net-(U4-VPU)*%
X105400000Y-153200000D03*
%TO.N,/usb ports/VREF_2V5*%
X153300000Y-177100000D03*
X82800000Y-176500000D03*
X118200000Y-176800000D03*
%TO.N,/PWR_SDA*%
X102700000Y-146700000D03*
X177700000Y-173800000D03*
%TO.N,/PWR_SCL*%
X176800000Y-174400000D03*
X103300000Y-147800000D03*
%TO.N,/Control & Fan/SIGNAL_CS*%
X140200000Y-104000000D03*
X184200000Y-112000000D03*
%TO.N,/Control & Fan/SIGNAL_GEN_SHTDN*%
X135800000Y-103800000D03*
X197800000Y-122600000D03*
%TO.N,Net-(JP1-C)*%
X203500000Y-103300000D03*
%TD*%
D43*
%TO.N,/+5V_PWR_LOGIC*%
X131600000Y-135500000D02*
X152100000Y-135500000D01*
X128167677Y-134400000D02*
X151100000Y-134400000D01*
X158700000Y-176900000D02*
X158700000Y-171600000D01*
X88450000Y-177950000D02*
X88450000Y-174117677D01*
X171000000Y-172600000D02*
X171000000Y-164500000D01*
X151100000Y-134400000D02*
X151600000Y-134900000D01*
X144200000Y-136400000D02*
X151500000Y-136400000D01*
X141800000Y-154700000D02*
X141800000Y-142200000D01*
X151600000Y-134900000D02*
X152700000Y-134900000D01*
X125100000Y-177600000D02*
X125100000Y-142000000D01*
X163400000Y-143600000D02*
X154700000Y-134900000D01*
X139400000Y-158700000D02*
X139400000Y-141200000D01*
X88450000Y-174117677D02*
X128167677Y-134400000D01*
X151800000Y-137500000D02*
X152700000Y-136600000D01*
X120100000Y-133400000D02*
X151200000Y-133400000D01*
X171100000Y-172700000D02*
X171000000Y-172600000D01*
X146500000Y-137500000D02*
X151800000Y-137500000D01*
X152700000Y-136600000D02*
X152700000Y-134900000D01*
X171000000Y-164500000D02*
X163400000Y-156900000D01*
X141800000Y-142200000D02*
X146500000Y-137500000D01*
X151500000Y-136400000D02*
X152700000Y-135200000D01*
X154700000Y-134900000D02*
X152700000Y-134900000D01*
X139400000Y-141200000D02*
X144200000Y-136400000D01*
X163400000Y-156900000D02*
X163400000Y-143600000D01*
X125100000Y-142000000D02*
X131600000Y-135500000D01*
X151200000Y-133400000D02*
X152700000Y-134900000D01*
X158700000Y-171600000D02*
X141800000Y-154700000D01*
X104200000Y-149300000D02*
X120100000Y-133400000D01*
D44*
%TO.N,/Control & Fan/RESET#*%
X145950000Y-123905000D02*
X144950000Y-122905000D01*
X144950000Y-122905000D02*
X144950000Y-103362500D01*
X144950000Y-103362500D02*
X145450000Y-102862500D01*
D43*
%TO.N,Net-(U5-FB)*%
X65300000Y-142600000D02*
X71200000Y-148500000D01*
X71200000Y-166400000D02*
X68800000Y-168800000D01*
X71200000Y-148500000D02*
X71200000Y-166400000D01*
X65300000Y-126700000D02*
X65300000Y-142600000D01*
D44*
%TO.N,/VSYS_VCC_FUSE*%
X203000000Y-112200000D02*
X203000000Y-110400000D01*
D43*
X178200000Y-126100000D02*
X176532323Y-126100000D01*
X182900000Y-132700000D02*
X194000000Y-132700000D01*
X176532323Y-126100000D02*
X175900000Y-125467677D01*
X161867677Y-125467677D02*
X159000000Y-122600000D01*
D44*
X194400000Y-115800000D02*
X194800000Y-115400000D01*
X198800000Y-115400000D02*
X202200000Y-112000000D01*
D43*
X174922677Y-126445000D02*
X175900000Y-125467677D01*
X175900000Y-125467677D02*
X178667677Y-125467677D01*
X122585000Y-108800000D02*
X123785000Y-108800000D01*
X116785000Y-101800000D02*
X123785000Y-108800000D01*
D44*
X194400000Y-115800000D02*
X199400000Y-115800000D01*
X199400000Y-115800000D02*
X203000000Y-112200000D01*
D45*
X126600000Y-116600000D02*
X126600000Y-111415000D01*
D43*
X107185000Y-101800000D02*
X116785000Y-101800000D01*
X147537500Y-97362500D02*
X152600000Y-102425000D01*
X116385000Y-116200000D02*
X123785000Y-108800000D01*
X152600000Y-124875000D02*
X151030000Y-126445000D01*
X116985000Y-109715000D02*
X112285000Y-114415000D01*
X95110000Y-92750000D02*
X108935000Y-92750000D01*
D44*
X202200000Y-109000000D02*
X203500000Y-107700000D01*
D45*
X138800000Y-128800000D02*
X126600000Y-116600000D01*
D43*
X178667677Y-125467677D02*
X181350000Y-128150000D01*
X199500000Y-138200000D02*
X199500000Y-139100000D01*
X175900000Y-125700000D02*
X182900000Y-132700000D01*
D45*
X126600000Y-111415000D02*
X123785000Y-108600000D01*
D43*
X181350000Y-128150000D02*
X197450000Y-128150000D01*
X123785000Y-107600000D02*
X123785000Y-108600000D01*
X197450000Y-128150000D02*
X198400000Y-127200000D01*
D45*
X173700000Y-128800000D02*
X138800000Y-128800000D01*
D44*
X194800000Y-115400000D02*
X198800000Y-115400000D01*
D43*
X151030000Y-126445000D02*
X174922677Y-126445000D01*
X106670000Y-116200000D02*
X116385000Y-116200000D01*
X185600000Y-129175000D02*
X185425000Y-129000000D01*
X142450000Y-97362500D02*
X147537500Y-97362500D01*
X94585000Y-108775000D02*
X99245000Y-108775000D01*
D45*
X175900000Y-125467677D02*
X175900000Y-126600000D01*
D43*
X123785000Y-108600000D02*
X123785000Y-108800000D01*
X181100000Y-129000000D02*
X178200000Y-126100000D01*
X194000000Y-132700000D02*
X199500000Y-138200000D01*
D44*
X202200000Y-112000000D02*
X202200000Y-109000000D01*
D43*
X104885000Y-114415000D02*
X106670000Y-116200000D01*
X185425000Y-129000000D02*
X181100000Y-129000000D01*
X99245000Y-108775000D02*
X104885000Y-114415000D01*
X117685000Y-107800000D02*
X121585000Y-107800000D01*
X121585000Y-107800000D02*
X122585000Y-108800000D01*
X108935000Y-92750000D02*
X123785000Y-107600000D01*
X159000000Y-122600000D02*
X159000000Y-115000000D01*
X116985000Y-108500000D02*
X117685000Y-107800000D01*
D45*
X175900000Y-126600000D02*
X173700000Y-128800000D01*
D43*
X175900000Y-125467677D02*
X161867677Y-125467677D01*
X175900000Y-125467677D02*
X175900000Y-125700000D01*
X152600000Y-102425000D02*
X152600000Y-124875000D01*
X116985000Y-108500000D02*
X116985000Y-109715000D01*
D44*
%TO.N,/Control & Fan/TXD*%
X145740319Y-101571260D02*
X145740319Y-101965319D01*
X145740319Y-101965319D02*
X147450000Y-103675000D01*
X147150000Y-116701346D02*
X147150000Y-125245000D01*
X147450000Y-103675000D02*
X147450000Y-116401346D01*
X147450000Y-116401346D02*
X147150000Y-116701346D01*
X147150000Y-125245000D02*
X145950000Y-126445000D01*
%TO.N,/Control & Fan/SCK*%
X143410000Y-123905000D02*
X143410000Y-116190000D01*
%TO.N,/Control & Fan/MISO*%
X139970000Y-108595000D02*
X138550000Y-107175000D01*
X140870000Y-123905000D02*
X139970000Y-123005000D01*
X139970000Y-123005000D02*
X139970000Y-108595000D01*
D43*
%TO.N,Net-(U15A--)*%
X102385000Y-109415000D02*
X100385000Y-107415000D01*
X100385000Y-107415000D02*
X100385000Y-104600000D01*
D44*
%TO.N,/VSYS_SDA*%
X171700000Y-107600000D02*
X189200000Y-125100000D01*
X154800000Y-107600000D02*
X171700000Y-107600000D01*
%TO.N,/VSYS_SCL*%
X191700000Y-125100000D02*
X171800000Y-105200000D01*
X171800000Y-105200000D02*
X154800000Y-105200000D01*
%TO.N,/Control & Fan/RXD*%
X149750000Y-124342057D02*
X149750000Y-116601346D01*
X148490000Y-125602057D02*
X149750000Y-124342057D01*
X148490000Y-126445000D02*
X148490000Y-125602057D01*
X149950000Y-103575000D02*
X148550000Y-102175000D01*
X149750000Y-116601346D02*
X149950000Y-116401346D01*
X149950000Y-116401346D02*
X149950000Y-103575000D01*
%TD*%
%TA.AperFunction,Conductor*%
%TO.N,/Control & Fan/MISO*%
G36*
X140072539Y-122479113D02*
G01*
X141204910Y-123068560D01*
X141210665Y-123075419D01*
X141210318Y-123083410D01*
X140872993Y-123898764D01*
X140866664Y-123905098D01*
X140862169Y-123905991D01*
X139980896Y-123905012D01*
X139972627Y-123901576D01*
X139969238Y-123894130D01*
X139870877Y-122490310D01*
X139873717Y-122481817D01*
X139881730Y-122477821D01*
X139882548Y-122477792D01*
X140067138Y-122477792D01*
X140072539Y-122479113D01*
G37*
%TD.AperFunction*%
%TD*%
%TA.AperFunction,Conductor*%
%TO.N,/VSYS_SCL*%
G36*
X154963868Y-104834945D02*
G01*
X155592800Y-105097000D01*
X155599119Y-105103345D01*
X155600000Y-105107800D01*
X155600000Y-105292199D01*
X155596573Y-105300472D01*
X155592800Y-105302999D01*
X154963870Y-105565053D01*
X154954915Y-105565072D01*
X154948571Y-105558755D01*
X154800875Y-105204499D01*
X154800855Y-105195550D01*
X154948572Y-104841242D01*
X154954918Y-104834926D01*
X154963868Y-104834945D01*
G37*
%TD.AperFunction*%
%TD*%
%TA.AperFunction,Conductor*%
%TO.N,/Control & Fan/TXD*%
G36*
X146127822Y-101571237D02*
G01*
X146136087Y-101574678D01*
X146139499Y-101582958D01*
X146139472Y-101583730D01*
X146099124Y-102178028D01*
X146095724Y-102185508D01*
X145965425Y-102315807D01*
X145957152Y-102319234D01*
X145949141Y-102316061D01*
X145466249Y-101862346D01*
X145462568Y-101854184D01*
X145465735Y-101845808D01*
X145465968Y-101845568D01*
X145736174Y-101574008D01*
X145744435Y-101570561D01*
X146127822Y-101571237D01*
G37*
%TD.AperFunction*%
%TD*%
%TA.AperFunction,Conductor*%
%TO.N,/VSYS_SDA*%
G36*
X154963868Y-107234945D02*
G01*
X155592800Y-107497000D01*
X155599119Y-107503345D01*
X155600000Y-107507800D01*
X155600000Y-107692199D01*
X155596573Y-107700472D01*
X155592800Y-107702999D01*
X154963870Y-107965053D01*
X154954915Y-107965072D01*
X154948571Y-107958755D01*
X154800875Y-107604499D01*
X154800855Y-107595550D01*
X154948572Y-107241242D01*
X154954918Y-107234926D01*
X154963868Y-107234945D01*
G37*
%TD.AperFunction*%
%TD*%
%TA.AperFunction,Conductor*%
%TO.N,/VSYS_VCC_FUSE*%
G36*
X203496195Y-107697436D02*
G01*
X203502542Y-107703754D01*
X203502563Y-107703804D01*
X203648621Y-108058734D01*
X203648600Y-108067688D01*
X203642256Y-108074005D01*
X203012237Y-108333426D01*
X203003282Y-108333407D01*
X202999509Y-108330880D01*
X202869119Y-108200490D01*
X202865692Y-108192217D01*
X202866572Y-108187766D01*
X203125994Y-107557742D01*
X203132313Y-107551398D01*
X203141264Y-107551378D01*
X203496195Y-107697436D01*
G37*
%TD.AperFunction*%
%TD*%
%TA.AperFunction,Conductor*%
%TO.N,/+5V_PWR_LOGIC*%
G36*
X139648563Y-157903427D02*
G01*
X139651790Y-157909544D01*
X139797408Y-158686179D01*
X139795564Y-158694942D01*
X139788064Y-158699835D01*
X139785937Y-158700035D01*
X139400029Y-158700999D01*
X139399971Y-158700999D01*
X139014062Y-158700035D01*
X139005797Y-158696587D01*
X139002391Y-158688306D01*
X139002591Y-158686179D01*
X139148210Y-157909544D01*
X139153103Y-157902044D01*
X139159710Y-157900000D01*
X139640290Y-157900000D01*
X139648563Y-157903427D01*
G37*
%TD.AperFunction*%
%TD*%
%TA.AperFunction,Conductor*%
%TO.N,/VSYS_SDA*%
G36*
X188024217Y-123778028D02*
G01*
X188490499Y-123904295D01*
X189355548Y-124138549D01*
X189362638Y-124144019D01*
X189364020Y-124151827D01*
X189201877Y-125093906D01*
X189197097Y-125101478D01*
X189194190Y-125102972D01*
X188377534Y-125386932D01*
X188368594Y-125386412D01*
X188362640Y-125379724D01*
X188362589Y-125379574D01*
X187878537Y-123924532D01*
X187879177Y-123915602D01*
X187881363Y-123912571D01*
X188012887Y-123781047D01*
X188021159Y-123777621D01*
X188024217Y-123778028D01*
G37*
%TD.AperFunction*%
%TD*%
%TA.AperFunction,Conductor*%
%TO.N,/Control & Fan/SCK*%
G36*
X143802624Y-115801712D02*
G01*
X143805108Y-115803324D01*
X144497588Y-116389481D01*
X144501689Y-116397441D01*
X144498959Y-116405970D01*
X144498764Y-116406195D01*
X143513489Y-117511896D01*
X143505427Y-117515793D01*
X143504754Y-117515812D01*
X143319214Y-117515812D01*
X143310941Y-117512385D01*
X143307840Y-117506855D01*
X143042391Y-116406195D01*
X142968814Y-116101114D01*
X142970206Y-116092270D01*
X142976321Y-116087330D01*
X143793683Y-115801211D01*
X143802624Y-115801712D01*
G37*
%TD.AperFunction*%
%TD*%
%TA.AperFunction,Conductor*%
%TO.N,/VSYS_VCC_FUSE*%
G36*
X174909165Y-124849393D02*
G01*
X175796718Y-125402670D01*
X175896882Y-125465110D01*
X175902090Y-125472395D01*
X175902092Y-125472404D01*
X176129171Y-126454746D01*
X176127696Y-126463578D01*
X176120407Y-126468780D01*
X176118957Y-126469021D01*
X173912885Y-126693687D01*
X173904308Y-126691116D01*
X173900060Y-126683232D01*
X173900000Y-126682047D01*
X173900000Y-126198858D01*
X173902294Y-126191899D01*
X174893575Y-124852361D01*
X174901249Y-124847751D01*
X174909165Y-124849393D01*
G37*
%TD.AperFunction*%
%TD*%
%TA.AperFunction,Conductor*%
%TO.N,/Control & Fan/RESET#*%
G36*
X145092285Y-102714298D02*
G01*
X145445496Y-102859646D01*
X145451843Y-102865964D01*
X145451858Y-102865999D01*
X145598570Y-103221152D01*
X145598561Y-103230107D01*
X145592223Y-103236433D01*
X145592137Y-103236468D01*
X145052107Y-103454543D01*
X145047726Y-103455394D01*
X144865860Y-103455394D01*
X144857587Y-103451967D01*
X144854160Y-103443694D01*
X144854681Y-103440241D01*
X145076666Y-102721666D01*
X145082381Y-102714776D01*
X145091297Y-102713943D01*
X145092285Y-102714298D01*
G37*
%TD.AperFunction*%
%TD*%
%TA.AperFunction,Conductor*%
%TO.N,Net-(U5-FB)*%
G36*
X69195775Y-168064404D02*
G01*
X69535595Y-168404224D01*
X69539022Y-168412497D01*
X69536978Y-168419104D01*
X69090783Y-169071237D01*
X69083283Y-169076130D01*
X69074520Y-169074286D01*
X69072875Y-169072924D01*
X68799293Y-168800707D01*
X68799251Y-168800665D01*
X68527075Y-168527124D01*
X68523669Y-168518843D01*
X68527117Y-168510578D01*
X68528756Y-168509220D01*
X69180895Y-168063020D01*
X69189658Y-168061177D01*
X69195775Y-168064404D01*
G37*
%TD.AperFunction*%
%TD*%
%TA.AperFunction,Conductor*%
%TO.N,/VSYS_VCC_FUSE*%
G36*
X118809224Y-107553624D02*
G01*
X118813062Y-107561715D01*
X118813077Y-107562303D01*
X118813077Y-108045709D01*
X118810302Y-108053274D01*
X117991069Y-109019869D01*
X117983106Y-109023964D01*
X117976693Y-109022657D01*
X116989022Y-108502644D01*
X116983298Y-108495757D01*
X116982968Y-108494417D01*
X116829334Y-107663138D01*
X116831200Y-107654381D01*
X116838713Y-107649508D01*
X116840249Y-107649328D01*
X118800790Y-107550618D01*
X118809224Y-107553624D01*
G37*
%TD.AperFunction*%
%TD*%
%TA.AperFunction,Conductor*%
%TO.N,/VSYS_VCC_FUSE*%
G36*
X152762141Y-103803427D02*
G01*
X152765568Y-103811700D01*
X152762141Y-103819973D01*
X152756674Y-103823058D01*
X152263312Y-103944953D01*
X152254459Y-103943611D01*
X152249148Y-103936401D01*
X152250490Y-103927548D01*
X152251285Y-103926393D01*
X152346487Y-103804498D01*
X152354280Y-103800087D01*
X152355708Y-103800000D01*
X152753868Y-103800000D01*
X152762141Y-103803427D01*
G37*
%TD.AperFunction*%
%TD*%
%TA.AperFunction,Conductor*%
%TO.N,/Control & Fan/RXD*%
G36*
X148917688Y-102026399D02*
G01*
X148924005Y-102032743D01*
X149183426Y-102662762D01*
X149183407Y-102671717D01*
X149180880Y-102675490D01*
X149050490Y-102805880D01*
X149042217Y-102809307D01*
X149037762Y-102808426D01*
X148407743Y-102549005D01*
X148401398Y-102542686D01*
X148401378Y-102533735D01*
X148547437Y-102178802D01*
X148553753Y-102172457D01*
X148908735Y-102026378D01*
X148917688Y-102026399D01*
G37*
%TD.AperFunction*%
%TD*%
%TA.AperFunction,Conductor*%
%TO.N,/Control & Fan/SCK*%
G36*
X143511058Y-122108427D02*
G01*
X143513239Y-122111446D01*
X144235845Y-123549349D01*
X144236498Y-123558280D01*
X144230645Y-123565057D01*
X144229879Y-123565408D01*
X143414488Y-123904135D01*
X143405534Y-123904144D01*
X143405512Y-123904135D01*
X142590120Y-123565408D01*
X142583794Y-123559069D01*
X142583803Y-123550115D01*
X142584148Y-123549361D01*
X143306761Y-122111446D01*
X143313538Y-122105593D01*
X143317215Y-122105000D01*
X143502785Y-122105000D01*
X143511058Y-122108427D01*
G37*
%TD.AperFunction*%
%TD*%
%TA.AperFunction,Conductor*%
%TO.N,Net-(U15A--)*%
G36*
X101466076Y-108138510D02*
G01*
X102435822Y-108581289D01*
X102673234Y-108689690D01*
X102679336Y-108696243D01*
X102679189Y-108704798D01*
X102387562Y-109411212D01*
X102381237Y-109417551D01*
X102381212Y-109417562D01*
X101674798Y-109709189D01*
X101665843Y-109709178D01*
X101659690Y-109703234D01*
X101526355Y-109411212D01*
X101108510Y-108496078D01*
X101108192Y-108487130D01*
X101110879Y-108482949D01*
X101452948Y-108140880D01*
X101461220Y-108137454D01*
X101466076Y-108138510D01*
G37*
%TD.AperFunction*%
%TD*%
%TA.AperFunction,Conductor*%
%TO.N,/VSYS_VCC_FUSE*%
G36*
X95438372Y-107948485D02*
G01*
X96429158Y-108521621D01*
X96434604Y-108528729D01*
X96435000Y-108531748D01*
X96435000Y-109018251D01*
X96431573Y-109026524D01*
X96429158Y-109028379D01*
X95438372Y-109601514D01*
X95429495Y-109602690D01*
X95424319Y-109599736D01*
X94592506Y-108783348D01*
X94589003Y-108775109D01*
X94592352Y-108766805D01*
X94592466Y-108766690D01*
X95424321Y-107950262D01*
X95432623Y-107946914D01*
X95438372Y-107948485D01*
G37*
%TD.AperFunction*%
%TD*%
%TA.AperFunction,Conductor*%
%TO.N,/+5V_PWR_LOGIC*%
G36*
X151707238Y-133907238D02*
G01*
X152691069Y-134891069D01*
X152694496Y-134899342D01*
X152691069Y-134907615D01*
X152689721Y-134908773D01*
X151709434Y-135628537D01*
X151700737Y-135630671D01*
X151693079Y-135626031D01*
X151693076Y-135626027D01*
X150929163Y-134584872D01*
X150927032Y-134576175D01*
X150930321Y-134569680D01*
X151276235Y-134223766D01*
X151277391Y-134222755D01*
X151691865Y-133906212D01*
X151700519Y-133903915D01*
X151707238Y-133907238D01*
G37*
%TD.AperFunction*%
%TD*%
%TA.AperFunction,Conductor*%
%TO.N,/+5V_PWR_LOGIC*%
G36*
X88698563Y-177153427D02*
G01*
X88701790Y-177159544D01*
X88847408Y-177936179D01*
X88845564Y-177944942D01*
X88838064Y-177949835D01*
X88835937Y-177950035D01*
X88450029Y-177950999D01*
X88449971Y-177950999D01*
X88064062Y-177950035D01*
X88055797Y-177946587D01*
X88052391Y-177938306D01*
X88052591Y-177936179D01*
X88198210Y-177159544D01*
X88203103Y-177152044D01*
X88209710Y-177150000D01*
X88690290Y-177150000D01*
X88698563Y-177153427D01*
G37*
%TD.AperFunction*%
%TD*%
%TA.AperFunction,Conductor*%
%TO.N,/VSYS_VCC_FUSE*%
G36*
X174907175Y-124474845D02*
G01*
X175892714Y-125459400D01*
X175896145Y-125467671D01*
X175892722Y-125475946D01*
X175892714Y-125475954D01*
X174907175Y-126460508D01*
X174898900Y-126463931D01*
X174891886Y-126461591D01*
X173904680Y-125721187D01*
X173900118Y-125713482D01*
X173900000Y-125711827D01*
X173900000Y-125223527D01*
X173903427Y-125215254D01*
X173904680Y-125214167D01*
X174891887Y-124473761D01*
X174900561Y-124471540D01*
X174907175Y-124474845D01*
G37*
%TD.AperFunction*%
%TD*%
%TA.AperFunction,Conductor*%
%TO.N,/VSYS_VCC_FUSE*%
G36*
X152131619Y-125001036D02*
G01*
X152473963Y-125343380D01*
X152477390Y-125351653D01*
X152476442Y-125356267D01*
X151866042Y-126778809D01*
X151859631Y-126785060D01*
X151850824Y-126785009D01*
X151033785Y-126447562D01*
X151027446Y-126441236D01*
X151027437Y-126441214D01*
X150689990Y-125624173D01*
X150689999Y-125615221D01*
X150696189Y-125608957D01*
X152118732Y-124998556D01*
X152127687Y-124998444D01*
X152131619Y-125001036D01*
G37*
%TD.AperFunction*%
%TD*%
%TA.AperFunction,Conductor*%
%TO.N,/VSYS_VCC_FUSE*%
G36*
X95963372Y-91923485D02*
G01*
X96954158Y-92496621D01*
X96959604Y-92503729D01*
X96960000Y-92506748D01*
X96960000Y-92993251D01*
X96956573Y-93001524D01*
X96954158Y-93003379D01*
X95963372Y-93576514D01*
X95954495Y-93577690D01*
X95949319Y-93574736D01*
X95117506Y-92758348D01*
X95114003Y-92750109D01*
X95117352Y-92741805D01*
X95117466Y-92741690D01*
X95949321Y-91925262D01*
X95957623Y-91921914D01*
X95963372Y-91923485D01*
G37*
%TD.AperFunction*%
%TD*%
%TA.AperFunction,Conductor*%
%TO.N,/VSYS_VCC_FUSE*%
G36*
X116993029Y-108508420D02*
G01*
X116993187Y-108508612D01*
X117662123Y-109341984D01*
X117664630Y-109350581D01*
X117661437Y-109357413D01*
X116827099Y-110226113D01*
X116818897Y-110229706D01*
X116810556Y-110226446D01*
X116810388Y-110226281D01*
X116466076Y-109881969D01*
X116464645Y-109880232D01*
X116064106Y-109285512D01*
X116062327Y-109276736D01*
X116066292Y-109270012D01*
X116976550Y-108506969D01*
X116985088Y-108504281D01*
X116993029Y-108508420D01*
G37*
%TD.AperFunction*%
%TD*%
%TA.AperFunction,Conductor*%
%TO.N,/VSYS_VCC_FUSE*%
G36*
X195029499Y-115304227D02*
G01*
X195034172Y-115311866D01*
X195034315Y-115313688D01*
X195034315Y-115496831D01*
X195032717Y-115502734D01*
X194774696Y-115944268D01*
X194767563Y-115949682D01*
X194760127Y-115949179D01*
X194508860Y-115845382D01*
X194406251Y-115802995D01*
X194399914Y-115796670D01*
X194399019Y-115792156D01*
X194399975Y-115409973D01*
X194403423Y-115401709D01*
X194409851Y-115398446D01*
X195020794Y-115302131D01*
X195029499Y-115304227D01*
G37*
%TD.AperFunction*%
%TD*%
%TA.AperFunction,Conductor*%
%TO.N,/VSYS_VCC_FUSE*%
G36*
X184857169Y-128750399D02*
G01*
X185588715Y-128774626D01*
X185596870Y-128778325D01*
X185600028Y-128786291D01*
X185600994Y-129172644D01*
X185600093Y-129177175D01*
X185451708Y-129533082D01*
X185445361Y-129539400D01*
X185436407Y-129539379D01*
X185435766Y-129539089D01*
X184851656Y-129253209D01*
X184845731Y-129246494D01*
X184845099Y-129242700D01*
X184845099Y-128762094D01*
X184848526Y-128753821D01*
X184856799Y-128750394D01*
X184857169Y-128750399D01*
G37*
%TD.AperFunction*%
%TD*%
%TA.AperFunction,Conductor*%
%TO.N,/VSYS_VCC_FUSE*%
G36*
X176907070Y-124743136D02*
G01*
X177897009Y-125846666D01*
X177900000Y-125854478D01*
X177900000Y-126339595D01*
X177896573Y-126347868D01*
X177889667Y-126351215D01*
X176905626Y-126467014D01*
X176897009Y-126464577D01*
X176895990Y-126463671D01*
X175908663Y-125477330D01*
X175905232Y-125469059D01*
X175908655Y-125460784D01*
X175910018Y-125459614D01*
X176891454Y-124741507D01*
X176900153Y-124739388D01*
X176907070Y-124743136D01*
G37*
%TD.AperFunction*%
%TD*%
%TA.AperFunction,Conductor*%
%TO.N,/+5V_PWR_LOGIC*%
G36*
X125348563Y-176803427D02*
G01*
X125351790Y-176809544D01*
X125497408Y-177586179D01*
X125495564Y-177594942D01*
X125488064Y-177599835D01*
X125485937Y-177600035D01*
X125100029Y-177600999D01*
X125099971Y-177600999D01*
X124714062Y-177600035D01*
X124705797Y-177596587D01*
X124702391Y-177588306D01*
X124702591Y-177586179D01*
X124848210Y-176809544D01*
X124853103Y-176802044D01*
X124859710Y-176800000D01*
X125340290Y-176800000D01*
X125348563Y-176803427D01*
G37*
%TD.AperFunction*%
%TD*%
%TA.AperFunction,Conductor*%
%TO.N,/+5V_PWR_LOGIC*%
G36*
X104595775Y-148564404D02*
G01*
X104935595Y-148904224D01*
X104939022Y-148912497D01*
X104936978Y-148919104D01*
X104490783Y-149571237D01*
X104483283Y-149576130D01*
X104474520Y-149574286D01*
X104472875Y-149572924D01*
X104199293Y-149300707D01*
X104199251Y-149300665D01*
X103927075Y-149027124D01*
X103923669Y-149018843D01*
X103927117Y-149010578D01*
X103928756Y-149009220D01*
X104580895Y-148563020D01*
X104589658Y-148561177D01*
X104595775Y-148564404D01*
G37*
%TD.AperFunction*%
%TD*%
%TA.AperFunction,Conductor*%
%TO.N,/+5V_PWR_LOGIC*%
G36*
X153708113Y-133906085D02*
G01*
X154695320Y-134646490D01*
X154699882Y-134654195D01*
X154700000Y-134655850D01*
X154700000Y-135144150D01*
X154696573Y-135152423D01*
X154695320Y-135153510D01*
X153708113Y-135893914D01*
X153699438Y-135896136D01*
X153692824Y-135892831D01*
X153319379Y-135519760D01*
X152707284Y-134908276D01*
X152703854Y-134900006D01*
X152707277Y-134891731D01*
X152707285Y-134891723D01*
X152943394Y-134655850D01*
X153692825Y-133907167D01*
X153701099Y-133903745D01*
X153708113Y-133906085D01*
G37*
%TD.AperFunction*%
%TD*%
%TA.AperFunction,Conductor*%
%TO.N,/+5V_PWR_LOGIC*%
G36*
X158948563Y-176103427D02*
G01*
X158951790Y-176109544D01*
X159097408Y-176886179D01*
X159095564Y-176894942D01*
X159088064Y-176899835D01*
X159085937Y-176900035D01*
X158700029Y-176900999D01*
X158699971Y-176900999D01*
X158314062Y-176900035D01*
X158305797Y-176896587D01*
X158302391Y-176888306D01*
X158302591Y-176886179D01*
X158448210Y-176109544D01*
X158453103Y-176102044D01*
X158459710Y-176100000D01*
X158940290Y-176100000D01*
X158948563Y-176103427D01*
G37*
%TD.AperFunction*%
%TD*%
%TA.AperFunction,Conductor*%
%TO.N,/VSYS_VCC_FUSE*%
G36*
X152822641Y-126192060D02*
G01*
X152829052Y-126198310D01*
X152830000Y-126202924D01*
X152830000Y-126687075D01*
X152826573Y-126695348D01*
X152822640Y-126697940D01*
X151385132Y-127272210D01*
X151376178Y-127272097D01*
X151369987Y-127265833D01*
X151134075Y-126697940D01*
X151030863Y-126449487D01*
X151030855Y-126440534D01*
X151030864Y-126440512D01*
X151132854Y-126195000D01*
X151369987Y-125624165D01*
X151376326Y-125617840D01*
X151385131Y-125617789D01*
X152822641Y-126192060D01*
G37*
%TD.AperFunction*%
%TD*%
%TA.AperFunction,Conductor*%
%TO.N,/VSYS_VCC_FUSE*%
G36*
X176908113Y-124473762D02*
G01*
X177895320Y-125214167D01*
X177899882Y-125221872D01*
X177900000Y-125223527D01*
X177900000Y-125711827D01*
X177896573Y-125720100D01*
X177895320Y-125721187D01*
X176908113Y-126461591D01*
X176899438Y-126463813D01*
X176892824Y-126460508D01*
X176519379Y-126087437D01*
X175907284Y-125475953D01*
X175903854Y-125467683D01*
X175907277Y-125459408D01*
X175907285Y-125459400D01*
X176143394Y-125223527D01*
X176892825Y-124474844D01*
X176901099Y-124471422D01*
X176908113Y-124473762D01*
G37*
%TD.AperFunction*%
%TD*%
%TA.AperFunction,Conductor*%
%TO.N,Net-(U15A--)*%
G36*
X100770939Y-104599964D02*
G01*
X100779202Y-104603412D01*
X100782608Y-104611693D01*
X100782408Y-104613820D01*
X100636790Y-105390456D01*
X100631897Y-105397956D01*
X100625290Y-105400000D01*
X100144710Y-105400000D01*
X100136437Y-105396573D01*
X100133210Y-105390456D01*
X99987591Y-104613820D01*
X99989435Y-104605057D01*
X99996935Y-104600164D01*
X99999052Y-104599964D01*
X100385000Y-104599000D01*
X100770939Y-104599964D01*
G37*
%TD.AperFunction*%
%TD*%
%TA.AperFunction,Conductor*%
%TO.N,/+5V_PWR_LOGIC*%
G36*
X151708482Y-134162465D02*
G01*
X152690117Y-134891913D01*
X152694714Y-134899598D01*
X152692530Y-134908282D01*
X152691408Y-134909581D01*
X151704172Y-135895831D01*
X151695897Y-135899254D01*
X151694167Y-135899125D01*
X150709964Y-135751494D01*
X150702291Y-135746877D01*
X150700000Y-135739923D01*
X150700000Y-135254541D01*
X150703065Y-135246647D01*
X151012403Y-134908282D01*
X151692869Y-134163961D01*
X151700980Y-134160168D01*
X151708482Y-134162465D01*
G37*
%TD.AperFunction*%
%TD*%
%TA.AperFunction,Conductor*%
%TO.N,/VSYS_VCC_FUSE*%
G36*
X198125479Y-126925713D02*
G01*
X198127124Y-126927075D01*
X198400707Y-127199293D01*
X198400749Y-127199335D01*
X198672924Y-127472875D01*
X198676330Y-127481156D01*
X198672882Y-127489421D01*
X198671237Y-127490783D01*
X198019104Y-127936978D01*
X198010341Y-127938822D01*
X198004224Y-127935595D01*
X197664404Y-127595775D01*
X197660977Y-127587502D01*
X197663021Y-127580895D01*
X198109217Y-126928761D01*
X198116716Y-126923869D01*
X198125479Y-126925713D01*
G37*
%TD.AperFunction*%
%TD*%
%TA.AperFunction,Conductor*%
%TO.N,Net-(U5-FB)*%
G36*
X65685939Y-126699964D02*
G01*
X65694202Y-126703412D01*
X65697608Y-126711693D01*
X65697408Y-126713820D01*
X65551790Y-127490456D01*
X65546897Y-127497956D01*
X65540290Y-127500000D01*
X65059710Y-127500000D01*
X65051437Y-127496573D01*
X65048210Y-127490456D01*
X64902591Y-126713820D01*
X64904435Y-126705057D01*
X64911935Y-126700164D01*
X64914052Y-126699964D01*
X65300000Y-126699000D01*
X65685939Y-126699964D01*
G37*
%TD.AperFunction*%
%TD*%
%TA.AperFunction,Conductor*%
%TO.N,/VSYS_VCC_FUSE*%
G36*
X107198817Y-101402590D02*
G01*
X107975457Y-101548210D01*
X107982956Y-101553103D01*
X107985000Y-101559710D01*
X107985000Y-102040289D01*
X107981573Y-102048562D01*
X107975456Y-102051789D01*
X107198820Y-102197408D01*
X107190057Y-102195564D01*
X107185164Y-102188064D01*
X107184964Y-102185946D01*
X107184000Y-101800000D01*
X107184964Y-101414059D01*
X107188412Y-101405797D01*
X107196693Y-101402391D01*
X107198817Y-101402590D01*
G37*
%TD.AperFunction*%
%TD*%
%TA.AperFunction,Conductor*%
%TO.N,/VSYS_VCC_FUSE*%
G36*
X113445693Y-112912608D02*
G01*
X113787391Y-113254306D01*
X113790818Y-113262579D01*
X113789613Y-113267751D01*
X113069840Y-114728264D01*
X113063109Y-114734170D01*
X113054879Y-114733906D01*
X112288785Y-114417562D01*
X112282447Y-114411237D01*
X111966092Y-113645120D01*
X111966102Y-113636165D01*
X111971732Y-113630160D01*
X113432248Y-112910385D01*
X113441184Y-112909803D01*
X113445693Y-112912608D01*
G37*
%TD.AperFunction*%
%TD*%
%TA.AperFunction,Conductor*%
%TO.N,/Control & Fan/RXD*%
G36*
X149110539Y-124854623D02*
G01*
X149241742Y-124985826D01*
X149245111Y-124992937D01*
X149388717Y-126432148D01*
X149386129Y-126440721D01*
X149378237Y-126444952D01*
X149377084Y-126445010D01*
X148494151Y-126445703D01*
X148485877Y-126442284D01*
X147863004Y-125818025D01*
X147859587Y-125809749D01*
X147863023Y-125801480D01*
X147864144Y-125800495D01*
X149095136Y-124853621D01*
X149103780Y-124851294D01*
X149110539Y-124854623D01*
G37*
%TD.AperFunction*%
%TD*%
%TA.AperFunction,Conductor*%
%TO.N,/VSYS_VCC_FUSE*%
G36*
X193375087Y-132477726D02*
G01*
X193379924Y-132485261D01*
X193380109Y-132487333D01*
X193380109Y-132938401D01*
X193376682Y-132946674D01*
X193368512Y-132950101D01*
X193053069Y-132952874D01*
X193044766Y-132949520D01*
X193041266Y-132941277D01*
X193043358Y-132934498D01*
X193358802Y-132480654D01*
X193366337Y-132475818D01*
X193375087Y-132477726D01*
G37*
%TD.AperFunction*%
%TD*%
%TA.AperFunction,Conductor*%
%TO.N,/VSYS_VCC_FUSE*%
G36*
X142463817Y-96965090D02*
G01*
X143240457Y-97110710D01*
X143247956Y-97115603D01*
X143250000Y-97122210D01*
X143250000Y-97602789D01*
X143246573Y-97611062D01*
X143240456Y-97614289D01*
X142463820Y-97759908D01*
X142455057Y-97758064D01*
X142450164Y-97750564D01*
X142449964Y-97748446D01*
X142449000Y-97362500D01*
X142449964Y-96976559D01*
X142453412Y-96968297D01*
X142461693Y-96964891D01*
X142463817Y-96965090D01*
G37*
%TD.AperFunction*%
%TD*%
%TA.AperFunction,Conductor*%
%TO.N,/VSYS_VCC_FUSE*%
G36*
X159385939Y-114999964D02*
G01*
X159394202Y-115003412D01*
X159397608Y-115011693D01*
X159397408Y-115013820D01*
X159251790Y-115790456D01*
X159246897Y-115797956D01*
X159240290Y-115800000D01*
X158759710Y-115800000D01*
X158751437Y-115796573D01*
X158748210Y-115790456D01*
X158602591Y-115013820D01*
X158604435Y-115005057D01*
X158611935Y-115000164D01*
X158614052Y-114999964D01*
X159000000Y-114999000D01*
X159385939Y-114999964D01*
G37*
%TD.AperFunction*%
%TD*%
%TA.AperFunction,Conductor*%
%TO.N,/VSYS_VCC_FUSE*%
G36*
X175907442Y-125476780D02*
G01*
X175908720Y-125478295D01*
X176603467Y-126460125D01*
X176605448Y-126468858D01*
X176602694Y-126474618D01*
X175648253Y-127557743D01*
X175640212Y-127561685D01*
X175631740Y-127558786D01*
X175631202Y-127558281D01*
X174935935Y-126863014D01*
X174932549Y-126855719D01*
X174900453Y-126473085D01*
X174903176Y-126464557D01*
X174903827Y-126463849D01*
X175890897Y-125476779D01*
X175899169Y-125473353D01*
X175907442Y-125476780D01*
G37*
%TD.AperFunction*%
%TD*%
%TA.AperFunction,Conductor*%
%TO.N,/Control & Fan/RESET#*%
G36*
X145052271Y-122520224D02*
G01*
X146284010Y-123068873D01*
X146290173Y-123075370D01*
X146290060Y-123084034D01*
X145952993Y-123898764D01*
X145946664Y-123905098D01*
X145942169Y-123905991D01*
X145060121Y-123905011D01*
X145051852Y-123901575D01*
X145048554Y-123894982D01*
X144851930Y-122532584D01*
X144854140Y-122523906D01*
X144861839Y-122519333D01*
X144863510Y-122519213D01*
X145047511Y-122519213D01*
X145052271Y-122520224D01*
G37*
%TD.AperFunction*%
%TD*%
%TA.AperFunction,Conductor*%
%TO.N,/+5V_PWR_LOGIC*%
G36*
X150922645Y-133155403D02*
G01*
X153052794Y-133896105D01*
X153059481Y-133902058D01*
X153060001Y-133910998D01*
X153059948Y-133911147D01*
X152702656Y-134895437D01*
X152696612Y-134902045D01*
X152696600Y-134902050D01*
X151710640Y-135361560D01*
X151701694Y-135361949D01*
X151695093Y-135355897D01*
X151695076Y-135355861D01*
X151482397Y-134895437D01*
X151027666Y-133910998D01*
X150908184Y-133652333D01*
X150907106Y-133647427D01*
X150907106Y-133166455D01*
X150910533Y-133158182D01*
X150918806Y-133154755D01*
X150922645Y-133155403D01*
G37*
%TD.AperFunction*%
%TD*%
%TA.AperFunction,Conductor*%
%TO.N,/+5V_PWR_LOGIC*%
G36*
X152708504Y-134908041D02*
G01*
X152708953Y-134908515D01*
X153588713Y-135892374D01*
X153591673Y-135900826D01*
X153588884Y-135907776D01*
X152672865Y-136979292D01*
X152664885Y-136983353D01*
X152656369Y-136980582D01*
X152655699Y-136979962D01*
X152311472Y-136635735D01*
X152310747Y-136634940D01*
X151706819Y-135908206D01*
X151704167Y-135899653D01*
X151707543Y-135892456D01*
X152691959Y-134908040D01*
X152700231Y-134904614D01*
X152708504Y-134908041D01*
G37*
%TD.AperFunction*%
%TD*%
%TA.AperFunction,Conductor*%
%TO.N,/Control & Fan/MISO*%
G36*
X138917688Y-107026399D02*
G01*
X138924005Y-107032743D01*
X139183426Y-107662762D01*
X139183407Y-107671717D01*
X139180880Y-107675490D01*
X139050490Y-107805880D01*
X139042217Y-107809307D01*
X139037762Y-107808426D01*
X138407743Y-107549005D01*
X138401398Y-107542686D01*
X138401378Y-107533735D01*
X138547437Y-107178802D01*
X138553753Y-107172457D01*
X138908735Y-107026378D01*
X138917688Y-107026399D01*
G37*
%TD.AperFunction*%
%TD*%
%TA.AperFunction,Conductor*%
%TO.N,/VSYS_VCC_FUSE*%
G36*
X105663834Y-114096103D02*
G01*
X105669840Y-114101735D01*
X106389613Y-115562248D01*
X106390196Y-115571184D01*
X106387391Y-115575693D01*
X106045693Y-115917391D01*
X106037420Y-115920818D01*
X106032248Y-115919613D01*
X104571735Y-115199840D01*
X104565829Y-115193109D01*
X104566093Y-115184879D01*
X104882438Y-114418783D01*
X104888760Y-114412448D01*
X105654879Y-114096093D01*
X105663834Y-114096103D01*
G37*
%TD.AperFunction*%
%TD*%
%TA.AperFunction,Conductor*%
%TO.N,/VSYS_VCC_FUSE*%
G36*
X103737751Y-112910386D02*
G01*
X104433940Y-113253483D01*
X105198265Y-113630159D01*
X105204171Y-113636890D01*
X105203907Y-113645120D01*
X104887562Y-114411214D01*
X104881237Y-114417552D01*
X104881214Y-114417562D01*
X104115120Y-114733906D01*
X104106165Y-114733896D01*
X104100159Y-114728264D01*
X103947033Y-114417552D01*
X103561374Y-113635000D01*
X103380386Y-113267751D01*
X103379803Y-113258815D01*
X103382606Y-113254308D01*
X103724307Y-112912607D01*
X103732579Y-112909181D01*
X103737751Y-112910386D01*
G37*
%TD.AperFunction*%
%TD*%
%TA.AperFunction,Conductor*%
%TO.N,/Control & Fan/TXD*%
G36*
X147242781Y-125145483D02*
G01*
X147246208Y-125153756D01*
X147245762Y-125156957D01*
X146785081Y-126776792D01*
X146779521Y-126783812D01*
X146770626Y-126784845D01*
X146769364Y-126784406D01*
X146540191Y-126689755D01*
X145954488Y-126447853D01*
X145948149Y-126441527D01*
X145948143Y-126441512D01*
X145610415Y-125625183D01*
X145610419Y-125616228D01*
X145616753Y-125609899D01*
X145617581Y-125609592D01*
X147048232Y-125142632D01*
X147051862Y-125142056D01*
X147234508Y-125142056D01*
X147242781Y-125145483D01*
G37*
%TD.AperFunction*%
%TD*%
%TA.AperFunction,Conductor*%
%TO.N,/VSYS_VCC_FUSE*%
G36*
X176897697Y-125100143D02*
G01*
X176903788Y-125106708D01*
X176903888Y-125106987D01*
X177549195Y-126991103D01*
X177548633Y-127000040D01*
X177546399Y-127003167D01*
X177203987Y-127345579D01*
X177195714Y-127349006D01*
X177190453Y-127347756D01*
X175452401Y-126472741D01*
X175446552Y-126465960D01*
X175447018Y-126457432D01*
X175897276Y-125471387D01*
X175903827Y-125465287D01*
X176888751Y-125099809D01*
X176897697Y-125100143D01*
G37*
%TD.AperFunction*%
%TD*%
%TA.AperFunction,Conductor*%
%TO.N,/VSYS_SCL*%
G36*
X190349667Y-123603665D02*
G01*
X191916943Y-124121649D01*
X191923722Y-124127499D01*
X191924668Y-124135402D01*
X191702068Y-125094836D01*
X191696860Y-125102121D01*
X191695138Y-125103006D01*
X190861132Y-125447483D01*
X190852177Y-125447474D01*
X190845851Y-125441136D01*
X190845738Y-125440851D01*
X190204088Y-123749898D01*
X190204357Y-123740947D01*
X190206751Y-123737477D01*
X190337727Y-123606501D01*
X190345999Y-123603075D01*
X190349667Y-123603665D01*
G37*
%TD.AperFunction*%
%TD*%
%TA.AperFunction,Conductor*%
%TO.N,/+5V_PWR_LOGIC*%
G36*
X171249973Y-171923318D02*
G01*
X171252743Y-171927725D01*
X171465904Y-172536509D01*
X171465403Y-172545449D01*
X171459363Y-172551174D01*
X171102175Y-172700093D01*
X171097644Y-172700994D01*
X170712442Y-172700031D01*
X170704177Y-172696583D01*
X170700771Y-172688302D01*
X170700794Y-172687610D01*
X170749298Y-171930842D01*
X170753247Y-171922806D01*
X170760974Y-171919891D01*
X171241700Y-171919891D01*
X171249973Y-171923318D01*
G37*
%TD.AperFunction*%
%TD*%
%TA.AperFunction,Conductor*%
%TO.N,/VSYS_VCC_FUSE*%
G36*
X203358755Y-110548571D02*
G01*
X203365073Y-110554918D01*
X203365053Y-110563870D01*
X203103000Y-111192800D01*
X203096655Y-111199119D01*
X203092200Y-111200000D01*
X202907800Y-111200000D01*
X202899527Y-111196573D01*
X202897000Y-111192800D01*
X202634945Y-110563868D01*
X202634927Y-110554915D01*
X202641242Y-110548572D01*
X202995500Y-110400875D01*
X203004449Y-110400855D01*
X203358755Y-110548571D01*
G37*
%TD.AperFunction*%
%TD*%
%TA.AperFunction,Conductor*%
%TO.N,/VSYS_VCC_FUSE*%
G36*
X199748563Y-138303427D02*
G01*
X199751790Y-138309544D01*
X199897408Y-139086179D01*
X199895564Y-139094942D01*
X199888064Y-139099835D01*
X199885937Y-139100035D01*
X199500029Y-139100999D01*
X199499971Y-139100999D01*
X199114062Y-139100035D01*
X199105797Y-139096587D01*
X199102391Y-139088306D01*
X199102591Y-139086179D01*
X199248210Y-138309544D01*
X199253103Y-138302044D01*
X199259710Y-138300000D01*
X199740290Y-138300000D01*
X199748563Y-138303427D01*
G37*
%TD.AperFunction*%
%TD*%
%TA.AperFunction,Conductor*%
%TO.N,/VSYS_VCC_FUSE*%
G36*
X194563868Y-115434945D02*
G01*
X195192800Y-115697000D01*
X195199119Y-115703345D01*
X195200000Y-115707800D01*
X195200000Y-115892199D01*
X195196573Y-115900472D01*
X195192800Y-115902999D01*
X194563870Y-116165053D01*
X194554915Y-116165072D01*
X194548571Y-116158755D01*
X194400875Y-115804499D01*
X194400855Y-115795550D01*
X194548572Y-115441242D01*
X194554918Y-115434926D01*
X194563868Y-115434945D01*
G37*
%TD.AperFunction*%
%TD*%
%TA.AperFunction,Conductor*%
%TO.N,/+5V_PWR_LOGIC*%
G36*
X151711985Y-134492917D02*
G01*
X152696510Y-134898152D01*
X152702856Y-134904470D01*
X152702862Y-134904483D01*
X153111831Y-135888983D01*
X153111840Y-135897937D01*
X153105514Y-135904276D01*
X153105304Y-135904361D01*
X151223084Y-136643723D01*
X151214130Y-136643558D01*
X151207916Y-136637111D01*
X151207106Y-136632833D01*
X151207106Y-136151698D01*
X151207589Y-136148371D01*
X151696315Y-134500409D01*
X151701953Y-134493452D01*
X151710859Y-134492519D01*
X151711985Y-134492917D01*
G37*
%TD.AperFunction*%
%TD*%
M02*
