M48
; DRILL file {KiCad 7.0.6-7.0.6~ubuntu22.04.1} date Пн 07 авг 2023 15:21:55
; FORMAT={-:-/ absolute / inch / decimal}
; #@! TF.CreationDate,2023-08-07T15:21:55+03:00
; #@! TF.GenerationSoftware,Kicad,Pcbnew,7.0.6-7.0.6~ubuntu22.04.1
; #@! TF.FileFunction,Plated,1,4,PTH
FMAT,2
INCH
; #@! TA.AperFunction,Plated,PTH,ViaDrill
T1C0.0157
; #@! TA.AperFunction,Plated,PTH,ComponentDrill
T2C0.0315
; #@! TA.AperFunction,Plated,PTH,ComponentDrill
T3C0.0354
; #@! TA.AperFunction,Plated,PTH,ComponentDrill
T4C0.0362
; #@! TA.AperFunction,Plated,PTH,ComponentDrill
T5C0.0374
; #@! TA.AperFunction,Plated,PTH,ComponentDrill
T6C0.0394
; #@! TA.AperFunction,Plated,PTH,ComponentDrill
T7C0.0433
; #@! TA.AperFunction,Plated,PTH,ComponentDrill
T8C0.0472
; #@! TA.AperFunction,Plated,PTH,ComponentDrill
T9C0.0591
; #@! TA.AperFunction,Plated,PTH,ComponentDrill
T10C0.0610
; #@! TA.AperFunction,Plated,PTH,ComponentDrill
T11C0.0630
; #@! TA.AperFunction,Plated,PTH,ComponentDrill
T12C0.0827
; #@! TA.AperFunction,Plated,PTH,ComponentDrill
T13C0.0906
%
G90
G05
T1
X3.5335Y-3.0709
X3.5335Y-3.1102
X3.5335Y-3.2874
X3.5335Y-3.3366
X3.5827Y-3.0709
X3.5827Y-3.1102
X3.5827Y-3.2874
X3.5827Y-3.3366
X3.622Y-4.5276
X3.6319Y-3.0709
X3.6319Y-3.1102
X3.6319Y-3.2874
X3.6319Y-3.3366
X3.6516Y-8.8386
X3.7356Y-9.1687
X3.7579Y-8.6831
X3.7598Y-5.9055
X3.7894Y-4.0059
X3.7943Y-9.0699
X3.7992Y-9.1929
X3.8189Y-4.6949
X3.8189Y-7.563
X3.8268Y-7.9291
X3.8307Y-8.6535
X3.8583Y-4.7835
X3.8583Y-5.8957
X4.0551Y-5.5512
X4.065Y-3.997
X4.0901Y-5.8189
X4.0945Y-5.9606
X4.1437Y-5.6791
X4.1496Y-8.1949
X4.1929Y-5.6744
X4.2015Y-6.2024
X4.2126Y-4.1732
X4.2224Y-5.8976
X4.2323Y-6.6909
X4.2913Y-2.8543
X4.3012Y-4.1043
X4.3012Y-8.4154
X4.311Y-5.7087
X4.3406Y-3.9665
X4.3406Y-5.6791
X4.3484Y-4.0846
X4.3504Y-3.1496
X4.3504Y-5.7382
X4.3504Y-5.7972
X4.3602Y-3.061
X4.3799Y-4.8031
X4.4094Y-3.9862
X4.4449Y-5.3346
X4.4882Y-8.4744
X4.4911Y-6.2431
X4.498Y-6.378
X4.5177Y-3.1004
X4.5177Y-8.5039
X4.5571Y-4.8391
X4.6161Y-8.7303
X4.6654Y-8.6713
X4.6752Y-8.8287
X4.7343Y-4.7146
X4.7638Y-9.1732
X4.7736Y-8.5138
X4.7736Y-8.5531
X4.7815Y-8.3327
X4.7835Y-2.8839
X4.8228Y-8.3012
X4.8228Y-8.5138
X4.8228Y-8.5531
X4.8327Y-6.4764
X4.8524Y-9.0748
X4.8524Y-9.1929
X4.8917Y-3.002
X4.8921Y-4.5567
X4.9803Y-8.4843
X4.9803Y-8.5443
X5.252Y-7.4764
X5.252Y-7.8504
X5.2539Y-7.5098
X5.2539Y-7.5492
X5.2539Y-7.5886
X5.2539Y-7.8839
X5.2539Y-7.9232
X5.2539Y-7.9626
X5.2874Y-7.4764
X5.2874Y-7.8504
X5.2894Y-7.5098
X5.2894Y-7.5492
X5.2894Y-7.5886
X5.2894Y-7.8839
X5.2894Y-7.9232
X5.2894Y-7.9626
X5.3268Y-7.4764
X5.3268Y-7.8504
X5.3287Y-7.5098
X5.3287Y-7.5492
X5.3287Y-7.5886
X5.3287Y-7.8839
X5.3287Y-7.9232
X5.3287Y-7.9626
X5.3622Y-7.4764
X5.3622Y-7.8504
X5.3642Y-7.5098
X5.3642Y-7.5492
X5.3642Y-7.5886
X5.3642Y-7.8839
X5.3642Y-7.9232
X5.3642Y-7.9626
X5.5128Y-8.7057
X5.7008Y-2.6299
X5.7008Y-2.6614
X5.7008Y-2.6969
X5.7008Y-2.7283
X5.7008Y-2.8184
X5.7185Y-8.8287
X5.7283Y-3.2126
X5.7638Y-8.7697
X5.8031Y-8.7717
X5.8071Y-9.1634
X5.876Y-6.752
X5.9055Y-9.1929
X5.9154Y-9.065
X5.9173Y-2.8819
X5.9252Y-2.6299
X5.9252Y-2.6614
X5.9252Y-2.6969
X5.9252Y-2.7283
X5.9252Y-6.9291
X5.9488Y-8.75
X6.0354Y-8.8425
X6.1417Y-6.25
X6.1653Y-3.1792
X6.2205Y-4.9705
X6.2402Y-3.0059
X6.2559Y-8.5531
X6.3661Y-8.6299
X6.3681Y-8.2087
X6.374Y-8.6732
X6.378Y-8.75
X6.3799Y-8.8031
X6.8296Y-8.7216
X6.937Y-8.6535
X7.4606Y-8.4449
X7.4961Y-8.6457
X7.6619Y-8.6452
T2
X3.5024Y-4.3602
X3.5974Y-5.8098
X3.5974Y-6.002
X3.6024Y-4.3602
X4.0541Y-7.7244
X4.1919Y-7.7244
X5.3045Y-6.8083
X5.3045Y-7.1083
X5.4045Y-6.8083
X5.4045Y-7.1083
X6.5039Y-2.9419
X6.5039Y-3.0419
X6.8039Y-2.9419
X6.8039Y-3.0419
T3
X4.2016Y-9.1437
X4.3016Y-9.1437
X4.4016Y-9.1437
X5.2429Y-9.1437
X5.3429Y-9.1437
X5.4429Y-9.1437
X5.8947Y-8.5965
X5.9947Y-8.5965
X6.2882Y-9.1437
X6.3882Y-9.1437
X6.4882Y-9.1437
T4
X3.6417Y-8.9477
X3.7402Y-8.9477
X3.8189Y-8.9477
X3.9173Y-8.9477
X4.685Y-8.9477
X4.7835Y-8.9477
X4.8622Y-8.9477
X4.9606Y-8.9477
X5.7283Y-8.9477
X5.8268Y-8.9477
X5.9055Y-8.9477
X6.0039Y-8.9477
T5
X3.564Y-7.5433
X3.564Y-7.6417
X3.564Y-7.7402
X3.564Y-7.8386
X3.564Y-7.937
X3.625Y-5.4646
X3.6486Y-6.378
X3.7234Y-5.4646
X3.747Y-6.378
X3.8219Y-5.4646
X3.8455Y-6.378
X3.9203Y-5.4646
X3.9439Y-6.378
X4.8041Y-5.6299
X4.8041Y-5.7283
X4.8041Y-5.8268
X4.8041Y-5.9252
X4.8041Y-6.0236
X4.8041Y-6.122
T6
X3.5033Y-3.7762
X3.5033Y-3.8762
X3.5033Y-3.9762
X3.5033Y-4.0762
X3.5033Y-4.1762
X3.5335Y-2.5295
X3.5335Y-2.628
X3.6033Y-3.7762
X3.6033Y-3.8762
X3.6033Y-3.9762
X3.6033Y-4.0762
X3.6033Y-4.1762
X3.6811Y-5.0886
X3.6811Y-5.187
X3.875Y-5.0496
X3.9734Y-5.2465
X4.0719Y-5.0496
X4.1683Y-5.4724
X4.1929Y-6.378
X4.2667Y-5.4724
X4.2717Y-5.0496
X4.2904Y-4.6654
X4.2904Y-4.7638
X4.2913Y-6.378
X4.3701Y-5.2465
X4.4557Y-5.7118
X4.4557Y-5.8118
X4.4557Y-5.9118
X4.4557Y-6.0118
X4.4557Y-6.1118
X4.4685Y-5.0496
X4.5557Y-5.7118
X4.5557Y-5.8118
X4.5557Y-5.9118
X4.5557Y-6.0118
X4.5557Y-6.1118
X4.686Y-5.0827
X4.686Y-5.1811
X5.1181Y-6.0728
X5.315Y-6.0728
X5.4823Y-6.0728
X5.6791Y-6.0728
X6.4831Y-7.132
X6.6732Y-9.1555
X6.68Y-7.132
X6.7717Y-9.1555
X6.874Y-7.134
X6.874Y-7.3309
X7.0374Y-9.1555
X7.1358Y-9.1555
X7.3366Y-9.0778
X7.3366Y-9.1778
X7.4366Y-9.0778
X7.4366Y-9.1778
X7.5366Y-9.0778
X7.5366Y-9.1778
X7.6366Y-9.0778
X7.6366Y-9.1778
T7
X6.0423Y-5.8266
X6.1423Y-5.8266
X6.2423Y-5.8266
X6.7352Y-5.8268
X6.8352Y-5.8268
X6.8488Y-6.8384
X6.9352Y-5.8268
X6.9488Y-6.8384
X6.9669Y-6.5628
X7.0488Y-6.8384
X7.0669Y-6.5628
X7.1669Y-6.5628
X7.438Y-5.7227
X7.438Y-6.3133
X7.48Y-6.4687
X7.48Y-7.0593
T8
X4.6024Y-7.6752
X4.8976Y-7.6752
X5.3622Y-2.6859
X5.3622Y-2.9812
X5.5512Y-5.6441
X5.5512Y-5.8441
X7.176Y-7.038
X7.176Y-7.238
X7.4724Y-3.2448
X7.4724Y-4.1306
X7.4724Y-4.3248
X7.4724Y-5.2106
T9
X4.5118Y-3.2913
X4.5118Y-3.5059
X4.5118Y-3.7205
X6.3878Y-7.8256
X6.6024Y-7.8256
X6.8169Y-7.8256
T10
X3.5433Y-8.3071
X3.5433Y-8.4961
X4.311Y-8.5866
X4.311Y-8.7756
X5.3543Y-8.6063
X5.3543Y-8.7953
X6.6181Y-8.6417
X6.6181Y-8.8386
X6.8071Y-8.6417
X6.8071Y-8.8386
T11
X3.5935Y-4.7717
X4.372Y-7.1632
X4.372Y-7.3132
X5.0236Y-6.4835
X5.0236Y-7.2835
X5.2236Y-6.4835
X5.2236Y-7.2835
X5.2866Y-3.4898
X5.2866Y-3.6898
X5.2866Y-3.8898
X5.2866Y-4.0898
X5.2866Y-4.2898
X5.2866Y-4.4898
X5.2866Y-4.6898
X5.2866Y-4.8898
X5.2866Y-5.0898
X5.2866Y-5.2898
X5.4236Y-6.4835
X5.4236Y-7.2835
X5.6236Y-6.4835
X5.6236Y-7.2835
X5.8236Y-6.4835
X5.8236Y-7.2835
X6.0236Y-6.4835
X6.0236Y-7.2835
X6.2236Y-6.4835
X6.2236Y-7.2835
X6.8866Y-3.4898
X6.8866Y-3.6898
X6.8866Y-3.8898
X6.8866Y-4.0898
X6.8866Y-4.2898
X6.8866Y-4.4898
X6.8866Y-4.6898
X6.8866Y-4.8898
X6.8866Y-5.0898
X6.8866Y-5.2898
T12
X4.5276Y-8.1004
X4.7638Y-8.1004
X6.0748Y-2.6979
X6.0748Y-2.9341
X6.5Y-6.4862
X7.2343Y-2.5689
X7.4705Y-2.5689
T13
X3.4941Y-9.0544
X4.065Y-9.0544
X4.5374Y-9.0544
X5.1083Y-9.0544
X5.5807Y-9.0544
X6.1516Y-9.0544
T0
M30
