%TF.GenerationSoftware,KiCad,Pcbnew,7.0.9-7.0.9~ubuntu22.04.1*%
%TF.CreationDate,2023-12-28T11:37:34+03:00*%
%TF.ProjectId,supply,73757070-6c79-42e6-9b69-6361645f7063,rev?*%
%TF.SameCoordinates,Original*%
%TF.FileFunction,Paste,Bot*%
%TF.FilePolarity,Positive*%
%FSLAX46Y46*%
G04 Gerber Fmt 4.6, Leading zero omitted, Abs format (unit mm)*
G04 Created by KiCad (PCBNEW 7.0.9-7.0.9~ubuntu22.04.1) date 2023-12-28 11:37:34*
%MOMM*%
%LPD*%
G01*
G04 APERTURE LIST*
G04 Aperture macros list*
%AMRoundRect*
0 Rectangle with rounded corners*
0 $1 Rounding radius*
0 $2 $3 $4 $5 $6 $7 $8 $9 X,Y pos of 4 corners*
0 Add a 4 corners polygon primitive as box body*
4,1,4,$2,$3,$4,$5,$6,$7,$8,$9,$2,$3,0*
0 Add four circle primitives for the rounded corners*
1,1,$1+$1,$2,$3*
1,1,$1+$1,$4,$5*
1,1,$1+$1,$6,$7*
1,1,$1+$1,$8,$9*
0 Add four rect primitives between the rounded corners*
20,1,$1+$1,$2,$3,$4,$5,0*
20,1,$1+$1,$4,$5,$6,$7,0*
20,1,$1+$1,$6,$7,$8,$9,0*
20,1,$1+$1,$8,$9,$2,$3,0*%
%AMFreePoly0*
4,1,9,3.862500,-0.866500,0.737500,-0.866500,0.737500,-0.450000,-0.737500,-0.450000,-0.737500,0.450000,0.737500,0.450000,0.737500,0.866500,3.862500,0.866500,3.862500,-0.866500,3.862500,-0.866500,$1*%
G04 Aperture macros list end*
%ADD10C,0.010000*%
%ADD11RoundRect,0.250000X-0.450000X0.262500X-0.450000X-0.262500X0.450000X-0.262500X0.450000X0.262500X0*%
%ADD12RoundRect,0.225000X0.250000X-0.225000X0.250000X0.225000X-0.250000X0.225000X-0.250000X-0.225000X0*%
%ADD13RoundRect,0.225000X-0.225000X-0.250000X0.225000X-0.250000X0.225000X0.250000X-0.225000X0.250000X0*%
%ADD14RoundRect,0.250000X0.450000X-0.262500X0.450000X0.262500X-0.450000X0.262500X-0.450000X-0.262500X0*%
%ADD15RoundRect,0.250000X-1.000000X-0.650000X1.000000X-0.650000X1.000000X0.650000X-1.000000X0.650000X0*%
%ADD16RoundRect,0.225000X0.225000X0.250000X-0.225000X0.250000X-0.225000X-0.250000X0.225000X-0.250000X0*%
%ADD17RoundRect,0.225000X-0.250000X0.225000X-0.250000X-0.225000X0.250000X-0.225000X0.250000X0.225000X0*%
%ADD18RoundRect,0.150000X-0.512500X-0.150000X0.512500X-0.150000X0.512500X0.150000X-0.512500X0.150000X0*%
%ADD19RoundRect,0.250000X0.300000X-2.050000X0.300000X2.050000X-0.300000X2.050000X-0.300000X-2.050000X0*%
%ADD20RoundRect,0.250000X2.375000X-2.025000X2.375000X2.025000X-2.375000X2.025000X-2.375000X-2.025000X0*%
%ADD21RoundRect,0.250000X0.262500X0.450000X-0.262500X0.450000X-0.262500X-0.450000X0.262500X-0.450000X0*%
%ADD22R,3.500000X2.350000*%
%ADD23RoundRect,0.250000X1.400000X1.000000X-1.400000X1.000000X-1.400000X-1.000000X1.400000X-1.000000X0*%
%ADD24RoundRect,0.150000X-0.150000X0.825000X-0.150000X-0.825000X0.150000X-0.825000X0.150000X0.825000X0*%
%ADD25RoundRect,0.250000X-1.100000X0.325000X-1.100000X-0.325000X1.100000X-0.325000X1.100000X0.325000X0*%
%ADD26RoundRect,0.150000X-0.150000X0.875000X-0.150000X-0.875000X0.150000X-0.875000X0.150000X0.875000X0*%
%ADD27RoundRect,0.250000X-0.300000X2.050000X-0.300000X-2.050000X0.300000X-2.050000X0.300000X2.050000X0*%
%ADD28RoundRect,0.250000X-2.375000X2.025000X-2.375000X-2.025000X2.375000X-2.025000X2.375000X2.025000X0*%
%ADD29RoundRect,0.250000X1.100000X-0.325000X1.100000X0.325000X-1.100000X0.325000X-1.100000X-0.325000X0*%
%ADD30RoundRect,0.250000X-0.262500X-0.450000X0.262500X-0.450000X0.262500X0.450000X-0.262500X0.450000X0*%
%ADD31RoundRect,0.150000X-0.150000X0.587500X-0.150000X-0.587500X0.150000X-0.587500X0.150000X0.587500X0*%
%ADD32RoundRect,0.162500X-0.825000X-0.162500X0.825000X-0.162500X0.825000X0.162500X-0.825000X0.162500X0*%
%ADD33RoundRect,0.250000X-1.400000X-1.000000X1.400000X-1.000000X1.400000X1.000000X-1.400000X1.000000X0*%
%ADD34RoundRect,0.250000X0.650000X-1.000000X0.650000X1.000000X-0.650000X1.000000X-0.650000X-1.000000X0*%
%ADD35RoundRect,0.250000X0.625000X-0.312500X0.625000X0.312500X-0.625000X0.312500X-0.625000X-0.312500X0*%
%ADD36R,0.900000X1.300000*%
%ADD37FreePoly0,90.000000*%
%ADD38RoundRect,0.250000X1.000000X0.650000X-1.000000X0.650000X-1.000000X-0.650000X1.000000X-0.650000X0*%
%ADD39RoundRect,0.150000X-0.587500X-0.150000X0.587500X-0.150000X0.587500X0.150000X-0.587500X0.150000X0*%
%ADD40RoundRect,0.042000X0.943000X0.258000X-0.943000X0.258000X-0.943000X-0.258000X0.943000X-0.258000X0*%
%ADD41RoundRect,0.250000X-1.425000X0.362500X-1.425000X-0.362500X1.425000X-0.362500X1.425000X0.362500X0*%
%ADD42R,2.000000X3.400000*%
%ADD43RoundRect,0.125000X0.125000X0.125000X-0.125000X0.125000X-0.125000X-0.125000X0.125000X-0.125000X0*%
%ADD44RoundRect,0.250000X-0.312500X-0.625000X0.312500X-0.625000X0.312500X0.625000X-0.312500X0.625000X0*%
%ADD45RoundRect,0.250000X-0.650000X1.000000X-0.650000X-1.000000X0.650000X-1.000000X0.650000X1.000000X0*%
%ADD46RoundRect,0.150000X0.587500X0.150000X-0.587500X0.150000X-0.587500X-0.150000X0.587500X-0.150000X0*%
%ADD47RoundRect,0.150000X0.650000X0.150000X-0.650000X0.150000X-0.650000X-0.150000X0.650000X-0.150000X0*%
%ADD48RoundRect,0.250000X-0.325000X-1.100000X0.325000X-1.100000X0.325000X1.100000X-0.325000X1.100000X0*%
G04 APERTURE END LIST*
%TO.C,U28*%
D10*
X98645000Y-209320000D02*
X97355000Y-209320000D01*
X97355000Y-207680000D01*
X98645000Y-207680000D01*
X98645000Y-209320000D01*
G36*
X98645000Y-209320000D02*
G01*
X97355000Y-209320000D01*
X97355000Y-207680000D01*
X98645000Y-207680000D01*
X98645000Y-209320000D01*
G37*
%TD*%
D11*
%TO.C,R7*%
X161400000Y-171187500D03*
X161400000Y-173012500D03*
%TD*%
D12*
%TO.C,C41*%
X95400000Y-165675000D03*
X95400000Y-164125000D03*
%TD*%
D13*
%TO.C,C29*%
X94687500Y-145800000D03*
X96237500Y-145800000D03*
%TD*%
D14*
%TO.C,R50*%
X153900000Y-101512500D03*
X153900000Y-99687500D03*
%TD*%
%TO.C,R6*%
X159400000Y-173012500D03*
X159400000Y-171187500D03*
%TD*%
D12*
%TO.C,C5*%
X157600000Y-173075000D03*
X157600000Y-171525000D03*
%TD*%
D15*
%TO.C,D25*%
X168500000Y-228450000D03*
X172500000Y-228450000D03*
%TD*%
D16*
%TO.C,C26*%
X101000000Y-136300000D03*
X99450000Y-136300000D03*
%TD*%
D15*
%TO.C,D26*%
X177500000Y-228700000D03*
X181500000Y-228700000D03*
%TD*%
D11*
%TO.C,R71*%
X182200000Y-214787500D03*
X182200000Y-216612500D03*
%TD*%
D14*
%TO.C,R5*%
X154400000Y-173212500D03*
X154400000Y-171387500D03*
%TD*%
D17*
%TO.C,C20*%
X118700000Y-199225000D03*
X118700000Y-200775000D03*
%TD*%
D13*
%TO.C,C28*%
X93587500Y-150650000D03*
X95137500Y-150650000D03*
%TD*%
D14*
%TO.C,R16*%
X135500000Y-229112500D03*
X135500000Y-227287500D03*
%TD*%
%TO.C,R21*%
X128100000Y-199512500D03*
X128100000Y-197687500D03*
%TD*%
D18*
%TO.C,U27*%
X94825000Y-78025000D03*
X94825000Y-77075000D03*
X94825000Y-76125000D03*
X97100000Y-76125000D03*
X97100000Y-78025000D03*
%TD*%
D19*
%TO.C,U13*%
X191115000Y-208525000D03*
X188575000Y-208525000D03*
D20*
X185800000Y-201800000D03*
X191350000Y-201800000D03*
X185800000Y-196950000D03*
X191350000Y-196950000D03*
D19*
X186035000Y-208525000D03*
%TD*%
D14*
%TO.C,R3*%
X152100000Y-181772500D03*
X152100000Y-179947500D03*
%TD*%
D21*
%TO.C,R29*%
X103500000Y-134200000D03*
X101675000Y-134200000D03*
%TD*%
D18*
%TO.C,U12*%
X130762500Y-197750000D03*
X130762500Y-195850000D03*
X133037500Y-196800000D03*
%TD*%
D15*
%TO.C,D24*%
X186700000Y-227100000D03*
X190700000Y-227100000D03*
%TD*%
D14*
%TO.C,R38*%
X116112500Y-120312500D03*
X116112500Y-118487500D03*
%TD*%
D22*
%TO.C,L3*%
X120750000Y-177450000D03*
X120750000Y-171400000D03*
%TD*%
D23*
%TO.C,D11*%
X117000000Y-153300000D03*
X117000000Y-160100000D03*
%TD*%
D24*
%TO.C,U26*%
X146960000Y-129150000D03*
X148230000Y-129150000D03*
X149500000Y-129150000D03*
X150770000Y-129150000D03*
X150770000Y-134100000D03*
X149500000Y-134100000D03*
X148230000Y-134100000D03*
X146960000Y-134100000D03*
%TD*%
D25*
%TO.C,C2*%
X98600000Y-174025000D03*
X98600000Y-176975000D03*
%TD*%
D24*
%TO.C,Q14*%
X181495000Y-218625000D03*
X182765000Y-218625000D03*
X184035000Y-218625000D03*
X185305000Y-218625000D03*
X185305000Y-223575000D03*
X184035000Y-223575000D03*
X182765000Y-223575000D03*
X181495000Y-223575000D03*
%TD*%
D26*
%TO.C,U5*%
X154455000Y-175550000D03*
X155725000Y-175550000D03*
X156995000Y-175550000D03*
X158265000Y-175550000D03*
X159535000Y-175550000D03*
X160805000Y-175550000D03*
X162075000Y-175550000D03*
X163345000Y-175550000D03*
X163345000Y-184850000D03*
X162075000Y-184850000D03*
X160805000Y-184850000D03*
X159535000Y-184850000D03*
X158265000Y-184850000D03*
X156995000Y-184850000D03*
X155725000Y-184850000D03*
X154455000Y-184850000D03*
%TD*%
D27*
%TO.C,U2*%
X96825000Y-181375000D03*
X98525000Y-181375000D03*
X100225000Y-181375000D03*
D28*
X103000000Y-188100000D03*
X97450000Y-188100000D03*
X103000000Y-192950000D03*
X97450000Y-192950000D03*
D27*
X101925000Y-181375000D03*
X103625000Y-181375000D03*
%TD*%
D29*
%TO.C,C25*%
X180700000Y-205050000D03*
X180700000Y-202100000D03*
%TD*%
D30*
%TO.C,R18*%
X148087500Y-223700000D03*
X149912500Y-223700000D03*
%TD*%
D31*
%TO.C,Q15*%
X184250000Y-214462500D03*
X186150000Y-214462500D03*
X185200000Y-216337500D03*
%TD*%
D32*
%TO.C,U6*%
X93212500Y-233855000D03*
X93212500Y-232585000D03*
X93212500Y-231315000D03*
X93212500Y-230045000D03*
X98287500Y-230045000D03*
X98287500Y-231315000D03*
X98287500Y-232585000D03*
X98287500Y-233855000D03*
%TD*%
D17*
%TO.C,C34*%
X96900000Y-95025000D03*
X96900000Y-96575000D03*
%TD*%
D33*
%TO.C,D10*%
X119500000Y-195800000D03*
X119500000Y-189000000D03*
%TD*%
D11*
%TO.C,R30*%
X94900000Y-94987500D03*
X94900000Y-96812500D03*
%TD*%
D34*
%TO.C,D21*%
X156800000Y-132900000D03*
X156800000Y-128900000D03*
%TD*%
D11*
%TO.C,R62*%
X91100000Y-77212500D03*
X91100000Y-79037500D03*
%TD*%
D14*
%TO.C,R39*%
X90500000Y-120012500D03*
X90500000Y-118187500D03*
%TD*%
D13*
%TO.C,C54*%
X159800000Y-135900000D03*
X161350000Y-135900000D03*
%TD*%
D35*
%TO.C,RV2*%
X117000000Y-150562500D03*
X117000000Y-147637500D03*
%TD*%
D12*
%TO.C,C46*%
X113000000Y-120175000D03*
X113000000Y-118625000D03*
%TD*%
D13*
%TO.C,C8*%
X154125000Y-187600000D03*
X155675000Y-187600000D03*
%TD*%
%TO.C,C31*%
X105212500Y-134200000D03*
X106762500Y-134200000D03*
%TD*%
D14*
%TO.C,R12*%
X109000000Y-229112500D03*
X109000000Y-227287500D03*
%TD*%
D36*
%TO.C,U4*%
X102300000Y-222100000D03*
D37*
X100800000Y-222012500D03*
D36*
X99300000Y-222100000D03*
%TD*%
D38*
%TO.C,D5*%
X124750000Y-221200000D03*
X120750000Y-221200000D03*
%TD*%
D39*
%TO.C,Q5*%
X103425000Y-129100000D03*
X103425000Y-127200000D03*
X105300000Y-128150000D03*
%TD*%
D14*
%TO.C,R53*%
X162000000Y-86812500D03*
X162000000Y-84987500D03*
%TD*%
D32*
%TO.C,U11*%
X146712500Y-233605000D03*
X146712500Y-232335000D03*
X146712500Y-231065000D03*
X146712500Y-229795000D03*
X151787500Y-229795000D03*
X151787500Y-231065000D03*
X151787500Y-232335000D03*
X151787500Y-233605000D03*
%TD*%
D14*
%TO.C,R22*%
X161900000Y-228612500D03*
X161900000Y-226787500D03*
%TD*%
D12*
%TO.C,C51*%
X152100000Y-101575000D03*
X152100000Y-100025000D03*
%TD*%
%TO.C,C65*%
X93250000Y-211725000D03*
X93250000Y-210175000D03*
%TD*%
D26*
%TO.C,U24*%
X148455000Y-104150000D03*
X149725000Y-104150000D03*
X150995000Y-104150000D03*
X152265000Y-104150000D03*
X153535000Y-104150000D03*
X154805000Y-104150000D03*
X156075000Y-104150000D03*
X157345000Y-104150000D03*
X157345000Y-113450000D03*
X156075000Y-113450000D03*
X154805000Y-113450000D03*
X153535000Y-113450000D03*
X152265000Y-113450000D03*
X150995000Y-113450000D03*
X149725000Y-113450000D03*
X148455000Y-113450000D03*
%TD*%
D11*
%TO.C,R68*%
X102900000Y-207037500D03*
X102900000Y-208862500D03*
%TD*%
D40*
%TO.C,U28*%
X100475000Y-206595000D03*
X100475000Y-207865000D03*
X100475000Y-209135000D03*
X100475000Y-210405000D03*
X95525000Y-210405000D03*
X95525000Y-209135000D03*
X95525000Y-207865000D03*
X95525000Y-206595000D03*
%TD*%
D31*
%TO.C,Q7*%
X147550000Y-84762500D03*
X149450000Y-84762500D03*
X148500000Y-86637500D03*
%TD*%
D17*
%TO.C,C50*%
X146300000Y-113825000D03*
X146300000Y-115375000D03*
%TD*%
D32*
%TO.C,U10*%
X119962500Y-233855000D03*
X119962500Y-232585000D03*
X119962500Y-231315000D03*
X119962500Y-230045000D03*
X125037500Y-230045000D03*
X125037500Y-231315000D03*
X125037500Y-232585000D03*
X125037500Y-233855000D03*
%TD*%
D21*
%TO.C,R51*%
X166075000Y-85500000D03*
X164250000Y-85500000D03*
%TD*%
D17*
%TO.C,C63*%
X98900000Y-77150000D03*
X98900000Y-78700000D03*
%TD*%
D41*
%TO.C,R61*%
X102100000Y-69937500D03*
X102100000Y-75862500D03*
%TD*%
D16*
%TO.C,C36*%
X95675000Y-122300000D03*
X94125000Y-122300000D03*
%TD*%
D30*
%TO.C,R19*%
X130187500Y-202300000D03*
X132012500Y-202300000D03*
%TD*%
D25*
%TO.C,C19*%
X121700000Y-198525000D03*
X121700000Y-201475000D03*
%TD*%
D21*
%TO.C,R26*%
X116662500Y-226450000D03*
X114837500Y-226450000D03*
%TD*%
D30*
%TO.C,R14*%
X121887500Y-224300000D03*
X123712500Y-224300000D03*
%TD*%
D31*
%TO.C,Q8*%
X164225000Y-87625000D03*
X166125000Y-87625000D03*
X165175000Y-89500000D03*
%TD*%
D13*
%TO.C,C30*%
X98312500Y-150400000D03*
X99862500Y-150400000D03*
%TD*%
D30*
%TO.C,R47*%
X117287500Y-111650000D03*
X119112500Y-111650000D03*
%TD*%
%TO.C,R60*%
X89887500Y-71800000D03*
X91712500Y-71800000D03*
%TD*%
D12*
%TO.C,C43*%
X120612500Y-120425000D03*
X120612500Y-118875000D03*
%TD*%
D24*
%TO.C,U25*%
X159695000Y-127025000D03*
X160965000Y-127025000D03*
X162235000Y-127025000D03*
X163505000Y-127025000D03*
X163505000Y-131975000D03*
X162235000Y-131975000D03*
X160965000Y-131975000D03*
X159695000Y-131975000D03*
%TD*%
D17*
%TO.C,C3*%
X96500000Y-222675000D03*
X96500000Y-224225000D03*
%TD*%
D12*
%TO.C,C47*%
X103000000Y-120075000D03*
X103000000Y-118525000D03*
%TD*%
D30*
%TO.C,R45*%
X113437500Y-109400000D03*
X115262500Y-109400000D03*
%TD*%
D12*
%TO.C,C44*%
X95600000Y-119775000D03*
X95600000Y-118225000D03*
%TD*%
D25*
%TO.C,C17*%
X142200000Y-199050000D03*
X142200000Y-202000000D03*
%TD*%
D11*
%TO.C,R28*%
X146200000Y-214587500D03*
X146200000Y-216412500D03*
%TD*%
D12*
%TO.C,C52*%
X157900000Y-101500000D03*
X157900000Y-99950000D03*
%TD*%
D14*
%TO.C,R69*%
X90500000Y-193612500D03*
X90500000Y-191787500D03*
%TD*%
D42*
%TO.C,L4*%
X108200000Y-61450000D03*
X102500000Y-61450000D03*
%TD*%
D43*
%TO.C,D19*%
X119300000Y-107300000D03*
X117100000Y-107300000D03*
%TD*%
D24*
%TO.C,Q13*%
X187495000Y-218625000D03*
X188765000Y-218625000D03*
X190035000Y-218625000D03*
X191305000Y-218625000D03*
X191305000Y-223575000D03*
X190035000Y-223575000D03*
X188765000Y-223575000D03*
X187495000Y-223575000D03*
%TD*%
D14*
%TO.C,R37*%
X101000000Y-129112500D03*
X101000000Y-127287500D03*
%TD*%
D15*
%TO.C,D7*%
X139600000Y-223500000D03*
X143600000Y-223500000D03*
%TD*%
D11*
%TO.C,R63*%
X188400000Y-214587500D03*
X188400000Y-216412500D03*
%TD*%
D16*
%TO.C,C35*%
X98362500Y-127800000D03*
X96812500Y-127800000D03*
%TD*%
%TO.C,C64*%
X101975000Y-212700000D03*
X100425000Y-212700000D03*
%TD*%
D44*
%TO.C,RV1*%
X114037500Y-203200000D03*
X116962500Y-203200000D03*
%TD*%
D45*
%TO.C,D23*%
X194400000Y-223300000D03*
X194400000Y-227300000D03*
%TD*%
D14*
%TO.C,R4*%
X152100000Y-178272500D03*
X152100000Y-176447500D03*
%TD*%
D17*
%TO.C,C62*%
X93000000Y-77150000D03*
X93000000Y-78700000D03*
%TD*%
%TO.C,C1*%
X152600000Y-184425000D03*
X152600000Y-185975000D03*
%TD*%
D21*
%TO.C,R20*%
X132012500Y-200200000D03*
X130187500Y-200200000D03*
%TD*%
D14*
%TO.C,R54*%
X145500000Y-86812500D03*
X145500000Y-84987500D03*
%TD*%
%TO.C,R49*%
X146300000Y-108212500D03*
X146300000Y-106387500D03*
%TD*%
D17*
%TO.C,C6*%
X104300000Y-220625000D03*
X104300000Y-222175000D03*
%TD*%
D11*
%TO.C,R32*%
X96112500Y-132237500D03*
X96112500Y-134062500D03*
%TD*%
D38*
%TO.C,D4*%
X92600000Y-220600000D03*
X88600000Y-220600000D03*
%TD*%
D21*
%TO.C,R27*%
X143162500Y-226450000D03*
X141337500Y-226450000D03*
%TD*%
D11*
%TO.C,R52*%
X156000000Y-99687500D03*
X156000000Y-101512500D03*
%TD*%
D16*
%TO.C,C37*%
X93762500Y-128000000D03*
X92212500Y-128000000D03*
%TD*%
D11*
%TO.C,R57*%
X162175000Y-102487500D03*
X162175000Y-104312500D03*
%TD*%
D12*
%TO.C,C7*%
X163400000Y-173375000D03*
X163400000Y-171825000D03*
%TD*%
D21*
%TO.C,R25*%
X90162500Y-225450000D03*
X88337500Y-225450000D03*
%TD*%
D46*
%TO.C,Q9*%
X166312500Y-103150000D03*
X166312500Y-105050000D03*
X164437500Y-104100000D03*
%TD*%
D31*
%TO.C,Q12*%
X190350000Y-214362500D03*
X192250000Y-214362500D03*
X191300000Y-216237500D03*
%TD*%
D13*
%TO.C,C61*%
X90062500Y-69900000D03*
X91612500Y-69900000D03*
%TD*%
D30*
%TO.C,R46*%
X113537500Y-107050000D03*
X115362500Y-107050000D03*
%TD*%
D14*
%TO.C,R55*%
X148400000Y-101800000D03*
X148400000Y-99975000D03*
%TD*%
D47*
%TO.C,U20*%
X106187500Y-107695000D03*
X106187500Y-108965000D03*
X106187500Y-110235000D03*
X106187500Y-111505000D03*
X98987500Y-111505000D03*
X98987500Y-110235000D03*
X98987500Y-108965000D03*
X98987500Y-107695000D03*
%TD*%
D43*
%TO.C,D20*%
X119200000Y-109400000D03*
X117000000Y-109400000D03*
%TD*%
D11*
%TO.C,R34*%
X98362500Y-132237500D03*
X98362500Y-134062500D03*
%TD*%
D14*
%TO.C,R48*%
X146300000Y-111712500D03*
X146300000Y-109887500D03*
%TD*%
D48*
%TO.C,C23*%
X117025000Y-165925000D03*
X119975000Y-165925000D03*
%TD*%
D13*
%TO.C,C53*%
X148225000Y-115700000D03*
X149775000Y-115700000D03*
%TD*%
D25*
%TO.C,C22*%
X180700000Y-207225000D03*
X180700000Y-210175000D03*
%TD*%
D11*
%TO.C,R56*%
X168775000Y-103287500D03*
X168775000Y-105112500D03*
%TD*%
D30*
%TO.C,R59*%
X93700000Y-71900000D03*
X95525000Y-71900000D03*
%TD*%
M02*
