%TF.GenerationSoftware,KiCad,Pcbnew,7.0.9-7.0.9~ubuntu22.04.1*%
%TF.CreationDate,2023-12-28T11:37:36+03:00*%
%TF.ProjectId,supply,73757070-6c79-42e6-9b69-6361645f7063,rev?*%
%TF.SameCoordinates,Original*%
%TF.FileFunction,Drillmap*%
%TF.FilePolarity,Positive*%
%FSLAX45Y45*%
G04 Gerber Fmt 4.5, Leading zero omitted, Abs format (unit mm)*
G04 Created by KiCad (PCBNEW 7.0.9-7.0.9~ubuntu22.04.1) date 2023-12-28 11:37:36*
%MOMM*%
%LPD*%
G01*
G04 APERTURE LIST*
%ADD10C,0.100000*%
%ADD11C,0.200000*%
%ADD12C,0.220000*%
G04 APERTURE END LIST*
D10*
X8650000Y-5570000D02*
X19650000Y-5570000D01*
X19650000Y-23550000D01*
X8650000Y-23550000D01*
X8650000Y-5570000D01*
D11*
D12*
X8940000Y-15340000D02*
X9160000Y-15560000D01*
X9160000Y-15340000D02*
X8940000Y-15560000D01*
X9390000Y-21440000D02*
X9610000Y-21660000D01*
X9610000Y-21440000D02*
X9390000Y-21660000D01*
X10240000Y-7990000D02*
X10460000Y-8210000D01*
X10460000Y-7990000D02*
X10240000Y-8210000D01*
X12990000Y-22090000D02*
X13210000Y-22310000D01*
X13210000Y-22090000D02*
X12990000Y-22310000D01*
X14840000Y-21740000D02*
X15060000Y-21960000D01*
X15060000Y-21740000D02*
X14840000Y-21960000D01*
X17640000Y-21790000D02*
X17860000Y-22010000D01*
X17860000Y-21790000D02*
X17640000Y-22010000D01*
X17790000Y-7140000D02*
X18010000Y-7360000D01*
X18010000Y-7140000D02*
X17790000Y-7360000D01*
D11*
X8905777Y-23866484D02*
X8905777Y-23666484D01*
X8905777Y-23666484D02*
X8953396Y-23666484D01*
X8953396Y-23666484D02*
X8981967Y-23676008D01*
X8981967Y-23676008D02*
X9001015Y-23695055D01*
X9001015Y-23695055D02*
X9010539Y-23714103D01*
X9010539Y-23714103D02*
X9020063Y-23752198D01*
X9020063Y-23752198D02*
X9020063Y-23780769D01*
X9020063Y-23780769D02*
X9010539Y-23818865D01*
X9010539Y-23818865D02*
X9001015Y-23837912D01*
X9001015Y-23837912D02*
X8981967Y-23856960D01*
X8981967Y-23856960D02*
X8953396Y-23866484D01*
X8953396Y-23866484D02*
X8905777Y-23866484D01*
X9105777Y-23866484D02*
X9105777Y-23733150D01*
X9105777Y-23771246D02*
X9115301Y-23752198D01*
X9115301Y-23752198D02*
X9124824Y-23742674D01*
X9124824Y-23742674D02*
X9143872Y-23733150D01*
X9143872Y-23733150D02*
X9162920Y-23733150D01*
X9229586Y-23866484D02*
X9229586Y-23733150D01*
X9229586Y-23666484D02*
X9220063Y-23676008D01*
X9220063Y-23676008D02*
X9229586Y-23685531D01*
X9229586Y-23685531D02*
X9239110Y-23676008D01*
X9239110Y-23676008D02*
X9229586Y-23666484D01*
X9229586Y-23666484D02*
X9229586Y-23685531D01*
X9353396Y-23866484D02*
X9334348Y-23856960D01*
X9334348Y-23856960D02*
X9324824Y-23837912D01*
X9324824Y-23837912D02*
X9324824Y-23666484D01*
X9458158Y-23866484D02*
X9439110Y-23856960D01*
X9439110Y-23856960D02*
X9429586Y-23837912D01*
X9429586Y-23837912D02*
X9429586Y-23666484D01*
X9686729Y-23866484D02*
X9686729Y-23666484D01*
X9686729Y-23666484D02*
X9753396Y-23809341D01*
X9753396Y-23809341D02*
X9820063Y-23666484D01*
X9820063Y-23666484D02*
X9820063Y-23866484D01*
X10001015Y-23866484D02*
X10001015Y-23761722D01*
X10001015Y-23761722D02*
X9991491Y-23742674D01*
X9991491Y-23742674D02*
X9972444Y-23733150D01*
X9972444Y-23733150D02*
X9934348Y-23733150D01*
X9934348Y-23733150D02*
X9915301Y-23742674D01*
X10001015Y-23856960D02*
X9981967Y-23866484D01*
X9981967Y-23866484D02*
X9934348Y-23866484D01*
X9934348Y-23866484D02*
X9915301Y-23856960D01*
X9915301Y-23856960D02*
X9905777Y-23837912D01*
X9905777Y-23837912D02*
X9905777Y-23818865D01*
X9905777Y-23818865D02*
X9915301Y-23799817D01*
X9915301Y-23799817D02*
X9934348Y-23790293D01*
X9934348Y-23790293D02*
X9981967Y-23790293D01*
X9981967Y-23790293D02*
X10001015Y-23780769D01*
X10096253Y-23733150D02*
X10096253Y-23933150D01*
X10096253Y-23742674D02*
X10115301Y-23733150D01*
X10115301Y-23733150D02*
X10153396Y-23733150D01*
X10153396Y-23733150D02*
X10172444Y-23742674D01*
X10172444Y-23742674D02*
X10181967Y-23752198D01*
X10181967Y-23752198D02*
X10191491Y-23771246D01*
X10191491Y-23771246D02*
X10191491Y-23828388D01*
X10191491Y-23828388D02*
X10181967Y-23847436D01*
X10181967Y-23847436D02*
X10172444Y-23856960D01*
X10172444Y-23856960D02*
X10153396Y-23866484D01*
X10153396Y-23866484D02*
X10115301Y-23866484D01*
X10115301Y-23866484D02*
X10096253Y-23856960D01*
X10277205Y-23847436D02*
X10286729Y-23856960D01*
X10286729Y-23856960D02*
X10277205Y-23866484D01*
X10277205Y-23866484D02*
X10267682Y-23856960D01*
X10267682Y-23856960D02*
X10277205Y-23847436D01*
X10277205Y-23847436D02*
X10277205Y-23866484D01*
X10277205Y-23742674D02*
X10286729Y-23752198D01*
X10286729Y-23752198D02*
X10277205Y-23761722D01*
X10277205Y-23761722D02*
X10267682Y-23752198D01*
X10267682Y-23752198D02*
X10277205Y-23742674D01*
X10277205Y-23742674D02*
X10277205Y-23761722D01*
X8445000Y-24095000D02*
X8645000Y-24295000D01*
X8645000Y-24095000D02*
X8445000Y-24295000D01*
X8896253Y-24105531D02*
X8905777Y-24096008D01*
X8905777Y-24096008D02*
X8924824Y-24086484D01*
X8924824Y-24086484D02*
X8972444Y-24086484D01*
X8972444Y-24086484D02*
X8991491Y-24096008D01*
X8991491Y-24096008D02*
X9001015Y-24105531D01*
X9001015Y-24105531D02*
X9010539Y-24124579D01*
X9010539Y-24124579D02*
X9010539Y-24143627D01*
X9010539Y-24143627D02*
X9001015Y-24172198D01*
X9001015Y-24172198D02*
X8886729Y-24286484D01*
X8886729Y-24286484D02*
X9010539Y-24286484D01*
X9096253Y-24267436D02*
X9105777Y-24276960D01*
X9105777Y-24276960D02*
X9096253Y-24286484D01*
X9096253Y-24286484D02*
X9086729Y-24276960D01*
X9086729Y-24276960D02*
X9096253Y-24267436D01*
X9096253Y-24267436D02*
X9096253Y-24286484D01*
X9181967Y-24105531D02*
X9191491Y-24096008D01*
X9191491Y-24096008D02*
X9210539Y-24086484D01*
X9210539Y-24086484D02*
X9258158Y-24086484D01*
X9258158Y-24086484D02*
X9277205Y-24096008D01*
X9277205Y-24096008D02*
X9286729Y-24105531D01*
X9286729Y-24105531D02*
X9296253Y-24124579D01*
X9296253Y-24124579D02*
X9296253Y-24143627D01*
X9296253Y-24143627D02*
X9286729Y-24172198D01*
X9286729Y-24172198D02*
X9172444Y-24286484D01*
X9172444Y-24286484D02*
X9296253Y-24286484D01*
X9420063Y-24086484D02*
X9439110Y-24086484D01*
X9439110Y-24086484D02*
X9458158Y-24096008D01*
X9458158Y-24096008D02*
X9467682Y-24105531D01*
X9467682Y-24105531D02*
X9477205Y-24124579D01*
X9477205Y-24124579D02*
X9486729Y-24162674D01*
X9486729Y-24162674D02*
X9486729Y-24210293D01*
X9486729Y-24210293D02*
X9477205Y-24248388D01*
X9477205Y-24248388D02*
X9467682Y-24267436D01*
X9467682Y-24267436D02*
X9458158Y-24276960D01*
X9458158Y-24276960D02*
X9439110Y-24286484D01*
X9439110Y-24286484D02*
X9420063Y-24286484D01*
X9420063Y-24286484D02*
X9401015Y-24276960D01*
X9401015Y-24276960D02*
X9391491Y-24267436D01*
X9391491Y-24267436D02*
X9381967Y-24248388D01*
X9381967Y-24248388D02*
X9372444Y-24210293D01*
X9372444Y-24210293D02*
X9372444Y-24162674D01*
X9372444Y-24162674D02*
X9381967Y-24124579D01*
X9381967Y-24124579D02*
X9391491Y-24105531D01*
X9391491Y-24105531D02*
X9401015Y-24096008D01*
X9401015Y-24096008D02*
X9420063Y-24086484D01*
X9610539Y-24086484D02*
X9629586Y-24086484D01*
X9629586Y-24086484D02*
X9648634Y-24096008D01*
X9648634Y-24096008D02*
X9658158Y-24105531D01*
X9658158Y-24105531D02*
X9667682Y-24124579D01*
X9667682Y-24124579D02*
X9677205Y-24162674D01*
X9677205Y-24162674D02*
X9677205Y-24210293D01*
X9677205Y-24210293D02*
X9667682Y-24248388D01*
X9667682Y-24248388D02*
X9658158Y-24267436D01*
X9658158Y-24267436D02*
X9648634Y-24276960D01*
X9648634Y-24276960D02*
X9629586Y-24286484D01*
X9629586Y-24286484D02*
X9610539Y-24286484D01*
X9610539Y-24286484D02*
X9591491Y-24276960D01*
X9591491Y-24276960D02*
X9581967Y-24267436D01*
X9581967Y-24267436D02*
X9572444Y-24248388D01*
X9572444Y-24248388D02*
X9562920Y-24210293D01*
X9562920Y-24210293D02*
X9562920Y-24162674D01*
X9562920Y-24162674D02*
X9572444Y-24124579D01*
X9572444Y-24124579D02*
X9581967Y-24105531D01*
X9581967Y-24105531D02*
X9591491Y-24096008D01*
X9591491Y-24096008D02*
X9610539Y-24086484D01*
X9762920Y-24286484D02*
X9762920Y-24153150D01*
X9762920Y-24172198D02*
X9772444Y-24162674D01*
X9772444Y-24162674D02*
X9791491Y-24153150D01*
X9791491Y-24153150D02*
X9820063Y-24153150D01*
X9820063Y-24153150D02*
X9839110Y-24162674D01*
X9839110Y-24162674D02*
X9848634Y-24181722D01*
X9848634Y-24181722D02*
X9848634Y-24286484D01*
X9848634Y-24181722D02*
X9858158Y-24162674D01*
X9858158Y-24162674D02*
X9877205Y-24153150D01*
X9877205Y-24153150D02*
X9905777Y-24153150D01*
X9905777Y-24153150D02*
X9924825Y-24162674D01*
X9924825Y-24162674D02*
X9934348Y-24181722D01*
X9934348Y-24181722D02*
X9934348Y-24286484D01*
X10029586Y-24286484D02*
X10029586Y-24153150D01*
X10029586Y-24172198D02*
X10039110Y-24162674D01*
X10039110Y-24162674D02*
X10058158Y-24153150D01*
X10058158Y-24153150D02*
X10086729Y-24153150D01*
X10086729Y-24153150D02*
X10105777Y-24162674D01*
X10105777Y-24162674D02*
X10115301Y-24181722D01*
X10115301Y-24181722D02*
X10115301Y-24286484D01*
X10115301Y-24181722D02*
X10124825Y-24162674D01*
X10124825Y-24162674D02*
X10143872Y-24153150D01*
X10143872Y-24153150D02*
X10172444Y-24153150D01*
X10172444Y-24153150D02*
X10191491Y-24162674D01*
X10191491Y-24162674D02*
X10201015Y-24181722D01*
X10201015Y-24181722D02*
X10201015Y-24286484D01*
X10591491Y-24076960D02*
X10420063Y-24334103D01*
X10848634Y-24086484D02*
X10867682Y-24086484D01*
X10867682Y-24086484D02*
X10886729Y-24096008D01*
X10886729Y-24096008D02*
X10896253Y-24105531D01*
X10896253Y-24105531D02*
X10905777Y-24124579D01*
X10905777Y-24124579D02*
X10915301Y-24162674D01*
X10915301Y-24162674D02*
X10915301Y-24210293D01*
X10915301Y-24210293D02*
X10905777Y-24248388D01*
X10905777Y-24248388D02*
X10896253Y-24267436D01*
X10896253Y-24267436D02*
X10886729Y-24276960D01*
X10886729Y-24276960D02*
X10867682Y-24286484D01*
X10867682Y-24286484D02*
X10848634Y-24286484D01*
X10848634Y-24286484D02*
X10829587Y-24276960D01*
X10829587Y-24276960D02*
X10820063Y-24267436D01*
X10820063Y-24267436D02*
X10810539Y-24248388D01*
X10810539Y-24248388D02*
X10801015Y-24210293D01*
X10801015Y-24210293D02*
X10801015Y-24162674D01*
X10801015Y-24162674D02*
X10810539Y-24124579D01*
X10810539Y-24124579D02*
X10820063Y-24105531D01*
X10820063Y-24105531D02*
X10829587Y-24096008D01*
X10829587Y-24096008D02*
X10848634Y-24086484D01*
X11001015Y-24267436D02*
X11010539Y-24276960D01*
X11010539Y-24276960D02*
X11001015Y-24286484D01*
X11001015Y-24286484D02*
X10991491Y-24276960D01*
X10991491Y-24276960D02*
X11001015Y-24267436D01*
X11001015Y-24267436D02*
X11001015Y-24286484D01*
X11134348Y-24086484D02*
X11153396Y-24086484D01*
X11153396Y-24086484D02*
X11172444Y-24096008D01*
X11172444Y-24096008D02*
X11181968Y-24105531D01*
X11181968Y-24105531D02*
X11191491Y-24124579D01*
X11191491Y-24124579D02*
X11201015Y-24162674D01*
X11201015Y-24162674D02*
X11201015Y-24210293D01*
X11201015Y-24210293D02*
X11191491Y-24248388D01*
X11191491Y-24248388D02*
X11181968Y-24267436D01*
X11181968Y-24267436D02*
X11172444Y-24276960D01*
X11172444Y-24276960D02*
X11153396Y-24286484D01*
X11153396Y-24286484D02*
X11134348Y-24286484D01*
X11134348Y-24286484D02*
X11115301Y-24276960D01*
X11115301Y-24276960D02*
X11105777Y-24267436D01*
X11105777Y-24267436D02*
X11096253Y-24248388D01*
X11096253Y-24248388D02*
X11086729Y-24210293D01*
X11086729Y-24210293D02*
X11086729Y-24162674D01*
X11086729Y-24162674D02*
X11096253Y-24124579D01*
X11096253Y-24124579D02*
X11105777Y-24105531D01*
X11105777Y-24105531D02*
X11115301Y-24096008D01*
X11115301Y-24096008D02*
X11134348Y-24086484D01*
X11315301Y-24172198D02*
X11296253Y-24162674D01*
X11296253Y-24162674D02*
X11286729Y-24153150D01*
X11286729Y-24153150D02*
X11277206Y-24134103D01*
X11277206Y-24134103D02*
X11277206Y-24124579D01*
X11277206Y-24124579D02*
X11286729Y-24105531D01*
X11286729Y-24105531D02*
X11296253Y-24096008D01*
X11296253Y-24096008D02*
X11315301Y-24086484D01*
X11315301Y-24086484D02*
X11353396Y-24086484D01*
X11353396Y-24086484D02*
X11372444Y-24096008D01*
X11372444Y-24096008D02*
X11381967Y-24105531D01*
X11381967Y-24105531D02*
X11391491Y-24124579D01*
X11391491Y-24124579D02*
X11391491Y-24134103D01*
X11391491Y-24134103D02*
X11381967Y-24153150D01*
X11381967Y-24153150D02*
X11372444Y-24162674D01*
X11372444Y-24162674D02*
X11353396Y-24172198D01*
X11353396Y-24172198D02*
X11315301Y-24172198D01*
X11315301Y-24172198D02*
X11296253Y-24181722D01*
X11296253Y-24181722D02*
X11286729Y-24191246D01*
X11286729Y-24191246D02*
X11277206Y-24210293D01*
X11277206Y-24210293D02*
X11277206Y-24248388D01*
X11277206Y-24248388D02*
X11286729Y-24267436D01*
X11286729Y-24267436D02*
X11296253Y-24276960D01*
X11296253Y-24276960D02*
X11315301Y-24286484D01*
X11315301Y-24286484D02*
X11353396Y-24286484D01*
X11353396Y-24286484D02*
X11372444Y-24276960D01*
X11372444Y-24276960D02*
X11381967Y-24267436D01*
X11381967Y-24267436D02*
X11391491Y-24248388D01*
X11391491Y-24248388D02*
X11391491Y-24210293D01*
X11391491Y-24210293D02*
X11381967Y-24191246D01*
X11381967Y-24191246D02*
X11372444Y-24181722D01*
X11372444Y-24181722D02*
X11353396Y-24172198D01*
X11562920Y-24086484D02*
X11524825Y-24086484D01*
X11524825Y-24086484D02*
X11505777Y-24096008D01*
X11505777Y-24096008D02*
X11496253Y-24105531D01*
X11496253Y-24105531D02*
X11477206Y-24134103D01*
X11477206Y-24134103D02*
X11467682Y-24172198D01*
X11467682Y-24172198D02*
X11467682Y-24248388D01*
X11467682Y-24248388D02*
X11477206Y-24267436D01*
X11477206Y-24267436D02*
X11486729Y-24276960D01*
X11486729Y-24276960D02*
X11505777Y-24286484D01*
X11505777Y-24286484D02*
X11543872Y-24286484D01*
X11543872Y-24286484D02*
X11562920Y-24276960D01*
X11562920Y-24276960D02*
X11572444Y-24267436D01*
X11572444Y-24267436D02*
X11581967Y-24248388D01*
X11581967Y-24248388D02*
X11581967Y-24200769D01*
X11581967Y-24200769D02*
X11572444Y-24181722D01*
X11572444Y-24181722D02*
X11562920Y-24172198D01*
X11562920Y-24172198D02*
X11543872Y-24162674D01*
X11543872Y-24162674D02*
X11505777Y-24162674D01*
X11505777Y-24162674D02*
X11486729Y-24172198D01*
X11486729Y-24172198D02*
X11477206Y-24181722D01*
X11477206Y-24181722D02*
X11467682Y-24200769D01*
X11753396Y-24086484D02*
X11715301Y-24086484D01*
X11715301Y-24086484D02*
X11696253Y-24096008D01*
X11696253Y-24096008D02*
X11686729Y-24105531D01*
X11686729Y-24105531D02*
X11667682Y-24134103D01*
X11667682Y-24134103D02*
X11658158Y-24172198D01*
X11658158Y-24172198D02*
X11658158Y-24248388D01*
X11658158Y-24248388D02*
X11667682Y-24267436D01*
X11667682Y-24267436D02*
X11677206Y-24276960D01*
X11677206Y-24276960D02*
X11696253Y-24286484D01*
X11696253Y-24286484D02*
X11734348Y-24286484D01*
X11734348Y-24286484D02*
X11753396Y-24276960D01*
X11753396Y-24276960D02*
X11762920Y-24267436D01*
X11762920Y-24267436D02*
X11772444Y-24248388D01*
X11772444Y-24248388D02*
X11772444Y-24200769D01*
X11772444Y-24200769D02*
X11762920Y-24181722D01*
X11762920Y-24181722D02*
X11753396Y-24172198D01*
X11753396Y-24172198D02*
X11734348Y-24162674D01*
X11734348Y-24162674D02*
X11696253Y-24162674D01*
X11696253Y-24162674D02*
X11677206Y-24172198D01*
X11677206Y-24172198D02*
X11667682Y-24181722D01*
X11667682Y-24181722D02*
X11658158Y-24200769D01*
X11848634Y-24086484D02*
X11848634Y-24124579D01*
X11924825Y-24086484D02*
X11924825Y-24124579D01*
X12220063Y-24362674D02*
X12210539Y-24353150D01*
X12210539Y-24353150D02*
X12191491Y-24324579D01*
X12191491Y-24324579D02*
X12181968Y-24305531D01*
X12181968Y-24305531D02*
X12172444Y-24276960D01*
X12172444Y-24276960D02*
X12162920Y-24229341D01*
X12162920Y-24229341D02*
X12162920Y-24191246D01*
X12162920Y-24191246D02*
X12172444Y-24143627D01*
X12172444Y-24143627D02*
X12181968Y-24115055D01*
X12181968Y-24115055D02*
X12191491Y-24096008D01*
X12191491Y-24096008D02*
X12210539Y-24067436D01*
X12210539Y-24067436D02*
X12220063Y-24057912D01*
X12277206Y-24086484D02*
X12410539Y-24086484D01*
X12410539Y-24086484D02*
X12324825Y-24286484D01*
X12639110Y-24286484D02*
X12639110Y-24086484D01*
X12724825Y-24286484D02*
X12724825Y-24181722D01*
X12724825Y-24181722D02*
X12715301Y-24162674D01*
X12715301Y-24162674D02*
X12696253Y-24153150D01*
X12696253Y-24153150D02*
X12667682Y-24153150D01*
X12667682Y-24153150D02*
X12648634Y-24162674D01*
X12648634Y-24162674D02*
X12639110Y-24172198D01*
X12848634Y-24286484D02*
X12829587Y-24276960D01*
X12829587Y-24276960D02*
X12820063Y-24267436D01*
X12820063Y-24267436D02*
X12810539Y-24248388D01*
X12810539Y-24248388D02*
X12810539Y-24191246D01*
X12810539Y-24191246D02*
X12820063Y-24172198D01*
X12820063Y-24172198D02*
X12829587Y-24162674D01*
X12829587Y-24162674D02*
X12848634Y-24153150D01*
X12848634Y-24153150D02*
X12877206Y-24153150D01*
X12877206Y-24153150D02*
X12896253Y-24162674D01*
X12896253Y-24162674D02*
X12905777Y-24172198D01*
X12905777Y-24172198D02*
X12915301Y-24191246D01*
X12915301Y-24191246D02*
X12915301Y-24248388D01*
X12915301Y-24248388D02*
X12905777Y-24267436D01*
X12905777Y-24267436D02*
X12896253Y-24276960D01*
X12896253Y-24276960D02*
X12877206Y-24286484D01*
X12877206Y-24286484D02*
X12848634Y-24286484D01*
X13029587Y-24286484D02*
X13010539Y-24276960D01*
X13010539Y-24276960D02*
X13001015Y-24257912D01*
X13001015Y-24257912D02*
X13001015Y-24086484D01*
X13181968Y-24276960D02*
X13162920Y-24286484D01*
X13162920Y-24286484D02*
X13124825Y-24286484D01*
X13124825Y-24286484D02*
X13105777Y-24276960D01*
X13105777Y-24276960D02*
X13096253Y-24257912D01*
X13096253Y-24257912D02*
X13096253Y-24181722D01*
X13096253Y-24181722D02*
X13105777Y-24162674D01*
X13105777Y-24162674D02*
X13124825Y-24153150D01*
X13124825Y-24153150D02*
X13162920Y-24153150D01*
X13162920Y-24153150D02*
X13181968Y-24162674D01*
X13181968Y-24162674D02*
X13191491Y-24181722D01*
X13191491Y-24181722D02*
X13191491Y-24200769D01*
X13191491Y-24200769D02*
X13096253Y-24219817D01*
X13267682Y-24276960D02*
X13286730Y-24286484D01*
X13286730Y-24286484D02*
X13324825Y-24286484D01*
X13324825Y-24286484D02*
X13343872Y-24276960D01*
X13343872Y-24276960D02*
X13353396Y-24257912D01*
X13353396Y-24257912D02*
X13353396Y-24248388D01*
X13353396Y-24248388D02*
X13343872Y-24229341D01*
X13343872Y-24229341D02*
X13324825Y-24219817D01*
X13324825Y-24219817D02*
X13296253Y-24219817D01*
X13296253Y-24219817D02*
X13277206Y-24210293D01*
X13277206Y-24210293D02*
X13267682Y-24191246D01*
X13267682Y-24191246D02*
X13267682Y-24181722D01*
X13267682Y-24181722D02*
X13277206Y-24162674D01*
X13277206Y-24162674D02*
X13296253Y-24153150D01*
X13296253Y-24153150D02*
X13324825Y-24153150D01*
X13324825Y-24153150D02*
X13343872Y-24162674D01*
X13420063Y-24362674D02*
X13429587Y-24353150D01*
X13429587Y-24353150D02*
X13448634Y-24324579D01*
X13448634Y-24324579D02*
X13458158Y-24305531D01*
X13458158Y-24305531D02*
X13467682Y-24276960D01*
X13467682Y-24276960D02*
X13477206Y-24229341D01*
X13477206Y-24229341D02*
X13477206Y-24191246D01*
X13477206Y-24191246D02*
X13467682Y-24143627D01*
X13467682Y-24143627D02*
X13458158Y-24115055D01*
X13458158Y-24115055D02*
X13448634Y-24096008D01*
X13448634Y-24096008D02*
X13429587Y-24067436D01*
X13429587Y-24067436D02*
X13420063Y-24057912D01*
X13781968Y-24362674D02*
X13772444Y-24353150D01*
X13772444Y-24353150D02*
X13753396Y-24324579D01*
X13753396Y-24324579D02*
X13743872Y-24305531D01*
X13743872Y-24305531D02*
X13734349Y-24276960D01*
X13734349Y-24276960D02*
X13724825Y-24229341D01*
X13724825Y-24229341D02*
X13724825Y-24191246D01*
X13724825Y-24191246D02*
X13734349Y-24143627D01*
X13734349Y-24143627D02*
X13743872Y-24115055D01*
X13743872Y-24115055D02*
X13753396Y-24096008D01*
X13753396Y-24096008D02*
X13772444Y-24067436D01*
X13772444Y-24067436D02*
X13781968Y-24057912D01*
X13858158Y-24153150D02*
X13858158Y-24286484D01*
X13858158Y-24172198D02*
X13867682Y-24162674D01*
X13867682Y-24162674D02*
X13886730Y-24153150D01*
X13886730Y-24153150D02*
X13915301Y-24153150D01*
X13915301Y-24153150D02*
X13934349Y-24162674D01*
X13934349Y-24162674D02*
X13943872Y-24181722D01*
X13943872Y-24181722D02*
X13943872Y-24286484D01*
X14067682Y-24286484D02*
X14048634Y-24276960D01*
X14048634Y-24276960D02*
X14039111Y-24267436D01*
X14039111Y-24267436D02*
X14029587Y-24248388D01*
X14029587Y-24248388D02*
X14029587Y-24191246D01*
X14029587Y-24191246D02*
X14039111Y-24172198D01*
X14039111Y-24172198D02*
X14048634Y-24162674D01*
X14048634Y-24162674D02*
X14067682Y-24153150D01*
X14067682Y-24153150D02*
X14096253Y-24153150D01*
X14096253Y-24153150D02*
X14115301Y-24162674D01*
X14115301Y-24162674D02*
X14124825Y-24172198D01*
X14124825Y-24172198D02*
X14134349Y-24191246D01*
X14134349Y-24191246D02*
X14134349Y-24248388D01*
X14134349Y-24248388D02*
X14124825Y-24267436D01*
X14124825Y-24267436D02*
X14115301Y-24276960D01*
X14115301Y-24276960D02*
X14096253Y-24286484D01*
X14096253Y-24286484D02*
X14067682Y-24286484D01*
X14191492Y-24153150D02*
X14267682Y-24153150D01*
X14220063Y-24086484D02*
X14220063Y-24257912D01*
X14220063Y-24257912D02*
X14229587Y-24276960D01*
X14229587Y-24276960D02*
X14248634Y-24286484D01*
X14248634Y-24286484D02*
X14267682Y-24286484D01*
X14486730Y-24153150D02*
X14486730Y-24353150D01*
X14486730Y-24162674D02*
X14505777Y-24153150D01*
X14505777Y-24153150D02*
X14543873Y-24153150D01*
X14543873Y-24153150D02*
X14562920Y-24162674D01*
X14562920Y-24162674D02*
X14572444Y-24172198D01*
X14572444Y-24172198D02*
X14581968Y-24191246D01*
X14581968Y-24191246D02*
X14581968Y-24248388D01*
X14581968Y-24248388D02*
X14572444Y-24267436D01*
X14572444Y-24267436D02*
X14562920Y-24276960D01*
X14562920Y-24276960D02*
X14543873Y-24286484D01*
X14543873Y-24286484D02*
X14505777Y-24286484D01*
X14505777Y-24286484D02*
X14486730Y-24276960D01*
X14696253Y-24286484D02*
X14677206Y-24276960D01*
X14677206Y-24276960D02*
X14667682Y-24257912D01*
X14667682Y-24257912D02*
X14667682Y-24086484D01*
X14858158Y-24286484D02*
X14858158Y-24181722D01*
X14858158Y-24181722D02*
X14848634Y-24162674D01*
X14848634Y-24162674D02*
X14829587Y-24153150D01*
X14829587Y-24153150D02*
X14791492Y-24153150D01*
X14791492Y-24153150D02*
X14772444Y-24162674D01*
X14858158Y-24276960D02*
X14839111Y-24286484D01*
X14839111Y-24286484D02*
X14791492Y-24286484D01*
X14791492Y-24286484D02*
X14772444Y-24276960D01*
X14772444Y-24276960D02*
X14762920Y-24257912D01*
X14762920Y-24257912D02*
X14762920Y-24238865D01*
X14762920Y-24238865D02*
X14772444Y-24219817D01*
X14772444Y-24219817D02*
X14791492Y-24210293D01*
X14791492Y-24210293D02*
X14839111Y-24210293D01*
X14839111Y-24210293D02*
X14858158Y-24200769D01*
X14924825Y-24153150D02*
X15001015Y-24153150D01*
X14953396Y-24086484D02*
X14953396Y-24257912D01*
X14953396Y-24257912D02*
X14962920Y-24276960D01*
X14962920Y-24276960D02*
X14981968Y-24286484D01*
X14981968Y-24286484D02*
X15001015Y-24286484D01*
X15143873Y-24276960D02*
X15124825Y-24286484D01*
X15124825Y-24286484D02*
X15086730Y-24286484D01*
X15086730Y-24286484D02*
X15067682Y-24276960D01*
X15067682Y-24276960D02*
X15058158Y-24257912D01*
X15058158Y-24257912D02*
X15058158Y-24181722D01*
X15058158Y-24181722D02*
X15067682Y-24162674D01*
X15067682Y-24162674D02*
X15086730Y-24153150D01*
X15086730Y-24153150D02*
X15124825Y-24153150D01*
X15124825Y-24153150D02*
X15143873Y-24162674D01*
X15143873Y-24162674D02*
X15153396Y-24181722D01*
X15153396Y-24181722D02*
X15153396Y-24200769D01*
X15153396Y-24200769D02*
X15058158Y-24219817D01*
X15324825Y-24286484D02*
X15324825Y-24086484D01*
X15324825Y-24276960D02*
X15305777Y-24286484D01*
X15305777Y-24286484D02*
X15267682Y-24286484D01*
X15267682Y-24286484D02*
X15248634Y-24276960D01*
X15248634Y-24276960D02*
X15239111Y-24267436D01*
X15239111Y-24267436D02*
X15229587Y-24248388D01*
X15229587Y-24248388D02*
X15229587Y-24191246D01*
X15229587Y-24191246D02*
X15239111Y-24172198D01*
X15239111Y-24172198D02*
X15248634Y-24162674D01*
X15248634Y-24162674D02*
X15267682Y-24153150D01*
X15267682Y-24153150D02*
X15305777Y-24153150D01*
X15305777Y-24153150D02*
X15324825Y-24162674D01*
X15401015Y-24362674D02*
X15410539Y-24353150D01*
X15410539Y-24353150D02*
X15429587Y-24324579D01*
X15429587Y-24324579D02*
X15439111Y-24305531D01*
X15439111Y-24305531D02*
X15448634Y-24276960D01*
X15448634Y-24276960D02*
X15458158Y-24229341D01*
X15458158Y-24229341D02*
X15458158Y-24191246D01*
X15458158Y-24191246D02*
X15448634Y-24143627D01*
X15448634Y-24143627D02*
X15439111Y-24115055D01*
X15439111Y-24115055D02*
X15429587Y-24096008D01*
X15429587Y-24096008D02*
X15410539Y-24067436D01*
X15410539Y-24067436D02*
X15401015Y-24057912D01*
M02*
