%TF.GenerationSoftware,KiCad,Pcbnew,7.0.6-7.0.6~ubuntu22.04.1*%
%TF.CreationDate,2023-07-19T17:33:27+03:00*%
%TF.ProjectId,supply,73757070-6c79-42e6-9b69-6361645f7063,rev?*%
%TF.SameCoordinates,Original*%
%TF.FileFunction,Drillmap*%
%TF.FilePolarity,Positive*%
%FSLAX45Y45*%
G04 Gerber Fmt 4.5, Leading zero omitted, Abs format (unit mm)*
G04 Created by KiCad (PCBNEW 7.0.6-7.0.6~ubuntu22.04.1) date 2023-07-19 17:33:27*
%MOMM*%
%LPD*%
G01*
G04 APERTURE LIST*
%ADD10C,0.100000*%
%ADD11C,0.200000*%
%ADD12C,0.220000*%
G04 APERTURE END LIST*
D10*
X29000000Y-6100000D02*
X21400000Y-6100000D01*
X8647500Y-6080000D02*
X19647500Y-6080000D01*
X19647500Y-23580000D01*
X8647500Y-23580000D01*
X8647500Y-6080000D01*
X21400000Y-16900000D02*
X32400000Y-16900000D01*
X21400000Y-6100000D02*
X21400000Y-16900000D01*
X32400000Y-10800000D02*
X29000000Y-10800000D01*
X29000000Y-10800000D02*
X29000000Y-6100000D01*
X32400000Y-16900000D02*
X32400000Y-10800000D01*
D11*
D12*
X8865000Y-8940000D02*
X9085000Y-9160000D01*
X9085000Y-8940000D02*
X8865000Y-9160000D01*
X10310000Y-21650000D02*
X10530000Y-21870000D01*
X10530000Y-21650000D02*
X10310000Y-21870000D01*
X10830000Y-20050000D02*
X11050000Y-20270000D01*
X11050000Y-20050000D02*
X10830000Y-20270000D01*
X12860000Y-22140000D02*
X13080000Y-22360000D01*
X13080000Y-22140000D02*
X12860000Y-22360000D01*
X14390000Y-21800000D02*
X14610000Y-22020000D01*
X14610000Y-21800000D02*
X14390000Y-22020000D01*
X16190000Y-6350000D02*
X16410000Y-6570000D01*
X16410000Y-6350000D02*
X16190000Y-6570000D01*
X18370000Y-22390000D02*
X18590000Y-22610000D01*
X18590000Y-22390000D02*
X18370000Y-22610000D01*
X26440000Y-6915000D02*
X26660000Y-7135000D01*
X26660000Y-6915000D02*
X26440000Y-7135000D01*
X26915000Y-10990000D02*
X27135000Y-11210000D01*
X27135000Y-10990000D02*
X26915000Y-11210000D01*
X26915000Y-14715000D02*
X27135000Y-14935000D01*
X27135000Y-14715000D02*
X26915000Y-14935000D01*
D11*
X8903277Y-23896484D02*
X8903277Y-23696484D01*
X8903277Y-23696484D02*
X8950896Y-23696484D01*
X8950896Y-23696484D02*
X8979467Y-23706008D01*
X8979467Y-23706008D02*
X8998515Y-23725055D01*
X8998515Y-23725055D02*
X9008039Y-23744103D01*
X9008039Y-23744103D02*
X9017563Y-23782198D01*
X9017563Y-23782198D02*
X9017563Y-23810769D01*
X9017563Y-23810769D02*
X9008039Y-23848865D01*
X9008039Y-23848865D02*
X8998515Y-23867912D01*
X8998515Y-23867912D02*
X8979467Y-23886960D01*
X8979467Y-23886960D02*
X8950896Y-23896484D01*
X8950896Y-23896484D02*
X8903277Y-23896484D01*
X9103277Y-23896484D02*
X9103277Y-23763150D01*
X9103277Y-23801246D02*
X9112801Y-23782198D01*
X9112801Y-23782198D02*
X9122324Y-23772674D01*
X9122324Y-23772674D02*
X9141372Y-23763150D01*
X9141372Y-23763150D02*
X9160420Y-23763150D01*
X9227086Y-23896484D02*
X9227086Y-23763150D01*
X9227086Y-23696484D02*
X9217563Y-23706008D01*
X9217563Y-23706008D02*
X9227086Y-23715531D01*
X9227086Y-23715531D02*
X9236610Y-23706008D01*
X9236610Y-23706008D02*
X9227086Y-23696484D01*
X9227086Y-23696484D02*
X9227086Y-23715531D01*
X9350896Y-23896484D02*
X9331848Y-23886960D01*
X9331848Y-23886960D02*
X9322324Y-23867912D01*
X9322324Y-23867912D02*
X9322324Y-23696484D01*
X9455658Y-23896484D02*
X9436610Y-23886960D01*
X9436610Y-23886960D02*
X9427086Y-23867912D01*
X9427086Y-23867912D02*
X9427086Y-23696484D01*
X9684229Y-23896484D02*
X9684229Y-23696484D01*
X9684229Y-23696484D02*
X9750896Y-23839341D01*
X9750896Y-23839341D02*
X9817563Y-23696484D01*
X9817563Y-23696484D02*
X9817563Y-23896484D01*
X9998515Y-23896484D02*
X9998515Y-23791722D01*
X9998515Y-23791722D02*
X9988991Y-23772674D01*
X9988991Y-23772674D02*
X9969944Y-23763150D01*
X9969944Y-23763150D02*
X9931848Y-23763150D01*
X9931848Y-23763150D02*
X9912801Y-23772674D01*
X9998515Y-23886960D02*
X9979467Y-23896484D01*
X9979467Y-23896484D02*
X9931848Y-23896484D01*
X9931848Y-23896484D02*
X9912801Y-23886960D01*
X9912801Y-23886960D02*
X9903277Y-23867912D01*
X9903277Y-23867912D02*
X9903277Y-23848865D01*
X9903277Y-23848865D02*
X9912801Y-23829817D01*
X9912801Y-23829817D02*
X9931848Y-23820293D01*
X9931848Y-23820293D02*
X9979467Y-23820293D01*
X9979467Y-23820293D02*
X9998515Y-23810769D01*
X10093753Y-23763150D02*
X10093753Y-23963150D01*
X10093753Y-23772674D02*
X10112801Y-23763150D01*
X10112801Y-23763150D02*
X10150896Y-23763150D01*
X10150896Y-23763150D02*
X10169944Y-23772674D01*
X10169944Y-23772674D02*
X10179467Y-23782198D01*
X10179467Y-23782198D02*
X10188991Y-23801246D01*
X10188991Y-23801246D02*
X10188991Y-23858388D01*
X10188991Y-23858388D02*
X10179467Y-23877436D01*
X10179467Y-23877436D02*
X10169944Y-23886960D01*
X10169944Y-23886960D02*
X10150896Y-23896484D01*
X10150896Y-23896484D02*
X10112801Y-23896484D01*
X10112801Y-23896484D02*
X10093753Y-23886960D01*
X10274705Y-23877436D02*
X10284229Y-23886960D01*
X10284229Y-23886960D02*
X10274705Y-23896484D01*
X10274705Y-23896484D02*
X10265182Y-23886960D01*
X10265182Y-23886960D02*
X10274705Y-23877436D01*
X10274705Y-23877436D02*
X10274705Y-23896484D01*
X10274705Y-23772674D02*
X10284229Y-23782198D01*
X10284229Y-23782198D02*
X10274705Y-23791722D01*
X10274705Y-23791722D02*
X10265182Y-23782198D01*
X10265182Y-23782198D02*
X10274705Y-23772674D01*
X10274705Y-23772674D02*
X10274705Y-23791722D01*
X8442500Y-24125000D02*
X8642500Y-24325000D01*
X8642500Y-24125000D02*
X8442500Y-24325000D01*
X8893753Y-24135531D02*
X8903277Y-24126008D01*
X8903277Y-24126008D02*
X8922324Y-24116484D01*
X8922324Y-24116484D02*
X8969944Y-24116484D01*
X8969944Y-24116484D02*
X8988991Y-24126008D01*
X8988991Y-24126008D02*
X8998515Y-24135531D01*
X8998515Y-24135531D02*
X9008039Y-24154579D01*
X9008039Y-24154579D02*
X9008039Y-24173627D01*
X9008039Y-24173627D02*
X8998515Y-24202198D01*
X8998515Y-24202198D02*
X8884229Y-24316484D01*
X8884229Y-24316484D02*
X9008039Y-24316484D01*
X9093753Y-24297436D02*
X9103277Y-24306960D01*
X9103277Y-24306960D02*
X9093753Y-24316484D01*
X9093753Y-24316484D02*
X9084229Y-24306960D01*
X9084229Y-24306960D02*
X9093753Y-24297436D01*
X9093753Y-24297436D02*
X9093753Y-24316484D01*
X9179467Y-24135531D02*
X9188991Y-24126008D01*
X9188991Y-24126008D02*
X9208039Y-24116484D01*
X9208039Y-24116484D02*
X9255658Y-24116484D01*
X9255658Y-24116484D02*
X9274705Y-24126008D01*
X9274705Y-24126008D02*
X9284229Y-24135531D01*
X9284229Y-24135531D02*
X9293753Y-24154579D01*
X9293753Y-24154579D02*
X9293753Y-24173627D01*
X9293753Y-24173627D02*
X9284229Y-24202198D01*
X9284229Y-24202198D02*
X9169944Y-24316484D01*
X9169944Y-24316484D02*
X9293753Y-24316484D01*
X9417563Y-24116484D02*
X9436610Y-24116484D01*
X9436610Y-24116484D02*
X9455658Y-24126008D01*
X9455658Y-24126008D02*
X9465182Y-24135531D01*
X9465182Y-24135531D02*
X9474705Y-24154579D01*
X9474705Y-24154579D02*
X9484229Y-24192674D01*
X9484229Y-24192674D02*
X9484229Y-24240293D01*
X9484229Y-24240293D02*
X9474705Y-24278388D01*
X9474705Y-24278388D02*
X9465182Y-24297436D01*
X9465182Y-24297436D02*
X9455658Y-24306960D01*
X9455658Y-24306960D02*
X9436610Y-24316484D01*
X9436610Y-24316484D02*
X9417563Y-24316484D01*
X9417563Y-24316484D02*
X9398515Y-24306960D01*
X9398515Y-24306960D02*
X9388991Y-24297436D01*
X9388991Y-24297436D02*
X9379467Y-24278388D01*
X9379467Y-24278388D02*
X9369944Y-24240293D01*
X9369944Y-24240293D02*
X9369944Y-24192674D01*
X9369944Y-24192674D02*
X9379467Y-24154579D01*
X9379467Y-24154579D02*
X9388991Y-24135531D01*
X9388991Y-24135531D02*
X9398515Y-24126008D01*
X9398515Y-24126008D02*
X9417563Y-24116484D01*
X9608039Y-24116484D02*
X9627086Y-24116484D01*
X9627086Y-24116484D02*
X9646134Y-24126008D01*
X9646134Y-24126008D02*
X9655658Y-24135531D01*
X9655658Y-24135531D02*
X9665182Y-24154579D01*
X9665182Y-24154579D02*
X9674705Y-24192674D01*
X9674705Y-24192674D02*
X9674705Y-24240293D01*
X9674705Y-24240293D02*
X9665182Y-24278388D01*
X9665182Y-24278388D02*
X9655658Y-24297436D01*
X9655658Y-24297436D02*
X9646134Y-24306960D01*
X9646134Y-24306960D02*
X9627086Y-24316484D01*
X9627086Y-24316484D02*
X9608039Y-24316484D01*
X9608039Y-24316484D02*
X9588991Y-24306960D01*
X9588991Y-24306960D02*
X9579467Y-24297436D01*
X9579467Y-24297436D02*
X9569944Y-24278388D01*
X9569944Y-24278388D02*
X9560420Y-24240293D01*
X9560420Y-24240293D02*
X9560420Y-24192674D01*
X9560420Y-24192674D02*
X9569944Y-24154579D01*
X9569944Y-24154579D02*
X9579467Y-24135531D01*
X9579467Y-24135531D02*
X9588991Y-24126008D01*
X9588991Y-24126008D02*
X9608039Y-24116484D01*
X9760420Y-24316484D02*
X9760420Y-24183150D01*
X9760420Y-24202198D02*
X9769944Y-24192674D01*
X9769944Y-24192674D02*
X9788991Y-24183150D01*
X9788991Y-24183150D02*
X9817563Y-24183150D01*
X9817563Y-24183150D02*
X9836610Y-24192674D01*
X9836610Y-24192674D02*
X9846134Y-24211722D01*
X9846134Y-24211722D02*
X9846134Y-24316484D01*
X9846134Y-24211722D02*
X9855658Y-24192674D01*
X9855658Y-24192674D02*
X9874705Y-24183150D01*
X9874705Y-24183150D02*
X9903277Y-24183150D01*
X9903277Y-24183150D02*
X9922325Y-24192674D01*
X9922325Y-24192674D02*
X9931848Y-24211722D01*
X9931848Y-24211722D02*
X9931848Y-24316484D01*
X10027086Y-24316484D02*
X10027086Y-24183150D01*
X10027086Y-24202198D02*
X10036610Y-24192674D01*
X10036610Y-24192674D02*
X10055658Y-24183150D01*
X10055658Y-24183150D02*
X10084229Y-24183150D01*
X10084229Y-24183150D02*
X10103277Y-24192674D01*
X10103277Y-24192674D02*
X10112801Y-24211722D01*
X10112801Y-24211722D02*
X10112801Y-24316484D01*
X10112801Y-24211722D02*
X10122325Y-24192674D01*
X10122325Y-24192674D02*
X10141372Y-24183150D01*
X10141372Y-24183150D02*
X10169944Y-24183150D01*
X10169944Y-24183150D02*
X10188991Y-24192674D01*
X10188991Y-24192674D02*
X10198515Y-24211722D01*
X10198515Y-24211722D02*
X10198515Y-24316484D01*
X10588991Y-24106960D02*
X10417563Y-24364103D01*
X10846134Y-24116484D02*
X10865182Y-24116484D01*
X10865182Y-24116484D02*
X10884229Y-24126008D01*
X10884229Y-24126008D02*
X10893753Y-24135531D01*
X10893753Y-24135531D02*
X10903277Y-24154579D01*
X10903277Y-24154579D02*
X10912801Y-24192674D01*
X10912801Y-24192674D02*
X10912801Y-24240293D01*
X10912801Y-24240293D02*
X10903277Y-24278388D01*
X10903277Y-24278388D02*
X10893753Y-24297436D01*
X10893753Y-24297436D02*
X10884229Y-24306960D01*
X10884229Y-24306960D02*
X10865182Y-24316484D01*
X10865182Y-24316484D02*
X10846134Y-24316484D01*
X10846134Y-24316484D02*
X10827087Y-24306960D01*
X10827087Y-24306960D02*
X10817563Y-24297436D01*
X10817563Y-24297436D02*
X10808039Y-24278388D01*
X10808039Y-24278388D02*
X10798515Y-24240293D01*
X10798515Y-24240293D02*
X10798515Y-24192674D01*
X10798515Y-24192674D02*
X10808039Y-24154579D01*
X10808039Y-24154579D02*
X10817563Y-24135531D01*
X10817563Y-24135531D02*
X10827087Y-24126008D01*
X10827087Y-24126008D02*
X10846134Y-24116484D01*
X10998515Y-24297436D02*
X11008039Y-24306960D01*
X11008039Y-24306960D02*
X10998515Y-24316484D01*
X10998515Y-24316484D02*
X10988991Y-24306960D01*
X10988991Y-24306960D02*
X10998515Y-24297436D01*
X10998515Y-24297436D02*
X10998515Y-24316484D01*
X11131848Y-24116484D02*
X11150896Y-24116484D01*
X11150896Y-24116484D02*
X11169944Y-24126008D01*
X11169944Y-24126008D02*
X11179468Y-24135531D01*
X11179468Y-24135531D02*
X11188991Y-24154579D01*
X11188991Y-24154579D02*
X11198515Y-24192674D01*
X11198515Y-24192674D02*
X11198515Y-24240293D01*
X11198515Y-24240293D02*
X11188991Y-24278388D01*
X11188991Y-24278388D02*
X11179468Y-24297436D01*
X11179468Y-24297436D02*
X11169944Y-24306960D01*
X11169944Y-24306960D02*
X11150896Y-24316484D01*
X11150896Y-24316484D02*
X11131848Y-24316484D01*
X11131848Y-24316484D02*
X11112801Y-24306960D01*
X11112801Y-24306960D02*
X11103277Y-24297436D01*
X11103277Y-24297436D02*
X11093753Y-24278388D01*
X11093753Y-24278388D02*
X11084229Y-24240293D01*
X11084229Y-24240293D02*
X11084229Y-24192674D01*
X11084229Y-24192674D02*
X11093753Y-24154579D01*
X11093753Y-24154579D02*
X11103277Y-24135531D01*
X11103277Y-24135531D02*
X11112801Y-24126008D01*
X11112801Y-24126008D02*
X11131848Y-24116484D01*
X11312801Y-24202198D02*
X11293753Y-24192674D01*
X11293753Y-24192674D02*
X11284229Y-24183150D01*
X11284229Y-24183150D02*
X11274706Y-24164103D01*
X11274706Y-24164103D02*
X11274706Y-24154579D01*
X11274706Y-24154579D02*
X11284229Y-24135531D01*
X11284229Y-24135531D02*
X11293753Y-24126008D01*
X11293753Y-24126008D02*
X11312801Y-24116484D01*
X11312801Y-24116484D02*
X11350896Y-24116484D01*
X11350896Y-24116484D02*
X11369944Y-24126008D01*
X11369944Y-24126008D02*
X11379467Y-24135531D01*
X11379467Y-24135531D02*
X11388991Y-24154579D01*
X11388991Y-24154579D02*
X11388991Y-24164103D01*
X11388991Y-24164103D02*
X11379467Y-24183150D01*
X11379467Y-24183150D02*
X11369944Y-24192674D01*
X11369944Y-24192674D02*
X11350896Y-24202198D01*
X11350896Y-24202198D02*
X11312801Y-24202198D01*
X11312801Y-24202198D02*
X11293753Y-24211722D01*
X11293753Y-24211722D02*
X11284229Y-24221246D01*
X11284229Y-24221246D02*
X11274706Y-24240293D01*
X11274706Y-24240293D02*
X11274706Y-24278388D01*
X11274706Y-24278388D02*
X11284229Y-24297436D01*
X11284229Y-24297436D02*
X11293753Y-24306960D01*
X11293753Y-24306960D02*
X11312801Y-24316484D01*
X11312801Y-24316484D02*
X11350896Y-24316484D01*
X11350896Y-24316484D02*
X11369944Y-24306960D01*
X11369944Y-24306960D02*
X11379467Y-24297436D01*
X11379467Y-24297436D02*
X11388991Y-24278388D01*
X11388991Y-24278388D02*
X11388991Y-24240293D01*
X11388991Y-24240293D02*
X11379467Y-24221246D01*
X11379467Y-24221246D02*
X11369944Y-24211722D01*
X11369944Y-24211722D02*
X11350896Y-24202198D01*
X11560420Y-24116484D02*
X11522325Y-24116484D01*
X11522325Y-24116484D02*
X11503277Y-24126008D01*
X11503277Y-24126008D02*
X11493753Y-24135531D01*
X11493753Y-24135531D02*
X11474706Y-24164103D01*
X11474706Y-24164103D02*
X11465182Y-24202198D01*
X11465182Y-24202198D02*
X11465182Y-24278388D01*
X11465182Y-24278388D02*
X11474706Y-24297436D01*
X11474706Y-24297436D02*
X11484229Y-24306960D01*
X11484229Y-24306960D02*
X11503277Y-24316484D01*
X11503277Y-24316484D02*
X11541372Y-24316484D01*
X11541372Y-24316484D02*
X11560420Y-24306960D01*
X11560420Y-24306960D02*
X11569944Y-24297436D01*
X11569944Y-24297436D02*
X11579467Y-24278388D01*
X11579467Y-24278388D02*
X11579467Y-24230769D01*
X11579467Y-24230769D02*
X11569944Y-24211722D01*
X11569944Y-24211722D02*
X11560420Y-24202198D01*
X11560420Y-24202198D02*
X11541372Y-24192674D01*
X11541372Y-24192674D02*
X11503277Y-24192674D01*
X11503277Y-24192674D02*
X11484229Y-24202198D01*
X11484229Y-24202198D02*
X11474706Y-24211722D01*
X11474706Y-24211722D02*
X11465182Y-24230769D01*
X11750896Y-24116484D02*
X11712801Y-24116484D01*
X11712801Y-24116484D02*
X11693753Y-24126008D01*
X11693753Y-24126008D02*
X11684229Y-24135531D01*
X11684229Y-24135531D02*
X11665182Y-24164103D01*
X11665182Y-24164103D02*
X11655658Y-24202198D01*
X11655658Y-24202198D02*
X11655658Y-24278388D01*
X11655658Y-24278388D02*
X11665182Y-24297436D01*
X11665182Y-24297436D02*
X11674706Y-24306960D01*
X11674706Y-24306960D02*
X11693753Y-24316484D01*
X11693753Y-24316484D02*
X11731848Y-24316484D01*
X11731848Y-24316484D02*
X11750896Y-24306960D01*
X11750896Y-24306960D02*
X11760420Y-24297436D01*
X11760420Y-24297436D02*
X11769944Y-24278388D01*
X11769944Y-24278388D02*
X11769944Y-24230769D01*
X11769944Y-24230769D02*
X11760420Y-24211722D01*
X11760420Y-24211722D02*
X11750896Y-24202198D01*
X11750896Y-24202198D02*
X11731848Y-24192674D01*
X11731848Y-24192674D02*
X11693753Y-24192674D01*
X11693753Y-24192674D02*
X11674706Y-24202198D01*
X11674706Y-24202198D02*
X11665182Y-24211722D01*
X11665182Y-24211722D02*
X11655658Y-24230769D01*
X11846134Y-24116484D02*
X11846134Y-24154579D01*
X11922325Y-24116484D02*
X11922325Y-24154579D01*
X12217563Y-24392674D02*
X12208039Y-24383150D01*
X12208039Y-24383150D02*
X12188991Y-24354579D01*
X12188991Y-24354579D02*
X12179468Y-24335531D01*
X12179468Y-24335531D02*
X12169944Y-24306960D01*
X12169944Y-24306960D02*
X12160420Y-24259341D01*
X12160420Y-24259341D02*
X12160420Y-24221246D01*
X12160420Y-24221246D02*
X12169944Y-24173627D01*
X12169944Y-24173627D02*
X12179468Y-24145055D01*
X12179468Y-24145055D02*
X12188991Y-24126008D01*
X12188991Y-24126008D02*
X12208039Y-24097436D01*
X12208039Y-24097436D02*
X12217563Y-24087912D01*
X12398515Y-24316484D02*
X12284229Y-24316484D01*
X12341372Y-24316484D02*
X12341372Y-24116484D01*
X12341372Y-24116484D02*
X12322325Y-24145055D01*
X12322325Y-24145055D02*
X12303277Y-24164103D01*
X12303277Y-24164103D02*
X12284229Y-24173627D01*
X12522325Y-24116484D02*
X12541372Y-24116484D01*
X12541372Y-24116484D02*
X12560420Y-24126008D01*
X12560420Y-24126008D02*
X12569944Y-24135531D01*
X12569944Y-24135531D02*
X12579468Y-24154579D01*
X12579468Y-24154579D02*
X12588991Y-24192674D01*
X12588991Y-24192674D02*
X12588991Y-24240293D01*
X12588991Y-24240293D02*
X12579468Y-24278388D01*
X12579468Y-24278388D02*
X12569944Y-24297436D01*
X12569944Y-24297436D02*
X12560420Y-24306960D01*
X12560420Y-24306960D02*
X12541372Y-24316484D01*
X12541372Y-24316484D02*
X12522325Y-24316484D01*
X12522325Y-24316484D02*
X12503277Y-24306960D01*
X12503277Y-24306960D02*
X12493753Y-24297436D01*
X12493753Y-24297436D02*
X12484229Y-24278388D01*
X12484229Y-24278388D02*
X12474706Y-24240293D01*
X12474706Y-24240293D02*
X12474706Y-24192674D01*
X12474706Y-24192674D02*
X12484229Y-24154579D01*
X12484229Y-24154579D02*
X12493753Y-24135531D01*
X12493753Y-24135531D02*
X12503277Y-24126008D01*
X12503277Y-24126008D02*
X12522325Y-24116484D01*
X12827087Y-24316484D02*
X12827087Y-24116484D01*
X12912801Y-24316484D02*
X12912801Y-24211722D01*
X12912801Y-24211722D02*
X12903277Y-24192674D01*
X12903277Y-24192674D02*
X12884230Y-24183150D01*
X12884230Y-24183150D02*
X12855658Y-24183150D01*
X12855658Y-24183150D02*
X12836610Y-24192674D01*
X12836610Y-24192674D02*
X12827087Y-24202198D01*
X13036610Y-24316484D02*
X13017563Y-24306960D01*
X13017563Y-24306960D02*
X13008039Y-24297436D01*
X13008039Y-24297436D02*
X12998515Y-24278388D01*
X12998515Y-24278388D02*
X12998515Y-24221246D01*
X12998515Y-24221246D02*
X13008039Y-24202198D01*
X13008039Y-24202198D02*
X13017563Y-24192674D01*
X13017563Y-24192674D02*
X13036610Y-24183150D01*
X13036610Y-24183150D02*
X13065182Y-24183150D01*
X13065182Y-24183150D02*
X13084230Y-24192674D01*
X13084230Y-24192674D02*
X13093753Y-24202198D01*
X13093753Y-24202198D02*
X13103277Y-24221246D01*
X13103277Y-24221246D02*
X13103277Y-24278388D01*
X13103277Y-24278388D02*
X13093753Y-24297436D01*
X13093753Y-24297436D02*
X13084230Y-24306960D01*
X13084230Y-24306960D02*
X13065182Y-24316484D01*
X13065182Y-24316484D02*
X13036610Y-24316484D01*
X13217563Y-24316484D02*
X13198515Y-24306960D01*
X13198515Y-24306960D02*
X13188991Y-24287912D01*
X13188991Y-24287912D02*
X13188991Y-24116484D01*
X13369944Y-24306960D02*
X13350896Y-24316484D01*
X13350896Y-24316484D02*
X13312801Y-24316484D01*
X13312801Y-24316484D02*
X13293753Y-24306960D01*
X13293753Y-24306960D02*
X13284230Y-24287912D01*
X13284230Y-24287912D02*
X13284230Y-24211722D01*
X13284230Y-24211722D02*
X13293753Y-24192674D01*
X13293753Y-24192674D02*
X13312801Y-24183150D01*
X13312801Y-24183150D02*
X13350896Y-24183150D01*
X13350896Y-24183150D02*
X13369944Y-24192674D01*
X13369944Y-24192674D02*
X13379468Y-24211722D01*
X13379468Y-24211722D02*
X13379468Y-24230769D01*
X13379468Y-24230769D02*
X13284230Y-24249817D01*
X13455658Y-24306960D02*
X13474706Y-24316484D01*
X13474706Y-24316484D02*
X13512801Y-24316484D01*
X13512801Y-24316484D02*
X13531849Y-24306960D01*
X13531849Y-24306960D02*
X13541372Y-24287912D01*
X13541372Y-24287912D02*
X13541372Y-24278388D01*
X13541372Y-24278388D02*
X13531849Y-24259341D01*
X13531849Y-24259341D02*
X13512801Y-24249817D01*
X13512801Y-24249817D02*
X13484230Y-24249817D01*
X13484230Y-24249817D02*
X13465182Y-24240293D01*
X13465182Y-24240293D02*
X13455658Y-24221246D01*
X13455658Y-24221246D02*
X13455658Y-24211722D01*
X13455658Y-24211722D02*
X13465182Y-24192674D01*
X13465182Y-24192674D02*
X13484230Y-24183150D01*
X13484230Y-24183150D02*
X13512801Y-24183150D01*
X13512801Y-24183150D02*
X13531849Y-24192674D01*
X13608039Y-24392674D02*
X13617563Y-24383150D01*
X13617563Y-24383150D02*
X13636611Y-24354579D01*
X13636611Y-24354579D02*
X13646134Y-24335531D01*
X13646134Y-24335531D02*
X13655658Y-24306960D01*
X13655658Y-24306960D02*
X13665182Y-24259341D01*
X13665182Y-24259341D02*
X13665182Y-24221246D01*
X13665182Y-24221246D02*
X13655658Y-24173627D01*
X13655658Y-24173627D02*
X13646134Y-24145055D01*
X13646134Y-24145055D02*
X13636611Y-24126008D01*
X13636611Y-24126008D02*
X13617563Y-24097436D01*
X13617563Y-24097436D02*
X13608039Y-24087912D01*
X13969944Y-24392674D02*
X13960420Y-24383150D01*
X13960420Y-24383150D02*
X13941372Y-24354579D01*
X13941372Y-24354579D02*
X13931849Y-24335531D01*
X13931849Y-24335531D02*
X13922325Y-24306960D01*
X13922325Y-24306960D02*
X13912801Y-24259341D01*
X13912801Y-24259341D02*
X13912801Y-24221246D01*
X13912801Y-24221246D02*
X13922325Y-24173627D01*
X13922325Y-24173627D02*
X13931849Y-24145055D01*
X13931849Y-24145055D02*
X13941372Y-24126008D01*
X13941372Y-24126008D02*
X13960420Y-24097436D01*
X13960420Y-24097436D02*
X13969944Y-24087912D01*
X14046134Y-24183150D02*
X14046134Y-24316484D01*
X14046134Y-24202198D02*
X14055658Y-24192674D01*
X14055658Y-24192674D02*
X14074706Y-24183150D01*
X14074706Y-24183150D02*
X14103277Y-24183150D01*
X14103277Y-24183150D02*
X14122325Y-24192674D01*
X14122325Y-24192674D02*
X14131849Y-24211722D01*
X14131849Y-24211722D02*
X14131849Y-24316484D01*
X14255658Y-24316484D02*
X14236611Y-24306960D01*
X14236611Y-24306960D02*
X14227087Y-24297436D01*
X14227087Y-24297436D02*
X14217563Y-24278388D01*
X14217563Y-24278388D02*
X14217563Y-24221246D01*
X14217563Y-24221246D02*
X14227087Y-24202198D01*
X14227087Y-24202198D02*
X14236611Y-24192674D01*
X14236611Y-24192674D02*
X14255658Y-24183150D01*
X14255658Y-24183150D02*
X14284230Y-24183150D01*
X14284230Y-24183150D02*
X14303277Y-24192674D01*
X14303277Y-24192674D02*
X14312801Y-24202198D01*
X14312801Y-24202198D02*
X14322325Y-24221246D01*
X14322325Y-24221246D02*
X14322325Y-24278388D01*
X14322325Y-24278388D02*
X14312801Y-24297436D01*
X14312801Y-24297436D02*
X14303277Y-24306960D01*
X14303277Y-24306960D02*
X14284230Y-24316484D01*
X14284230Y-24316484D02*
X14255658Y-24316484D01*
X14379468Y-24183150D02*
X14455658Y-24183150D01*
X14408039Y-24116484D02*
X14408039Y-24287912D01*
X14408039Y-24287912D02*
X14417563Y-24306960D01*
X14417563Y-24306960D02*
X14436611Y-24316484D01*
X14436611Y-24316484D02*
X14455658Y-24316484D01*
X14674706Y-24183150D02*
X14674706Y-24383150D01*
X14674706Y-24192674D02*
X14693753Y-24183150D01*
X14693753Y-24183150D02*
X14731849Y-24183150D01*
X14731849Y-24183150D02*
X14750896Y-24192674D01*
X14750896Y-24192674D02*
X14760420Y-24202198D01*
X14760420Y-24202198D02*
X14769944Y-24221246D01*
X14769944Y-24221246D02*
X14769944Y-24278388D01*
X14769944Y-24278388D02*
X14760420Y-24297436D01*
X14760420Y-24297436D02*
X14750896Y-24306960D01*
X14750896Y-24306960D02*
X14731849Y-24316484D01*
X14731849Y-24316484D02*
X14693753Y-24316484D01*
X14693753Y-24316484D02*
X14674706Y-24306960D01*
X14884230Y-24316484D02*
X14865182Y-24306960D01*
X14865182Y-24306960D02*
X14855658Y-24287912D01*
X14855658Y-24287912D02*
X14855658Y-24116484D01*
X15046134Y-24316484D02*
X15046134Y-24211722D01*
X15046134Y-24211722D02*
X15036611Y-24192674D01*
X15036611Y-24192674D02*
X15017563Y-24183150D01*
X15017563Y-24183150D02*
X14979468Y-24183150D01*
X14979468Y-24183150D02*
X14960420Y-24192674D01*
X15046134Y-24306960D02*
X15027087Y-24316484D01*
X15027087Y-24316484D02*
X14979468Y-24316484D01*
X14979468Y-24316484D02*
X14960420Y-24306960D01*
X14960420Y-24306960D02*
X14950896Y-24287912D01*
X14950896Y-24287912D02*
X14950896Y-24268865D01*
X14950896Y-24268865D02*
X14960420Y-24249817D01*
X14960420Y-24249817D02*
X14979468Y-24240293D01*
X14979468Y-24240293D02*
X15027087Y-24240293D01*
X15027087Y-24240293D02*
X15046134Y-24230769D01*
X15112801Y-24183150D02*
X15188992Y-24183150D01*
X15141373Y-24116484D02*
X15141373Y-24287912D01*
X15141373Y-24287912D02*
X15150896Y-24306960D01*
X15150896Y-24306960D02*
X15169944Y-24316484D01*
X15169944Y-24316484D02*
X15188992Y-24316484D01*
X15331849Y-24306960D02*
X15312801Y-24316484D01*
X15312801Y-24316484D02*
X15274706Y-24316484D01*
X15274706Y-24316484D02*
X15255658Y-24306960D01*
X15255658Y-24306960D02*
X15246134Y-24287912D01*
X15246134Y-24287912D02*
X15246134Y-24211722D01*
X15246134Y-24211722D02*
X15255658Y-24192674D01*
X15255658Y-24192674D02*
X15274706Y-24183150D01*
X15274706Y-24183150D02*
X15312801Y-24183150D01*
X15312801Y-24183150D02*
X15331849Y-24192674D01*
X15331849Y-24192674D02*
X15341373Y-24211722D01*
X15341373Y-24211722D02*
X15341373Y-24230769D01*
X15341373Y-24230769D02*
X15246134Y-24249817D01*
X15512801Y-24316484D02*
X15512801Y-24116484D01*
X15512801Y-24306960D02*
X15493754Y-24316484D01*
X15493754Y-24316484D02*
X15455658Y-24316484D01*
X15455658Y-24316484D02*
X15436611Y-24306960D01*
X15436611Y-24306960D02*
X15427087Y-24297436D01*
X15427087Y-24297436D02*
X15417563Y-24278388D01*
X15417563Y-24278388D02*
X15417563Y-24221246D01*
X15417563Y-24221246D02*
X15427087Y-24202198D01*
X15427087Y-24202198D02*
X15436611Y-24192674D01*
X15436611Y-24192674D02*
X15455658Y-24183150D01*
X15455658Y-24183150D02*
X15493754Y-24183150D01*
X15493754Y-24183150D02*
X15512801Y-24192674D01*
X15588992Y-24392674D02*
X15598515Y-24383150D01*
X15598515Y-24383150D02*
X15617563Y-24354579D01*
X15617563Y-24354579D02*
X15627087Y-24335531D01*
X15627087Y-24335531D02*
X15636611Y-24306960D01*
X15636611Y-24306960D02*
X15646134Y-24259341D01*
X15646134Y-24259341D02*
X15646134Y-24221246D01*
X15646134Y-24221246D02*
X15636611Y-24173627D01*
X15636611Y-24173627D02*
X15627087Y-24145055D01*
X15627087Y-24145055D02*
X15617563Y-24126008D01*
X15617563Y-24126008D02*
X15598515Y-24097436D01*
X15598515Y-24097436D02*
X15588992Y-24087912D01*
M02*
