%TF.GenerationSoftware,KiCad,Pcbnew,8.0.3-8.0.3-0~ubuntu22.04.1*%
%TF.CreationDate,2024-07-10T15:47:05+03:00*%
%TF.ProjectId,supply,73757070-6c79-42e6-9b69-6361645f7063,rev?*%
%TF.SameCoordinates,Original*%
%TF.FileFunction,Legend,Bot*%
%TF.FilePolarity,Positive*%
%FSLAX46Y46*%
G04 Gerber Fmt 4.6, Leading zero omitted, Abs format (unit mm)*
G04 Created by KiCad (PCBNEW 8.0.3-8.0.3-0~ubuntu22.04.1) date 2024-07-10 15:47:05*
%MOMM*%
%LPD*%
G01*
G04 APERTURE LIST*
%ADD10C,0.150000*%
%ADD11C,0.120000*%
G04 APERTURE END LIST*
D10*
X64410839Y-90922200D02*
X64267982Y-90969819D01*
X64267982Y-90969819D02*
X64029887Y-90969819D01*
X64029887Y-90969819D02*
X63934649Y-90922200D01*
X63934649Y-90922200D02*
X63887030Y-90874580D01*
X63887030Y-90874580D02*
X63839411Y-90779342D01*
X63839411Y-90779342D02*
X63839411Y-90684104D01*
X63839411Y-90684104D02*
X63887030Y-90588866D01*
X63887030Y-90588866D02*
X63934649Y-90541247D01*
X63934649Y-90541247D02*
X64029887Y-90493628D01*
X64029887Y-90493628D02*
X64220363Y-90446009D01*
X64220363Y-90446009D02*
X64315601Y-90398390D01*
X64315601Y-90398390D02*
X64363220Y-90350771D01*
X64363220Y-90350771D02*
X64410839Y-90255533D01*
X64410839Y-90255533D02*
X64410839Y-90160295D01*
X64410839Y-90160295D02*
X64363220Y-90065057D01*
X64363220Y-90065057D02*
X64315601Y-90017438D01*
X64315601Y-90017438D02*
X64220363Y-89969819D01*
X64220363Y-89969819D02*
X63982268Y-89969819D01*
X63982268Y-89969819D02*
X63839411Y-90017438D01*
X62982268Y-90303152D02*
X62982268Y-90969819D01*
X63410839Y-90303152D02*
X63410839Y-90826961D01*
X63410839Y-90826961D02*
X63363220Y-90922200D01*
X63363220Y-90922200D02*
X63267982Y-90969819D01*
X63267982Y-90969819D02*
X63125125Y-90969819D01*
X63125125Y-90969819D02*
X63029887Y-90922200D01*
X63029887Y-90922200D02*
X62982268Y-90874580D01*
X62506077Y-90303152D02*
X62506077Y-91303152D01*
X62506077Y-90350771D02*
X62410839Y-90303152D01*
X62410839Y-90303152D02*
X62220363Y-90303152D01*
X62220363Y-90303152D02*
X62125125Y-90350771D01*
X62125125Y-90350771D02*
X62077506Y-90398390D01*
X62077506Y-90398390D02*
X62029887Y-90493628D01*
X62029887Y-90493628D02*
X62029887Y-90779342D01*
X62029887Y-90779342D02*
X62077506Y-90874580D01*
X62077506Y-90874580D02*
X62125125Y-90922200D01*
X62125125Y-90922200D02*
X62220363Y-90969819D01*
X62220363Y-90969819D02*
X62410839Y-90969819D01*
X62410839Y-90969819D02*
X62506077Y-90922200D01*
X61601315Y-90303152D02*
X61601315Y-91303152D01*
X61601315Y-90350771D02*
X61506077Y-90303152D01*
X61506077Y-90303152D02*
X61315601Y-90303152D01*
X61315601Y-90303152D02*
X61220363Y-90350771D01*
X61220363Y-90350771D02*
X61172744Y-90398390D01*
X61172744Y-90398390D02*
X61125125Y-90493628D01*
X61125125Y-90493628D02*
X61125125Y-90779342D01*
X61125125Y-90779342D02*
X61172744Y-90874580D01*
X61172744Y-90874580D02*
X61220363Y-90922200D01*
X61220363Y-90922200D02*
X61315601Y-90969819D01*
X61315601Y-90969819D02*
X61506077Y-90969819D01*
X61506077Y-90969819D02*
X61601315Y-90922200D01*
X60553696Y-90969819D02*
X60648934Y-90922200D01*
X60648934Y-90922200D02*
X60696553Y-90826961D01*
X60696553Y-90826961D02*
X60696553Y-89969819D01*
X60267981Y-90303152D02*
X60029886Y-90969819D01*
X59791791Y-90303152D02*
X60029886Y-90969819D01*
X60029886Y-90969819D02*
X60125124Y-91207914D01*
X60125124Y-91207914D02*
X60172743Y-91255533D01*
X60172743Y-91255533D02*
X60267981Y-91303152D01*
X58744171Y-90303152D02*
X58506076Y-90969819D01*
X58506076Y-90969819D02*
X58267981Y-90303152D01*
X57934647Y-90065057D02*
X57887028Y-90017438D01*
X57887028Y-90017438D02*
X57791790Y-89969819D01*
X57791790Y-89969819D02*
X57553695Y-89969819D01*
X57553695Y-89969819D02*
X57458457Y-90017438D01*
X57458457Y-90017438D02*
X57410838Y-90065057D01*
X57410838Y-90065057D02*
X57363219Y-90160295D01*
X57363219Y-90160295D02*
X57363219Y-90255533D01*
X57363219Y-90255533D02*
X57410838Y-90398390D01*
X57410838Y-90398390D02*
X57982266Y-90969819D01*
X57982266Y-90969819D02*
X57363219Y-90969819D01*
X56934647Y-90874580D02*
X56887028Y-90922200D01*
X56887028Y-90922200D02*
X56934647Y-90969819D01*
X56934647Y-90969819D02*
X56982266Y-90922200D01*
X56982266Y-90922200D02*
X56934647Y-90874580D01*
X56934647Y-90874580D02*
X56934647Y-90969819D01*
X56267981Y-89969819D02*
X56172743Y-89969819D01*
X56172743Y-89969819D02*
X56077505Y-90017438D01*
X56077505Y-90017438D02*
X56029886Y-90065057D01*
X56029886Y-90065057D02*
X55982267Y-90160295D01*
X55982267Y-90160295D02*
X55934648Y-90350771D01*
X55934648Y-90350771D02*
X55934648Y-90588866D01*
X55934648Y-90588866D02*
X55982267Y-90779342D01*
X55982267Y-90779342D02*
X56029886Y-90874580D01*
X56029886Y-90874580D02*
X56077505Y-90922200D01*
X56077505Y-90922200D02*
X56172743Y-90969819D01*
X56172743Y-90969819D02*
X56267981Y-90969819D01*
X56267981Y-90969819D02*
X56363219Y-90922200D01*
X56363219Y-90922200D02*
X56410838Y-90874580D01*
X56410838Y-90874580D02*
X56458457Y-90779342D01*
X56458457Y-90779342D02*
X56506076Y-90588866D01*
X56506076Y-90588866D02*
X56506076Y-90350771D01*
X56506076Y-90350771D02*
X56458457Y-90160295D01*
X56458457Y-90160295D02*
X56410838Y-90065057D01*
X56410838Y-90065057D02*
X56363219Y-90017438D01*
X56363219Y-90017438D02*
X56267981Y-89969819D01*
X105242857Y-108359580D02*
X105290476Y-108407200D01*
X105290476Y-108407200D02*
X105433333Y-108454819D01*
X105433333Y-108454819D02*
X105528571Y-108454819D01*
X105528571Y-108454819D02*
X105671428Y-108407200D01*
X105671428Y-108407200D02*
X105766666Y-108311961D01*
X105766666Y-108311961D02*
X105814285Y-108216723D01*
X105814285Y-108216723D02*
X105861904Y-108026247D01*
X105861904Y-108026247D02*
X105861904Y-107883390D01*
X105861904Y-107883390D02*
X105814285Y-107692914D01*
X105814285Y-107692914D02*
X105766666Y-107597676D01*
X105766666Y-107597676D02*
X105671428Y-107502438D01*
X105671428Y-107502438D02*
X105528571Y-107454819D01*
X105528571Y-107454819D02*
X105433333Y-107454819D01*
X105433333Y-107454819D02*
X105290476Y-107502438D01*
X105290476Y-107502438D02*
X105242857Y-107550057D01*
X104385714Y-107788152D02*
X104385714Y-108454819D01*
X104623809Y-107407200D02*
X104861904Y-108121485D01*
X104861904Y-108121485D02*
X104242857Y-108121485D01*
X103909523Y-107550057D02*
X103861904Y-107502438D01*
X103861904Y-107502438D02*
X103766666Y-107454819D01*
X103766666Y-107454819D02*
X103528571Y-107454819D01*
X103528571Y-107454819D02*
X103433333Y-107502438D01*
X103433333Y-107502438D02*
X103385714Y-107550057D01*
X103385714Y-107550057D02*
X103338095Y-107645295D01*
X103338095Y-107645295D02*
X103338095Y-107740533D01*
X103338095Y-107740533D02*
X103385714Y-107883390D01*
X103385714Y-107883390D02*
X103957142Y-108454819D01*
X103957142Y-108454819D02*
X103338095Y-108454819D01*
X149442857Y-187754819D02*
X149776190Y-187278628D01*
X150014285Y-187754819D02*
X150014285Y-186754819D01*
X150014285Y-186754819D02*
X149633333Y-186754819D01*
X149633333Y-186754819D02*
X149538095Y-186802438D01*
X149538095Y-186802438D02*
X149490476Y-186850057D01*
X149490476Y-186850057D02*
X149442857Y-186945295D01*
X149442857Y-186945295D02*
X149442857Y-187088152D01*
X149442857Y-187088152D02*
X149490476Y-187183390D01*
X149490476Y-187183390D02*
X149538095Y-187231009D01*
X149538095Y-187231009D02*
X149633333Y-187278628D01*
X149633333Y-187278628D02*
X150014285Y-187278628D01*
X148490476Y-187754819D02*
X149061904Y-187754819D01*
X148776190Y-187754819D02*
X148776190Y-186754819D01*
X148776190Y-186754819D02*
X148871428Y-186897676D01*
X148871428Y-186897676D02*
X148966666Y-186992914D01*
X148966666Y-186992914D02*
X149061904Y-187040533D01*
X147919047Y-187183390D02*
X148014285Y-187135771D01*
X148014285Y-187135771D02*
X148061904Y-187088152D01*
X148061904Y-187088152D02*
X148109523Y-186992914D01*
X148109523Y-186992914D02*
X148109523Y-186945295D01*
X148109523Y-186945295D02*
X148061904Y-186850057D01*
X148061904Y-186850057D02*
X148014285Y-186802438D01*
X148014285Y-186802438D02*
X147919047Y-186754819D01*
X147919047Y-186754819D02*
X147728571Y-186754819D01*
X147728571Y-186754819D02*
X147633333Y-186802438D01*
X147633333Y-186802438D02*
X147585714Y-186850057D01*
X147585714Y-186850057D02*
X147538095Y-186945295D01*
X147538095Y-186945295D02*
X147538095Y-186992914D01*
X147538095Y-186992914D02*
X147585714Y-187088152D01*
X147585714Y-187088152D02*
X147633333Y-187135771D01*
X147633333Y-187135771D02*
X147728571Y-187183390D01*
X147728571Y-187183390D02*
X147919047Y-187183390D01*
X147919047Y-187183390D02*
X148014285Y-187231009D01*
X148014285Y-187231009D02*
X148061904Y-187278628D01*
X148061904Y-187278628D02*
X148109523Y-187373866D01*
X148109523Y-187373866D02*
X148109523Y-187564342D01*
X148109523Y-187564342D02*
X148061904Y-187659580D01*
X148061904Y-187659580D02*
X148014285Y-187707200D01*
X148014285Y-187707200D02*
X147919047Y-187754819D01*
X147919047Y-187754819D02*
X147728571Y-187754819D01*
X147728571Y-187754819D02*
X147633333Y-187707200D01*
X147633333Y-187707200D02*
X147585714Y-187659580D01*
X147585714Y-187659580D02*
X147538095Y-187564342D01*
X147538095Y-187564342D02*
X147538095Y-187373866D01*
X147538095Y-187373866D02*
X147585714Y-187278628D01*
X147585714Y-187278628D02*
X147633333Y-187231009D01*
X147633333Y-187231009D02*
X147728571Y-187183390D01*
X194442857Y-118359580D02*
X194490476Y-118407200D01*
X194490476Y-118407200D02*
X194633333Y-118454819D01*
X194633333Y-118454819D02*
X194728571Y-118454819D01*
X194728571Y-118454819D02*
X194871428Y-118407200D01*
X194871428Y-118407200D02*
X194966666Y-118311961D01*
X194966666Y-118311961D02*
X195014285Y-118216723D01*
X195014285Y-118216723D02*
X195061904Y-118026247D01*
X195061904Y-118026247D02*
X195061904Y-117883390D01*
X195061904Y-117883390D02*
X195014285Y-117692914D01*
X195014285Y-117692914D02*
X194966666Y-117597676D01*
X194966666Y-117597676D02*
X194871428Y-117502438D01*
X194871428Y-117502438D02*
X194728571Y-117454819D01*
X194728571Y-117454819D02*
X194633333Y-117454819D01*
X194633333Y-117454819D02*
X194490476Y-117502438D01*
X194490476Y-117502438D02*
X194442857Y-117550057D01*
X194109523Y-117454819D02*
X193490476Y-117454819D01*
X193490476Y-117454819D02*
X193823809Y-117835771D01*
X193823809Y-117835771D02*
X193680952Y-117835771D01*
X193680952Y-117835771D02*
X193585714Y-117883390D01*
X193585714Y-117883390D02*
X193538095Y-117931009D01*
X193538095Y-117931009D02*
X193490476Y-118026247D01*
X193490476Y-118026247D02*
X193490476Y-118264342D01*
X193490476Y-118264342D02*
X193538095Y-118359580D01*
X193538095Y-118359580D02*
X193585714Y-118407200D01*
X193585714Y-118407200D02*
X193680952Y-118454819D01*
X193680952Y-118454819D02*
X193966666Y-118454819D01*
X193966666Y-118454819D02*
X194061904Y-118407200D01*
X194061904Y-118407200D02*
X194109523Y-118359580D01*
X192919047Y-117883390D02*
X193014285Y-117835771D01*
X193014285Y-117835771D02*
X193061904Y-117788152D01*
X193061904Y-117788152D02*
X193109523Y-117692914D01*
X193109523Y-117692914D02*
X193109523Y-117645295D01*
X193109523Y-117645295D02*
X193061904Y-117550057D01*
X193061904Y-117550057D02*
X193014285Y-117502438D01*
X193014285Y-117502438D02*
X192919047Y-117454819D01*
X192919047Y-117454819D02*
X192728571Y-117454819D01*
X192728571Y-117454819D02*
X192633333Y-117502438D01*
X192633333Y-117502438D02*
X192585714Y-117550057D01*
X192585714Y-117550057D02*
X192538095Y-117645295D01*
X192538095Y-117645295D02*
X192538095Y-117692914D01*
X192538095Y-117692914D02*
X192585714Y-117788152D01*
X192585714Y-117788152D02*
X192633333Y-117835771D01*
X192633333Y-117835771D02*
X192728571Y-117883390D01*
X192728571Y-117883390D02*
X192919047Y-117883390D01*
X192919047Y-117883390D02*
X193014285Y-117931009D01*
X193014285Y-117931009D02*
X193061904Y-117978628D01*
X193061904Y-117978628D02*
X193109523Y-118073866D01*
X193109523Y-118073866D02*
X193109523Y-118264342D01*
X193109523Y-118264342D02*
X193061904Y-118359580D01*
X193061904Y-118359580D02*
X193014285Y-118407200D01*
X193014285Y-118407200D02*
X192919047Y-118454819D01*
X192919047Y-118454819D02*
X192728571Y-118454819D01*
X192728571Y-118454819D02*
X192633333Y-118407200D01*
X192633333Y-118407200D02*
X192585714Y-118359580D01*
X192585714Y-118359580D02*
X192538095Y-118264342D01*
X192538095Y-118264342D02*
X192538095Y-118073866D01*
X192538095Y-118073866D02*
X192585714Y-117978628D01*
X192585714Y-117978628D02*
X192633333Y-117931009D01*
X192633333Y-117931009D02*
X192728571Y-117883390D01*
X66638094Y-175354819D02*
X66638094Y-174354819D01*
X66638094Y-174354819D02*
X66399999Y-174354819D01*
X66399999Y-174354819D02*
X66257142Y-174402438D01*
X66257142Y-174402438D02*
X66161904Y-174497676D01*
X66161904Y-174497676D02*
X66114285Y-174592914D01*
X66114285Y-174592914D02*
X66066666Y-174783390D01*
X66066666Y-174783390D02*
X66066666Y-174926247D01*
X66066666Y-174926247D02*
X66114285Y-175116723D01*
X66114285Y-175116723D02*
X66161904Y-175211961D01*
X66161904Y-175211961D02*
X66257142Y-175307200D01*
X66257142Y-175307200D02*
X66399999Y-175354819D01*
X66399999Y-175354819D02*
X66638094Y-175354819D01*
X65733332Y-174354819D02*
X65114285Y-174354819D01*
X65114285Y-174354819D02*
X65447618Y-174735771D01*
X65447618Y-174735771D02*
X65304761Y-174735771D01*
X65304761Y-174735771D02*
X65209523Y-174783390D01*
X65209523Y-174783390D02*
X65161904Y-174831009D01*
X65161904Y-174831009D02*
X65114285Y-174926247D01*
X65114285Y-174926247D02*
X65114285Y-175164342D01*
X65114285Y-175164342D02*
X65161904Y-175259580D01*
X65161904Y-175259580D02*
X65209523Y-175307200D01*
X65209523Y-175307200D02*
X65304761Y-175354819D01*
X65304761Y-175354819D02*
X65590475Y-175354819D01*
X65590475Y-175354819D02*
X65685713Y-175307200D01*
X65685713Y-175307200D02*
X65733332Y-175259580D01*
X196242857Y-123459580D02*
X196290476Y-123507200D01*
X196290476Y-123507200D02*
X196433333Y-123554819D01*
X196433333Y-123554819D02*
X196528571Y-123554819D01*
X196528571Y-123554819D02*
X196671428Y-123507200D01*
X196671428Y-123507200D02*
X196766666Y-123411961D01*
X196766666Y-123411961D02*
X196814285Y-123316723D01*
X196814285Y-123316723D02*
X196861904Y-123126247D01*
X196861904Y-123126247D02*
X196861904Y-122983390D01*
X196861904Y-122983390D02*
X196814285Y-122792914D01*
X196814285Y-122792914D02*
X196766666Y-122697676D01*
X196766666Y-122697676D02*
X196671428Y-122602438D01*
X196671428Y-122602438D02*
X196528571Y-122554819D01*
X196528571Y-122554819D02*
X196433333Y-122554819D01*
X196433333Y-122554819D02*
X196290476Y-122602438D01*
X196290476Y-122602438D02*
X196242857Y-122650057D01*
X195909523Y-122554819D02*
X195290476Y-122554819D01*
X195290476Y-122554819D02*
X195623809Y-122935771D01*
X195623809Y-122935771D02*
X195480952Y-122935771D01*
X195480952Y-122935771D02*
X195385714Y-122983390D01*
X195385714Y-122983390D02*
X195338095Y-123031009D01*
X195338095Y-123031009D02*
X195290476Y-123126247D01*
X195290476Y-123126247D02*
X195290476Y-123364342D01*
X195290476Y-123364342D02*
X195338095Y-123459580D01*
X195338095Y-123459580D02*
X195385714Y-123507200D01*
X195385714Y-123507200D02*
X195480952Y-123554819D01*
X195480952Y-123554819D02*
X195766666Y-123554819D01*
X195766666Y-123554819D02*
X195861904Y-123507200D01*
X195861904Y-123507200D02*
X195909523Y-123459580D01*
X194433333Y-122554819D02*
X194623809Y-122554819D01*
X194623809Y-122554819D02*
X194719047Y-122602438D01*
X194719047Y-122602438D02*
X194766666Y-122650057D01*
X194766666Y-122650057D02*
X194861904Y-122792914D01*
X194861904Y-122792914D02*
X194909523Y-122983390D01*
X194909523Y-122983390D02*
X194909523Y-123364342D01*
X194909523Y-123364342D02*
X194861904Y-123459580D01*
X194861904Y-123459580D02*
X194814285Y-123507200D01*
X194814285Y-123507200D02*
X194719047Y-123554819D01*
X194719047Y-123554819D02*
X194528571Y-123554819D01*
X194528571Y-123554819D02*
X194433333Y-123507200D01*
X194433333Y-123507200D02*
X194385714Y-123459580D01*
X194385714Y-123459580D02*
X194338095Y-123364342D01*
X194338095Y-123364342D02*
X194338095Y-123126247D01*
X194338095Y-123126247D02*
X194385714Y-123031009D01*
X194385714Y-123031009D02*
X194433333Y-122983390D01*
X194433333Y-122983390D02*
X194528571Y-122935771D01*
X194528571Y-122935771D02*
X194719047Y-122935771D01*
X194719047Y-122935771D02*
X194814285Y-122983390D01*
X194814285Y-122983390D02*
X194861904Y-123031009D01*
X194861904Y-123031009D02*
X194909523Y-123126247D01*
X202342857Y-114829580D02*
X202390476Y-114877200D01*
X202390476Y-114877200D02*
X202533333Y-114924819D01*
X202533333Y-114924819D02*
X202628571Y-114924819D01*
X202628571Y-114924819D02*
X202771428Y-114877200D01*
X202771428Y-114877200D02*
X202866666Y-114781961D01*
X202866666Y-114781961D02*
X202914285Y-114686723D01*
X202914285Y-114686723D02*
X202961904Y-114496247D01*
X202961904Y-114496247D02*
X202961904Y-114353390D01*
X202961904Y-114353390D02*
X202914285Y-114162914D01*
X202914285Y-114162914D02*
X202866666Y-114067676D01*
X202866666Y-114067676D02*
X202771428Y-113972438D01*
X202771428Y-113972438D02*
X202628571Y-113924819D01*
X202628571Y-113924819D02*
X202533333Y-113924819D01*
X202533333Y-113924819D02*
X202390476Y-113972438D01*
X202390476Y-113972438D02*
X202342857Y-114020057D01*
X202009523Y-113924819D02*
X201390476Y-113924819D01*
X201390476Y-113924819D02*
X201723809Y-114305771D01*
X201723809Y-114305771D02*
X201580952Y-114305771D01*
X201580952Y-114305771D02*
X201485714Y-114353390D01*
X201485714Y-114353390D02*
X201438095Y-114401009D01*
X201438095Y-114401009D02*
X201390476Y-114496247D01*
X201390476Y-114496247D02*
X201390476Y-114734342D01*
X201390476Y-114734342D02*
X201438095Y-114829580D01*
X201438095Y-114829580D02*
X201485714Y-114877200D01*
X201485714Y-114877200D02*
X201580952Y-114924819D01*
X201580952Y-114924819D02*
X201866666Y-114924819D01*
X201866666Y-114924819D02*
X201961904Y-114877200D01*
X201961904Y-114877200D02*
X202009523Y-114829580D01*
X201057142Y-113924819D02*
X200390476Y-113924819D01*
X200390476Y-113924819D02*
X200819047Y-114924819D01*
X75742857Y-143659580D02*
X75790476Y-143707200D01*
X75790476Y-143707200D02*
X75933333Y-143754819D01*
X75933333Y-143754819D02*
X76028571Y-143754819D01*
X76028571Y-143754819D02*
X76171428Y-143707200D01*
X76171428Y-143707200D02*
X76266666Y-143611961D01*
X76266666Y-143611961D02*
X76314285Y-143516723D01*
X76314285Y-143516723D02*
X76361904Y-143326247D01*
X76361904Y-143326247D02*
X76361904Y-143183390D01*
X76361904Y-143183390D02*
X76314285Y-142992914D01*
X76314285Y-142992914D02*
X76266666Y-142897676D01*
X76266666Y-142897676D02*
X76171428Y-142802438D01*
X76171428Y-142802438D02*
X76028571Y-142754819D01*
X76028571Y-142754819D02*
X75933333Y-142754819D01*
X75933333Y-142754819D02*
X75790476Y-142802438D01*
X75790476Y-142802438D02*
X75742857Y-142850057D01*
X74790476Y-143754819D02*
X75361904Y-143754819D01*
X75076190Y-143754819D02*
X75076190Y-142754819D01*
X75076190Y-142754819D02*
X75171428Y-142897676D01*
X75171428Y-142897676D02*
X75266666Y-142992914D01*
X75266666Y-142992914D02*
X75361904Y-143040533D01*
X74409523Y-142850057D02*
X74361904Y-142802438D01*
X74361904Y-142802438D02*
X74266666Y-142754819D01*
X74266666Y-142754819D02*
X74028571Y-142754819D01*
X74028571Y-142754819D02*
X73933333Y-142802438D01*
X73933333Y-142802438D02*
X73885714Y-142850057D01*
X73885714Y-142850057D02*
X73838095Y-142945295D01*
X73838095Y-142945295D02*
X73838095Y-143040533D01*
X73838095Y-143040533D02*
X73885714Y-143183390D01*
X73885714Y-143183390D02*
X74457142Y-143754819D01*
X74457142Y-143754819D02*
X73838095Y-143754819D01*
X135342857Y-156659580D02*
X135390476Y-156707200D01*
X135390476Y-156707200D02*
X135533333Y-156754819D01*
X135533333Y-156754819D02*
X135628571Y-156754819D01*
X135628571Y-156754819D02*
X135771428Y-156707200D01*
X135771428Y-156707200D02*
X135866666Y-156611961D01*
X135866666Y-156611961D02*
X135914285Y-156516723D01*
X135914285Y-156516723D02*
X135961904Y-156326247D01*
X135961904Y-156326247D02*
X135961904Y-156183390D01*
X135961904Y-156183390D02*
X135914285Y-155992914D01*
X135914285Y-155992914D02*
X135866666Y-155897676D01*
X135866666Y-155897676D02*
X135771428Y-155802438D01*
X135771428Y-155802438D02*
X135628571Y-155754819D01*
X135628571Y-155754819D02*
X135533333Y-155754819D01*
X135533333Y-155754819D02*
X135390476Y-155802438D01*
X135390476Y-155802438D02*
X135342857Y-155850057D01*
X134390476Y-156754819D02*
X134961904Y-156754819D01*
X134676190Y-156754819D02*
X134676190Y-155754819D01*
X134676190Y-155754819D02*
X134771428Y-155897676D01*
X134771428Y-155897676D02*
X134866666Y-155992914D01*
X134866666Y-155992914D02*
X134961904Y-156040533D01*
X134057142Y-155754819D02*
X133390476Y-155754819D01*
X133390476Y-155754819D02*
X133819047Y-156754819D01*
X105366666Y-155354819D02*
X105699999Y-154878628D01*
X105938094Y-155354819D02*
X105938094Y-154354819D01*
X105938094Y-154354819D02*
X105557142Y-154354819D01*
X105557142Y-154354819D02*
X105461904Y-154402438D01*
X105461904Y-154402438D02*
X105414285Y-154450057D01*
X105414285Y-154450057D02*
X105366666Y-154545295D01*
X105366666Y-154545295D02*
X105366666Y-154688152D01*
X105366666Y-154688152D02*
X105414285Y-154783390D01*
X105414285Y-154783390D02*
X105461904Y-154831009D01*
X105461904Y-154831009D02*
X105557142Y-154878628D01*
X105557142Y-154878628D02*
X105938094Y-154878628D01*
X104461904Y-154354819D02*
X104938094Y-154354819D01*
X104938094Y-154354819D02*
X104985713Y-154831009D01*
X104985713Y-154831009D02*
X104938094Y-154783390D01*
X104938094Y-154783390D02*
X104842856Y-154735771D01*
X104842856Y-154735771D02*
X104604761Y-154735771D01*
X104604761Y-154735771D02*
X104509523Y-154783390D01*
X104509523Y-154783390D02*
X104461904Y-154831009D01*
X104461904Y-154831009D02*
X104414285Y-154926247D01*
X104414285Y-154926247D02*
X104414285Y-155164342D01*
X104414285Y-155164342D02*
X104461904Y-155259580D01*
X104461904Y-155259580D02*
X104509523Y-155307200D01*
X104509523Y-155307200D02*
X104604761Y-155354819D01*
X104604761Y-155354819D02*
X104842856Y-155354819D01*
X104842856Y-155354819D02*
X104938094Y-155307200D01*
X104938094Y-155307200D02*
X104985713Y-155259580D01*
X201290833Y-103354819D02*
X201290833Y-104069104D01*
X201290833Y-104069104D02*
X201338452Y-104211961D01*
X201338452Y-104211961D02*
X201433690Y-104307200D01*
X201433690Y-104307200D02*
X201576547Y-104354819D01*
X201576547Y-104354819D02*
X201671785Y-104354819D01*
X200814642Y-104354819D02*
X200814642Y-103354819D01*
X200814642Y-103354819D02*
X200433690Y-103354819D01*
X200433690Y-103354819D02*
X200338452Y-103402438D01*
X200338452Y-103402438D02*
X200290833Y-103450057D01*
X200290833Y-103450057D02*
X200243214Y-103545295D01*
X200243214Y-103545295D02*
X200243214Y-103688152D01*
X200243214Y-103688152D02*
X200290833Y-103783390D01*
X200290833Y-103783390D02*
X200338452Y-103831009D01*
X200338452Y-103831009D02*
X200433690Y-103878628D01*
X200433690Y-103878628D02*
X200814642Y-103878628D01*
X199290833Y-104354819D02*
X199862261Y-104354819D01*
X199576547Y-104354819D02*
X199576547Y-103354819D01*
X199576547Y-103354819D02*
X199671785Y-103497676D01*
X199671785Y-103497676D02*
X199767023Y-103592914D01*
X199767023Y-103592914D02*
X199862261Y-103640533D01*
X190642857Y-119059580D02*
X190690476Y-119107200D01*
X190690476Y-119107200D02*
X190833333Y-119154819D01*
X190833333Y-119154819D02*
X190928571Y-119154819D01*
X190928571Y-119154819D02*
X191071428Y-119107200D01*
X191071428Y-119107200D02*
X191166666Y-119011961D01*
X191166666Y-119011961D02*
X191214285Y-118916723D01*
X191214285Y-118916723D02*
X191261904Y-118726247D01*
X191261904Y-118726247D02*
X191261904Y-118583390D01*
X191261904Y-118583390D02*
X191214285Y-118392914D01*
X191214285Y-118392914D02*
X191166666Y-118297676D01*
X191166666Y-118297676D02*
X191071428Y-118202438D01*
X191071428Y-118202438D02*
X190928571Y-118154819D01*
X190928571Y-118154819D02*
X190833333Y-118154819D01*
X190833333Y-118154819D02*
X190690476Y-118202438D01*
X190690476Y-118202438D02*
X190642857Y-118250057D01*
X190309523Y-118154819D02*
X189690476Y-118154819D01*
X189690476Y-118154819D02*
X190023809Y-118535771D01*
X190023809Y-118535771D02*
X189880952Y-118535771D01*
X189880952Y-118535771D02*
X189785714Y-118583390D01*
X189785714Y-118583390D02*
X189738095Y-118631009D01*
X189738095Y-118631009D02*
X189690476Y-118726247D01*
X189690476Y-118726247D02*
X189690476Y-118964342D01*
X189690476Y-118964342D02*
X189738095Y-119059580D01*
X189738095Y-119059580D02*
X189785714Y-119107200D01*
X189785714Y-119107200D02*
X189880952Y-119154819D01*
X189880952Y-119154819D02*
X190166666Y-119154819D01*
X190166666Y-119154819D02*
X190261904Y-119107200D01*
X190261904Y-119107200D02*
X190309523Y-119059580D01*
X189357142Y-118154819D02*
X188738095Y-118154819D01*
X188738095Y-118154819D02*
X189071428Y-118535771D01*
X189071428Y-118535771D02*
X188928571Y-118535771D01*
X188928571Y-118535771D02*
X188833333Y-118583390D01*
X188833333Y-118583390D02*
X188785714Y-118631009D01*
X188785714Y-118631009D02*
X188738095Y-118726247D01*
X188738095Y-118726247D02*
X188738095Y-118964342D01*
X188738095Y-118964342D02*
X188785714Y-119059580D01*
X188785714Y-119059580D02*
X188833333Y-119107200D01*
X188833333Y-119107200D02*
X188928571Y-119154819D01*
X188928571Y-119154819D02*
X189214285Y-119154819D01*
X189214285Y-119154819D02*
X189309523Y-119107200D01*
X189309523Y-119107200D02*
X189357142Y-119059580D01*
X164642857Y-142759580D02*
X164690476Y-142807200D01*
X164690476Y-142807200D02*
X164833333Y-142854819D01*
X164833333Y-142854819D02*
X164928571Y-142854819D01*
X164928571Y-142854819D02*
X165071428Y-142807200D01*
X165071428Y-142807200D02*
X165166666Y-142711961D01*
X165166666Y-142711961D02*
X165214285Y-142616723D01*
X165214285Y-142616723D02*
X165261904Y-142426247D01*
X165261904Y-142426247D02*
X165261904Y-142283390D01*
X165261904Y-142283390D02*
X165214285Y-142092914D01*
X165214285Y-142092914D02*
X165166666Y-141997676D01*
X165166666Y-141997676D02*
X165071428Y-141902438D01*
X165071428Y-141902438D02*
X164928571Y-141854819D01*
X164928571Y-141854819D02*
X164833333Y-141854819D01*
X164833333Y-141854819D02*
X164690476Y-141902438D01*
X164690476Y-141902438D02*
X164642857Y-141950057D01*
X163738095Y-141854819D02*
X164214285Y-141854819D01*
X164214285Y-141854819D02*
X164261904Y-142331009D01*
X164261904Y-142331009D02*
X164214285Y-142283390D01*
X164214285Y-142283390D02*
X164119047Y-142235771D01*
X164119047Y-142235771D02*
X163880952Y-142235771D01*
X163880952Y-142235771D02*
X163785714Y-142283390D01*
X163785714Y-142283390D02*
X163738095Y-142331009D01*
X163738095Y-142331009D02*
X163690476Y-142426247D01*
X163690476Y-142426247D02*
X163690476Y-142664342D01*
X163690476Y-142664342D02*
X163738095Y-142759580D01*
X163738095Y-142759580D02*
X163785714Y-142807200D01*
X163785714Y-142807200D02*
X163880952Y-142854819D01*
X163880952Y-142854819D02*
X164119047Y-142854819D01*
X164119047Y-142854819D02*
X164214285Y-142807200D01*
X164214285Y-142807200D02*
X164261904Y-142759580D01*
X162833333Y-142188152D02*
X162833333Y-142854819D01*
X163071428Y-141807200D02*
X163309523Y-142521485D01*
X163309523Y-142521485D02*
X162690476Y-142521485D01*
X109142857Y-149059580D02*
X109190476Y-149107200D01*
X109190476Y-149107200D02*
X109333333Y-149154819D01*
X109333333Y-149154819D02*
X109428571Y-149154819D01*
X109428571Y-149154819D02*
X109571428Y-149107200D01*
X109571428Y-149107200D02*
X109666666Y-149011961D01*
X109666666Y-149011961D02*
X109714285Y-148916723D01*
X109714285Y-148916723D02*
X109761904Y-148726247D01*
X109761904Y-148726247D02*
X109761904Y-148583390D01*
X109761904Y-148583390D02*
X109714285Y-148392914D01*
X109714285Y-148392914D02*
X109666666Y-148297676D01*
X109666666Y-148297676D02*
X109571428Y-148202438D01*
X109571428Y-148202438D02*
X109428571Y-148154819D01*
X109428571Y-148154819D02*
X109333333Y-148154819D01*
X109333333Y-148154819D02*
X109190476Y-148202438D01*
X109190476Y-148202438D02*
X109142857Y-148250057D01*
X108190476Y-149154819D02*
X108761904Y-149154819D01*
X108476190Y-149154819D02*
X108476190Y-148154819D01*
X108476190Y-148154819D02*
X108571428Y-148297676D01*
X108571428Y-148297676D02*
X108666666Y-148392914D01*
X108666666Y-148392914D02*
X108761904Y-148440533D01*
X107571428Y-148154819D02*
X107476190Y-148154819D01*
X107476190Y-148154819D02*
X107380952Y-148202438D01*
X107380952Y-148202438D02*
X107333333Y-148250057D01*
X107333333Y-148250057D02*
X107285714Y-148345295D01*
X107285714Y-148345295D02*
X107238095Y-148535771D01*
X107238095Y-148535771D02*
X107238095Y-148773866D01*
X107238095Y-148773866D02*
X107285714Y-148964342D01*
X107285714Y-148964342D02*
X107333333Y-149059580D01*
X107333333Y-149059580D02*
X107380952Y-149107200D01*
X107380952Y-149107200D02*
X107476190Y-149154819D01*
X107476190Y-149154819D02*
X107571428Y-149154819D01*
X107571428Y-149154819D02*
X107666666Y-149107200D01*
X107666666Y-149107200D02*
X107714285Y-149059580D01*
X107714285Y-149059580D02*
X107761904Y-148964342D01*
X107761904Y-148964342D02*
X107809523Y-148773866D01*
X107809523Y-148773866D02*
X107809523Y-148535771D01*
X107809523Y-148535771D02*
X107761904Y-148345295D01*
X107761904Y-148345295D02*
X107714285Y-148250057D01*
X107714285Y-148250057D02*
X107666666Y-148202438D01*
X107666666Y-148202438D02*
X107571428Y-148154819D01*
X191366666Y-131159580D02*
X191414285Y-131207200D01*
X191414285Y-131207200D02*
X191557142Y-131254819D01*
X191557142Y-131254819D02*
X191652380Y-131254819D01*
X191652380Y-131254819D02*
X191795237Y-131207200D01*
X191795237Y-131207200D02*
X191890475Y-131111961D01*
X191890475Y-131111961D02*
X191938094Y-131016723D01*
X191938094Y-131016723D02*
X191985713Y-130826247D01*
X191985713Y-130826247D02*
X191985713Y-130683390D01*
X191985713Y-130683390D02*
X191938094Y-130492914D01*
X191938094Y-130492914D02*
X191890475Y-130397676D01*
X191890475Y-130397676D02*
X191795237Y-130302438D01*
X191795237Y-130302438D02*
X191652380Y-130254819D01*
X191652380Y-130254819D02*
X191557142Y-130254819D01*
X191557142Y-130254819D02*
X191414285Y-130302438D01*
X191414285Y-130302438D02*
X191366666Y-130350057D01*
X191033332Y-130254819D02*
X190366666Y-130254819D01*
X190366666Y-130254819D02*
X190795237Y-131254819D01*
X187442857Y-121559580D02*
X187490476Y-121607200D01*
X187490476Y-121607200D02*
X187633333Y-121654819D01*
X187633333Y-121654819D02*
X187728571Y-121654819D01*
X187728571Y-121654819D02*
X187871428Y-121607200D01*
X187871428Y-121607200D02*
X187966666Y-121511961D01*
X187966666Y-121511961D02*
X188014285Y-121416723D01*
X188014285Y-121416723D02*
X188061904Y-121226247D01*
X188061904Y-121226247D02*
X188061904Y-121083390D01*
X188061904Y-121083390D02*
X188014285Y-120892914D01*
X188014285Y-120892914D02*
X187966666Y-120797676D01*
X187966666Y-120797676D02*
X187871428Y-120702438D01*
X187871428Y-120702438D02*
X187728571Y-120654819D01*
X187728571Y-120654819D02*
X187633333Y-120654819D01*
X187633333Y-120654819D02*
X187490476Y-120702438D01*
X187490476Y-120702438D02*
X187442857Y-120750057D01*
X187109523Y-120654819D02*
X186490476Y-120654819D01*
X186490476Y-120654819D02*
X186823809Y-121035771D01*
X186823809Y-121035771D02*
X186680952Y-121035771D01*
X186680952Y-121035771D02*
X186585714Y-121083390D01*
X186585714Y-121083390D02*
X186538095Y-121131009D01*
X186538095Y-121131009D02*
X186490476Y-121226247D01*
X186490476Y-121226247D02*
X186490476Y-121464342D01*
X186490476Y-121464342D02*
X186538095Y-121559580D01*
X186538095Y-121559580D02*
X186585714Y-121607200D01*
X186585714Y-121607200D02*
X186680952Y-121654819D01*
X186680952Y-121654819D02*
X186966666Y-121654819D01*
X186966666Y-121654819D02*
X187061904Y-121607200D01*
X187061904Y-121607200D02*
X187109523Y-121559580D01*
X185633333Y-120988152D02*
X185633333Y-121654819D01*
X185871428Y-120607200D02*
X186109523Y-121321485D01*
X186109523Y-121321485D02*
X185490476Y-121321485D01*
X119361904Y-171854819D02*
X119361904Y-172664342D01*
X119361904Y-172664342D02*
X119314285Y-172759580D01*
X119314285Y-172759580D02*
X119266666Y-172807200D01*
X119266666Y-172807200D02*
X119171428Y-172854819D01*
X119171428Y-172854819D02*
X118980952Y-172854819D01*
X118980952Y-172854819D02*
X118885714Y-172807200D01*
X118885714Y-172807200D02*
X118838095Y-172759580D01*
X118838095Y-172759580D02*
X118790476Y-172664342D01*
X118790476Y-172664342D02*
X118790476Y-171854819D01*
X118266666Y-172854819D02*
X118076190Y-172854819D01*
X118076190Y-172854819D02*
X117980952Y-172807200D01*
X117980952Y-172807200D02*
X117933333Y-172759580D01*
X117933333Y-172759580D02*
X117838095Y-172616723D01*
X117838095Y-172616723D02*
X117790476Y-172426247D01*
X117790476Y-172426247D02*
X117790476Y-172045295D01*
X117790476Y-172045295D02*
X117838095Y-171950057D01*
X117838095Y-171950057D02*
X117885714Y-171902438D01*
X117885714Y-171902438D02*
X117980952Y-171854819D01*
X117980952Y-171854819D02*
X118171428Y-171854819D01*
X118171428Y-171854819D02*
X118266666Y-171902438D01*
X118266666Y-171902438D02*
X118314285Y-171950057D01*
X118314285Y-171950057D02*
X118361904Y-172045295D01*
X118361904Y-172045295D02*
X118361904Y-172283390D01*
X118361904Y-172283390D02*
X118314285Y-172378628D01*
X118314285Y-172378628D02*
X118266666Y-172426247D01*
X118266666Y-172426247D02*
X118171428Y-172473866D01*
X118171428Y-172473866D02*
X117980952Y-172473866D01*
X117980952Y-172473866D02*
X117885714Y-172426247D01*
X117885714Y-172426247D02*
X117838095Y-172378628D01*
X117838095Y-172378628D02*
X117790476Y-172283390D01*
X190366666Y-151459580D02*
X190414285Y-151507200D01*
X190414285Y-151507200D02*
X190557142Y-151554819D01*
X190557142Y-151554819D02*
X190652380Y-151554819D01*
X190652380Y-151554819D02*
X190795237Y-151507200D01*
X190795237Y-151507200D02*
X190890475Y-151411961D01*
X190890475Y-151411961D02*
X190938094Y-151316723D01*
X190938094Y-151316723D02*
X190985713Y-151126247D01*
X190985713Y-151126247D02*
X190985713Y-150983390D01*
X190985713Y-150983390D02*
X190938094Y-150792914D01*
X190938094Y-150792914D02*
X190890475Y-150697676D01*
X190890475Y-150697676D02*
X190795237Y-150602438D01*
X190795237Y-150602438D02*
X190652380Y-150554819D01*
X190652380Y-150554819D02*
X190557142Y-150554819D01*
X190557142Y-150554819D02*
X190414285Y-150602438D01*
X190414285Y-150602438D02*
X190366666Y-150650057D01*
X189795237Y-150983390D02*
X189890475Y-150935771D01*
X189890475Y-150935771D02*
X189938094Y-150888152D01*
X189938094Y-150888152D02*
X189985713Y-150792914D01*
X189985713Y-150792914D02*
X189985713Y-150745295D01*
X189985713Y-150745295D02*
X189938094Y-150650057D01*
X189938094Y-150650057D02*
X189890475Y-150602438D01*
X189890475Y-150602438D02*
X189795237Y-150554819D01*
X189795237Y-150554819D02*
X189604761Y-150554819D01*
X189604761Y-150554819D02*
X189509523Y-150602438D01*
X189509523Y-150602438D02*
X189461904Y-150650057D01*
X189461904Y-150650057D02*
X189414285Y-150745295D01*
X189414285Y-150745295D02*
X189414285Y-150792914D01*
X189414285Y-150792914D02*
X189461904Y-150888152D01*
X189461904Y-150888152D02*
X189509523Y-150935771D01*
X189509523Y-150935771D02*
X189604761Y-150983390D01*
X189604761Y-150983390D02*
X189795237Y-150983390D01*
X189795237Y-150983390D02*
X189890475Y-151031009D01*
X189890475Y-151031009D02*
X189938094Y-151078628D01*
X189938094Y-151078628D02*
X189985713Y-151173866D01*
X189985713Y-151173866D02*
X189985713Y-151364342D01*
X189985713Y-151364342D02*
X189938094Y-151459580D01*
X189938094Y-151459580D02*
X189890475Y-151507200D01*
X189890475Y-151507200D02*
X189795237Y-151554819D01*
X189795237Y-151554819D02*
X189604761Y-151554819D01*
X189604761Y-151554819D02*
X189509523Y-151507200D01*
X189509523Y-151507200D02*
X189461904Y-151459580D01*
X189461904Y-151459580D02*
X189414285Y-151364342D01*
X189414285Y-151364342D02*
X189414285Y-151173866D01*
X189414285Y-151173866D02*
X189461904Y-151078628D01*
X189461904Y-151078628D02*
X189509523Y-151031009D01*
X189509523Y-151031009D02*
X189604761Y-150983390D01*
X60542857Y-176254819D02*
X60876190Y-175778628D01*
X61114285Y-176254819D02*
X61114285Y-175254819D01*
X61114285Y-175254819D02*
X60733333Y-175254819D01*
X60733333Y-175254819D02*
X60638095Y-175302438D01*
X60638095Y-175302438D02*
X60590476Y-175350057D01*
X60590476Y-175350057D02*
X60542857Y-175445295D01*
X60542857Y-175445295D02*
X60542857Y-175588152D01*
X60542857Y-175588152D02*
X60590476Y-175683390D01*
X60590476Y-175683390D02*
X60638095Y-175731009D01*
X60638095Y-175731009D02*
X60733333Y-175778628D01*
X60733333Y-175778628D02*
X61114285Y-175778628D01*
X59590476Y-176254819D02*
X60161904Y-176254819D01*
X59876190Y-176254819D02*
X59876190Y-175254819D01*
X59876190Y-175254819D02*
X59971428Y-175397676D01*
X59971428Y-175397676D02*
X60066666Y-175492914D01*
X60066666Y-175492914D02*
X60161904Y-175540533D01*
X59114285Y-176254819D02*
X58923809Y-176254819D01*
X58923809Y-176254819D02*
X58828571Y-176207200D01*
X58828571Y-176207200D02*
X58780952Y-176159580D01*
X58780952Y-176159580D02*
X58685714Y-176016723D01*
X58685714Y-176016723D02*
X58638095Y-175826247D01*
X58638095Y-175826247D02*
X58638095Y-175445295D01*
X58638095Y-175445295D02*
X58685714Y-175350057D01*
X58685714Y-175350057D02*
X58733333Y-175302438D01*
X58733333Y-175302438D02*
X58828571Y-175254819D01*
X58828571Y-175254819D02*
X59019047Y-175254819D01*
X59019047Y-175254819D02*
X59114285Y-175302438D01*
X59114285Y-175302438D02*
X59161904Y-175350057D01*
X59161904Y-175350057D02*
X59209523Y-175445295D01*
X59209523Y-175445295D02*
X59209523Y-175683390D01*
X59209523Y-175683390D02*
X59161904Y-175778628D01*
X59161904Y-175778628D02*
X59114285Y-175826247D01*
X59114285Y-175826247D02*
X59019047Y-175873866D01*
X59019047Y-175873866D02*
X58828571Y-175873866D01*
X58828571Y-175873866D02*
X58733333Y-175826247D01*
X58733333Y-175826247D02*
X58685714Y-175778628D01*
X58685714Y-175778628D02*
X58638095Y-175683390D01*
X125867857Y-105909580D02*
X125915476Y-105957200D01*
X125915476Y-105957200D02*
X126058333Y-106004819D01*
X126058333Y-106004819D02*
X126153571Y-106004819D01*
X126153571Y-106004819D02*
X126296428Y-105957200D01*
X126296428Y-105957200D02*
X126391666Y-105861961D01*
X126391666Y-105861961D02*
X126439285Y-105766723D01*
X126439285Y-105766723D02*
X126486904Y-105576247D01*
X126486904Y-105576247D02*
X126486904Y-105433390D01*
X126486904Y-105433390D02*
X126439285Y-105242914D01*
X126439285Y-105242914D02*
X126391666Y-105147676D01*
X126391666Y-105147676D02*
X126296428Y-105052438D01*
X126296428Y-105052438D02*
X126153571Y-105004819D01*
X126153571Y-105004819D02*
X126058333Y-105004819D01*
X126058333Y-105004819D02*
X125915476Y-105052438D01*
X125915476Y-105052438D02*
X125867857Y-105100057D01*
X125486904Y-105100057D02*
X125439285Y-105052438D01*
X125439285Y-105052438D02*
X125344047Y-105004819D01*
X125344047Y-105004819D02*
X125105952Y-105004819D01*
X125105952Y-105004819D02*
X125010714Y-105052438D01*
X125010714Y-105052438D02*
X124963095Y-105100057D01*
X124963095Y-105100057D02*
X124915476Y-105195295D01*
X124915476Y-105195295D02*
X124915476Y-105290533D01*
X124915476Y-105290533D02*
X124963095Y-105433390D01*
X124963095Y-105433390D02*
X125534523Y-106004819D01*
X125534523Y-106004819D02*
X124915476Y-106004819D01*
X124058333Y-105004819D02*
X124248809Y-105004819D01*
X124248809Y-105004819D02*
X124344047Y-105052438D01*
X124344047Y-105052438D02*
X124391666Y-105100057D01*
X124391666Y-105100057D02*
X124486904Y-105242914D01*
X124486904Y-105242914D02*
X124534523Y-105433390D01*
X124534523Y-105433390D02*
X124534523Y-105814342D01*
X124534523Y-105814342D02*
X124486904Y-105909580D01*
X124486904Y-105909580D02*
X124439285Y-105957200D01*
X124439285Y-105957200D02*
X124344047Y-106004819D01*
X124344047Y-106004819D02*
X124153571Y-106004819D01*
X124153571Y-106004819D02*
X124058333Y-105957200D01*
X124058333Y-105957200D02*
X124010714Y-105909580D01*
X124010714Y-105909580D02*
X123963095Y-105814342D01*
X123963095Y-105814342D02*
X123963095Y-105576247D01*
X123963095Y-105576247D02*
X124010714Y-105481009D01*
X124010714Y-105481009D02*
X124058333Y-105433390D01*
X124058333Y-105433390D02*
X124153571Y-105385771D01*
X124153571Y-105385771D02*
X124344047Y-105385771D01*
X124344047Y-105385771D02*
X124439285Y-105433390D01*
X124439285Y-105433390D02*
X124486904Y-105481009D01*
X124486904Y-105481009D02*
X124534523Y-105576247D01*
X133917857Y-103739580D02*
X133965476Y-103787200D01*
X133965476Y-103787200D02*
X134108333Y-103834819D01*
X134108333Y-103834819D02*
X134203571Y-103834819D01*
X134203571Y-103834819D02*
X134346428Y-103787200D01*
X134346428Y-103787200D02*
X134441666Y-103691961D01*
X134441666Y-103691961D02*
X134489285Y-103596723D01*
X134489285Y-103596723D02*
X134536904Y-103406247D01*
X134536904Y-103406247D02*
X134536904Y-103263390D01*
X134536904Y-103263390D02*
X134489285Y-103072914D01*
X134489285Y-103072914D02*
X134441666Y-102977676D01*
X134441666Y-102977676D02*
X134346428Y-102882438D01*
X134346428Y-102882438D02*
X134203571Y-102834819D01*
X134203571Y-102834819D02*
X134108333Y-102834819D01*
X134108333Y-102834819D02*
X133965476Y-102882438D01*
X133965476Y-102882438D02*
X133917857Y-102930057D01*
X133536904Y-102930057D02*
X133489285Y-102882438D01*
X133489285Y-102882438D02*
X133394047Y-102834819D01*
X133394047Y-102834819D02*
X133155952Y-102834819D01*
X133155952Y-102834819D02*
X133060714Y-102882438D01*
X133060714Y-102882438D02*
X133013095Y-102930057D01*
X133013095Y-102930057D02*
X132965476Y-103025295D01*
X132965476Y-103025295D02*
X132965476Y-103120533D01*
X132965476Y-103120533D02*
X133013095Y-103263390D01*
X133013095Y-103263390D02*
X133584523Y-103834819D01*
X133584523Y-103834819D02*
X132965476Y-103834819D01*
X132060714Y-102834819D02*
X132536904Y-102834819D01*
X132536904Y-102834819D02*
X132584523Y-103311009D01*
X132584523Y-103311009D02*
X132536904Y-103263390D01*
X132536904Y-103263390D02*
X132441666Y-103215771D01*
X132441666Y-103215771D02*
X132203571Y-103215771D01*
X132203571Y-103215771D02*
X132108333Y-103263390D01*
X132108333Y-103263390D02*
X132060714Y-103311009D01*
X132060714Y-103311009D02*
X132013095Y-103406247D01*
X132013095Y-103406247D02*
X132013095Y-103644342D01*
X132013095Y-103644342D02*
X132060714Y-103739580D01*
X132060714Y-103739580D02*
X132108333Y-103787200D01*
X132108333Y-103787200D02*
X132203571Y-103834819D01*
X132203571Y-103834819D02*
X132441666Y-103834819D01*
X132441666Y-103834819D02*
X132536904Y-103787200D01*
X132536904Y-103787200D02*
X132584523Y-103739580D01*
X156867857Y-147254580D02*
X156915476Y-147302200D01*
X156915476Y-147302200D02*
X157058333Y-147349819D01*
X157058333Y-147349819D02*
X157153571Y-147349819D01*
X157153571Y-147349819D02*
X157296428Y-147302200D01*
X157296428Y-147302200D02*
X157391666Y-147206961D01*
X157391666Y-147206961D02*
X157439285Y-147111723D01*
X157439285Y-147111723D02*
X157486904Y-146921247D01*
X157486904Y-146921247D02*
X157486904Y-146778390D01*
X157486904Y-146778390D02*
X157439285Y-146587914D01*
X157439285Y-146587914D02*
X157391666Y-146492676D01*
X157391666Y-146492676D02*
X157296428Y-146397438D01*
X157296428Y-146397438D02*
X157153571Y-146349819D01*
X157153571Y-146349819D02*
X157058333Y-146349819D01*
X157058333Y-146349819D02*
X156915476Y-146397438D01*
X156915476Y-146397438D02*
X156867857Y-146445057D01*
X155963095Y-146349819D02*
X156439285Y-146349819D01*
X156439285Y-146349819D02*
X156486904Y-146826009D01*
X156486904Y-146826009D02*
X156439285Y-146778390D01*
X156439285Y-146778390D02*
X156344047Y-146730771D01*
X156344047Y-146730771D02*
X156105952Y-146730771D01*
X156105952Y-146730771D02*
X156010714Y-146778390D01*
X156010714Y-146778390D02*
X155963095Y-146826009D01*
X155963095Y-146826009D02*
X155915476Y-146921247D01*
X155915476Y-146921247D02*
X155915476Y-147159342D01*
X155915476Y-147159342D02*
X155963095Y-147254580D01*
X155963095Y-147254580D02*
X156010714Y-147302200D01*
X156010714Y-147302200D02*
X156105952Y-147349819D01*
X156105952Y-147349819D02*
X156344047Y-147349819D01*
X156344047Y-147349819D02*
X156439285Y-147302200D01*
X156439285Y-147302200D02*
X156486904Y-147254580D01*
X155534523Y-146445057D02*
X155486904Y-146397438D01*
X155486904Y-146397438D02*
X155391666Y-146349819D01*
X155391666Y-146349819D02*
X155153571Y-146349819D01*
X155153571Y-146349819D02*
X155058333Y-146397438D01*
X155058333Y-146397438D02*
X155010714Y-146445057D01*
X155010714Y-146445057D02*
X154963095Y-146540295D01*
X154963095Y-146540295D02*
X154963095Y-146635533D01*
X154963095Y-146635533D02*
X155010714Y-146778390D01*
X155010714Y-146778390D02*
X155582142Y-147349819D01*
X155582142Y-147349819D02*
X154963095Y-147349819D01*
X130130357Y-176354819D02*
X130463690Y-175878628D01*
X130701785Y-176354819D02*
X130701785Y-175354819D01*
X130701785Y-175354819D02*
X130320833Y-175354819D01*
X130320833Y-175354819D02*
X130225595Y-175402438D01*
X130225595Y-175402438D02*
X130177976Y-175450057D01*
X130177976Y-175450057D02*
X130130357Y-175545295D01*
X130130357Y-175545295D02*
X130130357Y-175688152D01*
X130130357Y-175688152D02*
X130177976Y-175783390D01*
X130177976Y-175783390D02*
X130225595Y-175831009D01*
X130225595Y-175831009D02*
X130320833Y-175878628D01*
X130320833Y-175878628D02*
X130701785Y-175878628D01*
X129749404Y-175450057D02*
X129701785Y-175402438D01*
X129701785Y-175402438D02*
X129606547Y-175354819D01*
X129606547Y-175354819D02*
X129368452Y-175354819D01*
X129368452Y-175354819D02*
X129273214Y-175402438D01*
X129273214Y-175402438D02*
X129225595Y-175450057D01*
X129225595Y-175450057D02*
X129177976Y-175545295D01*
X129177976Y-175545295D02*
X129177976Y-175640533D01*
X129177976Y-175640533D02*
X129225595Y-175783390D01*
X129225595Y-175783390D02*
X129797023Y-176354819D01*
X129797023Y-176354819D02*
X129177976Y-176354819D01*
X128225595Y-176354819D02*
X128797023Y-176354819D01*
X128511309Y-176354819D02*
X128511309Y-175354819D01*
X128511309Y-175354819D02*
X128606547Y-175497676D01*
X128606547Y-175497676D02*
X128701785Y-175592914D01*
X128701785Y-175592914D02*
X128797023Y-175640533D01*
X154938094Y-172054819D02*
X154938094Y-172864342D01*
X154938094Y-172864342D02*
X154890475Y-172959580D01*
X154890475Y-172959580D02*
X154842856Y-173007200D01*
X154842856Y-173007200D02*
X154747618Y-173054819D01*
X154747618Y-173054819D02*
X154557142Y-173054819D01*
X154557142Y-173054819D02*
X154461904Y-173007200D01*
X154461904Y-173007200D02*
X154414285Y-172959580D01*
X154414285Y-172959580D02*
X154366666Y-172864342D01*
X154366666Y-172864342D02*
X154366666Y-172054819D01*
X153366666Y-173054819D02*
X153938094Y-173054819D01*
X153652380Y-173054819D02*
X153652380Y-172054819D01*
X153652380Y-172054819D02*
X153747618Y-172197676D01*
X153747618Y-172197676D02*
X153842856Y-172292914D01*
X153842856Y-172292914D02*
X153938094Y-172340533D01*
X152747618Y-172054819D02*
X152652380Y-172054819D01*
X152652380Y-172054819D02*
X152557142Y-172102438D01*
X152557142Y-172102438D02*
X152509523Y-172150057D01*
X152509523Y-172150057D02*
X152461904Y-172245295D01*
X152461904Y-172245295D02*
X152414285Y-172435771D01*
X152414285Y-172435771D02*
X152414285Y-172673866D01*
X152414285Y-172673866D02*
X152461904Y-172864342D01*
X152461904Y-172864342D02*
X152509523Y-172959580D01*
X152509523Y-172959580D02*
X152557142Y-173007200D01*
X152557142Y-173007200D02*
X152652380Y-173054819D01*
X152652380Y-173054819D02*
X152747618Y-173054819D01*
X152747618Y-173054819D02*
X152842856Y-173007200D01*
X152842856Y-173007200D02*
X152890475Y-172959580D01*
X152890475Y-172959580D02*
X152938094Y-172864342D01*
X152938094Y-172864342D02*
X152985713Y-172673866D01*
X152985713Y-172673866D02*
X152985713Y-172435771D01*
X152985713Y-172435771D02*
X152938094Y-172245295D01*
X152938094Y-172245295D02*
X152890475Y-172150057D01*
X152890475Y-172150057D02*
X152842856Y-172102438D01*
X152842856Y-172102438D02*
X152747618Y-172054819D01*
X179166666Y-120059580D02*
X179214285Y-120107200D01*
X179214285Y-120107200D02*
X179357142Y-120154819D01*
X179357142Y-120154819D02*
X179452380Y-120154819D01*
X179452380Y-120154819D02*
X179595237Y-120107200D01*
X179595237Y-120107200D02*
X179690475Y-120011961D01*
X179690475Y-120011961D02*
X179738094Y-119916723D01*
X179738094Y-119916723D02*
X179785713Y-119726247D01*
X179785713Y-119726247D02*
X179785713Y-119583390D01*
X179785713Y-119583390D02*
X179738094Y-119392914D01*
X179738094Y-119392914D02*
X179690475Y-119297676D01*
X179690475Y-119297676D02*
X179595237Y-119202438D01*
X179595237Y-119202438D02*
X179452380Y-119154819D01*
X179452380Y-119154819D02*
X179357142Y-119154819D01*
X179357142Y-119154819D02*
X179214285Y-119202438D01*
X179214285Y-119202438D02*
X179166666Y-119250057D01*
X178309523Y-119154819D02*
X178499999Y-119154819D01*
X178499999Y-119154819D02*
X178595237Y-119202438D01*
X178595237Y-119202438D02*
X178642856Y-119250057D01*
X178642856Y-119250057D02*
X178738094Y-119392914D01*
X178738094Y-119392914D02*
X178785713Y-119583390D01*
X178785713Y-119583390D02*
X178785713Y-119964342D01*
X178785713Y-119964342D02*
X178738094Y-120059580D01*
X178738094Y-120059580D02*
X178690475Y-120107200D01*
X178690475Y-120107200D02*
X178595237Y-120154819D01*
X178595237Y-120154819D02*
X178404761Y-120154819D01*
X178404761Y-120154819D02*
X178309523Y-120107200D01*
X178309523Y-120107200D02*
X178261904Y-120059580D01*
X178261904Y-120059580D02*
X178214285Y-119964342D01*
X178214285Y-119964342D02*
X178214285Y-119726247D01*
X178214285Y-119726247D02*
X178261904Y-119631009D01*
X178261904Y-119631009D02*
X178309523Y-119583390D01*
X178309523Y-119583390D02*
X178404761Y-119535771D01*
X178404761Y-119535771D02*
X178595237Y-119535771D01*
X178595237Y-119535771D02*
X178690475Y-119583390D01*
X178690475Y-119583390D02*
X178738094Y-119631009D01*
X178738094Y-119631009D02*
X178785713Y-119726247D01*
X109242857Y-108359580D02*
X109290476Y-108407200D01*
X109290476Y-108407200D02*
X109433333Y-108454819D01*
X109433333Y-108454819D02*
X109528571Y-108454819D01*
X109528571Y-108454819D02*
X109671428Y-108407200D01*
X109671428Y-108407200D02*
X109766666Y-108311961D01*
X109766666Y-108311961D02*
X109814285Y-108216723D01*
X109814285Y-108216723D02*
X109861904Y-108026247D01*
X109861904Y-108026247D02*
X109861904Y-107883390D01*
X109861904Y-107883390D02*
X109814285Y-107692914D01*
X109814285Y-107692914D02*
X109766666Y-107597676D01*
X109766666Y-107597676D02*
X109671428Y-107502438D01*
X109671428Y-107502438D02*
X109528571Y-107454819D01*
X109528571Y-107454819D02*
X109433333Y-107454819D01*
X109433333Y-107454819D02*
X109290476Y-107502438D01*
X109290476Y-107502438D02*
X109242857Y-107550057D01*
X108385714Y-107788152D02*
X108385714Y-108454819D01*
X108623809Y-107407200D02*
X108861904Y-108121485D01*
X108861904Y-108121485D02*
X108242857Y-108121485D01*
X107957142Y-107454819D02*
X107338095Y-107454819D01*
X107338095Y-107454819D02*
X107671428Y-107835771D01*
X107671428Y-107835771D02*
X107528571Y-107835771D01*
X107528571Y-107835771D02*
X107433333Y-107883390D01*
X107433333Y-107883390D02*
X107385714Y-107931009D01*
X107385714Y-107931009D02*
X107338095Y-108026247D01*
X107338095Y-108026247D02*
X107338095Y-108264342D01*
X107338095Y-108264342D02*
X107385714Y-108359580D01*
X107385714Y-108359580D02*
X107433333Y-108407200D01*
X107433333Y-108407200D02*
X107528571Y-108454819D01*
X107528571Y-108454819D02*
X107814285Y-108454819D01*
X107814285Y-108454819D02*
X107909523Y-108407200D01*
X107909523Y-108407200D02*
X107957142Y-108359580D01*
X140117857Y-96189580D02*
X140165476Y-96237200D01*
X140165476Y-96237200D02*
X140308333Y-96284819D01*
X140308333Y-96284819D02*
X140403571Y-96284819D01*
X140403571Y-96284819D02*
X140546428Y-96237200D01*
X140546428Y-96237200D02*
X140641666Y-96141961D01*
X140641666Y-96141961D02*
X140689285Y-96046723D01*
X140689285Y-96046723D02*
X140736904Y-95856247D01*
X140736904Y-95856247D02*
X140736904Y-95713390D01*
X140736904Y-95713390D02*
X140689285Y-95522914D01*
X140689285Y-95522914D02*
X140641666Y-95427676D01*
X140641666Y-95427676D02*
X140546428Y-95332438D01*
X140546428Y-95332438D02*
X140403571Y-95284819D01*
X140403571Y-95284819D02*
X140308333Y-95284819D01*
X140308333Y-95284819D02*
X140165476Y-95332438D01*
X140165476Y-95332438D02*
X140117857Y-95380057D01*
X139736904Y-95380057D02*
X139689285Y-95332438D01*
X139689285Y-95332438D02*
X139594047Y-95284819D01*
X139594047Y-95284819D02*
X139355952Y-95284819D01*
X139355952Y-95284819D02*
X139260714Y-95332438D01*
X139260714Y-95332438D02*
X139213095Y-95380057D01*
X139213095Y-95380057D02*
X139165476Y-95475295D01*
X139165476Y-95475295D02*
X139165476Y-95570533D01*
X139165476Y-95570533D02*
X139213095Y-95713390D01*
X139213095Y-95713390D02*
X139784523Y-96284819D01*
X139784523Y-96284819D02*
X139165476Y-96284819D01*
X138689285Y-96284819D02*
X138498809Y-96284819D01*
X138498809Y-96284819D02*
X138403571Y-96237200D01*
X138403571Y-96237200D02*
X138355952Y-96189580D01*
X138355952Y-96189580D02*
X138260714Y-96046723D01*
X138260714Y-96046723D02*
X138213095Y-95856247D01*
X138213095Y-95856247D02*
X138213095Y-95475295D01*
X138213095Y-95475295D02*
X138260714Y-95380057D01*
X138260714Y-95380057D02*
X138308333Y-95332438D01*
X138308333Y-95332438D02*
X138403571Y-95284819D01*
X138403571Y-95284819D02*
X138594047Y-95284819D01*
X138594047Y-95284819D02*
X138689285Y-95332438D01*
X138689285Y-95332438D02*
X138736904Y-95380057D01*
X138736904Y-95380057D02*
X138784523Y-95475295D01*
X138784523Y-95475295D02*
X138784523Y-95713390D01*
X138784523Y-95713390D02*
X138736904Y-95808628D01*
X138736904Y-95808628D02*
X138689285Y-95856247D01*
X138689285Y-95856247D02*
X138594047Y-95903866D01*
X138594047Y-95903866D02*
X138403571Y-95903866D01*
X138403571Y-95903866D02*
X138308333Y-95856247D01*
X138308333Y-95856247D02*
X138260714Y-95808628D01*
X138260714Y-95808628D02*
X138213095Y-95713390D01*
X140542857Y-102359580D02*
X140590476Y-102407200D01*
X140590476Y-102407200D02*
X140733333Y-102454819D01*
X140733333Y-102454819D02*
X140828571Y-102454819D01*
X140828571Y-102454819D02*
X140971428Y-102407200D01*
X140971428Y-102407200D02*
X141066666Y-102311961D01*
X141066666Y-102311961D02*
X141114285Y-102216723D01*
X141114285Y-102216723D02*
X141161904Y-102026247D01*
X141161904Y-102026247D02*
X141161904Y-101883390D01*
X141161904Y-101883390D02*
X141114285Y-101692914D01*
X141114285Y-101692914D02*
X141066666Y-101597676D01*
X141066666Y-101597676D02*
X140971428Y-101502438D01*
X140971428Y-101502438D02*
X140828571Y-101454819D01*
X140828571Y-101454819D02*
X140733333Y-101454819D01*
X140733333Y-101454819D02*
X140590476Y-101502438D01*
X140590476Y-101502438D02*
X140542857Y-101550057D01*
X140161904Y-101550057D02*
X140114285Y-101502438D01*
X140114285Y-101502438D02*
X140019047Y-101454819D01*
X140019047Y-101454819D02*
X139780952Y-101454819D01*
X139780952Y-101454819D02*
X139685714Y-101502438D01*
X139685714Y-101502438D02*
X139638095Y-101550057D01*
X139638095Y-101550057D02*
X139590476Y-101645295D01*
X139590476Y-101645295D02*
X139590476Y-101740533D01*
X139590476Y-101740533D02*
X139638095Y-101883390D01*
X139638095Y-101883390D02*
X140209523Y-102454819D01*
X140209523Y-102454819D02*
X139590476Y-102454819D01*
X139257142Y-101454819D02*
X138590476Y-101454819D01*
X138590476Y-101454819D02*
X139019047Y-102454819D01*
X83961904Y-171854819D02*
X83961904Y-172664342D01*
X83961904Y-172664342D02*
X83914285Y-172759580D01*
X83914285Y-172759580D02*
X83866666Y-172807200D01*
X83866666Y-172807200D02*
X83771428Y-172854819D01*
X83771428Y-172854819D02*
X83580952Y-172854819D01*
X83580952Y-172854819D02*
X83485714Y-172807200D01*
X83485714Y-172807200D02*
X83438095Y-172759580D01*
X83438095Y-172759580D02*
X83390476Y-172664342D01*
X83390476Y-172664342D02*
X83390476Y-171854819D01*
X83009523Y-171854819D02*
X82342857Y-171854819D01*
X82342857Y-171854819D02*
X82771428Y-172854819D01*
X198614285Y-173054819D02*
X198614285Y-172054819D01*
X198614285Y-172054819D02*
X198376190Y-172054819D01*
X198376190Y-172054819D02*
X198233333Y-172102438D01*
X198233333Y-172102438D02*
X198138095Y-172197676D01*
X198138095Y-172197676D02*
X198090476Y-172292914D01*
X198090476Y-172292914D02*
X198042857Y-172483390D01*
X198042857Y-172483390D02*
X198042857Y-172626247D01*
X198042857Y-172626247D02*
X198090476Y-172816723D01*
X198090476Y-172816723D02*
X198138095Y-172911961D01*
X198138095Y-172911961D02*
X198233333Y-173007200D01*
X198233333Y-173007200D02*
X198376190Y-173054819D01*
X198376190Y-173054819D02*
X198614285Y-173054819D01*
X197090476Y-173054819D02*
X197661904Y-173054819D01*
X197376190Y-173054819D02*
X197376190Y-172054819D01*
X197376190Y-172054819D02*
X197471428Y-172197676D01*
X197471428Y-172197676D02*
X197566666Y-172292914D01*
X197566666Y-172292914D02*
X197661904Y-172340533D01*
X196233333Y-172388152D02*
X196233333Y-173054819D01*
X196471428Y-172007200D02*
X196709523Y-172721485D01*
X196709523Y-172721485D02*
X196090476Y-172721485D01*
X114412857Y-108254819D02*
X114746190Y-107778628D01*
X114984285Y-108254819D02*
X114984285Y-107254819D01*
X114984285Y-107254819D02*
X114603333Y-107254819D01*
X114603333Y-107254819D02*
X114508095Y-107302438D01*
X114508095Y-107302438D02*
X114460476Y-107350057D01*
X114460476Y-107350057D02*
X114412857Y-107445295D01*
X114412857Y-107445295D02*
X114412857Y-107588152D01*
X114412857Y-107588152D02*
X114460476Y-107683390D01*
X114460476Y-107683390D02*
X114508095Y-107731009D01*
X114508095Y-107731009D02*
X114603333Y-107778628D01*
X114603333Y-107778628D02*
X114984285Y-107778628D01*
X114031904Y-107350057D02*
X113984285Y-107302438D01*
X113984285Y-107302438D02*
X113889047Y-107254819D01*
X113889047Y-107254819D02*
X113650952Y-107254819D01*
X113650952Y-107254819D02*
X113555714Y-107302438D01*
X113555714Y-107302438D02*
X113508095Y-107350057D01*
X113508095Y-107350057D02*
X113460476Y-107445295D01*
X113460476Y-107445295D02*
X113460476Y-107540533D01*
X113460476Y-107540533D02*
X113508095Y-107683390D01*
X113508095Y-107683390D02*
X114079523Y-108254819D01*
X114079523Y-108254819D02*
X113460476Y-108254819D01*
X112889047Y-107683390D02*
X112984285Y-107635771D01*
X112984285Y-107635771D02*
X113031904Y-107588152D01*
X113031904Y-107588152D02*
X113079523Y-107492914D01*
X113079523Y-107492914D02*
X113079523Y-107445295D01*
X113079523Y-107445295D02*
X113031904Y-107350057D01*
X113031904Y-107350057D02*
X112984285Y-107302438D01*
X112984285Y-107302438D02*
X112889047Y-107254819D01*
X112889047Y-107254819D02*
X112698571Y-107254819D01*
X112698571Y-107254819D02*
X112603333Y-107302438D01*
X112603333Y-107302438D02*
X112555714Y-107350057D01*
X112555714Y-107350057D02*
X112508095Y-107445295D01*
X112508095Y-107445295D02*
X112508095Y-107492914D01*
X112508095Y-107492914D02*
X112555714Y-107588152D01*
X112555714Y-107588152D02*
X112603333Y-107635771D01*
X112603333Y-107635771D02*
X112698571Y-107683390D01*
X112698571Y-107683390D02*
X112889047Y-107683390D01*
X112889047Y-107683390D02*
X112984285Y-107731009D01*
X112984285Y-107731009D02*
X113031904Y-107778628D01*
X113031904Y-107778628D02*
X113079523Y-107873866D01*
X113079523Y-107873866D02*
X113079523Y-108064342D01*
X113079523Y-108064342D02*
X113031904Y-108159580D01*
X113031904Y-108159580D02*
X112984285Y-108207200D01*
X112984285Y-108207200D02*
X112889047Y-108254819D01*
X112889047Y-108254819D02*
X112698571Y-108254819D01*
X112698571Y-108254819D02*
X112603333Y-108207200D01*
X112603333Y-108207200D02*
X112555714Y-108159580D01*
X112555714Y-108159580D02*
X112508095Y-108064342D01*
X112508095Y-108064342D02*
X112508095Y-107873866D01*
X112508095Y-107873866D02*
X112555714Y-107778628D01*
X112555714Y-107778628D02*
X112603333Y-107731009D01*
X112603333Y-107731009D02*
X112698571Y-107683390D01*
X147542857Y-98259580D02*
X147590476Y-98307200D01*
X147590476Y-98307200D02*
X147733333Y-98354819D01*
X147733333Y-98354819D02*
X147828571Y-98354819D01*
X147828571Y-98354819D02*
X147971428Y-98307200D01*
X147971428Y-98307200D02*
X148066666Y-98211961D01*
X148066666Y-98211961D02*
X148114285Y-98116723D01*
X148114285Y-98116723D02*
X148161904Y-97926247D01*
X148161904Y-97926247D02*
X148161904Y-97783390D01*
X148161904Y-97783390D02*
X148114285Y-97592914D01*
X148114285Y-97592914D02*
X148066666Y-97497676D01*
X148066666Y-97497676D02*
X147971428Y-97402438D01*
X147971428Y-97402438D02*
X147828571Y-97354819D01*
X147828571Y-97354819D02*
X147733333Y-97354819D01*
X147733333Y-97354819D02*
X147590476Y-97402438D01*
X147590476Y-97402438D02*
X147542857Y-97450057D01*
X147209523Y-97354819D02*
X146590476Y-97354819D01*
X146590476Y-97354819D02*
X146923809Y-97735771D01*
X146923809Y-97735771D02*
X146780952Y-97735771D01*
X146780952Y-97735771D02*
X146685714Y-97783390D01*
X146685714Y-97783390D02*
X146638095Y-97831009D01*
X146638095Y-97831009D02*
X146590476Y-97926247D01*
X146590476Y-97926247D02*
X146590476Y-98164342D01*
X146590476Y-98164342D02*
X146638095Y-98259580D01*
X146638095Y-98259580D02*
X146685714Y-98307200D01*
X146685714Y-98307200D02*
X146780952Y-98354819D01*
X146780952Y-98354819D02*
X147066666Y-98354819D01*
X147066666Y-98354819D02*
X147161904Y-98307200D01*
X147161904Y-98307200D02*
X147209523Y-98259580D01*
X145638095Y-98354819D02*
X146209523Y-98354819D01*
X145923809Y-98354819D02*
X145923809Y-97354819D01*
X145923809Y-97354819D02*
X146019047Y-97497676D01*
X146019047Y-97497676D02*
X146114285Y-97592914D01*
X146114285Y-97592914D02*
X146209523Y-97640533D01*
X93514285Y-96954819D02*
X93514285Y-95954819D01*
X93514285Y-95954819D02*
X93276190Y-95954819D01*
X93276190Y-95954819D02*
X93133333Y-96002438D01*
X93133333Y-96002438D02*
X93038095Y-96097676D01*
X93038095Y-96097676D02*
X92990476Y-96192914D01*
X92990476Y-96192914D02*
X92942857Y-96383390D01*
X92942857Y-96383390D02*
X92942857Y-96526247D01*
X92942857Y-96526247D02*
X92990476Y-96716723D01*
X92990476Y-96716723D02*
X93038095Y-96811961D01*
X93038095Y-96811961D02*
X93133333Y-96907200D01*
X93133333Y-96907200D02*
X93276190Y-96954819D01*
X93276190Y-96954819D02*
X93514285Y-96954819D01*
X91990476Y-96954819D02*
X92561904Y-96954819D01*
X92276190Y-96954819D02*
X92276190Y-95954819D01*
X92276190Y-95954819D02*
X92371428Y-96097676D01*
X92371428Y-96097676D02*
X92466666Y-96192914D01*
X92466666Y-96192914D02*
X92561904Y-96240533D01*
X91609523Y-96050057D02*
X91561904Y-96002438D01*
X91561904Y-96002438D02*
X91466666Y-95954819D01*
X91466666Y-95954819D02*
X91228571Y-95954819D01*
X91228571Y-95954819D02*
X91133333Y-96002438D01*
X91133333Y-96002438D02*
X91085714Y-96050057D01*
X91085714Y-96050057D02*
X91038095Y-96145295D01*
X91038095Y-96145295D02*
X91038095Y-96240533D01*
X91038095Y-96240533D02*
X91085714Y-96383390D01*
X91085714Y-96383390D02*
X91657142Y-96954819D01*
X91657142Y-96954819D02*
X91038095Y-96954819D01*
X120542857Y-108159580D02*
X120590476Y-108207200D01*
X120590476Y-108207200D02*
X120733333Y-108254819D01*
X120733333Y-108254819D02*
X120828571Y-108254819D01*
X120828571Y-108254819D02*
X120971428Y-108207200D01*
X120971428Y-108207200D02*
X121066666Y-108111961D01*
X121066666Y-108111961D02*
X121114285Y-108016723D01*
X121114285Y-108016723D02*
X121161904Y-107826247D01*
X121161904Y-107826247D02*
X121161904Y-107683390D01*
X121161904Y-107683390D02*
X121114285Y-107492914D01*
X121114285Y-107492914D02*
X121066666Y-107397676D01*
X121066666Y-107397676D02*
X120971428Y-107302438D01*
X120971428Y-107302438D02*
X120828571Y-107254819D01*
X120828571Y-107254819D02*
X120733333Y-107254819D01*
X120733333Y-107254819D02*
X120590476Y-107302438D01*
X120590476Y-107302438D02*
X120542857Y-107350057D01*
X119685714Y-107588152D02*
X119685714Y-108254819D01*
X119923809Y-107207200D02*
X120161904Y-107921485D01*
X120161904Y-107921485D02*
X119542857Y-107921485D01*
X118971428Y-107254819D02*
X118876190Y-107254819D01*
X118876190Y-107254819D02*
X118780952Y-107302438D01*
X118780952Y-107302438D02*
X118733333Y-107350057D01*
X118733333Y-107350057D02*
X118685714Y-107445295D01*
X118685714Y-107445295D02*
X118638095Y-107635771D01*
X118638095Y-107635771D02*
X118638095Y-107873866D01*
X118638095Y-107873866D02*
X118685714Y-108064342D01*
X118685714Y-108064342D02*
X118733333Y-108159580D01*
X118733333Y-108159580D02*
X118780952Y-108207200D01*
X118780952Y-108207200D02*
X118876190Y-108254819D01*
X118876190Y-108254819D02*
X118971428Y-108254819D01*
X118971428Y-108254819D02*
X119066666Y-108207200D01*
X119066666Y-108207200D02*
X119114285Y-108159580D01*
X119114285Y-108159580D02*
X119161904Y-108064342D01*
X119161904Y-108064342D02*
X119209523Y-107873866D01*
X119209523Y-107873866D02*
X119209523Y-107635771D01*
X119209523Y-107635771D02*
X119161904Y-107445295D01*
X119161904Y-107445295D02*
X119114285Y-107350057D01*
X119114285Y-107350057D02*
X119066666Y-107302438D01*
X119066666Y-107302438D02*
X118971428Y-107254819D01*
X165014285Y-181454819D02*
X165014285Y-180454819D01*
X165014285Y-180454819D02*
X164776190Y-180454819D01*
X164776190Y-180454819D02*
X164633333Y-180502438D01*
X164633333Y-180502438D02*
X164538095Y-180597676D01*
X164538095Y-180597676D02*
X164490476Y-180692914D01*
X164490476Y-180692914D02*
X164442857Y-180883390D01*
X164442857Y-180883390D02*
X164442857Y-181026247D01*
X164442857Y-181026247D02*
X164490476Y-181216723D01*
X164490476Y-181216723D02*
X164538095Y-181311961D01*
X164538095Y-181311961D02*
X164633333Y-181407200D01*
X164633333Y-181407200D02*
X164776190Y-181454819D01*
X164776190Y-181454819D02*
X165014285Y-181454819D01*
X163490476Y-181454819D02*
X164061904Y-181454819D01*
X163776190Y-181454819D02*
X163776190Y-180454819D01*
X163776190Y-180454819D02*
X163871428Y-180597676D01*
X163871428Y-180597676D02*
X163966666Y-180692914D01*
X163966666Y-180692914D02*
X164061904Y-180740533D01*
X162585714Y-180454819D02*
X163061904Y-180454819D01*
X163061904Y-180454819D02*
X163109523Y-180931009D01*
X163109523Y-180931009D02*
X163061904Y-180883390D01*
X163061904Y-180883390D02*
X162966666Y-180835771D01*
X162966666Y-180835771D02*
X162728571Y-180835771D01*
X162728571Y-180835771D02*
X162633333Y-180883390D01*
X162633333Y-180883390D02*
X162585714Y-180931009D01*
X162585714Y-180931009D02*
X162538095Y-181026247D01*
X162538095Y-181026247D02*
X162538095Y-181264342D01*
X162538095Y-181264342D02*
X162585714Y-181359580D01*
X162585714Y-181359580D02*
X162633333Y-181407200D01*
X162633333Y-181407200D02*
X162728571Y-181454819D01*
X162728571Y-181454819D02*
X162966666Y-181454819D01*
X162966666Y-181454819D02*
X163061904Y-181407200D01*
X163061904Y-181407200D02*
X163109523Y-181359580D01*
X187014285Y-181254819D02*
X187014285Y-180254819D01*
X187014285Y-180254819D02*
X186776190Y-180254819D01*
X186776190Y-180254819D02*
X186633333Y-180302438D01*
X186633333Y-180302438D02*
X186538095Y-180397676D01*
X186538095Y-180397676D02*
X186490476Y-180492914D01*
X186490476Y-180492914D02*
X186442857Y-180683390D01*
X186442857Y-180683390D02*
X186442857Y-180826247D01*
X186442857Y-180826247D02*
X186490476Y-181016723D01*
X186490476Y-181016723D02*
X186538095Y-181111961D01*
X186538095Y-181111961D02*
X186633333Y-181207200D01*
X186633333Y-181207200D02*
X186776190Y-181254819D01*
X186776190Y-181254819D02*
X187014285Y-181254819D01*
X185490476Y-181254819D02*
X186061904Y-181254819D01*
X185776190Y-181254819D02*
X185776190Y-180254819D01*
X185776190Y-180254819D02*
X185871428Y-180397676D01*
X185871428Y-180397676D02*
X185966666Y-180492914D01*
X185966666Y-180492914D02*
X186061904Y-180540533D01*
X184633333Y-180254819D02*
X184823809Y-180254819D01*
X184823809Y-180254819D02*
X184919047Y-180302438D01*
X184919047Y-180302438D02*
X184966666Y-180350057D01*
X184966666Y-180350057D02*
X185061904Y-180492914D01*
X185061904Y-180492914D02*
X185109523Y-180683390D01*
X185109523Y-180683390D02*
X185109523Y-181064342D01*
X185109523Y-181064342D02*
X185061904Y-181159580D01*
X185061904Y-181159580D02*
X185014285Y-181207200D01*
X185014285Y-181207200D02*
X184919047Y-181254819D01*
X184919047Y-181254819D02*
X184728571Y-181254819D01*
X184728571Y-181254819D02*
X184633333Y-181207200D01*
X184633333Y-181207200D02*
X184585714Y-181159580D01*
X184585714Y-181159580D02*
X184538095Y-181064342D01*
X184538095Y-181064342D02*
X184538095Y-180826247D01*
X184538095Y-180826247D02*
X184585714Y-180731009D01*
X184585714Y-180731009D02*
X184633333Y-180683390D01*
X184633333Y-180683390D02*
X184728571Y-180635771D01*
X184728571Y-180635771D02*
X184919047Y-180635771D01*
X184919047Y-180635771D02*
X185014285Y-180683390D01*
X185014285Y-180683390D02*
X185061904Y-180731009D01*
X185061904Y-180731009D02*
X185109523Y-180826247D01*
X140242857Y-99854819D02*
X140576190Y-99378628D01*
X140814285Y-99854819D02*
X140814285Y-98854819D01*
X140814285Y-98854819D02*
X140433333Y-98854819D01*
X140433333Y-98854819D02*
X140338095Y-98902438D01*
X140338095Y-98902438D02*
X140290476Y-98950057D01*
X140290476Y-98950057D02*
X140242857Y-99045295D01*
X140242857Y-99045295D02*
X140242857Y-99188152D01*
X140242857Y-99188152D02*
X140290476Y-99283390D01*
X140290476Y-99283390D02*
X140338095Y-99331009D01*
X140338095Y-99331009D02*
X140433333Y-99378628D01*
X140433333Y-99378628D02*
X140814285Y-99378628D01*
X139861904Y-98950057D02*
X139814285Y-98902438D01*
X139814285Y-98902438D02*
X139719047Y-98854819D01*
X139719047Y-98854819D02*
X139480952Y-98854819D01*
X139480952Y-98854819D02*
X139385714Y-98902438D01*
X139385714Y-98902438D02*
X139338095Y-98950057D01*
X139338095Y-98950057D02*
X139290476Y-99045295D01*
X139290476Y-99045295D02*
X139290476Y-99140533D01*
X139290476Y-99140533D02*
X139338095Y-99283390D01*
X139338095Y-99283390D02*
X139909523Y-99854819D01*
X139909523Y-99854819D02*
X139290476Y-99854819D01*
X138909523Y-98950057D02*
X138861904Y-98902438D01*
X138861904Y-98902438D02*
X138766666Y-98854819D01*
X138766666Y-98854819D02*
X138528571Y-98854819D01*
X138528571Y-98854819D02*
X138433333Y-98902438D01*
X138433333Y-98902438D02*
X138385714Y-98950057D01*
X138385714Y-98950057D02*
X138338095Y-99045295D01*
X138338095Y-99045295D02*
X138338095Y-99140533D01*
X138338095Y-99140533D02*
X138385714Y-99283390D01*
X138385714Y-99283390D02*
X138957142Y-99854819D01*
X138957142Y-99854819D02*
X138338095Y-99854819D01*
X142842857Y-150854819D02*
X143176190Y-150378628D01*
X143414285Y-150854819D02*
X143414285Y-149854819D01*
X143414285Y-149854819D02*
X143033333Y-149854819D01*
X143033333Y-149854819D02*
X142938095Y-149902438D01*
X142938095Y-149902438D02*
X142890476Y-149950057D01*
X142890476Y-149950057D02*
X142842857Y-150045295D01*
X142842857Y-150045295D02*
X142842857Y-150188152D01*
X142842857Y-150188152D02*
X142890476Y-150283390D01*
X142890476Y-150283390D02*
X142938095Y-150331009D01*
X142938095Y-150331009D02*
X143033333Y-150378628D01*
X143033333Y-150378628D02*
X143414285Y-150378628D01*
X141985714Y-150188152D02*
X141985714Y-150854819D01*
X142223809Y-149807200D02*
X142461904Y-150521485D01*
X142461904Y-150521485D02*
X141842857Y-150521485D01*
X140938095Y-150854819D02*
X141509523Y-150854819D01*
X141223809Y-150854819D02*
X141223809Y-149854819D01*
X141223809Y-149854819D02*
X141319047Y-149997676D01*
X141319047Y-149997676D02*
X141414285Y-150092914D01*
X141414285Y-150092914D02*
X141509523Y-150140533D01*
X203242857Y-123204819D02*
X203576190Y-122728628D01*
X203814285Y-123204819D02*
X203814285Y-122204819D01*
X203814285Y-122204819D02*
X203433333Y-122204819D01*
X203433333Y-122204819D02*
X203338095Y-122252438D01*
X203338095Y-122252438D02*
X203290476Y-122300057D01*
X203290476Y-122300057D02*
X203242857Y-122395295D01*
X203242857Y-122395295D02*
X203242857Y-122538152D01*
X203242857Y-122538152D02*
X203290476Y-122633390D01*
X203290476Y-122633390D02*
X203338095Y-122681009D01*
X203338095Y-122681009D02*
X203433333Y-122728628D01*
X203433333Y-122728628D02*
X203814285Y-122728628D01*
X202909523Y-122204819D02*
X202290476Y-122204819D01*
X202290476Y-122204819D02*
X202623809Y-122585771D01*
X202623809Y-122585771D02*
X202480952Y-122585771D01*
X202480952Y-122585771D02*
X202385714Y-122633390D01*
X202385714Y-122633390D02*
X202338095Y-122681009D01*
X202338095Y-122681009D02*
X202290476Y-122776247D01*
X202290476Y-122776247D02*
X202290476Y-123014342D01*
X202290476Y-123014342D02*
X202338095Y-123109580D01*
X202338095Y-123109580D02*
X202385714Y-123157200D01*
X202385714Y-123157200D02*
X202480952Y-123204819D01*
X202480952Y-123204819D02*
X202766666Y-123204819D01*
X202766666Y-123204819D02*
X202861904Y-123157200D01*
X202861904Y-123157200D02*
X202909523Y-123109580D01*
X201909523Y-122300057D02*
X201861904Y-122252438D01*
X201861904Y-122252438D02*
X201766666Y-122204819D01*
X201766666Y-122204819D02*
X201528571Y-122204819D01*
X201528571Y-122204819D02*
X201433333Y-122252438D01*
X201433333Y-122252438D02*
X201385714Y-122300057D01*
X201385714Y-122300057D02*
X201338095Y-122395295D01*
X201338095Y-122395295D02*
X201338095Y-122490533D01*
X201338095Y-122490533D02*
X201385714Y-122633390D01*
X201385714Y-122633390D02*
X201957142Y-123204819D01*
X201957142Y-123204819D02*
X201338095Y-123204819D01*
X107742857Y-167459580D02*
X107790476Y-167507200D01*
X107790476Y-167507200D02*
X107933333Y-167554819D01*
X107933333Y-167554819D02*
X108028571Y-167554819D01*
X108028571Y-167554819D02*
X108171428Y-167507200D01*
X108171428Y-167507200D02*
X108266666Y-167411961D01*
X108266666Y-167411961D02*
X108314285Y-167316723D01*
X108314285Y-167316723D02*
X108361904Y-167126247D01*
X108361904Y-167126247D02*
X108361904Y-166983390D01*
X108361904Y-166983390D02*
X108314285Y-166792914D01*
X108314285Y-166792914D02*
X108266666Y-166697676D01*
X108266666Y-166697676D02*
X108171428Y-166602438D01*
X108171428Y-166602438D02*
X108028571Y-166554819D01*
X108028571Y-166554819D02*
X107933333Y-166554819D01*
X107933333Y-166554819D02*
X107790476Y-166602438D01*
X107790476Y-166602438D02*
X107742857Y-166650057D01*
X106790476Y-167554819D02*
X107361904Y-167554819D01*
X107076190Y-167554819D02*
X107076190Y-166554819D01*
X107076190Y-166554819D02*
X107171428Y-166697676D01*
X107171428Y-166697676D02*
X107266666Y-166792914D01*
X107266666Y-166792914D02*
X107361904Y-166840533D01*
X105885714Y-166554819D02*
X106361904Y-166554819D01*
X106361904Y-166554819D02*
X106409523Y-167031009D01*
X106409523Y-167031009D02*
X106361904Y-166983390D01*
X106361904Y-166983390D02*
X106266666Y-166935771D01*
X106266666Y-166935771D02*
X106028571Y-166935771D01*
X106028571Y-166935771D02*
X105933333Y-166983390D01*
X105933333Y-166983390D02*
X105885714Y-167031009D01*
X105885714Y-167031009D02*
X105838095Y-167126247D01*
X105838095Y-167126247D02*
X105838095Y-167364342D01*
X105838095Y-167364342D02*
X105885714Y-167459580D01*
X105885714Y-167459580D02*
X105933333Y-167507200D01*
X105933333Y-167507200D02*
X106028571Y-167554819D01*
X106028571Y-167554819D02*
X106266666Y-167554819D01*
X106266666Y-167554819D02*
X106361904Y-167507200D01*
X106361904Y-167507200D02*
X106409523Y-167459580D01*
X197042857Y-125559580D02*
X197090476Y-125607200D01*
X197090476Y-125607200D02*
X197233333Y-125654819D01*
X197233333Y-125654819D02*
X197328571Y-125654819D01*
X197328571Y-125654819D02*
X197471428Y-125607200D01*
X197471428Y-125607200D02*
X197566666Y-125511961D01*
X197566666Y-125511961D02*
X197614285Y-125416723D01*
X197614285Y-125416723D02*
X197661904Y-125226247D01*
X197661904Y-125226247D02*
X197661904Y-125083390D01*
X197661904Y-125083390D02*
X197614285Y-124892914D01*
X197614285Y-124892914D02*
X197566666Y-124797676D01*
X197566666Y-124797676D02*
X197471428Y-124702438D01*
X197471428Y-124702438D02*
X197328571Y-124654819D01*
X197328571Y-124654819D02*
X197233333Y-124654819D01*
X197233333Y-124654819D02*
X197090476Y-124702438D01*
X197090476Y-124702438D02*
X197042857Y-124750057D01*
X196185714Y-124988152D02*
X196185714Y-125654819D01*
X196423809Y-124607200D02*
X196661904Y-125321485D01*
X196661904Y-125321485D02*
X196042857Y-125321485D01*
X195233333Y-124988152D02*
X195233333Y-125654819D01*
X195471428Y-124607200D02*
X195709523Y-125321485D01*
X195709523Y-125321485D02*
X195090476Y-125321485D01*
X133942857Y-98359580D02*
X133990476Y-98407200D01*
X133990476Y-98407200D02*
X134133333Y-98454819D01*
X134133333Y-98454819D02*
X134228571Y-98454819D01*
X134228571Y-98454819D02*
X134371428Y-98407200D01*
X134371428Y-98407200D02*
X134466666Y-98311961D01*
X134466666Y-98311961D02*
X134514285Y-98216723D01*
X134514285Y-98216723D02*
X134561904Y-98026247D01*
X134561904Y-98026247D02*
X134561904Y-97883390D01*
X134561904Y-97883390D02*
X134514285Y-97692914D01*
X134514285Y-97692914D02*
X134466666Y-97597676D01*
X134466666Y-97597676D02*
X134371428Y-97502438D01*
X134371428Y-97502438D02*
X134228571Y-97454819D01*
X134228571Y-97454819D02*
X134133333Y-97454819D01*
X134133333Y-97454819D02*
X133990476Y-97502438D01*
X133990476Y-97502438D02*
X133942857Y-97550057D01*
X133561904Y-97550057D02*
X133514285Y-97502438D01*
X133514285Y-97502438D02*
X133419047Y-97454819D01*
X133419047Y-97454819D02*
X133180952Y-97454819D01*
X133180952Y-97454819D02*
X133085714Y-97502438D01*
X133085714Y-97502438D02*
X133038095Y-97550057D01*
X133038095Y-97550057D02*
X132990476Y-97645295D01*
X132990476Y-97645295D02*
X132990476Y-97740533D01*
X132990476Y-97740533D02*
X133038095Y-97883390D01*
X133038095Y-97883390D02*
X133609523Y-98454819D01*
X133609523Y-98454819D02*
X132990476Y-98454819D01*
X132133333Y-97788152D02*
X132133333Y-98454819D01*
X132371428Y-97407200D02*
X132609523Y-98121485D01*
X132609523Y-98121485D02*
X131990476Y-98121485D01*
X202514285Y-173054819D02*
X202514285Y-172054819D01*
X202514285Y-172054819D02*
X202276190Y-172054819D01*
X202276190Y-172054819D02*
X202133333Y-172102438D01*
X202133333Y-172102438D02*
X202038095Y-172197676D01*
X202038095Y-172197676D02*
X201990476Y-172292914D01*
X201990476Y-172292914D02*
X201942857Y-172483390D01*
X201942857Y-172483390D02*
X201942857Y-172626247D01*
X201942857Y-172626247D02*
X201990476Y-172816723D01*
X201990476Y-172816723D02*
X202038095Y-172911961D01*
X202038095Y-172911961D02*
X202133333Y-173007200D01*
X202133333Y-173007200D02*
X202276190Y-173054819D01*
X202276190Y-173054819D02*
X202514285Y-173054819D01*
X200990476Y-173054819D02*
X201561904Y-173054819D01*
X201276190Y-173054819D02*
X201276190Y-172054819D01*
X201276190Y-172054819D02*
X201371428Y-172197676D01*
X201371428Y-172197676D02*
X201466666Y-172292914D01*
X201466666Y-172292914D02*
X201561904Y-172340533D01*
X200657142Y-172054819D02*
X200038095Y-172054819D01*
X200038095Y-172054819D02*
X200371428Y-172435771D01*
X200371428Y-172435771D02*
X200228571Y-172435771D01*
X200228571Y-172435771D02*
X200133333Y-172483390D01*
X200133333Y-172483390D02*
X200085714Y-172531009D01*
X200085714Y-172531009D02*
X200038095Y-172626247D01*
X200038095Y-172626247D02*
X200038095Y-172864342D01*
X200038095Y-172864342D02*
X200085714Y-172959580D01*
X200085714Y-172959580D02*
X200133333Y-173007200D01*
X200133333Y-173007200D02*
X200228571Y-173054819D01*
X200228571Y-173054819D02*
X200514285Y-173054819D01*
X200514285Y-173054819D02*
X200609523Y-173007200D01*
X200609523Y-173007200D02*
X200657142Y-172959580D01*
X146442857Y-94759580D02*
X146490476Y-94807200D01*
X146490476Y-94807200D02*
X146633333Y-94854819D01*
X146633333Y-94854819D02*
X146728571Y-94854819D01*
X146728571Y-94854819D02*
X146871428Y-94807200D01*
X146871428Y-94807200D02*
X146966666Y-94711961D01*
X146966666Y-94711961D02*
X147014285Y-94616723D01*
X147014285Y-94616723D02*
X147061904Y-94426247D01*
X147061904Y-94426247D02*
X147061904Y-94283390D01*
X147061904Y-94283390D02*
X147014285Y-94092914D01*
X147014285Y-94092914D02*
X146966666Y-93997676D01*
X146966666Y-93997676D02*
X146871428Y-93902438D01*
X146871428Y-93902438D02*
X146728571Y-93854819D01*
X146728571Y-93854819D02*
X146633333Y-93854819D01*
X146633333Y-93854819D02*
X146490476Y-93902438D01*
X146490476Y-93902438D02*
X146442857Y-93950057D01*
X146061904Y-93950057D02*
X146014285Y-93902438D01*
X146014285Y-93902438D02*
X145919047Y-93854819D01*
X145919047Y-93854819D02*
X145680952Y-93854819D01*
X145680952Y-93854819D02*
X145585714Y-93902438D01*
X145585714Y-93902438D02*
X145538095Y-93950057D01*
X145538095Y-93950057D02*
X145490476Y-94045295D01*
X145490476Y-94045295D02*
X145490476Y-94140533D01*
X145490476Y-94140533D02*
X145538095Y-94283390D01*
X145538095Y-94283390D02*
X146109523Y-94854819D01*
X146109523Y-94854819D02*
X145490476Y-94854819D01*
X144919047Y-94283390D02*
X145014285Y-94235771D01*
X145014285Y-94235771D02*
X145061904Y-94188152D01*
X145061904Y-94188152D02*
X145109523Y-94092914D01*
X145109523Y-94092914D02*
X145109523Y-94045295D01*
X145109523Y-94045295D02*
X145061904Y-93950057D01*
X145061904Y-93950057D02*
X145014285Y-93902438D01*
X145014285Y-93902438D02*
X144919047Y-93854819D01*
X144919047Y-93854819D02*
X144728571Y-93854819D01*
X144728571Y-93854819D02*
X144633333Y-93902438D01*
X144633333Y-93902438D02*
X144585714Y-93950057D01*
X144585714Y-93950057D02*
X144538095Y-94045295D01*
X144538095Y-94045295D02*
X144538095Y-94092914D01*
X144538095Y-94092914D02*
X144585714Y-94188152D01*
X144585714Y-94188152D02*
X144633333Y-94235771D01*
X144633333Y-94235771D02*
X144728571Y-94283390D01*
X144728571Y-94283390D02*
X144919047Y-94283390D01*
X144919047Y-94283390D02*
X145014285Y-94331009D01*
X145014285Y-94331009D02*
X145061904Y-94378628D01*
X145061904Y-94378628D02*
X145109523Y-94473866D01*
X145109523Y-94473866D02*
X145109523Y-94664342D01*
X145109523Y-94664342D02*
X145061904Y-94759580D01*
X145061904Y-94759580D02*
X145014285Y-94807200D01*
X145014285Y-94807200D02*
X144919047Y-94854819D01*
X144919047Y-94854819D02*
X144728571Y-94854819D01*
X144728571Y-94854819D02*
X144633333Y-94807200D01*
X144633333Y-94807200D02*
X144585714Y-94759580D01*
X144585714Y-94759580D02*
X144538095Y-94664342D01*
X144538095Y-94664342D02*
X144538095Y-94473866D01*
X144538095Y-94473866D02*
X144585714Y-94378628D01*
X144585714Y-94378628D02*
X144633333Y-94331009D01*
X144633333Y-94331009D02*
X144728571Y-94283390D01*
X192342857Y-179954819D02*
X192676190Y-179478628D01*
X192914285Y-179954819D02*
X192914285Y-178954819D01*
X192914285Y-178954819D02*
X192533333Y-178954819D01*
X192533333Y-178954819D02*
X192438095Y-179002438D01*
X192438095Y-179002438D02*
X192390476Y-179050057D01*
X192390476Y-179050057D02*
X192342857Y-179145295D01*
X192342857Y-179145295D02*
X192342857Y-179288152D01*
X192342857Y-179288152D02*
X192390476Y-179383390D01*
X192390476Y-179383390D02*
X192438095Y-179431009D01*
X192438095Y-179431009D02*
X192533333Y-179478628D01*
X192533333Y-179478628D02*
X192914285Y-179478628D01*
X192009523Y-178954819D02*
X191390476Y-178954819D01*
X191390476Y-178954819D02*
X191723809Y-179335771D01*
X191723809Y-179335771D02*
X191580952Y-179335771D01*
X191580952Y-179335771D02*
X191485714Y-179383390D01*
X191485714Y-179383390D02*
X191438095Y-179431009D01*
X191438095Y-179431009D02*
X191390476Y-179526247D01*
X191390476Y-179526247D02*
X191390476Y-179764342D01*
X191390476Y-179764342D02*
X191438095Y-179859580D01*
X191438095Y-179859580D02*
X191485714Y-179907200D01*
X191485714Y-179907200D02*
X191580952Y-179954819D01*
X191580952Y-179954819D02*
X191866666Y-179954819D01*
X191866666Y-179954819D02*
X191961904Y-179907200D01*
X191961904Y-179907200D02*
X192009523Y-179859580D01*
X190914285Y-179954819D02*
X190723809Y-179954819D01*
X190723809Y-179954819D02*
X190628571Y-179907200D01*
X190628571Y-179907200D02*
X190580952Y-179859580D01*
X190580952Y-179859580D02*
X190485714Y-179716723D01*
X190485714Y-179716723D02*
X190438095Y-179526247D01*
X190438095Y-179526247D02*
X190438095Y-179145295D01*
X190438095Y-179145295D02*
X190485714Y-179050057D01*
X190485714Y-179050057D02*
X190533333Y-179002438D01*
X190533333Y-179002438D02*
X190628571Y-178954819D01*
X190628571Y-178954819D02*
X190819047Y-178954819D01*
X190819047Y-178954819D02*
X190914285Y-179002438D01*
X190914285Y-179002438D02*
X190961904Y-179050057D01*
X190961904Y-179050057D02*
X191009523Y-179145295D01*
X191009523Y-179145295D02*
X191009523Y-179383390D01*
X191009523Y-179383390D02*
X190961904Y-179478628D01*
X190961904Y-179478628D02*
X190914285Y-179526247D01*
X190914285Y-179526247D02*
X190819047Y-179573866D01*
X190819047Y-179573866D02*
X190628571Y-179573866D01*
X190628571Y-179573866D02*
X190533333Y-179526247D01*
X190533333Y-179526247D02*
X190485714Y-179478628D01*
X190485714Y-179478628D02*
X190438095Y-179383390D01*
X158742857Y-94659580D02*
X158790476Y-94707200D01*
X158790476Y-94707200D02*
X158933333Y-94754819D01*
X158933333Y-94754819D02*
X159028571Y-94754819D01*
X159028571Y-94754819D02*
X159171428Y-94707200D01*
X159171428Y-94707200D02*
X159266666Y-94611961D01*
X159266666Y-94611961D02*
X159314285Y-94516723D01*
X159314285Y-94516723D02*
X159361904Y-94326247D01*
X159361904Y-94326247D02*
X159361904Y-94183390D01*
X159361904Y-94183390D02*
X159314285Y-93992914D01*
X159314285Y-93992914D02*
X159266666Y-93897676D01*
X159266666Y-93897676D02*
X159171428Y-93802438D01*
X159171428Y-93802438D02*
X159028571Y-93754819D01*
X159028571Y-93754819D02*
X158933333Y-93754819D01*
X158933333Y-93754819D02*
X158790476Y-93802438D01*
X158790476Y-93802438D02*
X158742857Y-93850057D01*
X158409523Y-93754819D02*
X157790476Y-93754819D01*
X157790476Y-93754819D02*
X158123809Y-94135771D01*
X158123809Y-94135771D02*
X157980952Y-94135771D01*
X157980952Y-94135771D02*
X157885714Y-94183390D01*
X157885714Y-94183390D02*
X157838095Y-94231009D01*
X157838095Y-94231009D02*
X157790476Y-94326247D01*
X157790476Y-94326247D02*
X157790476Y-94564342D01*
X157790476Y-94564342D02*
X157838095Y-94659580D01*
X157838095Y-94659580D02*
X157885714Y-94707200D01*
X157885714Y-94707200D02*
X157980952Y-94754819D01*
X157980952Y-94754819D02*
X158266666Y-94754819D01*
X158266666Y-94754819D02*
X158361904Y-94707200D01*
X158361904Y-94707200D02*
X158409523Y-94659580D01*
X157409523Y-93850057D02*
X157361904Y-93802438D01*
X157361904Y-93802438D02*
X157266666Y-93754819D01*
X157266666Y-93754819D02*
X157028571Y-93754819D01*
X157028571Y-93754819D02*
X156933333Y-93802438D01*
X156933333Y-93802438D02*
X156885714Y-93850057D01*
X156885714Y-93850057D02*
X156838095Y-93945295D01*
X156838095Y-93945295D02*
X156838095Y-94040533D01*
X156838095Y-94040533D02*
X156885714Y-94183390D01*
X156885714Y-94183390D02*
X157457142Y-94754819D01*
X157457142Y-94754819D02*
X156838095Y-94754819D01*
X202142857Y-119259580D02*
X202190476Y-119307200D01*
X202190476Y-119307200D02*
X202333333Y-119354819D01*
X202333333Y-119354819D02*
X202428571Y-119354819D01*
X202428571Y-119354819D02*
X202571428Y-119307200D01*
X202571428Y-119307200D02*
X202666666Y-119211961D01*
X202666666Y-119211961D02*
X202714285Y-119116723D01*
X202714285Y-119116723D02*
X202761904Y-118926247D01*
X202761904Y-118926247D02*
X202761904Y-118783390D01*
X202761904Y-118783390D02*
X202714285Y-118592914D01*
X202714285Y-118592914D02*
X202666666Y-118497676D01*
X202666666Y-118497676D02*
X202571428Y-118402438D01*
X202571428Y-118402438D02*
X202428571Y-118354819D01*
X202428571Y-118354819D02*
X202333333Y-118354819D01*
X202333333Y-118354819D02*
X202190476Y-118402438D01*
X202190476Y-118402438D02*
X202142857Y-118450057D01*
X201285714Y-118688152D02*
X201285714Y-119354819D01*
X201523809Y-118307200D02*
X201761904Y-119021485D01*
X201761904Y-119021485D02*
X201142857Y-119021485D01*
X200238095Y-119354819D02*
X200809523Y-119354819D01*
X200523809Y-119354819D02*
X200523809Y-118354819D01*
X200523809Y-118354819D02*
X200619047Y-118497676D01*
X200619047Y-118497676D02*
X200714285Y-118592914D01*
X200714285Y-118592914D02*
X200809523Y-118640533D01*
X198442857Y-129159580D02*
X198490476Y-129207200D01*
X198490476Y-129207200D02*
X198633333Y-129254819D01*
X198633333Y-129254819D02*
X198728571Y-129254819D01*
X198728571Y-129254819D02*
X198871428Y-129207200D01*
X198871428Y-129207200D02*
X198966666Y-129111961D01*
X198966666Y-129111961D02*
X199014285Y-129016723D01*
X199014285Y-129016723D02*
X199061904Y-128826247D01*
X199061904Y-128826247D02*
X199061904Y-128683390D01*
X199061904Y-128683390D02*
X199014285Y-128492914D01*
X199014285Y-128492914D02*
X198966666Y-128397676D01*
X198966666Y-128397676D02*
X198871428Y-128302438D01*
X198871428Y-128302438D02*
X198728571Y-128254819D01*
X198728571Y-128254819D02*
X198633333Y-128254819D01*
X198633333Y-128254819D02*
X198490476Y-128302438D01*
X198490476Y-128302438D02*
X198442857Y-128350057D01*
X197585714Y-128588152D02*
X197585714Y-129254819D01*
X197823809Y-128207200D02*
X198061904Y-128921485D01*
X198061904Y-128921485D02*
X197442857Y-128921485D01*
X196633333Y-128254819D02*
X196823809Y-128254819D01*
X196823809Y-128254819D02*
X196919047Y-128302438D01*
X196919047Y-128302438D02*
X196966666Y-128350057D01*
X196966666Y-128350057D02*
X197061904Y-128492914D01*
X197061904Y-128492914D02*
X197109523Y-128683390D01*
X197109523Y-128683390D02*
X197109523Y-129064342D01*
X197109523Y-129064342D02*
X197061904Y-129159580D01*
X197061904Y-129159580D02*
X197014285Y-129207200D01*
X197014285Y-129207200D02*
X196919047Y-129254819D01*
X196919047Y-129254819D02*
X196728571Y-129254819D01*
X196728571Y-129254819D02*
X196633333Y-129207200D01*
X196633333Y-129207200D02*
X196585714Y-129159580D01*
X196585714Y-129159580D02*
X196538095Y-129064342D01*
X196538095Y-129064342D02*
X196538095Y-128826247D01*
X196538095Y-128826247D02*
X196585714Y-128731009D01*
X196585714Y-128731009D02*
X196633333Y-128683390D01*
X196633333Y-128683390D02*
X196728571Y-128635771D01*
X196728571Y-128635771D02*
X196919047Y-128635771D01*
X196919047Y-128635771D02*
X197014285Y-128683390D01*
X197014285Y-128683390D02*
X197061904Y-128731009D01*
X197061904Y-128731009D02*
X197109523Y-128826247D01*
X101838094Y-175354819D02*
X101838094Y-174354819D01*
X101838094Y-174354819D02*
X101599999Y-174354819D01*
X101599999Y-174354819D02*
X101457142Y-174402438D01*
X101457142Y-174402438D02*
X101361904Y-174497676D01*
X101361904Y-174497676D02*
X101314285Y-174592914D01*
X101314285Y-174592914D02*
X101266666Y-174783390D01*
X101266666Y-174783390D02*
X101266666Y-174926247D01*
X101266666Y-174926247D02*
X101314285Y-175116723D01*
X101314285Y-175116723D02*
X101361904Y-175211961D01*
X101361904Y-175211961D02*
X101457142Y-175307200D01*
X101457142Y-175307200D02*
X101599999Y-175354819D01*
X101599999Y-175354819D02*
X101838094Y-175354819D01*
X100409523Y-174688152D02*
X100409523Y-175354819D01*
X100647618Y-174307200D02*
X100885713Y-175021485D01*
X100885713Y-175021485D02*
X100266666Y-175021485D01*
X114242857Y-187554819D02*
X114576190Y-187078628D01*
X114814285Y-187554819D02*
X114814285Y-186554819D01*
X114814285Y-186554819D02*
X114433333Y-186554819D01*
X114433333Y-186554819D02*
X114338095Y-186602438D01*
X114338095Y-186602438D02*
X114290476Y-186650057D01*
X114290476Y-186650057D02*
X114242857Y-186745295D01*
X114242857Y-186745295D02*
X114242857Y-186888152D01*
X114242857Y-186888152D02*
X114290476Y-186983390D01*
X114290476Y-186983390D02*
X114338095Y-187031009D01*
X114338095Y-187031009D02*
X114433333Y-187078628D01*
X114433333Y-187078628D02*
X114814285Y-187078628D01*
X113290476Y-187554819D02*
X113861904Y-187554819D01*
X113576190Y-187554819D02*
X113576190Y-186554819D01*
X113576190Y-186554819D02*
X113671428Y-186697676D01*
X113671428Y-186697676D02*
X113766666Y-186792914D01*
X113766666Y-186792914D02*
X113861904Y-186840533D01*
X112385714Y-186554819D02*
X112861904Y-186554819D01*
X112861904Y-186554819D02*
X112909523Y-187031009D01*
X112909523Y-187031009D02*
X112861904Y-186983390D01*
X112861904Y-186983390D02*
X112766666Y-186935771D01*
X112766666Y-186935771D02*
X112528571Y-186935771D01*
X112528571Y-186935771D02*
X112433333Y-186983390D01*
X112433333Y-186983390D02*
X112385714Y-187031009D01*
X112385714Y-187031009D02*
X112338095Y-187126247D01*
X112338095Y-187126247D02*
X112338095Y-187364342D01*
X112338095Y-187364342D02*
X112385714Y-187459580D01*
X112385714Y-187459580D02*
X112433333Y-187507200D01*
X112433333Y-187507200D02*
X112528571Y-187554819D01*
X112528571Y-187554819D02*
X112766666Y-187554819D01*
X112766666Y-187554819D02*
X112861904Y-187507200D01*
X112861904Y-187507200D02*
X112909523Y-187459580D01*
X203942857Y-182154819D02*
X204276190Y-181678628D01*
X204514285Y-182154819D02*
X204514285Y-181154819D01*
X204514285Y-181154819D02*
X204133333Y-181154819D01*
X204133333Y-181154819D02*
X204038095Y-181202438D01*
X204038095Y-181202438D02*
X203990476Y-181250057D01*
X203990476Y-181250057D02*
X203942857Y-181345295D01*
X203942857Y-181345295D02*
X203942857Y-181488152D01*
X203942857Y-181488152D02*
X203990476Y-181583390D01*
X203990476Y-181583390D02*
X204038095Y-181631009D01*
X204038095Y-181631009D02*
X204133333Y-181678628D01*
X204133333Y-181678628D02*
X204514285Y-181678628D01*
X203609523Y-181154819D02*
X202990476Y-181154819D01*
X202990476Y-181154819D02*
X203323809Y-181535771D01*
X203323809Y-181535771D02*
X203180952Y-181535771D01*
X203180952Y-181535771D02*
X203085714Y-181583390D01*
X203085714Y-181583390D02*
X203038095Y-181631009D01*
X203038095Y-181631009D02*
X202990476Y-181726247D01*
X202990476Y-181726247D02*
X202990476Y-181964342D01*
X202990476Y-181964342D02*
X203038095Y-182059580D01*
X203038095Y-182059580D02*
X203085714Y-182107200D01*
X203085714Y-182107200D02*
X203180952Y-182154819D01*
X203180952Y-182154819D02*
X203466666Y-182154819D01*
X203466666Y-182154819D02*
X203561904Y-182107200D01*
X203561904Y-182107200D02*
X203609523Y-182059580D01*
X202419047Y-181583390D02*
X202514285Y-181535771D01*
X202514285Y-181535771D02*
X202561904Y-181488152D01*
X202561904Y-181488152D02*
X202609523Y-181392914D01*
X202609523Y-181392914D02*
X202609523Y-181345295D01*
X202609523Y-181345295D02*
X202561904Y-181250057D01*
X202561904Y-181250057D02*
X202514285Y-181202438D01*
X202514285Y-181202438D02*
X202419047Y-181154819D01*
X202419047Y-181154819D02*
X202228571Y-181154819D01*
X202228571Y-181154819D02*
X202133333Y-181202438D01*
X202133333Y-181202438D02*
X202085714Y-181250057D01*
X202085714Y-181250057D02*
X202038095Y-181345295D01*
X202038095Y-181345295D02*
X202038095Y-181392914D01*
X202038095Y-181392914D02*
X202085714Y-181488152D01*
X202085714Y-181488152D02*
X202133333Y-181535771D01*
X202133333Y-181535771D02*
X202228571Y-181583390D01*
X202228571Y-181583390D02*
X202419047Y-181583390D01*
X202419047Y-181583390D02*
X202514285Y-181631009D01*
X202514285Y-181631009D02*
X202561904Y-181678628D01*
X202561904Y-181678628D02*
X202609523Y-181773866D01*
X202609523Y-181773866D02*
X202609523Y-181964342D01*
X202609523Y-181964342D02*
X202561904Y-182059580D01*
X202561904Y-182059580D02*
X202514285Y-182107200D01*
X202514285Y-182107200D02*
X202419047Y-182154819D01*
X202419047Y-182154819D02*
X202228571Y-182154819D01*
X202228571Y-182154819D02*
X202133333Y-182107200D01*
X202133333Y-182107200D02*
X202085714Y-182059580D01*
X202085714Y-182059580D02*
X202038095Y-181964342D01*
X202038095Y-181964342D02*
X202038095Y-181773866D01*
X202038095Y-181773866D02*
X202085714Y-181678628D01*
X202085714Y-181678628D02*
X202133333Y-181631009D01*
X202133333Y-181631009D02*
X202228571Y-181583390D01*
X147642857Y-100859580D02*
X147690476Y-100907200D01*
X147690476Y-100907200D02*
X147833333Y-100954819D01*
X147833333Y-100954819D02*
X147928571Y-100954819D01*
X147928571Y-100954819D02*
X148071428Y-100907200D01*
X148071428Y-100907200D02*
X148166666Y-100811961D01*
X148166666Y-100811961D02*
X148214285Y-100716723D01*
X148214285Y-100716723D02*
X148261904Y-100526247D01*
X148261904Y-100526247D02*
X148261904Y-100383390D01*
X148261904Y-100383390D02*
X148214285Y-100192914D01*
X148214285Y-100192914D02*
X148166666Y-100097676D01*
X148166666Y-100097676D02*
X148071428Y-100002438D01*
X148071428Y-100002438D02*
X147928571Y-99954819D01*
X147928571Y-99954819D02*
X147833333Y-99954819D01*
X147833333Y-99954819D02*
X147690476Y-100002438D01*
X147690476Y-100002438D02*
X147642857Y-100050057D01*
X147309523Y-99954819D02*
X146690476Y-99954819D01*
X146690476Y-99954819D02*
X147023809Y-100335771D01*
X147023809Y-100335771D02*
X146880952Y-100335771D01*
X146880952Y-100335771D02*
X146785714Y-100383390D01*
X146785714Y-100383390D02*
X146738095Y-100431009D01*
X146738095Y-100431009D02*
X146690476Y-100526247D01*
X146690476Y-100526247D02*
X146690476Y-100764342D01*
X146690476Y-100764342D02*
X146738095Y-100859580D01*
X146738095Y-100859580D02*
X146785714Y-100907200D01*
X146785714Y-100907200D02*
X146880952Y-100954819D01*
X146880952Y-100954819D02*
X147166666Y-100954819D01*
X147166666Y-100954819D02*
X147261904Y-100907200D01*
X147261904Y-100907200D02*
X147309523Y-100859580D01*
X146071428Y-99954819D02*
X145976190Y-99954819D01*
X145976190Y-99954819D02*
X145880952Y-100002438D01*
X145880952Y-100002438D02*
X145833333Y-100050057D01*
X145833333Y-100050057D02*
X145785714Y-100145295D01*
X145785714Y-100145295D02*
X145738095Y-100335771D01*
X145738095Y-100335771D02*
X145738095Y-100573866D01*
X145738095Y-100573866D02*
X145785714Y-100764342D01*
X145785714Y-100764342D02*
X145833333Y-100859580D01*
X145833333Y-100859580D02*
X145880952Y-100907200D01*
X145880952Y-100907200D02*
X145976190Y-100954819D01*
X145976190Y-100954819D02*
X146071428Y-100954819D01*
X146071428Y-100954819D02*
X146166666Y-100907200D01*
X146166666Y-100907200D02*
X146214285Y-100859580D01*
X146214285Y-100859580D02*
X146261904Y-100764342D01*
X146261904Y-100764342D02*
X146309523Y-100573866D01*
X146309523Y-100573866D02*
X146309523Y-100335771D01*
X146309523Y-100335771D02*
X146261904Y-100145295D01*
X146261904Y-100145295D02*
X146214285Y-100050057D01*
X146214285Y-100050057D02*
X146166666Y-100002438D01*
X146166666Y-100002438D02*
X146071428Y-99954819D01*
X135838094Y-174854819D02*
X135838094Y-173854819D01*
X135838094Y-173854819D02*
X135599999Y-173854819D01*
X135599999Y-173854819D02*
X135457142Y-173902438D01*
X135457142Y-173902438D02*
X135361904Y-173997676D01*
X135361904Y-173997676D02*
X135314285Y-174092914D01*
X135314285Y-174092914D02*
X135266666Y-174283390D01*
X135266666Y-174283390D02*
X135266666Y-174426247D01*
X135266666Y-174426247D02*
X135314285Y-174616723D01*
X135314285Y-174616723D02*
X135361904Y-174711961D01*
X135361904Y-174711961D02*
X135457142Y-174807200D01*
X135457142Y-174807200D02*
X135599999Y-174854819D01*
X135599999Y-174854819D02*
X135838094Y-174854819D01*
X134409523Y-173854819D02*
X134599999Y-173854819D01*
X134599999Y-173854819D02*
X134695237Y-173902438D01*
X134695237Y-173902438D02*
X134742856Y-173950057D01*
X134742856Y-173950057D02*
X134838094Y-174092914D01*
X134838094Y-174092914D02*
X134885713Y-174283390D01*
X134885713Y-174283390D02*
X134885713Y-174664342D01*
X134885713Y-174664342D02*
X134838094Y-174759580D01*
X134838094Y-174759580D02*
X134790475Y-174807200D01*
X134790475Y-174807200D02*
X134695237Y-174854819D01*
X134695237Y-174854819D02*
X134504761Y-174854819D01*
X134504761Y-174854819D02*
X134409523Y-174807200D01*
X134409523Y-174807200D02*
X134361904Y-174759580D01*
X134361904Y-174759580D02*
X134314285Y-174664342D01*
X134314285Y-174664342D02*
X134314285Y-174426247D01*
X134314285Y-174426247D02*
X134361904Y-174331009D01*
X134361904Y-174331009D02*
X134409523Y-174283390D01*
X134409523Y-174283390D02*
X134504761Y-174235771D01*
X134504761Y-174235771D02*
X134695237Y-174235771D01*
X134695237Y-174235771D02*
X134790475Y-174283390D01*
X134790475Y-174283390D02*
X134838094Y-174331009D01*
X134838094Y-174331009D02*
X134885713Y-174426247D01*
X79242857Y-187554819D02*
X79576190Y-187078628D01*
X79814285Y-187554819D02*
X79814285Y-186554819D01*
X79814285Y-186554819D02*
X79433333Y-186554819D01*
X79433333Y-186554819D02*
X79338095Y-186602438D01*
X79338095Y-186602438D02*
X79290476Y-186650057D01*
X79290476Y-186650057D02*
X79242857Y-186745295D01*
X79242857Y-186745295D02*
X79242857Y-186888152D01*
X79242857Y-186888152D02*
X79290476Y-186983390D01*
X79290476Y-186983390D02*
X79338095Y-187031009D01*
X79338095Y-187031009D02*
X79433333Y-187078628D01*
X79433333Y-187078628D02*
X79814285Y-187078628D01*
X78290476Y-187554819D02*
X78861904Y-187554819D01*
X78576190Y-187554819D02*
X78576190Y-186554819D01*
X78576190Y-186554819D02*
X78671428Y-186697676D01*
X78671428Y-186697676D02*
X78766666Y-186792914D01*
X78766666Y-186792914D02*
X78861904Y-186840533D01*
X77909523Y-186650057D02*
X77861904Y-186602438D01*
X77861904Y-186602438D02*
X77766666Y-186554819D01*
X77766666Y-186554819D02*
X77528571Y-186554819D01*
X77528571Y-186554819D02*
X77433333Y-186602438D01*
X77433333Y-186602438D02*
X77385714Y-186650057D01*
X77385714Y-186650057D02*
X77338095Y-186745295D01*
X77338095Y-186745295D02*
X77338095Y-186840533D01*
X77338095Y-186840533D02*
X77385714Y-186983390D01*
X77385714Y-186983390D02*
X77957142Y-187554819D01*
X77957142Y-187554819D02*
X77338095Y-187554819D01*
X184066666Y-128659580D02*
X184114285Y-128707200D01*
X184114285Y-128707200D02*
X184257142Y-128754819D01*
X184257142Y-128754819D02*
X184352380Y-128754819D01*
X184352380Y-128754819D02*
X184495237Y-128707200D01*
X184495237Y-128707200D02*
X184590475Y-128611961D01*
X184590475Y-128611961D02*
X184638094Y-128516723D01*
X184638094Y-128516723D02*
X184685713Y-128326247D01*
X184685713Y-128326247D02*
X184685713Y-128183390D01*
X184685713Y-128183390D02*
X184638094Y-127992914D01*
X184638094Y-127992914D02*
X184590475Y-127897676D01*
X184590475Y-127897676D02*
X184495237Y-127802438D01*
X184495237Y-127802438D02*
X184352380Y-127754819D01*
X184352380Y-127754819D02*
X184257142Y-127754819D01*
X184257142Y-127754819D02*
X184114285Y-127802438D01*
X184114285Y-127802438D02*
X184066666Y-127850057D01*
X183209523Y-128088152D02*
X183209523Y-128754819D01*
X183447618Y-127707200D02*
X183685713Y-128421485D01*
X183685713Y-128421485D02*
X183066666Y-128421485D01*
X198566666Y-157954819D02*
X198899999Y-157478628D01*
X199138094Y-157954819D02*
X199138094Y-156954819D01*
X199138094Y-156954819D02*
X198757142Y-156954819D01*
X198757142Y-156954819D02*
X198661904Y-157002438D01*
X198661904Y-157002438D02*
X198614285Y-157050057D01*
X198614285Y-157050057D02*
X198566666Y-157145295D01*
X198566666Y-157145295D02*
X198566666Y-157288152D01*
X198566666Y-157288152D02*
X198614285Y-157383390D01*
X198614285Y-157383390D02*
X198661904Y-157431009D01*
X198661904Y-157431009D02*
X198757142Y-157478628D01*
X198757142Y-157478628D02*
X199138094Y-157478628D01*
X197709523Y-157288152D02*
X197709523Y-157954819D01*
X197947618Y-156907200D02*
X198185713Y-157621485D01*
X198185713Y-157621485D02*
X197566666Y-157621485D01*
X89342857Y-107629819D02*
X89676190Y-107153628D01*
X89914285Y-107629819D02*
X89914285Y-106629819D01*
X89914285Y-106629819D02*
X89533333Y-106629819D01*
X89533333Y-106629819D02*
X89438095Y-106677438D01*
X89438095Y-106677438D02*
X89390476Y-106725057D01*
X89390476Y-106725057D02*
X89342857Y-106820295D01*
X89342857Y-106820295D02*
X89342857Y-106963152D01*
X89342857Y-106963152D02*
X89390476Y-107058390D01*
X89390476Y-107058390D02*
X89438095Y-107106009D01*
X89438095Y-107106009D02*
X89533333Y-107153628D01*
X89533333Y-107153628D02*
X89914285Y-107153628D01*
X88961904Y-106725057D02*
X88914285Y-106677438D01*
X88914285Y-106677438D02*
X88819047Y-106629819D01*
X88819047Y-106629819D02*
X88580952Y-106629819D01*
X88580952Y-106629819D02*
X88485714Y-106677438D01*
X88485714Y-106677438D02*
X88438095Y-106725057D01*
X88438095Y-106725057D02*
X88390476Y-106820295D01*
X88390476Y-106820295D02*
X88390476Y-106915533D01*
X88390476Y-106915533D02*
X88438095Y-107058390D01*
X88438095Y-107058390D02*
X89009523Y-107629819D01*
X89009523Y-107629819D02*
X88390476Y-107629819D01*
X88057142Y-106629819D02*
X87390476Y-106629819D01*
X87390476Y-106629819D02*
X87819047Y-107629819D01*
X95142857Y-176054819D02*
X95476190Y-175578628D01*
X95714285Y-176054819D02*
X95714285Y-175054819D01*
X95714285Y-175054819D02*
X95333333Y-175054819D01*
X95333333Y-175054819D02*
X95238095Y-175102438D01*
X95238095Y-175102438D02*
X95190476Y-175150057D01*
X95190476Y-175150057D02*
X95142857Y-175245295D01*
X95142857Y-175245295D02*
X95142857Y-175388152D01*
X95142857Y-175388152D02*
X95190476Y-175483390D01*
X95190476Y-175483390D02*
X95238095Y-175531009D01*
X95238095Y-175531009D02*
X95333333Y-175578628D01*
X95333333Y-175578628D02*
X95714285Y-175578628D01*
X94761904Y-175150057D02*
X94714285Y-175102438D01*
X94714285Y-175102438D02*
X94619047Y-175054819D01*
X94619047Y-175054819D02*
X94380952Y-175054819D01*
X94380952Y-175054819D02*
X94285714Y-175102438D01*
X94285714Y-175102438D02*
X94238095Y-175150057D01*
X94238095Y-175150057D02*
X94190476Y-175245295D01*
X94190476Y-175245295D02*
X94190476Y-175340533D01*
X94190476Y-175340533D02*
X94238095Y-175483390D01*
X94238095Y-175483390D02*
X94809523Y-176054819D01*
X94809523Y-176054819D02*
X94190476Y-176054819D01*
X93571428Y-175054819D02*
X93476190Y-175054819D01*
X93476190Y-175054819D02*
X93380952Y-175102438D01*
X93380952Y-175102438D02*
X93333333Y-175150057D01*
X93333333Y-175150057D02*
X93285714Y-175245295D01*
X93285714Y-175245295D02*
X93238095Y-175435771D01*
X93238095Y-175435771D02*
X93238095Y-175673866D01*
X93238095Y-175673866D02*
X93285714Y-175864342D01*
X93285714Y-175864342D02*
X93333333Y-175959580D01*
X93333333Y-175959580D02*
X93380952Y-176007200D01*
X93380952Y-176007200D02*
X93476190Y-176054819D01*
X93476190Y-176054819D02*
X93571428Y-176054819D01*
X93571428Y-176054819D02*
X93666666Y-176007200D01*
X93666666Y-176007200D02*
X93714285Y-175959580D01*
X93714285Y-175959580D02*
X93761904Y-175864342D01*
X93761904Y-175864342D02*
X93809523Y-175673866D01*
X93809523Y-175673866D02*
X93809523Y-175435771D01*
X93809523Y-175435771D02*
X93761904Y-175245295D01*
X93761904Y-175245295D02*
X93714285Y-175150057D01*
X93714285Y-175150057D02*
X93666666Y-175102438D01*
X93666666Y-175102438D02*
X93571428Y-175054819D01*
X100642857Y-107359580D02*
X100690476Y-107407200D01*
X100690476Y-107407200D02*
X100833333Y-107454819D01*
X100833333Y-107454819D02*
X100928571Y-107454819D01*
X100928571Y-107454819D02*
X101071428Y-107407200D01*
X101071428Y-107407200D02*
X101166666Y-107311961D01*
X101166666Y-107311961D02*
X101214285Y-107216723D01*
X101214285Y-107216723D02*
X101261904Y-107026247D01*
X101261904Y-107026247D02*
X101261904Y-106883390D01*
X101261904Y-106883390D02*
X101214285Y-106692914D01*
X101214285Y-106692914D02*
X101166666Y-106597676D01*
X101166666Y-106597676D02*
X101071428Y-106502438D01*
X101071428Y-106502438D02*
X100928571Y-106454819D01*
X100928571Y-106454819D02*
X100833333Y-106454819D01*
X100833333Y-106454819D02*
X100690476Y-106502438D01*
X100690476Y-106502438D02*
X100642857Y-106550057D01*
X100309523Y-106454819D02*
X99690476Y-106454819D01*
X99690476Y-106454819D02*
X100023809Y-106835771D01*
X100023809Y-106835771D02*
X99880952Y-106835771D01*
X99880952Y-106835771D02*
X99785714Y-106883390D01*
X99785714Y-106883390D02*
X99738095Y-106931009D01*
X99738095Y-106931009D02*
X99690476Y-107026247D01*
X99690476Y-107026247D02*
X99690476Y-107264342D01*
X99690476Y-107264342D02*
X99738095Y-107359580D01*
X99738095Y-107359580D02*
X99785714Y-107407200D01*
X99785714Y-107407200D02*
X99880952Y-107454819D01*
X99880952Y-107454819D02*
X100166666Y-107454819D01*
X100166666Y-107454819D02*
X100261904Y-107407200D01*
X100261904Y-107407200D02*
X100309523Y-107359580D01*
X99214285Y-107454819D02*
X99023809Y-107454819D01*
X99023809Y-107454819D02*
X98928571Y-107407200D01*
X98928571Y-107407200D02*
X98880952Y-107359580D01*
X98880952Y-107359580D02*
X98785714Y-107216723D01*
X98785714Y-107216723D02*
X98738095Y-107026247D01*
X98738095Y-107026247D02*
X98738095Y-106645295D01*
X98738095Y-106645295D02*
X98785714Y-106550057D01*
X98785714Y-106550057D02*
X98833333Y-106502438D01*
X98833333Y-106502438D02*
X98928571Y-106454819D01*
X98928571Y-106454819D02*
X99119047Y-106454819D01*
X99119047Y-106454819D02*
X99214285Y-106502438D01*
X99214285Y-106502438D02*
X99261904Y-106550057D01*
X99261904Y-106550057D02*
X99309523Y-106645295D01*
X99309523Y-106645295D02*
X99309523Y-106883390D01*
X99309523Y-106883390D02*
X99261904Y-106978628D01*
X99261904Y-106978628D02*
X99214285Y-107026247D01*
X99214285Y-107026247D02*
X99119047Y-107073866D01*
X99119047Y-107073866D02*
X98928571Y-107073866D01*
X98928571Y-107073866D02*
X98833333Y-107026247D01*
X98833333Y-107026247D02*
X98785714Y-106978628D01*
X98785714Y-106978628D02*
X98738095Y-106883390D01*
D11*
%TO.C,C42*%
X104275000Y-110234420D02*
X104275000Y-110515580D01*
X105295000Y-110234420D02*
X105295000Y-110515580D01*
%TO.C,R18*%
X152172936Y-186565000D02*
X152627064Y-186565000D01*
X152172936Y-188035000D02*
X152627064Y-188035000D01*
%TO.C,C38*%
X193890000Y-120715580D02*
X193890000Y-120434420D01*
X194910000Y-120715580D02*
X194910000Y-120434420D01*
%TO.C,D3*%
X62390000Y-176250000D02*
X62390000Y-179550000D01*
X67900000Y-176250000D02*
X62390000Y-176250000D01*
X67900000Y-179550000D02*
X62390000Y-179550000D01*
%TO.C,C36*%
X195490000Y-120740580D02*
X195490000Y-120459420D01*
X196510000Y-120740580D02*
X196510000Y-120459420D01*
%TO.C,C37*%
X201559420Y-115390000D02*
X201840580Y-115390000D01*
X201559420Y-116410000D02*
X201840580Y-116410000D01*
%TO.C,C12*%
X77140000Y-142588748D02*
X77140000Y-144011252D01*
X79860000Y-142588748D02*
X79860000Y-144011252D01*
%TO.C,C17*%
X130088748Y-154940000D02*
X131511252Y-154940000D01*
X130088748Y-157660000D02*
X131511252Y-157660000D01*
%TO.C,R5*%
X104665000Y-152527064D02*
X104665000Y-152072936D01*
X106135000Y-152527064D02*
X106135000Y-152072936D01*
%TO.C,JP1*%
X202357500Y-101250000D02*
X204357500Y-101250000D01*
X202357500Y-105350000D02*
X202357500Y-101250000D01*
X204357500Y-101250000D02*
X204357500Y-105350000D01*
X204357500Y-105350000D02*
X202357500Y-105350000D01*
X204857500Y-101700000D02*
X204557500Y-102000000D01*
X204857500Y-102300000D02*
X204557500Y-102000000D01*
X204857500Y-102300000D02*
X204857500Y-101700000D01*
%TO.C,C33*%
X190290000Y-121340580D02*
X190290000Y-121059420D01*
X191310000Y-121340580D02*
X191310000Y-121059420D01*
%TO.C,C54*%
X166340000Y-143153929D02*
X166340000Y-141731425D01*
X169060000Y-143153929D02*
X169060000Y-141731425D01*
%TO.C,C10*%
X105990000Y-148940580D02*
X105990000Y-148659420D01*
X107010000Y-148940580D02*
X107010000Y-148659420D01*
%TO.C,C7*%
X192890000Y-130659420D02*
X192890000Y-130940580D01*
X193910000Y-130659420D02*
X193910000Y-130940580D01*
%TO.C,C34*%
X188690000Y-121365580D02*
X188690000Y-121084420D01*
X189710000Y-121365580D02*
X189710000Y-121084420D01*
%TO.C,U9*%
X116620000Y-173710000D02*
X118500000Y-173710000D01*
X116620000Y-178890000D02*
X118500000Y-178890000D01*
X120380000Y-173710000D02*
X118500000Y-173710000D01*
X120380000Y-178890000D02*
X118500000Y-178890000D01*
X116037500Y-179120000D02*
X115557500Y-179120000D01*
X115797500Y-178790000D01*
X116037500Y-179120000D01*
G36*
X116037500Y-179120000D02*
G01*
X115557500Y-179120000D01*
X115797500Y-178790000D01*
X116037500Y-179120000D01*
G37*
%TO.C,C8*%
X191590000Y-151240580D02*
X191590000Y-150959420D01*
X192610000Y-151240580D02*
X192610000Y-150959420D01*
%TO.C,R19*%
X60272936Y-177265000D02*
X60727064Y-177265000D01*
X60272936Y-178735000D02*
X60727064Y-178735000D01*
%TO.C,C26*%
X126990000Y-105690580D02*
X126990000Y-105409420D01*
X128010000Y-105690580D02*
X128010000Y-105409420D01*
%TO.C,C25*%
X133415580Y-101440000D02*
X133134420Y-101440000D01*
X133415580Y-102460000D02*
X133134420Y-102460000D01*
%TO.C,C52*%
X156084420Y-147815000D02*
X156365580Y-147815000D01*
X156084420Y-148835000D02*
X156365580Y-148835000D01*
%TO.C,R21*%
X129260436Y-177165000D02*
X129714564Y-177165000D01*
X129260436Y-178635000D02*
X129714564Y-178635000D01*
%TO.C,U10*%
X151720000Y-174010000D02*
X153600000Y-174010000D01*
X151720000Y-179190000D02*
X153600000Y-179190000D01*
X155480000Y-174010000D02*
X153600000Y-174010000D01*
X155480000Y-179190000D02*
X153600000Y-179190000D01*
X151137500Y-179420000D02*
X150657500Y-179420000D01*
X150897500Y-179090000D01*
X151137500Y-179420000D01*
G36*
X151137500Y-179420000D02*
G01*
X150657500Y-179420000D01*
X150897500Y-179090000D01*
X151137500Y-179420000D01*
G37*
%TO.C,C6*%
X177440000Y-123611252D02*
X177440000Y-122188748D01*
X180160000Y-123611252D02*
X180160000Y-122188748D01*
%TO.C,C43*%
X107075000Y-110234420D02*
X107075000Y-110515580D01*
X108095000Y-110234420D02*
X108095000Y-110515580D01*
%TO.C,C29*%
X139615580Y-93890000D02*
X139334420Y-93890000D01*
X139615580Y-94910000D02*
X139334420Y-94910000D01*
%TO.C,C27*%
X142909420Y-101452500D02*
X143190580Y-101452500D01*
X142909420Y-102472500D02*
X143190580Y-102472500D01*
%TO.C,U7*%
X81320000Y-173410000D02*
X83200000Y-173410000D01*
X81320000Y-178590000D02*
X83200000Y-178590000D01*
X85080000Y-173410000D02*
X83200000Y-173410000D01*
X85080000Y-178590000D02*
X83200000Y-178590000D01*
X80737500Y-178820000D02*
X80257500Y-178820000D01*
X80497500Y-178490000D01*
X80737500Y-178820000D01*
G36*
X80737500Y-178820000D02*
G01*
X80257500Y-178820000D01*
X80497500Y-178490000D01*
X80737500Y-178820000D01*
G37*
%TO.C,D14*%
X195850000Y-179100000D02*
X195850000Y-173590000D01*
X199150000Y-173590000D02*
X195850000Y-173590000D01*
X199150000Y-179100000D02*
X199150000Y-173590000D01*
%TO.C,R28*%
X113050000Y-105527064D02*
X113050000Y-105072936D01*
X114520000Y-105527064D02*
X114520000Y-105072936D01*
%TO.C,C31*%
X150009420Y-97352500D02*
X150290580Y-97352500D01*
X150009420Y-98372500D02*
X150290580Y-98372500D01*
%TO.C,D12*%
X91535000Y-95050000D02*
X91535000Y-92390000D01*
X93235000Y-92390000D02*
X91535000Y-92390000D01*
X93235000Y-95050000D02*
X93235000Y-92390000D01*
%TO.C,C40*%
X119290000Y-105540580D02*
X119290000Y-105259420D01*
X120310000Y-105540580D02*
X120310000Y-105259420D01*
%TO.C,D15*%
X165690000Y-179350000D02*
X165690000Y-182650000D01*
X171200000Y-179350000D02*
X165690000Y-179350000D01*
X171200000Y-182650000D02*
X165690000Y-182650000D01*
%TO.C,D16*%
X177090000Y-179250000D02*
X177090000Y-182550000D01*
X182600000Y-179250000D02*
X177090000Y-179250000D01*
X182600000Y-182550000D02*
X177090000Y-182550000D01*
%TO.C,R22*%
X142722936Y-98627500D02*
X143177064Y-98627500D01*
X142722936Y-100097500D02*
X143177064Y-100097500D01*
%TO.C,R41*%
X144190000Y-150552064D02*
X144190000Y-150097936D01*
X145660000Y-150552064D02*
X145660000Y-150097936D01*
%TO.C,R32*%
X202372936Y-123665000D02*
X202827064Y-123665000D01*
X202372936Y-125135000D02*
X202827064Y-125135000D01*
%TO.C,C15*%
X106588748Y-163240000D02*
X108011252Y-163240000D01*
X106588748Y-165960000D02*
X108011252Y-165960000D01*
%TO.C,C44*%
X198690000Y-124340580D02*
X198690000Y-124059420D01*
X199710000Y-124340580D02*
X199710000Y-124059420D01*
%TO.C,C24*%
X133415580Y-98940000D02*
X133134420Y-98940000D01*
X133415580Y-99960000D02*
X133134420Y-99960000D01*
%TO.C,D13*%
X199550000Y-179100000D02*
X199550000Y-173590000D01*
X202850000Y-173590000D02*
X199550000Y-173590000D01*
X202850000Y-179100000D02*
X202850000Y-173590000D01*
%TO.C,C28*%
X142434420Y-93890000D02*
X142715580Y-93890000D01*
X142434420Y-94910000D02*
X142715580Y-94910000D01*
%TO.C,R39*%
X193865000Y-178627064D02*
X193865000Y-178172936D01*
X195335000Y-178627064D02*
X195335000Y-178172936D01*
%TO.C,C32*%
X155240000Y-94221920D02*
X155240000Y-94503080D01*
X156260000Y-94221920D02*
X156260000Y-94503080D01*
%TO.C,C41*%
X201640580Y-119890000D02*
X201359420Y-119890000D01*
X201640580Y-120910000D02*
X201359420Y-120910000D01*
%TO.C,C46*%
X197459420Y-126690000D02*
X197740580Y-126690000D01*
X197459420Y-127710000D02*
X197740580Y-127710000D01*
%TO.C,D4*%
X99100000Y-176150000D02*
X104610000Y-176150000D01*
X99100000Y-179450000D02*
X104610000Y-179450000D01*
X104610000Y-179450000D02*
X104610000Y-176150000D01*
%TO.C,R15*%
X117272936Y-186365000D02*
X117727064Y-186365000D01*
X117272936Y-187835000D02*
X117727064Y-187835000D01*
%TO.C,R38*%
X203265000Y-178827064D02*
X203265000Y-178372936D01*
X204735000Y-178827064D02*
X204735000Y-178372936D01*
%TO.C,C30*%
X150009420Y-99852500D02*
X150290580Y-99852500D01*
X150009420Y-100872500D02*
X150290580Y-100872500D01*
%TO.C,D6*%
X133100000Y-175450000D02*
X138610000Y-175450000D01*
X133100000Y-178750000D02*
X138610000Y-178750000D01*
X138610000Y-178750000D02*
X138610000Y-175450000D01*
%TO.C,R12*%
X82372936Y-186565000D02*
X82827064Y-186565000D01*
X82372936Y-188035000D02*
X82827064Y-188035000D01*
%TO.C,C4*%
X185090000Y-128259420D02*
X185090000Y-128540580D01*
X186110000Y-128259420D02*
X186110000Y-128540580D01*
%TO.C,R4*%
X198172936Y-154965000D02*
X198627064Y-154965000D01*
X198172936Y-156435000D02*
X198627064Y-156435000D01*
%TO.C,R27*%
X90650000Y-106947936D02*
X90650000Y-107402064D01*
X92120000Y-106947936D02*
X92120000Y-107402064D01*
%TO.C,R20*%
X94272936Y-176965000D02*
X94727064Y-176965000D01*
X94272936Y-178435000D02*
X94727064Y-178435000D01*
%TO.C,C39*%
X97075000Y-106809420D02*
X97075000Y-107090580D01*
X98095000Y-106809420D02*
X98095000Y-107090580D01*
%TD*%
M02*
