M48
; DRILL file {KiCad 8.0.3-8.0.3-0~ubuntu22.04.1} date 2024-07-10T15:47:11+0300
; FORMAT={-:-/ absolute / inch / decimal}
; #@! TF.CreationDate,2024-07-10T15:47:11+03:00
; #@! TF.GenerationSoftware,Kicad,Pcbnew,8.0.3-8.0.3-0~ubuntu22.04.1
; #@! TF.FileFunction,Plated,1,4,PTH
FMAT,2
INCH
; #@! TA.AperFunction,Plated,PTH,ViaDrill
T1C0.0157
; #@! TA.AperFunction,Plated,PTH,ComponentDrill
T2C0.0315
; #@! TA.AperFunction,Plated,PTH,ComponentDrill
T3C0.0354
; #@! TA.AperFunction,Plated,PTH,ComponentDrill
T4C0.0362
; #@! TA.AperFunction,Plated,PTH,ComponentDrill
T5C0.0374
; #@! TA.AperFunction,Plated,PTH,ComponentDrill
T6C0.0394
; #@! TA.AperFunction,Plated,PTH,ComponentDrill
T7C0.0610
; #@! TA.AperFunction,Plated,PTH,ComponentDrill
T8C0.0630
; #@! TA.AperFunction,Plated,PTH,ComponentDrill
T9C0.0827
; #@! TA.AperFunction,Plated,PTH,ComponentDrill
T10C0.0906
%
G90
G05
T1
X2.3031Y-4.9252
X2.3031Y-4.9646
X2.3031Y-5.0039
X2.3031Y-5.0433
X2.5709Y-4.9882
X2.6811Y-6.8307
X2.7087Y-6.6457
X2.811Y-6.8346
X3.0433Y-6.9528
X3.0433Y-7.0118
X3.252Y-6.8898
X3.2598Y-6.9488
X3.4823Y-7.0059
X3.7559Y-5.8504
X3.7559Y-5.9094
X3.9522Y-4.1181
X4.0236Y-5.9606
X4.0433Y-5.7756
X4.0669Y-5.8189
X4.086Y-3.6929
X4.1024Y-5.878
X4.1378Y-4.1417
X4.1496Y-6.0315
X4.2199Y-4.0079
X4.6535Y-6.9606
X4.6929Y-6.8543
X4.7002Y-3.7087
X4.7159Y-4.5197
X4.9252Y-6.9921
X5.3465Y-4.0866
X5.4547Y-4.2195
X5.4882Y-6.248
X5.4882Y-6.5945
X5.5197Y-4.0945
X5.6083Y-3.8332
X5.6437Y-4.0733
X5.6791Y-4.1496
X5.7264Y-4.0497
X5.7378Y-3.9989
X5.7559Y-5.7874
X5.7717Y-4.3071
X5.8484Y-4.0226
X6.0079Y-4.0866
X6.0171Y-6.9278
X6.0354Y-6.9724
X6.0719Y-6.2687
X6.0945Y-4.1417
X6.0945Y-4.2362
X6.248Y-6.9646
X6.2598Y-4.5276
X6.3307Y-5.4567
X6.6924Y-6.6068
X6.7362Y-6.7992
X6.751Y-6.3209
X6.7864Y-6.3209
X6.8219Y-6.3209
X6.8425Y-6.6654
X6.8819Y-6.8189
X6.9606Y-6.8661
X6.9685Y-6.7087
X6.9961Y-6.8425
X7.1841Y-5.8484
X7.1841Y-5.8957
X7.1841Y-5.935
X7.1841Y-5.9744
X7.252Y-4.4094
X7.2638Y-5.4134
X7.3071Y-5.0856
X7.3386Y-5.7362
X7.3465Y-4.4803
X7.5Y-5.4331
X7.5591Y-5.0138
X7.5709Y-6.4803
X7.5787Y-4.6929
X7.6142Y-5.2283
X7.6535Y-4.5591
X7.6713Y-5.1437
X7.7244Y-4.6142
X7.748Y-5.0079
X7.7874Y-4.8268
X7.7948Y-4.713
X7.7992Y-6.4764
X7.811Y-5.0079
X7.815Y-4.0709
X7.8307Y-4.4016
X7.8435Y-4.815
X7.8465Y-4.7047
X7.8543Y-5.4764
X7.9055Y-4.7402
X7.9104Y-4.563
X7.9226Y-6.2074
X7.9921Y-4.3465
X8.0118Y-4.0669
X8.0118Y-4.2402
X8.0157Y-4.9606
T2
X2.5373Y-6.0276
X2.6751Y-6.0276
X5.4469Y-3.6299
X5.639Y-3.6299
X7.6567Y-5.7283
X7.6567Y-6.0283
X7.7567Y-5.7283
X7.7567Y-6.0283
X7.8567Y-5.7283
X7.8567Y-6.0283
X7.9567Y-5.7283
X7.9567Y-6.0283
T3
X3.187Y-7.2441
X3.287Y-7.2441
X3.387Y-7.2441
X4.565Y-7.2441
X4.665Y-7.2441
X4.765Y-7.2441
X5.5461Y-4.8781
X5.5461Y-4.9781
X5.6461Y-4.8781
X5.6461Y-4.9781
X5.7461Y-4.8781
X5.7461Y-4.9781
X5.8461Y-4.8781
X5.8461Y-4.9781
X5.9429Y-7.2441
X5.9461Y-4.8781
X5.9461Y-4.9781
X6.0429Y-7.2441
X6.1429Y-7.2441
T4
X2.4606Y-7.1761
X2.5591Y-7.1761
X2.6378Y-7.1761
X2.7362Y-7.1761
X3.8386Y-7.1761
X3.937Y-7.1761
X4.0157Y-7.1761
X4.1142Y-7.1761
X5.2165Y-7.1761
X5.315Y-7.1761
X5.3937Y-7.1761
X5.4921Y-7.1761
T5
X5.1289Y-3.9154
X5.1289Y-4.0138
X5.1289Y-4.1122
X5.1289Y-4.2106
X5.4646Y-4.5591
X5.563Y-4.5591
X5.6614Y-4.5591
X5.7598Y-4.5591
X5.8002Y-5.9537
X5.8583Y-4.5591
X5.8986Y-5.9537
X5.9567Y-4.5591
X5.997Y-5.9537
X6.0305Y-3.654
X6.0305Y-3.7525
X6.0305Y-3.8509
X6.0305Y-3.9493
X6.0955Y-5.9537
X6.1939Y-5.9537
X7.252Y-4.9252
X7.3504Y-4.9252
X7.4488Y-4.9252
X7.5472Y-4.9252
T6
X3.2402Y-5.5446
X3.2402Y-5.7414
X3.5039Y-3.937
X3.7238Y-4.1841
X3.7238Y-4.2825
X3.7445Y-3.6516
X3.7445Y-3.75
X3.9325Y-4.5045
X4.0309Y-4.3077
X4.1168Y-6.3346
X4.1293Y-4.5045
X4.2238Y-4.5045
X4.3137Y-6.3346
X4.3222Y-4.3077
X4.4207Y-4.5045
X4.6057Y-4.1732
X4.6057Y-4.2717
X5.0485Y-6.0276
X5.1969Y-4.5276
X5.2454Y-6.0276
X6.0118Y-5.311
X6.0118Y-5.5079
X6.4961Y-3.6614
X6.6043Y-7.3445
X6.7028Y-7.3445
X6.7638Y-5.5223
X6.7638Y-5.7192
X6.9252Y-4.7428
X6.9252Y-4.9397
X7.0768Y-7.3445
X7.1752Y-7.3445
X7.6043Y-7.2195
X7.6043Y-7.3195
X7.7043Y-7.2195
X7.7043Y-7.3195
X7.8043Y-7.2195
X7.8043Y-7.3195
X7.874Y-3.6614
X7.9043Y-7.2195
X7.9043Y-7.3195
T7
X2.5591Y-6.3701
X2.5591Y-6.5591
X3.937Y-6.6811
X4.126Y-6.6811
X5.0433Y-6.3583
X5.0433Y-6.5472
X6.6063Y-6.7559
X6.6063Y-6.9449
X7.189Y-6.7717
X7.189Y-6.9606
T8
X2.3071Y-5.925
X2.3071Y-6.075
T9
X4.1417Y-4.9646
X4.1417Y-5.2008
T10
X2.313Y-7.2828
X2.8839Y-7.2828
X3.6909Y-7.2828
X4.2618Y-7.2828
X5.0689Y-7.2828
X5.6398Y-7.2828
M30
