M48
; DRILL file {KiCad 8.0.1-8.0.1-1~ubuntu22.04.1} date 2024-04-05T12:52:10+0300
; FORMAT={-:-/ absolute / inch / decimal}
; #@! TF.CreationDate,2024-04-05T12:52:10+03:00
; #@! TF.GenerationSoftware,Kicad,Pcbnew,8.0.1-8.0.1-1~ubuntu22.04.1
; #@! TF.FileFunction,Plated,1,4,PTH
FMAT,2
INCH
; #@! TA.AperFunction,Plated,PTH,ViaDrill
T1C0.0157
; #@! TA.AperFunction,Plated,PTH,ComponentDrill
T2C0.0315
; #@! TA.AperFunction,Plated,PTH,ComponentDrill
T3C0.0354
; #@! TA.AperFunction,Plated,PTH,ComponentDrill
T4C0.0362
; #@! TA.AperFunction,Plated,PTH,ComponentDrill
T5C0.0374
; #@! TA.AperFunction,Plated,PTH,ComponentDrill
T6C0.0394
; #@! TA.AperFunction,Plated,PTH,ComponentDrill
T7C0.0433
; #@! TA.AperFunction,Plated,PTH,ComponentDrill
T8C0.0472
; #@! TA.AperFunction,Plated,PTH,ComponentDrill
T9C0.0591
; #@! TA.AperFunction,Plated,PTH,ComponentDrill
T10C0.0610
; #@! TA.AperFunction,Plated,PTH,ComponentDrill
T11C0.0630
; #@! TA.AperFunction,Plated,PTH,ComponentDrill
T12C0.0827
; #@! TA.AperFunction,Plated,PTH,ComponentDrill
T13C0.0906
%
G90
G05
T1
X3.4567Y-6.2677
X3.4567Y-6.4331
X3.5Y-6.563
X3.5906Y-3.1941
X3.6363Y-4.3268
X3.6417Y-6.5325
X3.6417Y-6.5935
X3.6496Y-2.8268
X3.6811Y-6.4449
X3.7047Y-3.0984
X3.7087Y-6.0827
X3.7205Y-9.1063
X3.7249Y-4.3268
X3.7356Y-9.1569
X3.7362Y-3.811
X3.7441Y-6.5945
X3.7446Y-5.3701
X3.752Y-3.5984
X3.7559Y-6.5226
X3.7579Y-8.6713
X3.7835Y-3.5551
X3.7874Y-4.0472
X3.7943Y-9.0581
X3.7953Y-6.3976
X3.7953Y-6.6417
X3.7992Y-9.1811
X3.8036Y-4.3268
X3.8307Y-8.6417
X3.8425Y-6.7244
X3.8425Y-6.7874
X3.843Y-5.3602
X3.8465Y-6.3976
X3.8583Y-3.5118
X3.8819Y-3.5984
X3.8819Y-3.6299
X3.8819Y-7.3622
X3.8819Y-7.4213
X3.8858Y-6.9685
X3.8976Y-3.4921
X3.8976Y-3.8031
X3.9134Y-3.5984
X3.9134Y-3.6299
X3.9311Y-7.3622
X3.9311Y-7.4213
X3.9646Y-4.1417
X3.9724Y-6.0
X3.9724Y-6.7126
X3.9724Y-6.7756
X3.9803Y-7.3622
X3.9803Y-7.4213
X4.0118Y-3.5827
X4.0118Y-6.3189
X4.0197Y-3.7283
X4.0197Y-5.0118
X4.0295Y-7.3622
X4.0295Y-7.4213
X4.0364Y-5.3425
X4.0399Y-4.3858
X4.0669Y-8.748
X4.0748Y-5.2835
X4.0792Y-5.4252
X4.0846Y-7.2618
X4.0866Y-6.126
X4.1142Y-8.0591
X4.1181Y-3.6496
X4.1181Y-3.7441
X4.1284Y-5.1437
X4.1496Y-8.1831
X4.1732Y-6.622
X4.1732Y-6.6811
X4.1777Y-5.139
X4.1831Y-6.5433
X4.189Y-6.315
X4.2072Y-5.3622
X4.2269Y-5.1437
X4.2859Y-5.1732
X4.2913Y-6.7598
X4.3012Y-8.4035
X4.3209Y-6.7913
X4.3351Y-5.2618
X4.3406Y-5.3425
X4.345Y-5.6555
X4.3661Y-3.3661
X4.3701Y-6.9173
X4.3932Y-5.7298
X4.4409Y-3.3622
X4.4449Y-5.4488
X4.4586Y-5.937
X4.4882Y-8.4626
X4.5157Y-3.3622
X4.5177Y-8.4921
X4.5394Y-4.2165
X4.5433Y-4.3071
X4.5669Y-6.0118
X4.5669Y-6.0551
X4.5906Y-3.3622
X4.6063Y-6.0118
X4.6063Y-6.0551
X4.6161Y-8.7185
X4.6496Y-6.0118
X4.6496Y-6.0551
X4.6654Y-8.6594
X4.6752Y-8.8169
X4.6929Y-3.7598
X4.6969Y-4.2244
X4.7008Y-3.4291
X4.7047Y-3.3543
X4.7638Y-9.1614
X4.7736Y-8.502
X4.7736Y-8.5413
X4.7854Y-8.3778
X4.8228Y-8.502
X4.8228Y-8.5413
X4.8264Y-8.4073
X4.8524Y-9.063
X4.8524Y-9.1811
X4.9173Y-8.4692
X4.9803Y-8.5325
X5.0Y-3.4921
X5.0354Y-7.2126
X5.0984Y-7.0709
X5.1614Y-8.2638
X5.1614Y-8.2992
X5.1614Y-8.3346
X5.1614Y-8.3701
X5.1969Y-8.2638
X5.1969Y-8.2992
X5.1969Y-8.3346
X5.1969Y-8.3701
X5.2323Y-8.2638
X5.2323Y-8.2992
X5.2323Y-8.3346
X5.2323Y-8.3701
X5.2677Y-8.2638
X5.2677Y-8.2992
X5.2677Y-8.3346
X5.2677Y-8.3701
X5.2835Y-7.0748
X5.5128Y-8.6939
X5.5433Y-8.2677
X5.5433Y-8.3031
X5.5433Y-8.3386
X5.5433Y-8.374
X5.5787Y-8.2677
X5.5787Y-8.3031
X5.5787Y-8.3386
X5.5787Y-8.374
X5.6063Y-7.1772
X5.6142Y-8.2677
X5.6142Y-8.3031
X5.6142Y-8.3386
X5.6142Y-8.374
X5.6181Y-4.8346
X5.6496Y-8.2677
X5.6496Y-8.3031
X5.6496Y-8.3386
X5.6496Y-8.374
X5.7185Y-8.8169
X5.7283Y-3.3465
X5.748Y-3.2461
X5.7598Y-4.4803
X5.7835Y-7.2913
X5.8071Y-9.1516
X5.8425Y-4.0039
X5.8661Y-7.0984
X5.8976Y-4.5551
X5.9055Y-9.1811
X5.9154Y-9.0531
X5.9651Y-3.2559
X5.9764Y-4.9055
X5.9882Y-4.0
X6.0295Y-8.7702
X6.122Y-8.8799
X6.1417Y-3.9252
X6.185Y-8.7441
X6.1929Y-4.3504
X6.1969Y-8.8701
X6.2677Y-4.8031
X6.378Y-3.3465
X6.3858Y-4.1063
X6.4656Y-3.4016
X6.4764Y-8.7579
X7.126Y-7.9606
X7.126Y-8.2756
X7.2559Y-8.4409
X7.4331Y-8.6102
X7.4961Y-8.4409
T2
X3.5822Y-5.2744
X3.5822Y-5.4665
X3.6713Y-7.8524
X3.8091Y-7.8524
X5.0702Y-6.4055
X5.0709Y-6.1102
X5.1686Y-6.4055
X5.1693Y-6.1102
X5.252Y-7.4774
X5.252Y-7.5774
X5.4213Y-6.374
X5.552Y-7.4774
X5.552Y-7.5774
X5.6535Y-6.0748
X5.7411Y-3.5157
X5.7411Y-3.8157
X5.8411Y-3.5157
X5.8411Y-3.8157
X6.2087Y-6.374
X6.3976Y-3.6535
X6.3976Y-3.9535
X6.4409Y-6.0748
X6.4976Y-3.6535
X6.4976Y-3.9535
T3
X3.5406Y-3.4969
X3.5406Y-3.5969
X3.5406Y-3.6969
X3.5406Y-3.7969
X3.5406Y-3.8969
X3.6406Y-3.4969
X3.6406Y-3.5969
X3.6406Y-3.6969
X3.6406Y-3.7969
X3.6406Y-3.8969
X4.1917Y-9.1319
X4.2917Y-9.1319
X4.3917Y-9.1319
X4.5366Y-5.2961
X4.5366Y-5.3961
X4.5366Y-5.4961
X4.5366Y-5.5961
X4.5366Y-5.6961
X4.6366Y-5.2961
X4.6366Y-5.3961
X4.6366Y-5.4961
X4.6366Y-5.5961
X4.6366Y-5.6961
X5.235Y-9.1319
X5.335Y-9.1319
X5.435Y-9.1319
X5.6313Y-8.6102
X5.7313Y-8.6102
X6.2783Y-9.1319
X6.3783Y-9.1319
X6.4783Y-9.1319
T4
X3.6417Y-8.9359
X3.7402Y-8.9359
X3.8189Y-8.9359
X3.9173Y-8.9359
X4.685Y-8.9359
X4.7835Y-8.9359
X4.8622Y-8.9359
X4.9606Y-8.9359
X5.7283Y-8.9359
X5.8268Y-8.9359
X5.9055Y-8.9359
X6.0039Y-8.9359
T5
X3.563Y-7.0551
X3.563Y-7.1535
X3.563Y-7.252
X3.563Y-7.3504
X3.563Y-7.4488
X3.6097Y-4.9291
X3.6334Y-5.8425
X3.7082Y-4.9291
X3.7318Y-5.8425
X3.8066Y-4.9291
X3.8302Y-5.8425
X3.905Y-4.9291
X3.9286Y-5.8425
X4.1481Y-4.9272
X4.2466Y-4.9272
X4.3209Y-3.8268
X4.345Y-4.9272
X4.4193Y-3.8268
X4.4434Y-4.9272
X4.5177Y-3.8268
X4.5418Y-4.9272
X4.6403Y-4.9272
T6
X3.4646Y-6.7598
X3.6658Y-4.5531
X3.6658Y-4.6516
X3.8597Y-4.5142
X3.9582Y-4.711
X4.0566Y-4.5142
X4.1777Y-5.8425
X4.2564Y-4.5142
X4.2751Y-4.1299
X4.2751Y-4.2283
X4.2761Y-5.8425
X4.3548Y-4.711
X4.4532Y-4.5142
X4.5716Y-6.6506
X4.5716Y-7.0837
X4.6708Y-4.5472
X4.6708Y-4.6457
X4.7684Y-6.6506
X4.7684Y-7.0837
X4.9213Y-3.4921
X4.9213Y-4.1614
X4.9213Y-5.815
X5.4803Y-7.7963
X5.4803Y-7.9931
X6.6831Y-9.1437
X6.7815Y-9.1437
X7.0374Y-9.1437
X7.1358Y-9.1437
X7.3484Y-9.0659
X7.3484Y-9.1659
X7.4484Y-9.0659
X7.4484Y-9.1659
X7.5484Y-9.0659
X7.5484Y-9.1659
X7.6484Y-9.0659
X7.6484Y-9.1659
T7
X5.3184Y-5.6576
X5.4184Y-5.6576
X5.5184Y-5.6576
X5.8173Y-6.685
X5.8173Y-6.8994
X5.9173Y-6.685
X5.9173Y-6.8994
X6.0173Y-6.685
X6.0173Y-6.8994
X6.0546Y-5.6536
X6.1546Y-5.6536
X6.2546Y-5.6536
X6.8346Y-5.7165
X6.8346Y-6.3071
X7.0591Y-6.2087
X7.6496Y-6.2087
T8
X3.6409Y-2.5669
X3.9361Y-2.5669
X4.5197Y-2.4339
X4.5197Y-2.7292
X4.9094Y-7.7131
X4.9094Y-8.0084
X7.216Y-2.9606
X7.2475Y-5.7205
X7.4567Y-3.4035
X7.4567Y-4.2894
X7.4567Y-4.4075
X7.4567Y-5.2933
X7.5113Y-2.9606
X7.5428Y-5.7205
T9
X5.685Y-2.8976
X5.8996Y-2.8976
X6.1142Y-2.8976
X6.5059Y-7.7921
X6.7205Y-7.7921
X6.935Y-7.7921
T10
X3.5433Y-8.2953
X3.5433Y-8.4843
X4.311Y-8.5748
X4.311Y-8.7638
X5.3543Y-8.5945
X5.3543Y-8.7835
X6.6181Y-8.6299
X6.6181Y-8.8268
X6.8071Y-8.6299
X6.8071Y-8.8268
T11
X3.5197Y-4.1929
X4.0392Y-7.8425
X4.1892Y-7.8425
X5.2866Y-3.478
X5.2866Y-3.678
X5.2866Y-3.878
X5.2866Y-4.078
X5.2866Y-4.278
X5.2866Y-4.478
X5.2866Y-4.678
X5.2866Y-4.878
X5.2866Y-5.078
X5.2866Y-5.278
X6.3921Y-6.5016
X6.3921Y-7.3016
X6.5921Y-6.5016
X6.5921Y-7.3016
X6.7921Y-6.5016
X6.7921Y-7.3016
X6.8866Y-3.478
X6.8866Y-3.678
X6.8866Y-3.878
X6.8866Y-4.078
X6.8866Y-4.278
X6.8866Y-4.478
X6.8866Y-4.678
X6.8866Y-4.878
X6.8866Y-5.078
X6.8866Y-5.278
X6.9921Y-6.5016
X6.9921Y-7.3016
X7.1921Y-6.5016
X7.1921Y-7.3016
X7.3921Y-6.5016
X7.3921Y-7.3016
X7.5921Y-6.5016
X7.5921Y-7.3016
T12
X4.3189Y-3.0551
X4.498Y-7.626
X4.498Y-7.8622
X4.5551Y-3.0551
X5.4252Y-6.0906
X7.4094Y-2.2795
X7.6457Y-2.2795
T13
X3.4941Y-9.0426
X4.065Y-9.0426
X4.5374Y-9.0426
X5.1083Y-9.0426
X5.5807Y-9.0426
X6.1516Y-9.0426
M30
