%TF.GenerationSoftware,KiCad,Pcbnew,8.0.1-8.0.1-1~ubuntu22.04.1*%
%TF.CreationDate,2024-04-05T12:52:07+03:00*%
%TF.ProjectId,supply,73757070-6c79-42e6-9b69-6361645f7063,rev?*%
%TF.SameCoordinates,Original*%
%TF.FileFunction,Copper,L3,Inr*%
%TF.FilePolarity,Positive*%
%FSLAX46Y46*%
G04 Gerber Fmt 4.6, Leading zero omitted, Abs format (unit mm)*
G04 Created by KiCad (PCBNEW 8.0.1-8.0.1-1~ubuntu22.04.1) date 2024-04-05 12:52:07*
%MOMM*%
%LPD*%
G01*
G04 APERTURE LIST*
G04 Aperture macros list*
%AMRoundRect*
0 Rectangle with rounded corners*
0 $1 Rounding radius*
0 $2 $3 $4 $5 $6 $7 $8 $9 X,Y pos of 4 corners*
0 Add a 4 corners polygon primitive as box body*
4,1,4,$2,$3,$4,$5,$6,$7,$8,$9,$2,$3,0*
0 Add four circle primitives for the rounded corners*
1,1,$1+$1,$2,$3*
1,1,$1+$1,$4,$5*
1,1,$1+$1,$6,$7*
1,1,$1+$1,$8,$9*
0 Add four rect primitives between the rounded corners*
20,1,$1+$1,$2,$3,$4,$5,0*
20,1,$1+$1,$4,$5,$6,$7,0*
20,1,$1+$1,$6,$7,$8,$9,0*
20,1,$1+$1,$8,$9,$2,$3,0*%
G04 Aperture macros list end*
%TA.AperFunction,ComponentPad*%
%ADD10R,1.905000X2.000000*%
%TD*%
%TA.AperFunction,ComponentPad*%
%ADD11O,1.905000X2.000000*%
%TD*%
%TA.AperFunction,ComponentPad*%
%ADD12C,2.000000*%
%TD*%
%TA.AperFunction,ComponentPad*%
%ADD13R,1.800000X1.800000*%
%TD*%
%TA.AperFunction,ComponentPad*%
%ADD14C,1.800000*%
%TD*%
%TA.AperFunction,ComponentPad*%
%ADD15R,1.600000X1.600000*%
%TD*%
%TA.AperFunction,ComponentPad*%
%ADD16C,1.600000*%
%TD*%
%TA.AperFunction,ComponentPad*%
%ADD17R,1.560000X1.560000*%
%TD*%
%TA.AperFunction,ComponentPad*%
%ADD18C,1.560000*%
%TD*%
%TA.AperFunction,ComponentPad*%
%ADD19R,2.000000X2.000000*%
%TD*%
%TA.AperFunction,ComponentPad*%
%ADD20RoundRect,0.250000X-0.600000X-0.725000X0.600000X-0.725000X0.600000X0.725000X-0.600000X0.725000X0*%
%TD*%
%TA.AperFunction,ComponentPad*%
%ADD21O,1.700000X1.950000*%
%TD*%
%TA.AperFunction,ComponentPad*%
%ADD22RoundRect,0.250002X1.699998X1.699998X-1.699998X1.699998X-1.699998X-1.699998X1.699998X-1.699998X0*%
%TD*%
%TA.AperFunction,ComponentPad*%
%ADD23RoundRect,0.249999X-1.025001X1.025001X-1.025001X-1.025001X1.025001X-1.025001X1.025001X1.025001X0*%
%TD*%
%TA.AperFunction,ComponentPad*%
%ADD24C,2.550000*%
%TD*%
%TA.AperFunction,ComponentPad*%
%ADD25R,2.400000X2.400000*%
%TD*%
%TA.AperFunction,ComponentPad*%
%ADD26C,2.400000*%
%TD*%
%TA.AperFunction,ComponentPad*%
%ADD27R,1.700000X1.700000*%
%TD*%
%TA.AperFunction,ComponentPad*%
%ADD28O,1.700000X1.700000*%
%TD*%
%TA.AperFunction,ComponentPad*%
%ADD29C,2.200000*%
%TD*%
%TA.AperFunction,ComponentPad*%
%ADD30C,2.500000*%
%TD*%
%TA.AperFunction,ComponentPad*%
%ADD31RoundRect,0.250000X-0.600000X-0.750000X0.600000X-0.750000X0.600000X0.750000X-0.600000X0.750000X0*%
%TD*%
%TA.AperFunction,ComponentPad*%
%ADD32O,1.700000X2.000000*%
%TD*%
%TA.AperFunction,ComponentPad*%
%ADD33RoundRect,0.250000X0.600000X0.725000X-0.600000X0.725000X-0.600000X-0.725000X0.600000X-0.725000X0*%
%TD*%
%TA.AperFunction,ComponentPad*%
%ADD34O,1.600000X1.600000*%
%TD*%
%TA.AperFunction,ComponentPad*%
%ADD35RoundRect,0.250000X-0.725000X0.600000X-0.725000X-0.600000X0.725000X-0.600000X0.725000X0.600000X0*%
%TD*%
%TA.AperFunction,ComponentPad*%
%ADD36O,1.950000X1.700000*%
%TD*%
%TA.AperFunction,ComponentPad*%
%ADD37RoundRect,0.249999X-1.025001X-1.025001X1.025001X-1.025001X1.025001X1.025001X-1.025001X1.025001X0*%
%TD*%
%TA.AperFunction,ComponentPad*%
%ADD38R,2.500000X4.500000*%
%TD*%
%TA.AperFunction,ComponentPad*%
%ADD39O,2.500000X4.500000*%
%TD*%
%TA.AperFunction,ComponentPad*%
%ADD40R,1.524000X1.524000*%
%TD*%
%TA.AperFunction,ComponentPad*%
%ADD41C,1.524000*%
%TD*%
%TA.AperFunction,ComponentPad*%
%ADD42C,3.500000*%
%TD*%
%TA.AperFunction,ComponentPad*%
%ADD43RoundRect,0.249999X1.300001X1.300001X-1.300001X1.300001X-1.300001X-1.300001X1.300001X-1.300001X0*%
%TD*%
%TA.AperFunction,ComponentPad*%
%ADD44C,3.100000*%
%TD*%
%TA.AperFunction,ComponentPad*%
%ADD45RoundRect,0.250000X0.750000X-0.600000X0.750000X0.600000X-0.750000X0.600000X-0.750000X-0.600000X0*%
%TD*%
%TA.AperFunction,ComponentPad*%
%ADD46O,2.000000X1.700000*%
%TD*%
%TA.AperFunction,ComponentPad*%
%ADD47RoundRect,0.250000X-0.750000X0.600000X-0.750000X-0.600000X0.750000X-0.600000X0.750000X0.600000X0*%
%TD*%
%TA.AperFunction,ComponentPad*%
%ADD48RoundRect,0.250000X0.600000X0.750000X-0.600000X0.750000X-0.600000X-0.750000X0.600000X-0.750000X0*%
%TD*%
%TA.AperFunction,ComponentPad*%
%ADD49RoundRect,0.249999X-1.300001X-1.300001X1.300001X-1.300001X1.300001X1.300001X-1.300001X1.300001X0*%
%TD*%
%TA.AperFunction,ComponentPad*%
%ADD50RoundRect,0.249999X1.300001X-1.300001X1.300001X1.300001X-1.300001X1.300001X-1.300001X-1.300001X0*%
%TD*%
%TA.AperFunction,ComponentPad*%
%ADD51C,3.000000*%
%TD*%
%TA.AperFunction,ComponentPad*%
%ADD52C,1.500000*%
%TD*%
%TA.AperFunction,ComponentPad*%
%ADD53R,3.200000X3.200000*%
%TD*%
%TA.AperFunction,ComponentPad*%
%ADD54O,3.200000X3.200000*%
%TD*%
%TA.AperFunction,ViaPad*%
%ADD55C,0.800000*%
%TD*%
%TA.AperFunction,Conductor*%
%ADD56C,2.000000*%
%TD*%
%TA.AperFunction,Conductor*%
%ADD57C,1.000000*%
%TD*%
%TA.AperFunction,Conductor*%
%ADD58C,5.000000*%
%TD*%
%TA.AperFunction,Conductor*%
%ADD59C,0.500000*%
%TD*%
%TA.AperFunction,Conductor*%
%ADD60C,0.300000*%
%TD*%
G04 APERTURE END LIST*
D10*
%TO.N,Net-(Q10-G)*%
%TO.C,Q10*%
X158867000Y-143602000D03*
D11*
%TO.N,Net-(Q10-D)*%
X156327000Y-143602000D03*
%TO.N,GNDPWR*%
X153787000Y-143602000D03*
%TD*%
D12*
%TO.N,GND*%
%TO.C,J3*%
X88000000Y-171700000D03*
%TD*%
D13*
%TO.N,/Control & Fan/MOSI*%
%TO.C,J14*%
X115230000Y-134520000D03*
D14*
%TO.N,/Control & Fan/+5V_VSYS*%
X117770000Y-134520000D03*
%TO.N,unconnected-(J14-Pin_3-Pad3)*%
X115230000Y-137060000D03*
%TO.N,unconnected-(J14-Pin_4-Pad4)*%
X117770000Y-137060000D03*
%TO.N,/Control & Fan/RESET#*%
X115230000Y-139600000D03*
%TO.N,/Control & Fan/TXD*%
X117770000Y-139600000D03*
%TO.N,/Control & Fan/SCK*%
X115230000Y-142140000D03*
%TO.N,GND*%
X117770000Y-142140000D03*
%TO.N,/Control & Fan/MISO*%
X115230000Y-144680000D03*
%TO.N,GND*%
X117770000Y-144680000D03*
%TD*%
D15*
%TO.N,/Internal 5V & out usb/V_STANDBY*%
%TO.C,C63*%
X131300000Y-155200000D03*
D16*
%TO.N,GNDPWR*%
X128800000Y-155200000D03*
%TD*%
D13*
%TO.N,Net-(D2-A1)*%
%TO.C,D2*%
X111550000Y-231950000D03*
D14*
%TO.N,Net-(D2-K)*%
X109010000Y-231950000D03*
%TO.N,Net-(D2-A2)*%
X106470000Y-231950000D03*
%TD*%
D17*
%TO.N,/Control & Fan/+5V_VSYS*%
%TO.C,RV3*%
X108112500Y-114660000D03*
D18*
%TO.N,Net-(U19A--)*%
X110612500Y-119660000D03*
%TO.N,GND*%
X113112500Y-114660000D03*
%TD*%
D19*
%TO.N,Net-(D8-K)*%
%TO.C,C21*%
X139200000Y-203025000D03*
D12*
%TO.N,GND*%
X139200000Y-198025000D03*
%TD*%
D20*
%TO.N,/Control & Fan/+5V_VSYS*%
%TO.C,J16*%
X109750000Y-97200000D03*
D21*
%TO.N,Net-(J16-Pin_2)*%
X112250000Y-97200000D03*
%TO.N,Net-(J16-Pin_3)*%
X114750000Y-97200000D03*
%TD*%
D22*
%TO.N,/Internal 5V & out usb/V_STANDBY*%
%TO.C,J4*%
X137800000Y-154700000D03*
%TD*%
D23*
%TO.N,/Internal 5V & out usb/USB_2_3_+5V*%
%TO.C,F2*%
X109500000Y-217800000D03*
D24*
%TO.N,/Internal 5V & out usb/VBUS_2_+*%
X109500000Y-222600000D03*
%TD*%
D25*
%TO.N,/Internal 5V & out usb/400V*%
%TO.C,C17*%
X184087246Y-145300000D03*
D26*
%TO.N,GNDPWR*%
X191587246Y-145300000D03*
%TD*%
D27*
%TO.N,/Output connectors/5V_FUSE*%
%TO.C,J26*%
X186650000Y-230275000D03*
D28*
%TO.N,GND*%
X186650000Y-232815000D03*
%TO.N,/Output connectors/3.3V_FUSE*%
X189190000Y-230275000D03*
%TO.N,GND*%
X189190000Y-232815000D03*
%TO.N,/Output connectors/SIGNAL_OUT_PWR_5V*%
X191730000Y-230275000D03*
%TO.N,GND*%
X191730000Y-232815000D03*
%TO.N,/Output connectors/SIGNAL_OUT_PWR_3V3*%
X194270000Y-230275000D03*
%TO.N,/Control & Fan/SIGNAL_OUT*%
X194270000Y-232815000D03*
%TD*%
D29*
%TO.N,Net-(C18-Pad1)*%
%TO.C,C18*%
X173600000Y-160200000D03*
%TO.N,/Internal 5V & out usb/400V*%
X173600000Y-145200000D03*
%TD*%
D30*
%TO.N,Net-(D8-A-Pad1)*%
%TO.C,TR1*%
X162360000Y-185460000D03*
X162360000Y-165140000D03*
X167440000Y-185460000D03*
%TO.N,GND*%
X167440000Y-165140000D03*
%TO.N,Net-(D8-A-Pad1)*%
X172520000Y-185460000D03*
%TO.N,GND*%
X172520000Y-165140000D03*
%TO.N,Net-(D8-A-Pad3)*%
X177600000Y-185460000D03*
%TO.N,GND*%
X177600000Y-165140000D03*
%TO.N,Net-(D8-A-Pad3)*%
X182680000Y-185460000D03*
%TO.N,GND*%
X182680000Y-165140000D03*
%TO.N,Net-(D8-A-Pad3)*%
X187760000Y-185460000D03*
%TO.N,Net-(Q1-S)*%
X187760000Y-165140000D03*
%TO.N,Net-(D8-A-Pad3)*%
X192840000Y-185460000D03*
%TO.N,Net-(C18-Pad1)*%
X192840000Y-165140000D03*
%TD*%
D25*
%TO.N,/Internal 5V & out usb/400V*%
%TO.C,C70*%
X183287246Y-75200000D03*
D26*
%TO.N,GNDPWR*%
X190787246Y-75200000D03*
%TD*%
D20*
%TO.N,Net-(J17-Pin_1)*%
%TO.C,J17*%
X105362500Y-125150000D03*
D21*
%TO.N,/Control & Fan/TFT_DC*%
X107862500Y-125150000D03*
%TO.N,/Control & Fan/MOSI*%
X110362500Y-125150000D03*
%TO.N,/Control & Fan/SCK*%
X112862500Y-125150000D03*
%TO.N,/Control & Fan/TFT_CS*%
X115362500Y-125150000D03*
%TO.N,GND*%
X117862500Y-125150000D03*
%TD*%
D13*
%TO.N,Net-(D13-K)*%
%TO.C,D13*%
X145575000Y-218700000D03*
D14*
%TO.N,/Internal 5V & out usb/+5V_OUT*%
X143035000Y-218700000D03*
%TD*%
D25*
%TO.N,/Internal 5V & out usb/+5V_OUT*%
%TO.C,C23*%
X124700000Y-203412755D03*
D26*
%TO.N,GND*%
X124700000Y-195912755D03*
%TD*%
D31*
%TO.N,GND*%
%TO.C,J28*%
X169750000Y-232250000D03*
D32*
%TO.N,/Output connectors/5V_FUSE*%
X172250000Y-232250000D03*
%TD*%
D33*
%TO.N,GND*%
%TO.C,J10*%
X99787500Y-148400000D03*
D21*
%TO.N,/Control & Fan/ENCODER_V_CLICK*%
X97287500Y-148400000D03*
%TO.N,/Control & Fan/ENCODER_V_B*%
X94787500Y-148400000D03*
%TO.N,/Control & Fan/ENCODER_V_A*%
X92287500Y-148400000D03*
%TD*%
D20*
%TO.N,GND*%
%TO.C,J12*%
X91687500Y-125200000D03*
D21*
%TO.N,/Control & Fan/ENCODER_I_CLICK*%
X94187500Y-125200000D03*
%TO.N,/Control & Fan/ENCODER_I_B*%
X96687500Y-125200000D03*
%TO.N,/Control & Fan/ENCODER_I_A*%
X99187500Y-125200000D03*
%TD*%
D12*
%TO.N,GND*%
%TO.C,J5*%
X125000000Y-105700000D03*
%TD*%
D16*
%TO.N,GNDPWR*%
%TO.C,C72*%
X163600000Y-154300000D03*
D34*
%TO.N,/Internal 5V & out usb/400V*%
X143600000Y-154300000D03*
%TD*%
D15*
%TO.N,/Internal 5V & out usb/V_STANDBY*%
%TO.C,C4*%
X131282380Y-162700000D03*
D16*
%TO.N,GNDPWR*%
X128782380Y-162700000D03*
%TD*%
D35*
%TO.N,GND*%
%TO.C,J20*%
X90500000Y-179200000D03*
D36*
%TO.N,/Output connectors/LIION_CHARGE_VBAT*%
X90500000Y-181700000D03*
%TO.N,/Output connectors/LIION_CHARGE_LED2*%
X90500000Y-184200000D03*
%TO.N,/Output connectors/LIION_CHARGE_LED1*%
X90500000Y-186700000D03*
%TO.N,Net-(J20-Pin_5)*%
X90500000Y-189200000D03*
%TD*%
D37*
%TO.N,/Output connectors/5V_-*%
%TO.C,F6*%
X168100000Y-224200000D03*
D24*
%TO.N,/Output connectors/5V_FUSE*%
X172900000Y-224200000D03*
%TD*%
D29*
%TO.N,GNDPWR*%
%TO.C,C20*%
X194300000Y-157700000D03*
%TO.N,Net-(C18-Pad1)*%
X179300000Y-157700000D03*
%TD*%
D38*
%TO.N,Net-(D24-A-Pad1)*%
%TO.C,D24*%
X144400000Y-73600000D03*
D39*
%TO.N,Net-(D24-K)*%
X149850000Y-73600000D03*
%TO.N,Net-(D24-A-Pad3)*%
X155300000Y-73600000D03*
%TD*%
D15*
%TO.N,Net-(R1-Pad1)*%
%TO.C,U3*%
X133400000Y-189925000D03*
D34*
%TO.N,/Internal 5V & out usb/FEEDBACK*%
X133400000Y-192465000D03*
%TO.N,/Internal 5V & out usb/DCDC_FEEDBACK*%
X141020000Y-192465000D03*
%TO.N,/Internal 5V & out usb/DCDC_5V_VREF*%
X141020000Y-189925000D03*
%TD*%
D19*
%TO.N,Net-(C29-Pad1)*%
%TO.C,C30*%
X121117677Y-168925000D03*
D12*
%TO.N,GND*%
X116117677Y-168925000D03*
%TD*%
D13*
%TO.N,Net-(D6-A1)*%
%TO.C,D6*%
X138050000Y-231950000D03*
D14*
%TO.N,Net-(D6-K)*%
X135510000Y-231950000D03*
%TO.N,Net-(D6-A2)*%
X132970000Y-231950000D03*
%TD*%
D37*
%TO.N,/Output connectors/3.3V_-*%
%TO.C,F5*%
X168100000Y-219200000D03*
D24*
%TO.N,/Output connectors/3.3V_FUSE*%
X172900000Y-219200000D03*
%TD*%
D40*
%TO.N,/Internal 5V & out usb/VBUS_2*%
%TO.C,J8*%
X119000000Y-226972500D03*
D41*
%TO.N,Net-(J8-D-)*%
X121500000Y-226972500D03*
%TO.N,Net-(J8-D+)*%
X123500000Y-226972500D03*
%TO.N,GND*%
X126000000Y-226972500D03*
D42*
X115250000Y-229682500D03*
X129750000Y-229682500D03*
%TD*%
D43*
%TO.N,GNDPWR*%
%TO.C,J1*%
X194200000Y-57900000D03*
D44*
%TO.N,/Internal 5V & out usb/400V*%
X188200000Y-57900000D03*
%TD*%
D19*
%TO.N,/Internal 5V & out usb/+5V_OUT*%
%TO.C,C27*%
X121117677Y-179925000D03*
D12*
%TO.N,GND*%
X116117677Y-179925000D03*
%TD*%
D23*
%TO.N,/Internal 5V & out usb/USB_2_3_+5V*%
%TO.C,F3*%
X136000000Y-218300000D03*
D24*
%TO.N,/Internal 5V & out usb/VBUS_3_+*%
X136000000Y-223100000D03*
%TD*%
D45*
%TO.N,/Control & Fan/+5V_VSYS*%
%TO.C,M1*%
X108587500Y-107400000D03*
D46*
%TO.N,Net-(D20-A)*%
X108587500Y-104900000D03*
%TD*%
D47*
%TO.N,/Control & Fan/+5V_VSYS*%
%TO.C,TH1*%
X118637500Y-115500000D03*
D46*
%TO.N,Net-(U19A-+)*%
X118637500Y-118000000D03*
%TD*%
D47*
%TO.N,/Control & Fan/+5V_VSYS*%
%TO.C,TH2*%
X93112500Y-115650000D03*
D46*
%TO.N,Net-(U19B-+)*%
X93112500Y-118150000D03*
%TD*%
D26*
%TO.N,GNDPWR*%
%TO.C,C71*%
X189400000Y-134450000D03*
%TO.N,Net-(C69-Pad1)*%
X189400000Y-111950000D03*
%TD*%
D12*
%TO.N,GND*%
%TO.C,J2*%
X125000000Y-88700000D03*
%TD*%
D13*
%TO.N,Net-(D9-A1)*%
%TO.C,D9*%
X164550000Y-231950000D03*
D14*
%TO.N,Net-(D9-K)*%
X162010000Y-231950000D03*
%TO.N,Net-(D9-A2)*%
X159470000Y-231950000D03*
%TD*%
D17*
%TO.N,/Control & Fan/+5V_VSYS*%
%TO.C,RV4*%
X98037500Y-114660000D03*
D18*
%TO.N,Net-(U19B--)*%
X100537500Y-119660000D03*
%TO.N,GND*%
X103037500Y-114660000D03*
%TD*%
D10*
%TO.N,Net-(Q2-G)*%
%TO.C,Q2*%
X147760000Y-175245000D03*
D11*
%TO.N,Net-(Q1-S)*%
X150300000Y-175245000D03*
%TO.N,GNDPWR*%
X152840000Y-175245000D03*
%TD*%
D23*
%TO.N,/Internal 5V & out usb/USB_1_BP*%
%TO.C,F1*%
X90000000Y-210700000D03*
D24*
%TO.N,/Internal 5V & out usb/VBUS_1_+*%
X90000000Y-215500000D03*
%TD*%
D48*
%TO.N,/Control & Fan/+5V_VSYS*%
%TO.C,SW3*%
X108612500Y-148400000D03*
D32*
%TO.N,/Control & Fan/IS_ONOFF_BUTTON_PRESSED*%
X106112500Y-148400000D03*
%TD*%
D10*
%TO.N,Net-(Q9-G)*%
%TO.C,Q9*%
X140167000Y-143702000D03*
D11*
%TO.N,/Internal 5V & out usb/400V*%
X137627000Y-143702000D03*
%TO.N,Net-(Q10-D)*%
X135087000Y-143702000D03*
%TD*%
D49*
%TO.N,/Output connectors/POWER_OUT*%
%TO.C,J22*%
X109700000Y-77600000D03*
D44*
%TO.N,GND*%
X115700000Y-77600000D03*
%TD*%
D40*
%TO.N,/Internal 5V & out usb/VBUS_1*%
%TO.C,J7*%
X92500000Y-226972500D03*
D41*
%TO.N,/Internal 5V & out usb/USB_1_D-*%
X95000000Y-226972500D03*
%TO.N,/Internal 5V & out usb/USB_1_D+*%
X97000000Y-226972500D03*
%TO.N,GND*%
X99500000Y-226972500D03*
D42*
X88750000Y-229682500D03*
X103250000Y-229682500D03*
%TD*%
D15*
%TO.N,/Internal 5V & out usb/USB_1_BP*%
%TO.C,C13*%
X93250000Y-199450000D03*
D16*
%TO.N,GND*%
X96750000Y-199450000D03*
%TD*%
D40*
%TO.N,/Internal 5V & out usb/VBUS_3*%
%TO.C,J9*%
X145500000Y-226972500D03*
D41*
%TO.N,Net-(J9-D-)*%
X148000000Y-226972500D03*
%TO.N,Net-(J9-D+)*%
X150000000Y-226972500D03*
%TO.N,GND*%
X152500000Y-226972500D03*
D42*
X141750000Y-229682500D03*
X156250000Y-229682500D03*
%TD*%
D25*
%TO.N,Net-(D24-K)*%
%TO.C,C74*%
X114800000Y-61822220D03*
D26*
%TO.N,GND*%
X114800000Y-69322220D03*
%TD*%
D31*
%TO.N,GND*%
%TO.C,J27*%
X178750000Y-232250000D03*
D32*
%TO.N,/Output connectors/3.3V_FUSE*%
X181250000Y-232250000D03*
%TD*%
D12*
%TO.N,GND*%
%TO.C,J6*%
X125000000Y-147700000D03*
%TD*%
D38*
%TO.N,Net-(D8-A-Pad1)*%
%TO.C,D8*%
X165250000Y-197920000D03*
D39*
%TO.N,Net-(D8-K)*%
X170700000Y-197920000D03*
%TO.N,Net-(D8-A-Pad3)*%
X176150000Y-197920000D03*
%TD*%
D25*
%TO.N,Net-(U25-+)*%
%TO.C,C75*%
X99977780Y-65200000D03*
D26*
%TO.N,GND*%
X92477780Y-65200000D03*
%TD*%
D50*
%TO.N,/Internal 5V & out usb/+5V_OUT*%
%TO.C,J21*%
X114250000Y-199700000D03*
D44*
%TO.N,GND*%
X114250000Y-193700000D03*
%TD*%
D10*
%TO.N,Net-(Q1-G)*%
%TO.C,Q1*%
X147760000Y-169800000D03*
D11*
%TO.N,/Internal 5V & out usb/400V*%
X150300000Y-169800000D03*
%TO.N,Net-(Q1-S)*%
X152840000Y-169800000D03*
%TD*%
D51*
%TO.N,GND*%
%TO.C,TP6*%
X89400000Y-106500000D03*
%TD*%
D13*
%TO.N,unconnected-(J15-Pin_1-Pad1)*%
%TO.C,J15*%
X89930000Y-88820000D03*
D14*
%TO.N,/Control & Fan/+5V_VSYS*%
X92470000Y-88820000D03*
%TO.N,unconnected-(J15-Pin_3-Pad3)*%
X89930000Y-91360000D03*
%TO.N,/Control & Fan/ATTINY_RXD*%
X92470000Y-91360000D03*
%TO.N,/Control & Fan/ATTINY_RESET#*%
X89930000Y-93900000D03*
%TO.N,/Control & Fan/ATTINY_TXD*%
X92470000Y-93900000D03*
%TO.N,unconnected-(J15-Pin_7-Pad7)*%
X89930000Y-96440000D03*
%TO.N,GND*%
X92470000Y-96440000D03*
%TO.N,unconnected-(J15-Pin_9-Pad9)*%
X89930000Y-98980000D03*
%TO.N,GND*%
X92470000Y-98980000D03*
%TD*%
D26*
%TO.N,Net-(C69-Pad1)*%
%TO.C,C69*%
X189400000Y-108950000D03*
%TO.N,/Internal 5V & out usb/400V*%
X189400000Y-86450000D03*
%TD*%
D52*
%TO.N,Net-(U13-XTAL2{slash}PB7)*%
%TO.C,X1*%
X90987500Y-138850000D03*
%TO.N,Net-(U13-XTAL1{slash}PB6)*%
X90987500Y-133970000D03*
%TD*%
D30*
%TO.N,Net-(Q10-D)*%
%TO.C,TR2*%
X174920000Y-134060000D03*
%TO.N,Net-(D24-A-Pad1)*%
X134280000Y-134060000D03*
%TO.N,Net-(Q10-D)*%
X174920000Y-128980000D03*
%TO.N,Net-(D24-A-Pad1)*%
X134280000Y-128980000D03*
%TO.N,N/C*%
X174920000Y-123900000D03*
%TO.N,Net-(D24-A-Pad1)*%
X134280000Y-123900000D03*
%TO.N,Net-(C69-Pad1)*%
X174920000Y-118820000D03*
%TO.N,Net-(D24-A-Pad1)*%
X134280000Y-118820000D03*
%TO.N,Net-(C69-Pad1)*%
X174920000Y-113740000D03*
%TO.N,N/C*%
X134280000Y-113740000D03*
X174920000Y-108660000D03*
X134280000Y-108660000D03*
%TO.N,Net-(D24-A-Pad3)*%
X174920000Y-103580000D03*
%TO.N,GND*%
X134280000Y-103580000D03*
%TO.N,Net-(D24-A-Pad3)*%
X174920000Y-98500000D03*
%TO.N,GND*%
X134280000Y-98500000D03*
%TO.N,Net-(D24-A-Pad3)*%
X174920000Y-93420000D03*
%TO.N,GND*%
X134280000Y-93420000D03*
%TO.N,Net-(D24-A-Pad3)*%
X174920000Y-88340000D03*
%TO.N,GND*%
X134280000Y-88340000D03*
%TD*%
D53*
%TO.N,/Internal 5V & out usb/USB_1_BP*%
%TO.C,D1*%
X102595000Y-199200000D03*
D54*
%TO.N,Net-(D1-A)*%
X106405000Y-199200000D03*
%TD*%
D16*
%TO.N,GNDPWR*%
%TO.C,C19*%
X157700000Y-161900000D03*
D34*
%TO.N,/Internal 5V & out usb/400V*%
X137700000Y-161900000D03*
%TD*%
D15*
%TO.N,Net-(R63-Pad1)*%
%TO.C,U24*%
X145825000Y-89300000D03*
D34*
%TO.N,Net-(Q11-D)*%
X148365000Y-89300000D03*
%TO.N,/Power output/DCDC_FEEDBACK*%
X148365000Y-96920000D03*
%TO.N,/Power output/DCDC_5V_VREF*%
X145825000Y-96920000D03*
%TD*%
D15*
%TO.N,Net-(R54-Pad1)*%
%TO.C,U21*%
X162500000Y-92800000D03*
D34*
%TO.N,Net-(Q7-D)*%
X165040000Y-92800000D03*
%TO.N,Net-(Q8-G)*%
X165040000Y-100420000D03*
%TO.N,/Power output/DCDC_5V_VREF*%
X162500000Y-100420000D03*
%TD*%
D55*
%TO.N,GNDPWR*%
X159200000Y-122000000D03*
%TO.N,GND*%
X92500000Y-165925000D03*
X88900000Y-166700000D03*
X98600000Y-92200000D03*
X104500000Y-204700000D03*
X100700000Y-105200000D03*
X121250000Y-215950000D03*
X99000000Y-96600000D03*
X114700000Y-85400000D03*
X103800000Y-155600000D03*
X106250000Y-166200000D03*
X97612500Y-136150000D03*
X95112500Y-136400000D03*
X99400000Y-91400000D03*
X96400000Y-168700000D03*
X119500000Y-85200000D03*
X110900000Y-85500000D03*
X122500000Y-216950000D03*
X106000000Y-169700000D03*
X100900000Y-172100000D03*
X99400000Y-92200000D03*
X93500000Y-163700000D03*
X151512500Y-82700000D03*
X106400000Y-160400000D03*
X121250000Y-216950000D03*
X101900000Y-160500000D03*
X122500000Y-215950000D03*
X97600000Y-172400000D03*
X98600000Y-91400000D03*
X106862500Y-136200000D03*
X157100000Y-222100000D03*
X96400000Y-162500000D03*
X109250000Y-213450000D03*
X94200000Y-154500000D03*
X97600000Y-170800000D03*
%TO.N,/Control & Fan/+5V_VSYS*%
X95100000Y-167500000D03*
X127000000Y-88700000D03*
X162000000Y-85000000D03*
X87800000Y-159200000D03*
X102100000Y-127300000D03*
X118100000Y-152700000D03*
X94900000Y-96800000D03*
X102612500Y-111400000D03*
X116000000Y-153800000D03*
X153150000Y-222762500D03*
X103612500Y-137800000D03*
X118100000Y-153800000D03*
X96500000Y-233200000D03*
X91200000Y-81129107D03*
X116000000Y-152700000D03*
X96200000Y-102800000D03*
X150000000Y-233200000D03*
X117000000Y-153800000D03*
X92500000Y-167475000D03*
X106000000Y-168200000D03*
X123250000Y-233200000D03*
X117000000Y-152700000D03*
X124900000Y-215118750D03*
X100900000Y-170500000D03*
X145500000Y-85000000D03*
%TO.N,/Internal 5V & out usb/USB_1_+5V*%
X98700000Y-177000000D03*
%TO.N,/Internal 5V & out usb/+3.3_VOUT*%
X181000000Y-202200000D03*
%TO.N,/Control & Fan/RESET#*%
X103500000Y-134200000D03*
%TO.N,/Power output/DCDC_5V_VREF*%
X146300000Y-113800000D03*
%TO.N,Net-(U5-CT)*%
X142400000Y-182300000D03*
X146900000Y-185200000D03*
%TO.N,/Control & Fan/ENABLE_FAN*%
X94612500Y-109900000D03*
X110112500Y-133650000D03*
%TO.N,/Internal 5V & out usb/VBUS_1_+*%
X114750000Y-215700000D03*
X97300000Y-219500000D03*
%TO.N,/Internal 5V & out usb/VBUS_3_+*%
X140024897Y-220825604D03*
X126500000Y-216725500D03*
%TO.N,/Internal 5V & out usb/VBUS_1*%
X114000000Y-214950000D03*
X95450000Y-220250000D03*
%TO.N,/Internal 5V & out usb/VBUS_2*%
X118750000Y-223950000D03*
X118500000Y-219950000D03*
X117250000Y-221449500D03*
%TO.N,/Internal 5V & out usb/VBUS_3*%
X145250000Y-223950000D03*
%TO.N,/Control & Fan/SCK*%
X111587500Y-145537500D03*
X112900000Y-138400000D03*
%TO.N,/Internal 5V & out usb/+5V_OUT*%
X131100000Y-211700000D03*
X132000000Y-211700000D03*
X181000000Y-210200000D03*
X131100000Y-212600000D03*
X132000000Y-209900000D03*
X131100000Y-210800000D03*
X131100000Y-209900000D03*
X133800000Y-211700000D03*
X133800000Y-209900000D03*
X132000000Y-210800000D03*
X133800000Y-212600000D03*
X132900000Y-210800000D03*
X105400000Y-207850000D03*
X164500000Y-222450000D03*
X132900000Y-211700000D03*
X132900000Y-209900000D03*
X133800000Y-210800000D03*
X132900000Y-212600000D03*
X132000000Y-212600000D03*
%TO.N,/Control & Fan/TFT_ENABLE#*%
X108862500Y-131400000D03*
%TO.N,/Control & Fan/POWER_OUTPUT_FB*%
X119200000Y-95500000D03*
X119300000Y-107300000D03*
X119400000Y-87100000D03*
X146000000Y-82450000D03*
%TO.N,/Control & Fan/POWER_OUTPUT_IC_FB*%
X115300000Y-107100000D03*
X102100000Y-94700000D03*
%TO.N,/Control & Fan/IS_ONOFF_BUTTON_PRESSED*%
X115400000Y-109400000D03*
%TO.N,/Internal 5V & out usb/VREF_2V5*%
X150250000Y-229950000D03*
X123250000Y-230200000D03*
X121000000Y-232700000D03*
X96375000Y-230075000D03*
X94885000Y-232585000D03*
X147500000Y-232450000D03*
%TO.N,/Control & Fan/SCL*%
X109000000Y-171700000D03*
X155500000Y-225549500D03*
X104862500Y-130650000D03*
X122590333Y-213546682D03*
X98000000Y-89200000D03*
%TO.N,/Control & Fan/SDA*%
X157400000Y-225300000D03*
X99000000Y-88700000D03*
X106112500Y-130529500D03*
X121550000Y-212797182D03*
X109750000Y-172500000D03*
%TO.N,/Output connectors/3.3V_FUSE*%
X188800000Y-218700000D03*
%TO.N,/Control & Fan/TFT_DC*%
X107362500Y-130650000D03*
%TO.N,/Internal 5V & out usb/V_STANDBY*%
X149800000Y-115700000D03*
X142700000Y-122800000D03*
X134200000Y-179700000D03*
%TO.N,Net-(D8-K)*%
X142600000Y-210000000D03*
X140800000Y-211800000D03*
X143500000Y-210900000D03*
X141700000Y-210900000D03*
X141700000Y-212700000D03*
X140800000Y-210900000D03*
X141700000Y-210000000D03*
X143500000Y-212700000D03*
X143500000Y-211800000D03*
X140800000Y-212700000D03*
X142600000Y-211800000D03*
X142600000Y-212700000D03*
X140800000Y-210000000D03*
X143500000Y-210000000D03*
X141700000Y-211800000D03*
X142600000Y-210900000D03*
%TO.N,/Control & Fan/SIGNAL_OUT*%
X190400000Y-214400000D03*
X184300000Y-214400000D03*
X111000000Y-175700000D03*
%TO.N,/Control & Fan/POWER_OUTPUT_OVERLOADED_LED*%
X112800000Y-85400000D03*
X96100000Y-90300000D03*
%TO.N,/Control & Fan/POWER_OUTPUT_VOLT_SENSE*%
X92700000Y-71800000D03*
%TO.N,/Control & Fan/POWER_OUTPUT_CURRENT_SENSE*%
X94100000Y-78700000D03*
%TO.N,/Control & Fan/SIGNAL_ALWAYS_ON*%
X113249500Y-150800000D03*
X110250000Y-135700000D03*
%TO.N,/Internal 5V & out usb/VBUS1_3.3V*%
X103300000Y-222200000D03*
X94500000Y-231300000D03*
%TO.N,/Control & Fan/TFT_CS*%
X110362500Y-143650000D03*
%TO.N,/Control & Fan/POWER_OUTPUT_VOUT_LED*%
X116600000Y-85400000D03*
X95300000Y-91400000D03*
%TO.N,/Power output/DCDC_SHUTDOWN*%
X162200000Y-104300000D03*
X157300000Y-110500000D03*
%TO.N,/Control & Fan/POWER_OUTPUT_SHUTDOWN#*%
X101900000Y-91000000D03*
X104600000Y-92700000D03*
X164225000Y-86400000D03*
%TO.N,/Internal 5V & out usb/DCDC_FEEDBACK*%
X149000000Y-180300000D03*
%TO.N,/Power output/DCDC_FEEDBACK*%
X148400000Y-101700000D03*
%TO.N,/Control & Fan/SIGNAL_GEN_SHTDN*%
X97700000Y-162500000D03*
X100900000Y-152400000D03*
X102524500Y-135700000D03*
%TO.N,Net-(U2-FB)*%
X103750000Y-184450000D03*
%TO.N,Net-(U22-CT)*%
X156000000Y-99700000D03*
X152100000Y-101600000D03*
%TO.N,Net-(D16-A)*%
X92362500Y-109900000D03*
%TO.N,Net-(D18-A)*%
X96612500Y-109900000D03*
%TO.N,Net-(D1-A)*%
X101100000Y-188500000D03*
X99850000Y-187000000D03*
X101100000Y-187000000D03*
X102350000Y-187000000D03*
X98600000Y-188500000D03*
X99850000Y-188500000D03*
X98600000Y-187000000D03*
X102350000Y-188500000D03*
%TO.N,Net-(Q10-D)*%
X151800000Y-124600000D03*
%TO.N,Net-(U5-OUTA)*%
X127900000Y-183200000D03*
%TO.N,Net-(U5-OUTB)*%
X129500000Y-179600000D03*
%TO.N,Net-(U17-VOUT)*%
X95400000Y-165675000D03*
%TO.N,/Control & Fan/ATTINY_VREF_2V5*%
X104600000Y-95100000D03*
%TO.N,Net-(JP1-C)*%
X87800000Y-163400000D03*
%TD*%
D56*
%TO.N,GNDPWR*%
X194600000Y-79012754D02*
X194600000Y-136300000D01*
X153787000Y-145687000D02*
X153787000Y-143602000D01*
D57*
X163600000Y-147300000D02*
X164000000Y-146900000D01*
D56*
X128800000Y-155200000D02*
X128800000Y-162682380D01*
X190900000Y-140000000D02*
X173000000Y-140000000D01*
X171900000Y-157000000D02*
X146200000Y-157000000D01*
X190787246Y-75200000D02*
X194600000Y-79012754D01*
X166100000Y-146900000D02*
X164000000Y-146900000D01*
D57*
X159200000Y-133300000D02*
X159200000Y-122000000D01*
X153787000Y-143602000D02*
X153787000Y-138713000D01*
D56*
X146200000Y-157000000D02*
X144500000Y-158700000D01*
X155000000Y-146900000D02*
X153787000Y-145687000D01*
X128800000Y-162682380D02*
X128782380Y-162700000D01*
D57*
X163600000Y-154300000D02*
X163600000Y-147300000D01*
D56*
X194600000Y-136300000D02*
X190900000Y-140000000D01*
X173000000Y-140000000D02*
X166100000Y-146900000D01*
D57*
X153787000Y-138713000D02*
X159200000Y-133300000D01*
D56*
X191587246Y-145300000D02*
X185987246Y-150900000D01*
X144500000Y-158700000D02*
X128800000Y-158700000D01*
X178000000Y-150900000D02*
X171900000Y-157000000D01*
X185987246Y-150900000D02*
X178000000Y-150900000D01*
X164000000Y-146900000D02*
X155000000Y-146900000D01*
D58*
%TO.N,GND*%
X124700000Y-195912755D02*
X122487245Y-193700000D01*
X122487245Y-193700000D02*
X114360000Y-193700000D01*
D59*
X123820000Y-80880000D02*
X119500000Y-85200000D01*
X149680000Y-80880000D02*
X123820000Y-80880000D01*
X149680000Y-80880000D02*
X151500000Y-82700000D01*
%TO.N,/Control & Fan/+5V_VSYS*%
X145500000Y-85000000D02*
X162000000Y-85000000D01*
X127000000Y-86100000D02*
X128100000Y-85000000D01*
X127000000Y-88700000D02*
X127000000Y-86100000D01*
X128100000Y-85000000D02*
X145500000Y-85000000D01*
D57*
%TO.N,/Internal 5V & out usb/+5V_OUT*%
X162400000Y-207800000D02*
X164800000Y-210200000D01*
X161400000Y-207800000D02*
X162400000Y-207800000D01*
X161000000Y-208200000D02*
X161400000Y-207800000D01*
X164800000Y-210200000D02*
X181000000Y-210200000D01*
X161000000Y-208200000D02*
X164500000Y-211700000D01*
D56*
X137200000Y-208200000D02*
X161000000Y-208200000D01*
D60*
X137200000Y-213000000D02*
X142900000Y-218700000D01*
D56*
X124700000Y-203412755D02*
X129487245Y-208200000D01*
D60*
X137200000Y-208200000D02*
X137200000Y-213000000D01*
D56*
X129487245Y-208200000D02*
X137200000Y-208200000D01*
D57*
X164500000Y-211700000D02*
X164500000Y-222450000D01*
D60*
%TO.N,/Control & Fan/POWER_OUTPUT_FB*%
X119400000Y-87100000D02*
X119400000Y-86800000D01*
D59*
X119400000Y-86800000D02*
X123750000Y-82450000D01*
X123750000Y-82450000D02*
X146000000Y-82450000D01*
%TO.N,/Control & Fan/POWER_OUTPUT_IC_FB*%
X114500000Y-107100000D02*
X115300000Y-107100000D01*
X102100000Y-94700000D02*
X114500000Y-107100000D01*
%TO.N,/Control & Fan/IS_ONOFF_BUTTON_PRESSED*%
X115400000Y-119200000D02*
X121300000Y-125100000D01*
X118600000Y-146600000D02*
X107912500Y-146600000D01*
X115400000Y-109400000D02*
X115400000Y-119200000D01*
X121300000Y-143900000D02*
X118600000Y-146600000D01*
X121300000Y-125100000D02*
X121300000Y-143900000D01*
X107912500Y-146600000D02*
X106112500Y-148400000D01*
D60*
%TO.N,/Control & Fan/SCL*%
X106923161Y-129150000D02*
X108112500Y-130339339D01*
X109000000Y-204657106D02*
X117889576Y-213546682D01*
X104250000Y-137376839D02*
X104250000Y-132744606D01*
X104250000Y-132744606D02*
X102862500Y-131357106D01*
X127600000Y-223300000D02*
X127600000Y-215600000D01*
X104250000Y-138223161D02*
X103923161Y-138550000D01*
X102862500Y-138110661D02*
X102862500Y-137489339D01*
X129600000Y-225300000D02*
X127600000Y-223300000D01*
X108112500Y-130960661D02*
X107673161Y-131400000D01*
X103301839Y-137050000D02*
X103923161Y-137050000D01*
X104250000Y-150450000D02*
X104250000Y-138223161D01*
X102862500Y-129942894D02*
X103655394Y-129150000D01*
X107673161Y-131400000D02*
X105612500Y-131400000D01*
X109000000Y-155200000D02*
X104250000Y-150450000D01*
X105612500Y-131400000D02*
X104862500Y-130650000D01*
X108112500Y-130339339D02*
X108112500Y-130960661D01*
X103301839Y-138550000D02*
X102862500Y-138110661D01*
X125546682Y-213546682D02*
X122590333Y-213546682D01*
X102862500Y-131357106D02*
X102862500Y-129942894D01*
X117889576Y-213546682D02*
X122590333Y-213546682D01*
X109000000Y-171700000D02*
X109000000Y-204657106D01*
X155250500Y-225300000D02*
X129600000Y-225300000D01*
X109000000Y-171700000D02*
X109000000Y-155200000D01*
X127600000Y-215600000D02*
X125546682Y-213546682D01*
X155500000Y-225549500D02*
X155250500Y-225300000D01*
X103655394Y-129150000D02*
X106923161Y-129150000D01*
X103923161Y-138550000D02*
X103301839Y-138550000D01*
X102862500Y-137489339D02*
X103301839Y-137050000D01*
X103923161Y-137050000D02*
X104250000Y-137376839D01*
%TO.N,/Control & Fan/SDA*%
X117950000Y-212900000D02*
X121447182Y-212900000D01*
X121447182Y-212900000D02*
X121550000Y-212797182D01*
X157400000Y-225300000D02*
X156900000Y-224800000D01*
X103362500Y-130150000D02*
X103862500Y-129650000D01*
X106112500Y-130150000D02*
X106112500Y-130529500D01*
X103862500Y-129650000D02*
X105612500Y-129650000D01*
X109750000Y-155200000D02*
X104750000Y-150200000D01*
X128100000Y-215392894D02*
X125504288Y-212797182D01*
X125504288Y-212797182D02*
X121550000Y-212797182D01*
X109750000Y-204700000D02*
X117950000Y-212900000D01*
X128100000Y-223092894D02*
X128100000Y-215392894D01*
X109750000Y-172500000D02*
X109750000Y-204700000D01*
X104750000Y-150200000D02*
X104750000Y-132537500D01*
X129807106Y-224800000D02*
X128100000Y-223092894D01*
X105612500Y-129650000D02*
X106112500Y-130150000D01*
X109750000Y-172500000D02*
X109750000Y-155200000D01*
X103362500Y-131150000D02*
X103362500Y-130150000D01*
X156900000Y-224800000D02*
X129807106Y-224800000D01*
X104750000Y-132537500D02*
X103362500Y-131150000D01*
D57*
%TO.N,/Output connectors/3.3V_FUSE*%
X173800000Y-220000000D02*
X180400000Y-226600000D01*
X181750000Y-226600000D02*
X186300000Y-226600000D01*
X172900000Y-219200000D02*
X175500000Y-216600000D01*
X181250000Y-226850000D02*
X181250000Y-232250000D01*
X181000000Y-226600000D02*
X181250000Y-226850000D01*
X186700000Y-216600000D02*
X188800000Y-218700000D01*
X188890000Y-229190000D02*
X188890000Y-230275000D01*
X181750000Y-226600000D02*
X181000000Y-226600000D01*
X186300000Y-226600000D02*
X188890000Y-229190000D01*
X175500000Y-216600000D02*
X186700000Y-216600000D01*
X180400000Y-226600000D02*
X181750000Y-226600000D01*
D59*
%TO.N,/Internal 5V & out usb/V_STANDBY*%
X131282380Y-176682380D02*
X134300000Y-179700000D01*
X131282380Y-162700000D02*
X131282380Y-176682380D01*
D60*
%TO.N,/Control & Fan/POWER_OUTPUT_OVERLOADED_LED*%
X96100000Y-86400000D02*
X97800000Y-84700000D01*
X96100000Y-90300000D02*
X96100000Y-86400000D01*
X112100000Y-84700000D02*
X112800000Y-85400000D01*
X97800000Y-84700000D02*
X112100000Y-84700000D01*
D59*
%TO.N,/Internal 5V & out usb/VBUS1_3.3V*%
X96000000Y-228700000D02*
X94500000Y-230200000D01*
X103300000Y-222200000D02*
X103300000Y-225400000D01*
X100000000Y-228700000D02*
X96000000Y-228700000D01*
X94500000Y-230200000D02*
X94500000Y-231300000D01*
X103300000Y-225400000D02*
X100000000Y-228700000D01*
D60*
%TO.N,/Control & Fan/TFT_CS*%
X110362500Y-143650000D02*
X111362500Y-142650000D01*
X111362500Y-129400000D02*
X115362500Y-125400000D01*
X111362500Y-142650000D02*
X111362500Y-129400000D01*
%TO.N,/Control & Fan/POWER_OUTPUT_VOUT_LED*%
X95300000Y-91400000D02*
X95350000Y-91350000D01*
X97100000Y-84200000D02*
X115400000Y-84200000D01*
X95350000Y-85950000D02*
X97100000Y-84200000D01*
X115400000Y-84200000D02*
X116600000Y-85400000D01*
X95350000Y-91350000D02*
X95350000Y-85950000D01*
D59*
%TO.N,/Control & Fan/POWER_OUTPUT_SHUTDOWN#*%
X101900000Y-91500000D02*
X101900000Y-91000000D01*
X128000000Y-91500000D02*
X126800000Y-92700000D01*
X103100000Y-92700000D02*
X101900000Y-91500000D01*
X126800000Y-92700000D02*
X104600000Y-92700000D01*
X104600000Y-92700000D02*
X103100000Y-92700000D01*
X128000000Y-87100000D02*
X128000000Y-91500000D01*
X164225000Y-86400000D02*
X128700000Y-86400000D01*
X128700000Y-86400000D02*
X128000000Y-87100000D01*
D58*
%TO.N,Net-(D8-A-Pad1)*%
X165250000Y-197920000D02*
X165200000Y-197870000D01*
X165200000Y-197870000D02*
X165200000Y-185460000D01*
X162360000Y-185460000D02*
X172520000Y-185460000D01*
X162360000Y-165140000D02*
X162360000Y-185460000D01*
D59*
%TO.N,Net-(Q10-D)*%
X151800000Y-125100000D02*
X135087000Y-141813000D01*
X151800000Y-124600000D02*
X151800000Y-125100000D01*
X135087000Y-141813000D02*
X135087000Y-143702000D01*
%TD*%
%TA.AperFunction,Conductor*%
%TO.N,GNDPWR*%
G36*
X154286185Y-141671229D02*
G01*
X154289248Y-141676608D01*
X154718291Y-143357292D01*
X154717017Y-143366156D01*
X154709849Y-143371522D01*
X154709802Y-143371534D01*
X153789847Y-143602285D01*
X153784153Y-143602285D01*
X152864197Y-143371534D01*
X152857007Y-143366198D01*
X152855696Y-143357339D01*
X152855708Y-143357292D01*
X153284752Y-141676608D01*
X153290118Y-141669440D01*
X153296088Y-141667802D01*
X154277912Y-141667802D01*
X154286185Y-141671229D01*
G37*
%TD.AperFunction*%
%TD*%
%TA.AperFunction,Conductor*%
%TO.N,GNDPWR*%
G36*
X164098563Y-152703427D02*
G01*
X164101790Y-152709544D01*
X164397405Y-154286161D01*
X164395561Y-154294924D01*
X164388061Y-154299817D01*
X164385920Y-154300017D01*
X163600015Y-154300999D01*
X163599985Y-154300999D01*
X162814079Y-154300017D01*
X162805811Y-154296580D01*
X162802394Y-154288302D01*
X162802593Y-154286169D01*
X163098210Y-152709542D01*
X163103103Y-152702044D01*
X163109710Y-152700000D01*
X164090290Y-152700000D01*
X164098563Y-152703427D01*
G37*
%TD.AperFunction*%
%TD*%
%TA.AperFunction,Conductor*%
%TO.N,GND*%
G36*
X119895775Y-84464404D02*
G01*
X120235595Y-84804224D01*
X120239022Y-84812497D01*
X120236978Y-84819104D01*
X119790783Y-85471237D01*
X119783283Y-85476130D01*
X119774520Y-85474286D01*
X119772875Y-85472924D01*
X119499293Y-85200707D01*
X119499251Y-85200665D01*
X119227075Y-84927124D01*
X119223669Y-84918843D01*
X119227117Y-84910578D01*
X119228756Y-84909220D01*
X119880895Y-84463020D01*
X119889658Y-84461177D01*
X119895775Y-84464404D01*
G37*
%TD.AperFunction*%
%TD*%
%TA.AperFunction,Conductor*%
%TO.N,GND*%
G36*
X151126566Y-81970364D02*
G01*
X151387642Y-82144775D01*
X151657606Y-82325126D01*
X151662582Y-82332570D01*
X151661927Y-82339306D01*
X151514103Y-82698527D01*
X151511535Y-82702369D01*
X151239520Y-82973028D01*
X151231239Y-82976434D01*
X151222974Y-82972986D01*
X151221681Y-82971440D01*
X150770655Y-82326624D01*
X150768721Y-82317881D01*
X150771967Y-82311647D01*
X151111795Y-81971819D01*
X151120067Y-81968393D01*
X151126566Y-81970364D01*
G37*
%TD.AperFunction*%
%TD*%
%TA.AperFunction,Conductor*%
%TO.N,/Control & Fan/+5V_VSYS*%
G36*
X161994942Y-84604435D02*
G01*
X161999835Y-84611935D01*
X162000035Y-84614062D01*
X162001000Y-85000000D01*
X162001000Y-85000058D01*
X162000035Y-85385937D01*
X161996587Y-85394202D01*
X161988306Y-85397608D01*
X161986179Y-85397408D01*
X161209544Y-85251789D01*
X161202044Y-85246896D01*
X161200000Y-85240289D01*
X161200000Y-84759710D01*
X161203427Y-84751437D01*
X161209542Y-84748210D01*
X161986180Y-84602591D01*
X161994942Y-84604435D01*
G37*
%TD.AperFunction*%
%TD*%
%TA.AperFunction,Conductor*%
%TO.N,/Control & Fan/+5V_VSYS*%
G36*
X145513817Y-84602590D02*
G01*
X146290457Y-84748210D01*
X146297956Y-84753103D01*
X146300000Y-84759710D01*
X146300000Y-85240289D01*
X146296573Y-85248562D01*
X146290456Y-85251789D01*
X145513820Y-85397408D01*
X145505057Y-85395564D01*
X145500164Y-85388064D01*
X145499964Y-85385946D01*
X145499000Y-85000000D01*
X145499964Y-84614059D01*
X145503412Y-84605797D01*
X145511693Y-84602391D01*
X145513817Y-84602590D01*
G37*
%TD.AperFunction*%
%TD*%
%TA.AperFunction,Conductor*%
%TO.N,/Control & Fan/+5V_VSYS*%
G36*
X127248563Y-87903427D02*
G01*
X127251790Y-87909544D01*
X127397408Y-88686179D01*
X127395564Y-88694942D01*
X127388064Y-88699835D01*
X127385937Y-88700035D01*
X127000029Y-88700999D01*
X126999971Y-88700999D01*
X126614062Y-88700035D01*
X126605797Y-88696587D01*
X126602391Y-88688306D01*
X126602591Y-88686179D01*
X126748210Y-87909544D01*
X126753103Y-87902044D01*
X126759710Y-87900000D01*
X127240290Y-87900000D01*
X127248563Y-87903427D01*
G37*
%TD.AperFunction*%
%TD*%
%TA.AperFunction,Conductor*%
%TO.N,/Control & Fan/+5V_VSYS*%
G36*
X145494942Y-84604435D02*
G01*
X145499835Y-84611935D01*
X145500035Y-84614062D01*
X145501000Y-85000000D01*
X145501000Y-85000058D01*
X145500035Y-85385937D01*
X145496587Y-85394202D01*
X145488306Y-85397608D01*
X145486179Y-85397408D01*
X144709544Y-85251789D01*
X144702044Y-85246896D01*
X144700000Y-85240289D01*
X144700000Y-84759710D01*
X144703427Y-84751437D01*
X144709542Y-84748210D01*
X145486180Y-84602591D01*
X145494942Y-84604435D01*
G37*
%TD.AperFunction*%
%TD*%
%TA.AperFunction,Conductor*%
%TO.N,/Internal 5V & out usb/+5V_OUT*%
G36*
X141820880Y-217404058D02*
G01*
X143366996Y-217864807D01*
X143373945Y-217870453D01*
X143374867Y-217879360D01*
X143374468Y-217880485D01*
X143037562Y-218696214D01*
X143031236Y-218702553D01*
X143031214Y-218702562D01*
X142214252Y-219039977D01*
X142205298Y-219039968D01*
X142199001Y-219033698D01*
X141605114Y-217621445D01*
X141605067Y-217612494D01*
X141607625Y-217608642D01*
X141809269Y-217406998D01*
X141817541Y-217403572D01*
X141820880Y-217404058D01*
G37*
%TD.AperFunction*%
%TD*%
%TA.AperFunction,Conductor*%
%TO.N,/Control & Fan/POWER_OUTPUT_FB*%
G36*
X119597751Y-86265307D02*
G01*
X119598482Y-86265979D01*
X119938240Y-86605737D01*
X119941667Y-86614010D01*
X119941263Y-86617060D01*
X119773014Y-87240247D01*
X119767549Y-87247341D01*
X119758668Y-87248493D01*
X119757266Y-87248017D01*
X119401472Y-87101603D01*
X119397630Y-87099035D01*
X119124717Y-86824755D01*
X119121311Y-86816474D01*
X119124064Y-86808963D01*
X119581264Y-86266709D01*
X119589217Y-86262594D01*
X119597751Y-86265307D01*
G37*
%TD.AperFunction*%
%TD*%
%TA.AperFunction,Conductor*%
%TO.N,/Control & Fan/POWER_OUTPUT_FB*%
G36*
X145994942Y-82054435D02*
G01*
X145999835Y-82061935D01*
X146000035Y-82064062D01*
X146001000Y-82450000D01*
X146001000Y-82450058D01*
X146000035Y-82835937D01*
X145996587Y-82844202D01*
X145988306Y-82847608D01*
X145986179Y-82847408D01*
X145209544Y-82701789D01*
X145202044Y-82696896D01*
X145200000Y-82690289D01*
X145200000Y-82209710D01*
X145203427Y-82201437D01*
X145209542Y-82198210D01*
X145986180Y-82052591D01*
X145994942Y-82054435D01*
G37*
%TD.AperFunction*%
%TD*%
%TA.AperFunction,Conductor*%
%TO.N,/Control & Fan/POWER_OUTPUT_IC_FB*%
G36*
X115294942Y-106704435D02*
G01*
X115299835Y-106711935D01*
X115300035Y-106714062D01*
X115301000Y-107100000D01*
X115301000Y-107100058D01*
X115300035Y-107485937D01*
X115296587Y-107494202D01*
X115288306Y-107497608D01*
X115286179Y-107497408D01*
X114509544Y-107351789D01*
X114502044Y-107346896D01*
X114500000Y-107340289D01*
X114500000Y-106859710D01*
X114503427Y-106851437D01*
X114509542Y-106848210D01*
X115286180Y-106702591D01*
X115294942Y-106704435D01*
G37*
%TD.AperFunction*%
%TD*%
%TA.AperFunction,Conductor*%
%TO.N,/Control & Fan/POWER_OUTPUT_IC_FB*%
G36*
X102389421Y-94427117D02*
G01*
X102390783Y-94428762D01*
X102836978Y-95080895D01*
X102838822Y-95089658D01*
X102835595Y-95095775D01*
X102495775Y-95435595D01*
X102487502Y-95439022D01*
X102480895Y-95436978D01*
X101828762Y-94990783D01*
X101823869Y-94983283D01*
X101825713Y-94974520D01*
X101827075Y-94972875D01*
X102099251Y-94699335D01*
X102099293Y-94699293D01*
X102372875Y-94427075D01*
X102381156Y-94423669D01*
X102389421Y-94427117D01*
G37*
%TD.AperFunction*%
%TD*%
%TA.AperFunction,Conductor*%
%TO.N,/Control & Fan/IS_ONOFF_BUTTON_PRESSED*%
G36*
X115785939Y-109399964D02*
G01*
X115794202Y-109403412D01*
X115797608Y-109411693D01*
X115797408Y-109413820D01*
X115651790Y-110190456D01*
X115646897Y-110197956D01*
X115640290Y-110200000D01*
X115159710Y-110200000D01*
X115151437Y-110196573D01*
X115148210Y-110190456D01*
X115002591Y-109413820D01*
X115004435Y-109405057D01*
X115011935Y-109400164D01*
X115014052Y-109399964D01*
X115400000Y-109399000D01*
X115785939Y-109399964D01*
G37*
%TD.AperFunction*%
%TD*%
%TA.AperFunction,Conductor*%
%TO.N,/Control & Fan/IS_ONOFF_BUTTON_PRESSED*%
G36*
X107203192Y-146960632D02*
G01*
X107206535Y-146962970D01*
X107549189Y-147305624D01*
X107552616Y-147313897D01*
X107551656Y-147318539D01*
X106913919Y-148794172D01*
X106907491Y-148800406D01*
X106898537Y-148800270D01*
X106897881Y-148799962D01*
X106117057Y-148403380D01*
X106111232Y-148396578D01*
X106110816Y-148394884D01*
X105948281Y-147425920D01*
X105950292Y-147417193D01*
X105955802Y-147412995D01*
X107194245Y-146960254D01*
X107203192Y-146960632D01*
G37*
%TD.AperFunction*%
%TD*%
%TA.AperFunction,Conductor*%
%TO.N,/Control & Fan/SCL*%
G36*
X105230896Y-130501108D02*
G01*
X105236887Y-130506731D01*
X105530541Y-131102099D01*
X105531127Y-131111035D01*
X105528321Y-131115548D01*
X105328048Y-131315821D01*
X105319775Y-131319248D01*
X105314599Y-131318041D01*
X104719231Y-131024387D01*
X104713328Y-131017654D01*
X104713587Y-131009442D01*
X104859937Y-130653802D01*
X104866253Y-130647457D01*
X105221942Y-130501087D01*
X105230896Y-130501108D01*
G37*
%TD.AperFunction*%
%TD*%
%TA.AperFunction,Conductor*%
%TO.N,/Control & Fan/SCL*%
G36*
X123382393Y-213393987D02*
G01*
X123389126Y-213399890D01*
X123390333Y-213405066D01*
X123390333Y-213688297D01*
X123386906Y-213696570D01*
X123382393Y-213699376D01*
X122753758Y-213912720D01*
X122744822Y-213912134D01*
X122739199Y-213906143D01*
X122722513Y-213866121D01*
X122591208Y-213551181D01*
X122591188Y-213542232D01*
X122739199Y-213187219D01*
X122745546Y-213180902D01*
X122753757Y-213180643D01*
X123382393Y-213393987D01*
G37*
%TD.AperFunction*%
%TD*%
%TA.AperFunction,Conductor*%
%TO.N,/Control & Fan/SCL*%
G36*
X122435843Y-213181229D02*
G01*
X122441466Y-213187220D01*
X122589456Y-213542180D01*
X122589477Y-213551134D01*
X122589456Y-213551184D01*
X122441466Y-213906143D01*
X122435119Y-213912461D01*
X122426907Y-213912720D01*
X121798273Y-213699376D01*
X121791540Y-213693473D01*
X121790333Y-213688297D01*
X121790333Y-213405066D01*
X121793760Y-213396793D01*
X121798271Y-213393987D01*
X122426908Y-213180643D01*
X122435843Y-213181229D01*
G37*
%TD.AperFunction*%
%TD*%
%TA.AperFunction,Conductor*%
%TO.N,/Control & Fan/SCL*%
G36*
X109354163Y-171846657D02*
G01*
X109360480Y-171853003D01*
X109360469Y-171861932D01*
X109345620Y-171897781D01*
X109344093Y-171900426D01*
X109313705Y-171940029D01*
X109313686Y-171940056D01*
X109295488Y-171968282D01*
X109295485Y-171968287D01*
X109293701Y-171971626D01*
X109280343Y-172002447D01*
X109189361Y-172270532D01*
X109189361Y-172270534D01*
X109186369Y-172290629D01*
X109185606Y-172293383D01*
X109164958Y-172343231D01*
X109164955Y-172343240D01*
X109145657Y-172489827D01*
X109141180Y-172497582D01*
X109134057Y-172500000D01*
X108858384Y-172500000D01*
X108850111Y-172496573D01*
X108847305Y-172492060D01*
X108846547Y-172489827D01*
X108633961Y-171863424D01*
X108634547Y-171854489D01*
X108640537Y-171848866D01*
X108995500Y-171700875D01*
X109004449Y-171700855D01*
X109354163Y-171846657D01*
G37*
%TD.AperFunction*%
%TD*%
%TA.AperFunction,Conductor*%
%TO.N,/Control & Fan/SCL*%
G36*
X155496604Y-225153927D02*
G01*
X155500031Y-225162171D01*
X155500987Y-225544624D01*
X155497581Y-225552905D01*
X155497546Y-225552941D01*
X155225029Y-225824497D01*
X155216749Y-225827909D01*
X155208917Y-225824882D01*
X154798725Y-225453483D01*
X154794892Y-225445390D01*
X154794878Y-225444810D01*
X154794878Y-225162200D01*
X154798305Y-225153927D01*
X154806578Y-225150500D01*
X155488331Y-225150500D01*
X155496604Y-225153927D01*
G37*
%TD.AperFunction*%
%TD*%
%TA.AperFunction,Conductor*%
%TO.N,/Control & Fan/SCL*%
G36*
X109149889Y-170903427D02*
G01*
X109152695Y-170907940D01*
X109366038Y-171536574D01*
X109365452Y-171545510D01*
X109359461Y-171551133D01*
X109004502Y-171699123D01*
X108995548Y-171699144D01*
X108995498Y-171699123D01*
X108640538Y-171551133D01*
X108634220Y-171544786D01*
X108633961Y-171536575D01*
X108847305Y-170907939D01*
X108853208Y-170901207D01*
X108858384Y-170900000D01*
X109141616Y-170900000D01*
X109149889Y-170903427D01*
G37*
%TD.AperFunction*%
%TD*%
%TA.AperFunction,Conductor*%
%TO.N,/Control & Fan/SDA*%
G36*
X121401409Y-212438480D02*
G01*
X121401805Y-212439331D01*
X121550093Y-212795006D01*
X121550994Y-212799537D01*
X121550034Y-213183101D01*
X121546586Y-213191366D01*
X121538305Y-213194772D01*
X121536163Y-213194569D01*
X120779981Y-213051799D01*
X120772488Y-213046897D01*
X120770452Y-213040302D01*
X120770452Y-212757136D01*
X120773879Y-212748863D01*
X120776794Y-212746736D01*
X121385656Y-212433429D01*
X121394577Y-212432691D01*
X121401409Y-212438480D01*
G37*
%TD.AperFunction*%
%TD*%
%TA.AperFunction,Conductor*%
%TO.N,/Control & Fan/SDA*%
G36*
X156822920Y-224655945D02*
G01*
X157541779Y-224926202D01*
X157548316Y-224932320D01*
X157548613Y-224941270D01*
X157548481Y-224941605D01*
X157402853Y-225295496D01*
X157396535Y-225301843D01*
X157396500Y-225301858D01*
X157040983Y-225448720D01*
X157032028Y-225448711D01*
X157025822Y-225442653D01*
X156808112Y-224952265D01*
X156807106Y-224947518D01*
X156807106Y-224666898D01*
X156810533Y-224658625D01*
X156818806Y-224655198D01*
X156822920Y-224655945D01*
G37*
%TD.AperFunction*%
%TD*%
%TA.AperFunction,Conductor*%
%TO.N,/Control & Fan/SDA*%
G36*
X122342060Y-212644487D02*
G01*
X122348793Y-212650390D01*
X122350000Y-212655566D01*
X122350000Y-212938797D01*
X122346573Y-212947070D01*
X122342060Y-212949876D01*
X121713425Y-213163220D01*
X121704489Y-213162634D01*
X121698866Y-213156643D01*
X121682180Y-213116621D01*
X121550875Y-212801681D01*
X121550855Y-212792732D01*
X121698866Y-212437719D01*
X121705213Y-212431402D01*
X121713424Y-212431143D01*
X122342060Y-212644487D01*
G37*
%TD.AperFunction*%
%TD*%
%TA.AperFunction,Conductor*%
%TO.N,/Control & Fan/SDA*%
G36*
X110069439Y-172632180D02*
G01*
X110109461Y-172648866D01*
X110115779Y-172655213D01*
X110116038Y-172663425D01*
X109902695Y-173292060D01*
X109896792Y-173298793D01*
X109891616Y-173300000D01*
X109608384Y-173300000D01*
X109600111Y-173296573D01*
X109597305Y-173292060D01*
X109383961Y-172663425D01*
X109384547Y-172654489D01*
X109390537Y-172648866D01*
X109745500Y-172500875D01*
X109754449Y-172500855D01*
X110069439Y-172632180D01*
G37*
%TD.AperFunction*%
%TD*%
%TA.AperFunction,Conductor*%
%TO.N,/Control & Fan/SDA*%
G36*
X105926676Y-129752487D02*
G01*
X105926856Y-129752672D01*
X106124472Y-129961043D01*
X106387521Y-130238410D01*
X106390728Y-130246771D01*
X106387326Y-130254713D01*
X106116646Y-130526750D01*
X106108381Y-130530198D01*
X106108331Y-130530198D01*
X105724056Y-130529520D01*
X105715789Y-130526079D01*
X105712378Y-130517945D01*
X105706544Y-129961041D01*
X105709884Y-129952734D01*
X105910131Y-129752486D01*
X105918403Y-129749060D01*
X105926676Y-129752487D01*
G37*
%TD.AperFunction*%
%TD*%
%TA.AperFunction,Conductor*%
%TO.N,/Control & Fan/SDA*%
G36*
X109899889Y-171703427D02*
G01*
X109902694Y-171707938D01*
X109997910Y-171988499D01*
X110116038Y-172336574D01*
X110115452Y-172345510D01*
X110109461Y-172351133D01*
X109754502Y-172499123D01*
X109745548Y-172499144D01*
X109745498Y-172499123D01*
X109390538Y-172351133D01*
X109384220Y-172344786D01*
X109383961Y-172336575D01*
X109474944Y-172068485D01*
X109476731Y-172065141D01*
X109524536Y-172002841D01*
X109585044Y-171856762D01*
X109604343Y-171710173D01*
X109608820Y-171702418D01*
X109615943Y-171700000D01*
X109891616Y-171700000D01*
X109899889Y-171703427D01*
G37*
%TD.AperFunction*%
%TD*%
%TA.AperFunction,Conductor*%
%TO.N,/Output connectors/3.3V_FUSE*%
G36*
X174138678Y-218994517D02*
G01*
X174142161Y-218998444D01*
X174902097Y-220391497D01*
X174903051Y-220400401D01*
X174900099Y-220405373D01*
X174204930Y-221100542D01*
X174196657Y-221103969D01*
X174191792Y-221102910D01*
X172783657Y-220459102D01*
X172777558Y-220452545D01*
X172776878Y-220447319D01*
X172898419Y-219208203D01*
X172902636Y-219200306D01*
X172908121Y-219197809D01*
X174129951Y-218992509D01*
X174138678Y-218994517D01*
G37*
%TD.AperFunction*%
%TD*%
%TA.AperFunction,Conductor*%
%TO.N,/Output connectors/3.3V_FUSE*%
G36*
X174150752Y-217254027D02*
G01*
X174845954Y-217949229D01*
X174849381Y-217957502D01*
X174848146Y-217962733D01*
X174148937Y-219361531D01*
X174142173Y-219367399D01*
X174136906Y-219367895D01*
X172908212Y-219201911D01*
X172900473Y-219197408D01*
X172898170Y-219191778D01*
X172742452Y-217952615D01*
X172744821Y-217943980D01*
X172748861Y-217940676D01*
X174137281Y-217251818D01*
X174146213Y-217251212D01*
X174150752Y-217254027D01*
G37*
%TD.AperFunction*%
%TD*%
%TA.AperFunction,Conductor*%
%TO.N,/Output connectors/3.3V_FUSE*%
G36*
X181748866Y-230419760D02*
G01*
X181752020Y-230425521D01*
X182081499Y-231924311D01*
X182079928Y-231933127D01*
X182074228Y-231937760D01*
X181254156Y-232249420D01*
X181245844Y-232249420D01*
X180425771Y-231937760D01*
X180419254Y-231931617D01*
X180418500Y-231924313D01*
X180747980Y-230425520D01*
X180753103Y-230418177D01*
X180759407Y-230416333D01*
X181740593Y-230416333D01*
X181748866Y-230419760D01*
G37*
%TD.AperFunction*%
%TD*%
%TA.AperFunction,Conductor*%
%TO.N,/Output connectors/3.3V_FUSE*%
G36*
X188857972Y-228453223D02*
G01*
X188858989Y-228454385D01*
X189784830Y-229665832D01*
X189787131Y-229674486D01*
X189783817Y-229681199D01*
X189194139Y-230272265D01*
X189185870Y-230275702D01*
X189185846Y-230275702D01*
X188349826Y-230275008D01*
X188341556Y-230271574D01*
X188338310Y-230265320D01*
X188144817Y-229156864D01*
X188146770Y-229148125D01*
X188148064Y-229146585D01*
X188841427Y-228453222D01*
X188849699Y-228449796D01*
X188857972Y-228453223D01*
G37*
%TD.AperFunction*%
%TD*%
%TA.AperFunction,Conductor*%
%TO.N,/Internal 5V & out usb/V_STANDBY*%
G36*
X133879229Y-178924174D02*
G01*
X134472846Y-179408992D01*
X134477086Y-179416880D01*
X134474507Y-179425455D01*
X134473739Y-179426306D01*
X134202369Y-179699035D01*
X134198527Y-179701603D01*
X133840207Y-179849057D01*
X133831253Y-179849036D01*
X133825450Y-179843778D01*
X133521602Y-179278696D01*
X133520703Y-179269789D01*
X133523633Y-179264887D01*
X133863557Y-178924963D01*
X133871829Y-178921537D01*
X133879229Y-178924174D01*
G37*
%TD.AperFunction*%
%TD*%
%TA.AperFunction,Conductor*%
%TO.N,/Internal 5V & out usb/V_STANDBY*%
G36*
X131290648Y-162707278D02*
G01*
X131290658Y-162707288D01*
X132075507Y-163493118D01*
X132078929Y-163501393D01*
X132076870Y-163508014D01*
X131535867Y-164294928D01*
X131528356Y-164299804D01*
X131526226Y-164300000D01*
X131038534Y-164300000D01*
X131030261Y-164296573D01*
X131028893Y-164294928D01*
X130487888Y-163508012D01*
X130486026Y-163499256D01*
X130489250Y-163493120D01*
X131274102Y-162707287D01*
X131282373Y-162703856D01*
X131290648Y-162707278D01*
G37*
%TD.AperFunction*%
%TD*%
%TA.AperFunction,Conductor*%
%TO.N,/Control & Fan/POWER_OUTPUT_OVERLOADED_LED*%
G36*
X96249889Y-89503427D02*
G01*
X96252695Y-89507940D01*
X96466038Y-90136574D01*
X96465452Y-90145510D01*
X96459461Y-90151133D01*
X96104502Y-90299123D01*
X96095548Y-90299144D01*
X96095498Y-90299123D01*
X95740538Y-90151133D01*
X95734220Y-90144786D01*
X95733961Y-90136575D01*
X95947305Y-89507939D01*
X95953208Y-89501207D01*
X95958384Y-89500000D01*
X96241616Y-89500000D01*
X96249889Y-89503427D01*
G37*
%TD.AperFunction*%
%TD*%
%TA.AperFunction,Conductor*%
%TO.N,/Control & Fan/POWER_OUTPUT_OVERLOADED_LED*%
G36*
X112347900Y-84731958D02*
G01*
X112943268Y-85025612D01*
X112949171Y-85032345D01*
X112948912Y-85040557D01*
X112802563Y-85396195D01*
X112796245Y-85402542D01*
X112796195Y-85402563D01*
X112440557Y-85548912D01*
X112431603Y-85548891D01*
X112425612Y-85543268D01*
X112131958Y-84947900D01*
X112131372Y-84938964D01*
X112134176Y-84934453D01*
X112334452Y-84734177D01*
X112342724Y-84730751D01*
X112347900Y-84731958D01*
G37*
%TD.AperFunction*%
%TD*%
%TA.AperFunction,Conductor*%
%TO.N,/Internal 5V & out usb/VBUS1_3.3V*%
G36*
X103685939Y-222199964D02*
G01*
X103694202Y-222203412D01*
X103697608Y-222211693D01*
X103697408Y-222213820D01*
X103551790Y-222990456D01*
X103546897Y-222997956D01*
X103540290Y-223000000D01*
X103059710Y-223000000D01*
X103051437Y-222996573D01*
X103048210Y-222990456D01*
X102902591Y-222213820D01*
X102904435Y-222205057D01*
X102911935Y-222200164D01*
X102914052Y-222199964D01*
X103300000Y-222199000D01*
X103685939Y-222199964D01*
G37*
%TD.AperFunction*%
%TD*%
%TA.AperFunction,Conductor*%
%TO.N,/Internal 5V & out usb/VBUS1_3.3V*%
G36*
X94748563Y-230503427D02*
G01*
X94751790Y-230509544D01*
X94897408Y-231286179D01*
X94895564Y-231294942D01*
X94888064Y-231299835D01*
X94885937Y-231300035D01*
X94500029Y-231300999D01*
X94499971Y-231300999D01*
X94114062Y-231300035D01*
X94105797Y-231296587D01*
X94102391Y-231288306D01*
X94102591Y-231286179D01*
X94248210Y-230509544D01*
X94253103Y-230502044D01*
X94259710Y-230500000D01*
X94740290Y-230500000D01*
X94748563Y-230503427D01*
G37*
%TD.AperFunction*%
%TD*%
%TA.AperFunction,Conductor*%
%TO.N,/Control & Fan/TFT_CS*%
G36*
X110828048Y-142984178D02*
G01*
X111028321Y-143184451D01*
X111031748Y-143192724D01*
X111030541Y-143197900D01*
X110736887Y-143793268D01*
X110730154Y-143799171D01*
X110721942Y-143798912D01*
X110366304Y-143652563D01*
X110359957Y-143646245D01*
X110359936Y-143646195D01*
X110213587Y-143290557D01*
X110213608Y-143281603D01*
X110219230Y-143275612D01*
X110814599Y-142981957D01*
X110823535Y-142981372D01*
X110828048Y-142984178D01*
G37*
%TD.AperFunction*%
%TD*%
%TA.AperFunction,Conductor*%
%TO.N,/Control & Fan/TFT_CS*%
G36*
X114540851Y-124863352D02*
G01*
X115358441Y-125147636D01*
X115365129Y-125153590D01*
X115365272Y-125153895D01*
X115747402Y-126005147D01*
X115747664Y-126014098D01*
X115741520Y-126020613D01*
X115741421Y-126020656D01*
X114347851Y-126630893D01*
X114338898Y-126631073D01*
X114334885Y-126628449D01*
X114133118Y-126426682D01*
X114129691Y-126418409D01*
X114130057Y-126415505D01*
X114525675Y-124871497D01*
X114531047Y-124864335D01*
X114539912Y-124863069D01*
X114540851Y-124863352D01*
G37*
%TD.AperFunction*%
%TD*%
%TA.AperFunction,Conductor*%
%TO.N,/Control & Fan/POWER_OUTPUT_VOUT_LED*%
G36*
X116147900Y-84731958D02*
G01*
X116743268Y-85025612D01*
X116749171Y-85032345D01*
X116748912Y-85040557D01*
X116602563Y-85396195D01*
X116596245Y-85402542D01*
X116596195Y-85402563D01*
X116240557Y-85548912D01*
X116231603Y-85548891D01*
X116225612Y-85543268D01*
X115931958Y-84947900D01*
X115931372Y-84938964D01*
X115934176Y-84934453D01*
X116134452Y-84734177D01*
X116142724Y-84730751D01*
X116147900Y-84731958D01*
G37*
%TD.AperFunction*%
%TD*%
%TA.AperFunction,Conductor*%
%TO.N,/Control & Fan/POWER_OUTPUT_VOUT_LED*%
G36*
X95499280Y-90613373D02*
G01*
X95502313Y-90618636D01*
X95666668Y-91236094D01*
X95666923Y-91237050D01*
X95665740Y-91245927D01*
X95660119Y-91250859D01*
X95304502Y-91399123D01*
X95295548Y-91399144D01*
X95295498Y-91399123D01*
X94941305Y-91251453D01*
X94934987Y-91245106D01*
X94935008Y-91236152D01*
X94935032Y-91236094D01*
X95196979Y-90617086D01*
X95203359Y-90610803D01*
X95207754Y-90609946D01*
X95491007Y-90609946D01*
X95499280Y-90613373D01*
G37*
%TD.AperFunction*%
%TD*%
%TA.AperFunction,Conductor*%
%TO.N,/Control & Fan/POWER_OUTPUT_SHUTDOWN#*%
G36*
X102288079Y-90999978D02*
G01*
X102296344Y-91003419D01*
X102299756Y-91011699D01*
X102299753Y-91011920D01*
X102289005Y-91530650D01*
X102285581Y-91538681D01*
X101946369Y-91877893D01*
X101938096Y-91881320D01*
X101929823Y-91877893D01*
X101927845Y-91875261D01*
X101738216Y-91530650D01*
X101536732Y-91164494D01*
X101535747Y-91155594D01*
X101541343Y-91148603D01*
X101542470Y-91148060D01*
X101897123Y-91000197D01*
X101901643Y-90999297D01*
X102288079Y-90999978D01*
G37*
%TD.AperFunction*%
%TD*%
%TA.AperFunction,Conductor*%
%TO.N,/Control & Fan/POWER_OUTPUT_SHUTDOWN#*%
G36*
X104613817Y-92302590D02*
G01*
X105390457Y-92448210D01*
X105397956Y-92453103D01*
X105400000Y-92459710D01*
X105400000Y-92940289D01*
X105396573Y-92948562D01*
X105390456Y-92951789D01*
X104613820Y-93097408D01*
X104605057Y-93095564D01*
X104600164Y-93088064D01*
X104599964Y-93085946D01*
X104599000Y-92700000D01*
X104599964Y-92314059D01*
X104603412Y-92305797D01*
X104611693Y-92302391D01*
X104613817Y-92302590D01*
G37*
%TD.AperFunction*%
%TD*%
%TA.AperFunction,Conductor*%
%TO.N,/Control & Fan/POWER_OUTPUT_SHUTDOWN#*%
G36*
X104594942Y-92304435D02*
G01*
X104599835Y-92311935D01*
X104600035Y-92314062D01*
X104601000Y-92700000D01*
X104601000Y-92700058D01*
X104600035Y-93085937D01*
X104596587Y-93094202D01*
X104588306Y-93097608D01*
X104586179Y-93097408D01*
X103809544Y-92951789D01*
X103802044Y-92946896D01*
X103800000Y-92940289D01*
X103800000Y-92459710D01*
X103803427Y-92451437D01*
X103809542Y-92448210D01*
X104586180Y-92302591D01*
X104594942Y-92304435D01*
G37*
%TD.AperFunction*%
%TD*%
%TA.AperFunction,Conductor*%
%TO.N,/Control & Fan/POWER_OUTPUT_SHUTDOWN#*%
G36*
X164219942Y-86004435D02*
G01*
X164224835Y-86011935D01*
X164225035Y-86014062D01*
X164226000Y-86400000D01*
X164226000Y-86400058D01*
X164225035Y-86785937D01*
X164221587Y-86794202D01*
X164213306Y-86797608D01*
X164211179Y-86797408D01*
X163434544Y-86651789D01*
X163427044Y-86646896D01*
X163425000Y-86640289D01*
X163425000Y-86159710D01*
X163428427Y-86151437D01*
X163434542Y-86148210D01*
X164211180Y-86002591D01*
X164219942Y-86004435D01*
G37*
%TD.AperFunction*%
%TD*%
%TA.AperFunction,Conductor*%
%TO.N,Net-(Q10-D)*%
G36*
X151802877Y-124600197D02*
G01*
X152157517Y-124748055D01*
X152163835Y-124754402D01*
X152163814Y-124763356D01*
X152163266Y-124764495D01*
X151772154Y-125475261D01*
X151765163Y-125480857D01*
X151756262Y-125479871D01*
X151753630Y-125477893D01*
X151414418Y-125138681D01*
X151410994Y-125130651D01*
X151400246Y-124611917D01*
X151403500Y-124603578D01*
X151411701Y-124599981D01*
X151411840Y-124599979D01*
X151798355Y-124599297D01*
X151802877Y-124600197D01*
G37*
%TD.AperFunction*%
%TD*%
%TA.AperFunction,Conductor*%
%TO.N,Net-(Q10-D)*%
G36*
X134950746Y-141614025D02*
G01*
X134954438Y-141616518D01*
X135294390Y-141956470D01*
X135296584Y-141959514D01*
X135874550Y-143116462D01*
X135875181Y-143125395D01*
X135870972Y-143131148D01*
X135093188Y-143697684D01*
X135084483Y-143699785D01*
X135079402Y-143697678D01*
X134302533Y-143130797D01*
X134297870Y-143123152D01*
X134298664Y-143116765D01*
X134298793Y-143116462D01*
X134935399Y-141620209D01*
X134941791Y-141613939D01*
X134950746Y-141614025D01*
G37*
%TD.AperFunction*%
%TD*%
M02*
