%TF.GenerationSoftware,KiCad,Pcbnew,7.0.6-7.0.6~ubuntu22.04.1*%
%TF.CreationDate,2023-07-24T12:55:06+03:00*%
%TF.ProjectId,supply-uv,73757070-6c79-42d7-9576-2e6b69636164,rev?*%
%TF.SameCoordinates,Original*%
%TF.FileFunction,Soldermask,Bot*%
%TF.FilePolarity,Negative*%
%FSLAX46Y46*%
G04 Gerber Fmt 4.6, Leading zero omitted, Abs format (unit mm)*
G04 Created by KiCad (PCBNEW 7.0.6-7.0.6~ubuntu22.04.1) date 2023-07-24 12:55:06*
%MOMM*%
%LPD*%
G01*
G04 APERTURE LIST*
G04 Aperture macros list*
%AMRoundRect*
0 Rectangle with rounded corners*
0 $1 Rounding radius*
0 $2 $3 $4 $5 $6 $7 $8 $9 X,Y pos of 4 corners*
0 Add a 4 corners polygon primitive as box body*
4,1,4,$2,$3,$4,$5,$6,$7,$8,$9,$2,$3,0*
0 Add four circle primitives for the rounded corners*
1,1,$1+$1,$2,$3*
1,1,$1+$1,$4,$5*
1,1,$1+$1,$6,$7*
1,1,$1+$1,$8,$9*
0 Add four rect primitives between the rounded corners*
20,1,$1+$1,$2,$3,$4,$5,0*
20,1,$1+$1,$4,$5,$6,$7,0*
20,1,$1+$1,$6,$7,$8,$9,0*
20,1,$1+$1,$8,$9,$2,$3,0*%
G04 Aperture macros list end*
%ADD10R,1.600000X1.600000*%
%ADD11C,1.600000*%
%ADD12R,2.000000X1.905000*%
%ADD13O,2.000000X1.905000*%
%ADD14O,1.600000X1.600000*%
%ADD15R,2.800000X2.800000*%
%ADD16C,2.800000*%
%ADD17C,2.200000*%
%ADD18R,3.000000X3.000000*%
%ADD19R,2.000000X2.000000*%
%ADD20O,2.000000X2.000000*%
%ADD21R,1.800000X1.800000*%
%ADD22C,1.800000*%
%ADD23R,2.200000X2.200000*%
%ADD24O,2.200000X2.200000*%
%ADD25R,2.400000X2.400000*%
%ADD26C,2.400000*%
%ADD27C,2.500000*%
%ADD28RoundRect,0.249999X1.300001X-1.300001X1.300001X1.300001X-1.300001X1.300001X-1.300001X-1.300001X0*%
%ADD29C,3.100000*%
%ADD30RoundRect,0.250002X-1.699998X-1.699998X1.699998X-1.699998X1.699998X1.699998X-1.699998X1.699998X0*%
%ADD31RoundRect,0.250002X1.699998X-1.699998X1.699998X1.699998X-1.699998X1.699998X-1.699998X-1.699998X0*%
%ADD32C,3.900000*%
%ADD33O,2.400000X2.400000*%
%ADD34R,3.200000X3.200000*%
%ADD35O,3.200000X3.200000*%
%ADD36RoundRect,0.249999X-1.300001X-1.300001X1.300001X-1.300001X1.300001X1.300001X-1.300001X1.300001X0*%
%ADD37C,1.400000*%
%ADD38C,3.000000*%
%ADD39RoundRect,0.225000X-0.250000X0.225000X-0.250000X-0.225000X0.250000X-0.225000X0.250000X0.225000X0*%
%ADD40RoundRect,0.250000X-0.262500X-0.450000X0.262500X-0.450000X0.262500X0.450000X-0.262500X0.450000X0*%
%ADD41RoundRect,0.250000X0.262500X0.450000X-0.262500X0.450000X-0.262500X-0.450000X0.262500X-0.450000X0*%
%ADD42RoundRect,0.250000X0.450000X-0.262500X0.450000X0.262500X-0.450000X0.262500X-0.450000X-0.262500X0*%
%ADD43RoundRect,0.250000X-0.450000X0.262500X-0.450000X-0.262500X0.450000X-0.262500X0.450000X0.262500X0*%
%ADD44RoundRect,0.150000X-0.150000X0.725000X-0.150000X-0.725000X0.150000X-0.725000X0.150000X0.725000X0*%
%ADD45RoundRect,0.218750X-0.218750X-0.256250X0.218750X-0.256250X0.218750X0.256250X-0.218750X0.256250X0*%
%ADD46RoundRect,0.150000X-0.512500X-0.150000X0.512500X-0.150000X0.512500X0.150000X-0.512500X0.150000X0*%
%ADD47RoundRect,0.250000X-1.425000X0.362500X-1.425000X-0.362500X1.425000X-0.362500X1.425000X0.362500X0*%
%ADD48RoundRect,0.150000X0.150000X-0.512500X0.150000X0.512500X-0.150000X0.512500X-0.150000X-0.512500X0*%
%ADD49RoundRect,0.225000X0.225000X0.250000X-0.225000X0.250000X-0.225000X-0.250000X0.225000X-0.250000X0*%
%ADD50RoundRect,0.225000X0.250000X-0.225000X0.250000X0.225000X-0.250000X0.225000X-0.250000X-0.225000X0*%
%ADD51RoundRect,0.150000X0.150000X-0.587500X0.150000X0.587500X-0.150000X0.587500X-0.150000X-0.587500X0*%
G04 APERTURE END LIST*
D10*
%TO.C,C4*%
X134855113Y-113900000D03*
D11*
X132855113Y-113900000D03*
%TD*%
D12*
%TO.C,QP2*%
X171255000Y-124760000D03*
D13*
X171255000Y-127300000D03*
X171255000Y-129840000D03*
%TD*%
D10*
%TO.C,U4*%
X173525000Y-90450000D03*
D14*
X170985000Y-90450000D03*
X170985000Y-98070000D03*
X173525000Y-98070000D03*
%TD*%
D15*
%TO.C,D1*%
X78942500Y-71442500D03*
D16*
X84022500Y-71442500D03*
X89102500Y-71442500D03*
X94182500Y-71442500D03*
%TD*%
D17*
%TO.C,H1*%
X117100000Y-46400000D03*
%TD*%
D18*
%TO.C,TP1*%
X69000000Y-102500000D03*
%TD*%
D11*
%TO.C,R8*%
X140250000Y-129560000D03*
D14*
X140250000Y-121940000D03*
%TD*%
D19*
%TO.C,DP1*%
X95290000Y-127305000D03*
D20*
X90210000Y-127305000D03*
%TD*%
D21*
%TO.C,D6*%
X135800000Y-104200000D03*
D22*
X133260000Y-104200000D03*
%TD*%
D21*
%TO.C,D5*%
X130525000Y-91000000D03*
D22*
X127985000Y-91000000D03*
%TD*%
D23*
%TO.C,D3*%
X139000000Y-116000000D03*
D24*
X139000000Y-108380000D03*
%TD*%
D25*
%TO.C,C3*%
X157237246Y-137750000D03*
D26*
X164737246Y-137750000D03*
%TD*%
D17*
%TO.C,H2*%
X121700000Y-86400000D03*
%TD*%
D12*
%TO.C,QP1*%
X85695000Y-102290000D03*
D13*
X85695000Y-99750000D03*
X85695000Y-97210000D03*
%TD*%
D10*
%TO.C,C8*%
X136597349Y-89750000D03*
D11*
X140097349Y-89750000D03*
%TD*%
%TO.C,R7*%
X134600000Y-119900000D03*
D14*
X126980000Y-119900000D03*
%TD*%
D27*
%TO.C,TR1*%
X114110000Y-113910000D03*
X91250000Y-113910000D03*
X114110000Y-108830000D03*
X91250000Y-108830000D03*
X114110000Y-103750000D03*
X91250000Y-103750000D03*
X114110000Y-98670000D03*
X91250000Y-98670000D03*
X114110000Y-93590000D03*
X91250000Y-93590000D03*
X114110000Y-88510000D03*
X91250000Y-88510000D03*
X114110000Y-83430000D03*
X91250000Y-83430000D03*
%TD*%
D28*
%TO.C,J1*%
X129750000Y-143750000D03*
D29*
X129750000Y-137750000D03*
%TD*%
D30*
%TO.C,J2*%
X120750000Y-95250000D03*
%TD*%
D16*
%TO.C,RV1*%
X133750000Y-69565000D03*
X133750000Y-76935000D03*
%TD*%
D27*
%TO.C,TR2*%
X146340000Y-88060000D03*
X166660000Y-88060000D03*
X146340000Y-93140000D03*
X166660000Y-93140000D03*
X146340000Y-98220000D03*
X166660000Y-98220000D03*
X146340000Y-103300000D03*
X166660000Y-103300000D03*
X146340000Y-108380000D03*
X166660000Y-108380000D03*
X146340000Y-113460000D03*
X166660000Y-113460000D03*
X146340000Y-118540000D03*
X166660000Y-118540000D03*
%TD*%
D17*
%TO.C,H3*%
X121900000Y-126100000D03*
%TD*%
D25*
%TO.C,C1*%
X72022220Y-87500000D03*
D26*
X79522220Y-87500000D03*
%TD*%
D11*
%TO.C,C6*%
X145500000Y-128750000D03*
X145500000Y-123750000D03*
%TD*%
D31*
%TO.C,J3*%
X138250000Y-56800000D03*
D32*
X138250000Y-49000000D03*
X138250000Y-41200000D03*
%TD*%
D28*
%TO.C,CP5*%
X72750000Y-115500000D03*
D29*
X72750000Y-109500000D03*
%TD*%
D26*
%TO.C,R3*%
X111240000Y-54500000D03*
D33*
X118860000Y-54500000D03*
%TD*%
D34*
%TO.C,D4*%
X137095000Y-97500000D03*
D35*
X140905000Y-97500000D03*
%TD*%
D26*
%TO.C,Y1*%
X129500000Y-40500000D03*
X129500000Y-55500000D03*
%TD*%
%TO.C,R1*%
X122500000Y-49260000D03*
D33*
X122500000Y-41640000D03*
%TD*%
D36*
%TO.C,F1*%
X123250000Y-132500000D03*
D29*
X129250000Y-132500000D03*
%TD*%
D11*
%TO.C,R6*%
X126940000Y-125250000D03*
D14*
X134560000Y-125250000D03*
%TD*%
D37*
%TO.C,JP1*%
X121250000Y-120250000D03*
X121250000Y-117710000D03*
%TD*%
D38*
%TO.C,K1*%
X117250000Y-76250000D03*
D27*
X123300000Y-74300000D03*
D38*
X123300000Y-62100000D03*
X111250000Y-62050000D03*
D27*
X111300000Y-74300000D03*
%TD*%
D23*
%TO.C,D2*%
X152000000Y-130810000D03*
D24*
X152000000Y-123190000D03*
%TD*%
D26*
%TO.C,R2*%
X111500000Y-41630000D03*
D33*
X111500000Y-49250000D03*
%TD*%
D10*
%TO.C,C10*%
X128250000Y-113500000D03*
D11*
X124750000Y-113500000D03*
%TD*%
D39*
%TO.C,CP4*%
X99800000Y-101625000D03*
X99800000Y-103175000D03*
%TD*%
D40*
%TO.C,RP14*%
X88337500Y-136750000D03*
X90162500Y-136750000D03*
%TD*%
D41*
%TO.C,R18*%
X124212500Y-102100000D03*
X122387500Y-102100000D03*
%TD*%
D42*
%TO.C,RP11*%
X108750000Y-104162500D03*
X108750000Y-102337500D03*
%TD*%
D41*
%TO.C,RP4*%
X99912500Y-87900000D03*
X98087500Y-87900000D03*
%TD*%
%TO.C,R17*%
X121812500Y-109900000D03*
X119987500Y-109900000D03*
%TD*%
D43*
%TO.C,R15*%
X152200000Y-97587500D03*
X152200000Y-99412500D03*
%TD*%
D42*
%TO.C,R9*%
X172200000Y-115612500D03*
X172200000Y-113787500D03*
%TD*%
%TO.C,R14*%
X158800000Y-99312500D03*
X158800000Y-97487500D03*
%TD*%
D43*
%TO.C,RP1*%
X105200000Y-93487500D03*
X105200000Y-95312500D03*
%TD*%
%TO.C,RP8*%
X99000000Y-135837500D03*
X99000000Y-137662500D03*
%TD*%
D40*
%TO.C,RP9*%
X100837500Y-113750000D03*
X102662500Y-113750000D03*
%TD*%
D43*
%TO.C,RP5*%
X104750000Y-122837500D03*
X104750000Y-124662500D03*
%TD*%
D44*
%TO.C,U1*%
X98495000Y-93525000D03*
X99765000Y-93525000D03*
X101035000Y-93525000D03*
X102305000Y-93525000D03*
X102305000Y-98675000D03*
X101035000Y-98675000D03*
X99765000Y-98675000D03*
X98495000Y-98675000D03*
%TD*%
D39*
%TO.C,C11*%
X124300000Y-105525000D03*
X124300000Y-107075000D03*
%TD*%
D40*
%TO.C,R13*%
X171087500Y-87700000D03*
X172912500Y-87700000D03*
%TD*%
D43*
%TO.C,RP3*%
X102300000Y-101387500D03*
X102300000Y-103212500D03*
%TD*%
%TO.C,RP16*%
X96750000Y-139337500D03*
X96750000Y-141162500D03*
%TD*%
D45*
%TO.C,L1*%
X137512500Y-87700000D03*
X139087500Y-87700000D03*
%TD*%
D46*
%TO.C,U2*%
X101262500Y-138750000D03*
X101262500Y-137800000D03*
X101262500Y-136850000D03*
X103537500Y-136850000D03*
X103537500Y-138750000D03*
%TD*%
D43*
%TO.C,RP6*%
X104750000Y-127337500D03*
X104750000Y-129162500D03*
%TD*%
D47*
%TO.C,RP2*%
X84800000Y-88237500D03*
X84800000Y-94162500D03*
%TD*%
D48*
%TO.C,U5*%
X159150000Y-94437500D03*
X157250000Y-94437500D03*
X158200000Y-92162500D03*
%TD*%
D42*
%TO.C,RP12*%
X108750000Y-97162500D03*
X108750000Y-95337500D03*
%TD*%
D43*
%TO.C,RP7*%
X104750000Y-132087500D03*
X104750000Y-133912500D03*
%TD*%
D39*
%TO.C,C2*%
X98900000Y-139525000D03*
X98900000Y-141075000D03*
%TD*%
D42*
%TO.C,R11*%
X130800000Y-95312500D03*
X130800000Y-93487500D03*
%TD*%
D49*
%TO.C,CP1*%
X99875000Y-91000000D03*
X98325000Y-91000000D03*
%TD*%
D50*
%TO.C,CP2*%
X104400000Y-103075000D03*
X104400000Y-101525000D03*
%TD*%
D39*
%TO.C,C9*%
X155800000Y-97625000D03*
X155800000Y-99175000D03*
%TD*%
D40*
%TO.C,RP15*%
X92837500Y-136750000D03*
X94662500Y-136750000D03*
%TD*%
D51*
%TO.C,Q1*%
X122050000Y-107137500D03*
X120150000Y-107137500D03*
X121100000Y-105262500D03*
%TD*%
D39*
%TO.C,CP3*%
X104400000Y-98225000D03*
X104400000Y-99775000D03*
%TD*%
D41*
%TO.C,R12*%
X156812500Y-89800000D03*
X154987500Y-89800000D03*
%TD*%
D40*
%TO.C,RP13*%
X83837500Y-136750000D03*
X85662500Y-136750000D03*
%TD*%
D42*
%TO.C,RP10*%
X107250000Y-113662500D03*
X107250000Y-111837500D03*
%TD*%
M02*
