%TF.GenerationSoftware,KiCad,Pcbnew,7.0.8-7.0.8~ubuntu22.04.1*%
%TF.CreationDate,2023-10-30T15:07:27+03:00*%
%TF.ProjectId,supply-uv,73757070-6c79-42d7-9576-2e6b69636164,rev?*%
%TF.SameCoordinates,Original*%
%TF.FileFunction,Copper,L2,Bot*%
%TF.FilePolarity,Positive*%
%FSLAX46Y46*%
G04 Gerber Fmt 4.6, Leading zero omitted, Abs format (unit mm)*
G04 Created by KiCad (PCBNEW 7.0.8-7.0.8~ubuntu22.04.1) date 2023-10-30 15:07:27*
%MOMM*%
%LPD*%
G01*
G04 APERTURE LIST*
G04 Aperture macros list*
%AMRoundRect*
0 Rectangle with rounded corners*
0 $1 Rounding radius*
0 $2 $3 $4 $5 $6 $7 $8 $9 X,Y pos of 4 corners*
0 Add a 4 corners polygon primitive as box body*
4,1,4,$2,$3,$4,$5,$6,$7,$8,$9,$2,$3,0*
0 Add four circle primitives for the rounded corners*
1,1,$1+$1,$2,$3*
1,1,$1+$1,$4,$5*
1,1,$1+$1,$6,$7*
1,1,$1+$1,$8,$9*
0 Add four rect primitives between the rounded corners*
20,1,$1+$1,$2,$3,$4,$5,0*
20,1,$1+$1,$4,$5,$6,$7,0*
20,1,$1+$1,$6,$7,$8,$9,0*
20,1,$1+$1,$8,$9,$2,$3,0*%
G04 Aperture macros list end*
%TA.AperFunction,ComponentPad*%
%ADD10R,1.905000X2.000000*%
%TD*%
%TA.AperFunction,ComponentPad*%
%ADD11O,1.905000X2.000000*%
%TD*%
%TA.AperFunction,ComponentPad*%
%ADD12R,2.800000X2.800000*%
%TD*%
%TA.AperFunction,ComponentPad*%
%ADD13C,2.800000*%
%TD*%
%TA.AperFunction,ComponentPad*%
%ADD14R,3.000000X3.000000*%
%TD*%
%TA.AperFunction,ComponentPad*%
%ADD15C,1.600000*%
%TD*%
%TA.AperFunction,ComponentPad*%
%ADD16O,1.600000X1.600000*%
%TD*%
%TA.AperFunction,ComponentPad*%
%ADD17R,2.000000X2.000000*%
%TD*%
%TA.AperFunction,ComponentPad*%
%ADD18O,2.000000X2.000000*%
%TD*%
%TA.AperFunction,ComponentPad*%
%ADD19R,1.800000X1.800000*%
%TD*%
%TA.AperFunction,ComponentPad*%
%ADD20C,1.800000*%
%TD*%
%TA.AperFunction,ComponentPad*%
%ADD21R,2.200000X2.200000*%
%TD*%
%TA.AperFunction,ComponentPad*%
%ADD22O,2.200000X2.200000*%
%TD*%
%TA.AperFunction,ComponentPad*%
%ADD23R,2.400000X2.400000*%
%TD*%
%TA.AperFunction,ComponentPad*%
%ADD24C,2.400000*%
%TD*%
%TA.AperFunction,ComponentPad*%
%ADD25R,2.000000X1.905000*%
%TD*%
%TA.AperFunction,ComponentPad*%
%ADD26O,2.000000X1.905000*%
%TD*%
%TA.AperFunction,ComponentPad*%
%ADD27R,1.600000X1.600000*%
%TD*%
%TA.AperFunction,ComponentPad*%
%ADD28C,2.500000*%
%TD*%
%TA.AperFunction,ComponentPad*%
%ADD29RoundRect,0.249999X1.300001X-1.300001X1.300001X1.300001X-1.300001X1.300001X-1.300001X-1.300001X0*%
%TD*%
%TA.AperFunction,ComponentPad*%
%ADD30C,3.100000*%
%TD*%
%TA.AperFunction,ComponentPad*%
%ADD31RoundRect,0.250002X-1.699998X-1.699998X1.699998X-1.699998X1.699998X1.699998X-1.699998X1.699998X0*%
%TD*%
%TA.AperFunction,ComponentPad*%
%ADD32RoundRect,0.250002X1.699998X-1.699998X1.699998X1.699998X-1.699998X1.699998X-1.699998X-1.699998X0*%
%TD*%
%TA.AperFunction,ComponentPad*%
%ADD33C,3.900000*%
%TD*%
%TA.AperFunction,ComponentPad*%
%ADD34R,3.200000X3.200000*%
%TD*%
%TA.AperFunction,ComponentPad*%
%ADD35O,3.200000X3.200000*%
%TD*%
%TA.AperFunction,ComponentPad*%
%ADD36RoundRect,0.249999X-1.300001X-1.300001X1.300001X-1.300001X1.300001X1.300001X-1.300001X1.300001X0*%
%TD*%
%TA.AperFunction,ComponentPad*%
%ADD37C,1.400000*%
%TD*%
%TA.AperFunction,ComponentPad*%
%ADD38C,3.000000*%
%TD*%
%TA.AperFunction,SMDPad,CuDef*%
%ADD39RoundRect,0.225000X-0.250000X0.225000X-0.250000X-0.225000X0.250000X-0.225000X0.250000X0.225000X0*%
%TD*%
%TA.AperFunction,SMDPad,CuDef*%
%ADD40RoundRect,0.250000X-0.262500X-0.450000X0.262500X-0.450000X0.262500X0.450000X-0.262500X0.450000X0*%
%TD*%
%TA.AperFunction,SMDPad,CuDef*%
%ADD41RoundRect,0.250000X0.262500X0.450000X-0.262500X0.450000X-0.262500X-0.450000X0.262500X-0.450000X0*%
%TD*%
%TA.AperFunction,SMDPad,CuDef*%
%ADD42RoundRect,0.250000X0.450000X-0.262500X0.450000X0.262500X-0.450000X0.262500X-0.450000X-0.262500X0*%
%TD*%
%TA.AperFunction,SMDPad,CuDef*%
%ADD43RoundRect,0.250000X-0.450000X0.262500X-0.450000X-0.262500X0.450000X-0.262500X0.450000X0.262500X0*%
%TD*%
%TA.AperFunction,SMDPad,CuDef*%
%ADD44RoundRect,0.250000X-1.425000X0.362500X-1.425000X-0.362500X1.425000X-0.362500X1.425000X0.362500X0*%
%TD*%
%TA.AperFunction,SMDPad,CuDef*%
%ADD45RoundRect,0.250000X-0.325000X-1.100000X0.325000X-1.100000X0.325000X1.100000X-0.325000X1.100000X0*%
%TD*%
%TA.AperFunction,SMDPad,CuDef*%
%ADD46RoundRect,0.150000X-0.150000X0.725000X-0.150000X-0.725000X0.150000X-0.725000X0.150000X0.725000X0*%
%TD*%
%TA.AperFunction,SMDPad,CuDef*%
%ADD47RoundRect,0.225000X0.225000X0.250000X-0.225000X0.250000X-0.225000X-0.250000X0.225000X-0.250000X0*%
%TD*%
%TA.AperFunction,SMDPad,CuDef*%
%ADD48RoundRect,0.218750X0.218750X0.256250X-0.218750X0.256250X-0.218750X-0.256250X0.218750X-0.256250X0*%
%TD*%
%TA.AperFunction,SMDPad,CuDef*%
%ADD49RoundRect,0.150000X-0.512500X-0.150000X0.512500X-0.150000X0.512500X0.150000X-0.512500X0.150000X0*%
%TD*%
%TA.AperFunction,SMDPad,CuDef*%
%ADD50RoundRect,0.150000X-0.150000X0.512500X-0.150000X-0.512500X0.150000X-0.512500X0.150000X0.512500X0*%
%TD*%
%TA.AperFunction,SMDPad,CuDef*%
%ADD51RoundRect,0.150000X0.150000X-0.512500X0.150000X0.512500X-0.150000X0.512500X-0.150000X-0.512500X0*%
%TD*%
%TA.AperFunction,SMDPad,CuDef*%
%ADD52RoundRect,0.250000X1.425000X-0.362500X1.425000X0.362500X-1.425000X0.362500X-1.425000X-0.362500X0*%
%TD*%
%TA.AperFunction,SMDPad,CuDef*%
%ADD53RoundRect,0.225000X0.250000X-0.225000X0.250000X0.225000X-0.250000X0.225000X-0.250000X-0.225000X0*%
%TD*%
%TA.AperFunction,SMDPad,CuDef*%
%ADD54RoundRect,0.150000X0.150000X-0.587500X0.150000X0.587500X-0.150000X0.587500X-0.150000X-0.587500X0*%
%TD*%
%TA.AperFunction,ViaPad*%
%ADD55C,0.800000*%
%TD*%
%TA.AperFunction,Conductor*%
%ADD56C,0.500000*%
%TD*%
%TA.AperFunction,Conductor*%
%ADD57C,3.000000*%
%TD*%
%TA.AperFunction,Conductor*%
%ADD58C,1.000000*%
%TD*%
%TA.AperFunction,Conductor*%
%ADD59C,2.000000*%
%TD*%
G04 APERTURE END LIST*
D10*
%TO.P,QP2,1,G*%
%TO.N,Net-(QP2-G)*%
X154720000Y-124600000D03*
D11*
%TO.P,QP2,2,D*%
%TO.N,Net-(D2-A)*%
X157260000Y-124600000D03*
%TO.P,QP2,3,S*%
%TO.N,Net-(QP2-S)*%
X159800000Y-124600000D03*
%TD*%
D12*
%TO.P,D1,1,+*%
%TO.N,/Input power with filter/VOUT_PRE_PFC*%
X76192500Y-69480000D03*
D13*
%TO.P,D1,2*%
%TO.N,Net-(J3-Pin_1)*%
X81272500Y-69480000D03*
%TO.P,D1,3*%
%TO.N,/Input power with filter/STARTUP_PROTECT_OUT*%
X86352500Y-69480000D03*
%TO.P,D1,4,-*%
%TO.N,/Input power with filter/VOUT_PRE_GND*%
X91432500Y-69480000D03*
%TD*%
D14*
%TO.P,TP1,1,1*%
%TO.N,/Input power with filter/HV_GND*%
X66250000Y-100537500D03*
%TD*%
D15*
%TO.P,R8,1*%
%TO.N,Net-(D2-K)*%
X137500000Y-128610000D03*
D16*
%TO.P,R8,2*%
%TO.N,/Input power with filter/OUT_400V*%
X137500000Y-120990000D03*
%TD*%
D17*
%TO.P,DP1,1,K*%
%TO.N,Net-(DP1-K)*%
X92540000Y-125342500D03*
D18*
%TO.P,DP1,2,A*%
%TO.N,Net-(DP1-A)*%
X87460000Y-125342500D03*
%TD*%
D19*
%TO.P,D6,1,K*%
%TO.N,Net-(D6-K)*%
X133050000Y-102237500D03*
D20*
%TO.P,D6,2,A*%
%TO.N,Net-(D6-A)*%
X130510000Y-102237500D03*
%TD*%
D19*
%TO.P,D5,1,K*%
%TO.N,Net-(D5-K)*%
X122500000Y-108175000D03*
D20*
%TO.P,D5,2,A*%
%TO.N,/Standby Supply/V_STANDBY*%
X122500000Y-105635000D03*
%TD*%
D21*
%TO.P,D3,1,K*%
%TO.N,Net-(D3-K)*%
X135700000Y-114037500D03*
D22*
%TO.P,D3,2,A*%
%TO.N,Net-(D3-A)*%
X135700000Y-106417500D03*
%TD*%
D23*
%TO.P,C3,1*%
%TO.N,/Input power with filter/OUT_400V*%
X150787246Y-135600000D03*
D24*
%TO.P,C3,2*%
%TO.N,/Input power with filter/HV_GND*%
X158287246Y-135600000D03*
%TD*%
D25*
%TO.P,QP1,1,G*%
%TO.N,Net-(QP1-G)*%
X81845000Y-106440000D03*
D26*
%TO.P,QP1,2,D*%
%TO.N,Net-(DP1-A)*%
X81845000Y-103900000D03*
%TO.P,QP1,3,S*%
%TO.N,/Input power with filter/HV_GND*%
X81845000Y-101360000D03*
%TD*%
D27*
%TO.P,C8,1*%
%TO.N,Net-(D4-K)*%
X132000000Y-87700000D03*
D15*
%TO.P,C8,2*%
%TO.N,/Input power with filter/HV_GND*%
X135500000Y-87700000D03*
%TD*%
%TO.P,R7,1*%
%TO.N,Net-(D3-K)*%
X131850000Y-117937500D03*
D16*
%TO.P,R7,2*%
%TO.N,Net-(R6-Pad1)*%
X124230000Y-117937500D03*
%TD*%
D28*
%TO.P,TR1,1*%
%TO.N,N/C*%
X111360000Y-111947500D03*
%TO.P,TR1,2,2*%
%TO.N,Net-(DP1-A)*%
X88500000Y-111947500D03*
%TO.P,TR1,3*%
%TO.N,N/C*%
X111360000Y-106867500D03*
%TO.P,TR1,4,4*%
%TO.N,Net-(DP1-A)*%
X88500000Y-106867500D03*
%TO.P,TR1,5*%
%TO.N,N/C*%
X111360000Y-101787500D03*
%TO.P,TR1,6*%
X88500000Y-101787500D03*
%TO.P,TR1,7*%
X111360000Y-96707500D03*
%TO.P,TR1,8*%
X88500000Y-96707500D03*
%TO.P,TR1,9*%
X111360000Y-91627500D03*
%TO.P,TR1,10*%
X88500000Y-91627500D03*
%TO.P,TR1,11*%
X111360000Y-86547500D03*
%TO.P,TR1,12,12*%
%TO.N,/Input power with filter/VOUT_PRE_PFC*%
X88500000Y-86547500D03*
%TO.P,TR1,13*%
%TO.N,N/C*%
X111360000Y-81467500D03*
%TO.P,TR1,14,14*%
%TO.N,/Input power with filter/VOUT_PRE_PFC*%
X88500000Y-81467500D03*
%TD*%
D29*
%TO.P,J1,1,Pin_1*%
%TO.N,/Input power with filter/HV_GND*%
X127000000Y-141787500D03*
D30*
%TO.P,J1,2,Pin_2*%
%TO.N,/Input power with filter/OUT_400V*%
X127000000Y-135787500D03*
%TD*%
D31*
%TO.P,J2,1,Pin_1*%
%TO.N,/Standby Supply/V_STANDBY*%
X116800000Y-95700000D03*
%TD*%
D13*
%TO.P,RV1,1*%
%TO.N,Net-(J3-Pin_1)*%
X128100000Y-68815000D03*
%TO.P,RV1,2*%
%TO.N,/Input power with filter/STARTUP_PROTECT_IN*%
X128100000Y-76185000D03*
%TD*%
D28*
%TO.P,TR2,1*%
%TO.N,N/C*%
X140690000Y-85997500D03*
%TO.P,TR2,2*%
X161010000Y-85997500D03*
%TO.P,TR2,3,3*%
%TO.N,/Input power with filter/HV_GND*%
X140690000Y-91077500D03*
%TO.P,TR2,4*%
%TO.N,N/C*%
X161010000Y-91077500D03*
%TO.P,TR2,5,5*%
%TO.N,Net-(D4-A)*%
X140690000Y-96157500D03*
%TO.P,TR2,6*%
%TO.N,N/C*%
X161010000Y-96157500D03*
%TO.P,TR2,7,7*%
%TO.N,/Input power with filter/HV_GND*%
X140690000Y-101237500D03*
%TO.P,TR2,8*%
%TO.N,N/C*%
X161010000Y-101237500D03*
%TO.P,TR2,9,9*%
%TO.N,Net-(D3-A)*%
X140690000Y-106317500D03*
%TO.P,TR2,10*%
%TO.N,N/C*%
X161010000Y-106317500D03*
%TO.P,TR2,11,11*%
%TO.N,Net-(D2-A)*%
X140690000Y-111397500D03*
%TO.P,TR2,12*%
%TO.N,N/C*%
X161010000Y-111397500D03*
%TO.P,TR2,13,13*%
%TO.N,/Input power with filter/OUT_400V*%
X140690000Y-116477500D03*
%TO.P,TR2,14*%
%TO.N,N/C*%
X161010000Y-116477500D03*
%TD*%
D23*
%TO.P,C1,1*%
%TO.N,/Input power with filter/VOUT_PRE_PFC*%
X69122220Y-85200000D03*
D24*
%TO.P,C1,2*%
%TO.N,/Input power with filter/VOUT_PRE_GND*%
X76622220Y-85200000D03*
%TD*%
D15*
%TO.P,C6,1*%
%TO.N,Net-(D2-K)*%
X141200000Y-126787500D03*
%TO.P,C6,2*%
%TO.N,/Input power with filter/OUT_400V*%
X141200000Y-121787500D03*
%TD*%
D32*
%TO.P,J3,1,Pin_1*%
%TO.N,Net-(J3-Pin_1)*%
X135500000Y-63100000D03*
D33*
%TO.P,J3,2,Pin_2*%
%TO.N,/Input power with filter/STARTUP_PROTECT_IN*%
X135500000Y-55300000D03*
%TO.P,J3,3,Pin_3*%
%TO.N,Net-(J3-Pin_3)*%
X135500000Y-47500000D03*
%TD*%
D29*
%TO.P,CP5,1*%
%TO.N,Net-(DP1-K)*%
X68700000Y-113400000D03*
D30*
%TO.P,CP5,2*%
%TO.N,/Input power with filter/HV_GND*%
X68700000Y-107400000D03*
%TD*%
D20*
%TO.P,R3,1*%
%TO.N,Net-(R2-Pad2)*%
X106850000Y-53950000D03*
%TO.P,R3,2*%
%TO.N,/Input power with filter/STARTUP_PROTECT_OUT*%
X109550000Y-46450000D03*
%TD*%
D34*
%TO.P,D4,1,K*%
%TO.N,Net-(D4-K)*%
X132095000Y-96500000D03*
D35*
%TO.P,D4,2,A*%
%TO.N,Net-(D4-A)*%
X135905000Y-96500000D03*
%TD*%
D24*
%TO.P,Y1,1*%
%TO.N,Net-(J3-Pin_3)*%
X127300000Y-46200000D03*
%TO.P,Y1,2*%
%TO.N,/Input power with filter/VOUT_PRE_GND*%
X127300000Y-61200000D03*
%TD*%
D20*
%TO.P,R1,1*%
%TO.N,/Input power with filter/STARTUP_PROTECT_IN*%
X119550000Y-53950000D03*
%TO.P,R1,2*%
%TO.N,Net-(R1-Pad2)*%
X122250000Y-46450000D03*
%TD*%
D36*
%TO.P,F1,1*%
%TO.N,Net-(DP1-K)*%
X120500000Y-130537500D03*
D30*
%TO.P,F1,2*%
%TO.N,/Input power with filter/OUT_400V*%
X126500000Y-130537500D03*
%TD*%
D15*
%TO.P,R6,1*%
%TO.N,Net-(R6-Pad1)*%
X124190000Y-123287500D03*
D16*
%TO.P,R6,2*%
%TO.N,/Input power with filter/OUT_400V*%
X131810000Y-123287500D03*
%TD*%
D37*
%TO.P,JP1,1,A*%
%TO.N,/Input power with filter/PFC_OK#*%
X118500000Y-118287500D03*
%TO.P,JP1,2,B*%
%TO.N,Net-(JP1-B)*%
X118500000Y-115747500D03*
%TD*%
D38*
%TO.P,K1,1*%
%TO.N,/Input power with filter/STARTUP_PROTECT_IN*%
X114300000Y-75000000D03*
D28*
%TO.P,K1,2*%
%TO.N,/Input power with filter/HV_GND*%
X120350000Y-73050000D03*
D38*
%TO.P,K1,3*%
%TO.N,/Input power with filter/STARTUP_PROTECT_OUT*%
X120350000Y-60850000D03*
%TO.P,K1,4*%
%TO.N,unconnected-(K1-Pad4)*%
X108300000Y-60800000D03*
D28*
%TO.P,K1,5*%
%TO.N,Net-(K1-Pad5)*%
X108350000Y-73050000D03*
%TD*%
D21*
%TO.P,D2,1,K*%
%TO.N,Net-(D2-K)*%
X146700000Y-128410000D03*
D22*
%TO.P,D2,2,A*%
%TO.N,Net-(D2-A)*%
X146700000Y-120790000D03*
%TD*%
D20*
%TO.P,R2,1*%
%TO.N,Net-(R1-Pad2)*%
X115950000Y-46450000D03*
%TO.P,R2,2*%
%TO.N,Net-(R2-Pad2)*%
X113250000Y-53950000D03*
%TD*%
D27*
%TO.P,C10,1*%
%TO.N,Net-(D6-A)*%
X126700000Y-90800000D03*
D15*
%TO.P,C10,2*%
%TO.N,/Input power with filter/HV_GND*%
X123200000Y-90800000D03*
%TD*%
D39*
%TO.P,CP4,1*%
%TO.N,/Input power with filter/PFC_VCC*%
X97050000Y-99662500D03*
%TO.P,CP4,2*%
%TO.N,/Input power with filter/HV_GND*%
X97050000Y-101212500D03*
%TD*%
D40*
%TO.P,RP14,1*%
%TO.N,Net-(RP13-Pad2)*%
X85587500Y-134787500D03*
%TO.P,RP14,2*%
%TO.N,Net-(RP14-Pad2)*%
X87412500Y-134787500D03*
%TD*%
D41*
%TO.P,R18,1*%
%TO.N,/Input power with filter/HV_GND*%
X121462500Y-100137500D03*
%TO.P,R18,2*%
%TO.N,/Standby Supply/V_STANDBY*%
X119637500Y-100137500D03*
%TD*%
D42*
%TO.P,RP11,1*%
%TO.N,Net-(RP10-Pad2)*%
X106000000Y-102200000D03*
%TO.P,RP11,2*%
%TO.N,/Input power with filter/PFC_VSENSE*%
X106000000Y-100375000D03*
%TD*%
D41*
%TO.P,RP4,1*%
%TO.N,Net-(U1-ISENSE)*%
X97212500Y-87000000D03*
%TO.P,RP4,2*%
%TO.N,/Input power with filter/VOUT_PRE_GND*%
X95387500Y-87000000D03*
%TD*%
D27*
%TO.P,U4,1*%
%TO.N,Net-(R12-Pad1)*%
X154925000Y-89000000D03*
D16*
%TO.P,U4,2*%
%TO.N,Net-(U5-K)*%
X157465000Y-89000000D03*
%TO.P,U4,3*%
%TO.N,/Input power with filter/HV_GND*%
X157465000Y-96620000D03*
%TO.P,U4,4*%
%TO.N,/Standby Supply/FEEDBACK*%
X154925000Y-96620000D03*
%TD*%
D43*
%TO.P,R5,1*%
%TO.N,/Input power with filter/HV_GND*%
X157700000Y-100987500D03*
%TO.P,R5,2*%
%TO.N,Net-(U3-RT)*%
X157700000Y-102812500D03*
%TD*%
D44*
%TO.P,RP17,1*%
%TO.N,/Input power with filter/VOUT_PRE_GND*%
X78800000Y-89637500D03*
%TO.P,RP17,2*%
%TO.N,/Input power with filter/HV_GND*%
X78800000Y-95562500D03*
%TD*%
D41*
%TO.P,R17,1*%
%TO.N,Net-(JP1-B)*%
X119062500Y-107937500D03*
%TO.P,R17,2*%
%TO.N,/Input power with filter/PFC_VCC*%
X117237500Y-107937500D03*
%TD*%
D43*
%TO.P,R15,1*%
%TO.N,/Input power with filter/HV_GND*%
X144300000Y-89187500D03*
%TO.P,R15,2*%
%TO.N,Net-(U5-REF)*%
X144300000Y-91012500D03*
%TD*%
D42*
%TO.P,R9,1*%
%TO.N,Net-(QP2-G)*%
X152800000Y-109012500D03*
%TO.P,R9,2*%
%TO.N,Net-(U3-GATE)*%
X152800000Y-107187500D03*
%TD*%
D43*
%TO.P,R14,1*%
%TO.N,Net-(U5-REF)*%
X150000000Y-90887500D03*
%TO.P,R14,2*%
%TO.N,Net-(D6-A)*%
X150000000Y-92712500D03*
%TD*%
%TO.P,RP1,1*%
%TO.N,Net-(U1-FREQ)*%
X102450000Y-91525000D03*
%TO.P,RP1,2*%
%TO.N,/Input power with filter/HV_GND*%
X102450000Y-93350000D03*
%TD*%
%TO.P,RP8,1*%
%TO.N,/Input power with filter/PFC_PRE_DIV*%
X96250000Y-133875000D03*
%TO.P,RP8,2*%
%TO.N,/Input power with filter/HV_GND*%
X96250000Y-135700000D03*
%TD*%
D40*
%TO.P,RP9,1*%
%TO.N,Net-(DP1-K)*%
X98087500Y-111787500D03*
%TO.P,RP9,2*%
%TO.N,Net-(RP10-Pad1)*%
X99912500Y-111787500D03*
%TD*%
D43*
%TO.P,RP5,1*%
%TO.N,/Input power with filter/VOUT_PRE_PFC*%
X102000000Y-120875000D03*
%TO.P,RP5,2*%
%TO.N,Net-(RP5-Pad2)*%
X102000000Y-122700000D03*
%TD*%
D45*
%TO.P,C4,1*%
%TO.N,/Input power with filter/HV_GND*%
X151350000Y-113900000D03*
%TO.P,C4,2*%
%TO.N,Net-(D3-K)*%
X154300000Y-113900000D03*
%TD*%
D46*
%TO.P,U1,1,GND*%
%TO.N,/Input power with filter/HV_GND*%
X95745000Y-91562500D03*
%TO.P,U1,2,ICOMP*%
%TO.N,Net-(U1-ICOMP)*%
X97015000Y-91562500D03*
%TO.P,U1,3,ISENSE*%
%TO.N,Net-(U1-ISENSE)*%
X98285000Y-91562500D03*
%TO.P,U1,4,FREQ*%
%TO.N,Net-(U1-FREQ)*%
X99555000Y-91562500D03*
%TO.P,U1,5,VCOMP*%
%TO.N,Net-(U1-VCOMP)*%
X99555000Y-96712500D03*
%TO.P,U1,6,VSENSE*%
%TO.N,/Input power with filter/PFC_VSENSE*%
X98285000Y-96712500D03*
%TO.P,U1,7,VCC*%
%TO.N,/Input power with filter/PFC_VCC*%
X97015000Y-96712500D03*
%TO.P,U1,8,GATE*%
%TO.N,Net-(QP1-G)*%
X95745000Y-96712500D03*
%TD*%
D47*
%TO.P,C11,1*%
%TO.N,/Input power with filter/HV_GND*%
X122975000Y-110900000D03*
%TO.P,C11,2*%
%TO.N,Net-(JP1-B)*%
X121425000Y-110900000D03*
%TD*%
D41*
%TO.P,R13,1*%
%TO.N,Net-(U5-K)*%
X157512500Y-85600000D03*
%TO.P,R13,2*%
%TO.N,Net-(R12-Pad1)*%
X155687500Y-85600000D03*
%TD*%
D43*
%TO.P,RP3,1*%
%TO.N,Net-(U1-VCOMP)*%
X99550000Y-99425000D03*
%TO.P,RP3,2*%
%TO.N,Net-(CP2-Pad1)*%
X99550000Y-101250000D03*
%TD*%
%TO.P,RP16,1*%
%TO.N,Net-(U2--)*%
X94000000Y-137375000D03*
%TO.P,RP16,2*%
%TO.N,/Input power with filter/HV_GND*%
X94000000Y-139200000D03*
%TD*%
D48*
%TO.P,L1,1,1*%
%TO.N,Net-(D4-K)*%
X129300000Y-87900000D03*
%TO.P,L1,2,2*%
%TO.N,Net-(D6-A)*%
X127725000Y-87900000D03*
%TD*%
D49*
%TO.P,U2,1,-*%
%TO.N,Net-(U2--)*%
X98512500Y-136787500D03*
%TO.P,U2,2,V-*%
%TO.N,/Input power with filter/HV_GND*%
X98512500Y-135837500D03*
%TO.P,U2,3,+*%
%TO.N,/Input power with filter/PFC_PRE_DIV*%
X98512500Y-134887500D03*
%TO.P,U2,4*%
%TO.N,/Input power with filter/PFC_OK#*%
X100787500Y-134887500D03*
%TO.P,U2,5,V+*%
%TO.N,/Input power with filter/PFC_VCC*%
X100787500Y-136787500D03*
%TD*%
D47*
%TO.P,C5,1*%
%TO.N,/Input power with filter/HV_GND*%
X158775000Y-110000000D03*
%TO.P,C5,2*%
%TO.N,Net-(U3-CS)*%
X157225000Y-110000000D03*
%TD*%
D43*
%TO.P,RP6,1*%
%TO.N,Net-(RP5-Pad2)*%
X102000000Y-125375000D03*
%TO.P,RP6,2*%
%TO.N,Net-(RP6-Pad2)*%
X102000000Y-127200000D03*
%TD*%
D50*
%TO.P,U3,1,GND*%
%TO.N,/Input power with filter/HV_GND*%
X155250000Y-104862500D03*
%TO.P,U3,2,COMP*%
%TO.N,/Standby Supply/FEEDBACK*%
X156200000Y-104862500D03*
%TO.P,U3,3,RT*%
%TO.N,Net-(U3-RT)*%
X157150000Y-104862500D03*
%TO.P,U3,4,CS*%
%TO.N,Net-(U3-CS)*%
X157150000Y-107137500D03*
%TO.P,U3,5,VDD*%
%TO.N,Net-(D3-K)*%
X156200000Y-107137500D03*
%TO.P,U3,6,GATE*%
%TO.N,Net-(U3-GATE)*%
X155250000Y-107137500D03*
%TD*%
D44*
%TO.P,RP2,1*%
%TO.N,/Input power with filter/VOUT_PRE_GND*%
X82800000Y-89637500D03*
%TO.P,RP2,2*%
%TO.N,/Input power with filter/HV_GND*%
X82800000Y-95562500D03*
%TD*%
D51*
%TO.P,U5,1,REF*%
%TO.N,Net-(U5-REF)*%
X150050000Y-88537500D03*
%TO.P,U5,2,K*%
%TO.N,Net-(U5-K)*%
X148150000Y-88537500D03*
%TO.P,U5,3,A*%
%TO.N,/Input power with filter/HV_GND*%
X149100000Y-86262500D03*
%TD*%
D42*
%TO.P,RP12,1*%
%TO.N,/Input power with filter/PFC_VSENSE*%
X106000000Y-95200000D03*
%TO.P,RP12,2*%
%TO.N,/Input power with filter/HV_GND*%
X106000000Y-93375000D03*
%TD*%
D43*
%TO.P,RP7,1*%
%TO.N,Net-(RP6-Pad2)*%
X102000000Y-130125000D03*
%TO.P,RP7,2*%
%TO.N,/Input power with filter/PFC_PRE_DIV*%
X102000000Y-131950000D03*
%TD*%
D47*
%TO.P,C7,1*%
%TO.N,/Input power with filter/HV_GND*%
X157675000Y-99300000D03*
%TO.P,C7,2*%
%TO.N,/Standby Supply/FEEDBACK*%
X156125000Y-99300000D03*
%TD*%
D52*
%TO.P,R19,1*%
%TO.N,/Input power with filter/HV_GND*%
X160000000Y-132962500D03*
%TO.P,R19,2*%
%TO.N,Net-(QP2-S)*%
X160000000Y-127037500D03*
%TD*%
D39*
%TO.P,C2,1*%
%TO.N,Net-(U2--)*%
X96150000Y-137562500D03*
%TO.P,C2,2*%
%TO.N,/Input power with filter/HV_GND*%
X96150000Y-139112500D03*
%TD*%
D42*
%TO.P,R10,1*%
%TO.N,Net-(QP2-S)*%
X157000000Y-114712500D03*
%TO.P,R10,2*%
%TO.N,Net-(U3-CS)*%
X157000000Y-112887500D03*
%TD*%
D43*
%TO.P,R11,1*%
%TO.N,/Input power with filter/HV_GND*%
X126000000Y-106387500D03*
%TO.P,R11,2*%
%TO.N,Net-(D5-K)*%
X126000000Y-108212500D03*
%TD*%
D47*
%TO.P,CP1,1*%
%TO.N,Net-(U1-ICOMP)*%
X97125000Y-89037500D03*
%TO.P,CP1,2*%
%TO.N,/Input power with filter/HV_GND*%
X95575000Y-89037500D03*
%TD*%
D53*
%TO.P,CP2,1*%
%TO.N,Net-(CP2-Pad1)*%
X101650000Y-101112500D03*
%TO.P,CP2,2*%
%TO.N,/Input power with filter/HV_GND*%
X101650000Y-99562500D03*
%TD*%
D39*
%TO.P,C9,1*%
%TO.N,/Input power with filter/HV_GND*%
X146300000Y-89325000D03*
%TO.P,C9,2*%
%TO.N,Net-(U5-REF)*%
X146300000Y-90875000D03*
%TD*%
D40*
%TO.P,RP15,1*%
%TO.N,Net-(RP14-Pad2)*%
X90087500Y-134787500D03*
%TO.P,RP15,2*%
%TO.N,Net-(U2--)*%
X91912500Y-134787500D03*
%TD*%
D54*
%TO.P,Q1,1,G*%
%TO.N,Net-(JP1-B)*%
X119300000Y-105175000D03*
%TO.P,Q1,2,S*%
%TO.N,/Input power with filter/PFC_VCC*%
X117400000Y-105175000D03*
%TO.P,Q1,3,D*%
%TO.N,/Standby Supply/V_STANDBY*%
X118350000Y-103300000D03*
%TD*%
D39*
%TO.P,CP3,1*%
%TO.N,Net-(U1-VCOMP)*%
X101650000Y-96262500D03*
%TO.P,CP3,2*%
%TO.N,/Input power with filter/HV_GND*%
X101650000Y-97812500D03*
%TD*%
D41*
%TO.P,R12,1*%
%TO.N,Net-(R12-Pad1)*%
X145912500Y-84400000D03*
%TO.P,R12,2*%
%TO.N,Net-(D4-K)*%
X144087500Y-84400000D03*
%TD*%
D40*
%TO.P,RP13,1*%
%TO.N,Net-(DP1-K)*%
X81087500Y-134787500D03*
%TO.P,RP13,2*%
%TO.N,Net-(RP13-Pad2)*%
X82912500Y-134787500D03*
%TD*%
D42*
%TO.P,RP10,1*%
%TO.N,Net-(RP10-Pad1)*%
X104500000Y-111700000D03*
%TO.P,RP10,2*%
%TO.N,Net-(RP10-Pad2)*%
X104500000Y-109875000D03*
%TD*%
D55*
%TO.N,/Input power with filter/VOUT_PRE_PFC*%
X99400000Y-117487500D03*
%TO.N,/Input power with filter/HV_GND*%
X98600000Y-103800000D03*
X94000000Y-98900000D03*
%TO.N,Net-(D3-K)*%
X155000000Y-109000000D03*
%TO.N,/Input power with filter/PFC_VCC*%
X97100000Y-98287500D03*
X116000000Y-113900000D03*
X117250000Y-106287500D03*
%TD*%
D56*
%TO.N,/Input power with filter/VOUT_PRE_PFC*%
X102000000Y-118787500D02*
X102000000Y-120862500D01*
X100700000Y-117487500D02*
X102000000Y-118787500D01*
X99400000Y-117487500D02*
X100700000Y-117487500D01*
D57*
%TO.N,/Input power with filter/VOUT_PRE_GND*%
X76622220Y-82165280D02*
X83500000Y-75287500D01*
D56*
X87700000Y-89300000D02*
X85100000Y-91900000D01*
D57*
X91482500Y-73805000D02*
X90000000Y-75287500D01*
D56*
X95387500Y-87000000D02*
X93287500Y-87000000D01*
D57*
X80800000Y-89637500D02*
X82800000Y-89637500D01*
D56*
X90987500Y-89300000D02*
X87700000Y-89300000D01*
X81200000Y-91900000D02*
X80800000Y-91500000D01*
D57*
X78800000Y-89637500D02*
X80800000Y-89637500D01*
D56*
X93287500Y-87000000D02*
X90987500Y-89300000D01*
D57*
X76622220Y-82165280D02*
X76622220Y-85200000D01*
X90000000Y-75287500D02*
X83500000Y-75287500D01*
X79700000Y-85200000D02*
X80800000Y-86300000D01*
D56*
X85100000Y-91900000D02*
X81200000Y-91900000D01*
D57*
X91482500Y-69530000D02*
X91482500Y-73805000D01*
D56*
X80800000Y-91500000D02*
X80800000Y-89637500D01*
D57*
X76622220Y-85200000D02*
X79700000Y-85200000D01*
X80800000Y-86300000D02*
X80800000Y-89637500D01*
D56*
%TO.N,Net-(U2--)*%
X92075000Y-135450000D02*
X94000000Y-137375000D01*
X95877500Y-137375000D02*
X96115000Y-137612500D01*
X97650000Y-137612500D02*
X98475000Y-136787500D01*
X92075000Y-134787500D02*
X92075000Y-135450000D01*
X96115000Y-137612500D02*
X97650000Y-137612500D01*
X94000000Y-137375000D02*
X95877500Y-137375000D01*
%TO.N,/Input power with filter/HV_GND*%
X126000000Y-106387500D02*
X126000000Y-96500000D01*
X101900000Y-103787500D02*
X97787500Y-103787500D01*
X101535000Y-99587500D02*
X102500000Y-99587500D01*
D58*
X149200000Y-106537500D02*
X143900000Y-101237500D01*
D56*
X162400000Y-133700000D02*
X162400000Y-120900000D01*
D59*
X158287246Y-134350254D02*
X159675000Y-132962500D01*
D56*
X97100000Y-103100000D02*
X97100000Y-101262500D01*
X157465000Y-99090000D02*
X157675000Y-99300000D01*
D58*
X143900000Y-101237500D02*
X140690000Y-101237500D01*
D56*
X72542500Y-100537500D02*
X73152500Y-101147500D01*
D57*
X80800000Y-97400000D02*
X80800000Y-98900000D01*
D56*
X80800000Y-93800000D02*
X80800000Y-95562500D01*
D59*
X158287246Y-135800000D02*
X158287246Y-134350254D01*
D57*
X158287246Y-135800000D02*
X158287246Y-138012754D01*
D56*
X158850000Y-101450000D02*
X158387500Y-100987500D01*
X103100000Y-100187500D02*
X103100000Y-102587500D01*
X66250000Y-100537500D02*
X72542500Y-100537500D01*
X155250000Y-104862500D02*
X155250000Y-105423528D01*
X95745000Y-91562500D02*
X93980000Y-93327500D01*
X99650000Y-137887500D02*
X98375000Y-139162500D01*
X122200000Y-90800000D02*
X123200000Y-90800000D01*
D59*
X159675000Y-132962500D02*
X160000000Y-132962500D01*
D56*
X149300000Y-113900000D02*
X149200000Y-113800000D01*
D57*
X78800000Y-95562500D02*
X80800000Y-95562500D01*
D58*
X130400000Y-92800000D02*
X126000000Y-92800000D01*
D57*
X68700000Y-107400000D02*
X68700000Y-105600000D01*
D56*
X80800000Y-98900000D02*
X94000000Y-98900000D01*
X96387500Y-135837500D02*
X99150000Y-135837500D01*
D57*
X80800000Y-95562500D02*
X80800000Y-97400000D01*
D56*
X155826472Y-106000000D02*
X157523528Y-106000000D01*
X99650000Y-136337500D02*
X99650000Y-137887500D01*
X157465000Y-96620000D02*
X157465000Y-99090000D01*
D57*
X154512500Y-141787500D02*
X126750000Y-141787500D01*
D56*
X123200000Y-93700000D02*
X123200000Y-90800000D01*
X146300000Y-89325000D02*
X146300000Y-88100000D01*
X97787500Y-103787500D02*
X97100000Y-103100000D01*
D58*
X157187246Y-135487246D02*
X149200000Y-127500000D01*
D56*
X160300000Y-135800000D02*
X162400000Y-133700000D01*
X99150000Y-135837500D02*
X99650000Y-136337500D01*
X122975000Y-110900000D02*
X125800000Y-110900000D01*
X81272500Y-93327500D02*
X80800000Y-93800000D01*
X146300000Y-88100000D02*
X148137500Y-86262500D01*
X158387500Y-100987500D02*
X157700000Y-100987500D01*
X148137500Y-86262500D02*
X149100000Y-86262500D01*
X95525000Y-89287500D02*
X95780000Y-89542500D01*
X157675000Y-99300000D02*
X157675000Y-100962500D01*
D57*
X80800000Y-95562500D02*
X82800000Y-95562500D01*
D56*
X127500000Y-107100000D02*
X126787500Y-106387500D01*
X158287246Y-135800000D02*
X160300000Y-135800000D01*
D57*
X68700000Y-105600000D02*
X73152500Y-101147500D01*
X81632500Y-101147500D02*
X73152500Y-101147500D01*
D56*
X68920000Y-107367500D02*
X66920000Y-107367500D01*
X126000000Y-96500000D02*
X123200000Y-93700000D01*
D58*
X149200000Y-127500000D02*
X149200000Y-113800000D01*
D56*
X77662500Y-139200000D02*
X94000000Y-139200000D01*
X64750000Y-126287500D02*
X77662500Y-139200000D01*
X94000000Y-139200000D02*
X96077500Y-139200000D01*
X162400000Y-120900000D02*
X158850000Y-117350000D01*
X102500000Y-99587500D02*
X103100000Y-100187500D01*
X146300000Y-89325000D02*
X144437500Y-89325000D01*
X157523528Y-106000000D02*
X158850000Y-104673528D01*
D58*
X149200000Y-113800000D02*
X149200000Y-106537500D01*
D56*
X64750000Y-109537500D02*
X64750000Y-126287500D01*
X95780000Y-89542500D02*
X95780000Y-91527500D01*
D57*
X81632500Y-99732500D02*
X81632500Y-101147500D01*
D56*
X93980000Y-93327500D02*
X81272500Y-93327500D01*
X144300000Y-89187500D02*
X142580000Y-89187500D01*
X158850000Y-117350000D02*
X158850000Y-104673528D01*
D57*
X80800000Y-98900000D02*
X81632500Y-99732500D01*
D56*
X142580000Y-89187500D02*
X140690000Y-91077500D01*
X121462500Y-91537500D02*
X122200000Y-90800000D01*
X127500000Y-109200000D02*
X127500000Y-107100000D01*
X103100000Y-102587500D02*
X101900000Y-103787500D01*
D58*
X157987246Y-135487246D02*
X157187246Y-135487246D01*
D56*
X101535000Y-97962500D02*
X101535000Y-99587500D01*
X66920000Y-107367500D02*
X64750000Y-109537500D01*
X125800000Y-110900000D02*
X127500000Y-109200000D01*
X95745000Y-91562500D02*
X95745000Y-92437500D01*
X126787500Y-106387500D02*
X126000000Y-106387500D01*
X151350000Y-113900000D02*
X149300000Y-113900000D01*
X121462500Y-100137500D02*
X121462500Y-91537500D01*
X96657500Y-93350000D02*
X102450000Y-93350000D01*
X98375000Y-139162500D02*
X96115000Y-139162500D01*
D58*
X126000000Y-92800000D02*
X124000000Y-90800000D01*
D57*
X158287246Y-138012754D02*
X154512500Y-141787500D01*
D56*
X102500000Y-93200000D02*
X105637500Y-93200000D01*
X158850000Y-104673528D02*
X158850000Y-101450000D01*
D58*
X124000000Y-90800000D02*
X123200000Y-90800000D01*
D56*
X155250000Y-105423528D02*
X155826472Y-106000000D01*
D58*
X135500000Y-87700000D02*
X130400000Y-92800000D01*
D56*
X95745000Y-92437500D02*
X96657500Y-93350000D01*
%TO.N,Net-(D3-K)*%
X154300000Y-112050000D02*
X154300000Y-113900000D01*
X155700000Y-109000000D02*
X155000000Y-109000000D01*
X156200000Y-107137500D02*
X156200000Y-108500000D01*
X155000000Y-109000000D02*
X155000000Y-111350000D01*
X155000000Y-111350000D02*
X154300000Y-112050000D01*
X156200000Y-108500000D02*
X155700000Y-109000000D01*
%TO.N,Net-(U3-CS)*%
X157150000Y-107137500D02*
X157150000Y-112737500D01*
%TO.N,/Standby Supply/FEEDBACK*%
X154925000Y-96620000D02*
X154925000Y-98100000D01*
X156200000Y-104862500D02*
X156200000Y-99375000D01*
X154925000Y-98100000D02*
X156125000Y-99300000D01*
%TO.N,Net-(D4-K)*%
X135900000Y-83800000D02*
X143487500Y-83800000D01*
D58*
X129300000Y-87900000D02*
X131800000Y-87900000D01*
D56*
X132000000Y-87700000D02*
X135900000Y-83800000D01*
X143487500Y-83800000D02*
X143987500Y-84300000D01*
%TO.N,Net-(U5-REF)*%
X146300000Y-90875000D02*
X149987500Y-90875000D01*
X150050000Y-88537500D02*
X150050000Y-91062500D01*
X144300000Y-91012500D02*
X146162500Y-91012500D01*
D58*
%TO.N,Net-(D6-A)*%
X127725000Y-87900000D02*
X127725000Y-89775000D01*
D56*
X142362500Y-99537500D02*
X149187500Y-92712500D01*
X142362500Y-99537500D02*
X131962500Y-99537500D01*
X130560000Y-100940000D02*
X130560000Y-102287500D01*
X150000000Y-92712500D02*
X149187500Y-92712500D01*
X131962500Y-99537500D02*
X130560000Y-100940000D01*
D58*
X127725000Y-89775000D02*
X126700000Y-90800000D01*
D56*
%TO.N,Net-(JP1-B)*%
X121425000Y-110900000D02*
X119000000Y-110900000D01*
X119000000Y-114997500D02*
X118350000Y-115647500D01*
X119000000Y-107787500D02*
X119000000Y-110900000D01*
X119000000Y-110900000D02*
X119000000Y-114997500D01*
X119287500Y-105225000D02*
X119287500Y-107500000D01*
%TO.N,Net-(U1-ICOMP)*%
X97050000Y-91587500D02*
X97050000Y-89312500D01*
%TO.N,Net-(CP2-Pad1)*%
X99500000Y-101287500D02*
X101385000Y-101287500D01*
%TO.N,Net-(U1-VCOMP)*%
X99880000Y-96387500D02*
X101510000Y-96387500D01*
X99600000Y-99362500D02*
X99600000Y-96747500D01*
X99555000Y-96712500D02*
X99880000Y-96387500D01*
%TO.N,/Input power with filter/PFC_VCC*%
X100088972Y-134037500D02*
X99637500Y-134488972D01*
X116000000Y-113900000D02*
X115900000Y-113900000D01*
X99637500Y-135286028D02*
X100750000Y-136398528D01*
X97100000Y-96787500D02*
X97050000Y-96737500D01*
X108000000Y-121800000D02*
X108000000Y-131537500D01*
X108000000Y-131537500D02*
X105500000Y-134037500D01*
X99637500Y-134488972D02*
X99637500Y-135286028D01*
X100750000Y-136398528D02*
X100750000Y-136787500D01*
X105500000Y-134037500D02*
X100088972Y-134037500D01*
X115900000Y-113900000D02*
X108000000Y-121800000D01*
X97100000Y-98287500D02*
X97100000Y-96787500D01*
X117175000Y-105437500D02*
X117387500Y-105225000D01*
X117175000Y-107787500D02*
X117175000Y-105437500D01*
X97100000Y-99712500D02*
X97100000Y-98287500D01*
%TO.N,Net-(DP1-K)*%
X79700000Y-134787500D02*
X80927500Y-134787500D01*
X75350000Y-121350000D02*
X75350000Y-130437500D01*
X75400000Y-111200000D02*
X79837500Y-115637500D01*
X79837500Y-115637500D02*
X94325000Y-115637500D01*
X75350000Y-130437500D02*
X79700000Y-134787500D01*
X68700000Y-113400000D02*
X68700000Y-112000000D01*
X69500000Y-111200000D02*
X75400000Y-111200000D01*
D57*
X89500000Y-131037500D02*
X92540000Y-127997500D01*
D56*
X68700000Y-114700000D02*
X75350000Y-121350000D01*
D57*
X73080000Y-113367500D02*
X77750000Y-118037500D01*
X92540000Y-127997500D02*
X92540000Y-125342500D01*
D56*
X94325000Y-115637500D02*
X98087500Y-111875000D01*
X68700000Y-113400000D02*
X68700000Y-114700000D01*
X68700000Y-112000000D02*
X69500000Y-111200000D01*
D57*
X68732500Y-113367500D02*
X73080000Y-113367500D01*
X80250000Y-131037500D02*
X89500000Y-131037500D01*
X77750000Y-128537500D02*
X80250000Y-131037500D01*
X77750000Y-118037500D02*
X77750000Y-128537500D01*
%TO.N,Net-(J3-Pin_1)*%
X124322500Y-65337500D02*
X128100000Y-69115000D01*
X128100000Y-69115000D02*
X129485000Y-69115000D01*
X81322500Y-66465000D02*
X84000000Y-63787500D01*
X81322500Y-69530000D02*
X81322500Y-66465000D01*
X95300000Y-65337500D02*
X124322500Y-65337500D01*
X84000000Y-63787500D02*
X93750000Y-63787500D01*
X129485000Y-69115000D02*
X135500000Y-63100000D01*
X93750000Y-63787500D02*
X95300000Y-65337500D01*
D58*
%TO.N,Net-(D4-A)*%
X135905000Y-96500000D02*
X140347500Y-96500000D01*
D56*
%TO.N,Net-(D5-K)*%
X122500000Y-108175000D02*
X125962500Y-108175000D01*
%TO.N,/Standby Supply/V_STANDBY*%
X119587500Y-100087500D02*
X116800000Y-97300000D01*
X118350000Y-103300000D02*
X120165000Y-103300000D01*
X118337500Y-101337500D02*
X119587500Y-100087500D01*
X118337500Y-103350000D02*
X118337500Y-101337500D01*
X120165000Y-103300000D02*
X122500000Y-105635000D01*
D57*
%TO.N,/Input power with filter/STARTUP_PROTECT_IN*%
X128100000Y-76185000D02*
X115685000Y-76185000D01*
X115685000Y-76185000D02*
X114300000Y-74800000D01*
D56*
%TO.N,/Input power with filter/PFC_OK#*%
X116750000Y-119787500D02*
X118350000Y-118187500D01*
X109250000Y-122037500D02*
X111500000Y-119787500D01*
X100750000Y-134887500D02*
X106400000Y-134887500D01*
X111500000Y-119787500D02*
X116750000Y-119787500D01*
X109250000Y-132037500D02*
X109250000Y-122037500D01*
X106400000Y-134887500D02*
X109250000Y-132037500D01*
%TO.N,Net-(QP1-G)*%
X81845000Y-106440000D02*
X84060000Y-106440000D01*
X84060000Y-106440000D02*
X86000000Y-104500000D01*
X92300000Y-104500000D02*
X95745000Y-101055000D01*
X95745000Y-101055000D02*
X95745000Y-96712500D01*
X86000000Y-104500000D02*
X92300000Y-104500000D01*
%TO.N,Net-(QP2-G)*%
X154500000Y-124380000D02*
X152900000Y-122780000D01*
X152900000Y-122780000D02*
X152900000Y-109112500D01*
%TO.N,Net-(U3-RT)*%
X157150000Y-103362500D02*
X157700000Y-102812500D01*
X157150000Y-104862500D02*
X157150000Y-103362500D01*
%TO.N,Net-(U3-GATE)*%
X152800000Y-107187500D02*
X155200000Y-107187500D01*
%TO.N,Net-(R12-Pad1)*%
X154387500Y-84300000D02*
X155687500Y-85600000D01*
X146012500Y-84300000D02*
X154387500Y-84300000D01*
X155687500Y-85600000D02*
X155687500Y-88237500D01*
X155687500Y-88237500D02*
X154925000Y-89000000D01*
%TO.N,Net-(U5-K)*%
X148150000Y-88537500D02*
X149262500Y-87425000D01*
X157512500Y-85600000D02*
X157512500Y-88952500D01*
X153725000Y-90300000D02*
X156165000Y-90300000D01*
X149262500Y-87425000D02*
X150850000Y-87425000D01*
X156165000Y-90300000D02*
X157465000Y-89000000D01*
X150850000Y-87425000D02*
X153725000Y-90300000D01*
%TO.N,Net-(U1-FREQ)*%
X99590000Y-91587500D02*
X102287500Y-91587500D01*
%TO.N,Net-(U1-ISENSE)*%
X97162500Y-86950000D02*
X98320000Y-88107500D01*
X98320000Y-88107500D02*
X98320000Y-91587500D01*
%TO.N,Net-(RP5-Pad2)*%
X102000000Y-122687500D02*
X102000000Y-125462500D01*
%TO.N,Net-(RP6-Pad2)*%
X102000000Y-127287500D02*
X102000000Y-130175000D01*
%TO.N,/Input power with filter/PFC_PRE_DIV*%
X98475000Y-134747500D02*
X97882500Y-134155000D01*
X98475000Y-134887500D02*
X98475000Y-134747500D01*
X102000000Y-132000000D02*
X100037500Y-132000000D01*
X97882500Y-134155000D02*
X97702500Y-133975000D01*
X100037500Y-132000000D02*
X98062500Y-133975000D01*
X97702500Y-133975000D02*
X96350000Y-133975000D01*
X98062500Y-133975000D02*
X97702500Y-133975000D01*
%TO.N,Net-(RP10-Pad1)*%
X104500000Y-111700000D02*
X100087500Y-111700000D01*
%TO.N,Net-(RP10-Pad2)*%
X106000000Y-102287500D02*
X106000000Y-108375000D01*
X106000000Y-108375000D02*
X104500000Y-109875000D01*
%TO.N,/Input power with filter/PFC_VSENSE*%
X98320000Y-96283972D02*
X98320000Y-95967500D01*
X99000000Y-95287500D02*
X105900000Y-95287500D01*
X98320000Y-95967500D02*
X99000000Y-95287500D01*
X106000000Y-95387500D02*
X106000000Y-100462500D01*
%TO.N,Net-(RP13-Pad2)*%
X82752500Y-134787500D02*
X85660000Y-134787500D01*
%TO.N,Net-(RP14-Pad2)*%
X87485000Y-134787500D02*
X90250000Y-134787500D01*
%TO.N,Net-(QP2-S)*%
X157000000Y-114712500D02*
X157000000Y-117200000D01*
D59*
X160000000Y-127037500D02*
X160000000Y-124800000D01*
D56*
X161700000Y-126500000D02*
X161162500Y-127037500D01*
X157000000Y-117200000D02*
X161700000Y-121900000D01*
X161700000Y-121900000D02*
X161700000Y-126500000D01*
D59*
X160000000Y-124800000D02*
X159800000Y-124600000D01*
%TD*%
M02*
