%TF.GenerationSoftware,KiCad,Pcbnew,7.0.7-7.0.7~ubuntu22.04.1*%
%TF.CreationDate,2023-08-15T15:59:34+03:00*%
%TF.ProjectId,supply-uv,73757070-6c79-42d7-9576-2e6b69636164,rev?*%
%TF.SameCoordinates,Original*%
%TF.FileFunction,Drillmap*%
%TF.FilePolarity,Positive*%
%FSLAX45Y45*%
G04 Gerber Fmt 4.5, Leading zero omitted, Abs format (unit mm)*
G04 Created by KiCad (PCBNEW 7.0.7-7.0.7~ubuntu22.04.1) date 2023-08-15 15:59:34*
%MOMM*%
%LPD*%
G01*
G04 APERTURE LIST*
%ADD10C,0.100000*%
%ADD11C,0.200000*%
%ADD12C,0.220000*%
G04 APERTURE END LIST*
D10*
X13600000Y-5000000D02*
X6000000Y-5000000D01*
X6000000Y-15000000D02*
X16000000Y-15000000D01*
X13600000Y-8900000D02*
X13600000Y-5000000D01*
X16000000Y-15000000D02*
X16000000Y-8900000D01*
X6000000Y-5000000D02*
X6000000Y-15000000D01*
X16000000Y-8900000D02*
X13600000Y-8900000D01*
D11*
D12*
X6310000Y-7650000D02*
X6530000Y-7870000D01*
X6530000Y-7650000D02*
X6310000Y-7870000D01*
X11505000Y-12883750D02*
X11725000Y-13103750D01*
X11725000Y-12883750D02*
X11505000Y-13103750D01*
X11560000Y-8820000D02*
X11780000Y-9040000D01*
X11780000Y-8820000D02*
X11560000Y-9040000D01*
D11*
X6255777Y-15316484D02*
X6255777Y-15116484D01*
X6255777Y-15116484D02*
X6303396Y-15116484D01*
X6303396Y-15116484D02*
X6331967Y-15126008D01*
X6331967Y-15126008D02*
X6351015Y-15145055D01*
X6351015Y-15145055D02*
X6360539Y-15164103D01*
X6360539Y-15164103D02*
X6370062Y-15202198D01*
X6370062Y-15202198D02*
X6370062Y-15230769D01*
X6370062Y-15230769D02*
X6360539Y-15268865D01*
X6360539Y-15268865D02*
X6351015Y-15287912D01*
X6351015Y-15287912D02*
X6331967Y-15306960D01*
X6331967Y-15306960D02*
X6303396Y-15316484D01*
X6303396Y-15316484D02*
X6255777Y-15316484D01*
X6455777Y-15316484D02*
X6455777Y-15183150D01*
X6455777Y-15221246D02*
X6465301Y-15202198D01*
X6465301Y-15202198D02*
X6474824Y-15192674D01*
X6474824Y-15192674D02*
X6493872Y-15183150D01*
X6493872Y-15183150D02*
X6512920Y-15183150D01*
X6579586Y-15316484D02*
X6579586Y-15183150D01*
X6579586Y-15116484D02*
X6570062Y-15126008D01*
X6570062Y-15126008D02*
X6579586Y-15135531D01*
X6579586Y-15135531D02*
X6589110Y-15126008D01*
X6589110Y-15126008D02*
X6579586Y-15116484D01*
X6579586Y-15116484D02*
X6579586Y-15135531D01*
X6703396Y-15316484D02*
X6684348Y-15306960D01*
X6684348Y-15306960D02*
X6674824Y-15287912D01*
X6674824Y-15287912D02*
X6674824Y-15116484D01*
X6808158Y-15316484D02*
X6789110Y-15306960D01*
X6789110Y-15306960D02*
X6779586Y-15287912D01*
X6779586Y-15287912D02*
X6779586Y-15116484D01*
X7036729Y-15316484D02*
X7036729Y-15116484D01*
X7036729Y-15116484D02*
X7103396Y-15259341D01*
X7103396Y-15259341D02*
X7170062Y-15116484D01*
X7170062Y-15116484D02*
X7170062Y-15316484D01*
X7351015Y-15316484D02*
X7351015Y-15211722D01*
X7351015Y-15211722D02*
X7341491Y-15192674D01*
X7341491Y-15192674D02*
X7322443Y-15183150D01*
X7322443Y-15183150D02*
X7284348Y-15183150D01*
X7284348Y-15183150D02*
X7265301Y-15192674D01*
X7351015Y-15306960D02*
X7331967Y-15316484D01*
X7331967Y-15316484D02*
X7284348Y-15316484D01*
X7284348Y-15316484D02*
X7265301Y-15306960D01*
X7265301Y-15306960D02*
X7255777Y-15287912D01*
X7255777Y-15287912D02*
X7255777Y-15268865D01*
X7255777Y-15268865D02*
X7265301Y-15249817D01*
X7265301Y-15249817D02*
X7284348Y-15240293D01*
X7284348Y-15240293D02*
X7331967Y-15240293D01*
X7331967Y-15240293D02*
X7351015Y-15230769D01*
X7446253Y-15183150D02*
X7446253Y-15383150D01*
X7446253Y-15192674D02*
X7465301Y-15183150D01*
X7465301Y-15183150D02*
X7503396Y-15183150D01*
X7503396Y-15183150D02*
X7522443Y-15192674D01*
X7522443Y-15192674D02*
X7531967Y-15202198D01*
X7531967Y-15202198D02*
X7541491Y-15221246D01*
X7541491Y-15221246D02*
X7541491Y-15278388D01*
X7541491Y-15278388D02*
X7531967Y-15297436D01*
X7531967Y-15297436D02*
X7522443Y-15306960D01*
X7522443Y-15306960D02*
X7503396Y-15316484D01*
X7503396Y-15316484D02*
X7465301Y-15316484D01*
X7465301Y-15316484D02*
X7446253Y-15306960D01*
X7627205Y-15297436D02*
X7636729Y-15306960D01*
X7636729Y-15306960D02*
X7627205Y-15316484D01*
X7627205Y-15316484D02*
X7617682Y-15306960D01*
X7617682Y-15306960D02*
X7627205Y-15297436D01*
X7627205Y-15297436D02*
X7627205Y-15316484D01*
X7627205Y-15192674D02*
X7636729Y-15202198D01*
X7636729Y-15202198D02*
X7627205Y-15211722D01*
X7627205Y-15211722D02*
X7617682Y-15202198D01*
X7617682Y-15202198D02*
X7627205Y-15192674D01*
X7627205Y-15192674D02*
X7627205Y-15211722D01*
X5795000Y-15545000D02*
X5995000Y-15745000D01*
X5995000Y-15545000D02*
X5795000Y-15745000D01*
X6246253Y-15555531D02*
X6255777Y-15546008D01*
X6255777Y-15546008D02*
X6274824Y-15536484D01*
X6274824Y-15536484D02*
X6322443Y-15536484D01*
X6322443Y-15536484D02*
X6341491Y-15546008D01*
X6341491Y-15546008D02*
X6351015Y-15555531D01*
X6351015Y-15555531D02*
X6360539Y-15574579D01*
X6360539Y-15574579D02*
X6360539Y-15593627D01*
X6360539Y-15593627D02*
X6351015Y-15622198D01*
X6351015Y-15622198D02*
X6236729Y-15736484D01*
X6236729Y-15736484D02*
X6360539Y-15736484D01*
X6446253Y-15717436D02*
X6455777Y-15726960D01*
X6455777Y-15726960D02*
X6446253Y-15736484D01*
X6446253Y-15736484D02*
X6436729Y-15726960D01*
X6436729Y-15726960D02*
X6446253Y-15717436D01*
X6446253Y-15717436D02*
X6446253Y-15736484D01*
X6531967Y-15555531D02*
X6541491Y-15546008D01*
X6541491Y-15546008D02*
X6560539Y-15536484D01*
X6560539Y-15536484D02*
X6608158Y-15536484D01*
X6608158Y-15536484D02*
X6627205Y-15546008D01*
X6627205Y-15546008D02*
X6636729Y-15555531D01*
X6636729Y-15555531D02*
X6646253Y-15574579D01*
X6646253Y-15574579D02*
X6646253Y-15593627D01*
X6646253Y-15593627D02*
X6636729Y-15622198D01*
X6636729Y-15622198D02*
X6522443Y-15736484D01*
X6522443Y-15736484D02*
X6646253Y-15736484D01*
X6770062Y-15536484D02*
X6789110Y-15536484D01*
X6789110Y-15536484D02*
X6808158Y-15546008D01*
X6808158Y-15546008D02*
X6817682Y-15555531D01*
X6817682Y-15555531D02*
X6827205Y-15574579D01*
X6827205Y-15574579D02*
X6836729Y-15612674D01*
X6836729Y-15612674D02*
X6836729Y-15660293D01*
X6836729Y-15660293D02*
X6827205Y-15698388D01*
X6827205Y-15698388D02*
X6817682Y-15717436D01*
X6817682Y-15717436D02*
X6808158Y-15726960D01*
X6808158Y-15726960D02*
X6789110Y-15736484D01*
X6789110Y-15736484D02*
X6770062Y-15736484D01*
X6770062Y-15736484D02*
X6751015Y-15726960D01*
X6751015Y-15726960D02*
X6741491Y-15717436D01*
X6741491Y-15717436D02*
X6731967Y-15698388D01*
X6731967Y-15698388D02*
X6722443Y-15660293D01*
X6722443Y-15660293D02*
X6722443Y-15612674D01*
X6722443Y-15612674D02*
X6731967Y-15574579D01*
X6731967Y-15574579D02*
X6741491Y-15555531D01*
X6741491Y-15555531D02*
X6751015Y-15546008D01*
X6751015Y-15546008D02*
X6770062Y-15536484D01*
X6960539Y-15536484D02*
X6979586Y-15536484D01*
X6979586Y-15536484D02*
X6998634Y-15546008D01*
X6998634Y-15546008D02*
X7008158Y-15555531D01*
X7008158Y-15555531D02*
X7017682Y-15574579D01*
X7017682Y-15574579D02*
X7027205Y-15612674D01*
X7027205Y-15612674D02*
X7027205Y-15660293D01*
X7027205Y-15660293D02*
X7017682Y-15698388D01*
X7017682Y-15698388D02*
X7008158Y-15717436D01*
X7008158Y-15717436D02*
X6998634Y-15726960D01*
X6998634Y-15726960D02*
X6979586Y-15736484D01*
X6979586Y-15736484D02*
X6960539Y-15736484D01*
X6960539Y-15736484D02*
X6941491Y-15726960D01*
X6941491Y-15726960D02*
X6931967Y-15717436D01*
X6931967Y-15717436D02*
X6922443Y-15698388D01*
X6922443Y-15698388D02*
X6912920Y-15660293D01*
X6912920Y-15660293D02*
X6912920Y-15612674D01*
X6912920Y-15612674D02*
X6922443Y-15574579D01*
X6922443Y-15574579D02*
X6931967Y-15555531D01*
X6931967Y-15555531D02*
X6941491Y-15546008D01*
X6941491Y-15546008D02*
X6960539Y-15536484D01*
X7112920Y-15736484D02*
X7112920Y-15603150D01*
X7112920Y-15622198D02*
X7122443Y-15612674D01*
X7122443Y-15612674D02*
X7141491Y-15603150D01*
X7141491Y-15603150D02*
X7170063Y-15603150D01*
X7170063Y-15603150D02*
X7189110Y-15612674D01*
X7189110Y-15612674D02*
X7198634Y-15631722D01*
X7198634Y-15631722D02*
X7198634Y-15736484D01*
X7198634Y-15631722D02*
X7208158Y-15612674D01*
X7208158Y-15612674D02*
X7227205Y-15603150D01*
X7227205Y-15603150D02*
X7255777Y-15603150D01*
X7255777Y-15603150D02*
X7274824Y-15612674D01*
X7274824Y-15612674D02*
X7284348Y-15631722D01*
X7284348Y-15631722D02*
X7284348Y-15736484D01*
X7379586Y-15736484D02*
X7379586Y-15603150D01*
X7379586Y-15622198D02*
X7389110Y-15612674D01*
X7389110Y-15612674D02*
X7408158Y-15603150D01*
X7408158Y-15603150D02*
X7436729Y-15603150D01*
X7436729Y-15603150D02*
X7455777Y-15612674D01*
X7455777Y-15612674D02*
X7465301Y-15631722D01*
X7465301Y-15631722D02*
X7465301Y-15736484D01*
X7465301Y-15631722D02*
X7474824Y-15612674D01*
X7474824Y-15612674D02*
X7493872Y-15603150D01*
X7493872Y-15603150D02*
X7522443Y-15603150D01*
X7522443Y-15603150D02*
X7541491Y-15612674D01*
X7541491Y-15612674D02*
X7551015Y-15631722D01*
X7551015Y-15631722D02*
X7551015Y-15736484D01*
X7941491Y-15526960D02*
X7770063Y-15784103D01*
X8198634Y-15536484D02*
X8217682Y-15536484D01*
X8217682Y-15536484D02*
X8236729Y-15546008D01*
X8236729Y-15546008D02*
X8246253Y-15555531D01*
X8246253Y-15555531D02*
X8255777Y-15574579D01*
X8255777Y-15574579D02*
X8265301Y-15612674D01*
X8265301Y-15612674D02*
X8265301Y-15660293D01*
X8265301Y-15660293D02*
X8255777Y-15698388D01*
X8255777Y-15698388D02*
X8246253Y-15717436D01*
X8246253Y-15717436D02*
X8236729Y-15726960D01*
X8236729Y-15726960D02*
X8217682Y-15736484D01*
X8217682Y-15736484D02*
X8198634Y-15736484D01*
X8198634Y-15736484D02*
X8179586Y-15726960D01*
X8179586Y-15726960D02*
X8170063Y-15717436D01*
X8170063Y-15717436D02*
X8160539Y-15698388D01*
X8160539Y-15698388D02*
X8151015Y-15660293D01*
X8151015Y-15660293D02*
X8151015Y-15612674D01*
X8151015Y-15612674D02*
X8160539Y-15574579D01*
X8160539Y-15574579D02*
X8170063Y-15555531D01*
X8170063Y-15555531D02*
X8179586Y-15546008D01*
X8179586Y-15546008D02*
X8198634Y-15536484D01*
X8351015Y-15717436D02*
X8360539Y-15726960D01*
X8360539Y-15726960D02*
X8351015Y-15736484D01*
X8351015Y-15736484D02*
X8341491Y-15726960D01*
X8341491Y-15726960D02*
X8351015Y-15717436D01*
X8351015Y-15717436D02*
X8351015Y-15736484D01*
X8484348Y-15536484D02*
X8503396Y-15536484D01*
X8503396Y-15536484D02*
X8522444Y-15546008D01*
X8522444Y-15546008D02*
X8531968Y-15555531D01*
X8531968Y-15555531D02*
X8541491Y-15574579D01*
X8541491Y-15574579D02*
X8551015Y-15612674D01*
X8551015Y-15612674D02*
X8551015Y-15660293D01*
X8551015Y-15660293D02*
X8541491Y-15698388D01*
X8541491Y-15698388D02*
X8531968Y-15717436D01*
X8531968Y-15717436D02*
X8522444Y-15726960D01*
X8522444Y-15726960D02*
X8503396Y-15736484D01*
X8503396Y-15736484D02*
X8484348Y-15736484D01*
X8484348Y-15736484D02*
X8465301Y-15726960D01*
X8465301Y-15726960D02*
X8455777Y-15717436D01*
X8455777Y-15717436D02*
X8446253Y-15698388D01*
X8446253Y-15698388D02*
X8436729Y-15660293D01*
X8436729Y-15660293D02*
X8436729Y-15612674D01*
X8436729Y-15612674D02*
X8446253Y-15574579D01*
X8446253Y-15574579D02*
X8455777Y-15555531D01*
X8455777Y-15555531D02*
X8465301Y-15546008D01*
X8465301Y-15546008D02*
X8484348Y-15536484D01*
X8665301Y-15622198D02*
X8646253Y-15612674D01*
X8646253Y-15612674D02*
X8636729Y-15603150D01*
X8636729Y-15603150D02*
X8627206Y-15584103D01*
X8627206Y-15584103D02*
X8627206Y-15574579D01*
X8627206Y-15574579D02*
X8636729Y-15555531D01*
X8636729Y-15555531D02*
X8646253Y-15546008D01*
X8646253Y-15546008D02*
X8665301Y-15536484D01*
X8665301Y-15536484D02*
X8703396Y-15536484D01*
X8703396Y-15536484D02*
X8722444Y-15546008D01*
X8722444Y-15546008D02*
X8731968Y-15555531D01*
X8731968Y-15555531D02*
X8741491Y-15574579D01*
X8741491Y-15574579D02*
X8741491Y-15584103D01*
X8741491Y-15584103D02*
X8731968Y-15603150D01*
X8731968Y-15603150D02*
X8722444Y-15612674D01*
X8722444Y-15612674D02*
X8703396Y-15622198D01*
X8703396Y-15622198D02*
X8665301Y-15622198D01*
X8665301Y-15622198D02*
X8646253Y-15631722D01*
X8646253Y-15631722D02*
X8636729Y-15641246D01*
X8636729Y-15641246D02*
X8627206Y-15660293D01*
X8627206Y-15660293D02*
X8627206Y-15698388D01*
X8627206Y-15698388D02*
X8636729Y-15717436D01*
X8636729Y-15717436D02*
X8646253Y-15726960D01*
X8646253Y-15726960D02*
X8665301Y-15736484D01*
X8665301Y-15736484D02*
X8703396Y-15736484D01*
X8703396Y-15736484D02*
X8722444Y-15726960D01*
X8722444Y-15726960D02*
X8731968Y-15717436D01*
X8731968Y-15717436D02*
X8741491Y-15698388D01*
X8741491Y-15698388D02*
X8741491Y-15660293D01*
X8741491Y-15660293D02*
X8731968Y-15641246D01*
X8731968Y-15641246D02*
X8722444Y-15631722D01*
X8722444Y-15631722D02*
X8703396Y-15622198D01*
X8912920Y-15536484D02*
X8874825Y-15536484D01*
X8874825Y-15536484D02*
X8855777Y-15546008D01*
X8855777Y-15546008D02*
X8846253Y-15555531D01*
X8846253Y-15555531D02*
X8827206Y-15584103D01*
X8827206Y-15584103D02*
X8817682Y-15622198D01*
X8817682Y-15622198D02*
X8817682Y-15698388D01*
X8817682Y-15698388D02*
X8827206Y-15717436D01*
X8827206Y-15717436D02*
X8836729Y-15726960D01*
X8836729Y-15726960D02*
X8855777Y-15736484D01*
X8855777Y-15736484D02*
X8893872Y-15736484D01*
X8893872Y-15736484D02*
X8912920Y-15726960D01*
X8912920Y-15726960D02*
X8922444Y-15717436D01*
X8922444Y-15717436D02*
X8931968Y-15698388D01*
X8931968Y-15698388D02*
X8931968Y-15650769D01*
X8931968Y-15650769D02*
X8922444Y-15631722D01*
X8922444Y-15631722D02*
X8912920Y-15622198D01*
X8912920Y-15622198D02*
X8893872Y-15612674D01*
X8893872Y-15612674D02*
X8855777Y-15612674D01*
X8855777Y-15612674D02*
X8836729Y-15622198D01*
X8836729Y-15622198D02*
X8827206Y-15631722D01*
X8827206Y-15631722D02*
X8817682Y-15650769D01*
X9103396Y-15536484D02*
X9065301Y-15536484D01*
X9065301Y-15536484D02*
X9046253Y-15546008D01*
X9046253Y-15546008D02*
X9036729Y-15555531D01*
X9036729Y-15555531D02*
X9017682Y-15584103D01*
X9017682Y-15584103D02*
X9008158Y-15622198D01*
X9008158Y-15622198D02*
X9008158Y-15698388D01*
X9008158Y-15698388D02*
X9017682Y-15717436D01*
X9017682Y-15717436D02*
X9027206Y-15726960D01*
X9027206Y-15726960D02*
X9046253Y-15736484D01*
X9046253Y-15736484D02*
X9084349Y-15736484D01*
X9084349Y-15736484D02*
X9103396Y-15726960D01*
X9103396Y-15726960D02*
X9112920Y-15717436D01*
X9112920Y-15717436D02*
X9122444Y-15698388D01*
X9122444Y-15698388D02*
X9122444Y-15650769D01*
X9122444Y-15650769D02*
X9112920Y-15631722D01*
X9112920Y-15631722D02*
X9103396Y-15622198D01*
X9103396Y-15622198D02*
X9084349Y-15612674D01*
X9084349Y-15612674D02*
X9046253Y-15612674D01*
X9046253Y-15612674D02*
X9027206Y-15622198D01*
X9027206Y-15622198D02*
X9017682Y-15631722D01*
X9017682Y-15631722D02*
X9008158Y-15650769D01*
X9198634Y-15536484D02*
X9198634Y-15574579D01*
X9274825Y-15536484D02*
X9274825Y-15574579D01*
X9570063Y-15812674D02*
X9560539Y-15803150D01*
X9560539Y-15803150D02*
X9541491Y-15774579D01*
X9541491Y-15774579D02*
X9531968Y-15755531D01*
X9531968Y-15755531D02*
X9522444Y-15726960D01*
X9522444Y-15726960D02*
X9512920Y-15679341D01*
X9512920Y-15679341D02*
X9512920Y-15641246D01*
X9512920Y-15641246D02*
X9522444Y-15593627D01*
X9522444Y-15593627D02*
X9531968Y-15565055D01*
X9531968Y-15565055D02*
X9541491Y-15546008D01*
X9541491Y-15546008D02*
X9560539Y-15517436D01*
X9560539Y-15517436D02*
X9570063Y-15507912D01*
X9627206Y-15536484D02*
X9751015Y-15536484D01*
X9751015Y-15536484D02*
X9684349Y-15612674D01*
X9684349Y-15612674D02*
X9712920Y-15612674D01*
X9712920Y-15612674D02*
X9731968Y-15622198D01*
X9731968Y-15622198D02*
X9741491Y-15631722D01*
X9741491Y-15631722D02*
X9751015Y-15650769D01*
X9751015Y-15650769D02*
X9751015Y-15698388D01*
X9751015Y-15698388D02*
X9741491Y-15717436D01*
X9741491Y-15717436D02*
X9731968Y-15726960D01*
X9731968Y-15726960D02*
X9712920Y-15736484D01*
X9712920Y-15736484D02*
X9655777Y-15736484D01*
X9655777Y-15736484D02*
X9636730Y-15726960D01*
X9636730Y-15726960D02*
X9627206Y-15717436D01*
X9989111Y-15736484D02*
X9989111Y-15536484D01*
X10074825Y-15736484D02*
X10074825Y-15631722D01*
X10074825Y-15631722D02*
X10065301Y-15612674D01*
X10065301Y-15612674D02*
X10046253Y-15603150D01*
X10046253Y-15603150D02*
X10017682Y-15603150D01*
X10017682Y-15603150D02*
X9998634Y-15612674D01*
X9998634Y-15612674D02*
X9989111Y-15622198D01*
X10198634Y-15736484D02*
X10179587Y-15726960D01*
X10179587Y-15726960D02*
X10170063Y-15717436D01*
X10170063Y-15717436D02*
X10160539Y-15698388D01*
X10160539Y-15698388D02*
X10160539Y-15641246D01*
X10160539Y-15641246D02*
X10170063Y-15622198D01*
X10170063Y-15622198D02*
X10179587Y-15612674D01*
X10179587Y-15612674D02*
X10198634Y-15603150D01*
X10198634Y-15603150D02*
X10227206Y-15603150D01*
X10227206Y-15603150D02*
X10246253Y-15612674D01*
X10246253Y-15612674D02*
X10255777Y-15622198D01*
X10255777Y-15622198D02*
X10265301Y-15641246D01*
X10265301Y-15641246D02*
X10265301Y-15698388D01*
X10265301Y-15698388D02*
X10255777Y-15717436D01*
X10255777Y-15717436D02*
X10246253Y-15726960D01*
X10246253Y-15726960D02*
X10227206Y-15736484D01*
X10227206Y-15736484D02*
X10198634Y-15736484D01*
X10379587Y-15736484D02*
X10360539Y-15726960D01*
X10360539Y-15726960D02*
X10351015Y-15707912D01*
X10351015Y-15707912D02*
X10351015Y-15536484D01*
X10531968Y-15726960D02*
X10512920Y-15736484D01*
X10512920Y-15736484D02*
X10474825Y-15736484D01*
X10474825Y-15736484D02*
X10455777Y-15726960D01*
X10455777Y-15726960D02*
X10446253Y-15707912D01*
X10446253Y-15707912D02*
X10446253Y-15631722D01*
X10446253Y-15631722D02*
X10455777Y-15612674D01*
X10455777Y-15612674D02*
X10474825Y-15603150D01*
X10474825Y-15603150D02*
X10512920Y-15603150D01*
X10512920Y-15603150D02*
X10531968Y-15612674D01*
X10531968Y-15612674D02*
X10541492Y-15631722D01*
X10541492Y-15631722D02*
X10541492Y-15650769D01*
X10541492Y-15650769D02*
X10446253Y-15669817D01*
X10617682Y-15726960D02*
X10636730Y-15736484D01*
X10636730Y-15736484D02*
X10674825Y-15736484D01*
X10674825Y-15736484D02*
X10693873Y-15726960D01*
X10693873Y-15726960D02*
X10703396Y-15707912D01*
X10703396Y-15707912D02*
X10703396Y-15698388D01*
X10703396Y-15698388D02*
X10693873Y-15679341D01*
X10693873Y-15679341D02*
X10674825Y-15669817D01*
X10674825Y-15669817D02*
X10646253Y-15669817D01*
X10646253Y-15669817D02*
X10627206Y-15660293D01*
X10627206Y-15660293D02*
X10617682Y-15641246D01*
X10617682Y-15641246D02*
X10617682Y-15631722D01*
X10617682Y-15631722D02*
X10627206Y-15612674D01*
X10627206Y-15612674D02*
X10646253Y-15603150D01*
X10646253Y-15603150D02*
X10674825Y-15603150D01*
X10674825Y-15603150D02*
X10693873Y-15612674D01*
X10770063Y-15812674D02*
X10779587Y-15803150D01*
X10779587Y-15803150D02*
X10798634Y-15774579D01*
X10798634Y-15774579D02*
X10808158Y-15755531D01*
X10808158Y-15755531D02*
X10817682Y-15726960D01*
X10817682Y-15726960D02*
X10827206Y-15679341D01*
X10827206Y-15679341D02*
X10827206Y-15641246D01*
X10827206Y-15641246D02*
X10817682Y-15593627D01*
X10817682Y-15593627D02*
X10808158Y-15565055D01*
X10808158Y-15565055D02*
X10798634Y-15546008D01*
X10798634Y-15546008D02*
X10779587Y-15517436D01*
X10779587Y-15517436D02*
X10770063Y-15507912D01*
X11131968Y-15812674D02*
X11122444Y-15803150D01*
X11122444Y-15803150D02*
X11103396Y-15774579D01*
X11103396Y-15774579D02*
X11093873Y-15755531D01*
X11093873Y-15755531D02*
X11084349Y-15726960D01*
X11084349Y-15726960D02*
X11074825Y-15679341D01*
X11074825Y-15679341D02*
X11074825Y-15641246D01*
X11074825Y-15641246D02*
X11084349Y-15593627D01*
X11084349Y-15593627D02*
X11093873Y-15565055D01*
X11093873Y-15565055D02*
X11103396Y-15546008D01*
X11103396Y-15546008D02*
X11122444Y-15517436D01*
X11122444Y-15517436D02*
X11131968Y-15507912D01*
X11208158Y-15603150D02*
X11208158Y-15736484D01*
X11208158Y-15622198D02*
X11217682Y-15612674D01*
X11217682Y-15612674D02*
X11236730Y-15603150D01*
X11236730Y-15603150D02*
X11265301Y-15603150D01*
X11265301Y-15603150D02*
X11284349Y-15612674D01*
X11284349Y-15612674D02*
X11293872Y-15631722D01*
X11293872Y-15631722D02*
X11293872Y-15736484D01*
X11417682Y-15736484D02*
X11398634Y-15726960D01*
X11398634Y-15726960D02*
X11389111Y-15717436D01*
X11389111Y-15717436D02*
X11379587Y-15698388D01*
X11379587Y-15698388D02*
X11379587Y-15641246D01*
X11379587Y-15641246D02*
X11389111Y-15622198D01*
X11389111Y-15622198D02*
X11398634Y-15612674D01*
X11398634Y-15612674D02*
X11417682Y-15603150D01*
X11417682Y-15603150D02*
X11446253Y-15603150D01*
X11446253Y-15603150D02*
X11465301Y-15612674D01*
X11465301Y-15612674D02*
X11474825Y-15622198D01*
X11474825Y-15622198D02*
X11484349Y-15641246D01*
X11484349Y-15641246D02*
X11484349Y-15698388D01*
X11484349Y-15698388D02*
X11474825Y-15717436D01*
X11474825Y-15717436D02*
X11465301Y-15726960D01*
X11465301Y-15726960D02*
X11446253Y-15736484D01*
X11446253Y-15736484D02*
X11417682Y-15736484D01*
X11541492Y-15603150D02*
X11617682Y-15603150D01*
X11570063Y-15536484D02*
X11570063Y-15707912D01*
X11570063Y-15707912D02*
X11579587Y-15726960D01*
X11579587Y-15726960D02*
X11598634Y-15736484D01*
X11598634Y-15736484D02*
X11617682Y-15736484D01*
X11836730Y-15603150D02*
X11836730Y-15803150D01*
X11836730Y-15612674D02*
X11855777Y-15603150D01*
X11855777Y-15603150D02*
X11893873Y-15603150D01*
X11893873Y-15603150D02*
X11912920Y-15612674D01*
X11912920Y-15612674D02*
X11922444Y-15622198D01*
X11922444Y-15622198D02*
X11931968Y-15641246D01*
X11931968Y-15641246D02*
X11931968Y-15698388D01*
X11931968Y-15698388D02*
X11922444Y-15717436D01*
X11922444Y-15717436D02*
X11912920Y-15726960D01*
X11912920Y-15726960D02*
X11893873Y-15736484D01*
X11893873Y-15736484D02*
X11855777Y-15736484D01*
X11855777Y-15736484D02*
X11836730Y-15726960D01*
X12046253Y-15736484D02*
X12027206Y-15726960D01*
X12027206Y-15726960D02*
X12017682Y-15707912D01*
X12017682Y-15707912D02*
X12017682Y-15536484D01*
X12208158Y-15736484D02*
X12208158Y-15631722D01*
X12208158Y-15631722D02*
X12198634Y-15612674D01*
X12198634Y-15612674D02*
X12179587Y-15603150D01*
X12179587Y-15603150D02*
X12141492Y-15603150D01*
X12141492Y-15603150D02*
X12122444Y-15612674D01*
X12208158Y-15726960D02*
X12189111Y-15736484D01*
X12189111Y-15736484D02*
X12141492Y-15736484D01*
X12141492Y-15736484D02*
X12122444Y-15726960D01*
X12122444Y-15726960D02*
X12112920Y-15707912D01*
X12112920Y-15707912D02*
X12112920Y-15688865D01*
X12112920Y-15688865D02*
X12122444Y-15669817D01*
X12122444Y-15669817D02*
X12141492Y-15660293D01*
X12141492Y-15660293D02*
X12189111Y-15660293D01*
X12189111Y-15660293D02*
X12208158Y-15650769D01*
X12274825Y-15603150D02*
X12351015Y-15603150D01*
X12303396Y-15536484D02*
X12303396Y-15707912D01*
X12303396Y-15707912D02*
X12312920Y-15726960D01*
X12312920Y-15726960D02*
X12331968Y-15736484D01*
X12331968Y-15736484D02*
X12351015Y-15736484D01*
X12493873Y-15726960D02*
X12474825Y-15736484D01*
X12474825Y-15736484D02*
X12436730Y-15736484D01*
X12436730Y-15736484D02*
X12417682Y-15726960D01*
X12417682Y-15726960D02*
X12408158Y-15707912D01*
X12408158Y-15707912D02*
X12408158Y-15631722D01*
X12408158Y-15631722D02*
X12417682Y-15612674D01*
X12417682Y-15612674D02*
X12436730Y-15603150D01*
X12436730Y-15603150D02*
X12474825Y-15603150D01*
X12474825Y-15603150D02*
X12493873Y-15612674D01*
X12493873Y-15612674D02*
X12503396Y-15631722D01*
X12503396Y-15631722D02*
X12503396Y-15650769D01*
X12503396Y-15650769D02*
X12408158Y-15669817D01*
X12674825Y-15736484D02*
X12674825Y-15536484D01*
X12674825Y-15726960D02*
X12655777Y-15736484D01*
X12655777Y-15736484D02*
X12617682Y-15736484D01*
X12617682Y-15736484D02*
X12598634Y-15726960D01*
X12598634Y-15726960D02*
X12589111Y-15717436D01*
X12589111Y-15717436D02*
X12579587Y-15698388D01*
X12579587Y-15698388D02*
X12579587Y-15641246D01*
X12579587Y-15641246D02*
X12589111Y-15622198D01*
X12589111Y-15622198D02*
X12598634Y-15612674D01*
X12598634Y-15612674D02*
X12617682Y-15603150D01*
X12617682Y-15603150D02*
X12655777Y-15603150D01*
X12655777Y-15603150D02*
X12674825Y-15612674D01*
X12751015Y-15812674D02*
X12760539Y-15803150D01*
X12760539Y-15803150D02*
X12779587Y-15774579D01*
X12779587Y-15774579D02*
X12789111Y-15755531D01*
X12789111Y-15755531D02*
X12798634Y-15726960D01*
X12798634Y-15726960D02*
X12808158Y-15679341D01*
X12808158Y-15679341D02*
X12808158Y-15641246D01*
X12808158Y-15641246D02*
X12798634Y-15593627D01*
X12798634Y-15593627D02*
X12789111Y-15565055D01*
X12789111Y-15565055D02*
X12779587Y-15546008D01*
X12779587Y-15546008D02*
X12760539Y-15517436D01*
X12760539Y-15517436D02*
X12751015Y-15507912D01*
M02*
