%TF.GenerationSoftware,KiCad,Pcbnew,7.0.8-7.0.8~ubuntu22.04.1*%
%TF.CreationDate,2023-10-18T11:11:40+03:00*%
%TF.ProjectId,supply-uv,73757070-6c79-42d7-9576-2e6b69636164,rev?*%
%TF.SameCoordinates,Original*%
%TF.FileFunction,Soldermask,Bot*%
%TF.FilePolarity,Negative*%
%FSLAX46Y46*%
G04 Gerber Fmt 4.6, Leading zero omitted, Abs format (unit mm)*
G04 Created by KiCad (PCBNEW 7.0.8-7.0.8~ubuntu22.04.1) date 2023-10-18 11:11:40*
%MOMM*%
%LPD*%
G01*
G04 APERTURE LIST*
G04 Aperture macros list*
%AMRoundRect*
0 Rectangle with rounded corners*
0 $1 Rounding radius*
0 $2 $3 $4 $5 $6 $7 $8 $9 X,Y pos of 4 corners*
0 Add a 4 corners polygon primitive as box body*
4,1,4,$2,$3,$4,$5,$6,$7,$8,$9,$2,$3,0*
0 Add four circle primitives for the rounded corners*
1,1,$1+$1,$2,$3*
1,1,$1+$1,$4,$5*
1,1,$1+$1,$6,$7*
1,1,$1+$1,$8,$9*
0 Add four rect primitives between the rounded corners*
20,1,$1+$1,$2,$3,$4,$5,0*
20,1,$1+$1,$4,$5,$6,$7,0*
20,1,$1+$1,$6,$7,$8,$9,0*
20,1,$1+$1,$8,$9,$2,$3,0*%
G04 Aperture macros list end*
%ADD10R,1.905000X2.000000*%
%ADD11O,1.905000X2.000000*%
%ADD12R,2.800000X2.800000*%
%ADD13C,2.800000*%
%ADD14C,2.200000*%
%ADD15R,3.000000X3.000000*%
%ADD16C,1.600000*%
%ADD17O,1.600000X1.600000*%
%ADD18R,2.000000X2.000000*%
%ADD19O,2.000000X2.000000*%
%ADD20R,1.800000X1.800000*%
%ADD21C,1.800000*%
%ADD22R,2.200000X2.200000*%
%ADD23O,2.200000X2.200000*%
%ADD24R,2.400000X2.400000*%
%ADD25C,2.400000*%
%ADD26R,2.000000X1.905000*%
%ADD27O,2.000000X1.905000*%
%ADD28R,1.600000X1.600000*%
%ADD29C,2.500000*%
%ADD30RoundRect,0.249999X1.300001X-1.300001X1.300001X1.300001X-1.300001X1.300001X-1.300001X-1.300001X0*%
%ADD31C,3.100000*%
%ADD32RoundRect,0.250002X-1.699998X-1.699998X1.699998X-1.699998X1.699998X1.699998X-1.699998X1.699998X0*%
%ADD33RoundRect,0.250002X1.699998X-1.699998X1.699998X1.699998X-1.699998X1.699998X-1.699998X-1.699998X0*%
%ADD34C,3.900000*%
%ADD35R,3.200000X3.200000*%
%ADD36O,3.200000X3.200000*%
%ADD37RoundRect,0.249999X-1.300001X-1.300001X1.300001X-1.300001X1.300001X1.300001X-1.300001X1.300001X0*%
%ADD38C,1.400000*%
%ADD39C,3.000000*%
%ADD40RoundRect,0.225000X-0.250000X0.225000X-0.250000X-0.225000X0.250000X-0.225000X0.250000X0.225000X0*%
%ADD41RoundRect,0.250000X-0.262500X-0.450000X0.262500X-0.450000X0.262500X0.450000X-0.262500X0.450000X0*%
%ADD42RoundRect,0.250000X0.262500X0.450000X-0.262500X0.450000X-0.262500X-0.450000X0.262500X-0.450000X0*%
%ADD43RoundRect,0.250000X0.450000X-0.262500X0.450000X0.262500X-0.450000X0.262500X-0.450000X-0.262500X0*%
%ADD44RoundRect,0.250000X-0.450000X0.262500X-0.450000X-0.262500X0.450000X-0.262500X0.450000X0.262500X0*%
%ADD45RoundRect,0.250000X-1.425000X0.362500X-1.425000X-0.362500X1.425000X-0.362500X1.425000X0.362500X0*%
%ADD46RoundRect,0.250000X-0.325000X-1.100000X0.325000X-1.100000X0.325000X1.100000X-0.325000X1.100000X0*%
%ADD47RoundRect,0.150000X-0.150000X0.725000X-0.150000X-0.725000X0.150000X-0.725000X0.150000X0.725000X0*%
%ADD48RoundRect,0.225000X0.225000X0.250000X-0.225000X0.250000X-0.225000X-0.250000X0.225000X-0.250000X0*%
%ADD49RoundRect,0.218750X0.218750X0.256250X-0.218750X0.256250X-0.218750X-0.256250X0.218750X-0.256250X0*%
%ADD50RoundRect,0.150000X-0.512500X-0.150000X0.512500X-0.150000X0.512500X0.150000X-0.512500X0.150000X0*%
%ADD51RoundRect,0.150000X-0.150000X0.512500X-0.150000X-0.512500X0.150000X-0.512500X0.150000X0.512500X0*%
%ADD52RoundRect,0.150000X0.150000X-0.512500X0.150000X0.512500X-0.150000X0.512500X-0.150000X-0.512500X0*%
%ADD53RoundRect,0.250000X1.425000X-0.362500X1.425000X0.362500X-1.425000X0.362500X-1.425000X-0.362500X0*%
%ADD54RoundRect,0.225000X0.250000X-0.225000X0.250000X0.225000X-0.250000X0.225000X-0.250000X-0.225000X0*%
%ADD55RoundRect,0.150000X0.150000X-0.587500X0.150000X0.587500X-0.150000X0.587500X-0.150000X-0.587500X0*%
G04 APERTURE END LIST*
D10*
%TO.C,QP2*%
X154720000Y-124600000D03*
D11*
X157260000Y-124600000D03*
X159800000Y-124600000D03*
%TD*%
D12*
%TO.C,D1*%
X76192500Y-69480000D03*
D13*
X81272500Y-69480000D03*
X86352500Y-69480000D03*
X91432500Y-69480000D03*
%TD*%
D14*
%TO.C,H1*%
X67000000Y-72000000D03*
%TD*%
D15*
%TO.C,TP1*%
X66250000Y-100537500D03*
%TD*%
D16*
%TO.C,R8*%
X137500000Y-128610000D03*
D17*
X137500000Y-120990000D03*
%TD*%
D18*
%TO.C,DP1*%
X92540000Y-125342500D03*
D19*
X87460000Y-125342500D03*
%TD*%
D20*
%TO.C,D6*%
X133050000Y-102237500D03*
D21*
X130510000Y-102237500D03*
%TD*%
D20*
%TO.C,D5*%
X122500000Y-108175000D03*
D21*
X122500000Y-105635000D03*
%TD*%
D22*
%TO.C,D3*%
X135700000Y-114037500D03*
D23*
X135700000Y-106417500D03*
%TD*%
D24*
%TO.C,C3*%
X150787246Y-135600000D03*
D25*
X158287246Y-135600000D03*
%TD*%
D14*
%TO.C,H2*%
X119000000Y-83000000D03*
%TD*%
D26*
%TO.C,QP1*%
X81845000Y-106440000D03*
D27*
X81845000Y-103900000D03*
X81845000Y-101360000D03*
%TD*%
D28*
%TO.C,C8*%
X132000000Y-87700000D03*
D16*
X135500000Y-87700000D03*
%TD*%
%TO.C,R7*%
X131850000Y-117937500D03*
D17*
X124230000Y-117937500D03*
%TD*%
D29*
%TO.C,TR1*%
X111360000Y-111947500D03*
X88500000Y-111947500D03*
X111360000Y-106867500D03*
X88500000Y-106867500D03*
X111360000Y-101787500D03*
X88500000Y-101787500D03*
X111360000Y-96707500D03*
X88500000Y-96707500D03*
X111360000Y-91627500D03*
X88500000Y-91627500D03*
X111360000Y-86547500D03*
X88500000Y-86547500D03*
X111360000Y-81467500D03*
X88500000Y-81467500D03*
%TD*%
D30*
%TO.C,J1*%
X127000000Y-141787500D03*
D31*
X127000000Y-135787500D03*
%TD*%
D32*
%TO.C,J2*%
X116800000Y-95700000D03*
%TD*%
D13*
%TO.C,RV1*%
X128100000Y-68815000D03*
X128100000Y-76185000D03*
%TD*%
D29*
%TO.C,TR2*%
X140690000Y-85997500D03*
X161010000Y-85997500D03*
X140690000Y-91077500D03*
X161010000Y-91077500D03*
X140690000Y-96157500D03*
X161010000Y-96157500D03*
X140690000Y-101237500D03*
X161010000Y-101237500D03*
X140690000Y-106317500D03*
X161010000Y-106317500D03*
X140690000Y-111397500D03*
X161010000Y-111397500D03*
X140690000Y-116477500D03*
X161010000Y-116477500D03*
%TD*%
D14*
%TO.C,H3*%
X119000000Y-124000000D03*
%TD*%
D24*
%TO.C,C1*%
X69122220Y-85200000D03*
D25*
X76622220Y-85200000D03*
%TD*%
D16*
%TO.C,C6*%
X141200000Y-126787500D03*
X141200000Y-121787500D03*
%TD*%
D33*
%TO.C,J3*%
X135500000Y-63100000D03*
D34*
X135500000Y-55300000D03*
X135500000Y-47500000D03*
%TD*%
D30*
%TO.C,CP5*%
X68700000Y-113400000D03*
D31*
X68700000Y-107400000D03*
%TD*%
D21*
%TO.C,R3*%
X106850000Y-53950000D03*
X109550000Y-46450000D03*
%TD*%
D35*
%TO.C,D4*%
X132095000Y-96500000D03*
D36*
X135905000Y-96500000D03*
%TD*%
D25*
%TO.C,Y1*%
X127300000Y-46200000D03*
X127300000Y-61200000D03*
%TD*%
D21*
%TO.C,R1*%
X119550000Y-53950000D03*
X122250000Y-46450000D03*
%TD*%
D37*
%TO.C,F1*%
X120500000Y-130537500D03*
D31*
X126500000Y-130537500D03*
%TD*%
D16*
%TO.C,R6*%
X124190000Y-123287500D03*
D17*
X131810000Y-123287500D03*
%TD*%
D38*
%TO.C,JP1*%
X118500000Y-118287500D03*
X118500000Y-115747500D03*
%TD*%
D39*
%TO.C,K1*%
X114300000Y-75000000D03*
D29*
X120350000Y-73050000D03*
D39*
X120350000Y-60850000D03*
X108300000Y-60800000D03*
D29*
X108350000Y-73050000D03*
%TD*%
D22*
%TO.C,D2*%
X146700000Y-128410000D03*
D23*
X146700000Y-120790000D03*
%TD*%
D21*
%TO.C,R2*%
X115950000Y-46450000D03*
X113250000Y-53950000D03*
%TD*%
D28*
%TO.C,C10*%
X126700000Y-90800000D03*
D16*
X123200000Y-90800000D03*
%TD*%
D40*
%TO.C,CP4*%
X97050000Y-99662500D03*
X97050000Y-101212500D03*
%TD*%
D41*
%TO.C,RP14*%
X85587500Y-134787500D03*
X87412500Y-134787500D03*
%TD*%
D42*
%TO.C,R18*%
X121462500Y-100137500D03*
X119637500Y-100137500D03*
%TD*%
D43*
%TO.C,RP11*%
X106000000Y-102200000D03*
X106000000Y-100375000D03*
%TD*%
D42*
%TO.C,RP4*%
X97212500Y-87000000D03*
X95387500Y-87000000D03*
%TD*%
D28*
%TO.C,U4*%
X154925000Y-89000000D03*
D17*
X157465000Y-89000000D03*
X157465000Y-96620000D03*
X154925000Y-96620000D03*
%TD*%
D44*
%TO.C,R5*%
X157700000Y-100987500D03*
X157700000Y-102812500D03*
%TD*%
D45*
%TO.C,RP17*%
X78800000Y-89637500D03*
X78800000Y-95562500D03*
%TD*%
D42*
%TO.C,R17*%
X119062500Y-107937500D03*
X117237500Y-107937500D03*
%TD*%
D44*
%TO.C,R15*%
X144300000Y-89187500D03*
X144300000Y-91012500D03*
%TD*%
D43*
%TO.C,R9*%
X152800000Y-109012500D03*
X152800000Y-107187500D03*
%TD*%
D44*
%TO.C,R14*%
X150000000Y-90887500D03*
X150000000Y-92712500D03*
%TD*%
%TO.C,RP1*%
X102450000Y-91525000D03*
X102450000Y-93350000D03*
%TD*%
%TO.C,RP8*%
X96250000Y-133875000D03*
X96250000Y-135700000D03*
%TD*%
D41*
%TO.C,RP9*%
X98087500Y-111787500D03*
X99912500Y-111787500D03*
%TD*%
D44*
%TO.C,RP5*%
X102000000Y-120875000D03*
X102000000Y-122700000D03*
%TD*%
D46*
%TO.C,C4*%
X151350000Y-113900000D03*
X154300000Y-113900000D03*
%TD*%
D47*
%TO.C,U1*%
X95745000Y-91562500D03*
X97015000Y-91562500D03*
X98285000Y-91562500D03*
X99555000Y-91562500D03*
X99555000Y-96712500D03*
X98285000Y-96712500D03*
X97015000Y-96712500D03*
X95745000Y-96712500D03*
%TD*%
D48*
%TO.C,C11*%
X122975000Y-110900000D03*
X121425000Y-110900000D03*
%TD*%
D42*
%TO.C,R13*%
X157512500Y-85600000D03*
X155687500Y-85600000D03*
%TD*%
D44*
%TO.C,RP3*%
X99550000Y-99425000D03*
X99550000Y-101250000D03*
%TD*%
%TO.C,RP16*%
X94000000Y-137375000D03*
X94000000Y-139200000D03*
%TD*%
D49*
%TO.C,L1*%
X129300000Y-87900000D03*
X127725000Y-87900000D03*
%TD*%
D50*
%TO.C,U2*%
X98512500Y-136787500D03*
X98512500Y-135837500D03*
X98512500Y-134887500D03*
X100787500Y-134887500D03*
X100787500Y-136787500D03*
%TD*%
D48*
%TO.C,C5*%
X158775000Y-110000000D03*
X157225000Y-110000000D03*
%TD*%
D44*
%TO.C,RP6*%
X102000000Y-125375000D03*
X102000000Y-127200000D03*
%TD*%
D51*
%TO.C,U3*%
X155250000Y-104862500D03*
X156200000Y-104862500D03*
X157150000Y-104862500D03*
X157150000Y-107137500D03*
X156200000Y-107137500D03*
X155250000Y-107137500D03*
%TD*%
D45*
%TO.C,RP2*%
X82800000Y-89637500D03*
X82800000Y-95562500D03*
%TD*%
D52*
%TO.C,U5*%
X150050000Y-88537500D03*
X148150000Y-88537500D03*
X149100000Y-86262500D03*
%TD*%
D43*
%TO.C,RP12*%
X106000000Y-95200000D03*
X106000000Y-93375000D03*
%TD*%
D44*
%TO.C,RP7*%
X102000000Y-130125000D03*
X102000000Y-131950000D03*
%TD*%
D48*
%TO.C,C7*%
X157675000Y-99300000D03*
X156125000Y-99300000D03*
%TD*%
D53*
%TO.C,R19*%
X160000000Y-132962500D03*
X160000000Y-127037500D03*
%TD*%
D40*
%TO.C,C2*%
X96150000Y-137562500D03*
X96150000Y-139112500D03*
%TD*%
D43*
%TO.C,R10*%
X157000000Y-114712500D03*
X157000000Y-112887500D03*
%TD*%
D44*
%TO.C,R11*%
X126000000Y-106387500D03*
X126000000Y-108212500D03*
%TD*%
D48*
%TO.C,CP1*%
X97125000Y-89037500D03*
X95575000Y-89037500D03*
%TD*%
D54*
%TO.C,CP2*%
X101650000Y-101112500D03*
X101650000Y-99562500D03*
%TD*%
D40*
%TO.C,C9*%
X146300000Y-89325000D03*
X146300000Y-90875000D03*
%TD*%
D41*
%TO.C,RP15*%
X90087500Y-134787500D03*
X91912500Y-134787500D03*
%TD*%
D55*
%TO.C,Q1*%
X119300000Y-105175000D03*
X117400000Y-105175000D03*
X118350000Y-103300000D03*
%TD*%
D40*
%TO.C,CP3*%
X101650000Y-96262500D03*
X101650000Y-97812500D03*
%TD*%
D42*
%TO.C,R12*%
X145912500Y-84400000D03*
X144087500Y-84400000D03*
%TD*%
D41*
%TO.C,RP13*%
X81087500Y-134787500D03*
X82912500Y-134787500D03*
%TD*%
D43*
%TO.C,RP10*%
X104500000Y-111700000D03*
X104500000Y-109875000D03*
%TD*%
M02*
