M48
; DRILL file {KiCad 7.0.6-7.0.6~ubuntu22.04.1} date Пн 24 июл 2023 12:55:09
; FORMAT={-:-/ absolute / inch / decimal}
; #@! TF.CreationDate,2023-07-24T12:55:09+03:00
; #@! TF.GenerationSoftware,Kicad,Pcbnew,7.0.6-7.0.6~ubuntu22.04.1
; #@! TF.FileFunction,Plated,1,2,PTH
FMAT,2
INCH
; #@! TA.AperFunction,Plated,PTH,ViaDrill
T1C0.0157
; #@! TA.AperFunction,Plated,PTH,ComponentDrill
T2C0.0315
; #@! TA.AperFunction,Plated,PTH,ComponentDrill
T3C0.0354
; #@! TA.AperFunction,Plated,PTH,ComponentDrill
T4C0.0394
; #@! TA.AperFunction,Plated,PTH,ComponentDrill
T5C0.0433
; #@! TA.AperFunction,Plated,PTH,ComponentDrill
T6C0.0472
; #@! TA.AperFunction,Plated,PTH,ComponentDrill
T7C0.0512
; #@! TA.AperFunction,Plated,PTH,ComponentDrill
T8C0.0551
; #@! TA.AperFunction,Plated,PTH,ComponentDrill
T9C0.0591
; #@! TA.AperFunction,Plated,PTH,ComponentDrill
T10C0.0630
; #@! TA.AperFunction,Plated,PTH,ComponentDrill
T11C0.0827
%
G90
G05
T1
X3.9311Y-3.9469
X4.0217Y-4.7028
X4.7244Y-4.2618
X6.8406Y-4.3602
X6.8996Y-4.3012
T2
X4.7736Y-4.6343
X4.7736Y-4.7343
X4.9114Y-4.4685
X4.9976Y-4.9311
X4.9992Y-4.7205
X5.0492Y-4.4685
X5.2305Y-4.4843
X5.2976Y-4.9311
X5.2992Y-4.7205
X5.3093Y-4.4843
X5.3778Y-3.5335
X5.5156Y-3.5335
X5.5217Y-4.8008
X5.5217Y-5.1008
X5.7283Y-4.872
X5.7283Y-5.0689
X6.7317Y-3.561
X6.7317Y-3.861
X6.8317Y-3.561
X6.8317Y-3.861
T3
X5.0388Y-3.5827
X5.1388Y-3.5827
X5.2465Y-4.1024
X5.3465Y-4.1024
T4
X4.3819Y-2.9252
X4.8543Y-2.9252
T5
X3.3738Y-3.8272
X3.3738Y-3.9272
X3.3738Y-4.0272
X3.5516Y-5.012
X3.7516Y-5.012
X5.4724Y-4.2669
X5.4724Y-4.5669
X5.9843Y-4.85
X5.9843Y-5.15
X6.7423Y-4.9118
X6.7423Y-5.0118
X6.7423Y-5.1118
T6
X2.8355Y-3.4449
X3.1308Y-3.4449
X4.3795Y-2.1457
X4.3898Y-1.639
X4.3898Y-1.939
X4.6795Y-2.1457
X4.8228Y-1.6394
X4.8228Y-1.9394
X5.0984Y-1.5945
X5.0984Y-2.185
X6.1904Y-5.4232
X6.4857Y-5.4232
T7
X4.3799Y-2.4429
X4.6161Y-3.002
X4.8543Y-2.4449
T8
X3.108Y-2.8127
X3.308Y-2.8127
X3.508Y-2.8127
X3.708Y-2.8127
X5.2657Y-2.7388
X5.2657Y-3.0289
T9
X2.7165Y-4.0354
T10
X3.5925Y-3.2846
X3.5925Y-3.4846
X3.5925Y-3.6846
X3.5925Y-3.8846
X3.5925Y-4.0846
X3.5925Y-4.2846
X3.5925Y-4.4846
X4.4925Y-3.2846
X4.4925Y-3.4846
X4.4925Y-3.6846
X4.4925Y-3.8846
X4.4925Y-4.0846
X4.4925Y-4.2846
X4.4925Y-4.4846
X5.3974Y-3.8386
X5.5474Y-3.8386
X5.7614Y-3.4669
X5.7614Y-3.6669
X5.7614Y-3.8669
X5.7614Y-4.0669
X5.7614Y-4.2669
X5.7614Y-4.4669
X5.7614Y-4.6669
X6.5614Y-3.4669
X6.5614Y-3.6669
X6.5614Y-3.8669
X6.5614Y-4.0669
X6.5614Y-4.2669
X6.5614Y-4.4669
X6.5614Y-4.6669
T11
X2.8642Y-4.311
X2.8642Y-4.5472
X4.7539Y-3.75
X4.8524Y-5.2165
X5.0886Y-5.2165
X5.1083Y-5.4232
X5.1083Y-5.6594
X5.4429Y-1.622
X5.4429Y-1.9291
X5.4429Y-2.2362
T0
M30
