%TF.GenerationSoftware,KiCad,Pcbnew,7.0.6-7.0.6~ubuntu22.04.1*%
%TF.CreationDate,2023-07-24T12:55:06+03:00*%
%TF.ProjectId,supply-uv,73757070-6c79-42d7-9576-2e6b69636164,rev?*%
%TF.SameCoordinates,Original*%
%TF.FileFunction,Paste,Bot*%
%TF.FilePolarity,Positive*%
%FSLAX46Y46*%
G04 Gerber Fmt 4.6, Leading zero omitted, Abs format (unit mm)*
G04 Created by KiCad (PCBNEW 7.0.6-7.0.6~ubuntu22.04.1) date 2023-07-24 12:55:06*
%MOMM*%
%LPD*%
G01*
G04 APERTURE LIST*
G04 Aperture macros list*
%AMRoundRect*
0 Rectangle with rounded corners*
0 $1 Rounding radius*
0 $2 $3 $4 $5 $6 $7 $8 $9 X,Y pos of 4 corners*
0 Add a 4 corners polygon primitive as box body*
4,1,4,$2,$3,$4,$5,$6,$7,$8,$9,$2,$3,0*
0 Add four circle primitives for the rounded corners*
1,1,$1+$1,$2,$3*
1,1,$1+$1,$4,$5*
1,1,$1+$1,$6,$7*
1,1,$1+$1,$8,$9*
0 Add four rect primitives between the rounded corners*
20,1,$1+$1,$2,$3,$4,$5,0*
20,1,$1+$1,$4,$5,$6,$7,0*
20,1,$1+$1,$6,$7,$8,$9,0*
20,1,$1+$1,$8,$9,$2,$3,0*%
G04 Aperture macros list end*
%ADD10RoundRect,0.225000X-0.250000X0.225000X-0.250000X-0.225000X0.250000X-0.225000X0.250000X0.225000X0*%
%ADD11RoundRect,0.250000X-0.262500X-0.450000X0.262500X-0.450000X0.262500X0.450000X-0.262500X0.450000X0*%
%ADD12RoundRect,0.250000X0.262500X0.450000X-0.262500X0.450000X-0.262500X-0.450000X0.262500X-0.450000X0*%
%ADD13RoundRect,0.250000X0.450000X-0.262500X0.450000X0.262500X-0.450000X0.262500X-0.450000X-0.262500X0*%
%ADD14RoundRect,0.250000X-0.450000X0.262500X-0.450000X-0.262500X0.450000X-0.262500X0.450000X0.262500X0*%
%ADD15RoundRect,0.150000X-0.150000X0.725000X-0.150000X-0.725000X0.150000X-0.725000X0.150000X0.725000X0*%
%ADD16RoundRect,0.218750X-0.218750X-0.256250X0.218750X-0.256250X0.218750X0.256250X-0.218750X0.256250X0*%
%ADD17RoundRect,0.150000X-0.512500X-0.150000X0.512500X-0.150000X0.512500X0.150000X-0.512500X0.150000X0*%
%ADD18RoundRect,0.250000X-1.425000X0.362500X-1.425000X-0.362500X1.425000X-0.362500X1.425000X0.362500X0*%
%ADD19RoundRect,0.150000X0.150000X-0.512500X0.150000X0.512500X-0.150000X0.512500X-0.150000X-0.512500X0*%
%ADD20RoundRect,0.225000X0.225000X0.250000X-0.225000X0.250000X-0.225000X-0.250000X0.225000X-0.250000X0*%
%ADD21RoundRect,0.225000X0.250000X-0.225000X0.250000X0.225000X-0.250000X0.225000X-0.250000X-0.225000X0*%
%ADD22RoundRect,0.150000X0.150000X-0.587500X0.150000X0.587500X-0.150000X0.587500X-0.150000X-0.587500X0*%
G04 APERTURE END LIST*
D10*
%TO.C,CP4*%
X99800000Y-101625000D03*
X99800000Y-103175000D03*
%TD*%
D11*
%TO.C,RP14*%
X88337500Y-136750000D03*
X90162500Y-136750000D03*
%TD*%
D12*
%TO.C,R18*%
X124212500Y-102100000D03*
X122387500Y-102100000D03*
%TD*%
D13*
%TO.C,RP11*%
X108750000Y-104162500D03*
X108750000Y-102337500D03*
%TD*%
D12*
%TO.C,RP4*%
X99912500Y-87900000D03*
X98087500Y-87900000D03*
%TD*%
%TO.C,R17*%
X121812500Y-109900000D03*
X119987500Y-109900000D03*
%TD*%
D14*
%TO.C,R15*%
X152200000Y-97587500D03*
X152200000Y-99412500D03*
%TD*%
D13*
%TO.C,R9*%
X172200000Y-115612500D03*
X172200000Y-113787500D03*
%TD*%
%TO.C,R14*%
X158800000Y-99312500D03*
X158800000Y-97487500D03*
%TD*%
D14*
%TO.C,RP1*%
X105200000Y-93487500D03*
X105200000Y-95312500D03*
%TD*%
%TO.C,RP8*%
X99000000Y-135837500D03*
X99000000Y-137662500D03*
%TD*%
D11*
%TO.C,RP9*%
X100837500Y-113750000D03*
X102662500Y-113750000D03*
%TD*%
D14*
%TO.C,RP5*%
X104750000Y-122837500D03*
X104750000Y-124662500D03*
%TD*%
D15*
%TO.C,U1*%
X98495000Y-93525000D03*
X99765000Y-93525000D03*
X101035000Y-93525000D03*
X102305000Y-93525000D03*
X102305000Y-98675000D03*
X101035000Y-98675000D03*
X99765000Y-98675000D03*
X98495000Y-98675000D03*
%TD*%
D10*
%TO.C,C11*%
X124300000Y-105525000D03*
X124300000Y-107075000D03*
%TD*%
D11*
%TO.C,R13*%
X171087500Y-87700000D03*
X172912500Y-87700000D03*
%TD*%
D14*
%TO.C,RP3*%
X102300000Y-101387500D03*
X102300000Y-103212500D03*
%TD*%
%TO.C,RP16*%
X96750000Y-139337500D03*
X96750000Y-141162500D03*
%TD*%
D16*
%TO.C,L1*%
X137512500Y-87700000D03*
X139087500Y-87700000D03*
%TD*%
D17*
%TO.C,U2*%
X101262500Y-138750000D03*
X101262500Y-137800000D03*
X101262500Y-136850000D03*
X103537500Y-136850000D03*
X103537500Y-138750000D03*
%TD*%
D14*
%TO.C,RP6*%
X104750000Y-127337500D03*
X104750000Y-129162500D03*
%TD*%
D18*
%TO.C,RP2*%
X84800000Y-88237500D03*
X84800000Y-94162500D03*
%TD*%
D19*
%TO.C,U5*%
X159150000Y-94437500D03*
X157250000Y-94437500D03*
X158200000Y-92162500D03*
%TD*%
D13*
%TO.C,RP12*%
X108750000Y-97162500D03*
X108750000Y-95337500D03*
%TD*%
D14*
%TO.C,RP7*%
X104750000Y-132087500D03*
X104750000Y-133912500D03*
%TD*%
D10*
%TO.C,C2*%
X98900000Y-139525000D03*
X98900000Y-141075000D03*
%TD*%
D13*
%TO.C,R11*%
X130800000Y-95312500D03*
X130800000Y-93487500D03*
%TD*%
D20*
%TO.C,CP1*%
X99875000Y-91000000D03*
X98325000Y-91000000D03*
%TD*%
D21*
%TO.C,CP2*%
X104400000Y-103075000D03*
X104400000Y-101525000D03*
%TD*%
D10*
%TO.C,C9*%
X155800000Y-97625000D03*
X155800000Y-99175000D03*
%TD*%
D11*
%TO.C,RP15*%
X92837500Y-136750000D03*
X94662500Y-136750000D03*
%TD*%
D22*
%TO.C,Q1*%
X122050000Y-107137500D03*
X120150000Y-107137500D03*
X121100000Y-105262500D03*
%TD*%
D10*
%TO.C,CP3*%
X104400000Y-98225000D03*
X104400000Y-99775000D03*
%TD*%
D12*
%TO.C,R12*%
X156812500Y-89800000D03*
X154987500Y-89800000D03*
%TD*%
D11*
%TO.C,RP13*%
X83837500Y-136750000D03*
X85662500Y-136750000D03*
%TD*%
D13*
%TO.C,RP10*%
X107250000Y-113662500D03*
X107250000Y-111837500D03*
%TD*%
M02*
