%TF.GenerationSoftware,KiCad,Pcbnew,8.0.1-8.0.1-1~ubuntu22.04.1*%
%TF.CreationDate,2024-04-06T20:35:09+03:00*%
%TF.ProjectId,supply-uv,73757070-6c79-42d7-9576-2e6b69636164,rev?*%
%TF.SameCoordinates,Original*%
%TF.FileFunction,Paste,Bot*%
%TF.FilePolarity,Positive*%
%FSLAX46Y46*%
G04 Gerber Fmt 4.6, Leading zero omitted, Abs format (unit mm)*
G04 Created by KiCad (PCBNEW 8.0.1-8.0.1-1~ubuntu22.04.1) date 2024-04-06 20:35:09*
%MOMM*%
%LPD*%
G01*
G04 APERTURE LIST*
G04 Aperture macros list*
%AMRoundRect*
0 Rectangle with rounded corners*
0 $1 Rounding radius*
0 $2 $3 $4 $5 $6 $7 $8 $9 X,Y pos of 4 corners*
0 Add a 4 corners polygon primitive as box body*
4,1,4,$2,$3,$4,$5,$6,$7,$8,$9,$2,$3,0*
0 Add four circle primitives for the rounded corners*
1,1,$1+$1,$2,$3*
1,1,$1+$1,$4,$5*
1,1,$1+$1,$6,$7*
1,1,$1+$1,$8,$9*
0 Add four rect primitives between the rounded corners*
20,1,$1+$1,$2,$3,$4,$5,0*
20,1,$1+$1,$4,$5,$6,$7,0*
20,1,$1+$1,$6,$7,$8,$9,0*
20,1,$1+$1,$8,$9,$2,$3,0*%
G04 Aperture macros list end*
%ADD10RoundRect,0.225000X-0.250000X0.225000X-0.250000X-0.225000X0.250000X-0.225000X0.250000X0.225000X0*%
%ADD11RoundRect,0.250000X-0.262500X-0.450000X0.262500X-0.450000X0.262500X0.450000X-0.262500X0.450000X0*%
%ADD12RoundRect,0.250000X0.262500X0.450000X-0.262500X0.450000X-0.262500X-0.450000X0.262500X-0.450000X0*%
%ADD13RoundRect,0.250000X0.450000X-0.262500X0.450000X0.262500X-0.450000X0.262500X-0.450000X-0.262500X0*%
%ADD14RoundRect,0.250000X-0.450000X0.262500X-0.450000X-0.262500X0.450000X-0.262500X0.450000X0.262500X0*%
%ADD15RoundRect,0.250000X-1.425000X0.362500X-1.425000X-0.362500X1.425000X-0.362500X1.425000X0.362500X0*%
%ADD16RoundRect,0.250000X-0.325000X-1.100000X0.325000X-1.100000X0.325000X1.100000X-0.325000X1.100000X0*%
%ADD17RoundRect,0.150000X-0.150000X0.725000X-0.150000X-0.725000X0.150000X-0.725000X0.150000X0.725000X0*%
%ADD18RoundRect,0.225000X0.225000X0.250000X-0.225000X0.250000X-0.225000X-0.250000X0.225000X-0.250000X0*%
%ADD19RoundRect,0.218750X0.218750X0.256250X-0.218750X0.256250X-0.218750X-0.256250X0.218750X-0.256250X0*%
%ADD20RoundRect,0.150000X-0.512500X-0.150000X0.512500X-0.150000X0.512500X0.150000X-0.512500X0.150000X0*%
%ADD21RoundRect,0.150000X-0.150000X0.512500X-0.150000X-0.512500X0.150000X-0.512500X0.150000X0.512500X0*%
%ADD22RoundRect,0.150000X0.150000X-0.512500X0.150000X0.512500X-0.150000X0.512500X-0.150000X-0.512500X0*%
%ADD23RoundRect,0.250000X1.425000X-0.362500X1.425000X0.362500X-1.425000X0.362500X-1.425000X-0.362500X0*%
%ADD24RoundRect,0.225000X0.250000X-0.225000X0.250000X0.225000X-0.250000X0.225000X-0.250000X-0.225000X0*%
%ADD25RoundRect,0.150000X0.150000X-0.587500X0.150000X0.587500X-0.150000X0.587500X-0.150000X-0.587500X0*%
G04 APERTURE END LIST*
D10*
%TO.C,CP4*%
X97050000Y-99662500D03*
X97050000Y-101212500D03*
%TD*%
D11*
%TO.C,RP14*%
X85587500Y-134787500D03*
X87412500Y-134787500D03*
%TD*%
D12*
%TO.C,R18*%
X121462500Y-100137500D03*
X119637500Y-100137500D03*
%TD*%
D13*
%TO.C,RP11*%
X106000000Y-102200000D03*
X106000000Y-100375000D03*
%TD*%
D12*
%TO.C,RP4*%
X97212500Y-87000000D03*
X95387500Y-87000000D03*
%TD*%
D14*
%TO.C,R5*%
X157700000Y-100987500D03*
X157700000Y-102812500D03*
%TD*%
D15*
%TO.C,RP17*%
X78800000Y-89637500D03*
X78800000Y-95562500D03*
%TD*%
D12*
%TO.C,R17*%
X119062500Y-107937500D03*
X117237500Y-107937500D03*
%TD*%
D14*
%TO.C,R15*%
X144300000Y-89187500D03*
X144300000Y-91012500D03*
%TD*%
D13*
%TO.C,R9*%
X152800000Y-109012500D03*
X152800000Y-107187500D03*
%TD*%
D14*
%TO.C,R14*%
X150000000Y-90887500D03*
X150000000Y-92712500D03*
%TD*%
%TO.C,RP1*%
X102450000Y-91525000D03*
X102450000Y-93350000D03*
%TD*%
%TO.C,RP8*%
X96250000Y-133875000D03*
X96250000Y-135700000D03*
%TD*%
D11*
%TO.C,RP9*%
X98087500Y-111787500D03*
X99912500Y-111787500D03*
%TD*%
D14*
%TO.C,RP5*%
X102000000Y-120875000D03*
X102000000Y-122700000D03*
%TD*%
D16*
%TO.C,C4*%
X151350000Y-113900000D03*
X154300000Y-113900000D03*
%TD*%
D17*
%TO.C,U1*%
X95745000Y-91562500D03*
X97015000Y-91562500D03*
X98285000Y-91562500D03*
X99555000Y-91562500D03*
X99555000Y-96712500D03*
X98285000Y-96712500D03*
X97015000Y-96712500D03*
X95745000Y-96712500D03*
%TD*%
D18*
%TO.C,C11*%
X122975000Y-110900000D03*
X121425000Y-110900000D03*
%TD*%
D12*
%TO.C,R13*%
X157512500Y-85600000D03*
X155687500Y-85600000D03*
%TD*%
D14*
%TO.C,RP3*%
X99550000Y-99425000D03*
X99550000Y-101250000D03*
%TD*%
%TO.C,RP16*%
X94000000Y-137375000D03*
X94000000Y-139200000D03*
%TD*%
D19*
%TO.C,L1*%
X129300000Y-87900000D03*
X127725000Y-87900000D03*
%TD*%
D20*
%TO.C,U2*%
X98512500Y-136787500D03*
X98512500Y-135837500D03*
X98512500Y-134887500D03*
X100787500Y-134887500D03*
X100787500Y-136787500D03*
%TD*%
D18*
%TO.C,C5*%
X158775000Y-110000000D03*
X157225000Y-110000000D03*
%TD*%
D14*
%TO.C,RP6*%
X102000000Y-125375000D03*
X102000000Y-127200000D03*
%TD*%
D21*
%TO.C,U3*%
X155250000Y-104862500D03*
X156200000Y-104862500D03*
X157150000Y-104862500D03*
X157150000Y-107137500D03*
X156200000Y-107137500D03*
X155250000Y-107137500D03*
%TD*%
D15*
%TO.C,RP2*%
X82800000Y-89637500D03*
X82800000Y-95562500D03*
%TD*%
D22*
%TO.C,U5*%
X150050000Y-88537500D03*
X148150000Y-88537500D03*
X149100000Y-86262500D03*
%TD*%
D13*
%TO.C,RP12*%
X106000000Y-95200000D03*
X106000000Y-93375000D03*
%TD*%
D14*
%TO.C,RP7*%
X102000000Y-130125000D03*
X102000000Y-131950000D03*
%TD*%
D18*
%TO.C,C7*%
X157675000Y-99300000D03*
X156125000Y-99300000D03*
%TD*%
D23*
%TO.C,R19*%
X160000000Y-132962500D03*
X160000000Y-127037500D03*
%TD*%
D10*
%TO.C,C2*%
X96150000Y-137562500D03*
X96150000Y-139112500D03*
%TD*%
D13*
%TO.C,R10*%
X157000000Y-114712500D03*
X157000000Y-112887500D03*
%TD*%
D14*
%TO.C,R11*%
X126000000Y-106387500D03*
X126000000Y-108212500D03*
%TD*%
D18*
%TO.C,CP1*%
X97125000Y-89037500D03*
X95575000Y-89037500D03*
%TD*%
D24*
%TO.C,CP2*%
X101650000Y-101112500D03*
X101650000Y-99562500D03*
%TD*%
D10*
%TO.C,C9*%
X146300000Y-89325000D03*
X146300000Y-90875000D03*
%TD*%
D11*
%TO.C,RP15*%
X90087500Y-134787500D03*
X91912500Y-134787500D03*
%TD*%
D25*
%TO.C,Q1*%
X119300000Y-105175000D03*
X117400000Y-105175000D03*
X118350000Y-103300000D03*
%TD*%
D10*
%TO.C,CP3*%
X101650000Y-96262500D03*
X101650000Y-97812500D03*
%TD*%
D12*
%TO.C,R12*%
X145912500Y-84400000D03*
X144087500Y-84400000D03*
%TD*%
D11*
%TO.C,RP13*%
X81087500Y-134787500D03*
X82912500Y-134787500D03*
%TD*%
D13*
%TO.C,RP10*%
X104500000Y-111700000D03*
X104500000Y-109875000D03*
%TD*%
M02*
