%TF.GenerationSoftware,KiCad,Pcbnew,7.0.6-7.0.6~ubuntu22.04.1*%
%TF.CreationDate,2023-07-24T12:55:05+03:00*%
%TF.ProjectId,supply-uv,73757070-6c79-42d7-9576-2e6b69636164,rev?*%
%TF.SameCoordinates,Original*%
%TF.FileFunction,Copper,L1,Top*%
%TF.FilePolarity,Positive*%
%FSLAX46Y46*%
G04 Gerber Fmt 4.6, Leading zero omitted, Abs format (unit mm)*
G04 Created by KiCad (PCBNEW 7.0.6-7.0.6~ubuntu22.04.1) date 2023-07-24 12:55:05*
%MOMM*%
%LPD*%
G01*
G04 APERTURE LIST*
G04 Aperture macros list*
%AMRoundRect*
0 Rectangle with rounded corners*
0 $1 Rounding radius*
0 $2 $3 $4 $5 $6 $7 $8 $9 X,Y pos of 4 corners*
0 Add a 4 corners polygon primitive as box body*
4,1,4,$2,$3,$4,$5,$6,$7,$8,$9,$2,$3,0*
0 Add four circle primitives for the rounded corners*
1,1,$1+$1,$2,$3*
1,1,$1+$1,$4,$5*
1,1,$1+$1,$6,$7*
1,1,$1+$1,$8,$9*
0 Add four rect primitives between the rounded corners*
20,1,$1+$1,$2,$3,$4,$5,0*
20,1,$1+$1,$4,$5,$6,$7,0*
20,1,$1+$1,$6,$7,$8,$9,0*
20,1,$1+$1,$8,$9,$2,$3,0*%
%AMFreePoly0*
4,1,6,1.000000,0.000000,0.500000,-0.750000,-0.500000,-0.750000,-0.500000,0.750000,0.500000,0.750000,1.000000,0.000000,1.000000,0.000000,$1*%
%AMFreePoly1*
4,1,6,0.500000,-0.750000,-0.650000,-0.750000,-0.150000,0.000000,-0.650000,0.750000,0.500000,0.750000,0.500000,-0.750000,0.500000,-0.750000,$1*%
G04 Aperture macros list end*
%TA.AperFunction,SMDPad,CuDef*%
%ADD10FreePoly0,180.000000*%
%TD*%
%TA.AperFunction,SMDPad,CuDef*%
%ADD11FreePoly1,180.000000*%
%TD*%
%TA.AperFunction,ComponentPad*%
%ADD12R,1.600000X1.600000*%
%TD*%
%TA.AperFunction,ComponentPad*%
%ADD13C,1.600000*%
%TD*%
%TA.AperFunction,ComponentPad*%
%ADD14R,2.000000X1.905000*%
%TD*%
%TA.AperFunction,ComponentPad*%
%ADD15O,2.000000X1.905000*%
%TD*%
%TA.AperFunction,SMDPad,CuDef*%
%ADD16RoundRect,0.250000X-0.450000X0.262500X-0.450000X-0.262500X0.450000X-0.262500X0.450000X0.262500X0*%
%TD*%
%TA.AperFunction,ComponentPad*%
%ADD17O,1.600000X1.600000*%
%TD*%
%TA.AperFunction,ComponentPad*%
%ADD18R,2.800000X2.800000*%
%TD*%
%TA.AperFunction,ComponentPad*%
%ADD19C,2.800000*%
%TD*%
%TA.AperFunction,ComponentPad*%
%ADD20R,3.000000X3.000000*%
%TD*%
%TA.AperFunction,SMDPad,CuDef*%
%ADD21R,2.000000X2.000000*%
%TD*%
%TA.AperFunction,ComponentPad*%
%ADD22R,2.000000X2.000000*%
%TD*%
%TA.AperFunction,ComponentPad*%
%ADD23O,2.000000X2.000000*%
%TD*%
%TA.AperFunction,ComponentPad*%
%ADD24R,1.800000X1.800000*%
%TD*%
%TA.AperFunction,ComponentPad*%
%ADD25C,1.800000*%
%TD*%
%TA.AperFunction,ComponentPad*%
%ADD26R,2.200000X2.200000*%
%TD*%
%TA.AperFunction,ComponentPad*%
%ADD27O,2.200000X2.200000*%
%TD*%
%TA.AperFunction,ComponentPad*%
%ADD28R,2.400000X2.400000*%
%TD*%
%TA.AperFunction,ComponentPad*%
%ADD29C,2.400000*%
%TD*%
%TA.AperFunction,ComponentPad*%
%ADD30C,2.500000*%
%TD*%
%TA.AperFunction,ComponentPad*%
%ADD31RoundRect,0.249999X1.300001X-1.300001X1.300001X1.300001X-1.300001X1.300001X-1.300001X-1.300001X0*%
%TD*%
%TA.AperFunction,ComponentPad*%
%ADD32C,3.100000*%
%TD*%
%TA.AperFunction,SMDPad,CuDef*%
%ADD33RoundRect,0.225000X0.225000X0.250000X-0.225000X0.250000X-0.225000X-0.250000X0.225000X-0.250000X0*%
%TD*%
%TA.AperFunction,ComponentPad*%
%ADD34RoundRect,0.250002X-1.699998X-1.699998X1.699998X-1.699998X1.699998X1.699998X-1.699998X1.699998X0*%
%TD*%
%TA.AperFunction,SMDPad,CuDef*%
%ADD35RoundRect,0.150000X-0.150000X0.512500X-0.150000X-0.512500X0.150000X-0.512500X0.150000X0.512500X0*%
%TD*%
%TA.AperFunction,ComponentPad*%
%ADD36RoundRect,0.250002X1.699998X-1.699998X1.699998X1.699998X-1.699998X1.699998X-1.699998X-1.699998X0*%
%TD*%
%TA.AperFunction,ComponentPad*%
%ADD37C,3.900000*%
%TD*%
%TA.AperFunction,ComponentPad*%
%ADD38O,2.400000X2.400000*%
%TD*%
%TA.AperFunction,ComponentPad*%
%ADD39R,3.200000X3.200000*%
%TD*%
%TA.AperFunction,ComponentPad*%
%ADD40O,3.200000X3.200000*%
%TD*%
%TA.AperFunction,SMDPad,CuDef*%
%ADD41RoundRect,0.250000X0.450000X-0.262500X0.450000X0.262500X-0.450000X0.262500X-0.450000X-0.262500X0*%
%TD*%
%TA.AperFunction,SMDPad,CuDef*%
%ADD42RoundRect,0.225000X-0.225000X-0.250000X0.225000X-0.250000X0.225000X0.250000X-0.225000X0.250000X0*%
%TD*%
%TA.AperFunction,ComponentPad*%
%ADD43RoundRect,0.249999X-1.300001X-1.300001X1.300001X-1.300001X1.300001X1.300001X-1.300001X1.300001X0*%
%TD*%
%TA.AperFunction,SMDPad,CuDef*%
%ADD44RoundRect,0.250000X0.262500X0.450000X-0.262500X0.450000X-0.262500X-0.450000X0.262500X-0.450000X0*%
%TD*%
%TA.AperFunction,ComponentPad*%
%ADD45C,1.400000*%
%TD*%
%TA.AperFunction,ComponentPad*%
%ADD46C,3.000000*%
%TD*%
%TA.AperFunction,ViaPad*%
%ADD47C,0.800000*%
%TD*%
%TA.AperFunction,Conductor*%
%ADD48C,3.000000*%
%TD*%
%TA.AperFunction,Conductor*%
%ADD49C,0.500000*%
%TD*%
%TA.AperFunction,Conductor*%
%ADD50C,1.000000*%
%TD*%
%TA.AperFunction,Conductor*%
%ADD51C,2.000000*%
%TD*%
%TA.AperFunction,Conductor*%
%ADD52C,2.500000*%
%TD*%
G04 APERTURE END LIST*
D10*
%TO.P,JP2,1,A*%
%TO.N,Net-(D6-A)*%
X129525000Y-104300000D03*
D11*
%TO.P,JP2,2,B*%
%TO.N,/Input power with filter/PFC_VCC*%
X128075000Y-104300000D03*
%TD*%
D12*
%TO.P,C4,1*%
%TO.N,Net-(D3-K)*%
X134855113Y-113900000D03*
D13*
%TO.P,C4,2*%
%TO.N,/Input power with filter/HV_GND*%
X132855113Y-113900000D03*
%TD*%
D14*
%TO.P,QP2,1,G*%
%TO.N,Net-(QP2-G)*%
X171255000Y-124760000D03*
D15*
%TO.P,QP2,2,D*%
%TO.N,Net-(D2-A)*%
X171255000Y-127300000D03*
%TO.P,QP2,3,S*%
%TO.N,/Input power with filter/HV_GND*%
X171255000Y-129840000D03*
%TD*%
D16*
%TO.P,R4,1*%
%TO.N,Net-(K1-Pad5)*%
X106750000Y-75337500D03*
%TO.P,R4,2*%
%TO.N,/Input power with filter/PFC_VCC*%
X106750000Y-77162500D03*
%TD*%
D12*
%TO.P,U4,1*%
%TO.N,Net-(R12-Pad1)*%
X173525000Y-90450000D03*
D17*
%TO.P,U4,2*%
%TO.N,Net-(U5-K)*%
X170985000Y-90450000D03*
%TO.P,U4,3*%
%TO.N,/Input power with filter/HV_GND*%
X170985000Y-98070000D03*
%TO.P,U4,4*%
%TO.N,/Standby Supply/FEEDBACK*%
X173525000Y-98070000D03*
%TD*%
D18*
%TO.P,D1,1,+*%
%TO.N,/Input power with filter/VOUT_PRE_PFC*%
X78942500Y-71442500D03*
D19*
%TO.P,D1,2*%
%TO.N,Net-(J3-Pin_1)*%
X84022500Y-71442500D03*
%TO.P,D1,3*%
%TO.N,/Input power with filter/STARTUP_PROTECT_OUT*%
X89102500Y-71442500D03*
%TO.P,D1,4,-*%
%TO.N,/Input power with filter/VOUT_PRE_GND*%
X94182500Y-71442500D03*
%TD*%
D16*
%TO.P,R5,1*%
%TO.N,/Input power with filter/HV_GND*%
X171200000Y-102587500D03*
%TO.P,R5,2*%
%TO.N,Net-(U3-RT)*%
X171200000Y-104412500D03*
%TD*%
D20*
%TO.P,TP1,1,1*%
%TO.N,/Input power with filter/HV_GND*%
X69000000Y-102500000D03*
%TD*%
D13*
%TO.P,R8,1*%
%TO.N,Net-(D2-K)*%
X140250000Y-129560000D03*
D17*
%TO.P,R8,2*%
%TO.N,/Input power with filter/OUT_400V*%
X140250000Y-121940000D03*
%TD*%
D21*
%TO.P,TP2,1,1*%
%TO.N,/Input power with filter/OUT_400V*%
X124500000Y-137000000D03*
%TD*%
D22*
%TO.P,DP1,1,K*%
%TO.N,Net-(DP1-K)*%
X95290000Y-127305000D03*
D23*
%TO.P,DP1,2,A*%
%TO.N,Net-(DP1-A)*%
X90210000Y-127305000D03*
%TD*%
D24*
%TO.P,D6,1,K*%
%TO.N,Net-(D6-K)*%
X135800000Y-104200000D03*
D25*
%TO.P,D6,2,A*%
%TO.N,Net-(D6-A)*%
X133260000Y-104200000D03*
%TD*%
D24*
%TO.P,D5,1,K*%
%TO.N,Net-(D5-K)*%
X130525000Y-91000000D03*
D25*
%TO.P,D5,2,A*%
%TO.N,/Standby Supply/V_STANDBY*%
X127985000Y-91000000D03*
%TD*%
D26*
%TO.P,D3,1,K*%
%TO.N,Net-(D3-K)*%
X139000000Y-116000000D03*
D27*
%TO.P,D3,2,A*%
%TO.N,Net-(D3-A)*%
X139000000Y-108380000D03*
%TD*%
D28*
%TO.P,C3,1*%
%TO.N,/Input power with filter/OUT_400V*%
X157237246Y-137750000D03*
D29*
%TO.P,C3,2*%
%TO.N,/Input power with filter/HV_GND*%
X164737246Y-137750000D03*
%TD*%
D14*
%TO.P,QP1,1,G*%
%TO.N,Net-(QP1-G)*%
X85695000Y-102290000D03*
D15*
%TO.P,QP1,2,D*%
%TO.N,Net-(DP1-A)*%
X85695000Y-99750000D03*
%TO.P,QP1,3,S*%
%TO.N,/Input power with filter/HV_GND*%
X85695000Y-97210000D03*
%TD*%
D12*
%TO.P,C8,1*%
%TO.N,Net-(D4-K)*%
X136597349Y-89750000D03*
D13*
%TO.P,C8,2*%
%TO.N,/Input power with filter/HV_GND*%
X140097349Y-89750000D03*
%TD*%
%TO.P,R7,1*%
%TO.N,Net-(D3-K)*%
X134600000Y-119900000D03*
D17*
%TO.P,R7,2*%
%TO.N,Net-(R6-Pad1)*%
X126980000Y-119900000D03*
%TD*%
D30*
%TO.P,TR1,1*%
%TO.N,N/C*%
X114110000Y-113910000D03*
%TO.P,TR1,2,2*%
%TO.N,Net-(DP1-A)*%
X91250000Y-113910000D03*
%TO.P,TR1,3*%
%TO.N,N/C*%
X114110000Y-108830000D03*
%TO.P,TR1,4,4*%
%TO.N,Net-(DP1-A)*%
X91250000Y-108830000D03*
%TO.P,TR1,5*%
%TO.N,N/C*%
X114110000Y-103750000D03*
%TO.P,TR1,6*%
X91250000Y-103750000D03*
%TO.P,TR1,7*%
X114110000Y-98670000D03*
%TO.P,TR1,8*%
X91250000Y-98670000D03*
%TO.P,TR1,9*%
X114110000Y-93590000D03*
%TO.P,TR1,10*%
X91250000Y-93590000D03*
%TO.P,TR1,11*%
X114110000Y-88510000D03*
%TO.P,TR1,12,12*%
%TO.N,/Input power with filter/VOUT_PRE_PFC*%
X91250000Y-88510000D03*
%TO.P,TR1,13*%
%TO.N,N/C*%
X114110000Y-83430000D03*
%TO.P,TR1,14,14*%
%TO.N,/Input power with filter/VOUT_PRE_PFC*%
X91250000Y-83430000D03*
%TD*%
D31*
%TO.P,J1,1,Pin_1*%
%TO.N,/Input power with filter/HV_GND*%
X129750000Y-143750000D03*
D32*
%TO.P,J1,2,Pin_2*%
%TO.N,/Input power with filter/OUT_400V*%
X129750000Y-137750000D03*
%TD*%
D33*
%TO.P,C5,1*%
%TO.N,/Input power with filter/HV_GND*%
X172975000Y-115200000D03*
%TO.P,C5,2*%
%TO.N,Net-(U3-CS)*%
X171425000Y-115200000D03*
%TD*%
D34*
%TO.P,J2,1,Pin_1*%
%TO.N,/Standby Supply/V_STANDBY*%
X120750000Y-95250000D03*
%TD*%
D19*
%TO.P,RV1,1*%
%TO.N,Net-(J3-Pin_1)*%
X133750000Y-69565000D03*
%TO.P,RV1,2*%
%TO.N,/Input power with filter/STARTUP_PROTECT_IN*%
X133750000Y-76935000D03*
%TD*%
D30*
%TO.P,TR2,1*%
%TO.N,N/C*%
X146340000Y-88060000D03*
%TO.P,TR2,2*%
X166660000Y-88060000D03*
%TO.P,TR2,3,3*%
%TO.N,/Input power with filter/HV_GND*%
X146340000Y-93140000D03*
%TO.P,TR2,4*%
%TO.N,N/C*%
X166660000Y-93140000D03*
%TO.P,TR2,5,5*%
%TO.N,Net-(D4-A)*%
X146340000Y-98220000D03*
%TO.P,TR2,6*%
%TO.N,N/C*%
X166660000Y-98220000D03*
%TO.P,TR2,7,7*%
%TO.N,/Input power with filter/HV_GND*%
X146340000Y-103300000D03*
%TO.P,TR2,8*%
%TO.N,N/C*%
X166660000Y-103300000D03*
%TO.P,TR2,9,9*%
%TO.N,Net-(D3-A)*%
X146340000Y-108380000D03*
%TO.P,TR2,10*%
%TO.N,N/C*%
X166660000Y-108380000D03*
%TO.P,TR2,11,11*%
%TO.N,Net-(D2-A)*%
X146340000Y-113460000D03*
%TO.P,TR2,12*%
%TO.N,N/C*%
X166660000Y-113460000D03*
%TO.P,TR2,13,13*%
%TO.N,/Input power with filter/OUT_400V*%
X146340000Y-118540000D03*
%TO.P,TR2,14*%
%TO.N,N/C*%
X166660000Y-118540000D03*
%TD*%
D28*
%TO.P,C1,1*%
%TO.N,/Input power with filter/VOUT_PRE_PFC*%
X72022220Y-87500000D03*
D29*
%TO.P,C1,2*%
%TO.N,/Input power with filter/VOUT_PRE_GND*%
X79522220Y-87500000D03*
%TD*%
D35*
%TO.P,U3,1,GND*%
%TO.N,/Input power with filter/HV_GND*%
X173650000Y-106462500D03*
%TO.P,U3,2,COMP*%
%TO.N,/Standby Supply/FEEDBACK*%
X172700000Y-106462500D03*
%TO.P,U3,3,RT*%
%TO.N,Net-(U3-RT)*%
X171750000Y-106462500D03*
%TO.P,U3,4,CS*%
%TO.N,Net-(U3-CS)*%
X171750000Y-108737500D03*
%TO.P,U3,5,VDD*%
%TO.N,Net-(D3-K)*%
X172700000Y-108737500D03*
%TO.P,U3,6,GATE*%
%TO.N,Net-(U3-GATE)*%
X173650000Y-108737500D03*
%TD*%
D13*
%TO.P,C6,1*%
%TO.N,Net-(D2-K)*%
X145500000Y-128750000D03*
%TO.P,C6,2*%
%TO.N,/Input power with filter/OUT_400V*%
X145500000Y-123750000D03*
%TD*%
D36*
%TO.P,J3,1,Pin_1*%
%TO.N,Net-(J3-Pin_1)*%
X138250000Y-56800000D03*
D37*
%TO.P,J3,2,Pin_2*%
%TO.N,/Input power with filter/STARTUP_PROTECT_IN*%
X138250000Y-49000000D03*
%TO.P,J3,3,Pin_3*%
%TO.N,Net-(J3-Pin_3)*%
X138250000Y-41200000D03*
%TD*%
D31*
%TO.P,CP5,1*%
%TO.N,Net-(DP1-K)*%
X72750000Y-115500000D03*
D32*
%TO.P,CP5,2*%
%TO.N,/Input power with filter/HV_GND*%
X72750000Y-109500000D03*
%TD*%
D29*
%TO.P,R3,1*%
%TO.N,Net-(R2-Pad2)*%
X111240000Y-54500000D03*
D38*
%TO.P,R3,2*%
%TO.N,/Input power with filter/STARTUP_PROTECT_OUT*%
X118860000Y-54500000D03*
%TD*%
D39*
%TO.P,D4,1,K*%
%TO.N,Net-(D4-K)*%
X137095000Y-97500000D03*
D40*
%TO.P,D4,2,A*%
%TO.N,Net-(D4-A)*%
X140905000Y-97500000D03*
%TD*%
D29*
%TO.P,Y1,1*%
%TO.N,Net-(J3-Pin_3)*%
X129500000Y-40500000D03*
%TO.P,Y1,2*%
%TO.N,/Input power with filter/VOUT_PRE_GND*%
X129500000Y-55500000D03*
%TD*%
D41*
%TO.P,R16,1*%
%TO.N,/Input power with filter/HV_GND*%
X132800000Y-109412500D03*
%TO.P,R16,2*%
%TO.N,Net-(D6-K)*%
X132800000Y-107587500D03*
%TD*%
D29*
%TO.P,R1,1*%
%TO.N,/Input power with filter/STARTUP_PROTECT_IN*%
X122500000Y-49260000D03*
D38*
%TO.P,R1,2*%
%TO.N,Net-(R1-Pad2)*%
X122500000Y-41640000D03*
%TD*%
D42*
%TO.P,C7,1*%
%TO.N,/Input power with filter/HV_GND*%
X171225000Y-100900000D03*
%TO.P,C7,2*%
%TO.N,/Standby Supply/FEEDBACK*%
X172775000Y-100900000D03*
%TD*%
D43*
%TO.P,F1,1*%
%TO.N,Net-(DP1-K)*%
X123250000Y-132500000D03*
D32*
%TO.P,F1,2*%
%TO.N,/Input power with filter/OUT_400V*%
X129250000Y-132500000D03*
%TD*%
D13*
%TO.P,R6,1*%
%TO.N,Net-(R6-Pad1)*%
X126940000Y-125250000D03*
D17*
%TO.P,R6,2*%
%TO.N,/Input power with filter/OUT_400V*%
X134560000Y-125250000D03*
%TD*%
D44*
%TO.P,R10,1*%
%TO.N,/Input power with filter/HV_GND*%
X173112500Y-112800000D03*
%TO.P,R10,2*%
%TO.N,Net-(U3-CS)*%
X171287500Y-112800000D03*
%TD*%
D45*
%TO.P,JP1,1,A*%
%TO.N,/Input power with filter/PFC_OK#*%
X121250000Y-120250000D03*
%TO.P,JP1,2,B*%
%TO.N,Net-(JP1-B)*%
X121250000Y-117710000D03*
%TD*%
D46*
%TO.P,K1,1*%
%TO.N,/Input power with filter/STARTUP_PROTECT_IN*%
X117250000Y-76250000D03*
D30*
%TO.P,K1,2*%
%TO.N,/Input power with filter/HV_GND*%
X123300000Y-74300000D03*
D46*
%TO.P,K1,3*%
%TO.N,/Input power with filter/STARTUP_PROTECT_OUT*%
X123300000Y-62100000D03*
%TO.P,K1,4*%
%TO.N,unconnected-(K1-Pad4)*%
X111250000Y-62050000D03*
D30*
%TO.P,K1,5*%
%TO.N,Net-(K1-Pad5)*%
X111300000Y-74300000D03*
%TD*%
D26*
%TO.P,D2,1,K*%
%TO.N,Net-(D2-K)*%
X152000000Y-130810000D03*
D27*
%TO.P,D2,2,A*%
%TO.N,Net-(D2-A)*%
X152000000Y-123190000D03*
%TD*%
D29*
%TO.P,R2,1*%
%TO.N,Net-(R1-Pad2)*%
X111500000Y-41630000D03*
D38*
%TO.P,R2,2*%
%TO.N,Net-(R2-Pad2)*%
X111500000Y-49250000D03*
%TD*%
D12*
%TO.P,C10,1*%
%TO.N,Net-(D6-A)*%
X128250000Y-113500000D03*
D13*
%TO.P,C10,2*%
%TO.N,/Input power with filter/HV_GND*%
X124750000Y-113500000D03*
%TD*%
D47*
%TO.N,/Input power with filter/VOUT_PRE_PFC*%
X102150000Y-119450000D03*
%TO.N,/Input power with filter/HV_GND*%
X175250000Y-109250000D03*
%TO.N,/Input power with filter/PFC_VCC*%
X99850000Y-100250000D03*
X120000000Y-108250000D03*
%TO.N,Net-(U3-GATE)*%
X173750000Y-110750000D03*
%TD*%
D48*
%TO.N,/Input power with filter/VOUT_PRE_PFC*%
X78257500Y-75492500D02*
X72000000Y-81750000D01*
D49*
X102150000Y-119450000D02*
X95800000Y-113100000D01*
D48*
X91320000Y-83510000D02*
X91320000Y-88590000D01*
X87010000Y-83510000D02*
X78992500Y-75492500D01*
D49*
X95800000Y-113100000D02*
X95800000Y-92700000D01*
D48*
X78992500Y-75492500D02*
X78992500Y-71492500D01*
X91320000Y-83510000D02*
X87010000Y-83510000D01*
D49*
X95800000Y-92700000D02*
X94700000Y-91600000D01*
D48*
X72000000Y-81750000D02*
X72000000Y-87250000D01*
D49*
X76350000Y-91600000D02*
X72000000Y-87250000D01*
X94700000Y-91600000D02*
X76350000Y-91600000D01*
D50*
%TO.N,/Input power with filter/VOUT_PRE_GND*%
X127400000Y-57100000D02*
X128750000Y-55750000D01*
X119100000Y-71700000D02*
X127400000Y-63400000D01*
X94240000Y-71700000D02*
X119100000Y-71700000D01*
X127400000Y-63400000D02*
X127400000Y-57100000D01*
D49*
%TO.N,/Input power with filter/HV_GND*%
X175250000Y-110962500D02*
X173162500Y-113050000D01*
X173750000Y-95750000D02*
X171750000Y-95750000D01*
X171250000Y-100750000D02*
X171250000Y-98335000D01*
X173700000Y-106412500D02*
X173700000Y-102800000D01*
X173700000Y-106412500D02*
X175250000Y-107962500D01*
D48*
X69670000Y-109330000D02*
X67750000Y-111250000D01*
X72750000Y-109330000D02*
X69670000Y-109330000D01*
D49*
X175250000Y-107962500D02*
X175250000Y-110962500D01*
X170985000Y-96515000D02*
X170985000Y-98070000D01*
D48*
X67750000Y-137000000D02*
X74500000Y-143750000D01*
D50*
X149500000Y-100800000D02*
X146950000Y-103350000D01*
X146215000Y-93190000D02*
X142940000Y-93190000D01*
D49*
X132705113Y-109457387D02*
X132705113Y-114000000D01*
D50*
X146890000Y-93190000D02*
X149500000Y-95800000D01*
D49*
X173700000Y-102800000D02*
X175250000Y-101250000D01*
X171750000Y-95750000D02*
X170985000Y-96515000D01*
X171250000Y-100750000D02*
X171250000Y-102425000D01*
X173025000Y-115250000D02*
X173025000Y-113187500D01*
X175250000Y-101250000D02*
X175250000Y-97250000D01*
D50*
X142940000Y-93190000D02*
X139750000Y-90000000D01*
D49*
X175250000Y-97250000D02*
X173750000Y-95750000D01*
D48*
X67750000Y-111250000D02*
X67750000Y-137000000D01*
X74500000Y-143750000D02*
X129500000Y-143750000D01*
D50*
X149500000Y-95800000D02*
X149500000Y-100800000D01*
D48*
%TO.N,/Input power with filter/OUT_400V*%
X129500000Y-132700000D02*
X129150000Y-132350000D01*
D51*
X143690000Y-121940000D02*
X143690000Y-121115000D01*
X143690000Y-121115000D02*
X146215000Y-118590000D01*
X136940000Y-125250000D02*
X140250000Y-121940000D01*
X134560000Y-129190000D02*
X131500000Y-132250000D01*
X140250000Y-121940000D02*
X143690000Y-121940000D01*
X143690000Y-121940000D02*
X145500000Y-123750000D01*
D49*
X128750000Y-137000000D02*
X124000000Y-137000000D01*
D51*
X134560000Y-125250000D02*
X136940000Y-125250000D01*
X134560000Y-125250000D02*
X134560000Y-129190000D01*
D48*
X129500000Y-137750000D02*
X157237246Y-137750000D01*
X129500000Y-137750000D02*
X129500000Y-132700000D01*
D51*
X131500000Y-132250000D02*
X129435000Y-132250000D01*
D49*
%TO.N,Net-(D3-K)*%
X172198528Y-107575000D02*
X170425000Y-107575000D01*
D50*
X135060000Y-119750000D02*
X139000000Y-115810000D01*
X134575000Y-119750000D02*
X135060000Y-119750000D01*
D49*
X172750000Y-108687500D02*
X172750000Y-108126472D01*
X135250000Y-109747968D02*
X135250000Y-113455113D01*
X172750000Y-108126472D02*
X172198528Y-107575000D01*
D50*
X136515113Y-115810000D02*
X134705113Y-114000000D01*
X139000000Y-115810000D02*
X136515113Y-115810000D01*
D49*
X138497968Y-106500000D02*
X135250000Y-109747968D01*
X169350000Y-106500000D02*
X138497968Y-106500000D01*
X170425000Y-107575000D02*
X169350000Y-106500000D01*
%TO.N,Net-(U3-CS)*%
X171337500Y-113050000D02*
X171337500Y-115112500D01*
X171800000Y-112587500D02*
X171337500Y-113050000D01*
X171800000Y-108687500D02*
X171800000Y-112587500D01*
D51*
%TO.N,Net-(D2-K)*%
X147560000Y-130810000D02*
X152000000Y-130810000D01*
X144690000Y-129560000D02*
X145500000Y-128750000D01*
X145500000Y-128750000D02*
X147560000Y-130810000D01*
X140250000Y-129560000D02*
X144690000Y-129560000D01*
D49*
%TO.N,/Standby Supply/FEEDBACK*%
X172750000Y-106412500D02*
X172750000Y-100800000D01*
X172800000Y-100750000D02*
X172800000Y-98795000D01*
X172800000Y-98795000D02*
X173525000Y-98070000D01*
%TO.N,Net-(D4-K)*%
X136250000Y-97750000D02*
X136250000Y-90000000D01*
%TO.N,Net-(D6-A)*%
X129475000Y-104250000D02*
X133310000Y-104250000D01*
X129475000Y-112025000D02*
X128000000Y-113500000D01*
X129475000Y-104250000D02*
X129475000Y-112025000D01*
%TO.N,/Input power with filter/PFC_VCC*%
X106300000Y-106400000D02*
X116400000Y-106400000D01*
X118250000Y-108250000D02*
X120000000Y-108250000D01*
X110850000Y-87850000D02*
X110850000Y-99650000D01*
X100150000Y-100250000D02*
X106300000Y-106400000D01*
X122260052Y-101400000D02*
X125110052Y-104250000D01*
X127500000Y-104250000D02*
X123500000Y-108250000D01*
X106750000Y-77162500D02*
X106750000Y-83750000D01*
X106750000Y-83750000D02*
X110850000Y-87850000D01*
X116400000Y-106400000D02*
X118250000Y-108250000D01*
X112600000Y-101400000D02*
X122260052Y-101400000D01*
X127775000Y-104250000D02*
X127500000Y-104250000D01*
X125110052Y-104250000D02*
X128025000Y-104250000D01*
X99850000Y-100250000D02*
X100150000Y-100250000D01*
X123500000Y-108250000D02*
X120000000Y-108250000D01*
X110850000Y-99650000D02*
X112600000Y-101400000D01*
D48*
%TO.N,Net-(DP1-K)*%
X82750000Y-133000000D02*
X122275000Y-133000000D01*
X80250000Y-119500000D02*
X80250000Y-130500000D01*
X122275000Y-133000000D02*
X123025000Y-132250000D01*
X80250000Y-130500000D02*
X82750000Y-133000000D01*
X76080000Y-115330000D02*
X80250000Y-119500000D01*
X72750000Y-115330000D02*
X76080000Y-115330000D01*
%TO.N,/Input power with filter/STARTUP_PROTECT_OUT*%
X98400000Y-67500000D02*
X117900000Y-67500000D01*
X89152500Y-71492500D02*
X89152500Y-68047500D01*
X89152500Y-68047500D02*
X91400000Y-65800000D01*
D50*
X118360000Y-57160000D02*
X123300000Y-62100000D01*
D48*
X117900000Y-67500000D02*
X123300000Y-62100000D01*
X91400000Y-65800000D02*
X96700000Y-65800000D01*
X96700000Y-65800000D02*
X98400000Y-67500000D01*
D50*
X118360000Y-54750000D02*
X118360000Y-57160000D01*
D51*
%TO.N,Net-(D2-A)*%
X146215000Y-113510000D02*
X149760000Y-113510000D01*
X171305000Y-127250000D02*
X162250000Y-127250000D01*
X158190000Y-123190000D02*
X152000000Y-123190000D01*
X152000000Y-115750000D02*
X152000000Y-123190000D01*
X149760000Y-113510000D02*
X152000000Y-115750000D01*
X162250000Y-127250000D02*
X158190000Y-123190000D01*
D50*
%TO.N,Net-(D3-A)*%
X139000000Y-108190000D02*
X145975000Y-108190000D01*
D49*
%TO.N,Net-(D4-A)*%
X146215000Y-98270000D02*
X140580000Y-98270000D01*
%TO.N,Net-(D6-K)*%
X133912500Y-107587500D02*
X132750000Y-107587500D01*
X135850000Y-104250000D02*
X135850000Y-105650000D01*
X135850000Y-105650000D02*
X133912500Y-107587500D01*
D52*
%TO.N,Net-(DP1-A)*%
X81750000Y-100250000D02*
X82375000Y-99625000D01*
D48*
X90210000Y-127305000D02*
X90210000Y-115100000D01*
X90210000Y-115100000D02*
X91320000Y-113990000D01*
X84410000Y-108910000D02*
X81250000Y-105750000D01*
D52*
X82375000Y-99625000D02*
X85380000Y-99625000D01*
D48*
X91320000Y-108910000D02*
X91320000Y-113990000D01*
X81250000Y-105750000D02*
X81250000Y-100750000D01*
X81250000Y-100750000D02*
X81750000Y-100250000D01*
X91320000Y-108910000D02*
X84410000Y-108910000D01*
%TO.N,/Input power with filter/STARTUP_PROTECT_IN*%
X132550000Y-63150000D02*
X128250000Y-67450000D01*
X121000000Y-80000000D02*
X117250000Y-76250000D01*
X128250000Y-75500000D02*
X129870000Y-77120000D01*
X134500000Y-49000000D02*
X132550000Y-50950000D01*
X129870000Y-77120000D02*
X133500000Y-77120000D01*
X133500000Y-77120000D02*
X129130000Y-77120000D01*
X138750000Y-49000000D02*
X134500000Y-49000000D01*
X132550000Y-50950000D02*
X132550000Y-63150000D01*
X129130000Y-77120000D02*
X126250000Y-80000000D01*
D50*
X138237000Y-49513000D02*
X123003000Y-49513000D01*
D48*
X128250000Y-67450000D02*
X128250000Y-75500000D01*
X126250000Y-80000000D02*
X121000000Y-80000000D01*
%TO.N,Net-(J3-Pin_3)*%
X138700000Y-41250000D02*
X130250000Y-41250000D01*
X130250000Y-41250000D02*
X129500000Y-40500000D01*
D50*
%TO.N,Net-(K1-Pad5)*%
X110262500Y-75337500D02*
X111300000Y-74300000D01*
X106750000Y-75337500D02*
X110262500Y-75337500D01*
%TO.N,Net-(R1-Pad2)*%
X122750000Y-41640000D02*
X111350000Y-41640000D01*
%TO.N,Net-(R2-Pad2)*%
X111250000Y-49360000D02*
X111250000Y-54240000D01*
D49*
%TO.N,Net-(U3-RT)*%
X171250000Y-104250000D02*
X171250000Y-105862500D01*
X171250000Y-105862500D02*
X171800000Y-106412500D01*
D50*
%TO.N,Net-(R6-Pad1)*%
X126955000Y-119750000D02*
X126955000Y-125235000D01*
D49*
%TO.N,Net-(U3-GATE)*%
X173750000Y-110750000D02*
X173700000Y-110700000D01*
X173700000Y-110700000D02*
X173700000Y-108687500D01*
%TD*%
M02*
