%TF.GenerationSoftware,KiCad,Pcbnew,8.0.1-8.0.1-1~ubuntu22.04.1*%
%TF.CreationDate,2024-04-06T20:35:09+03:00*%
%TF.ProjectId,supply-uv,73757070-6c79-42d7-9576-2e6b69636164,rev?*%
%TF.SameCoordinates,Original*%
%TF.FileFunction,Copper,L1,Top*%
%TF.FilePolarity,Positive*%
%FSLAX46Y46*%
G04 Gerber Fmt 4.6, Leading zero omitted, Abs format (unit mm)*
G04 Created by KiCad (PCBNEW 8.0.1-8.0.1-1~ubuntu22.04.1) date 2024-04-06 20:35:09*
%MOMM*%
%LPD*%
G01*
G04 APERTURE LIST*
G04 Aperture macros list*
%AMRoundRect*
0 Rectangle with rounded corners*
0 $1 Rounding radius*
0 $2 $3 $4 $5 $6 $7 $8 $9 X,Y pos of 4 corners*
0 Add a 4 corners polygon primitive as box body*
4,1,4,$2,$3,$4,$5,$6,$7,$8,$9,$2,$3,0*
0 Add four circle primitives for the rounded corners*
1,1,$1+$1,$2,$3*
1,1,$1+$1,$4,$5*
1,1,$1+$1,$6,$7*
1,1,$1+$1,$8,$9*
0 Add four rect primitives between the rounded corners*
20,1,$1+$1,$2,$3,$4,$5,0*
20,1,$1+$1,$4,$5,$6,$7,0*
20,1,$1+$1,$6,$7,$8,$9,0*
20,1,$1+$1,$8,$9,$2,$3,0*%
%AMFreePoly0*
4,1,6,1.000000,0.000000,0.500000,-0.750000,-0.500000,-0.750000,-0.500000,0.750000,0.500000,0.750000,1.000000,0.000000,1.000000,0.000000,$1*%
%AMFreePoly1*
4,1,6,0.500000,-0.750000,-0.650000,-0.750000,-0.150000,0.000000,-0.650000,0.750000,0.500000,0.750000,0.500000,-0.750000,0.500000,-0.750000,$1*%
G04 Aperture macros list end*
%TA.AperFunction,ComponentPad*%
%ADD10C,1.524000*%
%TD*%
%TA.AperFunction,SMDPad,CuDef*%
%ADD11FreePoly0,180.000000*%
%TD*%
%TA.AperFunction,SMDPad,CuDef*%
%ADD12FreePoly1,180.000000*%
%TD*%
%TA.AperFunction,ComponentPad*%
%ADD13R,1.905000X2.000000*%
%TD*%
%TA.AperFunction,ComponentPad*%
%ADD14O,1.905000X2.000000*%
%TD*%
%TA.AperFunction,SMDPad,CuDef*%
%ADD15RoundRect,0.250000X-0.450000X0.262500X-0.450000X-0.262500X0.450000X-0.262500X0.450000X0.262500X0*%
%TD*%
%TA.AperFunction,SMDPad,CuDef*%
%ADD16R,2.000000X2.000000*%
%TD*%
%TA.AperFunction,ComponentPad*%
%ADD17R,2.800000X2.800000*%
%TD*%
%TA.AperFunction,ComponentPad*%
%ADD18C,2.800000*%
%TD*%
%TA.AperFunction,ComponentPad*%
%ADD19C,1.600000*%
%TD*%
%TA.AperFunction,ComponentPad*%
%ADD20O,1.600000X1.600000*%
%TD*%
%TA.AperFunction,ComponentPad*%
%ADD21R,2.000000X2.000000*%
%TD*%
%TA.AperFunction,ComponentPad*%
%ADD22O,2.000000X2.000000*%
%TD*%
%TA.AperFunction,ComponentPad*%
%ADD23R,1.800000X1.800000*%
%TD*%
%TA.AperFunction,ComponentPad*%
%ADD24C,1.800000*%
%TD*%
%TA.AperFunction,ComponentPad*%
%ADD25R,2.200000X2.200000*%
%TD*%
%TA.AperFunction,ComponentPad*%
%ADD26O,2.200000X2.200000*%
%TD*%
%TA.AperFunction,ComponentPad*%
%ADD27R,2.400000X2.400000*%
%TD*%
%TA.AperFunction,ComponentPad*%
%ADD28C,2.400000*%
%TD*%
%TA.AperFunction,ComponentPad*%
%ADD29R,2.000000X1.905000*%
%TD*%
%TA.AperFunction,ComponentPad*%
%ADD30O,2.000000X1.905000*%
%TD*%
%TA.AperFunction,ComponentPad*%
%ADD31R,1.600000X1.600000*%
%TD*%
%TA.AperFunction,ComponentPad*%
%ADD32C,2.500000*%
%TD*%
%TA.AperFunction,ComponentPad*%
%ADD33RoundRect,0.249999X1.300001X-1.300001X1.300001X1.300001X-1.300001X1.300001X-1.300001X-1.300001X0*%
%TD*%
%TA.AperFunction,ComponentPad*%
%ADD34C,3.100000*%
%TD*%
%TA.AperFunction,ComponentPad*%
%ADD35RoundRect,0.250002X-1.699998X-1.699998X1.699998X-1.699998X1.699998X1.699998X-1.699998X1.699998X0*%
%TD*%
%TA.AperFunction,ComponentPad*%
%ADD36RoundRect,0.250002X1.699998X-1.699998X1.699998X1.699998X-1.699998X1.699998X-1.699998X-1.699998X0*%
%TD*%
%TA.AperFunction,ComponentPad*%
%ADD37C,3.900000*%
%TD*%
%TA.AperFunction,ComponentPad*%
%ADD38R,3.200000X3.200000*%
%TD*%
%TA.AperFunction,ComponentPad*%
%ADD39O,3.200000X3.200000*%
%TD*%
%TA.AperFunction,SMDPad,CuDef*%
%ADD40RoundRect,0.250000X0.262500X0.450000X-0.262500X0.450000X-0.262500X-0.450000X0.262500X-0.450000X0*%
%TD*%
%TA.AperFunction,ComponentPad*%
%ADD41RoundRect,0.249999X-1.300001X-1.300001X1.300001X-1.300001X1.300001X1.300001X-1.300001X1.300001X0*%
%TD*%
%TA.AperFunction,ComponentPad*%
%ADD42C,1.400000*%
%TD*%
%TA.AperFunction,ComponentPad*%
%ADD43C,3.000000*%
%TD*%
%TA.AperFunction,ViaPad*%
%ADD44C,0.800000*%
%TD*%
%TA.AperFunction,Conductor*%
%ADD45C,3.000000*%
%TD*%
%TA.AperFunction,Conductor*%
%ADD46C,0.500000*%
%TD*%
%TA.AperFunction,Conductor*%
%ADD47C,1.000000*%
%TD*%
%TA.AperFunction,Conductor*%
%ADD48C,2.000000*%
%TD*%
G04 APERTURE END LIST*
D10*
%TO.P,TP1,1,1*%
%TO.N,/Input power with filter/HV_GND*%
X64000000Y-97500000D03*
%TD*%
D11*
%TO.P,JP2,1,A*%
%TO.N,Net-(D6-A)*%
X126775000Y-102337500D03*
D12*
%TO.P,JP2,2,B*%
%TO.N,/Input power with filter/PFC_VCC*%
X125325000Y-102337500D03*
%TD*%
D13*
%TO.P,QP2,1,G*%
%TO.N,Net-(QP2-G)*%
X154720000Y-124600000D03*
D14*
%TO.P,QP2,2,D*%
%TO.N,Net-(D2-A)*%
X157260000Y-124600000D03*
%TO.P,QP2,3,S*%
%TO.N,Net-(QP2-S)*%
X159800000Y-124600000D03*
%TD*%
D15*
%TO.P,R4,1*%
%TO.N,Net-(K1-Pad5)*%
X104000000Y-73375000D03*
%TO.P,R4,2*%
%TO.N,/Input power with filter/PFC_VCC*%
X104000000Y-75200000D03*
%TD*%
D16*
%TO.P,TP4,1,1*%
%TO.N,Net-(D6-A)*%
X126700000Y-96800000D03*
%TD*%
D17*
%TO.P,D1,1,+*%
%TO.N,/Input power with filter/VOUT_PRE_PFC*%
X76192500Y-69480000D03*
D18*
%TO.P,D1,2*%
%TO.N,Net-(J3-Pin_1)*%
X81272500Y-69480000D03*
%TO.P,D1,3*%
%TO.N,/Input power with filter/STARTUP_PROTECT_OUT*%
X86352500Y-69480000D03*
%TO.P,D1,4,-*%
%TO.N,/Input power with filter/VOUT_PRE_GND*%
X91432500Y-69480000D03*
%TD*%
D19*
%TO.P,R8,1*%
%TO.N,Net-(D2-K)*%
X137500000Y-128610000D03*
D20*
%TO.P,R8,2*%
%TO.N,/Input power with filter/OUT_400V*%
X137500000Y-120990000D03*
%TD*%
D21*
%TO.P,DP1,1,K*%
%TO.N,Net-(DP1-K)*%
X92540000Y-125342500D03*
D22*
%TO.P,DP1,2,A*%
%TO.N,Net-(DP1-A)*%
X87460000Y-125342500D03*
%TD*%
D23*
%TO.P,D6,1,K*%
%TO.N,Net-(D6-K)*%
X133050000Y-102237500D03*
D24*
%TO.P,D6,2,A*%
%TO.N,Net-(D6-A)*%
X130510000Y-102237500D03*
%TD*%
D23*
%TO.P,D5,1,K*%
%TO.N,Net-(D5-K)*%
X122500000Y-108175000D03*
D24*
%TO.P,D5,2,A*%
%TO.N,/Standby Supply/V_STANDBY*%
X122500000Y-105635000D03*
%TD*%
D25*
%TO.P,D3,1,K*%
%TO.N,Net-(D3-K)*%
X135700000Y-114037500D03*
D26*
%TO.P,D3,2,A*%
%TO.N,Net-(D3-A)*%
X135700000Y-106417500D03*
%TD*%
D27*
%TO.P,C3,1*%
%TO.N,/Input power with filter/OUT_400V*%
X150787246Y-135600000D03*
D28*
%TO.P,C3,2*%
%TO.N,/Input power with filter/HV_GND*%
X158287246Y-135600000D03*
%TD*%
D29*
%TO.P,QP1,1,G*%
%TO.N,Net-(QP1-G)*%
X81845000Y-106440000D03*
D30*
%TO.P,QP1,2,D*%
%TO.N,Net-(DP1-A)*%
X81845000Y-103900000D03*
%TO.P,QP1,3,S*%
%TO.N,/Input power with filter/HV_GND*%
X81845000Y-101360000D03*
%TD*%
D31*
%TO.P,C8,1*%
%TO.N,Net-(D4-K)*%
X132000000Y-87700000D03*
D19*
%TO.P,C8,2*%
%TO.N,/Input power with filter/HV_GND*%
X135500000Y-87700000D03*
%TD*%
%TO.P,R7,1*%
%TO.N,Net-(D3-K)*%
X131850000Y-117937500D03*
D20*
%TO.P,R7,2*%
%TO.N,Net-(R6-Pad1)*%
X124230000Y-117937500D03*
%TD*%
D16*
%TO.P,TP3,1,1*%
%TO.N,Net-(D3-K)*%
X130100000Y-113400000D03*
%TD*%
D32*
%TO.P,TR1,1*%
%TO.N,N/C*%
X111360000Y-111947500D03*
%TO.P,TR1,2,2*%
%TO.N,Net-(DP1-A)*%
X88500000Y-111947500D03*
%TO.P,TR1,3*%
%TO.N,N/C*%
X111360000Y-106867500D03*
%TO.P,TR1,4,4*%
%TO.N,Net-(DP1-A)*%
X88500000Y-106867500D03*
%TO.P,TR1,5*%
%TO.N,N/C*%
X111360000Y-101787500D03*
%TO.P,TR1,6*%
X88500000Y-101787500D03*
%TO.P,TR1,7*%
X111360000Y-96707500D03*
%TO.P,TR1,8*%
X88500000Y-96707500D03*
%TO.P,TR1,9*%
X111360000Y-91627500D03*
%TO.P,TR1,10*%
X88500000Y-91627500D03*
%TO.P,TR1,11*%
X111360000Y-86547500D03*
%TO.P,TR1,12,12*%
%TO.N,/Input power with filter/VOUT_PRE_PFC*%
X88500000Y-86547500D03*
%TO.P,TR1,13*%
%TO.N,N/C*%
X111360000Y-81467500D03*
%TO.P,TR1,14,14*%
%TO.N,/Input power with filter/VOUT_PRE_PFC*%
X88500000Y-81467500D03*
%TD*%
D33*
%TO.P,J1,1,Pin_1*%
%TO.N,/Input power with filter/HV_GND*%
X127000000Y-141787500D03*
D34*
%TO.P,J1,2,Pin_2*%
%TO.N,/Input power with filter/OUT_400V*%
X127000000Y-135787500D03*
%TD*%
D35*
%TO.P,J2,1,Pin_1*%
%TO.N,/Standby Supply/V_STANDBY*%
X116800000Y-95700000D03*
%TD*%
D18*
%TO.P,RV1,1*%
%TO.N,Net-(J3-Pin_1)*%
X128100000Y-68815000D03*
%TO.P,RV1,2*%
%TO.N,/Input power with filter/STARTUP_PROTECT_IN*%
X128100000Y-76185000D03*
%TD*%
D32*
%TO.P,TR2,1*%
%TO.N,N/C*%
X140690000Y-85997500D03*
%TO.P,TR2,2*%
X161010000Y-85997500D03*
%TO.P,TR2,3,3*%
%TO.N,/Input power with filter/HV_GND*%
X140690000Y-91077500D03*
%TO.P,TR2,4*%
%TO.N,N/C*%
X161010000Y-91077500D03*
%TO.P,TR2,5,5*%
%TO.N,Net-(D4-A)*%
X140690000Y-96157500D03*
%TO.P,TR2,6*%
%TO.N,N/C*%
X161010000Y-96157500D03*
%TO.P,TR2,7,7*%
%TO.N,/Input power with filter/HV_GND*%
X140690000Y-101237500D03*
%TO.P,TR2,8*%
%TO.N,N/C*%
X161010000Y-101237500D03*
%TO.P,TR2,9,9*%
%TO.N,Net-(D3-A)*%
X140690000Y-106317500D03*
%TO.P,TR2,10*%
%TO.N,N/C*%
X161010000Y-106317500D03*
%TO.P,TR2,11,11*%
%TO.N,Net-(D2-A)*%
X140690000Y-111397500D03*
%TO.P,TR2,12*%
%TO.N,N/C*%
X161010000Y-111397500D03*
%TO.P,TR2,13,13*%
%TO.N,/Input power with filter/OUT_400V*%
X140690000Y-116477500D03*
%TO.P,TR2,14*%
%TO.N,N/C*%
X161010000Y-116477500D03*
%TD*%
D27*
%TO.P,C1,1*%
%TO.N,/Input power with filter/VOUT_PRE_PFC*%
X69122220Y-85200000D03*
D28*
%TO.P,C1,2*%
%TO.N,/Input power with filter/VOUT_PRE_GND*%
X76622220Y-85200000D03*
%TD*%
D19*
%TO.P,C6,1*%
%TO.N,Net-(D2-K)*%
X141200000Y-126787500D03*
%TO.P,C6,2*%
%TO.N,/Input power with filter/OUT_400V*%
X141200000Y-121787500D03*
%TD*%
D36*
%TO.P,J3,1,Pin_1*%
%TO.N,Net-(J3-Pin_1)*%
X135500000Y-63100000D03*
D37*
%TO.P,J3,2,Pin_2*%
%TO.N,/Input power with filter/STARTUP_PROTECT_IN*%
X135500000Y-55300000D03*
%TO.P,J3,3,Pin_3*%
%TO.N,Net-(J3-Pin_3)*%
X135500000Y-47500000D03*
%TD*%
D33*
%TO.P,CP5,1*%
%TO.N,Net-(DP1-K)*%
X68700000Y-113400000D03*
D34*
%TO.P,CP5,2*%
%TO.N,/Input power with filter/HV_GND*%
X68700000Y-107400000D03*
%TD*%
D24*
%TO.P,R3,1*%
%TO.N,Net-(R2-Pad2)*%
X106850000Y-53950000D03*
%TO.P,R3,2*%
%TO.N,/Input power with filter/STARTUP_PROTECT_OUT*%
X109550000Y-46450000D03*
%TD*%
D38*
%TO.P,D4,1,K*%
%TO.N,Net-(D4-K)*%
X132095000Y-96500000D03*
D39*
%TO.P,D4,2,A*%
%TO.N,Net-(D4-A)*%
X135905000Y-96500000D03*
%TD*%
D28*
%TO.P,Y1,1*%
%TO.N,Net-(J3-Pin_3)*%
X127300000Y-46200000D03*
%TO.P,Y1,2*%
%TO.N,/Input power with filter/VOUT_PRE_GND*%
X127300000Y-61200000D03*
%TD*%
D40*
%TO.P,R16,1*%
%TO.N,/Input power with filter/HV_GND*%
X137412500Y-100900000D03*
%TO.P,R16,2*%
%TO.N,Net-(D6-K)*%
X135587500Y-100900000D03*
%TD*%
D24*
%TO.P,R1,1*%
%TO.N,/Input power with filter/STARTUP_PROTECT_IN*%
X119550000Y-53950000D03*
%TO.P,R1,2*%
%TO.N,Net-(R1-Pad2)*%
X122250000Y-46450000D03*
%TD*%
D41*
%TO.P,F1,1*%
%TO.N,Net-(DP1-K)*%
X120500000Y-130537500D03*
D34*
%TO.P,F1,2*%
%TO.N,/Input power with filter/OUT_400V*%
X126500000Y-130537500D03*
%TD*%
D19*
%TO.P,R6,1*%
%TO.N,Net-(R6-Pad1)*%
X124190000Y-123287500D03*
D20*
%TO.P,R6,2*%
%TO.N,/Input power with filter/OUT_400V*%
X131810000Y-123287500D03*
%TD*%
D42*
%TO.P,JP1,1,A*%
%TO.N,/Input power with filter/PFC_OK#*%
X118500000Y-118287500D03*
%TO.P,JP1,2,B*%
%TO.N,Net-(JP1-B)*%
X118500000Y-115747500D03*
%TD*%
D43*
%TO.P,K1,1*%
%TO.N,/Input power with filter/STARTUP_PROTECT_IN*%
X114300000Y-75000000D03*
D32*
%TO.P,K1,2*%
%TO.N,/Input power with filter/HV_GND*%
X120350000Y-73050000D03*
D43*
%TO.P,K1,3*%
%TO.N,/Input power with filter/STARTUP_PROTECT_OUT*%
X120350000Y-60850000D03*
%TO.P,K1,4*%
%TO.N,unconnected-(K1-Pad4)*%
X108300000Y-60800000D03*
D32*
%TO.P,K1,5*%
%TO.N,Net-(K1-Pad5)*%
X108350000Y-73050000D03*
%TD*%
D25*
%TO.P,D2,1,K*%
%TO.N,Net-(D2-K)*%
X146700000Y-128410000D03*
D26*
%TO.P,D2,2,A*%
%TO.N,Net-(D2-A)*%
X146700000Y-120790000D03*
%TD*%
D24*
%TO.P,R2,1*%
%TO.N,Net-(R1-Pad2)*%
X115950000Y-46450000D03*
%TO.P,R2,2*%
%TO.N,Net-(R2-Pad2)*%
X113250000Y-53950000D03*
%TD*%
D31*
%TO.P,C10,1*%
%TO.N,Net-(D6-A)*%
X126700000Y-90800000D03*
D19*
%TO.P,C10,2*%
%TO.N,/Input power with filter/HV_GND*%
X123200000Y-90800000D03*
%TD*%
D31*
%TO.P,U4,1*%
%TO.N,Net-(R12-Pad1)*%
X154925000Y-89000000D03*
D20*
%TO.P,U4,2*%
%TO.N,Net-(U5-K)*%
X157465000Y-89000000D03*
%TO.P,U4,3*%
%TO.N,/Input power with filter/HV_GND*%
X157465000Y-96620000D03*
%TO.P,U4,4*%
%TO.N,/Standby Supply/FEEDBACK*%
X154925000Y-96620000D03*
%TD*%
D44*
%TO.N,/Input power with filter/VOUT_PRE_PFC*%
X99400000Y-117487500D03*
%TO.N,/Input power with filter/HV_GND*%
X98600000Y-103800000D03*
X94000000Y-98900000D03*
%TO.N,Net-(D3-K)*%
X155000000Y-109000000D03*
%TO.N,/Input power with filter/PFC_VCC*%
X97100000Y-98287500D03*
X116000000Y-113900000D03*
X117250000Y-106287500D03*
%TD*%
D45*
%TO.N,/Input power with filter/VOUT_PRE_PFC*%
X69122220Y-85200000D02*
X69100000Y-85177780D01*
D46*
X90600000Y-98400000D02*
X93050000Y-100850000D01*
X89204938Y-98400000D02*
X90600000Y-98400000D01*
X89197438Y-98407500D02*
X89204938Y-98400000D01*
D45*
X88570000Y-81547500D02*
X88570000Y-86627500D01*
D46*
X93050000Y-111137500D02*
X99400000Y-117487500D01*
D45*
X84260000Y-81547500D02*
X76242500Y-73530000D01*
D46*
X69100000Y-85222220D02*
X69100000Y-92400000D01*
D45*
X76242500Y-73530000D02*
X76242500Y-69530000D01*
X88570000Y-81547500D02*
X84260000Y-81547500D01*
D46*
X75100000Y-98400000D02*
X87795062Y-98400000D01*
X87795062Y-98400000D02*
X87802562Y-98407500D01*
X93050000Y-100850000D02*
X93050000Y-111137500D01*
D45*
X69100000Y-85177780D02*
X69100000Y-79937500D01*
X69100000Y-79937500D02*
X75507500Y-73530000D01*
D46*
X87802562Y-98407500D02*
X89197438Y-98407500D01*
X69100000Y-92400000D02*
X75100000Y-98400000D01*
D47*
%TO.N,/Input power with filter/VOUT_PRE_GND*%
X116350000Y-69737500D02*
X124887500Y-61200000D01*
X124887500Y-61200000D02*
X127300000Y-61200000D01*
X91490000Y-69737500D02*
X116350000Y-69737500D01*
D45*
%TO.N,/Input power with filter/HV_GND*%
X71750000Y-141787500D02*
X126750000Y-141787500D01*
X64500000Y-109300000D02*
X64500000Y-134537500D01*
X68700000Y-107400000D02*
X66400000Y-107400000D01*
D46*
X138600000Y-99712500D02*
X138600000Y-93167500D01*
X94000000Y-98900000D02*
X94900000Y-98900000D01*
X120350000Y-79050000D02*
X123200000Y-81900000D01*
D47*
X143850000Y-93737500D02*
X143850000Y-98737500D01*
X143850000Y-98737500D02*
X141300000Y-101287500D01*
X141240000Y-91127500D02*
X143850000Y-93737500D01*
D46*
X94900000Y-98900000D02*
X98600000Y-102600000D01*
D47*
X135500000Y-87700000D02*
X137312500Y-87700000D01*
D46*
X137412500Y-100900000D02*
X138600000Y-99712500D01*
D47*
X137312500Y-87700000D02*
X140690000Y-91077500D01*
D46*
X138600000Y-93167500D02*
X140690000Y-91077500D01*
D45*
X64500000Y-134537500D02*
X71750000Y-141787500D01*
D46*
X98600000Y-102600000D02*
X98600000Y-103800000D01*
X120350000Y-72537500D02*
X120350000Y-79050000D01*
D45*
X66400000Y-107400000D02*
X64500000Y-109300000D01*
D46*
X123200000Y-81900000D02*
X123200000Y-90800000D01*
D48*
%TO.N,/Input power with filter/OUT_400V*%
X141000000Y-120990000D02*
X140690000Y-120680000D01*
X131810000Y-127227500D02*
X128750000Y-130287500D01*
D45*
X126400000Y-130387500D02*
X126750000Y-130737500D01*
D48*
X140690000Y-120680000D02*
X140690000Y-116477500D01*
X137500000Y-120990000D02*
X140402500Y-120990000D01*
D45*
X126750000Y-135787500D02*
X150774746Y-135787500D01*
D48*
X131810000Y-123287500D02*
X133512500Y-123287500D01*
X140402500Y-120990000D02*
X141200000Y-121787500D01*
D45*
X126750000Y-130737500D02*
X126750000Y-135787500D01*
D48*
X135810000Y-120990000D02*
X137500000Y-120990000D01*
X131810000Y-123287500D02*
X131810000Y-127227500D01*
X133512500Y-123287500D02*
X135810000Y-120990000D01*
X128750000Y-130287500D02*
X126685000Y-130287500D01*
D47*
%TO.N,Net-(D3-K)*%
X132310000Y-117787500D02*
X135700000Y-114397500D01*
D46*
X135700000Y-114037500D02*
X135700000Y-110300000D01*
X130100000Y-113400000D02*
X135062500Y-113400000D01*
X137000000Y-109000000D02*
X155000000Y-109000000D01*
X135700000Y-110300000D02*
X137000000Y-109000000D01*
D47*
X131825000Y-117787500D02*
X132310000Y-117787500D01*
D48*
%TO.N,Net-(D2-K)*%
X139322500Y-126787500D02*
X142887500Y-126787500D01*
X144510000Y-128410000D02*
X146700000Y-128410000D01*
X137500000Y-128610000D02*
X139322500Y-126787500D01*
X142887500Y-126787500D02*
X144510000Y-128410000D01*
D47*
%TO.N,Net-(D4-K)*%
X132000000Y-96405000D02*
X132000000Y-88037500D01*
%TO.N,Net-(D6-A)*%
X128000000Y-99887500D02*
X126700000Y-98587500D01*
X126725000Y-102287500D02*
X128100000Y-102287500D01*
D46*
X128000000Y-102187500D02*
X128100000Y-102287500D01*
D47*
X126700000Y-98587500D02*
X126700000Y-90800000D01*
D46*
X128100000Y-102287500D02*
X130560000Y-102287500D01*
D47*
X128000000Y-99887500D02*
X128000000Y-102187500D01*
D46*
%TO.N,/Input power with filter/PFC_VCC*%
X97100000Y-98287500D02*
X97400000Y-98287500D01*
X120100000Y-103900000D02*
X123762500Y-103900000D01*
X119200000Y-99200000D02*
X122337500Y-102337500D01*
X123762500Y-103900000D02*
X125325000Y-102337500D01*
X125325000Y-108050000D02*
X125325000Y-102337500D01*
X104000000Y-75200000D02*
X104000000Y-78500000D01*
X121775000Y-111600000D02*
X125325000Y-108050000D01*
X120500000Y-97512500D02*
X125275000Y-102287500D01*
X97400000Y-98287500D02*
X98312500Y-99200000D01*
X113100000Y-83900000D02*
X120500000Y-91300000D01*
X104000000Y-78500000D02*
X109400000Y-83900000D01*
X109400000Y-83900000D02*
X113100000Y-83900000D01*
X122337500Y-102337500D02*
X125325000Y-102337500D01*
X117250000Y-106287500D02*
X117712500Y-106287500D01*
X116000000Y-113900000D02*
X118300000Y-111600000D01*
X120500000Y-91300000D02*
X120500000Y-97512500D01*
X118300000Y-111600000D02*
X121775000Y-111600000D01*
X117712500Y-106287500D02*
X120100000Y-103900000D01*
X98312500Y-99200000D02*
X119200000Y-99200000D01*
D45*
%TO.N,Net-(DP1-K)*%
X70000000Y-113367500D02*
X73330000Y-113367500D01*
X77500000Y-128537500D02*
X79562500Y-130600000D01*
X77500000Y-117537500D02*
X77500000Y-128537500D01*
X73330000Y-113367500D02*
X77500000Y-117537500D01*
X79562500Y-130600000D02*
X119962500Y-130600000D01*
D48*
%TO.N,/Input power with filter/STARTUP_PROTECT_OUT*%
X99550000Y-46450000D02*
X93950000Y-52050000D01*
D45*
X120037500Y-60650000D02*
X116643750Y-64043750D01*
X120350000Y-60650000D02*
X120037500Y-60650000D01*
D48*
X93950000Y-52050000D02*
X93950000Y-63837500D01*
X109550000Y-46450000D02*
X99550000Y-46450000D01*
D45*
X88650000Y-63837500D02*
X86402500Y-66085000D01*
X86402500Y-66085000D02*
X86402500Y-69530000D01*
X116643750Y-64043750D02*
X116187500Y-64500000D01*
X116187500Y-64500000D02*
X94612500Y-64500000D01*
X94612500Y-64500000D02*
X93950000Y-63837500D01*
X93950000Y-63837500D02*
X88650000Y-63837500D01*
D48*
%TO.N,Net-(D2-A)*%
X146700000Y-120790000D02*
X156062500Y-120790000D01*
X156062500Y-120790000D02*
X157260000Y-121987500D01*
X157260000Y-121987500D02*
X157260000Y-124600000D01*
X146700000Y-114037500D02*
X146700000Y-120790000D01*
X144110000Y-111447500D02*
X146700000Y-114037500D01*
X140565000Y-111447500D02*
X144110000Y-111447500D01*
D47*
%TO.N,Net-(D3-A)*%
X135700000Y-106417500D02*
X140590000Y-106417500D01*
D46*
%TO.N,Net-(D6-K)*%
X133050000Y-102050000D02*
X134200000Y-100900000D01*
X134200000Y-100900000D02*
X135587500Y-100900000D01*
D45*
%TO.N,Net-(DP1-A)*%
X87460000Y-125342500D02*
X87460000Y-113137500D01*
X87460000Y-113137500D02*
X88570000Y-112027500D01*
X85532500Y-103900000D02*
X88500000Y-106867500D01*
X88570000Y-106947500D02*
X88570000Y-112027500D01*
X83700000Y-103900000D02*
X85532500Y-103900000D01*
D48*
X83700000Y-103900000D02*
X81845000Y-103900000D01*
D45*
%TO.N,/Input power with filter/STARTUP_PROTECT_IN*%
X131200000Y-73085000D02*
X128100000Y-76185000D01*
X135500000Y-55300000D02*
X131200000Y-59600000D01*
D48*
X135500000Y-55300000D02*
X134150000Y-53950000D01*
X134150000Y-53950000D02*
X119550000Y-53950000D01*
D45*
X131200000Y-59600000D02*
X131200000Y-73085000D01*
%TO.N,Net-(J3-Pin_3)*%
X128600000Y-47500000D02*
X127300000Y-46200000D01*
X135537500Y-47500000D02*
X128600000Y-47500000D01*
D46*
%TO.N,Net-(K1-Pad5)*%
X104000000Y-73375000D02*
X107825000Y-73375000D01*
D48*
%TO.N,Net-(R1-Pad2)*%
X115950000Y-46450000D02*
X122250000Y-46450000D01*
%TO.N,Net-(R2-Pad2)*%
X106850000Y-53950000D02*
X113250000Y-53950000D01*
D47*
%TO.N,Net-(R6-Pad1)*%
X124205000Y-117787500D02*
X124205000Y-123272500D01*
%TD*%
%TA.AperFunction,Conductor*%
%TO.N,/Input power with filter/VOUT_PRE_PFC*%
G36*
X99019104Y-116750521D02*
G01*
X99671237Y-117196716D01*
X99676130Y-117204216D01*
X99674286Y-117212979D01*
X99672924Y-117214624D01*
X99400749Y-117488165D01*
X99400707Y-117488207D01*
X99127124Y-117760424D01*
X99118843Y-117763830D01*
X99110578Y-117760382D01*
X99109216Y-117758737D01*
X98663021Y-117106604D01*
X98661177Y-117097841D01*
X98664402Y-117091726D01*
X99004225Y-116751903D01*
X99012497Y-116748477D01*
X99019104Y-116750521D01*
G37*
%TD.AperFunction*%
%TD*%
%TA.AperFunction,Conductor*%
%TO.N,/Input power with filter/VOUT_PRE_PFC*%
G36*
X69129650Y-85208338D02*
G01*
X69131146Y-85209851D01*
X70104267Y-86392854D01*
X70106876Y-86401421D01*
X70104545Y-86407367D01*
X69353512Y-87395380D01*
X69345778Y-87399893D01*
X69344198Y-87400000D01*
X68855897Y-87400000D01*
X68847624Y-87396573D01*
X68846492Y-87395259D01*
X68115542Y-86407430D01*
X68113376Y-86398742D01*
X68116000Y-86392932D01*
X69113166Y-85209742D01*
X69121115Y-85205626D01*
X69129650Y-85208338D01*
G37*
%TD.AperFunction*%
%TD*%
%TA.AperFunction,Conductor*%
%TO.N,/Input power with filter/VOUT_PRE_GND*%
G36*
X126653639Y-60203473D02*
G01*
X126658119Y-60207522D01*
X127296879Y-61193639D01*
X127298500Y-61202446D01*
X127296879Y-61206361D01*
X126658119Y-62192477D01*
X126650745Y-62197557D01*
X126644714Y-62197253D01*
X125108115Y-61702612D01*
X125101290Y-61696815D01*
X125100000Y-61691475D01*
X125100000Y-60708524D01*
X125103427Y-60700251D01*
X125108112Y-60697388D01*
X126644716Y-60202746D01*
X126653639Y-60203473D01*
G37*
%TD.AperFunction*%
%TD*%
%TA.AperFunction,Conductor*%
%TO.N,/Input power with filter/VOUT_PRE_GND*%
G36*
X92505342Y-68593900D02*
G01*
X93785251Y-69234265D01*
X93791117Y-69241031D01*
X93791716Y-69244728D01*
X93791716Y-70228162D01*
X93788289Y-70236435D01*
X93782611Y-70239571D01*
X92295830Y-70577791D01*
X92287003Y-70576284D01*
X92284008Y-70573575D01*
X91438460Y-69488929D01*
X91436077Y-69480299D01*
X91440196Y-69472750D01*
X92492620Y-68595376D01*
X92501168Y-68592712D01*
X92505342Y-68593900D01*
G37*
%TD.AperFunction*%
%TD*%
%TA.AperFunction,Conductor*%
%TO.N,/Input power with filter/HV_GND*%
G36*
X94013817Y-98502590D02*
G01*
X94790457Y-98648210D01*
X94797956Y-98653103D01*
X94800000Y-98659710D01*
X94800000Y-99140289D01*
X94796573Y-99148562D01*
X94790456Y-99151789D01*
X94013820Y-99297408D01*
X94005057Y-99295564D01*
X94000164Y-99288064D01*
X93999964Y-99285946D01*
X93999000Y-98900000D01*
X93999964Y-98514059D01*
X94003412Y-98505797D01*
X94011693Y-98502391D01*
X94013817Y-98502590D01*
G37*
%TD.AperFunction*%
%TD*%
%TA.AperFunction,Conductor*%
%TO.N,/Input power with filter/HV_GND*%
G36*
X142188858Y-99697047D02*
G01*
X142190813Y-99698622D01*
X142885938Y-100393747D01*
X142889365Y-100402020D01*
X142886747Y-100409396D01*
X141864298Y-101668226D01*
X141856422Y-101672488D01*
X141851125Y-101671811D01*
X140697346Y-101241212D01*
X140690793Y-101235109D01*
X140689754Y-101229626D01*
X140755097Y-100015389D01*
X140758963Y-100007313D01*
X140764281Y-100004589D01*
X142180047Y-99695464D01*
X142188858Y-99697047D01*
G37*
%TD.AperFunction*%
%TD*%
%TA.AperFunction,Conductor*%
%TO.N,/Input power with filter/HV_GND*%
G36*
X141873859Y-90700714D02*
G01*
X141877956Y-90704220D01*
X142828930Y-92007138D01*
X142831040Y-92015841D01*
X142827753Y-92022309D01*
X142132604Y-92717458D01*
X142124331Y-92720885D01*
X142121099Y-92720430D01*
X140696260Y-92310946D01*
X140689256Y-92305367D01*
X140687792Y-92299690D01*
X140689282Y-91085316D01*
X140692719Y-91077049D01*
X140697407Y-91074192D01*
X141864937Y-90699976D01*
X141873859Y-90700714D01*
G37*
%TD.AperFunction*%
%TD*%
%TA.AperFunction,Conductor*%
%TO.N,/Input power with filter/HV_GND*%
G36*
X135513831Y-86902593D02*
G01*
X137090457Y-87198210D01*
X137097956Y-87203103D01*
X137100000Y-87209710D01*
X137100000Y-88190289D01*
X137096573Y-88198562D01*
X137090456Y-88201789D01*
X135513838Y-88497405D01*
X135505075Y-88495561D01*
X135500182Y-88488061D01*
X135499982Y-88485920D01*
X135499000Y-87700030D01*
X135499000Y-87700000D01*
X135499982Y-86914079D01*
X135503419Y-86905811D01*
X135511697Y-86902394D01*
X135513831Y-86902593D01*
G37*
%TD.AperFunction*%
%TD*%
%TA.AperFunction,Conductor*%
%TO.N,/Input power with filter/HV_GND*%
G36*
X138106103Y-99864558D02*
G01*
X138447400Y-100205855D01*
X138450827Y-100214128D01*
X138449215Y-100220055D01*
X137930149Y-101103519D01*
X137923003Y-101108916D01*
X137915602Y-101108409D01*
X137418767Y-100903582D01*
X137412424Y-100897260D01*
X137411534Y-100893172D01*
X137387978Y-100207646D01*
X137391119Y-100199262D01*
X137394615Y-100196695D01*
X138092776Y-99862278D01*
X138101717Y-99861796D01*
X138106103Y-99864558D01*
G37*
%TD.AperFunction*%
%TD*%
%TA.AperFunction,Conductor*%
%TO.N,/Input power with filter/HV_GND*%
G36*
X139470203Y-89146818D02*
G01*
X140865605Y-89842701D01*
X140871480Y-89849460D01*
X140871958Y-89854886D01*
X140691959Y-91069753D01*
X140687356Y-91077434D01*
X140682272Y-91079585D01*
X139483621Y-91275482D01*
X139474904Y-91273434D01*
X139471288Y-91269204D01*
X139370690Y-91069753D01*
X138759369Y-89857721D01*
X138758704Y-89848793D01*
X138761541Y-89844183D01*
X139456710Y-89149014D01*
X139464982Y-89145588D01*
X139470203Y-89146818D01*
G37*
%TD.AperFunction*%
%TD*%
%TA.AperFunction,Conductor*%
%TO.N,/Input power with filter/HV_GND*%
G36*
X140682272Y-91075414D02*
G01*
X140689884Y-91080131D01*
X140691959Y-91085246D01*
X140871763Y-92298785D01*
X140869585Y-92307471D01*
X140863873Y-92311605D01*
X139292740Y-92832890D01*
X139283809Y-92832243D01*
X139280783Y-92830058D01*
X138937475Y-92486750D01*
X138934048Y-92478477D01*
X138934664Y-92474731D01*
X139471973Y-90887525D01*
X139477870Y-90880790D01*
X139484938Y-90879732D01*
X140682272Y-91075414D01*
G37*
%TD.AperFunction*%
%TD*%
%TA.AperFunction,Conductor*%
%TO.N,/Input power with filter/HV_GND*%
G36*
X98848563Y-103003427D02*
G01*
X98851790Y-103009544D01*
X98997408Y-103786179D01*
X98995564Y-103794942D01*
X98988064Y-103799835D01*
X98985937Y-103800035D01*
X98600029Y-103800999D01*
X98599971Y-103800999D01*
X98214062Y-103800035D01*
X98205797Y-103796587D01*
X98202391Y-103788306D01*
X98202591Y-103786179D01*
X98348210Y-103009544D01*
X98353103Y-103002044D01*
X98359710Y-103000000D01*
X98840290Y-103000000D01*
X98848563Y-103003427D01*
G37*
%TD.AperFunction*%
%TD*%
%TA.AperFunction,Conductor*%
%TO.N,/Input power with filter/HV_GND*%
G36*
X120356902Y-73054045D02*
G01*
X121342020Y-73774136D01*
X121346677Y-73781784D01*
X121345582Y-73788810D01*
X120603233Y-75274539D01*
X120596470Y-75280409D01*
X120592767Y-75281010D01*
X120107233Y-75281010D01*
X120098960Y-75277583D01*
X120096767Y-75274539D01*
X119354417Y-73788810D01*
X119353784Y-73779878D01*
X119357976Y-73774138D01*
X120343097Y-73054045D01*
X120351797Y-73051931D01*
X120356902Y-73054045D01*
G37*
%TD.AperFunction*%
%TD*%
%TA.AperFunction,Conductor*%
%TO.N,/Input power with filter/HV_GND*%
G36*
X123450188Y-89203427D02*
G01*
X123452859Y-89207563D01*
X123935099Y-90483258D01*
X123934819Y-90492208D01*
X123928645Y-90498199D01*
X123204490Y-90799134D01*
X123195536Y-90799144D01*
X122471353Y-90498198D01*
X122465029Y-90491860D01*
X122464900Y-90483260D01*
X122947141Y-89207562D01*
X122953272Y-89201036D01*
X122958085Y-89200000D01*
X123441915Y-89200000D01*
X123450188Y-89203427D01*
G37*
%TD.AperFunction*%
%TD*%
%TA.AperFunction,Conductor*%
%TO.N,Net-(D3-K)*%
G36*
X135694289Y-114035479D02*
G01*
X135701707Y-114040495D01*
X135702941Y-114042948D01*
X136097314Y-115129125D01*
X136096916Y-115138071D01*
X136093089Y-115142658D01*
X134614504Y-116192438D01*
X134605775Y-116194433D01*
X134599458Y-116191171D01*
X133904883Y-115496596D01*
X133901456Y-115488323D01*
X133902358Y-115483818D01*
X134044677Y-115142658D01*
X134596293Y-113820349D01*
X134602639Y-113814036D01*
X134609433Y-113813395D01*
X135694289Y-114035479D01*
G37*
%TD.AperFunction*%
%TD*%
%TA.AperFunction,Conductor*%
%TO.N,Net-(D3-K)*%
G36*
X132757764Y-116644186D02*
G01*
X133451237Y-117337659D01*
X133454664Y-117345932D01*
X133451655Y-117353765D01*
X132423924Y-118494042D01*
X132415840Y-118497893D01*
X132407400Y-118494900D01*
X132406970Y-118494492D01*
X131850951Y-117939861D01*
X131848400Y-117936045D01*
X131548131Y-117208757D01*
X131548142Y-117199805D01*
X131554024Y-117193681D01*
X132744573Y-116641843D01*
X132753518Y-116641474D01*
X132757764Y-116644186D01*
G37*
%TD.AperFunction*%
%TD*%
%TA.AperFunction,Conductor*%
%TO.N,Net-(D3-K)*%
G36*
X135952423Y-111940927D02*
G01*
X135953510Y-111942180D01*
X136694201Y-112929768D01*
X136696423Y-112938443D01*
X136693502Y-112944654D01*
X135708661Y-114028964D01*
X135700562Y-114032785D01*
X135692134Y-114029759D01*
X135691339Y-114028964D01*
X135465449Y-113780259D01*
X134706496Y-112944652D01*
X134703471Y-112936226D01*
X134705797Y-112929770D01*
X135446490Y-111942180D01*
X135454195Y-111937618D01*
X135455850Y-111937500D01*
X135944150Y-111937500D01*
X135952423Y-111940927D01*
G37*
%TD.AperFunction*%
%TD*%
%TA.AperFunction,Conductor*%
%TO.N,Net-(D3-K)*%
G36*
X131108113Y-112406085D02*
G01*
X132095320Y-113146490D01*
X132099882Y-113154195D01*
X132100000Y-113155850D01*
X132100000Y-113644150D01*
X132096573Y-113652423D01*
X132095320Y-113653510D01*
X131108113Y-114393914D01*
X131099438Y-114396136D01*
X131092824Y-114392831D01*
X130719379Y-114019760D01*
X130107284Y-113408276D01*
X130103854Y-113400006D01*
X130107277Y-113391731D01*
X130107285Y-113391723D01*
X130343394Y-113155850D01*
X131092825Y-112407167D01*
X131101099Y-112403745D01*
X131108113Y-112406085D01*
G37*
%TD.AperFunction*%
%TD*%
%TA.AperFunction,Conductor*%
%TO.N,Net-(D3-K)*%
G36*
X134602594Y-112940451D02*
G01*
X134604490Y-112941986D01*
X135690746Y-114027255D01*
X135694177Y-114035527D01*
X135690754Y-114043801D01*
X135688824Y-114045361D01*
X134608326Y-114743070D01*
X134599517Y-114744679D01*
X134593327Y-114741117D01*
X133603048Y-113653348D01*
X133600000Y-113645472D01*
X133600000Y-113159474D01*
X133603427Y-113151201D01*
X133609266Y-113148030D01*
X134593791Y-112938819D01*
X134602594Y-112940451D01*
G37*
%TD.AperFunction*%
%TD*%
%TA.AperFunction,Conductor*%
%TO.N,Net-(D3-K)*%
G36*
X154994942Y-108604435D02*
G01*
X154999835Y-108611935D01*
X155000035Y-108614062D01*
X155001000Y-109000000D01*
X155001000Y-109000058D01*
X155000035Y-109385937D01*
X154996587Y-109394202D01*
X154988306Y-109397608D01*
X154986179Y-109397408D01*
X154209544Y-109251789D01*
X154202044Y-109246896D01*
X154200000Y-109240289D01*
X154200000Y-108759710D01*
X154203427Y-108751437D01*
X154209542Y-108748210D01*
X154986180Y-108602591D01*
X154994942Y-108604435D01*
G37*
%TD.AperFunction*%
%TD*%
%TA.AperFunction,Conductor*%
%TO.N,Net-(D4-K)*%
G36*
X132008268Y-87707278D02*
G01*
X132008278Y-87707288D01*
X132794679Y-88494672D01*
X132798101Y-88502947D01*
X132797356Y-88507048D01*
X132502847Y-89292408D01*
X132496734Y-89298951D01*
X132491892Y-89300000D01*
X131508108Y-89300000D01*
X131499835Y-89296573D01*
X131497153Y-89292408D01*
X131202643Y-88507048D01*
X131202947Y-88498099D01*
X131205316Y-88494676D01*
X131991722Y-87707287D01*
X131999993Y-87703856D01*
X132008268Y-87707278D01*
G37*
%TD.AperFunction*%
%TD*%
%TA.AperFunction,Conductor*%
%TO.N,Net-(D4-K)*%
G36*
X132501277Y-93903427D02*
G01*
X132503311Y-93906163D01*
X133034077Y-94894202D01*
X133034973Y-94903112D01*
X133033853Y-94905673D01*
X132104503Y-96484852D01*
X132097354Y-96490244D01*
X132088486Y-96489001D01*
X132084662Y-96485373D01*
X132014269Y-96378967D01*
X131039462Y-94905450D01*
X131037756Y-94896662D01*
X131038605Y-94894077D01*
X131496856Y-93906774D01*
X131503448Y-93900713D01*
X131507469Y-93900000D01*
X132493004Y-93900000D01*
X132501277Y-93903427D01*
G37*
%TD.AperFunction*%
%TD*%
%TA.AperFunction,Conductor*%
%TO.N,Net-(D6-A)*%
G36*
X126708268Y-90807278D02*
G01*
X126708278Y-90807288D01*
X127494679Y-91594672D01*
X127498101Y-91602947D01*
X127497356Y-91607048D01*
X127202847Y-92392408D01*
X127196734Y-92398951D01*
X127191892Y-92400000D01*
X126208108Y-92400000D01*
X126199835Y-92396573D01*
X126197153Y-92392408D01*
X125902643Y-91607048D01*
X125902947Y-91598099D01*
X125905316Y-91594676D01*
X126691722Y-90807287D01*
X126699993Y-90803856D01*
X126708268Y-90807278D01*
G37*
%TD.AperFunction*%
%TD*%
%TA.AperFunction,Conductor*%
%TO.N,Net-(D6-A)*%
G36*
X130170072Y-101416815D02*
G01*
X130170155Y-101417011D01*
X130509135Y-102233012D01*
X130509144Y-102241966D01*
X130509135Y-102241988D01*
X130169891Y-103058625D01*
X130163552Y-103064951D01*
X130155049Y-103065118D01*
X128727609Y-102540317D01*
X128721026Y-102534246D01*
X128719946Y-102529336D01*
X128719946Y-102045157D01*
X128723373Y-102036884D01*
X128726961Y-102034435D01*
X130154667Y-101410776D01*
X130163620Y-101410606D01*
X130170072Y-101416815D01*
G37*
%TD.AperFunction*%
%TD*%
%TA.AperFunction,Conductor*%
%TO.N,/Input power with filter/PFC_VCC*%
G36*
X104008178Y-75206995D02*
G01*
X104506397Y-75694101D01*
X104509917Y-75702335D01*
X104508683Y-75707700D01*
X104253234Y-76218533D01*
X104246468Y-76224400D01*
X104242769Y-76225000D01*
X103757231Y-76225000D01*
X103748958Y-76221573D01*
X103746766Y-76218533D01*
X103491316Y-75707700D01*
X103490681Y-75698768D01*
X103493600Y-75694103D01*
X103991821Y-75206995D01*
X104000132Y-75203663D01*
X104008178Y-75206995D01*
G37*
%TD.AperFunction*%
%TD*%
%TA.AperFunction,Conductor*%
%TO.N,/Input power with filter/PFC_VCC*%
G36*
X97391036Y-98011565D02*
G01*
X97712039Y-98282217D01*
X97933289Y-98468764D01*
X97937405Y-98476717D01*
X97934692Y-98485251D01*
X97934020Y-98485982D01*
X97594262Y-98825740D01*
X97585989Y-98829167D01*
X97582939Y-98828763D01*
X96959752Y-98660514D01*
X96952658Y-98655049D01*
X96951506Y-98646168D01*
X96951978Y-98644777D01*
X97098396Y-98288970D01*
X97100964Y-98285130D01*
X97375245Y-98012216D01*
X97383525Y-98008811D01*
X97391036Y-98011565D01*
G37*
%TD.AperFunction*%
%TD*%
%TA.AperFunction,Conductor*%
%TO.N,/Input power with filter/PFC_VCC*%
G36*
X117777694Y-105875405D02*
G01*
X117777941Y-105875645D01*
X118117290Y-106214994D01*
X118120717Y-106223267D01*
X118117290Y-106231540D01*
X118115001Y-106233321D01*
X117414664Y-106650152D01*
X117405802Y-106651439D01*
X117398626Y-106646082D01*
X117397881Y-106644600D01*
X117250198Y-106290378D01*
X117249297Y-106285855D01*
X117249403Y-106225629D01*
X117249979Y-105898837D01*
X117253420Y-105890573D01*
X117261333Y-105887166D01*
X117769325Y-105872223D01*
X117777694Y-105875405D01*
G37*
%TD.AperFunction*%
%TD*%
%TA.AperFunction,Conductor*%
%TO.N,/Input power with filter/PFC_VCC*%
G36*
X116395775Y-113164404D02*
G01*
X116735595Y-113504224D01*
X116739022Y-113512497D01*
X116736978Y-113519104D01*
X116290783Y-114171237D01*
X116283283Y-114176130D01*
X116274520Y-114174286D01*
X116272875Y-114172924D01*
X115999293Y-113900707D01*
X115999251Y-113900665D01*
X115727075Y-113627124D01*
X115723669Y-113618843D01*
X115727117Y-113610578D01*
X115728756Y-113609220D01*
X116380895Y-113163020D01*
X116389658Y-113161177D01*
X116395775Y-113164404D01*
G37*
%TD.AperFunction*%
%TD*%
%TA.AperFunction,Conductor*%
%TO.N,Net-(D3-A)*%
G36*
X139927977Y-105354026D02*
G01*
X139932416Y-105357468D01*
X140685733Y-106310835D01*
X140688173Y-106319451D01*
X140686294Y-106324571D01*
X140009174Y-107342170D01*
X140001738Y-107347159D01*
X139996288Y-107346957D01*
X138466188Y-106919887D01*
X138459140Y-106914362D01*
X138457633Y-106908618D01*
X138457633Y-105925527D01*
X138461060Y-105917254D01*
X138465120Y-105914611D01*
X139919026Y-105353806D01*
X139927977Y-105354026D01*
G37*
%TD.AperFunction*%
%TD*%
%TA.AperFunction,Conductor*%
%TO.N,Net-(D3-A)*%
G36*
X137791684Y-105914987D02*
G01*
X137798613Y-105920661D01*
X137800000Y-105926187D01*
X137800000Y-106908812D01*
X137796573Y-106917085D01*
X137791684Y-106920012D01*
X136155163Y-107414518D01*
X136146253Y-107413631D01*
X136141096Y-107408087D01*
X135701126Y-106422265D01*
X135700884Y-106413317D01*
X135701114Y-106412762D01*
X136141096Y-105426911D01*
X136147596Y-105420754D01*
X136155162Y-105420481D01*
X137791684Y-105914987D01*
G37*
%TD.AperFunction*%
%TD*%
%TA.AperFunction,Conductor*%
%TO.N,Net-(D6-K)*%
G36*
X134474333Y-100656344D02*
G01*
X134480502Y-100662835D01*
X134481282Y-100667036D01*
X134481282Y-101147959D01*
X134480592Y-101151918D01*
X133954217Y-102615792D01*
X133948193Y-102622418D01*
X133939248Y-102622843D01*
X133938559Y-102622570D01*
X133053455Y-102239428D01*
X133047224Y-102232997D01*
X133047219Y-102232983D01*
X132698444Y-101348476D01*
X132698597Y-101339522D01*
X132705036Y-101333300D01*
X132705107Y-101333271D01*
X134465383Y-100656116D01*
X134474333Y-100656344D01*
G37*
%TD.AperFunction*%
%TD*%
%TA.AperFunction,Conductor*%
%TO.N,Net-(D6-K)*%
G36*
X135093398Y-100393602D02*
G01*
X135580503Y-100891821D01*
X135583836Y-100900132D01*
X135580503Y-100908179D01*
X135093398Y-101406397D01*
X135085164Y-101409917D01*
X135079799Y-101408683D01*
X134568967Y-101153233D01*
X134563100Y-101146467D01*
X134562500Y-101142768D01*
X134562500Y-100657231D01*
X134565927Y-100648958D01*
X134568967Y-100646766D01*
X135079801Y-100391315D01*
X135088731Y-100390681D01*
X135093398Y-100393602D01*
G37*
%TD.AperFunction*%
%TD*%
%TA.AperFunction,Conductor*%
%TO.N,Net-(K1-Pad5)*%
G36*
X107494159Y-72174262D02*
G01*
X108345009Y-73043877D01*
X108348345Y-73052187D01*
X108346972Y-73057560D01*
X107770863Y-74138889D01*
X107763948Y-74144580D01*
X107756923Y-74144516D01*
X106165392Y-73627626D01*
X106158582Y-73621811D01*
X106157306Y-73616498D01*
X106157306Y-73130991D01*
X106160733Y-73122718D01*
X106162164Y-73121500D01*
X107478958Y-72172950D01*
X107487673Y-72170896D01*
X107494159Y-72174262D01*
G37*
%TD.AperFunction*%
%TD*%
%TA.AperFunction,Conductor*%
%TO.N,Net-(K1-Pad5)*%
G36*
X104552289Y-72883946D02*
G01*
X105204813Y-73122193D01*
X105211409Y-73128249D01*
X105212500Y-73133183D01*
X105212500Y-73616816D01*
X105209073Y-73625089D01*
X105204813Y-73627806D01*
X104552292Y-73866052D01*
X104543345Y-73865671D01*
X104540439Y-73863747D01*
X104008621Y-73383685D01*
X104004776Y-73375598D01*
X104007776Y-73367160D01*
X104008621Y-73366315D01*
X104275952Y-73125000D01*
X104540440Y-72886251D01*
X104548877Y-72883252D01*
X104552289Y-72883946D01*
G37*
%TD.AperFunction*%
%TD*%
%TA.AperFunction,Conductor*%
%TO.N,Net-(R6-Pad1)*%
G36*
X124703476Y-121693911D02*
G01*
X124706721Y-121700129D01*
X124987548Y-123273762D01*
X124985628Y-123282508D01*
X124978085Y-123287335D01*
X124976045Y-123287517D01*
X124190015Y-123288499D01*
X124189985Y-123288499D01*
X123404214Y-123287517D01*
X123395946Y-123284080D01*
X123392529Y-123275802D01*
X123392749Y-123273562D01*
X123703139Y-121699920D01*
X123708102Y-121692466D01*
X123714618Y-121690484D01*
X124695203Y-121690484D01*
X124703476Y-121693911D01*
G37*
%TD.AperFunction*%
%TD*%
%TA.AperFunction,Conductor*%
%TO.N,Net-(R6-Pad1)*%
G36*
X124232158Y-117937397D02*
G01*
X124960196Y-118239945D01*
X124966520Y-118246283D01*
X124967167Y-118253097D01*
X124706916Y-119523176D01*
X124701898Y-119530592D01*
X124695454Y-119532527D01*
X123714856Y-119532527D01*
X123706583Y-119529100D01*
X123703326Y-119522815D01*
X123484412Y-118253097D01*
X123432356Y-117951167D01*
X123434327Y-117942435D01*
X123441898Y-117937652D01*
X123443863Y-117937482D01*
X124227662Y-117936502D01*
X124232158Y-117937397D01*
G37*
%TD.AperFunction*%
%TD*%
M02*
