M48
; DRILL file {KiCad 7.0.8-7.0.8~ubuntu22.04.1} date Ср 18 окт 2023 11:11:42
; FORMAT={-:-/ absolute / inch / decimal}
; #@! TF.CreationDate,2023-10-18T11:11:42+03:00
; #@! TF.GenerationSoftware,Kicad,Pcbnew,7.0.8-7.0.8~ubuntu22.04.1
; #@! TF.FileFunction,Plated,1,2,PTH
FMAT,2
INCH
; #@! TA.AperFunction,Plated,PTH,ViaDrill
T1C0.0157
; #@! TA.AperFunction,Plated,PTH,ComponentDrill
T2C0.0315
; #@! TA.AperFunction,Plated,PTH,ComponentDrill
T3C0.0354
; #@! TA.AperFunction,Plated,PTH,ComponentDrill
T4C0.0394
; #@! TA.AperFunction,Plated,PTH,ComponentDrill
T5C0.0433
; #@! TA.AperFunction,Plated,PTH,ComponentDrill
T6C0.0472
; #@! TA.AperFunction,Plated,PTH,ComponentDrill
T7C0.0512
; #@! TA.AperFunction,Plated,PTH,ComponentDrill
T8C0.0551
; #@! TA.AperFunction,Plated,PTH,ComponentDrill
T9C0.0591
; #@! TA.AperFunction,Plated,PTH,ComponentDrill
T10C0.0630
; #@! TA.AperFunction,Plated,PTH,ComponentDrill
T11C0.0827
%
G90
G05
T1
X3.7008Y-3.8937
X3.8228Y-3.8696
X3.8819Y-4.0866
X3.9134Y-4.6255
X4.5669Y-4.4843
X4.6161Y-4.1845
X6.1024Y-4.2913
T2
X4.2067Y-2.124
X4.313Y-1.8287
X4.4587Y-2.124
X4.565Y-1.8287
X4.6654Y-4.557
X4.6654Y-4.657
X4.7067Y-2.124
X4.813Y-1.8287
X4.8504Y-3.5748
X4.8894Y-4.8538
X4.8909Y-4.6432
X4.9882Y-3.5748
X5.1894Y-4.8538
X5.1909Y-4.6432
X5.1969Y-3.4528
X5.3346Y-3.4528
X5.4134Y-4.7634
X5.4134Y-5.0634
X5.5591Y-4.7948
X5.5591Y-4.9916
X6.0994Y-3.5039
X6.0994Y-3.8039
X6.1994Y-3.5039
X6.1994Y-3.8039
T3
X4.8228Y-4.1589
X4.8228Y-4.2589
X5.1382Y-4.0251
X5.2382Y-4.0251
T4
X4.2657Y-2.876
X4.7382Y-2.876
T5
X3.2222Y-3.9906
X3.2222Y-4.0906
X3.2222Y-4.1906
X3.4433Y-4.9347
X3.6433Y-4.9347
X5.3425Y-4.1897
X5.3425Y-4.4897
X5.7756Y-4.7555
X5.7756Y-5.0555
X6.0913Y-4.9055
X6.1913Y-4.9055
X6.2913Y-4.9055
T6
X2.7213Y-3.3543
X3.0166Y-3.3543
X5.0118Y-1.8189
X5.0118Y-2.4094
X5.9365Y-5.3386
X6.2318Y-5.3386
T7
X4.2638Y-2.3937
X4.5Y-2.9528
X4.7382Y-2.3957
T8
X2.9997Y-2.7354
X3.1997Y-2.7354
X3.3997Y-2.7354
X3.5997Y-2.7354
X5.0433Y-2.7093
X5.0433Y-2.9994
T9
X2.6083Y-3.9582
T10
X3.4843Y-3.2074
X3.4843Y-3.4074
X3.4843Y-3.6074
X3.4843Y-3.8074
X3.4843Y-4.0074
X3.4843Y-4.2074
X3.4843Y-4.4074
X4.3843Y-3.2074
X4.3843Y-3.4074
X4.3843Y-3.6074
X4.3843Y-3.8074
X4.3843Y-4.0074
X4.3843Y-4.2074
X4.3843Y-4.4074
X5.2006Y-3.7992
X5.3506Y-3.7992
X5.539Y-3.3857
X5.539Y-3.5857
X5.539Y-3.7857
X5.539Y-3.9857
X5.539Y-4.1857
X5.539Y-4.3857
X5.539Y-4.5857
X6.339Y-3.3857
X6.339Y-3.5857
X6.339Y-3.7857
X6.339Y-3.9857
X6.339Y-4.1857
X6.339Y-4.3857
X6.339Y-4.5857
T11
X2.7047Y-4.2283
X2.7047Y-4.4646
X4.5984Y-3.7677
X4.7441Y-5.1393
X4.9803Y-5.1393
X5.0Y-5.346
X5.0Y-5.5822
X5.3346Y-1.8701
X5.3346Y-2.1772
X5.3346Y-2.4843
T0
M30
