%TF.GenerationSoftware,KiCad,Pcbnew,7.0.6-7.0.6~ubuntu22.04.1*%
%TF.CreationDate,2023-08-07T15:18:18+03:00*%
%TF.ProjectId,supply-uv,73757070-6c79-42d7-9576-2e6b69636164,rev?*%
%TF.SameCoordinates,Original*%
%TF.FileFunction,Legend,Bot*%
%TF.FilePolarity,Positive*%
%FSLAX46Y46*%
G04 Gerber Fmt 4.6, Leading zero omitted, Abs format (unit mm)*
G04 Created by KiCad (PCBNEW 7.0.6-7.0.6~ubuntu22.04.1) date 2023-08-07 15:18:18*
%MOMM*%
%LPD*%
G01*
G04 APERTURE LIST*
%ADD10C,0.150000*%
%ADD11C,0.300000*%
%ADD12C,0.120000*%
G04 APERTURE END LIST*
D10*
X139300000Y-93800000D02*
X140950000Y-93800000D01*
X141550000Y-93800000D02*
X141550000Y-93800000D01*
X142150000Y-93800000D02*
X142400000Y-93800000D01*
X142400000Y-93800000D02*
X142400000Y-95450000D01*
X142400000Y-96050000D02*
X142400000Y-96050000D01*
X142400000Y-96650000D02*
X142400000Y-98300000D01*
X142400000Y-98900000D02*
X142400000Y-98900000D01*
X142400000Y-99400000D02*
X140750000Y-99400000D01*
X140150000Y-99400000D02*
X140150000Y-99400000D01*
X139550000Y-99400000D02*
X139300000Y-99400000D01*
X139300000Y-99400000D02*
X139300000Y-97750000D01*
X139300000Y-97150000D02*
X139300000Y-97150000D01*
X139300000Y-96550000D02*
X139300000Y-94900000D01*
X139300000Y-94300000D02*
X139300000Y-94300000D01*
X101600000Y-96687500D02*
X103250000Y-96687500D01*
X103850000Y-96687500D02*
X103850000Y-96687500D01*
X104450000Y-96687500D02*
X106000000Y-96687500D01*
X106000000Y-96687500D02*
X106000000Y-98337500D01*
X106000000Y-98937500D02*
X106000000Y-98937500D01*
X106000000Y-99537500D02*
X106000000Y-101187500D01*
X106000000Y-101787500D02*
X106000000Y-101787500D01*
X106000000Y-102087500D02*
X104350000Y-102087500D01*
X103750000Y-102087500D02*
X103750000Y-102087500D01*
X103150000Y-102087500D02*
X101600000Y-102087500D01*
X101600000Y-102087500D02*
X101600000Y-100437500D01*
X101600000Y-99837500D02*
X101600000Y-99837500D01*
X101600000Y-99237500D02*
X101600000Y-97587500D01*
X101600000Y-96987500D02*
X101600000Y-96987500D01*
D11*
X85116917Y-52829400D02*
X84902632Y-52900828D01*
X84902632Y-52900828D02*
X84545489Y-52900828D01*
X84545489Y-52900828D02*
X84402632Y-52829400D01*
X84402632Y-52829400D02*
X84331203Y-52757971D01*
X84331203Y-52757971D02*
X84259774Y-52615114D01*
X84259774Y-52615114D02*
X84259774Y-52472257D01*
X84259774Y-52472257D02*
X84331203Y-52329400D01*
X84331203Y-52329400D02*
X84402632Y-52257971D01*
X84402632Y-52257971D02*
X84545489Y-52186542D01*
X84545489Y-52186542D02*
X84831203Y-52115114D01*
X84831203Y-52115114D02*
X84974060Y-52043685D01*
X84974060Y-52043685D02*
X85045489Y-51972257D01*
X85045489Y-51972257D02*
X85116917Y-51829400D01*
X85116917Y-51829400D02*
X85116917Y-51686542D01*
X85116917Y-51686542D02*
X85045489Y-51543685D01*
X85045489Y-51543685D02*
X84974060Y-51472257D01*
X84974060Y-51472257D02*
X84831203Y-51400828D01*
X84831203Y-51400828D02*
X84474060Y-51400828D01*
X84474060Y-51400828D02*
X84259774Y-51472257D01*
X82974061Y-51900828D02*
X82974061Y-52900828D01*
X83616918Y-51900828D02*
X83616918Y-52686542D01*
X83616918Y-52686542D02*
X83545489Y-52829400D01*
X83545489Y-52829400D02*
X83402632Y-52900828D01*
X83402632Y-52900828D02*
X83188346Y-52900828D01*
X83188346Y-52900828D02*
X83045489Y-52829400D01*
X83045489Y-52829400D02*
X82974061Y-52757971D01*
X82259775Y-51900828D02*
X82259775Y-53400828D01*
X82259775Y-51972257D02*
X82116918Y-51900828D01*
X82116918Y-51900828D02*
X81831203Y-51900828D01*
X81831203Y-51900828D02*
X81688346Y-51972257D01*
X81688346Y-51972257D02*
X81616918Y-52043685D01*
X81616918Y-52043685D02*
X81545489Y-52186542D01*
X81545489Y-52186542D02*
X81545489Y-52615114D01*
X81545489Y-52615114D02*
X81616918Y-52757971D01*
X81616918Y-52757971D02*
X81688346Y-52829400D01*
X81688346Y-52829400D02*
X81831203Y-52900828D01*
X81831203Y-52900828D02*
X82116918Y-52900828D01*
X82116918Y-52900828D02*
X82259775Y-52829400D01*
X80902632Y-51900828D02*
X80902632Y-53400828D01*
X80902632Y-51972257D02*
X80759775Y-51900828D01*
X80759775Y-51900828D02*
X80474060Y-51900828D01*
X80474060Y-51900828D02*
X80331203Y-51972257D01*
X80331203Y-51972257D02*
X80259775Y-52043685D01*
X80259775Y-52043685D02*
X80188346Y-52186542D01*
X80188346Y-52186542D02*
X80188346Y-52615114D01*
X80188346Y-52615114D02*
X80259775Y-52757971D01*
X80259775Y-52757971D02*
X80331203Y-52829400D01*
X80331203Y-52829400D02*
X80474060Y-52900828D01*
X80474060Y-52900828D02*
X80759775Y-52900828D01*
X80759775Y-52900828D02*
X80902632Y-52829400D01*
X79331203Y-52900828D02*
X79474060Y-52829400D01*
X79474060Y-52829400D02*
X79545489Y-52686542D01*
X79545489Y-52686542D02*
X79545489Y-51400828D01*
X78902632Y-51900828D02*
X78545489Y-52900828D01*
X78188346Y-51900828D02*
X78545489Y-52900828D01*
X78545489Y-52900828D02*
X78688346Y-53257971D01*
X78688346Y-53257971D02*
X78759775Y-53329400D01*
X78759775Y-53329400D02*
X78902632Y-53400828D01*
X76474061Y-52900828D02*
X76474061Y-51400828D01*
X76474061Y-51972257D02*
X76331204Y-51900828D01*
X76331204Y-51900828D02*
X76045489Y-51900828D01*
X76045489Y-51900828D02*
X75902632Y-51972257D01*
X75902632Y-51972257D02*
X75831204Y-52043685D01*
X75831204Y-52043685D02*
X75759775Y-52186542D01*
X75759775Y-52186542D02*
X75759775Y-52615114D01*
X75759775Y-52615114D02*
X75831204Y-52757971D01*
X75831204Y-52757971D02*
X75902632Y-52829400D01*
X75902632Y-52829400D02*
X76045489Y-52900828D01*
X76045489Y-52900828D02*
X76331204Y-52900828D01*
X76331204Y-52900828D02*
X76474061Y-52829400D01*
X74902632Y-52900828D02*
X75045489Y-52829400D01*
X75045489Y-52829400D02*
X75116918Y-52757971D01*
X75116918Y-52757971D02*
X75188346Y-52615114D01*
X75188346Y-52615114D02*
X75188346Y-52186542D01*
X75188346Y-52186542D02*
X75116918Y-52043685D01*
X75116918Y-52043685D02*
X75045489Y-51972257D01*
X75045489Y-51972257D02*
X74902632Y-51900828D01*
X74902632Y-51900828D02*
X74688346Y-51900828D01*
X74688346Y-51900828D02*
X74545489Y-51972257D01*
X74545489Y-51972257D02*
X74474061Y-52043685D01*
X74474061Y-52043685D02*
X74402632Y-52186542D01*
X74402632Y-52186542D02*
X74402632Y-52615114D01*
X74402632Y-52615114D02*
X74474061Y-52757971D01*
X74474061Y-52757971D02*
X74545489Y-52829400D01*
X74545489Y-52829400D02*
X74688346Y-52900828D01*
X74688346Y-52900828D02*
X74902632Y-52900828D01*
X73116918Y-52900828D02*
X73116918Y-52115114D01*
X73116918Y-52115114D02*
X73188346Y-51972257D01*
X73188346Y-51972257D02*
X73331203Y-51900828D01*
X73331203Y-51900828D02*
X73616918Y-51900828D01*
X73616918Y-51900828D02*
X73759775Y-51972257D01*
X73116918Y-52829400D02*
X73259775Y-52900828D01*
X73259775Y-52900828D02*
X73616918Y-52900828D01*
X73616918Y-52900828D02*
X73759775Y-52829400D01*
X73759775Y-52829400D02*
X73831203Y-52686542D01*
X73831203Y-52686542D02*
X73831203Y-52543685D01*
X73831203Y-52543685D02*
X73759775Y-52400828D01*
X73759775Y-52400828D02*
X73616918Y-52329400D01*
X73616918Y-52329400D02*
X73259775Y-52329400D01*
X73259775Y-52329400D02*
X73116918Y-52257971D01*
X72402632Y-52900828D02*
X72402632Y-51900828D01*
X72402632Y-52186542D02*
X72331203Y-52043685D01*
X72331203Y-52043685D02*
X72259775Y-51972257D01*
X72259775Y-51972257D02*
X72116917Y-51900828D01*
X72116917Y-51900828D02*
X71974060Y-51900828D01*
X70831204Y-52900828D02*
X70831204Y-51400828D01*
X70831204Y-52829400D02*
X70974061Y-52900828D01*
X70974061Y-52900828D02*
X71259775Y-52900828D01*
X71259775Y-52900828D02*
X71402632Y-52829400D01*
X71402632Y-52829400D02*
X71474061Y-52757971D01*
X71474061Y-52757971D02*
X71545489Y-52615114D01*
X71545489Y-52615114D02*
X71545489Y-52186542D01*
X71545489Y-52186542D02*
X71474061Y-52043685D01*
X71474061Y-52043685D02*
X71402632Y-51972257D01*
X71402632Y-51972257D02*
X71259775Y-51900828D01*
X71259775Y-51900828D02*
X70974061Y-51900828D01*
X70974061Y-51900828D02*
X70831204Y-51972257D01*
X70188346Y-51900828D02*
X69116918Y-51900828D01*
X69759775Y-51257971D02*
X70188346Y-53186542D01*
X69259775Y-52543685D02*
X70331203Y-52543685D01*
X69688346Y-53186542D02*
X69259775Y-51257971D01*
X67831203Y-52900828D02*
X68688346Y-52900828D01*
X68259775Y-52900828D02*
X68259775Y-51400828D01*
X68259775Y-51400828D02*
X68402632Y-51615114D01*
X68402632Y-51615114D02*
X68545489Y-51757971D01*
X68545489Y-51757971D02*
X68688346Y-51829400D01*
X66188347Y-51900828D02*
X65831204Y-52900828D01*
X65831204Y-52900828D02*
X65474061Y-51900828D01*
X64116918Y-52900828D02*
X64974061Y-52900828D01*
X64545490Y-52900828D02*
X64545490Y-51400828D01*
X64545490Y-51400828D02*
X64688347Y-51615114D01*
X64688347Y-51615114D02*
X64831204Y-51757971D01*
X64831204Y-51757971D02*
X64974061Y-51829400D01*
X63474062Y-52757971D02*
X63402633Y-52829400D01*
X63402633Y-52829400D02*
X63474062Y-52900828D01*
X63474062Y-52900828D02*
X63545490Y-52829400D01*
X63545490Y-52829400D02*
X63474062Y-52757971D01*
X63474062Y-52757971D02*
X63474062Y-52900828D01*
X62474061Y-51400828D02*
X62331204Y-51400828D01*
X62331204Y-51400828D02*
X62188347Y-51472257D01*
X62188347Y-51472257D02*
X62116919Y-51543685D01*
X62116919Y-51543685D02*
X62045490Y-51686542D01*
X62045490Y-51686542D02*
X61974061Y-51972257D01*
X61974061Y-51972257D02*
X61974061Y-52329400D01*
X61974061Y-52329400D02*
X62045490Y-52615114D01*
X62045490Y-52615114D02*
X62116919Y-52757971D01*
X62116919Y-52757971D02*
X62188347Y-52829400D01*
X62188347Y-52829400D02*
X62331204Y-52900828D01*
X62331204Y-52900828D02*
X62474061Y-52900828D01*
X62474061Y-52900828D02*
X62616919Y-52829400D01*
X62616919Y-52829400D02*
X62688347Y-52757971D01*
X62688347Y-52757971D02*
X62759776Y-52615114D01*
X62759776Y-52615114D02*
X62831204Y-52329400D01*
X62831204Y-52329400D02*
X62831204Y-51972257D01*
X62831204Y-51972257D02*
X62759776Y-51686542D01*
X62759776Y-51686542D02*
X62688347Y-51543685D01*
X62688347Y-51543685D02*
X62616919Y-51472257D01*
X62616919Y-51472257D02*
X62474061Y-51400828D01*
D10*
X92416666Y-106597080D02*
X92464285Y-106644700D01*
X92464285Y-106644700D02*
X92607142Y-106692319D01*
X92607142Y-106692319D02*
X92702380Y-106692319D01*
X92702380Y-106692319D02*
X92845237Y-106644700D01*
X92845237Y-106644700D02*
X92940475Y-106549461D01*
X92940475Y-106549461D02*
X92988094Y-106454223D01*
X92988094Y-106454223D02*
X93035713Y-106263747D01*
X93035713Y-106263747D02*
X93035713Y-106120890D01*
X93035713Y-106120890D02*
X92988094Y-105930414D01*
X92988094Y-105930414D02*
X92940475Y-105835176D01*
X92940475Y-105835176D02*
X92845237Y-105739938D01*
X92845237Y-105739938D02*
X92702380Y-105692319D01*
X92702380Y-105692319D02*
X92607142Y-105692319D01*
X92607142Y-105692319D02*
X92464285Y-105739938D01*
X92464285Y-105739938D02*
X92416666Y-105787557D01*
X91988094Y-106692319D02*
X91988094Y-105692319D01*
X91988094Y-105692319D02*
X91607142Y-105692319D01*
X91607142Y-105692319D02*
X91511904Y-105739938D01*
X91511904Y-105739938D02*
X91464285Y-105787557D01*
X91464285Y-105787557D02*
X91416666Y-105882795D01*
X91416666Y-105882795D02*
X91416666Y-106025652D01*
X91416666Y-106025652D02*
X91464285Y-106120890D01*
X91464285Y-106120890D02*
X91511904Y-106168509D01*
X91511904Y-106168509D02*
X91607142Y-106216128D01*
X91607142Y-106216128D02*
X91988094Y-106216128D01*
X90559523Y-106025652D02*
X90559523Y-106692319D01*
X90797618Y-105644700D02*
X91035713Y-106358985D01*
X91035713Y-106358985D02*
X90416666Y-106358985D01*
X84692857Y-139392319D02*
X85026190Y-138916128D01*
X85264285Y-139392319D02*
X85264285Y-138392319D01*
X85264285Y-138392319D02*
X84883333Y-138392319D01*
X84883333Y-138392319D02*
X84788095Y-138439938D01*
X84788095Y-138439938D02*
X84740476Y-138487557D01*
X84740476Y-138487557D02*
X84692857Y-138582795D01*
X84692857Y-138582795D02*
X84692857Y-138725652D01*
X84692857Y-138725652D02*
X84740476Y-138820890D01*
X84740476Y-138820890D02*
X84788095Y-138868509D01*
X84788095Y-138868509D02*
X84883333Y-138916128D01*
X84883333Y-138916128D02*
X85264285Y-138916128D01*
X84264285Y-139392319D02*
X84264285Y-138392319D01*
X84264285Y-138392319D02*
X83883333Y-138392319D01*
X83883333Y-138392319D02*
X83788095Y-138439938D01*
X83788095Y-138439938D02*
X83740476Y-138487557D01*
X83740476Y-138487557D02*
X83692857Y-138582795D01*
X83692857Y-138582795D02*
X83692857Y-138725652D01*
X83692857Y-138725652D02*
X83740476Y-138820890D01*
X83740476Y-138820890D02*
X83788095Y-138868509D01*
X83788095Y-138868509D02*
X83883333Y-138916128D01*
X83883333Y-138916128D02*
X84264285Y-138916128D01*
X82740476Y-139392319D02*
X83311904Y-139392319D01*
X83026190Y-139392319D02*
X83026190Y-138392319D01*
X83026190Y-138392319D02*
X83121428Y-138535176D01*
X83121428Y-138535176D02*
X83216666Y-138630414D01*
X83216666Y-138630414D02*
X83311904Y-138678033D01*
X81883333Y-138725652D02*
X81883333Y-139392319D01*
X82121428Y-138344700D02*
X82359523Y-139058985D01*
X82359523Y-139058985D02*
X81740476Y-139058985D01*
X118192857Y-104742319D02*
X118526190Y-104266128D01*
X118764285Y-104742319D02*
X118764285Y-103742319D01*
X118764285Y-103742319D02*
X118383333Y-103742319D01*
X118383333Y-103742319D02*
X118288095Y-103789938D01*
X118288095Y-103789938D02*
X118240476Y-103837557D01*
X118240476Y-103837557D02*
X118192857Y-103932795D01*
X118192857Y-103932795D02*
X118192857Y-104075652D01*
X118192857Y-104075652D02*
X118240476Y-104170890D01*
X118240476Y-104170890D02*
X118288095Y-104218509D01*
X118288095Y-104218509D02*
X118383333Y-104266128D01*
X118383333Y-104266128D02*
X118764285Y-104266128D01*
X117240476Y-104742319D02*
X117811904Y-104742319D01*
X117526190Y-104742319D02*
X117526190Y-103742319D01*
X117526190Y-103742319D02*
X117621428Y-103885176D01*
X117621428Y-103885176D02*
X117716666Y-103980414D01*
X117716666Y-103980414D02*
X117811904Y-104028033D01*
X116669047Y-104170890D02*
X116764285Y-104123271D01*
X116764285Y-104123271D02*
X116811904Y-104075652D01*
X116811904Y-104075652D02*
X116859523Y-103980414D01*
X116859523Y-103980414D02*
X116859523Y-103932795D01*
X116859523Y-103932795D02*
X116811904Y-103837557D01*
X116811904Y-103837557D02*
X116764285Y-103789938D01*
X116764285Y-103789938D02*
X116669047Y-103742319D01*
X116669047Y-103742319D02*
X116478571Y-103742319D01*
X116478571Y-103742319D02*
X116383333Y-103789938D01*
X116383333Y-103789938D02*
X116335714Y-103837557D01*
X116335714Y-103837557D02*
X116288095Y-103932795D01*
X116288095Y-103932795D02*
X116288095Y-103980414D01*
X116288095Y-103980414D02*
X116335714Y-104075652D01*
X116335714Y-104075652D02*
X116383333Y-104123271D01*
X116383333Y-104123271D02*
X116478571Y-104170890D01*
X116478571Y-104170890D02*
X116669047Y-104170890D01*
X116669047Y-104170890D02*
X116764285Y-104218509D01*
X116764285Y-104218509D02*
X116811904Y-104266128D01*
X116811904Y-104266128D02*
X116859523Y-104361366D01*
X116859523Y-104361366D02*
X116859523Y-104551842D01*
X116859523Y-104551842D02*
X116811904Y-104647080D01*
X116811904Y-104647080D02*
X116764285Y-104694700D01*
X116764285Y-104694700D02*
X116669047Y-104742319D01*
X116669047Y-104742319D02*
X116478571Y-104742319D01*
X116478571Y-104742319D02*
X116383333Y-104694700D01*
X116383333Y-104694700D02*
X116335714Y-104647080D01*
X116335714Y-104647080D02*
X116288095Y-104551842D01*
X116288095Y-104551842D02*
X116288095Y-104361366D01*
X116288095Y-104361366D02*
X116335714Y-104266128D01*
X116335714Y-104266128D02*
X116383333Y-104218509D01*
X116383333Y-104218509D02*
X116478571Y-104170890D01*
X103892857Y-105092319D02*
X104226190Y-104616128D01*
X104464285Y-105092319D02*
X104464285Y-104092319D01*
X104464285Y-104092319D02*
X104083333Y-104092319D01*
X104083333Y-104092319D02*
X103988095Y-104139938D01*
X103988095Y-104139938D02*
X103940476Y-104187557D01*
X103940476Y-104187557D02*
X103892857Y-104282795D01*
X103892857Y-104282795D02*
X103892857Y-104425652D01*
X103892857Y-104425652D02*
X103940476Y-104520890D01*
X103940476Y-104520890D02*
X103988095Y-104568509D01*
X103988095Y-104568509D02*
X104083333Y-104616128D01*
X104083333Y-104616128D02*
X104464285Y-104616128D01*
X103464285Y-105092319D02*
X103464285Y-104092319D01*
X103464285Y-104092319D02*
X103083333Y-104092319D01*
X103083333Y-104092319D02*
X102988095Y-104139938D01*
X102988095Y-104139938D02*
X102940476Y-104187557D01*
X102940476Y-104187557D02*
X102892857Y-104282795D01*
X102892857Y-104282795D02*
X102892857Y-104425652D01*
X102892857Y-104425652D02*
X102940476Y-104520890D01*
X102940476Y-104520890D02*
X102988095Y-104568509D01*
X102988095Y-104568509D02*
X103083333Y-104616128D01*
X103083333Y-104616128D02*
X103464285Y-104616128D01*
X101940476Y-105092319D02*
X102511904Y-105092319D01*
X102226190Y-105092319D02*
X102226190Y-104092319D01*
X102226190Y-104092319D02*
X102321428Y-104235176D01*
X102321428Y-104235176D02*
X102416666Y-104330414D01*
X102416666Y-104330414D02*
X102511904Y-104378033D01*
X100988095Y-105092319D02*
X101559523Y-105092319D01*
X101273809Y-105092319D02*
X101273809Y-104092319D01*
X101273809Y-104092319D02*
X101369047Y-104235176D01*
X101369047Y-104235176D02*
X101464285Y-104330414D01*
X101464285Y-104330414D02*
X101559523Y-104378033D01*
X97716666Y-92092319D02*
X98049999Y-91616128D01*
X98288094Y-92092319D02*
X98288094Y-91092319D01*
X98288094Y-91092319D02*
X97907142Y-91092319D01*
X97907142Y-91092319D02*
X97811904Y-91139938D01*
X97811904Y-91139938D02*
X97764285Y-91187557D01*
X97764285Y-91187557D02*
X97716666Y-91282795D01*
X97716666Y-91282795D02*
X97716666Y-91425652D01*
X97716666Y-91425652D02*
X97764285Y-91520890D01*
X97764285Y-91520890D02*
X97811904Y-91568509D01*
X97811904Y-91568509D02*
X97907142Y-91616128D01*
X97907142Y-91616128D02*
X98288094Y-91616128D01*
X97288094Y-92092319D02*
X97288094Y-91092319D01*
X97288094Y-91092319D02*
X96907142Y-91092319D01*
X96907142Y-91092319D02*
X96811904Y-91139938D01*
X96811904Y-91139938D02*
X96764285Y-91187557D01*
X96764285Y-91187557D02*
X96716666Y-91282795D01*
X96716666Y-91282795D02*
X96716666Y-91425652D01*
X96716666Y-91425652D02*
X96764285Y-91520890D01*
X96764285Y-91520890D02*
X96811904Y-91568509D01*
X96811904Y-91568509D02*
X96907142Y-91616128D01*
X96907142Y-91616128D02*
X97288094Y-91616128D01*
X95859523Y-91425652D02*
X95859523Y-92092319D01*
X96097618Y-91044700D02*
X96335713Y-91758985D01*
X96335713Y-91758985D02*
X95716666Y-91758985D01*
X149961904Y-97754819D02*
X149961904Y-98564342D01*
X149961904Y-98564342D02*
X149914285Y-98659580D01*
X149914285Y-98659580D02*
X149866666Y-98707200D01*
X149866666Y-98707200D02*
X149771428Y-98754819D01*
X149771428Y-98754819D02*
X149580952Y-98754819D01*
X149580952Y-98754819D02*
X149485714Y-98707200D01*
X149485714Y-98707200D02*
X149438095Y-98659580D01*
X149438095Y-98659580D02*
X149390476Y-98564342D01*
X149390476Y-98564342D02*
X149390476Y-97754819D01*
X148485714Y-98088152D02*
X148485714Y-98754819D01*
X148723809Y-97707200D02*
X148961904Y-98421485D01*
X148961904Y-98421485D02*
X148342857Y-98421485D01*
X152866666Y-107854819D02*
X153199999Y-107378628D01*
X153438094Y-107854819D02*
X153438094Y-106854819D01*
X153438094Y-106854819D02*
X153057142Y-106854819D01*
X153057142Y-106854819D02*
X152961904Y-106902438D01*
X152961904Y-106902438D02*
X152914285Y-106950057D01*
X152914285Y-106950057D02*
X152866666Y-107045295D01*
X152866666Y-107045295D02*
X152866666Y-107188152D01*
X152866666Y-107188152D02*
X152914285Y-107283390D01*
X152914285Y-107283390D02*
X152961904Y-107331009D01*
X152961904Y-107331009D02*
X153057142Y-107378628D01*
X153057142Y-107378628D02*
X153438094Y-107378628D01*
X151961904Y-106854819D02*
X152438094Y-106854819D01*
X152438094Y-106854819D02*
X152485713Y-107331009D01*
X152485713Y-107331009D02*
X152438094Y-107283390D01*
X152438094Y-107283390D02*
X152342856Y-107235771D01*
X152342856Y-107235771D02*
X152104761Y-107235771D01*
X152104761Y-107235771D02*
X152009523Y-107283390D01*
X152009523Y-107283390D02*
X151961904Y-107331009D01*
X151961904Y-107331009D02*
X151914285Y-107426247D01*
X151914285Y-107426247D02*
X151914285Y-107664342D01*
X151914285Y-107664342D02*
X151961904Y-107759580D01*
X151961904Y-107759580D02*
X152009523Y-107807200D01*
X152009523Y-107807200D02*
X152104761Y-107854819D01*
X152104761Y-107854819D02*
X152342856Y-107854819D01*
X152342856Y-107854819D02*
X152438094Y-107807200D01*
X152438094Y-107807200D02*
X152485713Y-107759580D01*
X115892857Y-115992319D02*
X116226190Y-115516128D01*
X116464285Y-115992319D02*
X116464285Y-114992319D01*
X116464285Y-114992319D02*
X116083333Y-114992319D01*
X116083333Y-114992319D02*
X115988095Y-115039938D01*
X115988095Y-115039938D02*
X115940476Y-115087557D01*
X115940476Y-115087557D02*
X115892857Y-115182795D01*
X115892857Y-115182795D02*
X115892857Y-115325652D01*
X115892857Y-115325652D02*
X115940476Y-115420890D01*
X115940476Y-115420890D02*
X115988095Y-115468509D01*
X115988095Y-115468509D02*
X116083333Y-115516128D01*
X116083333Y-115516128D02*
X116464285Y-115516128D01*
X114940476Y-115992319D02*
X115511904Y-115992319D01*
X115226190Y-115992319D02*
X115226190Y-114992319D01*
X115226190Y-114992319D02*
X115321428Y-115135176D01*
X115321428Y-115135176D02*
X115416666Y-115230414D01*
X115416666Y-115230414D02*
X115511904Y-115278033D01*
X114607142Y-114992319D02*
X113940476Y-114992319D01*
X113940476Y-114992319D02*
X114369047Y-115992319D01*
X141542857Y-98954819D02*
X141876190Y-98478628D01*
X142114285Y-98954819D02*
X142114285Y-97954819D01*
X142114285Y-97954819D02*
X141733333Y-97954819D01*
X141733333Y-97954819D02*
X141638095Y-98002438D01*
X141638095Y-98002438D02*
X141590476Y-98050057D01*
X141590476Y-98050057D02*
X141542857Y-98145295D01*
X141542857Y-98145295D02*
X141542857Y-98288152D01*
X141542857Y-98288152D02*
X141590476Y-98383390D01*
X141590476Y-98383390D02*
X141638095Y-98431009D01*
X141638095Y-98431009D02*
X141733333Y-98478628D01*
X141733333Y-98478628D02*
X142114285Y-98478628D01*
X140590476Y-98954819D02*
X141161904Y-98954819D01*
X140876190Y-98954819D02*
X140876190Y-97954819D01*
X140876190Y-97954819D02*
X140971428Y-98097676D01*
X140971428Y-98097676D02*
X141066666Y-98192914D01*
X141066666Y-98192914D02*
X141161904Y-98240533D01*
X139685714Y-97954819D02*
X140161904Y-97954819D01*
X140161904Y-97954819D02*
X140209523Y-98431009D01*
X140209523Y-98431009D02*
X140161904Y-98383390D01*
X140161904Y-98383390D02*
X140066666Y-98335771D01*
X140066666Y-98335771D02*
X139828571Y-98335771D01*
X139828571Y-98335771D02*
X139733333Y-98383390D01*
X139733333Y-98383390D02*
X139685714Y-98431009D01*
X139685714Y-98431009D02*
X139638095Y-98526247D01*
X139638095Y-98526247D02*
X139638095Y-98764342D01*
X139638095Y-98764342D02*
X139685714Y-98859580D01*
X139685714Y-98859580D02*
X139733333Y-98907200D01*
X139733333Y-98907200D02*
X139828571Y-98954819D01*
X139828571Y-98954819D02*
X140066666Y-98954819D01*
X140066666Y-98954819D02*
X140161904Y-98907200D01*
X140161904Y-98907200D02*
X140209523Y-98859580D01*
X150166666Y-113654819D02*
X150499999Y-113178628D01*
X150738094Y-113654819D02*
X150738094Y-112654819D01*
X150738094Y-112654819D02*
X150357142Y-112654819D01*
X150357142Y-112654819D02*
X150261904Y-112702438D01*
X150261904Y-112702438D02*
X150214285Y-112750057D01*
X150214285Y-112750057D02*
X150166666Y-112845295D01*
X150166666Y-112845295D02*
X150166666Y-112988152D01*
X150166666Y-112988152D02*
X150214285Y-113083390D01*
X150214285Y-113083390D02*
X150261904Y-113131009D01*
X150261904Y-113131009D02*
X150357142Y-113178628D01*
X150357142Y-113178628D02*
X150738094Y-113178628D01*
X149690475Y-113654819D02*
X149499999Y-113654819D01*
X149499999Y-113654819D02*
X149404761Y-113607200D01*
X149404761Y-113607200D02*
X149357142Y-113559580D01*
X149357142Y-113559580D02*
X149261904Y-113416723D01*
X149261904Y-113416723D02*
X149214285Y-113226247D01*
X149214285Y-113226247D02*
X149214285Y-112845295D01*
X149214285Y-112845295D02*
X149261904Y-112750057D01*
X149261904Y-112750057D02*
X149309523Y-112702438D01*
X149309523Y-112702438D02*
X149404761Y-112654819D01*
X149404761Y-112654819D02*
X149595237Y-112654819D01*
X149595237Y-112654819D02*
X149690475Y-112702438D01*
X149690475Y-112702438D02*
X149738094Y-112750057D01*
X149738094Y-112750057D02*
X149785713Y-112845295D01*
X149785713Y-112845295D02*
X149785713Y-113083390D01*
X149785713Y-113083390D02*
X149738094Y-113178628D01*
X149738094Y-113178628D02*
X149690475Y-113226247D01*
X149690475Y-113226247D02*
X149595237Y-113273866D01*
X149595237Y-113273866D02*
X149404761Y-113273866D01*
X149404761Y-113273866D02*
X149309523Y-113226247D01*
X149309523Y-113226247D02*
X149261904Y-113178628D01*
X149261904Y-113178628D02*
X149214285Y-113083390D01*
X147642857Y-100654819D02*
X147976190Y-100178628D01*
X148214285Y-100654819D02*
X148214285Y-99654819D01*
X148214285Y-99654819D02*
X147833333Y-99654819D01*
X147833333Y-99654819D02*
X147738095Y-99702438D01*
X147738095Y-99702438D02*
X147690476Y-99750057D01*
X147690476Y-99750057D02*
X147642857Y-99845295D01*
X147642857Y-99845295D02*
X147642857Y-99988152D01*
X147642857Y-99988152D02*
X147690476Y-100083390D01*
X147690476Y-100083390D02*
X147738095Y-100131009D01*
X147738095Y-100131009D02*
X147833333Y-100178628D01*
X147833333Y-100178628D02*
X148214285Y-100178628D01*
X146690476Y-100654819D02*
X147261904Y-100654819D01*
X146976190Y-100654819D02*
X146976190Y-99654819D01*
X146976190Y-99654819D02*
X147071428Y-99797676D01*
X147071428Y-99797676D02*
X147166666Y-99892914D01*
X147166666Y-99892914D02*
X147261904Y-99940533D01*
X145833333Y-99988152D02*
X145833333Y-100654819D01*
X146071428Y-99607200D02*
X146309523Y-100321485D01*
X146309523Y-100321485D02*
X145690476Y-100321485D01*
X100316666Y-96092319D02*
X100649999Y-95616128D01*
X100888094Y-96092319D02*
X100888094Y-95092319D01*
X100888094Y-95092319D02*
X100507142Y-95092319D01*
X100507142Y-95092319D02*
X100411904Y-95139938D01*
X100411904Y-95139938D02*
X100364285Y-95187557D01*
X100364285Y-95187557D02*
X100316666Y-95282795D01*
X100316666Y-95282795D02*
X100316666Y-95425652D01*
X100316666Y-95425652D02*
X100364285Y-95520890D01*
X100364285Y-95520890D02*
X100411904Y-95568509D01*
X100411904Y-95568509D02*
X100507142Y-95616128D01*
X100507142Y-95616128D02*
X100888094Y-95616128D01*
X99888094Y-96092319D02*
X99888094Y-95092319D01*
X99888094Y-95092319D02*
X99507142Y-95092319D01*
X99507142Y-95092319D02*
X99411904Y-95139938D01*
X99411904Y-95139938D02*
X99364285Y-95187557D01*
X99364285Y-95187557D02*
X99316666Y-95282795D01*
X99316666Y-95282795D02*
X99316666Y-95425652D01*
X99316666Y-95425652D02*
X99364285Y-95520890D01*
X99364285Y-95520890D02*
X99411904Y-95568509D01*
X99411904Y-95568509D02*
X99507142Y-95616128D01*
X99507142Y-95616128D02*
X99888094Y-95616128D01*
X98364285Y-96092319D02*
X98935713Y-96092319D01*
X98649999Y-96092319D02*
X98649999Y-95092319D01*
X98649999Y-95092319D02*
X98745237Y-95235176D01*
X98745237Y-95235176D02*
X98840475Y-95330414D01*
X98840475Y-95330414D02*
X98935713Y-95378033D01*
X93916666Y-138592319D02*
X94249999Y-138116128D01*
X94488094Y-138592319D02*
X94488094Y-137592319D01*
X94488094Y-137592319D02*
X94107142Y-137592319D01*
X94107142Y-137592319D02*
X94011904Y-137639938D01*
X94011904Y-137639938D02*
X93964285Y-137687557D01*
X93964285Y-137687557D02*
X93916666Y-137782795D01*
X93916666Y-137782795D02*
X93916666Y-137925652D01*
X93916666Y-137925652D02*
X93964285Y-138020890D01*
X93964285Y-138020890D02*
X94011904Y-138068509D01*
X94011904Y-138068509D02*
X94107142Y-138116128D01*
X94107142Y-138116128D02*
X94488094Y-138116128D01*
X93488094Y-138592319D02*
X93488094Y-137592319D01*
X93488094Y-137592319D02*
X93107142Y-137592319D01*
X93107142Y-137592319D02*
X93011904Y-137639938D01*
X93011904Y-137639938D02*
X92964285Y-137687557D01*
X92964285Y-137687557D02*
X92916666Y-137782795D01*
X92916666Y-137782795D02*
X92916666Y-137925652D01*
X92916666Y-137925652D02*
X92964285Y-138020890D01*
X92964285Y-138020890D02*
X93011904Y-138068509D01*
X93011904Y-138068509D02*
X93107142Y-138116128D01*
X93107142Y-138116128D02*
X93488094Y-138116128D01*
X92345237Y-138020890D02*
X92440475Y-137973271D01*
X92440475Y-137973271D02*
X92488094Y-137925652D01*
X92488094Y-137925652D02*
X92535713Y-137830414D01*
X92535713Y-137830414D02*
X92535713Y-137782795D01*
X92535713Y-137782795D02*
X92488094Y-137687557D01*
X92488094Y-137687557D02*
X92440475Y-137639938D01*
X92440475Y-137639938D02*
X92345237Y-137592319D01*
X92345237Y-137592319D02*
X92154761Y-137592319D01*
X92154761Y-137592319D02*
X92059523Y-137639938D01*
X92059523Y-137639938D02*
X92011904Y-137687557D01*
X92011904Y-137687557D02*
X91964285Y-137782795D01*
X91964285Y-137782795D02*
X91964285Y-137830414D01*
X91964285Y-137830414D02*
X92011904Y-137925652D01*
X92011904Y-137925652D02*
X92059523Y-137973271D01*
X92059523Y-137973271D02*
X92154761Y-138020890D01*
X92154761Y-138020890D02*
X92345237Y-138020890D01*
X92345237Y-138020890D02*
X92440475Y-138068509D01*
X92440475Y-138068509D02*
X92488094Y-138116128D01*
X92488094Y-138116128D02*
X92535713Y-138211366D01*
X92535713Y-138211366D02*
X92535713Y-138401842D01*
X92535713Y-138401842D02*
X92488094Y-138497080D01*
X92488094Y-138497080D02*
X92440475Y-138544700D01*
X92440475Y-138544700D02*
X92345237Y-138592319D01*
X92345237Y-138592319D02*
X92154761Y-138592319D01*
X92154761Y-138592319D02*
X92059523Y-138544700D01*
X92059523Y-138544700D02*
X92011904Y-138497080D01*
X92011904Y-138497080D02*
X91964285Y-138401842D01*
X91964285Y-138401842D02*
X91964285Y-138211366D01*
X91964285Y-138211366D02*
X92011904Y-138116128D01*
X92011904Y-138116128D02*
X92059523Y-138068509D01*
X92059523Y-138068509D02*
X92154761Y-138020890D01*
X96616666Y-116392319D02*
X96949999Y-115916128D01*
X97188094Y-116392319D02*
X97188094Y-115392319D01*
X97188094Y-115392319D02*
X96807142Y-115392319D01*
X96807142Y-115392319D02*
X96711904Y-115439938D01*
X96711904Y-115439938D02*
X96664285Y-115487557D01*
X96664285Y-115487557D02*
X96616666Y-115582795D01*
X96616666Y-115582795D02*
X96616666Y-115725652D01*
X96616666Y-115725652D02*
X96664285Y-115820890D01*
X96664285Y-115820890D02*
X96711904Y-115868509D01*
X96711904Y-115868509D02*
X96807142Y-115916128D01*
X96807142Y-115916128D02*
X97188094Y-115916128D01*
X96188094Y-116392319D02*
X96188094Y-115392319D01*
X96188094Y-115392319D02*
X95807142Y-115392319D01*
X95807142Y-115392319D02*
X95711904Y-115439938D01*
X95711904Y-115439938D02*
X95664285Y-115487557D01*
X95664285Y-115487557D02*
X95616666Y-115582795D01*
X95616666Y-115582795D02*
X95616666Y-115725652D01*
X95616666Y-115725652D02*
X95664285Y-115820890D01*
X95664285Y-115820890D02*
X95711904Y-115868509D01*
X95711904Y-115868509D02*
X95807142Y-115916128D01*
X95807142Y-115916128D02*
X96188094Y-115916128D01*
X95140475Y-116392319D02*
X94949999Y-116392319D01*
X94949999Y-116392319D02*
X94854761Y-116344700D01*
X94854761Y-116344700D02*
X94807142Y-116297080D01*
X94807142Y-116297080D02*
X94711904Y-116154223D01*
X94711904Y-116154223D02*
X94664285Y-115963747D01*
X94664285Y-115963747D02*
X94664285Y-115582795D01*
X94664285Y-115582795D02*
X94711904Y-115487557D01*
X94711904Y-115487557D02*
X94759523Y-115439938D01*
X94759523Y-115439938D02*
X94854761Y-115392319D01*
X94854761Y-115392319D02*
X95045237Y-115392319D01*
X95045237Y-115392319D02*
X95140475Y-115439938D01*
X95140475Y-115439938D02*
X95188094Y-115487557D01*
X95188094Y-115487557D02*
X95235713Y-115582795D01*
X95235713Y-115582795D02*
X95235713Y-115820890D01*
X95235713Y-115820890D02*
X95188094Y-115916128D01*
X95188094Y-115916128D02*
X95140475Y-115963747D01*
X95140475Y-115963747D02*
X95045237Y-116011366D01*
X95045237Y-116011366D02*
X94854761Y-116011366D01*
X94854761Y-116011366D02*
X94759523Y-115963747D01*
X94759523Y-115963747D02*
X94711904Y-115916128D01*
X94711904Y-115916128D02*
X94664285Y-115820890D01*
X102316666Y-128042319D02*
X102649999Y-127566128D01*
X102888094Y-128042319D02*
X102888094Y-127042319D01*
X102888094Y-127042319D02*
X102507142Y-127042319D01*
X102507142Y-127042319D02*
X102411904Y-127089938D01*
X102411904Y-127089938D02*
X102364285Y-127137557D01*
X102364285Y-127137557D02*
X102316666Y-127232795D01*
X102316666Y-127232795D02*
X102316666Y-127375652D01*
X102316666Y-127375652D02*
X102364285Y-127470890D01*
X102364285Y-127470890D02*
X102411904Y-127518509D01*
X102411904Y-127518509D02*
X102507142Y-127566128D01*
X102507142Y-127566128D02*
X102888094Y-127566128D01*
X101888094Y-128042319D02*
X101888094Y-127042319D01*
X101888094Y-127042319D02*
X101507142Y-127042319D01*
X101507142Y-127042319D02*
X101411904Y-127089938D01*
X101411904Y-127089938D02*
X101364285Y-127137557D01*
X101364285Y-127137557D02*
X101316666Y-127232795D01*
X101316666Y-127232795D02*
X101316666Y-127375652D01*
X101316666Y-127375652D02*
X101364285Y-127470890D01*
X101364285Y-127470890D02*
X101411904Y-127518509D01*
X101411904Y-127518509D02*
X101507142Y-127566128D01*
X101507142Y-127566128D02*
X101888094Y-127566128D01*
X100411904Y-127042319D02*
X100888094Y-127042319D01*
X100888094Y-127042319D02*
X100935713Y-127518509D01*
X100935713Y-127518509D02*
X100888094Y-127470890D01*
X100888094Y-127470890D02*
X100792856Y-127423271D01*
X100792856Y-127423271D02*
X100554761Y-127423271D01*
X100554761Y-127423271D02*
X100459523Y-127470890D01*
X100459523Y-127470890D02*
X100411904Y-127518509D01*
X100411904Y-127518509D02*
X100364285Y-127613747D01*
X100364285Y-127613747D02*
X100364285Y-127851842D01*
X100364285Y-127851842D02*
X100411904Y-127947080D01*
X100411904Y-127947080D02*
X100459523Y-127994700D01*
X100459523Y-127994700D02*
X100554761Y-128042319D01*
X100554761Y-128042319D02*
X100792856Y-128042319D01*
X100792856Y-128042319D02*
X100888094Y-127994700D01*
X100888094Y-127994700D02*
X100935713Y-127947080D01*
X91711904Y-99392319D02*
X91711904Y-100201842D01*
X91711904Y-100201842D02*
X91664285Y-100297080D01*
X91664285Y-100297080D02*
X91616666Y-100344700D01*
X91616666Y-100344700D02*
X91521428Y-100392319D01*
X91521428Y-100392319D02*
X91330952Y-100392319D01*
X91330952Y-100392319D02*
X91235714Y-100344700D01*
X91235714Y-100344700D02*
X91188095Y-100297080D01*
X91188095Y-100297080D02*
X91140476Y-100201842D01*
X91140476Y-100201842D02*
X91140476Y-99392319D01*
X90140476Y-100392319D02*
X90711904Y-100392319D01*
X90426190Y-100392319D02*
X90426190Y-99392319D01*
X90426190Y-99392319D02*
X90521428Y-99535176D01*
X90521428Y-99535176D02*
X90616666Y-99630414D01*
X90616666Y-99630414D02*
X90711904Y-99678033D01*
X119842857Y-118859580D02*
X119890476Y-118907200D01*
X119890476Y-118907200D02*
X120033333Y-118954819D01*
X120033333Y-118954819D02*
X120128571Y-118954819D01*
X120128571Y-118954819D02*
X120271428Y-118907200D01*
X120271428Y-118907200D02*
X120366666Y-118811961D01*
X120366666Y-118811961D02*
X120414285Y-118716723D01*
X120414285Y-118716723D02*
X120461904Y-118526247D01*
X120461904Y-118526247D02*
X120461904Y-118383390D01*
X120461904Y-118383390D02*
X120414285Y-118192914D01*
X120414285Y-118192914D02*
X120366666Y-118097676D01*
X120366666Y-118097676D02*
X120271428Y-118002438D01*
X120271428Y-118002438D02*
X120128571Y-117954819D01*
X120128571Y-117954819D02*
X120033333Y-117954819D01*
X120033333Y-117954819D02*
X119890476Y-118002438D01*
X119890476Y-118002438D02*
X119842857Y-118050057D01*
X118890476Y-118954819D02*
X119461904Y-118954819D01*
X119176190Y-118954819D02*
X119176190Y-117954819D01*
X119176190Y-117954819D02*
X119271428Y-118097676D01*
X119271428Y-118097676D02*
X119366666Y-118192914D01*
X119366666Y-118192914D02*
X119461904Y-118240533D01*
X117938095Y-118954819D02*
X118509523Y-118954819D01*
X118223809Y-118954819D02*
X118223809Y-117954819D01*
X118223809Y-117954819D02*
X118319047Y-118097676D01*
X118319047Y-118097676D02*
X118414285Y-118192914D01*
X118414285Y-118192914D02*
X118509523Y-118240533D01*
X150942857Y-90754819D02*
X151276190Y-90278628D01*
X151514285Y-90754819D02*
X151514285Y-89754819D01*
X151514285Y-89754819D02*
X151133333Y-89754819D01*
X151133333Y-89754819D02*
X151038095Y-89802438D01*
X151038095Y-89802438D02*
X150990476Y-89850057D01*
X150990476Y-89850057D02*
X150942857Y-89945295D01*
X150942857Y-89945295D02*
X150942857Y-90088152D01*
X150942857Y-90088152D02*
X150990476Y-90183390D01*
X150990476Y-90183390D02*
X151038095Y-90231009D01*
X151038095Y-90231009D02*
X151133333Y-90278628D01*
X151133333Y-90278628D02*
X151514285Y-90278628D01*
X149990476Y-90754819D02*
X150561904Y-90754819D01*
X150276190Y-90754819D02*
X150276190Y-89754819D01*
X150276190Y-89754819D02*
X150371428Y-89897676D01*
X150371428Y-89897676D02*
X150466666Y-89992914D01*
X150466666Y-89992914D02*
X150561904Y-90040533D01*
X149657142Y-89754819D02*
X149038095Y-89754819D01*
X149038095Y-89754819D02*
X149371428Y-90135771D01*
X149371428Y-90135771D02*
X149228571Y-90135771D01*
X149228571Y-90135771D02*
X149133333Y-90183390D01*
X149133333Y-90183390D02*
X149085714Y-90231009D01*
X149085714Y-90231009D02*
X149038095Y-90326247D01*
X149038095Y-90326247D02*
X149038095Y-90564342D01*
X149038095Y-90564342D02*
X149085714Y-90659580D01*
X149085714Y-90659580D02*
X149133333Y-90707200D01*
X149133333Y-90707200D02*
X149228571Y-90754819D01*
X149228571Y-90754819D02*
X149514285Y-90754819D01*
X149514285Y-90754819D02*
X149609523Y-90707200D01*
X149609523Y-90707200D02*
X149657142Y-90659580D01*
X97116666Y-109392319D02*
X97449999Y-108916128D01*
X97688094Y-109392319D02*
X97688094Y-108392319D01*
X97688094Y-108392319D02*
X97307142Y-108392319D01*
X97307142Y-108392319D02*
X97211904Y-108439938D01*
X97211904Y-108439938D02*
X97164285Y-108487557D01*
X97164285Y-108487557D02*
X97116666Y-108582795D01*
X97116666Y-108582795D02*
X97116666Y-108725652D01*
X97116666Y-108725652D02*
X97164285Y-108820890D01*
X97164285Y-108820890D02*
X97211904Y-108868509D01*
X97211904Y-108868509D02*
X97307142Y-108916128D01*
X97307142Y-108916128D02*
X97688094Y-108916128D01*
X96688094Y-109392319D02*
X96688094Y-108392319D01*
X96688094Y-108392319D02*
X96307142Y-108392319D01*
X96307142Y-108392319D02*
X96211904Y-108439938D01*
X96211904Y-108439938D02*
X96164285Y-108487557D01*
X96164285Y-108487557D02*
X96116666Y-108582795D01*
X96116666Y-108582795D02*
X96116666Y-108725652D01*
X96116666Y-108725652D02*
X96164285Y-108820890D01*
X96164285Y-108820890D02*
X96211904Y-108868509D01*
X96211904Y-108868509D02*
X96307142Y-108916128D01*
X96307142Y-108916128D02*
X96688094Y-108916128D01*
X95783332Y-108392319D02*
X95164285Y-108392319D01*
X95164285Y-108392319D02*
X95497618Y-108773271D01*
X95497618Y-108773271D02*
X95354761Y-108773271D01*
X95354761Y-108773271D02*
X95259523Y-108820890D01*
X95259523Y-108820890D02*
X95211904Y-108868509D01*
X95211904Y-108868509D02*
X95164285Y-108963747D01*
X95164285Y-108963747D02*
X95164285Y-109201842D01*
X95164285Y-109201842D02*
X95211904Y-109297080D01*
X95211904Y-109297080D02*
X95259523Y-109344700D01*
X95259523Y-109344700D02*
X95354761Y-109392319D01*
X95354761Y-109392319D02*
X95640475Y-109392319D01*
X95640475Y-109392319D02*
X95735713Y-109344700D01*
X95735713Y-109344700D02*
X95783332Y-109297080D01*
X89192857Y-144492319D02*
X89526190Y-144016128D01*
X89764285Y-144492319D02*
X89764285Y-143492319D01*
X89764285Y-143492319D02*
X89383333Y-143492319D01*
X89383333Y-143492319D02*
X89288095Y-143539938D01*
X89288095Y-143539938D02*
X89240476Y-143587557D01*
X89240476Y-143587557D02*
X89192857Y-143682795D01*
X89192857Y-143682795D02*
X89192857Y-143825652D01*
X89192857Y-143825652D02*
X89240476Y-143920890D01*
X89240476Y-143920890D02*
X89288095Y-143968509D01*
X89288095Y-143968509D02*
X89383333Y-144016128D01*
X89383333Y-144016128D02*
X89764285Y-144016128D01*
X88764285Y-144492319D02*
X88764285Y-143492319D01*
X88764285Y-143492319D02*
X88383333Y-143492319D01*
X88383333Y-143492319D02*
X88288095Y-143539938D01*
X88288095Y-143539938D02*
X88240476Y-143587557D01*
X88240476Y-143587557D02*
X88192857Y-143682795D01*
X88192857Y-143682795D02*
X88192857Y-143825652D01*
X88192857Y-143825652D02*
X88240476Y-143920890D01*
X88240476Y-143920890D02*
X88288095Y-143968509D01*
X88288095Y-143968509D02*
X88383333Y-144016128D01*
X88383333Y-144016128D02*
X88764285Y-144016128D01*
X87240476Y-144492319D02*
X87811904Y-144492319D01*
X87526190Y-144492319D02*
X87526190Y-143492319D01*
X87526190Y-143492319D02*
X87621428Y-143635176D01*
X87621428Y-143635176D02*
X87716666Y-143730414D01*
X87716666Y-143730414D02*
X87811904Y-143778033D01*
X86383333Y-143492319D02*
X86573809Y-143492319D01*
X86573809Y-143492319D02*
X86669047Y-143539938D01*
X86669047Y-143539938D02*
X86716666Y-143587557D01*
X86716666Y-143587557D02*
X86811904Y-143730414D01*
X86811904Y-143730414D02*
X86859523Y-143920890D01*
X86859523Y-143920890D02*
X86859523Y-144301842D01*
X86859523Y-144301842D02*
X86811904Y-144397080D01*
X86811904Y-144397080D02*
X86764285Y-144444700D01*
X86764285Y-144444700D02*
X86669047Y-144492319D01*
X86669047Y-144492319D02*
X86478571Y-144492319D01*
X86478571Y-144492319D02*
X86383333Y-144444700D01*
X86383333Y-144444700D02*
X86335714Y-144397080D01*
X86335714Y-144397080D02*
X86288095Y-144301842D01*
X86288095Y-144301842D02*
X86288095Y-144063747D01*
X86288095Y-144063747D02*
X86335714Y-143968509D01*
X86335714Y-143968509D02*
X86383333Y-143920890D01*
X86383333Y-143920890D02*
X86478571Y-143873271D01*
X86478571Y-143873271D02*
X86669047Y-143873271D01*
X86669047Y-143873271D02*
X86764285Y-143920890D01*
X86764285Y-143920890D02*
X86811904Y-143968509D01*
X86811904Y-143968509D02*
X86859523Y-144063747D01*
X125566666Y-92554819D02*
X126042856Y-92554819D01*
X126042856Y-92554819D02*
X126042856Y-91554819D01*
X124709523Y-92554819D02*
X125280951Y-92554819D01*
X124995237Y-92554819D02*
X124995237Y-91554819D01*
X124995237Y-91554819D02*
X125090475Y-91697676D01*
X125090475Y-91697676D02*
X125185713Y-91792914D01*
X125185713Y-91792914D02*
X125280951Y-91840533D01*
X97411904Y-143492319D02*
X97411904Y-144301842D01*
X97411904Y-144301842D02*
X97364285Y-144397080D01*
X97364285Y-144397080D02*
X97316666Y-144444700D01*
X97316666Y-144444700D02*
X97221428Y-144492319D01*
X97221428Y-144492319D02*
X97030952Y-144492319D01*
X97030952Y-144492319D02*
X96935714Y-144444700D01*
X96935714Y-144444700D02*
X96888095Y-144397080D01*
X96888095Y-144397080D02*
X96840476Y-144301842D01*
X96840476Y-144301842D02*
X96840476Y-143492319D01*
X96411904Y-143587557D02*
X96364285Y-143539938D01*
X96364285Y-143539938D02*
X96269047Y-143492319D01*
X96269047Y-143492319D02*
X96030952Y-143492319D01*
X96030952Y-143492319D02*
X95935714Y-143539938D01*
X95935714Y-143539938D02*
X95888095Y-143587557D01*
X95888095Y-143587557D02*
X95840476Y-143682795D01*
X95840476Y-143682795D02*
X95840476Y-143778033D01*
X95840476Y-143778033D02*
X95888095Y-143920890D01*
X95888095Y-143920890D02*
X96459523Y-144492319D01*
X96459523Y-144492319D02*
X95840476Y-144492319D01*
X153866666Y-121189580D02*
X153914285Y-121237200D01*
X153914285Y-121237200D02*
X154057142Y-121284819D01*
X154057142Y-121284819D02*
X154152380Y-121284819D01*
X154152380Y-121284819D02*
X154295237Y-121237200D01*
X154295237Y-121237200D02*
X154390475Y-121141961D01*
X154390475Y-121141961D02*
X154438094Y-121046723D01*
X154438094Y-121046723D02*
X154485713Y-120856247D01*
X154485713Y-120856247D02*
X154485713Y-120713390D01*
X154485713Y-120713390D02*
X154438094Y-120522914D01*
X154438094Y-120522914D02*
X154390475Y-120427676D01*
X154390475Y-120427676D02*
X154295237Y-120332438D01*
X154295237Y-120332438D02*
X154152380Y-120284819D01*
X154152380Y-120284819D02*
X154057142Y-120284819D01*
X154057142Y-120284819D02*
X153914285Y-120332438D01*
X153914285Y-120332438D02*
X153866666Y-120380057D01*
X152961904Y-120284819D02*
X153438094Y-120284819D01*
X153438094Y-120284819D02*
X153485713Y-120761009D01*
X153485713Y-120761009D02*
X153438094Y-120713390D01*
X153438094Y-120713390D02*
X153342856Y-120665771D01*
X153342856Y-120665771D02*
X153104761Y-120665771D01*
X153104761Y-120665771D02*
X153009523Y-120713390D01*
X153009523Y-120713390D02*
X152961904Y-120761009D01*
X152961904Y-120761009D02*
X152914285Y-120856247D01*
X152914285Y-120856247D02*
X152914285Y-121094342D01*
X152914285Y-121094342D02*
X152961904Y-121189580D01*
X152961904Y-121189580D02*
X153009523Y-121237200D01*
X153009523Y-121237200D02*
X153104761Y-121284819D01*
X153104761Y-121284819D02*
X153342856Y-121284819D01*
X153342856Y-121284819D02*
X153438094Y-121237200D01*
X153438094Y-121237200D02*
X153485713Y-121189580D01*
X102216666Y-132492319D02*
X102549999Y-132016128D01*
X102788094Y-132492319D02*
X102788094Y-131492319D01*
X102788094Y-131492319D02*
X102407142Y-131492319D01*
X102407142Y-131492319D02*
X102311904Y-131539938D01*
X102311904Y-131539938D02*
X102264285Y-131587557D01*
X102264285Y-131587557D02*
X102216666Y-131682795D01*
X102216666Y-131682795D02*
X102216666Y-131825652D01*
X102216666Y-131825652D02*
X102264285Y-131920890D01*
X102264285Y-131920890D02*
X102311904Y-131968509D01*
X102311904Y-131968509D02*
X102407142Y-132016128D01*
X102407142Y-132016128D02*
X102788094Y-132016128D01*
X101788094Y-132492319D02*
X101788094Y-131492319D01*
X101788094Y-131492319D02*
X101407142Y-131492319D01*
X101407142Y-131492319D02*
X101311904Y-131539938D01*
X101311904Y-131539938D02*
X101264285Y-131587557D01*
X101264285Y-131587557D02*
X101216666Y-131682795D01*
X101216666Y-131682795D02*
X101216666Y-131825652D01*
X101216666Y-131825652D02*
X101264285Y-131920890D01*
X101264285Y-131920890D02*
X101311904Y-131968509D01*
X101311904Y-131968509D02*
X101407142Y-132016128D01*
X101407142Y-132016128D02*
X101788094Y-132016128D01*
X100359523Y-131492319D02*
X100549999Y-131492319D01*
X100549999Y-131492319D02*
X100645237Y-131539938D01*
X100645237Y-131539938D02*
X100692856Y-131587557D01*
X100692856Y-131587557D02*
X100788094Y-131730414D01*
X100788094Y-131730414D02*
X100835713Y-131920890D01*
X100835713Y-131920890D02*
X100835713Y-132301842D01*
X100835713Y-132301842D02*
X100788094Y-132397080D01*
X100788094Y-132397080D02*
X100740475Y-132444700D01*
X100740475Y-132444700D02*
X100645237Y-132492319D01*
X100645237Y-132492319D02*
X100454761Y-132492319D01*
X100454761Y-132492319D02*
X100359523Y-132444700D01*
X100359523Y-132444700D02*
X100311904Y-132397080D01*
X100311904Y-132397080D02*
X100264285Y-132301842D01*
X100264285Y-132301842D02*
X100264285Y-132063747D01*
X100264285Y-132063747D02*
X100311904Y-131968509D01*
X100311904Y-131968509D02*
X100359523Y-131920890D01*
X100359523Y-131920890D02*
X100454761Y-131873271D01*
X100454761Y-131873271D02*
X100645237Y-131873271D01*
X100645237Y-131873271D02*
X100740475Y-131920890D01*
X100740475Y-131920890D02*
X100788094Y-131968509D01*
X100788094Y-131968509D02*
X100835713Y-132063747D01*
X152061904Y-108454819D02*
X152061904Y-109264342D01*
X152061904Y-109264342D02*
X152014285Y-109359580D01*
X152014285Y-109359580D02*
X151966666Y-109407200D01*
X151966666Y-109407200D02*
X151871428Y-109454819D01*
X151871428Y-109454819D02*
X151680952Y-109454819D01*
X151680952Y-109454819D02*
X151585714Y-109407200D01*
X151585714Y-109407200D02*
X151538095Y-109359580D01*
X151538095Y-109359580D02*
X151490476Y-109264342D01*
X151490476Y-109264342D02*
X151490476Y-108454819D01*
X151109523Y-108454819D02*
X150490476Y-108454819D01*
X150490476Y-108454819D02*
X150823809Y-108835771D01*
X150823809Y-108835771D02*
X150680952Y-108835771D01*
X150680952Y-108835771D02*
X150585714Y-108883390D01*
X150585714Y-108883390D02*
X150538095Y-108931009D01*
X150538095Y-108931009D02*
X150490476Y-109026247D01*
X150490476Y-109026247D02*
X150490476Y-109264342D01*
X150490476Y-109264342D02*
X150538095Y-109359580D01*
X150538095Y-109359580D02*
X150585714Y-109407200D01*
X150585714Y-109407200D02*
X150680952Y-109454819D01*
X150680952Y-109454819D02*
X150966666Y-109454819D01*
X150966666Y-109454819D02*
X151061904Y-109407200D01*
X151061904Y-109407200D02*
X151109523Y-109359580D01*
X75716666Y-95592319D02*
X76049999Y-95116128D01*
X76288094Y-95592319D02*
X76288094Y-94592319D01*
X76288094Y-94592319D02*
X75907142Y-94592319D01*
X75907142Y-94592319D02*
X75811904Y-94639938D01*
X75811904Y-94639938D02*
X75764285Y-94687557D01*
X75764285Y-94687557D02*
X75716666Y-94782795D01*
X75716666Y-94782795D02*
X75716666Y-94925652D01*
X75716666Y-94925652D02*
X75764285Y-95020890D01*
X75764285Y-95020890D02*
X75811904Y-95068509D01*
X75811904Y-95068509D02*
X75907142Y-95116128D01*
X75907142Y-95116128D02*
X76288094Y-95116128D01*
X75288094Y-95592319D02*
X75288094Y-94592319D01*
X75288094Y-94592319D02*
X74907142Y-94592319D01*
X74907142Y-94592319D02*
X74811904Y-94639938D01*
X74811904Y-94639938D02*
X74764285Y-94687557D01*
X74764285Y-94687557D02*
X74716666Y-94782795D01*
X74716666Y-94782795D02*
X74716666Y-94925652D01*
X74716666Y-94925652D02*
X74764285Y-95020890D01*
X74764285Y-95020890D02*
X74811904Y-95068509D01*
X74811904Y-95068509D02*
X74907142Y-95116128D01*
X74907142Y-95116128D02*
X75288094Y-95116128D01*
X74335713Y-94687557D02*
X74288094Y-94639938D01*
X74288094Y-94639938D02*
X74192856Y-94592319D01*
X74192856Y-94592319D02*
X73954761Y-94592319D01*
X73954761Y-94592319D02*
X73859523Y-94639938D01*
X73859523Y-94639938D02*
X73811904Y-94687557D01*
X73811904Y-94687557D02*
X73764285Y-94782795D01*
X73764285Y-94782795D02*
X73764285Y-94878033D01*
X73764285Y-94878033D02*
X73811904Y-95020890D01*
X73811904Y-95020890D02*
X74383332Y-95592319D01*
X74383332Y-95592319D02*
X73764285Y-95592319D01*
X149761904Y-92754819D02*
X149761904Y-93564342D01*
X149761904Y-93564342D02*
X149714285Y-93659580D01*
X149714285Y-93659580D02*
X149666666Y-93707200D01*
X149666666Y-93707200D02*
X149571428Y-93754819D01*
X149571428Y-93754819D02*
X149380952Y-93754819D01*
X149380952Y-93754819D02*
X149285714Y-93707200D01*
X149285714Y-93707200D02*
X149238095Y-93659580D01*
X149238095Y-93659580D02*
X149190476Y-93564342D01*
X149190476Y-93564342D02*
X149190476Y-92754819D01*
X148238095Y-92754819D02*
X148714285Y-92754819D01*
X148714285Y-92754819D02*
X148761904Y-93231009D01*
X148761904Y-93231009D02*
X148714285Y-93183390D01*
X148714285Y-93183390D02*
X148619047Y-93135771D01*
X148619047Y-93135771D02*
X148380952Y-93135771D01*
X148380952Y-93135771D02*
X148285714Y-93183390D01*
X148285714Y-93183390D02*
X148238095Y-93231009D01*
X148238095Y-93231009D02*
X148190476Y-93326247D01*
X148190476Y-93326247D02*
X148190476Y-93564342D01*
X148190476Y-93564342D02*
X148238095Y-93659580D01*
X148238095Y-93659580D02*
X148285714Y-93707200D01*
X148285714Y-93707200D02*
X148380952Y-93754819D01*
X148380952Y-93754819D02*
X148619047Y-93754819D01*
X148619047Y-93754819D02*
X148714285Y-93707200D01*
X148714285Y-93707200D02*
X148761904Y-93659580D01*
X104992857Y-97992319D02*
X105326190Y-97516128D01*
X105564285Y-97992319D02*
X105564285Y-96992319D01*
X105564285Y-96992319D02*
X105183333Y-96992319D01*
X105183333Y-96992319D02*
X105088095Y-97039938D01*
X105088095Y-97039938D02*
X105040476Y-97087557D01*
X105040476Y-97087557D02*
X104992857Y-97182795D01*
X104992857Y-97182795D02*
X104992857Y-97325652D01*
X104992857Y-97325652D02*
X105040476Y-97420890D01*
X105040476Y-97420890D02*
X105088095Y-97468509D01*
X105088095Y-97468509D02*
X105183333Y-97516128D01*
X105183333Y-97516128D02*
X105564285Y-97516128D01*
X104564285Y-97992319D02*
X104564285Y-96992319D01*
X104564285Y-96992319D02*
X104183333Y-96992319D01*
X104183333Y-96992319D02*
X104088095Y-97039938D01*
X104088095Y-97039938D02*
X104040476Y-97087557D01*
X104040476Y-97087557D02*
X103992857Y-97182795D01*
X103992857Y-97182795D02*
X103992857Y-97325652D01*
X103992857Y-97325652D02*
X104040476Y-97420890D01*
X104040476Y-97420890D02*
X104088095Y-97468509D01*
X104088095Y-97468509D02*
X104183333Y-97516128D01*
X104183333Y-97516128D02*
X104564285Y-97516128D01*
X103040476Y-97992319D02*
X103611904Y-97992319D01*
X103326190Y-97992319D02*
X103326190Y-96992319D01*
X103326190Y-96992319D02*
X103421428Y-97135176D01*
X103421428Y-97135176D02*
X103516666Y-97230414D01*
X103516666Y-97230414D02*
X103611904Y-97278033D01*
X102659523Y-97087557D02*
X102611904Y-97039938D01*
X102611904Y-97039938D02*
X102516666Y-96992319D01*
X102516666Y-96992319D02*
X102278571Y-96992319D01*
X102278571Y-96992319D02*
X102183333Y-97039938D01*
X102183333Y-97039938D02*
X102135714Y-97087557D01*
X102135714Y-97087557D02*
X102088095Y-97182795D01*
X102088095Y-97182795D02*
X102088095Y-97278033D01*
X102088095Y-97278033D02*
X102135714Y-97420890D01*
X102135714Y-97420890D02*
X102707142Y-97992319D01*
X102707142Y-97992319D02*
X102088095Y-97992319D01*
X102216666Y-137292319D02*
X102549999Y-136816128D01*
X102788094Y-137292319D02*
X102788094Y-136292319D01*
X102788094Y-136292319D02*
X102407142Y-136292319D01*
X102407142Y-136292319D02*
X102311904Y-136339938D01*
X102311904Y-136339938D02*
X102264285Y-136387557D01*
X102264285Y-136387557D02*
X102216666Y-136482795D01*
X102216666Y-136482795D02*
X102216666Y-136625652D01*
X102216666Y-136625652D02*
X102264285Y-136720890D01*
X102264285Y-136720890D02*
X102311904Y-136768509D01*
X102311904Y-136768509D02*
X102407142Y-136816128D01*
X102407142Y-136816128D02*
X102788094Y-136816128D01*
X101788094Y-137292319D02*
X101788094Y-136292319D01*
X101788094Y-136292319D02*
X101407142Y-136292319D01*
X101407142Y-136292319D02*
X101311904Y-136339938D01*
X101311904Y-136339938D02*
X101264285Y-136387557D01*
X101264285Y-136387557D02*
X101216666Y-136482795D01*
X101216666Y-136482795D02*
X101216666Y-136625652D01*
X101216666Y-136625652D02*
X101264285Y-136720890D01*
X101264285Y-136720890D02*
X101311904Y-136768509D01*
X101311904Y-136768509D02*
X101407142Y-136816128D01*
X101407142Y-136816128D02*
X101788094Y-136816128D01*
X100883332Y-136292319D02*
X100216666Y-136292319D01*
X100216666Y-136292319D02*
X100645237Y-137292319D01*
X151366666Y-105459580D02*
X151414285Y-105507200D01*
X151414285Y-105507200D02*
X151557142Y-105554819D01*
X151557142Y-105554819D02*
X151652380Y-105554819D01*
X151652380Y-105554819D02*
X151795237Y-105507200D01*
X151795237Y-105507200D02*
X151890475Y-105411961D01*
X151890475Y-105411961D02*
X151938094Y-105316723D01*
X151938094Y-105316723D02*
X151985713Y-105126247D01*
X151985713Y-105126247D02*
X151985713Y-104983390D01*
X151985713Y-104983390D02*
X151938094Y-104792914D01*
X151938094Y-104792914D02*
X151890475Y-104697676D01*
X151890475Y-104697676D02*
X151795237Y-104602438D01*
X151795237Y-104602438D02*
X151652380Y-104554819D01*
X151652380Y-104554819D02*
X151557142Y-104554819D01*
X151557142Y-104554819D02*
X151414285Y-104602438D01*
X151414285Y-104602438D02*
X151366666Y-104650057D01*
X151033332Y-104554819D02*
X150366666Y-104554819D01*
X150366666Y-104554819D02*
X150795237Y-105554819D01*
X93416666Y-146897080D02*
X93464285Y-146944700D01*
X93464285Y-146944700D02*
X93607142Y-146992319D01*
X93607142Y-146992319D02*
X93702380Y-146992319D01*
X93702380Y-146992319D02*
X93845237Y-146944700D01*
X93845237Y-146944700D02*
X93940475Y-146849461D01*
X93940475Y-146849461D02*
X93988094Y-146754223D01*
X93988094Y-146754223D02*
X94035713Y-146563747D01*
X94035713Y-146563747D02*
X94035713Y-146420890D01*
X94035713Y-146420890D02*
X93988094Y-146230414D01*
X93988094Y-146230414D02*
X93940475Y-146135176D01*
X93940475Y-146135176D02*
X93845237Y-146039938D01*
X93845237Y-146039938D02*
X93702380Y-145992319D01*
X93702380Y-145992319D02*
X93607142Y-145992319D01*
X93607142Y-145992319D02*
X93464285Y-146039938D01*
X93464285Y-146039938D02*
X93416666Y-146087557D01*
X93035713Y-146087557D02*
X92988094Y-146039938D01*
X92988094Y-146039938D02*
X92892856Y-145992319D01*
X92892856Y-145992319D02*
X92654761Y-145992319D01*
X92654761Y-145992319D02*
X92559523Y-146039938D01*
X92559523Y-146039938D02*
X92511904Y-146087557D01*
X92511904Y-146087557D02*
X92464285Y-146182795D01*
X92464285Y-146182795D02*
X92464285Y-146278033D01*
X92464285Y-146278033D02*
X92511904Y-146420890D01*
X92511904Y-146420890D02*
X93083332Y-146992319D01*
X93083332Y-146992319D02*
X92464285Y-146992319D01*
X154642857Y-115654819D02*
X154976190Y-115178628D01*
X155214285Y-115654819D02*
X155214285Y-114654819D01*
X155214285Y-114654819D02*
X154833333Y-114654819D01*
X154833333Y-114654819D02*
X154738095Y-114702438D01*
X154738095Y-114702438D02*
X154690476Y-114750057D01*
X154690476Y-114750057D02*
X154642857Y-114845295D01*
X154642857Y-114845295D02*
X154642857Y-114988152D01*
X154642857Y-114988152D02*
X154690476Y-115083390D01*
X154690476Y-115083390D02*
X154738095Y-115131009D01*
X154738095Y-115131009D02*
X154833333Y-115178628D01*
X154833333Y-115178628D02*
X155214285Y-115178628D01*
X153690476Y-115654819D02*
X154261904Y-115654819D01*
X153976190Y-115654819D02*
X153976190Y-114654819D01*
X153976190Y-114654819D02*
X154071428Y-114797676D01*
X154071428Y-114797676D02*
X154166666Y-114892914D01*
X154166666Y-114892914D02*
X154261904Y-114940533D01*
X153071428Y-114654819D02*
X152976190Y-114654819D01*
X152976190Y-114654819D02*
X152880952Y-114702438D01*
X152880952Y-114702438D02*
X152833333Y-114750057D01*
X152833333Y-114750057D02*
X152785714Y-114845295D01*
X152785714Y-114845295D02*
X152738095Y-115035771D01*
X152738095Y-115035771D02*
X152738095Y-115273866D01*
X152738095Y-115273866D02*
X152785714Y-115464342D01*
X152785714Y-115464342D02*
X152833333Y-115559580D01*
X152833333Y-115559580D02*
X152880952Y-115607200D01*
X152880952Y-115607200D02*
X152976190Y-115654819D01*
X152976190Y-115654819D02*
X153071428Y-115654819D01*
X153071428Y-115654819D02*
X153166666Y-115607200D01*
X153166666Y-115607200D02*
X153214285Y-115559580D01*
X153214285Y-115559580D02*
X153261904Y-115464342D01*
X153261904Y-115464342D02*
X153309523Y-115273866D01*
X153309523Y-115273866D02*
X153309523Y-115035771D01*
X153309523Y-115035771D02*
X153261904Y-114845295D01*
X153261904Y-114845295D02*
X153214285Y-114750057D01*
X153214285Y-114750057D02*
X153166666Y-114702438D01*
X153166666Y-114702438D02*
X153071428Y-114654819D01*
X126342857Y-113454819D02*
X126676190Y-112978628D01*
X126914285Y-113454819D02*
X126914285Y-112454819D01*
X126914285Y-112454819D02*
X126533333Y-112454819D01*
X126533333Y-112454819D02*
X126438095Y-112502438D01*
X126438095Y-112502438D02*
X126390476Y-112550057D01*
X126390476Y-112550057D02*
X126342857Y-112645295D01*
X126342857Y-112645295D02*
X126342857Y-112788152D01*
X126342857Y-112788152D02*
X126390476Y-112883390D01*
X126390476Y-112883390D02*
X126438095Y-112931009D01*
X126438095Y-112931009D02*
X126533333Y-112978628D01*
X126533333Y-112978628D02*
X126914285Y-112978628D01*
X125390476Y-113454819D02*
X125961904Y-113454819D01*
X125676190Y-113454819D02*
X125676190Y-112454819D01*
X125676190Y-112454819D02*
X125771428Y-112597676D01*
X125771428Y-112597676D02*
X125866666Y-112692914D01*
X125866666Y-112692914D02*
X125961904Y-112740533D01*
X124438095Y-113454819D02*
X125009523Y-113454819D01*
X124723809Y-113454819D02*
X124723809Y-112454819D01*
X124723809Y-112454819D02*
X124819047Y-112597676D01*
X124819047Y-112597676D02*
X124914285Y-112692914D01*
X124914285Y-112692914D02*
X125009523Y-112740533D01*
X97316666Y-94897080D02*
X97364285Y-94944700D01*
X97364285Y-94944700D02*
X97507142Y-94992319D01*
X97507142Y-94992319D02*
X97602380Y-94992319D01*
X97602380Y-94992319D02*
X97745237Y-94944700D01*
X97745237Y-94944700D02*
X97840475Y-94849461D01*
X97840475Y-94849461D02*
X97888094Y-94754223D01*
X97888094Y-94754223D02*
X97935713Y-94563747D01*
X97935713Y-94563747D02*
X97935713Y-94420890D01*
X97935713Y-94420890D02*
X97888094Y-94230414D01*
X97888094Y-94230414D02*
X97840475Y-94135176D01*
X97840475Y-94135176D02*
X97745237Y-94039938D01*
X97745237Y-94039938D02*
X97602380Y-93992319D01*
X97602380Y-93992319D02*
X97507142Y-93992319D01*
X97507142Y-93992319D02*
X97364285Y-94039938D01*
X97364285Y-94039938D02*
X97316666Y-94087557D01*
X96888094Y-94992319D02*
X96888094Y-93992319D01*
X96888094Y-93992319D02*
X96507142Y-93992319D01*
X96507142Y-93992319D02*
X96411904Y-94039938D01*
X96411904Y-94039938D02*
X96364285Y-94087557D01*
X96364285Y-94087557D02*
X96316666Y-94182795D01*
X96316666Y-94182795D02*
X96316666Y-94325652D01*
X96316666Y-94325652D02*
X96364285Y-94420890D01*
X96364285Y-94420890D02*
X96411904Y-94468509D01*
X96411904Y-94468509D02*
X96507142Y-94516128D01*
X96507142Y-94516128D02*
X96888094Y-94516128D01*
X95364285Y-94992319D02*
X95935713Y-94992319D01*
X95649999Y-94992319D02*
X95649999Y-93992319D01*
X95649999Y-93992319D02*
X95745237Y-94135176D01*
X95745237Y-94135176D02*
X95840475Y-94230414D01*
X95840475Y-94230414D02*
X95935713Y-94278033D01*
X100716666Y-109197080D02*
X100764285Y-109244700D01*
X100764285Y-109244700D02*
X100907142Y-109292319D01*
X100907142Y-109292319D02*
X101002380Y-109292319D01*
X101002380Y-109292319D02*
X101145237Y-109244700D01*
X101145237Y-109244700D02*
X101240475Y-109149461D01*
X101240475Y-109149461D02*
X101288094Y-109054223D01*
X101288094Y-109054223D02*
X101335713Y-108863747D01*
X101335713Y-108863747D02*
X101335713Y-108720890D01*
X101335713Y-108720890D02*
X101288094Y-108530414D01*
X101288094Y-108530414D02*
X101240475Y-108435176D01*
X101240475Y-108435176D02*
X101145237Y-108339938D01*
X101145237Y-108339938D02*
X101002380Y-108292319D01*
X101002380Y-108292319D02*
X100907142Y-108292319D01*
X100907142Y-108292319D02*
X100764285Y-108339938D01*
X100764285Y-108339938D02*
X100716666Y-108387557D01*
X100288094Y-109292319D02*
X100288094Y-108292319D01*
X100288094Y-108292319D02*
X99907142Y-108292319D01*
X99907142Y-108292319D02*
X99811904Y-108339938D01*
X99811904Y-108339938D02*
X99764285Y-108387557D01*
X99764285Y-108387557D02*
X99716666Y-108482795D01*
X99716666Y-108482795D02*
X99716666Y-108625652D01*
X99716666Y-108625652D02*
X99764285Y-108720890D01*
X99764285Y-108720890D02*
X99811904Y-108768509D01*
X99811904Y-108768509D02*
X99907142Y-108816128D01*
X99907142Y-108816128D02*
X100288094Y-108816128D01*
X99335713Y-108387557D02*
X99288094Y-108339938D01*
X99288094Y-108339938D02*
X99192856Y-108292319D01*
X99192856Y-108292319D02*
X98954761Y-108292319D01*
X98954761Y-108292319D02*
X98859523Y-108339938D01*
X98859523Y-108339938D02*
X98811904Y-108387557D01*
X98811904Y-108387557D02*
X98764285Y-108482795D01*
X98764285Y-108482795D02*
X98764285Y-108578033D01*
X98764285Y-108578033D02*
X98811904Y-108720890D01*
X98811904Y-108720890D02*
X99383332Y-109292319D01*
X99383332Y-109292319D02*
X98764285Y-109292319D01*
X143766666Y-99159580D02*
X143814285Y-99207200D01*
X143814285Y-99207200D02*
X143957142Y-99254819D01*
X143957142Y-99254819D02*
X144052380Y-99254819D01*
X144052380Y-99254819D02*
X144195237Y-99207200D01*
X144195237Y-99207200D02*
X144290475Y-99111961D01*
X144290475Y-99111961D02*
X144338094Y-99016723D01*
X144338094Y-99016723D02*
X144385713Y-98826247D01*
X144385713Y-98826247D02*
X144385713Y-98683390D01*
X144385713Y-98683390D02*
X144338094Y-98492914D01*
X144338094Y-98492914D02*
X144290475Y-98397676D01*
X144290475Y-98397676D02*
X144195237Y-98302438D01*
X144195237Y-98302438D02*
X144052380Y-98254819D01*
X144052380Y-98254819D02*
X143957142Y-98254819D01*
X143957142Y-98254819D02*
X143814285Y-98302438D01*
X143814285Y-98302438D02*
X143766666Y-98350057D01*
X143290475Y-99254819D02*
X143099999Y-99254819D01*
X143099999Y-99254819D02*
X143004761Y-99207200D01*
X143004761Y-99207200D02*
X142957142Y-99159580D01*
X142957142Y-99159580D02*
X142861904Y-99016723D01*
X142861904Y-99016723D02*
X142814285Y-98826247D01*
X142814285Y-98826247D02*
X142814285Y-98445295D01*
X142814285Y-98445295D02*
X142861904Y-98350057D01*
X142861904Y-98350057D02*
X142909523Y-98302438D01*
X142909523Y-98302438D02*
X143004761Y-98254819D01*
X143004761Y-98254819D02*
X143195237Y-98254819D01*
X143195237Y-98254819D02*
X143290475Y-98302438D01*
X143290475Y-98302438D02*
X143338094Y-98350057D01*
X143338094Y-98350057D02*
X143385713Y-98445295D01*
X143385713Y-98445295D02*
X143385713Y-98683390D01*
X143385713Y-98683390D02*
X143338094Y-98778628D01*
X143338094Y-98778628D02*
X143290475Y-98826247D01*
X143290475Y-98826247D02*
X143195237Y-98873866D01*
X143195237Y-98873866D02*
X143004761Y-98873866D01*
X143004761Y-98873866D02*
X142909523Y-98826247D01*
X142909523Y-98826247D02*
X142861904Y-98778628D01*
X142861904Y-98778628D02*
X142814285Y-98683390D01*
X88992857Y-139392319D02*
X89326190Y-138916128D01*
X89564285Y-139392319D02*
X89564285Y-138392319D01*
X89564285Y-138392319D02*
X89183333Y-138392319D01*
X89183333Y-138392319D02*
X89088095Y-138439938D01*
X89088095Y-138439938D02*
X89040476Y-138487557D01*
X89040476Y-138487557D02*
X88992857Y-138582795D01*
X88992857Y-138582795D02*
X88992857Y-138725652D01*
X88992857Y-138725652D02*
X89040476Y-138820890D01*
X89040476Y-138820890D02*
X89088095Y-138868509D01*
X89088095Y-138868509D02*
X89183333Y-138916128D01*
X89183333Y-138916128D02*
X89564285Y-138916128D01*
X88564285Y-139392319D02*
X88564285Y-138392319D01*
X88564285Y-138392319D02*
X88183333Y-138392319D01*
X88183333Y-138392319D02*
X88088095Y-138439938D01*
X88088095Y-138439938D02*
X88040476Y-138487557D01*
X88040476Y-138487557D02*
X87992857Y-138582795D01*
X87992857Y-138582795D02*
X87992857Y-138725652D01*
X87992857Y-138725652D02*
X88040476Y-138820890D01*
X88040476Y-138820890D02*
X88088095Y-138868509D01*
X88088095Y-138868509D02*
X88183333Y-138916128D01*
X88183333Y-138916128D02*
X88564285Y-138916128D01*
X87040476Y-139392319D02*
X87611904Y-139392319D01*
X87326190Y-139392319D02*
X87326190Y-138392319D01*
X87326190Y-138392319D02*
X87421428Y-138535176D01*
X87421428Y-138535176D02*
X87516666Y-138630414D01*
X87516666Y-138630414D02*
X87611904Y-138678033D01*
X86135714Y-138392319D02*
X86611904Y-138392319D01*
X86611904Y-138392319D02*
X86659523Y-138868509D01*
X86659523Y-138868509D02*
X86611904Y-138820890D01*
X86611904Y-138820890D02*
X86516666Y-138773271D01*
X86516666Y-138773271D02*
X86278571Y-138773271D01*
X86278571Y-138773271D02*
X86183333Y-138820890D01*
X86183333Y-138820890D02*
X86135714Y-138868509D01*
X86135714Y-138868509D02*
X86088095Y-138963747D01*
X86088095Y-138963747D02*
X86088095Y-139201842D01*
X86088095Y-139201842D02*
X86135714Y-139297080D01*
X86135714Y-139297080D02*
X86183333Y-139344700D01*
X86183333Y-139344700D02*
X86278571Y-139392319D01*
X86278571Y-139392319D02*
X86516666Y-139392319D01*
X86516666Y-139392319D02*
X86611904Y-139344700D01*
X86611904Y-139344700D02*
X86659523Y-139297080D01*
X114245238Y-107787557D02*
X114340476Y-107739938D01*
X114340476Y-107739938D02*
X114435714Y-107644700D01*
X114435714Y-107644700D02*
X114578571Y-107501842D01*
X114578571Y-107501842D02*
X114673809Y-107454223D01*
X114673809Y-107454223D02*
X114769047Y-107454223D01*
X114721428Y-107692319D02*
X114816666Y-107644700D01*
X114816666Y-107644700D02*
X114911904Y-107549461D01*
X114911904Y-107549461D02*
X114959523Y-107358985D01*
X114959523Y-107358985D02*
X114959523Y-107025652D01*
X114959523Y-107025652D02*
X114911904Y-106835176D01*
X114911904Y-106835176D02*
X114816666Y-106739938D01*
X114816666Y-106739938D02*
X114721428Y-106692319D01*
X114721428Y-106692319D02*
X114530952Y-106692319D01*
X114530952Y-106692319D02*
X114435714Y-106739938D01*
X114435714Y-106739938D02*
X114340476Y-106835176D01*
X114340476Y-106835176D02*
X114292857Y-107025652D01*
X114292857Y-107025652D02*
X114292857Y-107358985D01*
X114292857Y-107358985D02*
X114340476Y-107549461D01*
X114340476Y-107549461D02*
X114435714Y-107644700D01*
X114435714Y-107644700D02*
X114530952Y-107692319D01*
X114530952Y-107692319D02*
X114721428Y-107692319D01*
X113340476Y-107692319D02*
X113911904Y-107692319D01*
X113626190Y-107692319D02*
X113626190Y-106692319D01*
X113626190Y-106692319D02*
X113721428Y-106835176D01*
X113721428Y-106835176D02*
X113816666Y-106930414D01*
X113816666Y-106930414D02*
X113911904Y-106978033D01*
X101616666Y-103497080D02*
X101664285Y-103544700D01*
X101664285Y-103544700D02*
X101807142Y-103592319D01*
X101807142Y-103592319D02*
X101902380Y-103592319D01*
X101902380Y-103592319D02*
X102045237Y-103544700D01*
X102045237Y-103544700D02*
X102140475Y-103449461D01*
X102140475Y-103449461D02*
X102188094Y-103354223D01*
X102188094Y-103354223D02*
X102235713Y-103163747D01*
X102235713Y-103163747D02*
X102235713Y-103020890D01*
X102235713Y-103020890D02*
X102188094Y-102830414D01*
X102188094Y-102830414D02*
X102140475Y-102735176D01*
X102140475Y-102735176D02*
X102045237Y-102639938D01*
X102045237Y-102639938D02*
X101902380Y-102592319D01*
X101902380Y-102592319D02*
X101807142Y-102592319D01*
X101807142Y-102592319D02*
X101664285Y-102639938D01*
X101664285Y-102639938D02*
X101616666Y-102687557D01*
X101188094Y-103592319D02*
X101188094Y-102592319D01*
X101188094Y-102592319D02*
X100807142Y-102592319D01*
X100807142Y-102592319D02*
X100711904Y-102639938D01*
X100711904Y-102639938D02*
X100664285Y-102687557D01*
X100664285Y-102687557D02*
X100616666Y-102782795D01*
X100616666Y-102782795D02*
X100616666Y-102925652D01*
X100616666Y-102925652D02*
X100664285Y-103020890D01*
X100664285Y-103020890D02*
X100711904Y-103068509D01*
X100711904Y-103068509D02*
X100807142Y-103116128D01*
X100807142Y-103116128D02*
X101188094Y-103116128D01*
X100283332Y-102592319D02*
X99664285Y-102592319D01*
X99664285Y-102592319D02*
X99997618Y-102973271D01*
X99997618Y-102973271D02*
X99854761Y-102973271D01*
X99854761Y-102973271D02*
X99759523Y-103020890D01*
X99759523Y-103020890D02*
X99711904Y-103068509D01*
X99711904Y-103068509D02*
X99664285Y-103163747D01*
X99664285Y-103163747D02*
X99664285Y-103401842D01*
X99664285Y-103401842D02*
X99711904Y-103497080D01*
X99711904Y-103497080D02*
X99759523Y-103544700D01*
X99759523Y-103544700D02*
X99854761Y-103592319D01*
X99854761Y-103592319D02*
X100140475Y-103592319D01*
X100140475Y-103592319D02*
X100235713Y-103544700D01*
X100235713Y-103544700D02*
X100283332Y-103497080D01*
X142642857Y-92454819D02*
X142976190Y-91978628D01*
X143214285Y-92454819D02*
X143214285Y-91454819D01*
X143214285Y-91454819D02*
X142833333Y-91454819D01*
X142833333Y-91454819D02*
X142738095Y-91502438D01*
X142738095Y-91502438D02*
X142690476Y-91550057D01*
X142690476Y-91550057D02*
X142642857Y-91645295D01*
X142642857Y-91645295D02*
X142642857Y-91788152D01*
X142642857Y-91788152D02*
X142690476Y-91883390D01*
X142690476Y-91883390D02*
X142738095Y-91931009D01*
X142738095Y-91931009D02*
X142833333Y-91978628D01*
X142833333Y-91978628D02*
X143214285Y-91978628D01*
X141690476Y-92454819D02*
X142261904Y-92454819D01*
X141976190Y-92454819D02*
X141976190Y-91454819D01*
X141976190Y-91454819D02*
X142071428Y-91597676D01*
X142071428Y-91597676D02*
X142166666Y-91692914D01*
X142166666Y-91692914D02*
X142261904Y-91740533D01*
X141309523Y-91550057D02*
X141261904Y-91502438D01*
X141261904Y-91502438D02*
X141166666Y-91454819D01*
X141166666Y-91454819D02*
X140928571Y-91454819D01*
X140928571Y-91454819D02*
X140833333Y-91502438D01*
X140833333Y-91502438D02*
X140785714Y-91550057D01*
X140785714Y-91550057D02*
X140738095Y-91645295D01*
X140738095Y-91645295D02*
X140738095Y-91740533D01*
X140738095Y-91740533D02*
X140785714Y-91883390D01*
X140785714Y-91883390D02*
X141357142Y-92454819D01*
X141357142Y-92454819D02*
X140738095Y-92454819D01*
X80142857Y-139292319D02*
X80476190Y-138816128D01*
X80714285Y-139292319D02*
X80714285Y-138292319D01*
X80714285Y-138292319D02*
X80333333Y-138292319D01*
X80333333Y-138292319D02*
X80238095Y-138339938D01*
X80238095Y-138339938D02*
X80190476Y-138387557D01*
X80190476Y-138387557D02*
X80142857Y-138482795D01*
X80142857Y-138482795D02*
X80142857Y-138625652D01*
X80142857Y-138625652D02*
X80190476Y-138720890D01*
X80190476Y-138720890D02*
X80238095Y-138768509D01*
X80238095Y-138768509D02*
X80333333Y-138816128D01*
X80333333Y-138816128D02*
X80714285Y-138816128D01*
X79714285Y-139292319D02*
X79714285Y-138292319D01*
X79714285Y-138292319D02*
X79333333Y-138292319D01*
X79333333Y-138292319D02*
X79238095Y-138339938D01*
X79238095Y-138339938D02*
X79190476Y-138387557D01*
X79190476Y-138387557D02*
X79142857Y-138482795D01*
X79142857Y-138482795D02*
X79142857Y-138625652D01*
X79142857Y-138625652D02*
X79190476Y-138720890D01*
X79190476Y-138720890D02*
X79238095Y-138768509D01*
X79238095Y-138768509D02*
X79333333Y-138816128D01*
X79333333Y-138816128D02*
X79714285Y-138816128D01*
X78190476Y-139292319D02*
X78761904Y-139292319D01*
X78476190Y-139292319D02*
X78476190Y-138292319D01*
X78476190Y-138292319D02*
X78571428Y-138435176D01*
X78571428Y-138435176D02*
X78666666Y-138530414D01*
X78666666Y-138530414D02*
X78761904Y-138578033D01*
X77857142Y-138292319D02*
X77238095Y-138292319D01*
X77238095Y-138292319D02*
X77571428Y-138673271D01*
X77571428Y-138673271D02*
X77428571Y-138673271D01*
X77428571Y-138673271D02*
X77333333Y-138720890D01*
X77333333Y-138720890D02*
X77285714Y-138768509D01*
X77285714Y-138768509D02*
X77238095Y-138863747D01*
X77238095Y-138863747D02*
X77238095Y-139101842D01*
X77238095Y-139101842D02*
X77285714Y-139197080D01*
X77285714Y-139197080D02*
X77333333Y-139244700D01*
X77333333Y-139244700D02*
X77428571Y-139292319D01*
X77428571Y-139292319D02*
X77714285Y-139292319D01*
X77714285Y-139292319D02*
X77809523Y-139244700D01*
X77809523Y-139244700D02*
X77857142Y-139197080D01*
X102592857Y-114592319D02*
X102926190Y-114116128D01*
X103164285Y-114592319D02*
X103164285Y-113592319D01*
X103164285Y-113592319D02*
X102783333Y-113592319D01*
X102783333Y-113592319D02*
X102688095Y-113639938D01*
X102688095Y-113639938D02*
X102640476Y-113687557D01*
X102640476Y-113687557D02*
X102592857Y-113782795D01*
X102592857Y-113782795D02*
X102592857Y-113925652D01*
X102592857Y-113925652D02*
X102640476Y-114020890D01*
X102640476Y-114020890D02*
X102688095Y-114068509D01*
X102688095Y-114068509D02*
X102783333Y-114116128D01*
X102783333Y-114116128D02*
X103164285Y-114116128D01*
X102164285Y-114592319D02*
X102164285Y-113592319D01*
X102164285Y-113592319D02*
X101783333Y-113592319D01*
X101783333Y-113592319D02*
X101688095Y-113639938D01*
X101688095Y-113639938D02*
X101640476Y-113687557D01*
X101640476Y-113687557D02*
X101592857Y-113782795D01*
X101592857Y-113782795D02*
X101592857Y-113925652D01*
X101592857Y-113925652D02*
X101640476Y-114020890D01*
X101640476Y-114020890D02*
X101688095Y-114068509D01*
X101688095Y-114068509D02*
X101783333Y-114116128D01*
X101783333Y-114116128D02*
X102164285Y-114116128D01*
X100640476Y-114592319D02*
X101211904Y-114592319D01*
X100926190Y-114592319D02*
X100926190Y-113592319D01*
X100926190Y-113592319D02*
X101021428Y-113735176D01*
X101021428Y-113735176D02*
X101116666Y-113830414D01*
X101116666Y-113830414D02*
X101211904Y-113878033D01*
X100021428Y-113592319D02*
X99926190Y-113592319D01*
X99926190Y-113592319D02*
X99830952Y-113639938D01*
X99830952Y-113639938D02*
X99783333Y-113687557D01*
X99783333Y-113687557D02*
X99735714Y-113782795D01*
X99735714Y-113782795D02*
X99688095Y-113973271D01*
X99688095Y-113973271D02*
X99688095Y-114211366D01*
X99688095Y-114211366D02*
X99735714Y-114401842D01*
X99735714Y-114401842D02*
X99783333Y-114497080D01*
X99783333Y-114497080D02*
X99830952Y-114544700D01*
X99830952Y-114544700D02*
X99926190Y-114592319D01*
X99926190Y-114592319D02*
X100021428Y-114592319D01*
X100021428Y-114592319D02*
X100116666Y-114544700D01*
X100116666Y-114544700D02*
X100164285Y-114497080D01*
X100164285Y-114497080D02*
X100211904Y-114401842D01*
X100211904Y-114401842D02*
X100259523Y-114211366D01*
X100259523Y-114211366D02*
X100259523Y-113973271D01*
X100259523Y-113973271D02*
X100211904Y-113782795D01*
X100211904Y-113782795D02*
X100164285Y-113687557D01*
X100164285Y-113687557D02*
X100116666Y-113639938D01*
X100116666Y-113639938D02*
X100021428Y-113592319D01*
D12*
%TO.C,CP4*%
X94560000Y-106096920D02*
X94560000Y-106378080D01*
X93540000Y-106096920D02*
X93540000Y-106378080D01*
%TO.C,RP14*%
X83272936Y-139852500D02*
X83727064Y-139852500D01*
X83272936Y-141322500D02*
X83727064Y-141322500D01*
%TO.C,R18*%
X117777064Y-106672500D02*
X117322936Y-106672500D01*
X117777064Y-105202500D02*
X117322936Y-105202500D01*
%TO.C,RP11*%
X102265000Y-107314564D02*
X102265000Y-106860436D01*
X103735000Y-107314564D02*
X103735000Y-106860436D01*
%TO.C,RP4*%
X93477064Y-92472500D02*
X93022936Y-92472500D01*
X93477064Y-91002500D02*
X93022936Y-91002500D01*
%TO.C,U4*%
X155795000Y-95960000D02*
X155795000Y-101260000D01*
X150595000Y-95960000D02*
X155795000Y-95960000D01*
X150595000Y-97610000D02*
X150595000Y-95960000D01*
X155795000Y-101260000D02*
X150595000Y-101260000D01*
X150595000Y-101260000D02*
X150595000Y-99610000D01*
X150595000Y-99610000D02*
G75*
G03*
X150595000Y-97610000I0J1000000D01*
G01*
%TO.C,R5*%
X155435000Y-107472936D02*
X155435000Y-107927064D01*
X153965000Y-107472936D02*
X153965000Y-107927064D01*
%TO.C,R17*%
X115377064Y-114472500D02*
X114922936Y-114472500D01*
X115377064Y-113002500D02*
X114922936Y-113002500D01*
%TO.C,R15*%
X142035000Y-95672936D02*
X142035000Y-96127064D01*
X140565000Y-95672936D02*
X140565000Y-96127064D01*
%TO.C,R9*%
X149265000Y-116027064D02*
X149265000Y-115572936D01*
X150735000Y-116027064D02*
X150735000Y-115572936D01*
%TO.C,R14*%
X147735000Y-97372936D02*
X147735000Y-97827064D01*
X146265000Y-97372936D02*
X146265000Y-97827064D01*
%TO.C,RP1*%
X100185000Y-98010436D02*
X100185000Y-98464564D01*
X98715000Y-98010436D02*
X98715000Y-98464564D01*
%TO.C,RP8*%
X93985000Y-140360436D02*
X93985000Y-140814564D01*
X92515000Y-140360436D02*
X92515000Y-140814564D01*
%TO.C,RP9*%
X95772936Y-116852500D02*
X96227064Y-116852500D01*
X95772936Y-118322500D02*
X96227064Y-118322500D01*
%TO.C,RP5*%
X99735000Y-127360436D02*
X99735000Y-127814564D01*
X98265000Y-127360436D02*
X98265000Y-127814564D01*
%TO.C,U1*%
X97210000Y-99937500D02*
X97210000Y-97987500D01*
X97210000Y-99937500D02*
X97210000Y-101887500D01*
X92090000Y-99937500D02*
X92090000Y-96487500D01*
X92090000Y-99937500D02*
X92090000Y-101887500D01*
%TO.C,C11*%
X119340580Y-117210000D02*
X119059420Y-117210000D01*
X119340580Y-116190000D02*
X119059420Y-116190000D01*
%TO.C,R13*%
X153827064Y-92135000D02*
X153372936Y-92135000D01*
X153827064Y-90665000D02*
X153372936Y-90665000D01*
%TO.C,RP3*%
X97285000Y-105910436D02*
X97285000Y-106364564D01*
X95815000Y-105910436D02*
X95815000Y-106364564D01*
%TO.C,RP16*%
X91735000Y-143860436D02*
X91735000Y-144314564D01*
X90265000Y-143860436D02*
X90265000Y-144314564D01*
%TO.C,L1*%
X125675279Y-94210000D02*
X125349721Y-94210000D01*
X125675279Y-93190000D02*
X125349721Y-93190000D01*
%TO.C,U2*%
X96650000Y-140077500D02*
X95850000Y-140077500D01*
X96650000Y-140077500D02*
X97450000Y-140077500D01*
X96650000Y-143197500D02*
X94850000Y-143197500D01*
X96650000Y-143197500D02*
X97450000Y-143197500D01*
%TO.C,C5*%
X153559420Y-118890000D02*
X153840580Y-118890000D01*
X153559420Y-119910000D02*
X153840580Y-119910000D01*
%TO.C,RP6*%
X99735000Y-131860436D02*
X99735000Y-132314564D01*
X98265000Y-131860436D02*
X98265000Y-132314564D01*
%TO.C,U3*%
X154760000Y-111800000D02*
X154760000Y-111000000D01*
X154760000Y-111800000D02*
X154760000Y-112600000D01*
X151640000Y-111800000D02*
X151640000Y-110000000D01*
X151640000Y-111800000D02*
X151640000Y-112600000D01*
%TO.C,RP2*%
X80760000Y-92860436D02*
X80760000Y-97214564D01*
X77340000Y-92860436D02*
X77340000Y-97214564D01*
%TO.C,U5*%
X144540000Y-93200000D02*
X144540000Y-94000000D01*
X144540000Y-93200000D02*
X144540000Y-92400000D01*
X147660000Y-93200000D02*
X147660000Y-95000000D01*
X147660000Y-93200000D02*
X147660000Y-92400000D01*
%TO.C,RP12*%
X102265000Y-100314564D02*
X102265000Y-99860436D01*
X103735000Y-100314564D02*
X103735000Y-99860436D01*
%TO.C,RP7*%
X99735000Y-136610436D02*
X99735000Y-137064564D01*
X98265000Y-136610436D02*
X98265000Y-137064564D01*
%TO.C,C7*%
X154040580Y-105610000D02*
X153759420Y-105610000D01*
X154040580Y-104590000D02*
X153759420Y-104590000D01*
%TO.C,C2*%
X93660000Y-143996920D02*
X93660000Y-144278080D01*
X92640000Y-143996920D02*
X92640000Y-144278080D01*
%TO.C,R10*%
X153472936Y-116265000D02*
X153927064Y-116265000D01*
X153472936Y-117735000D02*
X153927064Y-117735000D01*
%TO.C,R11*%
X123735000Y-112872936D02*
X123735000Y-113327064D01*
X122265000Y-112872936D02*
X122265000Y-113327064D01*
%TO.C,CP1*%
X93490580Y-95347500D02*
X93209420Y-95347500D01*
X93490580Y-94327500D02*
X93209420Y-94327500D01*
%TO.C,CP2*%
X98140000Y-106278080D02*
X98140000Y-105996920D01*
X99160000Y-106278080D02*
X99160000Y-105996920D01*
%TO.C,C9*%
X143810000Y-95759420D02*
X143810000Y-96040580D01*
X142790000Y-95759420D02*
X142790000Y-96040580D01*
%TO.C,RP15*%
X87772936Y-139852500D02*
X88227064Y-139852500D01*
X87772936Y-141322500D02*
X88227064Y-141322500D01*
%TO.C,Q1*%
X113790000Y-110037500D02*
X113790000Y-110687500D01*
X113790000Y-110037500D02*
X113790000Y-109387500D01*
X116910000Y-110037500D02*
X116910000Y-111712500D01*
X116910000Y-110037500D02*
X116910000Y-109387500D01*
%TO.C,CP3*%
X99160000Y-102696920D02*
X99160000Y-102978080D01*
X98140000Y-102696920D02*
X98140000Y-102978080D01*
%TO.C,R12*%
X142227064Y-90935000D02*
X141772936Y-90935000D01*
X142227064Y-89465000D02*
X141772936Y-89465000D01*
%TO.C,RP13*%
X78772936Y-139852500D02*
X79227064Y-139852500D01*
X78772936Y-141322500D02*
X79227064Y-141322500D01*
%TO.C,RP10*%
X100765000Y-116814564D02*
X100765000Y-116360436D01*
X102235000Y-116814564D02*
X102235000Y-116360436D01*
%TD*%
M02*
