%TF.GenerationSoftware,KiCad,Pcbnew,7.0.6-7.0.6~ubuntu22.04.1*%
%TF.CreationDate,2023-07-24T12:55:06+03:00*%
%TF.ProjectId,supply-uv,73757070-6c79-42d7-9576-2e6b69636164,rev?*%
%TF.SameCoordinates,Original*%
%TF.FileFunction,Legend,Top*%
%TF.FilePolarity,Positive*%
%FSLAX46Y46*%
G04 Gerber Fmt 4.6, Leading zero omitted, Abs format (unit mm)*
G04 Created by KiCad (PCBNEW 7.0.6-7.0.6~ubuntu22.04.1) date 2023-07-24 12:55:06*
%MOMM*%
%LPD*%
G01*
G04 APERTURE LIST*
%ADD10C,0.150000*%
%ADD11C,0.120000*%
G04 APERTURE END LIST*
D10*
X137559524Y-104009819D02*
X137559524Y-103009819D01*
X137559524Y-103009819D02*
X137940476Y-103009819D01*
X137940476Y-103009819D02*
X138035714Y-103057438D01*
X138035714Y-103057438D02*
X138083333Y-103105057D01*
X138083333Y-103105057D02*
X138130952Y-103200295D01*
X138130952Y-103200295D02*
X138130952Y-103343152D01*
X138130952Y-103343152D02*
X138083333Y-103438390D01*
X138083333Y-103438390D02*
X138035714Y-103486009D01*
X138035714Y-103486009D02*
X137940476Y-103533628D01*
X137940476Y-103533628D02*
X137559524Y-103533628D01*
X138892857Y-103486009D02*
X138559524Y-103486009D01*
X138559524Y-104009819D02*
X138559524Y-103009819D01*
X138559524Y-103009819D02*
X139035714Y-103009819D01*
X139988095Y-103914580D02*
X139940476Y-103962200D01*
X139940476Y-103962200D02*
X139797619Y-104009819D01*
X139797619Y-104009819D02*
X139702381Y-104009819D01*
X139702381Y-104009819D02*
X139559524Y-103962200D01*
X139559524Y-103962200D02*
X139464286Y-103866961D01*
X139464286Y-103866961D02*
X139416667Y-103771723D01*
X139416667Y-103771723D02*
X139369048Y-103581247D01*
X139369048Y-103581247D02*
X139369048Y-103438390D01*
X139369048Y-103438390D02*
X139416667Y-103247914D01*
X139416667Y-103247914D02*
X139464286Y-103152676D01*
X139464286Y-103152676D02*
X139559524Y-103057438D01*
X139559524Y-103057438D02*
X139702381Y-103009819D01*
X139702381Y-103009819D02*
X139797619Y-103009819D01*
X139797619Y-103009819D02*
X139940476Y-103057438D01*
X139940476Y-103057438D02*
X139988095Y-103105057D01*
X138130952Y-105619819D02*
X137797619Y-105143628D01*
X137559524Y-105619819D02*
X137559524Y-104619819D01*
X137559524Y-104619819D02*
X137940476Y-104619819D01*
X137940476Y-104619819D02*
X138035714Y-104667438D01*
X138035714Y-104667438D02*
X138083333Y-104715057D01*
X138083333Y-104715057D02*
X138130952Y-104810295D01*
X138130952Y-104810295D02*
X138130952Y-104953152D01*
X138130952Y-104953152D02*
X138083333Y-105048390D01*
X138083333Y-105048390D02*
X138035714Y-105096009D01*
X138035714Y-105096009D02*
X137940476Y-105143628D01*
X137940476Y-105143628D02*
X137559524Y-105143628D01*
X138559524Y-105619819D02*
X138559524Y-104619819D01*
X138559524Y-104619819D02*
X138797619Y-104619819D01*
X138797619Y-104619819D02*
X138940476Y-104667438D01*
X138940476Y-104667438D02*
X139035714Y-104762676D01*
X139035714Y-104762676D02*
X139083333Y-104857914D01*
X139083333Y-104857914D02*
X139130952Y-105048390D01*
X139130952Y-105048390D02*
X139130952Y-105191247D01*
X139130952Y-105191247D02*
X139083333Y-105381723D01*
X139083333Y-105381723D02*
X139035714Y-105476961D01*
X139035714Y-105476961D02*
X138940476Y-105572200D01*
X138940476Y-105572200D02*
X138797619Y-105619819D01*
X138797619Y-105619819D02*
X138559524Y-105619819D01*
X139750000Y-105143628D02*
X139750000Y-105619819D01*
X139416667Y-104619819D02*
X139750000Y-105143628D01*
X139750000Y-105143628D02*
X140083333Y-104619819D01*
X71810588Y-101967438D02*
X71715350Y-101919819D01*
X71715350Y-101919819D02*
X71572493Y-101919819D01*
X71572493Y-101919819D02*
X71429636Y-101967438D01*
X71429636Y-101967438D02*
X71334398Y-102062676D01*
X71334398Y-102062676D02*
X71286779Y-102157914D01*
X71286779Y-102157914D02*
X71239160Y-102348390D01*
X71239160Y-102348390D02*
X71239160Y-102491247D01*
X71239160Y-102491247D02*
X71286779Y-102681723D01*
X71286779Y-102681723D02*
X71334398Y-102776961D01*
X71334398Y-102776961D02*
X71429636Y-102872200D01*
X71429636Y-102872200D02*
X71572493Y-102919819D01*
X71572493Y-102919819D02*
X71667731Y-102919819D01*
X71667731Y-102919819D02*
X71810588Y-102872200D01*
X71810588Y-102872200D02*
X71858207Y-102824580D01*
X71858207Y-102824580D02*
X71858207Y-102491247D01*
X71858207Y-102491247D02*
X71667731Y-102491247D01*
X72286779Y-102919819D02*
X72286779Y-101919819D01*
X72286779Y-101919819D02*
X72858207Y-102919819D01*
X72858207Y-102919819D02*
X72858207Y-101919819D01*
X73334398Y-102919819D02*
X73334398Y-101919819D01*
X73334398Y-101919819D02*
X73572493Y-101919819D01*
X73572493Y-101919819D02*
X73715350Y-101967438D01*
X73715350Y-101967438D02*
X73810588Y-102062676D01*
X73810588Y-102062676D02*
X73858207Y-102157914D01*
X73858207Y-102157914D02*
X73905826Y-102348390D01*
X73905826Y-102348390D02*
X73905826Y-102491247D01*
X73905826Y-102491247D02*
X73858207Y-102681723D01*
X73858207Y-102681723D02*
X73810588Y-102776961D01*
X73810588Y-102776961D02*
X73715350Y-102872200D01*
X73715350Y-102872200D02*
X73572493Y-102919819D01*
X73572493Y-102919819D02*
X73334398Y-102919819D01*
X75962379Y-115372066D02*
X76724284Y-115372066D01*
X76343331Y-115753019D02*
X76343331Y-114991114D01*
X75962379Y-109428466D02*
X76724284Y-109428466D01*
X129539160Y-86962200D02*
X129682017Y-87009819D01*
X129682017Y-87009819D02*
X129920112Y-87009819D01*
X129920112Y-87009819D02*
X130015350Y-86962200D01*
X130015350Y-86962200D02*
X130062969Y-86914580D01*
X130062969Y-86914580D02*
X130110588Y-86819342D01*
X130110588Y-86819342D02*
X130110588Y-86724104D01*
X130110588Y-86724104D02*
X130062969Y-86628866D01*
X130062969Y-86628866D02*
X130015350Y-86581247D01*
X130015350Y-86581247D02*
X129920112Y-86533628D01*
X129920112Y-86533628D02*
X129729636Y-86486009D01*
X129729636Y-86486009D02*
X129634398Y-86438390D01*
X129634398Y-86438390D02*
X129586779Y-86390771D01*
X129586779Y-86390771D02*
X129539160Y-86295533D01*
X129539160Y-86295533D02*
X129539160Y-86200295D01*
X129539160Y-86200295D02*
X129586779Y-86105057D01*
X129586779Y-86105057D02*
X129634398Y-86057438D01*
X129634398Y-86057438D02*
X129729636Y-86009819D01*
X129729636Y-86009819D02*
X129967731Y-86009819D01*
X129967731Y-86009819D02*
X130110588Y-86057438D01*
X130396303Y-86009819D02*
X130967731Y-86009819D01*
X130682017Y-87009819D02*
X130682017Y-86009819D01*
X131634398Y-86486009D02*
X131777255Y-86533628D01*
X131777255Y-86533628D02*
X131824874Y-86581247D01*
X131824874Y-86581247D02*
X131872493Y-86676485D01*
X131872493Y-86676485D02*
X131872493Y-86819342D01*
X131872493Y-86819342D02*
X131824874Y-86914580D01*
X131824874Y-86914580D02*
X131777255Y-86962200D01*
X131777255Y-86962200D02*
X131682017Y-87009819D01*
X131682017Y-87009819D02*
X131301065Y-87009819D01*
X131301065Y-87009819D02*
X131301065Y-86009819D01*
X131301065Y-86009819D02*
X131634398Y-86009819D01*
X131634398Y-86009819D02*
X131729636Y-86057438D01*
X131729636Y-86057438D02*
X131777255Y-86105057D01*
X131777255Y-86105057D02*
X131824874Y-86200295D01*
X131824874Y-86200295D02*
X131824874Y-86295533D01*
X131824874Y-86295533D02*
X131777255Y-86390771D01*
X131777255Y-86390771D02*
X131729636Y-86438390D01*
X131729636Y-86438390D02*
X131634398Y-86486009D01*
X131634398Y-86486009D02*
X131301065Y-86486009D01*
X129777255Y-87619819D02*
X129967731Y-87619819D01*
X129967731Y-87619819D02*
X130062969Y-87667438D01*
X130062969Y-87667438D02*
X130158207Y-87762676D01*
X130158207Y-87762676D02*
X130205826Y-87953152D01*
X130205826Y-87953152D02*
X130205826Y-88286485D01*
X130205826Y-88286485D02*
X130158207Y-88476961D01*
X130158207Y-88476961D02*
X130062969Y-88572200D01*
X130062969Y-88572200D02*
X129967731Y-88619819D01*
X129967731Y-88619819D02*
X129777255Y-88619819D01*
X129777255Y-88619819D02*
X129682017Y-88572200D01*
X129682017Y-88572200D02*
X129586779Y-88476961D01*
X129586779Y-88476961D02*
X129539160Y-88286485D01*
X129539160Y-88286485D02*
X129539160Y-87953152D01*
X129539160Y-87953152D02*
X129586779Y-87762676D01*
X129586779Y-87762676D02*
X129682017Y-87667438D01*
X129682017Y-87667438D02*
X129777255Y-87619819D01*
X130634398Y-88619819D02*
X130634398Y-87619819D01*
X131205826Y-88619819D02*
X130777255Y-88048390D01*
X131205826Y-87619819D02*
X130634398Y-88191247D01*
X133210588Y-143167438D02*
X133115350Y-143119819D01*
X133115350Y-143119819D02*
X132972493Y-143119819D01*
X132972493Y-143119819D02*
X132829636Y-143167438D01*
X132829636Y-143167438D02*
X132734398Y-143262676D01*
X132734398Y-143262676D02*
X132686779Y-143357914D01*
X132686779Y-143357914D02*
X132639160Y-143548390D01*
X132639160Y-143548390D02*
X132639160Y-143691247D01*
X132639160Y-143691247D02*
X132686779Y-143881723D01*
X132686779Y-143881723D02*
X132734398Y-143976961D01*
X132734398Y-143976961D02*
X132829636Y-144072200D01*
X132829636Y-144072200D02*
X132972493Y-144119819D01*
X132972493Y-144119819D02*
X133067731Y-144119819D01*
X133067731Y-144119819D02*
X133210588Y-144072200D01*
X133210588Y-144072200D02*
X133258207Y-144024580D01*
X133258207Y-144024580D02*
X133258207Y-143691247D01*
X133258207Y-143691247D02*
X133067731Y-143691247D01*
X133686779Y-144119819D02*
X133686779Y-143119819D01*
X133686779Y-143119819D02*
X134258207Y-144119819D01*
X134258207Y-144119819D02*
X134258207Y-143119819D01*
X134734398Y-144119819D02*
X134734398Y-143119819D01*
X134734398Y-143119819D02*
X134972493Y-143119819D01*
X134972493Y-143119819D02*
X135115350Y-143167438D01*
X135115350Y-143167438D02*
X135210588Y-143262676D01*
X135210588Y-143262676D02*
X135258207Y-143357914D01*
X135258207Y-143357914D02*
X135305826Y-143548390D01*
X135305826Y-143548390D02*
X135305826Y-143691247D01*
X135305826Y-143691247D02*
X135258207Y-143881723D01*
X135258207Y-143881723D02*
X135210588Y-143976961D01*
X135210588Y-143976961D02*
X135115350Y-144072200D01*
X135115350Y-144072200D02*
X134972493Y-144119819D01*
X134972493Y-144119819D02*
X134734398Y-144119819D01*
X117083333Y-116962200D02*
X117226190Y-117009819D01*
X117226190Y-117009819D02*
X117464285Y-117009819D01*
X117464285Y-117009819D02*
X117559523Y-116962200D01*
X117559523Y-116962200D02*
X117607142Y-116914580D01*
X117607142Y-116914580D02*
X117654761Y-116819342D01*
X117654761Y-116819342D02*
X117654761Y-116724104D01*
X117654761Y-116724104D02*
X117607142Y-116628866D01*
X117607142Y-116628866D02*
X117559523Y-116581247D01*
X117559523Y-116581247D02*
X117464285Y-116533628D01*
X117464285Y-116533628D02*
X117273809Y-116486009D01*
X117273809Y-116486009D02*
X117178571Y-116438390D01*
X117178571Y-116438390D02*
X117130952Y-116390771D01*
X117130952Y-116390771D02*
X117083333Y-116295533D01*
X117083333Y-116295533D02*
X117083333Y-116200295D01*
X117083333Y-116200295D02*
X117130952Y-116105057D01*
X117130952Y-116105057D02*
X117178571Y-116057438D01*
X117178571Y-116057438D02*
X117273809Y-116009819D01*
X117273809Y-116009819D02*
X117511904Y-116009819D01*
X117511904Y-116009819D02*
X117654761Y-116057438D01*
X117940476Y-116009819D02*
X118511904Y-116009819D01*
X118226190Y-117009819D02*
X118226190Y-116009819D01*
X119178571Y-116486009D02*
X119321428Y-116533628D01*
X119321428Y-116533628D02*
X119369047Y-116581247D01*
X119369047Y-116581247D02*
X119416666Y-116676485D01*
X119416666Y-116676485D02*
X119416666Y-116819342D01*
X119416666Y-116819342D02*
X119369047Y-116914580D01*
X119369047Y-116914580D02*
X119321428Y-116962200D01*
X119321428Y-116962200D02*
X119226190Y-117009819D01*
X119226190Y-117009819D02*
X118845238Y-117009819D01*
X118845238Y-117009819D02*
X118845238Y-116009819D01*
X118845238Y-116009819D02*
X119178571Y-116009819D01*
X119178571Y-116009819D02*
X119273809Y-116057438D01*
X119273809Y-116057438D02*
X119321428Y-116105057D01*
X119321428Y-116105057D02*
X119369047Y-116200295D01*
X119369047Y-116200295D02*
X119369047Y-116295533D01*
X119369047Y-116295533D02*
X119321428Y-116390771D01*
X119321428Y-116390771D02*
X119273809Y-116438390D01*
X119273809Y-116438390D02*
X119178571Y-116486009D01*
X119178571Y-116486009D02*
X118845238Y-116486009D01*
X117511905Y-118096009D02*
X117845238Y-118096009D01*
X117988095Y-118619819D02*
X117511905Y-118619819D01*
X117511905Y-118619819D02*
X117511905Y-117619819D01*
X117511905Y-117619819D02*
X117988095Y-117619819D01*
X118416667Y-118619819D02*
X118416667Y-117619819D01*
X118416667Y-117619819D02*
X118988095Y-118619819D01*
X118988095Y-118619819D02*
X118988095Y-117619819D01*
X132836779Y-101988866D02*
X133598684Y-101988866D01*
X133217731Y-102369819D02*
X133217731Y-101607914D01*
X134086779Y-42119819D02*
X134086779Y-41119819D01*
X134086779Y-41119819D02*
X134467731Y-41119819D01*
X134467731Y-41119819D02*
X134562969Y-41167438D01*
X134562969Y-41167438D02*
X134610588Y-41215057D01*
X134610588Y-41215057D02*
X134658207Y-41310295D01*
X134658207Y-41310295D02*
X134658207Y-41453152D01*
X134658207Y-41453152D02*
X134610588Y-41548390D01*
X134610588Y-41548390D02*
X134562969Y-41596009D01*
X134562969Y-41596009D02*
X134467731Y-41643628D01*
X134467731Y-41643628D02*
X134086779Y-41643628D01*
X135086779Y-41596009D02*
X135420112Y-41596009D01*
X135562969Y-42119819D02*
X135086779Y-42119819D01*
X135086779Y-42119819D02*
X135086779Y-41119819D01*
X135086779Y-41119819D02*
X135562969Y-41119819D01*
X124083333Y-96112200D02*
X124226190Y-96159819D01*
X124226190Y-96159819D02*
X124464285Y-96159819D01*
X124464285Y-96159819D02*
X124559523Y-96112200D01*
X124559523Y-96112200D02*
X124607142Y-96064580D01*
X124607142Y-96064580D02*
X124654761Y-95969342D01*
X124654761Y-95969342D02*
X124654761Y-95874104D01*
X124654761Y-95874104D02*
X124607142Y-95778866D01*
X124607142Y-95778866D02*
X124559523Y-95731247D01*
X124559523Y-95731247D02*
X124464285Y-95683628D01*
X124464285Y-95683628D02*
X124273809Y-95636009D01*
X124273809Y-95636009D02*
X124178571Y-95588390D01*
X124178571Y-95588390D02*
X124130952Y-95540771D01*
X124130952Y-95540771D02*
X124083333Y-95445533D01*
X124083333Y-95445533D02*
X124083333Y-95350295D01*
X124083333Y-95350295D02*
X124130952Y-95255057D01*
X124130952Y-95255057D02*
X124178571Y-95207438D01*
X124178571Y-95207438D02*
X124273809Y-95159819D01*
X124273809Y-95159819D02*
X124511904Y-95159819D01*
X124511904Y-95159819D02*
X124654761Y-95207438D01*
X124940476Y-95159819D02*
X125511904Y-95159819D01*
X125226190Y-96159819D02*
X125226190Y-95159819D01*
X126178571Y-95636009D02*
X126321428Y-95683628D01*
X126321428Y-95683628D02*
X126369047Y-95731247D01*
X126369047Y-95731247D02*
X126416666Y-95826485D01*
X126416666Y-95826485D02*
X126416666Y-95969342D01*
X126416666Y-95969342D02*
X126369047Y-96064580D01*
X126369047Y-96064580D02*
X126321428Y-96112200D01*
X126321428Y-96112200D02*
X126226190Y-96159819D01*
X126226190Y-96159819D02*
X125845238Y-96159819D01*
X125845238Y-96159819D02*
X125845238Y-95159819D01*
X125845238Y-95159819D02*
X126178571Y-95159819D01*
X126178571Y-95159819D02*
X126273809Y-95207438D01*
X126273809Y-95207438D02*
X126321428Y-95255057D01*
X126321428Y-95255057D02*
X126369047Y-95350295D01*
X126369047Y-95350295D02*
X126369047Y-95445533D01*
X126369047Y-95445533D02*
X126321428Y-95540771D01*
X126321428Y-95540771D02*
X126273809Y-95588390D01*
X126273809Y-95588390D02*
X126178571Y-95636009D01*
X126178571Y-95636009D02*
X125845238Y-95636009D01*
X123916667Y-96769819D02*
X124250000Y-97769819D01*
X124250000Y-97769819D02*
X124583333Y-96769819D01*
X125488095Y-97674580D02*
X125440476Y-97722200D01*
X125440476Y-97722200D02*
X125297619Y-97769819D01*
X125297619Y-97769819D02*
X125202381Y-97769819D01*
X125202381Y-97769819D02*
X125059524Y-97722200D01*
X125059524Y-97722200D02*
X124964286Y-97626961D01*
X124964286Y-97626961D02*
X124916667Y-97531723D01*
X124916667Y-97531723D02*
X124869048Y-97341247D01*
X124869048Y-97341247D02*
X124869048Y-97198390D01*
X124869048Y-97198390D02*
X124916667Y-97007914D01*
X124916667Y-97007914D02*
X124964286Y-96912676D01*
X124964286Y-96912676D02*
X125059524Y-96817438D01*
X125059524Y-96817438D02*
X125202381Y-96769819D01*
X125202381Y-96769819D02*
X125297619Y-96769819D01*
X125297619Y-96769819D02*
X125440476Y-96817438D01*
X125440476Y-96817438D02*
X125488095Y-96865057D01*
X126488095Y-97674580D02*
X126440476Y-97722200D01*
X126440476Y-97722200D02*
X126297619Y-97769819D01*
X126297619Y-97769819D02*
X126202381Y-97769819D01*
X126202381Y-97769819D02*
X126059524Y-97722200D01*
X126059524Y-97722200D02*
X125964286Y-97626961D01*
X125964286Y-97626961D02*
X125916667Y-97531723D01*
X125916667Y-97531723D02*
X125869048Y-97341247D01*
X125869048Y-97341247D02*
X125869048Y-97198390D01*
X125869048Y-97198390D02*
X125916667Y-97007914D01*
X125916667Y-97007914D02*
X125964286Y-96912676D01*
X125964286Y-96912676D02*
X126059524Y-96817438D01*
X126059524Y-96817438D02*
X126202381Y-96769819D01*
X126202381Y-96769819D02*
X126297619Y-96769819D01*
X126297619Y-96769819D02*
X126440476Y-96817438D01*
X126440476Y-96817438D02*
X126488095Y-96865057D01*
X132286779Y-137738866D02*
X133048684Y-137738866D01*
X132667731Y-138119819D02*
X132667731Y-137357914D01*
X133953445Y-137453152D02*
X133953445Y-138119819D01*
X133715350Y-137072200D02*
X133477255Y-137786485D01*
X133477255Y-137786485D02*
X134096302Y-137786485D01*
X134667731Y-137119819D02*
X134762969Y-137119819D01*
X134762969Y-137119819D02*
X134858207Y-137167438D01*
X134858207Y-137167438D02*
X134905826Y-137215057D01*
X134905826Y-137215057D02*
X134953445Y-137310295D01*
X134953445Y-137310295D02*
X135001064Y-137500771D01*
X135001064Y-137500771D02*
X135001064Y-137738866D01*
X135001064Y-137738866D02*
X134953445Y-137929342D01*
X134953445Y-137929342D02*
X134905826Y-138024580D01*
X134905826Y-138024580D02*
X134858207Y-138072200D01*
X134858207Y-138072200D02*
X134762969Y-138119819D01*
X134762969Y-138119819D02*
X134667731Y-138119819D01*
X134667731Y-138119819D02*
X134572493Y-138072200D01*
X134572493Y-138072200D02*
X134524874Y-138024580D01*
X134524874Y-138024580D02*
X134477255Y-137929342D01*
X134477255Y-137929342D02*
X134429636Y-137738866D01*
X134429636Y-137738866D02*
X134429636Y-137500771D01*
X134429636Y-137500771D02*
X134477255Y-137310295D01*
X134477255Y-137310295D02*
X134524874Y-137215057D01*
X134524874Y-137215057D02*
X134572493Y-137167438D01*
X134572493Y-137167438D02*
X134667731Y-137119819D01*
X135620112Y-137119819D02*
X135715350Y-137119819D01*
X135715350Y-137119819D02*
X135810588Y-137167438D01*
X135810588Y-137167438D02*
X135858207Y-137215057D01*
X135858207Y-137215057D02*
X135905826Y-137310295D01*
X135905826Y-137310295D02*
X135953445Y-137500771D01*
X135953445Y-137500771D02*
X135953445Y-137738866D01*
X135953445Y-137738866D02*
X135905826Y-137929342D01*
X135905826Y-137929342D02*
X135858207Y-138024580D01*
X135858207Y-138024580D02*
X135810588Y-138072200D01*
X135810588Y-138072200D02*
X135715350Y-138119819D01*
X135715350Y-138119819D02*
X135620112Y-138119819D01*
X135620112Y-138119819D02*
X135524874Y-138072200D01*
X135524874Y-138072200D02*
X135477255Y-138024580D01*
X135477255Y-138024580D02*
X135429636Y-137929342D01*
X135429636Y-137929342D02*
X135382017Y-137738866D01*
X135382017Y-137738866D02*
X135382017Y-137500771D01*
X135382017Y-137500771D02*
X135429636Y-137310295D01*
X135429636Y-137310295D02*
X135477255Y-137215057D01*
X135477255Y-137215057D02*
X135524874Y-137167438D01*
X135524874Y-137167438D02*
X135620112Y-137119819D01*
X136239160Y-137119819D02*
X136572493Y-138119819D01*
X136572493Y-138119819D02*
X136905826Y-137119819D01*
X119665350Y-138003152D02*
X119665350Y-138669819D01*
X119427255Y-137622200D02*
X119189160Y-138336485D01*
X119189160Y-138336485D02*
X119808207Y-138336485D01*
X120379636Y-137669819D02*
X120474874Y-137669819D01*
X120474874Y-137669819D02*
X120570112Y-137717438D01*
X120570112Y-137717438D02*
X120617731Y-137765057D01*
X120617731Y-137765057D02*
X120665350Y-137860295D01*
X120665350Y-137860295D02*
X120712969Y-138050771D01*
X120712969Y-138050771D02*
X120712969Y-138288866D01*
X120712969Y-138288866D02*
X120665350Y-138479342D01*
X120665350Y-138479342D02*
X120617731Y-138574580D01*
X120617731Y-138574580D02*
X120570112Y-138622200D01*
X120570112Y-138622200D02*
X120474874Y-138669819D01*
X120474874Y-138669819D02*
X120379636Y-138669819D01*
X120379636Y-138669819D02*
X120284398Y-138622200D01*
X120284398Y-138622200D02*
X120236779Y-138574580D01*
X120236779Y-138574580D02*
X120189160Y-138479342D01*
X120189160Y-138479342D02*
X120141541Y-138288866D01*
X120141541Y-138288866D02*
X120141541Y-138050771D01*
X120141541Y-138050771D02*
X120189160Y-137860295D01*
X120189160Y-137860295D02*
X120236779Y-137765057D01*
X120236779Y-137765057D02*
X120284398Y-137717438D01*
X120284398Y-137717438D02*
X120379636Y-137669819D01*
X121332017Y-137669819D02*
X121427255Y-137669819D01*
X121427255Y-137669819D02*
X121522493Y-137717438D01*
X121522493Y-137717438D02*
X121570112Y-137765057D01*
X121570112Y-137765057D02*
X121617731Y-137860295D01*
X121617731Y-137860295D02*
X121665350Y-138050771D01*
X121665350Y-138050771D02*
X121665350Y-138288866D01*
X121665350Y-138288866D02*
X121617731Y-138479342D01*
X121617731Y-138479342D02*
X121570112Y-138574580D01*
X121570112Y-138574580D02*
X121522493Y-138622200D01*
X121522493Y-138622200D02*
X121427255Y-138669819D01*
X121427255Y-138669819D02*
X121332017Y-138669819D01*
X121332017Y-138669819D02*
X121236779Y-138622200D01*
X121236779Y-138622200D02*
X121189160Y-138574580D01*
X121189160Y-138574580D02*
X121141541Y-138479342D01*
X121141541Y-138479342D02*
X121093922Y-138288866D01*
X121093922Y-138288866D02*
X121093922Y-138050771D01*
X121093922Y-138050771D02*
X121141541Y-137860295D01*
X121141541Y-137860295D02*
X121189160Y-137765057D01*
X121189160Y-137765057D02*
X121236779Y-137717438D01*
X121236779Y-137717438D02*
X121332017Y-137669819D01*
X121951065Y-137669819D02*
X122284398Y-138669819D01*
X122284398Y-138669819D02*
X122617731Y-137669819D01*
X127586779Y-92988866D02*
X128348684Y-92988866D01*
X127967731Y-93369819D02*
X127967731Y-92607914D01*
X135312969Y-49619819D02*
X134836779Y-49619819D01*
X134836779Y-49619819D02*
X134836779Y-48619819D01*
X124309524Y-104009819D02*
X124309524Y-103009819D01*
X124309524Y-103009819D02*
X124690476Y-103009819D01*
X124690476Y-103009819D02*
X124785714Y-103057438D01*
X124785714Y-103057438D02*
X124833333Y-103105057D01*
X124833333Y-103105057D02*
X124880952Y-103200295D01*
X124880952Y-103200295D02*
X124880952Y-103343152D01*
X124880952Y-103343152D02*
X124833333Y-103438390D01*
X124833333Y-103438390D02*
X124785714Y-103486009D01*
X124785714Y-103486009D02*
X124690476Y-103533628D01*
X124690476Y-103533628D02*
X124309524Y-103533628D01*
X125642857Y-103486009D02*
X125309524Y-103486009D01*
X125309524Y-104009819D02*
X125309524Y-103009819D01*
X125309524Y-103009819D02*
X125785714Y-103009819D01*
X126738095Y-103914580D02*
X126690476Y-103962200D01*
X126690476Y-103962200D02*
X126547619Y-104009819D01*
X126547619Y-104009819D02*
X126452381Y-104009819D01*
X126452381Y-104009819D02*
X126309524Y-103962200D01*
X126309524Y-103962200D02*
X126214286Y-103866961D01*
X126214286Y-103866961D02*
X126166667Y-103771723D01*
X126166667Y-103771723D02*
X126119048Y-103581247D01*
X126119048Y-103581247D02*
X126119048Y-103438390D01*
X126119048Y-103438390D02*
X126166667Y-103247914D01*
X126166667Y-103247914D02*
X126214286Y-103152676D01*
X126214286Y-103152676D02*
X126309524Y-103057438D01*
X126309524Y-103057438D02*
X126452381Y-103009819D01*
X126452381Y-103009819D02*
X126547619Y-103009819D01*
X126547619Y-103009819D02*
X126690476Y-103057438D01*
X126690476Y-103057438D02*
X126738095Y-103105057D01*
X124761905Y-105096009D02*
X125095238Y-105096009D01*
X125238095Y-105619819D02*
X124761905Y-105619819D01*
X124761905Y-105619819D02*
X124761905Y-104619819D01*
X124761905Y-104619819D02*
X125238095Y-104619819D01*
X125666667Y-105619819D02*
X125666667Y-104619819D01*
X125666667Y-104619819D02*
X126238095Y-105619819D01*
X126238095Y-105619819D02*
X126238095Y-104619819D01*
X134836779Y-57369819D02*
X134836779Y-56369819D01*
X134836779Y-56369819D02*
X135408207Y-57369819D01*
X135408207Y-57369819D02*
X135408207Y-56369819D01*
X124666666Y-101354819D02*
X124666666Y-102069104D01*
X124666666Y-102069104D02*
X124619047Y-102211961D01*
X124619047Y-102211961D02*
X124523809Y-102307200D01*
X124523809Y-102307200D02*
X124380952Y-102354819D01*
X124380952Y-102354819D02*
X124285714Y-102354819D01*
X125142857Y-102354819D02*
X125142857Y-101354819D01*
X125142857Y-101354819D02*
X125523809Y-101354819D01*
X125523809Y-101354819D02*
X125619047Y-101402438D01*
X125619047Y-101402438D02*
X125666666Y-101450057D01*
X125666666Y-101450057D02*
X125714285Y-101545295D01*
X125714285Y-101545295D02*
X125714285Y-101688152D01*
X125714285Y-101688152D02*
X125666666Y-101783390D01*
X125666666Y-101783390D02*
X125619047Y-101831009D01*
X125619047Y-101831009D02*
X125523809Y-101878628D01*
X125523809Y-101878628D02*
X125142857Y-101878628D01*
X126095238Y-101450057D02*
X126142857Y-101402438D01*
X126142857Y-101402438D02*
X126238095Y-101354819D01*
X126238095Y-101354819D02*
X126476190Y-101354819D01*
X126476190Y-101354819D02*
X126571428Y-101402438D01*
X126571428Y-101402438D02*
X126619047Y-101450057D01*
X126619047Y-101450057D02*
X126666666Y-101545295D01*
X126666666Y-101545295D02*
X126666666Y-101640533D01*
X126666666Y-101640533D02*
X126619047Y-101783390D01*
X126619047Y-101783390D02*
X126047619Y-102354819D01*
X126047619Y-102354819D02*
X126666666Y-102354819D01*
X135333333Y-110959580D02*
X135285714Y-111007200D01*
X135285714Y-111007200D02*
X135142857Y-111054819D01*
X135142857Y-111054819D02*
X135047619Y-111054819D01*
X135047619Y-111054819D02*
X134904762Y-111007200D01*
X134904762Y-111007200D02*
X134809524Y-110911961D01*
X134809524Y-110911961D02*
X134761905Y-110816723D01*
X134761905Y-110816723D02*
X134714286Y-110626247D01*
X134714286Y-110626247D02*
X134714286Y-110483390D01*
X134714286Y-110483390D02*
X134761905Y-110292914D01*
X134761905Y-110292914D02*
X134809524Y-110197676D01*
X134809524Y-110197676D02*
X134904762Y-110102438D01*
X134904762Y-110102438D02*
X135047619Y-110054819D01*
X135047619Y-110054819D02*
X135142857Y-110054819D01*
X135142857Y-110054819D02*
X135285714Y-110102438D01*
X135285714Y-110102438D02*
X135333333Y-110150057D01*
X136190476Y-110388152D02*
X136190476Y-111054819D01*
X135952381Y-110007200D02*
X135714286Y-110721485D01*
X135714286Y-110721485D02*
X136333333Y-110721485D01*
X167404761Y-127550057D02*
X167309523Y-127502438D01*
X167309523Y-127502438D02*
X167214285Y-127407200D01*
X167214285Y-127407200D02*
X167071428Y-127264342D01*
X167071428Y-127264342D02*
X166976190Y-127216723D01*
X166976190Y-127216723D02*
X166880952Y-127216723D01*
X166928571Y-127454819D02*
X166833333Y-127407200D01*
X166833333Y-127407200D02*
X166738095Y-127311961D01*
X166738095Y-127311961D02*
X166690476Y-127121485D01*
X166690476Y-127121485D02*
X166690476Y-126788152D01*
X166690476Y-126788152D02*
X166738095Y-126597676D01*
X166738095Y-126597676D02*
X166833333Y-126502438D01*
X166833333Y-126502438D02*
X166928571Y-126454819D01*
X166928571Y-126454819D02*
X167119047Y-126454819D01*
X167119047Y-126454819D02*
X167214285Y-126502438D01*
X167214285Y-126502438D02*
X167309523Y-126597676D01*
X167309523Y-126597676D02*
X167357142Y-126788152D01*
X167357142Y-126788152D02*
X167357142Y-127121485D01*
X167357142Y-127121485D02*
X167309523Y-127311961D01*
X167309523Y-127311961D02*
X167214285Y-127407200D01*
X167214285Y-127407200D02*
X167119047Y-127454819D01*
X167119047Y-127454819D02*
X166928571Y-127454819D01*
X167785714Y-127454819D02*
X167785714Y-126454819D01*
X167785714Y-126454819D02*
X168166666Y-126454819D01*
X168166666Y-126454819D02*
X168261904Y-126502438D01*
X168261904Y-126502438D02*
X168309523Y-126550057D01*
X168309523Y-126550057D02*
X168357142Y-126645295D01*
X168357142Y-126645295D02*
X168357142Y-126788152D01*
X168357142Y-126788152D02*
X168309523Y-126883390D01*
X168309523Y-126883390D02*
X168261904Y-126931009D01*
X168261904Y-126931009D02*
X168166666Y-126978628D01*
X168166666Y-126978628D02*
X167785714Y-126978628D01*
X168738095Y-126550057D02*
X168785714Y-126502438D01*
X168785714Y-126502438D02*
X168880952Y-126454819D01*
X168880952Y-126454819D02*
X169119047Y-126454819D01*
X169119047Y-126454819D02*
X169214285Y-126502438D01*
X169214285Y-126502438D02*
X169261904Y-126550057D01*
X169261904Y-126550057D02*
X169309523Y-126645295D01*
X169309523Y-126645295D02*
X169309523Y-126740533D01*
X169309523Y-126740533D02*
X169261904Y-126883390D01*
X169261904Y-126883390D02*
X168690476Y-127454819D01*
X168690476Y-127454819D02*
X169309523Y-127454819D01*
X104433333Y-76554819D02*
X104100000Y-76078628D01*
X103861905Y-76554819D02*
X103861905Y-75554819D01*
X103861905Y-75554819D02*
X104242857Y-75554819D01*
X104242857Y-75554819D02*
X104338095Y-75602438D01*
X104338095Y-75602438D02*
X104385714Y-75650057D01*
X104385714Y-75650057D02*
X104433333Y-75745295D01*
X104433333Y-75745295D02*
X104433333Y-75888152D01*
X104433333Y-75888152D02*
X104385714Y-75983390D01*
X104385714Y-75983390D02*
X104338095Y-76031009D01*
X104338095Y-76031009D02*
X104242857Y-76078628D01*
X104242857Y-76078628D02*
X103861905Y-76078628D01*
X105290476Y-75888152D02*
X105290476Y-76554819D01*
X105052381Y-75507200D02*
X104814286Y-76221485D01*
X104814286Y-76221485D02*
X105433333Y-76221485D01*
X171638095Y-87854819D02*
X171638095Y-88664342D01*
X171638095Y-88664342D02*
X171685714Y-88759580D01*
X171685714Y-88759580D02*
X171733333Y-88807200D01*
X171733333Y-88807200D02*
X171828571Y-88854819D01*
X171828571Y-88854819D02*
X172019047Y-88854819D01*
X172019047Y-88854819D02*
X172114285Y-88807200D01*
X172114285Y-88807200D02*
X172161904Y-88759580D01*
X172161904Y-88759580D02*
X172209523Y-88664342D01*
X172209523Y-88664342D02*
X172209523Y-87854819D01*
X173114285Y-88188152D02*
X173114285Y-88854819D01*
X172876190Y-87807200D02*
X172638095Y-88521485D01*
X172638095Y-88521485D02*
X173257142Y-88521485D01*
X72861905Y-71854819D02*
X72861905Y-70854819D01*
X72861905Y-70854819D02*
X73100000Y-70854819D01*
X73100000Y-70854819D02*
X73242857Y-70902438D01*
X73242857Y-70902438D02*
X73338095Y-70997676D01*
X73338095Y-70997676D02*
X73385714Y-71092914D01*
X73385714Y-71092914D02*
X73433333Y-71283390D01*
X73433333Y-71283390D02*
X73433333Y-71426247D01*
X73433333Y-71426247D02*
X73385714Y-71616723D01*
X73385714Y-71616723D02*
X73338095Y-71711961D01*
X73338095Y-71711961D02*
X73242857Y-71807200D01*
X73242857Y-71807200D02*
X73100000Y-71854819D01*
X73100000Y-71854819D02*
X72861905Y-71854819D01*
X74385714Y-71854819D02*
X73814286Y-71854819D01*
X74100000Y-71854819D02*
X74100000Y-70854819D01*
X74100000Y-70854819D02*
X74004762Y-70997676D01*
X74004762Y-70997676D02*
X73909524Y-71092914D01*
X73909524Y-71092914D02*
X73814286Y-71140533D01*
X173033333Y-103654819D02*
X172700000Y-103178628D01*
X172461905Y-103654819D02*
X172461905Y-102654819D01*
X172461905Y-102654819D02*
X172842857Y-102654819D01*
X172842857Y-102654819D02*
X172938095Y-102702438D01*
X172938095Y-102702438D02*
X172985714Y-102750057D01*
X172985714Y-102750057D02*
X173033333Y-102845295D01*
X173033333Y-102845295D02*
X173033333Y-102988152D01*
X173033333Y-102988152D02*
X172985714Y-103083390D01*
X172985714Y-103083390D02*
X172938095Y-103131009D01*
X172938095Y-103131009D02*
X172842857Y-103178628D01*
X172842857Y-103178628D02*
X172461905Y-103178628D01*
X173938095Y-102654819D02*
X173461905Y-102654819D01*
X173461905Y-102654819D02*
X173414286Y-103131009D01*
X173414286Y-103131009D02*
X173461905Y-103083390D01*
X173461905Y-103083390D02*
X173557143Y-103035771D01*
X173557143Y-103035771D02*
X173795238Y-103035771D01*
X173795238Y-103035771D02*
X173890476Y-103083390D01*
X173890476Y-103083390D02*
X173938095Y-103131009D01*
X173938095Y-103131009D02*
X173985714Y-103226247D01*
X173985714Y-103226247D02*
X173985714Y-103464342D01*
X173985714Y-103464342D02*
X173938095Y-103559580D01*
X173938095Y-103559580D02*
X173890476Y-103607200D01*
X173890476Y-103607200D02*
X173795238Y-103654819D01*
X173795238Y-103654819D02*
X173557143Y-103654819D01*
X173557143Y-103654819D02*
X173461905Y-103607200D01*
X173461905Y-103607200D02*
X173414286Y-103559580D01*
X71238095Y-100154819D02*
X71809523Y-100154819D01*
X71523809Y-101154819D02*
X71523809Y-100154819D01*
X72142857Y-101154819D02*
X72142857Y-100154819D01*
X72142857Y-100154819D02*
X72523809Y-100154819D01*
X72523809Y-100154819D02*
X72619047Y-100202438D01*
X72619047Y-100202438D02*
X72666666Y-100250057D01*
X72666666Y-100250057D02*
X72714285Y-100345295D01*
X72714285Y-100345295D02*
X72714285Y-100488152D01*
X72714285Y-100488152D02*
X72666666Y-100583390D01*
X72666666Y-100583390D02*
X72619047Y-100631009D01*
X72619047Y-100631009D02*
X72523809Y-100678628D01*
X72523809Y-100678628D02*
X72142857Y-100678628D01*
X73666666Y-101154819D02*
X73095238Y-101154819D01*
X73380952Y-101154819D02*
X73380952Y-100154819D01*
X73380952Y-100154819D02*
X73285714Y-100297676D01*
X73285714Y-100297676D02*
X73190476Y-100392914D01*
X73190476Y-100392914D02*
X73095238Y-100440533D01*
X140133333Y-131954819D02*
X139800000Y-131478628D01*
X139561905Y-131954819D02*
X139561905Y-130954819D01*
X139561905Y-130954819D02*
X139942857Y-130954819D01*
X139942857Y-130954819D02*
X140038095Y-131002438D01*
X140038095Y-131002438D02*
X140085714Y-131050057D01*
X140085714Y-131050057D02*
X140133333Y-131145295D01*
X140133333Y-131145295D02*
X140133333Y-131288152D01*
X140133333Y-131288152D02*
X140085714Y-131383390D01*
X140085714Y-131383390D02*
X140038095Y-131431009D01*
X140038095Y-131431009D02*
X139942857Y-131478628D01*
X139942857Y-131478628D02*
X139561905Y-131478628D01*
X140704762Y-131383390D02*
X140609524Y-131335771D01*
X140609524Y-131335771D02*
X140561905Y-131288152D01*
X140561905Y-131288152D02*
X140514286Y-131192914D01*
X140514286Y-131192914D02*
X140514286Y-131145295D01*
X140514286Y-131145295D02*
X140561905Y-131050057D01*
X140561905Y-131050057D02*
X140609524Y-131002438D01*
X140609524Y-131002438D02*
X140704762Y-130954819D01*
X140704762Y-130954819D02*
X140895238Y-130954819D01*
X140895238Y-130954819D02*
X140990476Y-131002438D01*
X140990476Y-131002438D02*
X141038095Y-131050057D01*
X141038095Y-131050057D02*
X141085714Y-131145295D01*
X141085714Y-131145295D02*
X141085714Y-131192914D01*
X141085714Y-131192914D02*
X141038095Y-131288152D01*
X141038095Y-131288152D02*
X140990476Y-131335771D01*
X140990476Y-131335771D02*
X140895238Y-131383390D01*
X140895238Y-131383390D02*
X140704762Y-131383390D01*
X140704762Y-131383390D02*
X140609524Y-131431009D01*
X140609524Y-131431009D02*
X140561905Y-131478628D01*
X140561905Y-131478628D02*
X140514286Y-131573866D01*
X140514286Y-131573866D02*
X140514286Y-131764342D01*
X140514286Y-131764342D02*
X140561905Y-131859580D01*
X140561905Y-131859580D02*
X140609524Y-131907200D01*
X140609524Y-131907200D02*
X140704762Y-131954819D01*
X140704762Y-131954819D02*
X140895238Y-131954819D01*
X140895238Y-131954819D02*
X140990476Y-131907200D01*
X140990476Y-131907200D02*
X141038095Y-131859580D01*
X141038095Y-131859580D02*
X141085714Y-131764342D01*
X141085714Y-131764342D02*
X141085714Y-131573866D01*
X141085714Y-131573866D02*
X141038095Y-131478628D01*
X141038095Y-131478628D02*
X140990476Y-131431009D01*
X140990476Y-131431009D02*
X140895238Y-131383390D01*
X119638095Y-136154819D02*
X120209523Y-136154819D01*
X119923809Y-137154819D02*
X119923809Y-136154819D01*
X120542857Y-137154819D02*
X120542857Y-136154819D01*
X120542857Y-136154819D02*
X120923809Y-136154819D01*
X120923809Y-136154819D02*
X121019047Y-136202438D01*
X121019047Y-136202438D02*
X121066666Y-136250057D01*
X121066666Y-136250057D02*
X121114285Y-136345295D01*
X121114285Y-136345295D02*
X121114285Y-136488152D01*
X121114285Y-136488152D02*
X121066666Y-136583390D01*
X121066666Y-136583390D02*
X121019047Y-136631009D01*
X121019047Y-136631009D02*
X120923809Y-136678628D01*
X120923809Y-136678628D02*
X120542857Y-136678628D01*
X121495238Y-136250057D02*
X121542857Y-136202438D01*
X121542857Y-136202438D02*
X121638095Y-136154819D01*
X121638095Y-136154819D02*
X121876190Y-136154819D01*
X121876190Y-136154819D02*
X121971428Y-136202438D01*
X121971428Y-136202438D02*
X122019047Y-136250057D01*
X122019047Y-136250057D02*
X122066666Y-136345295D01*
X122066666Y-136345295D02*
X122066666Y-136440533D01*
X122066666Y-136440533D02*
X122019047Y-136583390D01*
X122019047Y-136583390D02*
X121447619Y-137154819D01*
X121447619Y-137154819D02*
X122066666Y-137154819D01*
X91561905Y-125154819D02*
X91561905Y-124154819D01*
X91561905Y-124154819D02*
X91800000Y-124154819D01*
X91800000Y-124154819D02*
X91942857Y-124202438D01*
X91942857Y-124202438D02*
X92038095Y-124297676D01*
X92038095Y-124297676D02*
X92085714Y-124392914D01*
X92085714Y-124392914D02*
X92133333Y-124583390D01*
X92133333Y-124583390D02*
X92133333Y-124726247D01*
X92133333Y-124726247D02*
X92085714Y-124916723D01*
X92085714Y-124916723D02*
X92038095Y-125011961D01*
X92038095Y-125011961D02*
X91942857Y-125107200D01*
X91942857Y-125107200D02*
X91800000Y-125154819D01*
X91800000Y-125154819D02*
X91561905Y-125154819D01*
X92561905Y-125154819D02*
X92561905Y-124154819D01*
X92561905Y-124154819D02*
X92942857Y-124154819D01*
X92942857Y-124154819D02*
X93038095Y-124202438D01*
X93038095Y-124202438D02*
X93085714Y-124250057D01*
X93085714Y-124250057D02*
X93133333Y-124345295D01*
X93133333Y-124345295D02*
X93133333Y-124488152D01*
X93133333Y-124488152D02*
X93085714Y-124583390D01*
X93085714Y-124583390D02*
X93038095Y-124631009D01*
X93038095Y-124631009D02*
X92942857Y-124678628D01*
X92942857Y-124678628D02*
X92561905Y-124678628D01*
X94085714Y-125154819D02*
X93514286Y-125154819D01*
X93800000Y-125154819D02*
X93800000Y-124154819D01*
X93800000Y-124154819D02*
X93704762Y-124297676D01*
X93704762Y-124297676D02*
X93609524Y-124392914D01*
X93609524Y-124392914D02*
X93514286Y-124440533D01*
X137561905Y-102554819D02*
X137561905Y-101554819D01*
X137561905Y-101554819D02*
X137800000Y-101554819D01*
X137800000Y-101554819D02*
X137942857Y-101602438D01*
X137942857Y-101602438D02*
X138038095Y-101697676D01*
X138038095Y-101697676D02*
X138085714Y-101792914D01*
X138085714Y-101792914D02*
X138133333Y-101983390D01*
X138133333Y-101983390D02*
X138133333Y-102126247D01*
X138133333Y-102126247D02*
X138085714Y-102316723D01*
X138085714Y-102316723D02*
X138038095Y-102411961D01*
X138038095Y-102411961D02*
X137942857Y-102507200D01*
X137942857Y-102507200D02*
X137800000Y-102554819D01*
X137800000Y-102554819D02*
X137561905Y-102554819D01*
X138990476Y-101554819D02*
X138800000Y-101554819D01*
X138800000Y-101554819D02*
X138704762Y-101602438D01*
X138704762Y-101602438D02*
X138657143Y-101650057D01*
X138657143Y-101650057D02*
X138561905Y-101792914D01*
X138561905Y-101792914D02*
X138514286Y-101983390D01*
X138514286Y-101983390D02*
X138514286Y-102364342D01*
X138514286Y-102364342D02*
X138561905Y-102459580D01*
X138561905Y-102459580D02*
X138609524Y-102507200D01*
X138609524Y-102507200D02*
X138704762Y-102554819D01*
X138704762Y-102554819D02*
X138895238Y-102554819D01*
X138895238Y-102554819D02*
X138990476Y-102507200D01*
X138990476Y-102507200D02*
X139038095Y-102459580D01*
X139038095Y-102459580D02*
X139085714Y-102364342D01*
X139085714Y-102364342D02*
X139085714Y-102126247D01*
X139085714Y-102126247D02*
X139038095Y-102031009D01*
X139038095Y-102031009D02*
X138990476Y-101983390D01*
X138990476Y-101983390D02*
X138895238Y-101935771D01*
X138895238Y-101935771D02*
X138704762Y-101935771D01*
X138704762Y-101935771D02*
X138609524Y-101983390D01*
X138609524Y-101983390D02*
X138561905Y-102031009D01*
X138561905Y-102031009D02*
X138514286Y-102126247D01*
X126561905Y-88454819D02*
X126561905Y-87454819D01*
X126561905Y-87454819D02*
X126800000Y-87454819D01*
X126800000Y-87454819D02*
X126942857Y-87502438D01*
X126942857Y-87502438D02*
X127038095Y-87597676D01*
X127038095Y-87597676D02*
X127085714Y-87692914D01*
X127085714Y-87692914D02*
X127133333Y-87883390D01*
X127133333Y-87883390D02*
X127133333Y-88026247D01*
X127133333Y-88026247D02*
X127085714Y-88216723D01*
X127085714Y-88216723D02*
X127038095Y-88311961D01*
X127038095Y-88311961D02*
X126942857Y-88407200D01*
X126942857Y-88407200D02*
X126800000Y-88454819D01*
X126800000Y-88454819D02*
X126561905Y-88454819D01*
X128038095Y-87454819D02*
X127561905Y-87454819D01*
X127561905Y-87454819D02*
X127514286Y-87931009D01*
X127514286Y-87931009D02*
X127561905Y-87883390D01*
X127561905Y-87883390D02*
X127657143Y-87835771D01*
X127657143Y-87835771D02*
X127895238Y-87835771D01*
X127895238Y-87835771D02*
X127990476Y-87883390D01*
X127990476Y-87883390D02*
X128038095Y-87931009D01*
X128038095Y-87931009D02*
X128085714Y-88026247D01*
X128085714Y-88026247D02*
X128085714Y-88264342D01*
X128085714Y-88264342D02*
X128038095Y-88359580D01*
X128038095Y-88359580D02*
X127990476Y-88407200D01*
X127990476Y-88407200D02*
X127895238Y-88454819D01*
X127895238Y-88454819D02*
X127657143Y-88454819D01*
X127657143Y-88454819D02*
X127561905Y-88407200D01*
X127561905Y-88407200D02*
X127514286Y-88359580D01*
X67328571Y-40759580D02*
X67280952Y-40807200D01*
X67280952Y-40807200D02*
X67138095Y-40854819D01*
X67138095Y-40854819D02*
X67042857Y-40854819D01*
X67042857Y-40854819D02*
X66900000Y-40807200D01*
X66900000Y-40807200D02*
X66804762Y-40711961D01*
X66804762Y-40711961D02*
X66757143Y-40616723D01*
X66757143Y-40616723D02*
X66709524Y-40426247D01*
X66709524Y-40426247D02*
X66709524Y-40283390D01*
X66709524Y-40283390D02*
X66757143Y-40092914D01*
X66757143Y-40092914D02*
X66804762Y-39997676D01*
X66804762Y-39997676D02*
X66900000Y-39902438D01*
X66900000Y-39902438D02*
X67042857Y-39854819D01*
X67042857Y-39854819D02*
X67138095Y-39854819D01*
X67138095Y-39854819D02*
X67280952Y-39902438D01*
X67280952Y-39902438D02*
X67328571Y-39950057D01*
X68233333Y-40854819D02*
X67757143Y-40854819D01*
X67757143Y-40854819D02*
X67757143Y-39854819D01*
X69138095Y-40854819D02*
X68804762Y-40378628D01*
X68566667Y-40854819D02*
X68566667Y-39854819D01*
X68566667Y-39854819D02*
X68947619Y-39854819D01*
X68947619Y-39854819D02*
X69042857Y-39902438D01*
X69042857Y-39902438D02*
X69090476Y-39950057D01*
X69090476Y-39950057D02*
X69138095Y-40045295D01*
X69138095Y-40045295D02*
X69138095Y-40188152D01*
X69138095Y-40188152D02*
X69090476Y-40283390D01*
X69090476Y-40283390D02*
X69042857Y-40331009D01*
X69042857Y-40331009D02*
X68947619Y-40378628D01*
X68947619Y-40378628D02*
X68566667Y-40378628D01*
X70090476Y-40854819D02*
X69519048Y-40854819D01*
X69804762Y-40854819D02*
X69804762Y-39854819D01*
X69804762Y-39854819D02*
X69709524Y-39997676D01*
X69709524Y-39997676D02*
X69614286Y-40092914D01*
X69614286Y-40092914D02*
X69519048Y-40140533D01*
X141161905Y-110354819D02*
X141161905Y-109354819D01*
X141161905Y-109354819D02*
X141400000Y-109354819D01*
X141400000Y-109354819D02*
X141542857Y-109402438D01*
X141542857Y-109402438D02*
X141638095Y-109497676D01*
X141638095Y-109497676D02*
X141685714Y-109592914D01*
X141685714Y-109592914D02*
X141733333Y-109783390D01*
X141733333Y-109783390D02*
X141733333Y-109926247D01*
X141733333Y-109926247D02*
X141685714Y-110116723D01*
X141685714Y-110116723D02*
X141638095Y-110211961D01*
X141638095Y-110211961D02*
X141542857Y-110307200D01*
X141542857Y-110307200D02*
X141400000Y-110354819D01*
X141400000Y-110354819D02*
X141161905Y-110354819D01*
X142066667Y-109354819D02*
X142685714Y-109354819D01*
X142685714Y-109354819D02*
X142352381Y-109735771D01*
X142352381Y-109735771D02*
X142495238Y-109735771D01*
X142495238Y-109735771D02*
X142590476Y-109783390D01*
X142590476Y-109783390D02*
X142638095Y-109831009D01*
X142638095Y-109831009D02*
X142685714Y-109926247D01*
X142685714Y-109926247D02*
X142685714Y-110164342D01*
X142685714Y-110164342D02*
X142638095Y-110259580D01*
X142638095Y-110259580D02*
X142590476Y-110307200D01*
X142590476Y-110307200D02*
X142495238Y-110354819D01*
X142495238Y-110354819D02*
X142209524Y-110354819D01*
X142209524Y-110354819D02*
X142114286Y-110307200D01*
X142114286Y-110307200D02*
X142066667Y-110259580D01*
X141038095Y-116154819D02*
X141038095Y-115154819D01*
X141609523Y-116154819D02*
X141180952Y-115583390D01*
X141609523Y-115154819D02*
X141038095Y-115726247D01*
X160820579Y-128859580D02*
X160772960Y-128907200D01*
X160772960Y-128907200D02*
X160630103Y-128954819D01*
X160630103Y-128954819D02*
X160534865Y-128954819D01*
X160534865Y-128954819D02*
X160392008Y-128907200D01*
X160392008Y-128907200D02*
X160296770Y-128811961D01*
X160296770Y-128811961D02*
X160249151Y-128716723D01*
X160249151Y-128716723D02*
X160201532Y-128526247D01*
X160201532Y-128526247D02*
X160201532Y-128383390D01*
X160201532Y-128383390D02*
X160249151Y-128192914D01*
X160249151Y-128192914D02*
X160296770Y-128097676D01*
X160296770Y-128097676D02*
X160392008Y-128002438D01*
X160392008Y-128002438D02*
X160534865Y-127954819D01*
X160534865Y-127954819D02*
X160630103Y-127954819D01*
X160630103Y-127954819D02*
X160772960Y-128002438D01*
X160772960Y-128002438D02*
X160820579Y-128050057D01*
X161153913Y-127954819D02*
X161772960Y-127954819D01*
X161772960Y-127954819D02*
X161439627Y-128335771D01*
X161439627Y-128335771D02*
X161582484Y-128335771D01*
X161582484Y-128335771D02*
X161677722Y-128383390D01*
X161677722Y-128383390D02*
X161725341Y-128431009D01*
X161725341Y-128431009D02*
X161772960Y-128526247D01*
X161772960Y-128526247D02*
X161772960Y-128764342D01*
X161772960Y-128764342D02*
X161725341Y-128859580D01*
X161725341Y-128859580D02*
X161677722Y-128907200D01*
X161677722Y-128907200D02*
X161582484Y-128954819D01*
X161582484Y-128954819D02*
X161296770Y-128954819D01*
X161296770Y-128954819D02*
X161201532Y-128907200D01*
X161201532Y-128907200D02*
X161153913Y-128859580D01*
X79904761Y-100550057D02*
X79809523Y-100502438D01*
X79809523Y-100502438D02*
X79714285Y-100407200D01*
X79714285Y-100407200D02*
X79571428Y-100264342D01*
X79571428Y-100264342D02*
X79476190Y-100216723D01*
X79476190Y-100216723D02*
X79380952Y-100216723D01*
X79428571Y-100454819D02*
X79333333Y-100407200D01*
X79333333Y-100407200D02*
X79238095Y-100311961D01*
X79238095Y-100311961D02*
X79190476Y-100121485D01*
X79190476Y-100121485D02*
X79190476Y-99788152D01*
X79190476Y-99788152D02*
X79238095Y-99597676D01*
X79238095Y-99597676D02*
X79333333Y-99502438D01*
X79333333Y-99502438D02*
X79428571Y-99454819D01*
X79428571Y-99454819D02*
X79619047Y-99454819D01*
X79619047Y-99454819D02*
X79714285Y-99502438D01*
X79714285Y-99502438D02*
X79809523Y-99597676D01*
X79809523Y-99597676D02*
X79857142Y-99788152D01*
X79857142Y-99788152D02*
X79857142Y-100121485D01*
X79857142Y-100121485D02*
X79809523Y-100311961D01*
X79809523Y-100311961D02*
X79714285Y-100407200D01*
X79714285Y-100407200D02*
X79619047Y-100454819D01*
X79619047Y-100454819D02*
X79428571Y-100454819D01*
X80285714Y-100454819D02*
X80285714Y-99454819D01*
X80285714Y-99454819D02*
X80666666Y-99454819D01*
X80666666Y-99454819D02*
X80761904Y-99502438D01*
X80761904Y-99502438D02*
X80809523Y-99550057D01*
X80809523Y-99550057D02*
X80857142Y-99645295D01*
X80857142Y-99645295D02*
X80857142Y-99788152D01*
X80857142Y-99788152D02*
X80809523Y-99883390D01*
X80809523Y-99883390D02*
X80761904Y-99931009D01*
X80761904Y-99931009D02*
X80666666Y-99978628D01*
X80666666Y-99978628D02*
X80285714Y-99978628D01*
X81809523Y-100454819D02*
X81238095Y-100454819D01*
X81523809Y-100454819D02*
X81523809Y-99454819D01*
X81523809Y-99454819D02*
X81428571Y-99597676D01*
X81428571Y-99597676D02*
X81333333Y-99692914D01*
X81333333Y-99692914D02*
X81238095Y-99740533D01*
X138180682Y-84859580D02*
X138133063Y-84907200D01*
X138133063Y-84907200D02*
X137990206Y-84954819D01*
X137990206Y-84954819D02*
X137894968Y-84954819D01*
X137894968Y-84954819D02*
X137752111Y-84907200D01*
X137752111Y-84907200D02*
X137656873Y-84811961D01*
X137656873Y-84811961D02*
X137609254Y-84716723D01*
X137609254Y-84716723D02*
X137561635Y-84526247D01*
X137561635Y-84526247D02*
X137561635Y-84383390D01*
X137561635Y-84383390D02*
X137609254Y-84192914D01*
X137609254Y-84192914D02*
X137656873Y-84097676D01*
X137656873Y-84097676D02*
X137752111Y-84002438D01*
X137752111Y-84002438D02*
X137894968Y-83954819D01*
X137894968Y-83954819D02*
X137990206Y-83954819D01*
X137990206Y-83954819D02*
X138133063Y-84002438D01*
X138133063Y-84002438D02*
X138180682Y-84050057D01*
X138752111Y-84383390D02*
X138656873Y-84335771D01*
X138656873Y-84335771D02*
X138609254Y-84288152D01*
X138609254Y-84288152D02*
X138561635Y-84192914D01*
X138561635Y-84192914D02*
X138561635Y-84145295D01*
X138561635Y-84145295D02*
X138609254Y-84050057D01*
X138609254Y-84050057D02*
X138656873Y-84002438D01*
X138656873Y-84002438D02*
X138752111Y-83954819D01*
X138752111Y-83954819D02*
X138942587Y-83954819D01*
X138942587Y-83954819D02*
X139037825Y-84002438D01*
X139037825Y-84002438D02*
X139085444Y-84050057D01*
X139085444Y-84050057D02*
X139133063Y-84145295D01*
X139133063Y-84145295D02*
X139133063Y-84192914D01*
X139133063Y-84192914D02*
X139085444Y-84288152D01*
X139085444Y-84288152D02*
X139037825Y-84335771D01*
X139037825Y-84335771D02*
X138942587Y-84383390D01*
X138942587Y-84383390D02*
X138752111Y-84383390D01*
X138752111Y-84383390D02*
X138656873Y-84431009D01*
X138656873Y-84431009D02*
X138609254Y-84478628D01*
X138609254Y-84478628D02*
X138561635Y-84573866D01*
X138561635Y-84573866D02*
X138561635Y-84764342D01*
X138561635Y-84764342D02*
X138609254Y-84859580D01*
X138609254Y-84859580D02*
X138656873Y-84907200D01*
X138656873Y-84907200D02*
X138752111Y-84954819D01*
X138752111Y-84954819D02*
X138942587Y-84954819D01*
X138942587Y-84954819D02*
X139037825Y-84907200D01*
X139037825Y-84907200D02*
X139085444Y-84859580D01*
X139085444Y-84859580D02*
X139133063Y-84764342D01*
X139133063Y-84764342D02*
X139133063Y-84573866D01*
X139133063Y-84573866D02*
X139085444Y-84478628D01*
X139085444Y-84478628D02*
X139037825Y-84431009D01*
X139037825Y-84431009D02*
X138942587Y-84383390D01*
X130733333Y-118154819D02*
X130400000Y-117678628D01*
X130161905Y-118154819D02*
X130161905Y-117154819D01*
X130161905Y-117154819D02*
X130542857Y-117154819D01*
X130542857Y-117154819D02*
X130638095Y-117202438D01*
X130638095Y-117202438D02*
X130685714Y-117250057D01*
X130685714Y-117250057D02*
X130733333Y-117345295D01*
X130733333Y-117345295D02*
X130733333Y-117488152D01*
X130733333Y-117488152D02*
X130685714Y-117583390D01*
X130685714Y-117583390D02*
X130638095Y-117631009D01*
X130638095Y-117631009D02*
X130542857Y-117678628D01*
X130542857Y-117678628D02*
X130161905Y-117678628D01*
X131066667Y-117154819D02*
X131733333Y-117154819D01*
X131733333Y-117154819D02*
X131304762Y-118154819D01*
X102671904Y-99715180D02*
X102100476Y-99715180D01*
X102386190Y-98715180D02*
X102386190Y-99715180D01*
X101195714Y-98715180D02*
X101529047Y-99191371D01*
X101767142Y-98715180D02*
X101767142Y-99715180D01*
X101767142Y-99715180D02*
X101386190Y-99715180D01*
X101386190Y-99715180D02*
X101290952Y-99667561D01*
X101290952Y-99667561D02*
X101243333Y-99619942D01*
X101243333Y-99619942D02*
X101195714Y-99524704D01*
X101195714Y-99524704D02*
X101195714Y-99381847D01*
X101195714Y-99381847D02*
X101243333Y-99286609D01*
X101243333Y-99286609D02*
X101290952Y-99238990D01*
X101290952Y-99238990D02*
X101386190Y-99191371D01*
X101386190Y-99191371D02*
X101767142Y-99191371D01*
X100243333Y-98715180D02*
X100814761Y-98715180D01*
X100529047Y-98715180D02*
X100529047Y-99715180D01*
X100529047Y-99715180D02*
X100624285Y-99572323D01*
X100624285Y-99572323D02*
X100719523Y-99477085D01*
X100719523Y-99477085D02*
X100814761Y-99429466D01*
X132666666Y-138754819D02*
X132666666Y-139469104D01*
X132666666Y-139469104D02*
X132619047Y-139611961D01*
X132619047Y-139611961D02*
X132523809Y-139707200D01*
X132523809Y-139707200D02*
X132380952Y-139754819D01*
X132380952Y-139754819D02*
X132285714Y-139754819D01*
X133666666Y-139754819D02*
X133095238Y-139754819D01*
X133380952Y-139754819D02*
X133380952Y-138754819D01*
X133380952Y-138754819D02*
X133285714Y-138897676D01*
X133285714Y-138897676D02*
X133190476Y-138992914D01*
X133190476Y-138992914D02*
X133095238Y-139040533D01*
X172033333Y-116989580D02*
X171985714Y-117037200D01*
X171985714Y-117037200D02*
X171842857Y-117084819D01*
X171842857Y-117084819D02*
X171747619Y-117084819D01*
X171747619Y-117084819D02*
X171604762Y-117037200D01*
X171604762Y-117037200D02*
X171509524Y-116941961D01*
X171509524Y-116941961D02*
X171461905Y-116846723D01*
X171461905Y-116846723D02*
X171414286Y-116656247D01*
X171414286Y-116656247D02*
X171414286Y-116513390D01*
X171414286Y-116513390D02*
X171461905Y-116322914D01*
X171461905Y-116322914D02*
X171509524Y-116227676D01*
X171509524Y-116227676D02*
X171604762Y-116132438D01*
X171604762Y-116132438D02*
X171747619Y-116084819D01*
X171747619Y-116084819D02*
X171842857Y-116084819D01*
X171842857Y-116084819D02*
X171985714Y-116132438D01*
X171985714Y-116132438D02*
X172033333Y-116180057D01*
X172938095Y-116084819D02*
X172461905Y-116084819D01*
X172461905Y-116084819D02*
X172414286Y-116561009D01*
X172414286Y-116561009D02*
X172461905Y-116513390D01*
X172461905Y-116513390D02*
X172557143Y-116465771D01*
X172557143Y-116465771D02*
X172795238Y-116465771D01*
X172795238Y-116465771D02*
X172890476Y-116513390D01*
X172890476Y-116513390D02*
X172938095Y-116561009D01*
X172938095Y-116561009D02*
X172985714Y-116656247D01*
X172985714Y-116656247D02*
X172985714Y-116894342D01*
X172985714Y-116894342D02*
X172938095Y-116989580D01*
X172938095Y-116989580D02*
X172890476Y-117037200D01*
X172890476Y-117037200D02*
X172795238Y-117084819D01*
X172795238Y-117084819D02*
X172557143Y-117084819D01*
X172557143Y-117084819D02*
X172461905Y-117037200D01*
X172461905Y-117037200D02*
X172414286Y-116989580D01*
X124366666Y-93154819D02*
X124366666Y-93869104D01*
X124366666Y-93869104D02*
X124319047Y-94011961D01*
X124319047Y-94011961D02*
X124223809Y-94107200D01*
X124223809Y-94107200D02*
X124080952Y-94154819D01*
X124080952Y-94154819D02*
X123985714Y-94154819D01*
X124795238Y-93250057D02*
X124842857Y-93202438D01*
X124842857Y-93202438D02*
X124938095Y-93154819D01*
X124938095Y-93154819D02*
X125176190Y-93154819D01*
X125176190Y-93154819D02*
X125271428Y-93202438D01*
X125271428Y-93202438D02*
X125319047Y-93250057D01*
X125319047Y-93250057D02*
X125366666Y-93345295D01*
X125366666Y-93345295D02*
X125366666Y-93440533D01*
X125366666Y-93440533D02*
X125319047Y-93583390D01*
X125319047Y-93583390D02*
X124747619Y-94154819D01*
X124747619Y-94154819D02*
X125366666Y-94154819D01*
X133304761Y-64454819D02*
X132971428Y-63978628D01*
X132733333Y-64454819D02*
X132733333Y-63454819D01*
X132733333Y-63454819D02*
X133114285Y-63454819D01*
X133114285Y-63454819D02*
X133209523Y-63502438D01*
X133209523Y-63502438D02*
X133257142Y-63550057D01*
X133257142Y-63550057D02*
X133304761Y-63645295D01*
X133304761Y-63645295D02*
X133304761Y-63788152D01*
X133304761Y-63788152D02*
X133257142Y-63883390D01*
X133257142Y-63883390D02*
X133209523Y-63931009D01*
X133209523Y-63931009D02*
X133114285Y-63978628D01*
X133114285Y-63978628D02*
X132733333Y-63978628D01*
X133590476Y-63454819D02*
X133923809Y-64454819D01*
X133923809Y-64454819D02*
X134257142Y-63454819D01*
X135114285Y-64454819D02*
X134542857Y-64454819D01*
X134828571Y-64454819D02*
X134828571Y-63454819D01*
X134828571Y-63454819D02*
X134733333Y-63597676D01*
X134733333Y-63597676D02*
X134638095Y-63692914D01*
X134638095Y-63692914D02*
X134542857Y-63740533D01*
X155238095Y-102254819D02*
X155809523Y-102254819D01*
X155523809Y-103254819D02*
X155523809Y-102254819D01*
X156714285Y-103254819D02*
X156380952Y-102778628D01*
X156142857Y-103254819D02*
X156142857Y-102254819D01*
X156142857Y-102254819D02*
X156523809Y-102254819D01*
X156523809Y-102254819D02*
X156619047Y-102302438D01*
X156619047Y-102302438D02*
X156666666Y-102350057D01*
X156666666Y-102350057D02*
X156714285Y-102445295D01*
X156714285Y-102445295D02*
X156714285Y-102588152D01*
X156714285Y-102588152D02*
X156666666Y-102683390D01*
X156666666Y-102683390D02*
X156619047Y-102731009D01*
X156619047Y-102731009D02*
X156523809Y-102778628D01*
X156523809Y-102778628D02*
X156142857Y-102778628D01*
X157095238Y-102350057D02*
X157142857Y-102302438D01*
X157142857Y-102302438D02*
X157238095Y-102254819D01*
X157238095Y-102254819D02*
X157476190Y-102254819D01*
X157476190Y-102254819D02*
X157571428Y-102302438D01*
X157571428Y-102302438D02*
X157619047Y-102350057D01*
X157619047Y-102350057D02*
X157666666Y-102445295D01*
X157666666Y-102445295D02*
X157666666Y-102540533D01*
X157666666Y-102540533D02*
X157619047Y-102683390D01*
X157619047Y-102683390D02*
X157047619Y-103254819D01*
X157047619Y-103254819D02*
X157666666Y-103254819D01*
X68333333Y-79559580D02*
X68285714Y-79607200D01*
X68285714Y-79607200D02*
X68142857Y-79654819D01*
X68142857Y-79654819D02*
X68047619Y-79654819D01*
X68047619Y-79654819D02*
X67904762Y-79607200D01*
X67904762Y-79607200D02*
X67809524Y-79511961D01*
X67809524Y-79511961D02*
X67761905Y-79416723D01*
X67761905Y-79416723D02*
X67714286Y-79226247D01*
X67714286Y-79226247D02*
X67714286Y-79083390D01*
X67714286Y-79083390D02*
X67761905Y-78892914D01*
X67761905Y-78892914D02*
X67809524Y-78797676D01*
X67809524Y-78797676D02*
X67904762Y-78702438D01*
X67904762Y-78702438D02*
X68047619Y-78654819D01*
X68047619Y-78654819D02*
X68142857Y-78654819D01*
X68142857Y-78654819D02*
X68285714Y-78702438D01*
X68285714Y-78702438D02*
X68333333Y-78750057D01*
X69285714Y-79654819D02*
X68714286Y-79654819D01*
X69000000Y-79654819D02*
X69000000Y-78654819D01*
X69000000Y-78654819D02*
X68904762Y-78797676D01*
X68904762Y-78797676D02*
X68809524Y-78892914D01*
X68809524Y-78892914D02*
X68714286Y-78940533D01*
X173838095Y-104254819D02*
X173838095Y-105064342D01*
X173838095Y-105064342D02*
X173885714Y-105159580D01*
X173885714Y-105159580D02*
X173933333Y-105207200D01*
X173933333Y-105207200D02*
X174028571Y-105254819D01*
X174028571Y-105254819D02*
X174219047Y-105254819D01*
X174219047Y-105254819D02*
X174314285Y-105207200D01*
X174314285Y-105207200D02*
X174361904Y-105159580D01*
X174361904Y-105159580D02*
X174409523Y-105064342D01*
X174409523Y-105064342D02*
X174409523Y-104254819D01*
X174790476Y-104254819D02*
X175409523Y-104254819D01*
X175409523Y-104254819D02*
X175076190Y-104635771D01*
X175076190Y-104635771D02*
X175219047Y-104635771D01*
X175219047Y-104635771D02*
X175314285Y-104683390D01*
X175314285Y-104683390D02*
X175361904Y-104731009D01*
X175361904Y-104731009D02*
X175409523Y-104826247D01*
X175409523Y-104826247D02*
X175409523Y-105064342D01*
X175409523Y-105064342D02*
X175361904Y-105159580D01*
X175361904Y-105159580D02*
X175314285Y-105207200D01*
X175314285Y-105207200D02*
X175219047Y-105254819D01*
X175219047Y-105254819D02*
X174933333Y-105254819D01*
X174933333Y-105254819D02*
X174838095Y-105207200D01*
X174838095Y-105207200D02*
X174790476Y-105159580D01*
X145333333Y-131259580D02*
X145285714Y-131307200D01*
X145285714Y-131307200D02*
X145142857Y-131354819D01*
X145142857Y-131354819D02*
X145047619Y-131354819D01*
X145047619Y-131354819D02*
X144904762Y-131307200D01*
X144904762Y-131307200D02*
X144809524Y-131211961D01*
X144809524Y-131211961D02*
X144761905Y-131116723D01*
X144761905Y-131116723D02*
X144714286Y-130926247D01*
X144714286Y-130926247D02*
X144714286Y-130783390D01*
X144714286Y-130783390D02*
X144761905Y-130592914D01*
X144761905Y-130592914D02*
X144809524Y-130497676D01*
X144809524Y-130497676D02*
X144904762Y-130402438D01*
X144904762Y-130402438D02*
X145047619Y-130354819D01*
X145047619Y-130354819D02*
X145142857Y-130354819D01*
X145142857Y-130354819D02*
X145285714Y-130402438D01*
X145285714Y-130402438D02*
X145333333Y-130450057D01*
X146190476Y-130354819D02*
X146000000Y-130354819D01*
X146000000Y-130354819D02*
X145904762Y-130402438D01*
X145904762Y-130402438D02*
X145857143Y-130450057D01*
X145857143Y-130450057D02*
X145761905Y-130592914D01*
X145761905Y-130592914D02*
X145714286Y-130783390D01*
X145714286Y-130783390D02*
X145714286Y-131164342D01*
X145714286Y-131164342D02*
X145761905Y-131259580D01*
X145761905Y-131259580D02*
X145809524Y-131307200D01*
X145809524Y-131307200D02*
X145904762Y-131354819D01*
X145904762Y-131354819D02*
X146095238Y-131354819D01*
X146095238Y-131354819D02*
X146190476Y-131307200D01*
X146190476Y-131307200D02*
X146238095Y-131259580D01*
X146238095Y-131259580D02*
X146285714Y-131164342D01*
X146285714Y-131164342D02*
X146285714Y-130926247D01*
X146285714Y-130926247D02*
X146238095Y-130831009D01*
X146238095Y-130831009D02*
X146190476Y-130783390D01*
X146190476Y-130783390D02*
X146095238Y-130735771D01*
X146095238Y-130735771D02*
X145904762Y-130735771D01*
X145904762Y-130735771D02*
X145809524Y-130783390D01*
X145809524Y-130783390D02*
X145761905Y-130831009D01*
X145761905Y-130831009D02*
X145714286Y-130926247D01*
X139966666Y-60054819D02*
X139966666Y-60769104D01*
X139966666Y-60769104D02*
X139919047Y-60911961D01*
X139919047Y-60911961D02*
X139823809Y-61007200D01*
X139823809Y-61007200D02*
X139680952Y-61054819D01*
X139680952Y-61054819D02*
X139585714Y-61054819D01*
X140347619Y-60054819D02*
X140966666Y-60054819D01*
X140966666Y-60054819D02*
X140633333Y-60435771D01*
X140633333Y-60435771D02*
X140776190Y-60435771D01*
X140776190Y-60435771D02*
X140871428Y-60483390D01*
X140871428Y-60483390D02*
X140919047Y-60531009D01*
X140919047Y-60531009D02*
X140966666Y-60626247D01*
X140966666Y-60626247D02*
X140966666Y-60864342D01*
X140966666Y-60864342D02*
X140919047Y-60959580D01*
X140919047Y-60959580D02*
X140871428Y-61007200D01*
X140871428Y-61007200D02*
X140776190Y-61054819D01*
X140776190Y-61054819D02*
X140490476Y-61054819D01*
X140490476Y-61054819D02*
X140395238Y-61007200D01*
X140395238Y-61007200D02*
X140347619Y-60959580D01*
X68333333Y-115859580D02*
X68285714Y-115907200D01*
X68285714Y-115907200D02*
X68142857Y-115954819D01*
X68142857Y-115954819D02*
X68047619Y-115954819D01*
X68047619Y-115954819D02*
X67904762Y-115907200D01*
X67904762Y-115907200D02*
X67809524Y-115811961D01*
X67809524Y-115811961D02*
X67761905Y-115716723D01*
X67761905Y-115716723D02*
X67714286Y-115526247D01*
X67714286Y-115526247D02*
X67714286Y-115383390D01*
X67714286Y-115383390D02*
X67761905Y-115192914D01*
X67761905Y-115192914D02*
X67809524Y-115097676D01*
X67809524Y-115097676D02*
X67904762Y-115002438D01*
X67904762Y-115002438D02*
X68047619Y-114954819D01*
X68047619Y-114954819D02*
X68142857Y-114954819D01*
X68142857Y-114954819D02*
X68285714Y-115002438D01*
X68285714Y-115002438D02*
X68333333Y-115050057D01*
X68761905Y-115954819D02*
X68761905Y-114954819D01*
X68761905Y-114954819D02*
X69142857Y-114954819D01*
X69142857Y-114954819D02*
X69238095Y-115002438D01*
X69238095Y-115002438D02*
X69285714Y-115050057D01*
X69285714Y-115050057D02*
X69333333Y-115145295D01*
X69333333Y-115145295D02*
X69333333Y-115288152D01*
X69333333Y-115288152D02*
X69285714Y-115383390D01*
X69285714Y-115383390D02*
X69238095Y-115431009D01*
X69238095Y-115431009D02*
X69142857Y-115478628D01*
X69142857Y-115478628D02*
X68761905Y-115478628D01*
X70238095Y-114954819D02*
X69761905Y-114954819D01*
X69761905Y-114954819D02*
X69714286Y-115431009D01*
X69714286Y-115431009D02*
X69761905Y-115383390D01*
X69761905Y-115383390D02*
X69857143Y-115335771D01*
X69857143Y-115335771D02*
X70095238Y-115335771D01*
X70095238Y-115335771D02*
X70190476Y-115383390D01*
X70190476Y-115383390D02*
X70238095Y-115431009D01*
X70238095Y-115431009D02*
X70285714Y-115526247D01*
X70285714Y-115526247D02*
X70285714Y-115764342D01*
X70285714Y-115764342D02*
X70238095Y-115859580D01*
X70238095Y-115859580D02*
X70190476Y-115907200D01*
X70190476Y-115907200D02*
X70095238Y-115954819D01*
X70095238Y-115954819D02*
X69857143Y-115954819D01*
X69857143Y-115954819D02*
X69761905Y-115907200D01*
X69761905Y-115907200D02*
X69714286Y-115859580D01*
X116133333Y-52054819D02*
X115800000Y-51578628D01*
X115561905Y-52054819D02*
X115561905Y-51054819D01*
X115561905Y-51054819D02*
X115942857Y-51054819D01*
X115942857Y-51054819D02*
X116038095Y-51102438D01*
X116038095Y-51102438D02*
X116085714Y-51150057D01*
X116085714Y-51150057D02*
X116133333Y-51245295D01*
X116133333Y-51245295D02*
X116133333Y-51388152D01*
X116133333Y-51388152D02*
X116085714Y-51483390D01*
X116085714Y-51483390D02*
X116038095Y-51531009D01*
X116038095Y-51531009D02*
X115942857Y-51578628D01*
X115942857Y-51578628D02*
X115561905Y-51578628D01*
X116466667Y-51054819D02*
X117085714Y-51054819D01*
X117085714Y-51054819D02*
X116752381Y-51435771D01*
X116752381Y-51435771D02*
X116895238Y-51435771D01*
X116895238Y-51435771D02*
X116990476Y-51483390D01*
X116990476Y-51483390D02*
X117038095Y-51531009D01*
X117038095Y-51531009D02*
X117085714Y-51626247D01*
X117085714Y-51626247D02*
X117085714Y-51864342D01*
X117085714Y-51864342D02*
X117038095Y-51959580D01*
X117038095Y-51959580D02*
X116990476Y-52007200D01*
X116990476Y-52007200D02*
X116895238Y-52054819D01*
X116895238Y-52054819D02*
X116609524Y-52054819D01*
X116609524Y-52054819D02*
X116514286Y-52007200D01*
X116514286Y-52007200D02*
X116466667Y-51959580D01*
X132161905Y-98254819D02*
X132161905Y-97254819D01*
X132161905Y-97254819D02*
X132400000Y-97254819D01*
X132400000Y-97254819D02*
X132542857Y-97302438D01*
X132542857Y-97302438D02*
X132638095Y-97397676D01*
X132638095Y-97397676D02*
X132685714Y-97492914D01*
X132685714Y-97492914D02*
X132733333Y-97683390D01*
X132733333Y-97683390D02*
X132733333Y-97826247D01*
X132733333Y-97826247D02*
X132685714Y-98016723D01*
X132685714Y-98016723D02*
X132638095Y-98111961D01*
X132638095Y-98111961D02*
X132542857Y-98207200D01*
X132542857Y-98207200D02*
X132400000Y-98254819D01*
X132400000Y-98254819D02*
X132161905Y-98254819D01*
X133590476Y-97588152D02*
X133590476Y-98254819D01*
X133352381Y-97207200D02*
X133114286Y-97921485D01*
X133114286Y-97921485D02*
X133733333Y-97921485D01*
X140666905Y-100269104D02*
X141143095Y-100269104D01*
X140571667Y-100554819D02*
X140905000Y-99554819D01*
X140905000Y-99554819D02*
X141238333Y-100554819D01*
X133323809Y-39478628D02*
X133323809Y-39954819D01*
X132990476Y-38954819D02*
X133323809Y-39478628D01*
X133323809Y-39478628D02*
X133657142Y-38954819D01*
X134514285Y-39954819D02*
X133942857Y-39954819D01*
X134228571Y-39954819D02*
X134228571Y-38954819D01*
X134228571Y-38954819D02*
X134133333Y-39097676D01*
X134133333Y-39097676D02*
X134038095Y-39192914D01*
X134038095Y-39192914D02*
X133942857Y-39240533D01*
X129657142Y-108954819D02*
X129323809Y-108478628D01*
X129085714Y-108954819D02*
X129085714Y-107954819D01*
X129085714Y-107954819D02*
X129466666Y-107954819D01*
X129466666Y-107954819D02*
X129561904Y-108002438D01*
X129561904Y-108002438D02*
X129609523Y-108050057D01*
X129609523Y-108050057D02*
X129657142Y-108145295D01*
X129657142Y-108145295D02*
X129657142Y-108288152D01*
X129657142Y-108288152D02*
X129609523Y-108383390D01*
X129609523Y-108383390D02*
X129561904Y-108431009D01*
X129561904Y-108431009D02*
X129466666Y-108478628D01*
X129466666Y-108478628D02*
X129085714Y-108478628D01*
X130609523Y-108954819D02*
X130038095Y-108954819D01*
X130323809Y-108954819D02*
X130323809Y-107954819D01*
X130323809Y-107954819D02*
X130228571Y-108097676D01*
X130228571Y-108097676D02*
X130133333Y-108192914D01*
X130133333Y-108192914D02*
X130038095Y-108240533D01*
X131466666Y-107954819D02*
X131276190Y-107954819D01*
X131276190Y-107954819D02*
X131180952Y-108002438D01*
X131180952Y-108002438D02*
X131133333Y-108050057D01*
X131133333Y-108050057D02*
X131038095Y-108192914D01*
X131038095Y-108192914D02*
X130990476Y-108383390D01*
X130990476Y-108383390D02*
X130990476Y-108764342D01*
X130990476Y-108764342D02*
X131038095Y-108859580D01*
X131038095Y-108859580D02*
X131085714Y-108907200D01*
X131085714Y-108907200D02*
X131180952Y-108954819D01*
X131180952Y-108954819D02*
X131371428Y-108954819D01*
X131371428Y-108954819D02*
X131466666Y-108907200D01*
X131466666Y-108907200D02*
X131514285Y-108859580D01*
X131514285Y-108859580D02*
X131561904Y-108764342D01*
X131561904Y-108764342D02*
X131561904Y-108526247D01*
X131561904Y-108526247D02*
X131514285Y-108431009D01*
X131514285Y-108431009D02*
X131466666Y-108383390D01*
X131466666Y-108383390D02*
X131371428Y-108335771D01*
X131371428Y-108335771D02*
X131180952Y-108335771D01*
X131180952Y-108335771D02*
X131085714Y-108383390D01*
X131085714Y-108383390D02*
X131038095Y-108431009D01*
X131038095Y-108431009D02*
X130990476Y-108526247D01*
X118933333Y-42154819D02*
X118600000Y-41678628D01*
X118361905Y-42154819D02*
X118361905Y-41154819D01*
X118361905Y-41154819D02*
X118742857Y-41154819D01*
X118742857Y-41154819D02*
X118838095Y-41202438D01*
X118838095Y-41202438D02*
X118885714Y-41250057D01*
X118885714Y-41250057D02*
X118933333Y-41345295D01*
X118933333Y-41345295D02*
X118933333Y-41488152D01*
X118933333Y-41488152D02*
X118885714Y-41583390D01*
X118885714Y-41583390D02*
X118838095Y-41631009D01*
X118838095Y-41631009D02*
X118742857Y-41678628D01*
X118742857Y-41678628D02*
X118361905Y-41678628D01*
X119885714Y-42154819D02*
X119314286Y-42154819D01*
X119600000Y-42154819D02*
X119600000Y-41154819D01*
X119600000Y-41154819D02*
X119504762Y-41297676D01*
X119504762Y-41297676D02*
X119409524Y-41392914D01*
X119409524Y-41392914D02*
X119314286Y-41440533D01*
X174533333Y-101259580D02*
X174485714Y-101307200D01*
X174485714Y-101307200D02*
X174342857Y-101354819D01*
X174342857Y-101354819D02*
X174247619Y-101354819D01*
X174247619Y-101354819D02*
X174104762Y-101307200D01*
X174104762Y-101307200D02*
X174009524Y-101211961D01*
X174009524Y-101211961D02*
X173961905Y-101116723D01*
X173961905Y-101116723D02*
X173914286Y-100926247D01*
X173914286Y-100926247D02*
X173914286Y-100783390D01*
X173914286Y-100783390D02*
X173961905Y-100592914D01*
X173961905Y-100592914D02*
X174009524Y-100497676D01*
X174009524Y-100497676D02*
X174104762Y-100402438D01*
X174104762Y-100402438D02*
X174247619Y-100354819D01*
X174247619Y-100354819D02*
X174342857Y-100354819D01*
X174342857Y-100354819D02*
X174485714Y-100402438D01*
X174485714Y-100402438D02*
X174533333Y-100450057D01*
X174866667Y-100354819D02*
X175533333Y-100354819D01*
X175533333Y-100354819D02*
X175104762Y-101354819D01*
X125916666Y-129681009D02*
X125583333Y-129681009D01*
X125583333Y-130204819D02*
X125583333Y-129204819D01*
X125583333Y-129204819D02*
X126059523Y-129204819D01*
X126964285Y-130204819D02*
X126392857Y-130204819D01*
X126678571Y-130204819D02*
X126678571Y-129204819D01*
X126678571Y-129204819D02*
X126583333Y-129347676D01*
X126583333Y-129347676D02*
X126488095Y-129442914D01*
X126488095Y-129442914D02*
X126392857Y-129490533D01*
X130583333Y-123334819D02*
X130250000Y-122858628D01*
X130011905Y-123334819D02*
X130011905Y-122334819D01*
X130011905Y-122334819D02*
X130392857Y-122334819D01*
X130392857Y-122334819D02*
X130488095Y-122382438D01*
X130488095Y-122382438D02*
X130535714Y-122430057D01*
X130535714Y-122430057D02*
X130583333Y-122525295D01*
X130583333Y-122525295D02*
X130583333Y-122668152D01*
X130583333Y-122668152D02*
X130535714Y-122763390D01*
X130535714Y-122763390D02*
X130488095Y-122811009D01*
X130488095Y-122811009D02*
X130392857Y-122858628D01*
X130392857Y-122858628D02*
X130011905Y-122858628D01*
X131440476Y-122334819D02*
X131250000Y-122334819D01*
X131250000Y-122334819D02*
X131154762Y-122382438D01*
X131154762Y-122382438D02*
X131107143Y-122430057D01*
X131107143Y-122430057D02*
X131011905Y-122572914D01*
X131011905Y-122572914D02*
X130964286Y-122763390D01*
X130964286Y-122763390D02*
X130964286Y-123144342D01*
X130964286Y-123144342D02*
X131011905Y-123239580D01*
X131011905Y-123239580D02*
X131059524Y-123287200D01*
X131059524Y-123287200D02*
X131154762Y-123334819D01*
X131154762Y-123334819D02*
X131345238Y-123334819D01*
X131345238Y-123334819D02*
X131440476Y-123287200D01*
X131440476Y-123287200D02*
X131488095Y-123239580D01*
X131488095Y-123239580D02*
X131535714Y-123144342D01*
X131535714Y-123144342D02*
X131535714Y-122906247D01*
X131535714Y-122906247D02*
X131488095Y-122811009D01*
X131488095Y-122811009D02*
X131440476Y-122763390D01*
X131440476Y-122763390D02*
X131345238Y-122715771D01*
X131345238Y-122715771D02*
X131154762Y-122715771D01*
X131154762Y-122715771D02*
X131059524Y-122763390D01*
X131059524Y-122763390D02*
X131011905Y-122811009D01*
X131011905Y-122811009D02*
X130964286Y-122906247D01*
X171257142Y-111454819D02*
X170923809Y-110978628D01*
X170685714Y-111454819D02*
X170685714Y-110454819D01*
X170685714Y-110454819D02*
X171066666Y-110454819D01*
X171066666Y-110454819D02*
X171161904Y-110502438D01*
X171161904Y-110502438D02*
X171209523Y-110550057D01*
X171209523Y-110550057D02*
X171257142Y-110645295D01*
X171257142Y-110645295D02*
X171257142Y-110788152D01*
X171257142Y-110788152D02*
X171209523Y-110883390D01*
X171209523Y-110883390D02*
X171161904Y-110931009D01*
X171161904Y-110931009D02*
X171066666Y-110978628D01*
X171066666Y-110978628D02*
X170685714Y-110978628D01*
X172209523Y-111454819D02*
X171638095Y-111454819D01*
X171923809Y-111454819D02*
X171923809Y-110454819D01*
X171923809Y-110454819D02*
X171828571Y-110597676D01*
X171828571Y-110597676D02*
X171733333Y-110692914D01*
X171733333Y-110692914D02*
X171638095Y-110740533D01*
X172828571Y-110454819D02*
X172923809Y-110454819D01*
X172923809Y-110454819D02*
X173019047Y-110502438D01*
X173019047Y-110502438D02*
X173066666Y-110550057D01*
X173066666Y-110550057D02*
X173114285Y-110645295D01*
X173114285Y-110645295D02*
X173161904Y-110835771D01*
X173161904Y-110835771D02*
X173161904Y-111073866D01*
X173161904Y-111073866D02*
X173114285Y-111264342D01*
X173114285Y-111264342D02*
X173066666Y-111359580D01*
X173066666Y-111359580D02*
X173019047Y-111407200D01*
X173019047Y-111407200D02*
X172923809Y-111454819D01*
X172923809Y-111454819D02*
X172828571Y-111454819D01*
X172828571Y-111454819D02*
X172733333Y-111407200D01*
X172733333Y-111407200D02*
X172685714Y-111359580D01*
X172685714Y-111359580D02*
X172638095Y-111264342D01*
X172638095Y-111264342D02*
X172590476Y-111073866D01*
X172590476Y-111073866D02*
X172590476Y-110835771D01*
X172590476Y-110835771D02*
X172638095Y-110645295D01*
X172638095Y-110645295D02*
X172685714Y-110550057D01*
X172685714Y-110550057D02*
X172733333Y-110502438D01*
X172733333Y-110502438D02*
X172828571Y-110454819D01*
X117366666Y-114554819D02*
X117366666Y-115269104D01*
X117366666Y-115269104D02*
X117319047Y-115411961D01*
X117319047Y-115411961D02*
X117223809Y-115507200D01*
X117223809Y-115507200D02*
X117080952Y-115554819D01*
X117080952Y-115554819D02*
X116985714Y-115554819D01*
X117842857Y-115554819D02*
X117842857Y-114554819D01*
X117842857Y-114554819D02*
X118223809Y-114554819D01*
X118223809Y-114554819D02*
X118319047Y-114602438D01*
X118319047Y-114602438D02*
X118366666Y-114650057D01*
X118366666Y-114650057D02*
X118414285Y-114745295D01*
X118414285Y-114745295D02*
X118414285Y-114888152D01*
X118414285Y-114888152D02*
X118366666Y-114983390D01*
X118366666Y-114983390D02*
X118319047Y-115031009D01*
X118319047Y-115031009D02*
X118223809Y-115078628D01*
X118223809Y-115078628D02*
X117842857Y-115078628D01*
X119366666Y-115554819D02*
X118795238Y-115554819D01*
X119080952Y-115554819D02*
X119080952Y-114554819D01*
X119080952Y-114554819D02*
X118985714Y-114697676D01*
X118985714Y-114697676D02*
X118890476Y-114792914D01*
X118890476Y-114792914D02*
X118795238Y-114840533D01*
X125711905Y-68604819D02*
X125711905Y-67604819D01*
X126283333Y-68604819D02*
X125854762Y-68033390D01*
X126283333Y-67604819D02*
X125711905Y-68176247D01*
X127235714Y-68604819D02*
X126664286Y-68604819D01*
X126950000Y-68604819D02*
X126950000Y-67604819D01*
X126950000Y-67604819D02*
X126854762Y-67747676D01*
X126854762Y-67747676D02*
X126759524Y-67842914D01*
X126759524Y-67842914D02*
X126664286Y-67890533D01*
X154361905Y-123654819D02*
X154361905Y-122654819D01*
X154361905Y-122654819D02*
X154600000Y-122654819D01*
X154600000Y-122654819D02*
X154742857Y-122702438D01*
X154742857Y-122702438D02*
X154838095Y-122797676D01*
X154838095Y-122797676D02*
X154885714Y-122892914D01*
X154885714Y-122892914D02*
X154933333Y-123083390D01*
X154933333Y-123083390D02*
X154933333Y-123226247D01*
X154933333Y-123226247D02*
X154885714Y-123416723D01*
X154885714Y-123416723D02*
X154838095Y-123511961D01*
X154838095Y-123511961D02*
X154742857Y-123607200D01*
X154742857Y-123607200D02*
X154600000Y-123654819D01*
X154600000Y-123654819D02*
X154361905Y-123654819D01*
X155314286Y-122750057D02*
X155361905Y-122702438D01*
X155361905Y-122702438D02*
X155457143Y-122654819D01*
X155457143Y-122654819D02*
X155695238Y-122654819D01*
X155695238Y-122654819D02*
X155790476Y-122702438D01*
X155790476Y-122702438D02*
X155838095Y-122750057D01*
X155838095Y-122750057D02*
X155885714Y-122845295D01*
X155885714Y-122845295D02*
X155885714Y-122940533D01*
X155885714Y-122940533D02*
X155838095Y-123083390D01*
X155838095Y-123083390D02*
X155266667Y-123654819D01*
X155266667Y-123654819D02*
X155885714Y-123654819D01*
X149638095Y-131264819D02*
X149638095Y-130264819D01*
X150209523Y-131264819D02*
X149780952Y-130693390D01*
X150209523Y-130264819D02*
X149638095Y-130836247D01*
X68828571Y-144459580D02*
X68780952Y-144507200D01*
X68780952Y-144507200D02*
X68638095Y-144554819D01*
X68638095Y-144554819D02*
X68542857Y-144554819D01*
X68542857Y-144554819D02*
X68400000Y-144507200D01*
X68400000Y-144507200D02*
X68304762Y-144411961D01*
X68304762Y-144411961D02*
X68257143Y-144316723D01*
X68257143Y-144316723D02*
X68209524Y-144126247D01*
X68209524Y-144126247D02*
X68209524Y-143983390D01*
X68209524Y-143983390D02*
X68257143Y-143792914D01*
X68257143Y-143792914D02*
X68304762Y-143697676D01*
X68304762Y-143697676D02*
X68400000Y-143602438D01*
X68400000Y-143602438D02*
X68542857Y-143554819D01*
X68542857Y-143554819D02*
X68638095Y-143554819D01*
X68638095Y-143554819D02*
X68780952Y-143602438D01*
X68780952Y-143602438D02*
X68828571Y-143650057D01*
X69733333Y-144554819D02*
X69257143Y-144554819D01*
X69257143Y-144554819D02*
X69257143Y-143554819D01*
X70638095Y-144554819D02*
X70304762Y-144078628D01*
X70066667Y-144554819D02*
X70066667Y-143554819D01*
X70066667Y-143554819D02*
X70447619Y-143554819D01*
X70447619Y-143554819D02*
X70542857Y-143602438D01*
X70542857Y-143602438D02*
X70590476Y-143650057D01*
X70590476Y-143650057D02*
X70638095Y-143745295D01*
X70638095Y-143745295D02*
X70638095Y-143888152D01*
X70638095Y-143888152D02*
X70590476Y-143983390D01*
X70590476Y-143983390D02*
X70542857Y-144031009D01*
X70542857Y-144031009D02*
X70447619Y-144078628D01*
X70447619Y-144078628D02*
X70066667Y-144078628D01*
X71019048Y-143650057D02*
X71066667Y-143602438D01*
X71066667Y-143602438D02*
X71161905Y-143554819D01*
X71161905Y-143554819D02*
X71400000Y-143554819D01*
X71400000Y-143554819D02*
X71495238Y-143602438D01*
X71495238Y-143602438D02*
X71542857Y-143650057D01*
X71542857Y-143650057D02*
X71590476Y-143745295D01*
X71590476Y-143745295D02*
X71590476Y-143840533D01*
X71590476Y-143840533D02*
X71542857Y-143983390D01*
X71542857Y-143983390D02*
X70971429Y-144554819D01*
X70971429Y-144554819D02*
X71590476Y-144554819D01*
X114633333Y-42154819D02*
X114300000Y-41678628D01*
X114061905Y-42154819D02*
X114061905Y-41154819D01*
X114061905Y-41154819D02*
X114442857Y-41154819D01*
X114442857Y-41154819D02*
X114538095Y-41202438D01*
X114538095Y-41202438D02*
X114585714Y-41250057D01*
X114585714Y-41250057D02*
X114633333Y-41345295D01*
X114633333Y-41345295D02*
X114633333Y-41488152D01*
X114633333Y-41488152D02*
X114585714Y-41583390D01*
X114585714Y-41583390D02*
X114538095Y-41631009D01*
X114538095Y-41631009D02*
X114442857Y-41678628D01*
X114442857Y-41678628D02*
X114061905Y-41678628D01*
X115014286Y-41250057D02*
X115061905Y-41202438D01*
X115061905Y-41202438D02*
X115157143Y-41154819D01*
X115157143Y-41154819D02*
X115395238Y-41154819D01*
X115395238Y-41154819D02*
X115490476Y-41202438D01*
X115490476Y-41202438D02*
X115538095Y-41250057D01*
X115538095Y-41250057D02*
X115585714Y-41345295D01*
X115585714Y-41345295D02*
X115585714Y-41440533D01*
X115585714Y-41440533D02*
X115538095Y-41583390D01*
X115538095Y-41583390D02*
X114966667Y-42154819D01*
X114966667Y-42154819D02*
X115585714Y-42154819D01*
X121457142Y-110059580D02*
X121409523Y-110107200D01*
X121409523Y-110107200D02*
X121266666Y-110154819D01*
X121266666Y-110154819D02*
X121171428Y-110154819D01*
X121171428Y-110154819D02*
X121028571Y-110107200D01*
X121028571Y-110107200D02*
X120933333Y-110011961D01*
X120933333Y-110011961D02*
X120885714Y-109916723D01*
X120885714Y-109916723D02*
X120838095Y-109726247D01*
X120838095Y-109726247D02*
X120838095Y-109583390D01*
X120838095Y-109583390D02*
X120885714Y-109392914D01*
X120885714Y-109392914D02*
X120933333Y-109297676D01*
X120933333Y-109297676D02*
X121028571Y-109202438D01*
X121028571Y-109202438D02*
X121171428Y-109154819D01*
X121171428Y-109154819D02*
X121266666Y-109154819D01*
X121266666Y-109154819D02*
X121409523Y-109202438D01*
X121409523Y-109202438D02*
X121457142Y-109250057D01*
X122409523Y-110154819D02*
X121838095Y-110154819D01*
X122123809Y-110154819D02*
X122123809Y-109154819D01*
X122123809Y-109154819D02*
X122028571Y-109297676D01*
X122028571Y-109297676D02*
X121933333Y-109392914D01*
X121933333Y-109392914D02*
X121838095Y-109440533D01*
X123028571Y-109154819D02*
X123123809Y-109154819D01*
X123123809Y-109154819D02*
X123219047Y-109202438D01*
X123219047Y-109202438D02*
X123266666Y-109250057D01*
X123266666Y-109250057D02*
X123314285Y-109345295D01*
X123314285Y-109345295D02*
X123361904Y-109535771D01*
X123361904Y-109535771D02*
X123361904Y-109773866D01*
X123361904Y-109773866D02*
X123314285Y-109964342D01*
X123314285Y-109964342D02*
X123266666Y-110059580D01*
X123266666Y-110059580D02*
X123219047Y-110107200D01*
X123219047Y-110107200D02*
X123123809Y-110154819D01*
X123123809Y-110154819D02*
X123028571Y-110154819D01*
X123028571Y-110154819D02*
X122933333Y-110107200D01*
X122933333Y-110107200D02*
X122885714Y-110059580D01*
X122885714Y-110059580D02*
X122838095Y-109964342D01*
X122838095Y-109964342D02*
X122790476Y-109773866D01*
X122790476Y-109773866D02*
X122790476Y-109535771D01*
X122790476Y-109535771D02*
X122838095Y-109345295D01*
X122838095Y-109345295D02*
X122885714Y-109250057D01*
X122885714Y-109250057D02*
X122933333Y-109202438D01*
X122933333Y-109202438D02*
X123028571Y-109154819D01*
D11*
%TO.C,JP2*%
X130200000Y-105300000D02*
X127400000Y-105300000D01*
X130200000Y-103300000D02*
X130200000Y-105300000D01*
X127400000Y-105300000D02*
X127400000Y-103300000D01*
X127400000Y-103300000D02*
X130200000Y-103300000D01*
%TO.C,C4*%
X136659888Y-115375000D02*
X136159888Y-115375000D01*
X136409888Y-115625000D02*
X136409888Y-115125000D01*
X133855113Y-116480000D02*
X133855113Y-114940000D01*
X133855113Y-112860000D02*
X133855113Y-111320000D01*
X133815113Y-116480000D02*
X133815113Y-114940000D01*
X133815113Y-112860000D02*
X133815113Y-111320000D01*
X133775113Y-116479000D02*
X133775113Y-114940000D01*
X133775113Y-112860000D02*
X133775113Y-111321000D01*
X133735113Y-116478000D02*
X133735113Y-114940000D01*
X133735113Y-112860000D02*
X133735113Y-111322000D01*
X133695113Y-116476000D02*
X133695113Y-114940000D01*
X133695113Y-112860000D02*
X133695113Y-111324000D01*
X133655113Y-116473000D02*
X133655113Y-114940000D01*
X133655113Y-112860000D02*
X133655113Y-111327000D01*
X133615113Y-116469000D02*
X133615113Y-114940000D01*
X133615113Y-112860000D02*
X133615113Y-111331000D01*
X133575113Y-116465000D02*
X133575113Y-114940000D01*
X133575113Y-112860000D02*
X133575113Y-111335000D01*
X133535113Y-116461000D02*
X133535113Y-114940000D01*
X133535113Y-112860000D02*
X133535113Y-111339000D01*
X133495113Y-116456000D02*
X133495113Y-114940000D01*
X133495113Y-112860000D02*
X133495113Y-111344000D01*
X133455113Y-116450000D02*
X133455113Y-114940000D01*
X133455113Y-112860000D02*
X133455113Y-111350000D01*
X133415113Y-116443000D02*
X133415113Y-114940000D01*
X133415113Y-112860000D02*
X133415113Y-111357000D01*
X133375113Y-116436000D02*
X133375113Y-114940000D01*
X133375113Y-112860000D02*
X133375113Y-111364000D01*
X133335113Y-116428000D02*
X133335113Y-114940000D01*
X133335113Y-112860000D02*
X133335113Y-111372000D01*
X133295113Y-116420000D02*
X133295113Y-114940000D01*
X133295113Y-112860000D02*
X133295113Y-111380000D01*
X133255113Y-116411000D02*
X133255113Y-114940000D01*
X133255113Y-112860000D02*
X133255113Y-111389000D01*
X133215113Y-116401000D02*
X133215113Y-114940000D01*
X133215113Y-112860000D02*
X133215113Y-111399000D01*
X133175113Y-116391000D02*
X133175113Y-114940000D01*
X133175113Y-112860000D02*
X133175113Y-111409000D01*
X133134113Y-116380000D02*
X133134113Y-114940000D01*
X133134113Y-112860000D02*
X133134113Y-111420000D01*
X133094113Y-116368000D02*
X133094113Y-114940000D01*
X133094113Y-112860000D02*
X133094113Y-111432000D01*
X133054113Y-116355000D02*
X133054113Y-114940000D01*
X133054113Y-112860000D02*
X133054113Y-111445000D01*
X133014113Y-116342000D02*
X133014113Y-114940000D01*
X133014113Y-112860000D02*
X133014113Y-111458000D01*
X132974113Y-116328000D02*
X132974113Y-114940000D01*
X132974113Y-112860000D02*
X132974113Y-111472000D01*
X132934113Y-116314000D02*
X132934113Y-114940000D01*
X132934113Y-112860000D02*
X132934113Y-111486000D01*
X132894113Y-116298000D02*
X132894113Y-114940000D01*
X132894113Y-112860000D02*
X132894113Y-111502000D01*
X132854113Y-116282000D02*
X132854113Y-114940000D01*
X132854113Y-112860000D02*
X132854113Y-111518000D01*
X132814113Y-116265000D02*
X132814113Y-114940000D01*
X132814113Y-112860000D02*
X132814113Y-111535000D01*
X132774113Y-116248000D02*
X132774113Y-114940000D01*
X132774113Y-112860000D02*
X132774113Y-111552000D01*
X132734113Y-116229000D02*
X132734113Y-114940000D01*
X132734113Y-112860000D02*
X132734113Y-111571000D01*
X132694113Y-116210000D02*
X132694113Y-114940000D01*
X132694113Y-112860000D02*
X132694113Y-111590000D01*
X132654113Y-116190000D02*
X132654113Y-114940000D01*
X132654113Y-112860000D02*
X132654113Y-111610000D01*
X132614113Y-116168000D02*
X132614113Y-114940000D01*
X132614113Y-112860000D02*
X132614113Y-111632000D01*
X132574113Y-116147000D02*
X132574113Y-114940000D01*
X132574113Y-112860000D02*
X132574113Y-111653000D01*
X132534113Y-116124000D02*
X132534113Y-114940000D01*
X132534113Y-112860000D02*
X132534113Y-111676000D01*
X132494113Y-116100000D02*
X132494113Y-114940000D01*
X132494113Y-112860000D02*
X132494113Y-111700000D01*
X132454113Y-116075000D02*
X132454113Y-114940000D01*
X132454113Y-112860000D02*
X132454113Y-111725000D01*
X132414113Y-116049000D02*
X132414113Y-114940000D01*
X132414113Y-112860000D02*
X132414113Y-111751000D01*
X132374113Y-116022000D02*
X132374113Y-114940000D01*
X132374113Y-112860000D02*
X132374113Y-111778000D01*
X132334113Y-115995000D02*
X132334113Y-114940000D01*
X132334113Y-112860000D02*
X132334113Y-111805000D01*
X132294113Y-115965000D02*
X132294113Y-114940000D01*
X132294113Y-112860000D02*
X132294113Y-111835000D01*
X132254113Y-115935000D02*
X132254113Y-114940000D01*
X132254113Y-112860000D02*
X132254113Y-111865000D01*
X132214113Y-115904000D02*
X132214113Y-114940000D01*
X132214113Y-112860000D02*
X132214113Y-111896000D01*
X132174113Y-115871000D02*
X132174113Y-114940000D01*
X132174113Y-112860000D02*
X132174113Y-111929000D01*
X132134113Y-115837000D02*
X132134113Y-114940000D01*
X132134113Y-112860000D02*
X132134113Y-111963000D01*
X132094113Y-115801000D02*
X132094113Y-114940000D01*
X132094113Y-112860000D02*
X132094113Y-111999000D01*
X132054113Y-115764000D02*
X132054113Y-114940000D01*
X132054113Y-112860000D02*
X132054113Y-112036000D01*
X132014113Y-115726000D02*
X132014113Y-114940000D01*
X132014113Y-112860000D02*
X132014113Y-112074000D01*
X131974113Y-115685000D02*
X131974113Y-114940000D01*
X131974113Y-112860000D02*
X131974113Y-112115000D01*
X131934113Y-115643000D02*
X131934113Y-114940000D01*
X131934113Y-112860000D02*
X131934113Y-112157000D01*
X131894113Y-115599000D02*
X131894113Y-114940000D01*
X131894113Y-112860000D02*
X131894113Y-112201000D01*
X131854113Y-115553000D02*
X131854113Y-114940000D01*
X131854113Y-112860000D02*
X131854113Y-112247000D01*
X131814113Y-115505000D02*
X131814113Y-112295000D01*
X131774113Y-115454000D02*
X131774113Y-112346000D01*
X131734113Y-115400000D02*
X131734113Y-112400000D01*
X131694113Y-115343000D02*
X131694113Y-112457000D01*
X131654113Y-115283000D02*
X131654113Y-112517000D01*
X131614113Y-115219000D02*
X131614113Y-112581000D01*
X131574113Y-115151000D02*
X131574113Y-112649000D01*
X131534113Y-115078000D02*
X131534113Y-112722000D01*
X131494113Y-114998000D02*
X131494113Y-112802000D01*
X131454113Y-114911000D02*
X131454113Y-112889000D01*
X131414113Y-114815000D02*
X131414113Y-112985000D01*
X131374113Y-114705000D02*
X131374113Y-113095000D01*
X131334113Y-114577000D02*
X131334113Y-113223000D01*
X131294113Y-114418000D02*
X131294113Y-113382000D01*
X131254113Y-114184000D02*
X131254113Y-113616000D01*
X136475113Y-113900000D02*
G75*
G03*
X136475113Y-113900000I-2620000J0D01*
G01*
%TO.C,QP2*%
X174525000Y-122180000D02*
X169884000Y-122180000D01*
X174525000Y-122180000D02*
X174525000Y-132420000D01*
X173015000Y-122180000D02*
X173015000Y-132420000D01*
X169884000Y-122180000D02*
X169884000Y-132420000D01*
X174525000Y-125450000D02*
X173015000Y-125450000D01*
X174525000Y-129151000D02*
X173015000Y-129151000D01*
X174525000Y-132420000D02*
X169884000Y-132420000D01*
%TO.C,R4*%
X107485000Y-76022936D02*
X107485000Y-76477064D01*
X106015000Y-76022936D02*
X106015000Y-76477064D01*
%TO.C,U4*%
X174855000Y-91610000D02*
X169655000Y-91610000D01*
X169655000Y-91610000D02*
X169655000Y-96910000D01*
X174855000Y-93260000D02*
X174855000Y-91610000D01*
X174855000Y-96910000D02*
X174855000Y-95260000D01*
X169655000Y-96910000D02*
X174855000Y-96910000D01*
X174855000Y-93260000D02*
G75*
G03*
X174855000Y-95260000I0J-1000000D01*
G01*
%TO.C,D1*%
X74642500Y-69142500D02*
X75842500Y-69142500D01*
X74642500Y-70442500D02*
X74642500Y-69142500D01*
X74842500Y-69342500D02*
X74842500Y-76742500D01*
X74842500Y-76742500D02*
X98242500Y-76742500D01*
X79542500Y-69742500D02*
X79542500Y-69342500D01*
X79542500Y-73342500D02*
X79542500Y-76742500D01*
X98242500Y-69342500D02*
X74842500Y-69342500D01*
X98242500Y-76742500D02*
X98242500Y-69342500D01*
%TO.C,R5*%
X171935000Y-103272936D02*
X171935000Y-103727064D01*
X170465000Y-103272936D02*
X170465000Y-103727064D01*
%TO.C,TP1*%
X67300000Y-100800000D02*
X70700000Y-100800000D01*
X67300000Y-104200000D02*
X67300000Y-100800000D01*
X70700000Y-100800000D02*
X70700000Y-104200000D01*
X70700000Y-104200000D02*
X67300000Y-104200000D01*
%TO.C,R8*%
X138880000Y-129020000D02*
X138880000Y-122480000D01*
X139210000Y-129020000D02*
X138880000Y-129020000D01*
X141290000Y-129020000D02*
X141620000Y-129020000D01*
X141620000Y-129020000D02*
X141620000Y-122480000D01*
X138880000Y-122480000D02*
X139210000Y-122480000D01*
X141620000Y-122480000D02*
X141290000Y-122480000D01*
%TO.C,TP2*%
X123300000Y-135800000D02*
X125700000Y-135800000D01*
X123300000Y-138200000D02*
X123300000Y-135800000D01*
X125700000Y-135800000D02*
X125700000Y-138200000D01*
X125700000Y-138200000D02*
X123300000Y-138200000D01*
%TO.C,DP1*%
X97870000Y-130575000D02*
X97870000Y-125934000D01*
X97870000Y-130575000D02*
X87630000Y-130575000D01*
X97870000Y-129065000D02*
X87630000Y-129065000D01*
X97870000Y-125934000D02*
X87630000Y-125934000D01*
X94600000Y-130575000D02*
X94600000Y-129065000D01*
X90899000Y-130575000D02*
X90899000Y-129065000D01*
X87630000Y-130575000D02*
X87630000Y-125934000D01*
%TO.C,D6*%
X136240000Y-105460000D02*
X136240000Y-105280000D01*
X136240000Y-105460000D02*
X132820000Y-105460000D01*
X136240000Y-103120000D02*
X136240000Y-102940000D01*
X136240000Y-102940000D02*
X132820000Y-102940000D01*
X136120000Y-105460000D02*
X136120000Y-105280000D01*
X136120000Y-103120000D02*
X136120000Y-102940000D01*
X136000000Y-105460000D02*
X136000000Y-105280000D01*
X136000000Y-103120000D02*
X136000000Y-102940000D01*
X132820000Y-105460000D02*
X132820000Y-105295000D01*
X132820000Y-103105000D02*
X132820000Y-102940000D01*
%TO.C,D5*%
X130965000Y-92260000D02*
X130965000Y-92080000D01*
X130965000Y-92260000D02*
X127545000Y-92260000D01*
X130965000Y-89920000D02*
X130965000Y-89740000D01*
X130965000Y-89740000D02*
X127545000Y-89740000D01*
X130845000Y-92260000D02*
X130845000Y-92080000D01*
X130845000Y-89920000D02*
X130845000Y-89740000D01*
X130725000Y-92260000D02*
X130725000Y-92080000D01*
X130725000Y-89920000D02*
X130725000Y-89740000D01*
X127545000Y-92260000D02*
X127545000Y-92095000D01*
X127545000Y-89905000D02*
X127545000Y-89740000D01*
%TO.C,CLR1*%
X66250000Y-38736000D02*
X105250000Y-38736000D01*
X66250000Y-61236000D02*
X107250000Y-61236000D01*
X66250000Y-68736000D02*
X66250000Y-38736000D01*
X66250000Y-68736000D02*
X107250000Y-68736000D01*
X84250000Y-61236000D02*
X84250000Y-68736000D01*
X89250000Y-61236000D02*
X89250000Y-68736000D01*
X107250000Y-38736000D02*
X105250000Y-38736000D01*
X107250000Y-68736000D02*
X107250000Y-38736000D01*
%TO.C,D3*%
X137530000Y-114910000D02*
X137530000Y-109470000D01*
X137660000Y-114910000D02*
X137530000Y-114910000D01*
X140340000Y-114910000D02*
X140470000Y-114910000D01*
X140470000Y-114910000D02*
X140470000Y-109470000D01*
X137530000Y-114130000D02*
X140470000Y-114130000D01*
X137530000Y-114010000D02*
X140470000Y-114010000D01*
X137530000Y-113890000D02*
X140470000Y-113890000D01*
X137530000Y-109470000D02*
X137660000Y-109470000D01*
X140470000Y-109470000D02*
X140340000Y-109470000D01*
%TO.C,C3*%
X152297755Y-133195000D02*
X153897755Y-133195000D01*
X153097755Y-132395000D02*
X153097755Y-133995000D01*
X160987246Y-129669000D02*
X160987246Y-145831000D01*
X161027246Y-129670000D02*
X161027246Y-145830000D01*
X161067246Y-129670000D02*
X161067246Y-145830000D01*
X161107246Y-129670000D02*
X161107246Y-145830000D01*
X161147246Y-129671000D02*
X161147246Y-145829000D01*
X161187246Y-129672000D02*
X161187246Y-145828000D01*
X161227246Y-129673000D02*
X161227246Y-145827000D01*
X161267246Y-129674000D02*
X161267246Y-145826000D01*
X161307246Y-129676000D02*
X161307246Y-145824000D01*
X161347246Y-129677000D02*
X161347246Y-145823000D01*
X161387246Y-129679000D02*
X161387246Y-145821000D01*
X161427246Y-129681000D02*
X161427246Y-145819000D01*
X161467246Y-129684000D02*
X161467246Y-145816000D01*
X161507246Y-129686000D02*
X161507246Y-145814000D01*
X161547246Y-129689000D02*
X161547246Y-145811000D01*
X161587246Y-129692000D02*
X161587246Y-145808000D01*
X161627246Y-129695000D02*
X161627246Y-145805000D01*
X161667246Y-129698000D02*
X161667246Y-145802000D01*
X161708246Y-129701000D02*
X161708246Y-145799000D01*
X161748246Y-129705000D02*
X161748246Y-145795000D01*
X161788246Y-129709000D02*
X161788246Y-145791000D01*
X161828246Y-129713000D02*
X161828246Y-145787000D01*
X161868246Y-129717000D02*
X161868246Y-145783000D01*
X161908246Y-129722000D02*
X161908246Y-145778000D01*
X161948246Y-129726000D02*
X161948246Y-145774000D01*
X161988246Y-129731000D02*
X161988246Y-145769000D01*
X162028246Y-129736000D02*
X162028246Y-145764000D01*
X162068246Y-129742000D02*
X162068246Y-145758000D01*
X162108246Y-129747000D02*
X162108246Y-145753000D01*
X162148246Y-129753000D02*
X162148246Y-145747000D01*
X162188246Y-129759000D02*
X162188246Y-145741000D01*
X162228246Y-129765000D02*
X162228246Y-145735000D01*
X162268246Y-129771000D02*
X162268246Y-145729000D01*
X162308246Y-129778000D02*
X162308246Y-145722000D01*
X162348246Y-129784000D02*
X162348246Y-145716000D01*
X162388246Y-129791000D02*
X162388246Y-145709000D01*
X162428246Y-129798000D02*
X162428246Y-145702000D01*
X162468246Y-129806000D02*
X162468246Y-145694000D01*
X162508246Y-129813000D02*
X162508246Y-145687000D01*
X162548246Y-129821000D02*
X162548246Y-145679000D01*
X162588246Y-129829000D02*
X162588246Y-145671000D01*
X162628246Y-129837000D02*
X162628246Y-145663000D01*
X162668246Y-129845000D02*
X162668246Y-145655000D01*
X162708246Y-129854000D02*
X162708246Y-145646000D01*
X162748246Y-129863000D02*
X162748246Y-145637000D01*
X162788246Y-129872000D02*
X162788246Y-145628000D01*
X162828246Y-129881000D02*
X162828246Y-145619000D01*
X162868246Y-129890000D02*
X162868246Y-145610000D01*
X162908246Y-129900000D02*
X162908246Y-145600000D01*
X162948246Y-129910000D02*
X162948246Y-145590000D01*
X162988246Y-129920000D02*
X162988246Y-145580000D01*
X163028246Y-129930000D02*
X163028246Y-145570000D01*
X163068246Y-129940000D02*
X163068246Y-145560000D01*
X163108246Y-129951000D02*
X163108246Y-145549000D01*
X163148246Y-129962000D02*
X163148246Y-145538000D01*
X163188246Y-129973000D02*
X163188246Y-145527000D01*
X163228246Y-129985000D02*
X163228246Y-145515000D01*
X163268246Y-129996000D02*
X163268246Y-145504000D01*
X163308246Y-130008000D02*
X163308246Y-136310000D01*
X163308246Y-139190000D02*
X163308246Y-145492000D01*
X163348246Y-130020000D02*
X163348246Y-136310000D01*
X163348246Y-139190000D02*
X163348246Y-145480000D01*
X163388246Y-130032000D02*
X163388246Y-136310000D01*
X163388246Y-139190000D02*
X163388246Y-145468000D01*
X163428246Y-130045000D02*
X163428246Y-136310000D01*
X163428246Y-139190000D02*
X163428246Y-145455000D01*
X163468246Y-130057000D02*
X163468246Y-136310000D01*
X163468246Y-139190000D02*
X163468246Y-145443000D01*
X163508246Y-130070000D02*
X163508246Y-136310000D01*
X163508246Y-139190000D02*
X163508246Y-145430000D01*
X163548246Y-130084000D02*
X163548246Y-136310000D01*
X163548246Y-139190000D02*
X163548246Y-145416000D01*
X163588246Y-130097000D02*
X163588246Y-136310000D01*
X163588246Y-139190000D02*
X163588246Y-145403000D01*
X163628246Y-130111000D02*
X163628246Y-136310000D01*
X163628246Y-139190000D02*
X163628246Y-145389000D01*
X163668246Y-130125000D02*
X163668246Y-136310000D01*
X163668246Y-139190000D02*
X163668246Y-145375000D01*
X163708246Y-130139000D02*
X163708246Y-136310000D01*
X163708246Y-139190000D02*
X163708246Y-145361000D01*
X163748246Y-130153000D02*
X163748246Y-136310000D01*
X163748246Y-139190000D02*
X163748246Y-145347000D01*
X163788246Y-130168000D02*
X163788246Y-136310000D01*
X163788246Y-139190000D02*
X163788246Y-145332000D01*
X163828246Y-130182000D02*
X163828246Y-136310000D01*
X163828246Y-139190000D02*
X163828246Y-145318000D01*
X163868246Y-130197000D02*
X163868246Y-136310000D01*
X163868246Y-139190000D02*
X163868246Y-145303000D01*
X163908246Y-130213000D02*
X163908246Y-136310000D01*
X163908246Y-139190000D02*
X163908246Y-145287000D01*
X163948246Y-130228000D02*
X163948246Y-136310000D01*
X163948246Y-139190000D02*
X163948246Y-145272000D01*
X163988246Y-130244000D02*
X163988246Y-136310000D01*
X163988246Y-139190000D02*
X163988246Y-145256000D01*
X164028246Y-130260000D02*
X164028246Y-136310000D01*
X164028246Y-139190000D02*
X164028246Y-145240000D01*
X164068246Y-130276000D02*
X164068246Y-136310000D01*
X164068246Y-139190000D02*
X164068246Y-145224000D01*
X164108246Y-130293000D02*
X164108246Y-136310000D01*
X164108246Y-139190000D02*
X164108246Y-145207000D01*
X164148246Y-130310000D02*
X164148246Y-136310000D01*
X164148246Y-139190000D02*
X164148246Y-145190000D01*
X164188246Y-130327000D02*
X164188246Y-136310000D01*
X164188246Y-139190000D02*
X164188246Y-145173000D01*
X164228246Y-130344000D02*
X164228246Y-136310000D01*
X164228246Y-139190000D02*
X164228246Y-145156000D01*
X164268246Y-130361000D02*
X164268246Y-136310000D01*
X164268246Y-139190000D02*
X164268246Y-145139000D01*
X164308246Y-130379000D02*
X164308246Y-136310000D01*
X164308246Y-139190000D02*
X164308246Y-145121000D01*
X164348246Y-130397000D02*
X164348246Y-136310000D01*
X164348246Y-139190000D02*
X164348246Y-145103000D01*
X164388246Y-130416000D02*
X164388246Y-136310000D01*
X164388246Y-139190000D02*
X164388246Y-145084000D01*
X164428246Y-130434000D02*
X164428246Y-136310000D01*
X164428246Y-139190000D02*
X164428246Y-145066000D01*
X164468246Y-130453000D02*
X164468246Y-136310000D01*
X164468246Y-139190000D02*
X164468246Y-145047000D01*
X164508246Y-130472000D02*
X164508246Y-136310000D01*
X164508246Y-139190000D02*
X164508246Y-145028000D01*
X164548246Y-130492000D02*
X164548246Y-136310000D01*
X164548246Y-139190000D02*
X164548246Y-145008000D01*
X164588246Y-130511000D02*
X164588246Y-136310000D01*
X164588246Y-139190000D02*
X164588246Y-144989000D01*
X164628246Y-130531000D02*
X164628246Y-136310000D01*
X164628246Y-139190000D02*
X164628246Y-144969000D01*
X164668246Y-130551000D02*
X164668246Y-136310000D01*
X164668246Y-139190000D02*
X164668246Y-144949000D01*
X164708246Y-130572000D02*
X164708246Y-136310000D01*
X164708246Y-139190000D02*
X164708246Y-144928000D01*
X164748246Y-130593000D02*
X164748246Y-136310000D01*
X164748246Y-139190000D02*
X164748246Y-144907000D01*
X164788246Y-130614000D02*
X164788246Y-136310000D01*
X164788246Y-139190000D02*
X164788246Y-144886000D01*
X164828246Y-130635000D02*
X164828246Y-136310000D01*
X164828246Y-139190000D02*
X164828246Y-144865000D01*
X164868246Y-130656000D02*
X164868246Y-136310000D01*
X164868246Y-139190000D02*
X164868246Y-144844000D01*
X164908246Y-130678000D02*
X164908246Y-136310000D01*
X164908246Y-139190000D02*
X164908246Y-144822000D01*
X164948246Y-130701000D02*
X164948246Y-136310000D01*
X164948246Y-139190000D02*
X164948246Y-144799000D01*
X164988246Y-130723000D02*
X164988246Y-136310000D01*
X164988246Y-139190000D02*
X164988246Y-144777000D01*
X165028246Y-130746000D02*
X165028246Y-136310000D01*
X165028246Y-139190000D02*
X165028246Y-144754000D01*
X165068246Y-130769000D02*
X165068246Y-136310000D01*
X165068246Y-139190000D02*
X165068246Y-144731000D01*
X165108246Y-130792000D02*
X165108246Y-136310000D01*
X165108246Y-139190000D02*
X165108246Y-144708000D01*
X165148246Y-130816000D02*
X165148246Y-136310000D01*
X165148246Y-139190000D02*
X165148246Y-144684000D01*
X165188246Y-130840000D02*
X165188246Y-136310000D01*
X165188246Y-139190000D02*
X165188246Y-144660000D01*
X165228246Y-130864000D02*
X165228246Y-136310000D01*
X165228246Y-139190000D02*
X165228246Y-144636000D01*
X165268246Y-130889000D02*
X165268246Y-136310000D01*
X165268246Y-139190000D02*
X165268246Y-144611000D01*
X165308246Y-130914000D02*
X165308246Y-136310000D01*
X165308246Y-139190000D02*
X165308246Y-144586000D01*
X165348246Y-130939000D02*
X165348246Y-136310000D01*
X165348246Y-139190000D02*
X165348246Y-144561000D01*
X165388246Y-130965000D02*
X165388246Y-136310000D01*
X165388246Y-139190000D02*
X165388246Y-144535000D01*
X165428246Y-130991000D02*
X165428246Y-136310000D01*
X165428246Y-139190000D02*
X165428246Y-144509000D01*
X165468246Y-131017000D02*
X165468246Y-136310000D01*
X165468246Y-139190000D02*
X165468246Y-144483000D01*
X165508246Y-131044000D02*
X165508246Y-136310000D01*
X165508246Y-139190000D02*
X165508246Y-144456000D01*
X165548246Y-131071000D02*
X165548246Y-136310000D01*
X165548246Y-139190000D02*
X165548246Y-144429000D01*
X165588246Y-131098000D02*
X165588246Y-136310000D01*
X165588246Y-139190000D02*
X165588246Y-144402000D01*
X165628246Y-131126000D02*
X165628246Y-136310000D01*
X165628246Y-139190000D02*
X165628246Y-144374000D01*
X165668246Y-131154000D02*
X165668246Y-136310000D01*
X165668246Y-139190000D02*
X165668246Y-144346000D01*
X165708246Y-131182000D02*
X165708246Y-136310000D01*
X165708246Y-139190000D02*
X165708246Y-144318000D01*
X165748246Y-131211000D02*
X165748246Y-136310000D01*
X165748246Y-139190000D02*
X165748246Y-144289000D01*
X165788246Y-131240000D02*
X165788246Y-136310000D01*
X165788246Y-139190000D02*
X165788246Y-144260000D01*
X165828246Y-131270000D02*
X165828246Y-136310000D01*
X165828246Y-139190000D02*
X165828246Y-144230000D01*
X165868246Y-131300000D02*
X165868246Y-136310000D01*
X165868246Y-139190000D02*
X165868246Y-144200000D01*
X165908246Y-131330000D02*
X165908246Y-136310000D01*
X165908246Y-139190000D02*
X165908246Y-144170000D01*
X165948246Y-131360000D02*
X165948246Y-136310000D01*
X165948246Y-139190000D02*
X165948246Y-144140000D01*
X165988246Y-131392000D02*
X165988246Y-136310000D01*
X165988246Y-139190000D02*
X165988246Y-144108000D01*
X166028246Y-131423000D02*
X166028246Y-136310000D01*
X166028246Y-139190000D02*
X166028246Y-144077000D01*
X166068246Y-131455000D02*
X166068246Y-136310000D01*
X166068246Y-139190000D02*
X166068246Y-144045000D01*
X166108246Y-131487000D02*
X166108246Y-136310000D01*
X166108246Y-139190000D02*
X166108246Y-144013000D01*
X166148246Y-131520000D02*
X166148246Y-136310000D01*
X166148246Y-139190000D02*
X166148246Y-143980000D01*
X166188246Y-131553000D02*
X166188246Y-143947000D01*
X166228246Y-131587000D02*
X166228246Y-143913000D01*
X166268246Y-131621000D02*
X166268246Y-143879000D01*
X166308246Y-131655000D02*
X166308246Y-143845000D01*
X166348246Y-131690000D02*
X166348246Y-143810000D01*
X166388246Y-131725000D02*
X166388246Y-143775000D01*
X166428246Y-131761000D02*
X166428246Y-143739000D01*
X166468246Y-131798000D02*
X166468246Y-143702000D01*
X166508246Y-131834000D02*
X166508246Y-143666000D01*
X166548246Y-131872000D02*
X166548246Y-143628000D01*
X166588246Y-131910000D02*
X166588246Y-143590000D01*
X166628246Y-131948000D02*
X166628246Y-143552000D01*
X166668246Y-131987000D02*
X166668246Y-143513000D01*
X166708246Y-132026000D02*
X166708246Y-143474000D01*
X166748246Y-132066000D02*
X166748246Y-143434000D01*
X166788246Y-132107000D02*
X166788246Y-143393000D01*
X166828246Y-132148000D02*
X166828246Y-143352000D01*
X166868246Y-132190000D02*
X166868246Y-143310000D01*
X166908246Y-132232000D02*
X166908246Y-143268000D01*
X166948246Y-132275000D02*
X166948246Y-143225000D01*
X166988246Y-132318000D02*
X166988246Y-143182000D01*
X167028246Y-132362000D02*
X167028246Y-143138000D01*
X167068246Y-132407000D02*
X167068246Y-143093000D01*
X167108246Y-132453000D02*
X167108246Y-143047000D01*
X167148246Y-132499000D02*
X167148246Y-143001000D01*
X167188246Y-132546000D02*
X167188246Y-142954000D01*
X167228246Y-132594000D02*
X167228246Y-142906000D01*
X167268246Y-132642000D02*
X167268246Y-142858000D01*
X167308246Y-132691000D02*
X167308246Y-142809000D01*
X167348246Y-132741000D02*
X167348246Y-142759000D01*
X167388246Y-132792000D02*
X167388246Y-142708000D01*
X167428246Y-132844000D02*
X167428246Y-142656000D01*
X167468246Y-132896000D02*
X167468246Y-142604000D01*
X167508246Y-132950000D02*
X167508246Y-142550000D01*
X167548246Y-133004000D02*
X167548246Y-142496000D01*
X167588246Y-133059000D02*
X167588246Y-142441000D01*
X167628246Y-133116000D02*
X167628246Y-142384000D01*
X167668246Y-133173000D02*
X167668246Y-142327000D01*
X167708246Y-133231000D02*
X167708246Y-142269000D01*
X167748246Y-133291000D02*
X167748246Y-142209000D01*
X167788246Y-133352000D02*
X167788246Y-142148000D01*
X167828246Y-133414000D02*
X167828246Y-142086000D01*
X167868246Y-133477000D02*
X167868246Y-142023000D01*
X167908246Y-133541000D02*
X167908246Y-141959000D01*
X167948246Y-133607000D02*
X167948246Y-141893000D01*
X167988246Y-133674000D02*
X167988246Y-141826000D01*
X168028246Y-133743000D02*
X168028246Y-141757000D01*
X168068246Y-133814000D02*
X168068246Y-141686000D01*
X168108246Y-133886000D02*
X168108246Y-141614000D01*
X168148246Y-133960000D02*
X168148246Y-141540000D01*
X168188246Y-134035000D02*
X168188246Y-141465000D01*
X168228246Y-134113000D02*
X168228246Y-141387000D01*
X168268246Y-134193000D02*
X168268246Y-141307000D01*
X168308246Y-134275000D02*
X168308246Y-141225000D01*
X168348246Y-134360000D02*
X168348246Y-141140000D01*
X168388246Y-134447000D02*
X168388246Y-141053000D01*
X168428246Y-134537000D02*
X168428246Y-140963000D01*
X168468246Y-134630000D02*
X168468246Y-140870000D01*
X168508246Y-134726000D02*
X168508246Y-140774000D01*
X168548246Y-134826000D02*
X168548246Y-140674000D01*
X168588246Y-134930000D02*
X168588246Y-140570000D01*
X168628246Y-135039000D02*
X168628246Y-140461000D01*
X168668246Y-135153000D02*
X168668246Y-140347000D01*
X168708246Y-135272000D02*
X168708246Y-140228000D01*
X168748246Y-135399000D02*
X168748246Y-140101000D01*
X168788246Y-135532000D02*
X168788246Y-139968000D01*
X168828246Y-135676000D02*
X168828246Y-139824000D01*
X168868246Y-135830000D02*
X168868246Y-139670000D01*
X168908246Y-135998000D02*
X168908246Y-139502000D01*
X168948246Y-136186000D02*
X168948246Y-139314000D01*
X168988246Y-136399000D02*
X168988246Y-139101000D01*
X169028246Y-136652000D02*
X169028246Y-138848000D01*
X169068246Y-136985000D02*
X169068246Y-138515000D01*
X169107246Y-137750000D02*
G75*
G03*
X169107246Y-137750000I-8120000J0D01*
G01*
%TO.C,QP1*%
X82425000Y-104870000D02*
X87066000Y-104870000D01*
X82425000Y-104870000D02*
X82425000Y-94630000D01*
X83935000Y-104870000D02*
X83935000Y-94630000D01*
X87066000Y-104870000D02*
X87066000Y-94630000D01*
X82425000Y-101600000D02*
X83935000Y-101600000D01*
X82425000Y-97899000D02*
X83935000Y-97899000D01*
X82425000Y-94630000D02*
X87066000Y-94630000D01*
%TO.C,C8*%
X133937651Y-87435000D02*
X134737651Y-87435000D01*
X134337651Y-87035000D02*
X134337651Y-87835000D01*
X138347349Y-85670000D02*
X138347349Y-93830000D01*
X138387349Y-85670000D02*
X138387349Y-93830000D01*
X138427349Y-85670000D02*
X138427349Y-93830000D01*
X138467349Y-85671000D02*
X138467349Y-93829000D01*
X138507349Y-85673000D02*
X138507349Y-93827000D01*
X138547349Y-85674000D02*
X138547349Y-93826000D01*
X138587349Y-85676000D02*
X138587349Y-93824000D01*
X138627349Y-85679000D02*
X138627349Y-93821000D01*
X138667349Y-85682000D02*
X138667349Y-93818000D01*
X138707349Y-85685000D02*
X138707349Y-93815000D01*
X138747349Y-85689000D02*
X138747349Y-93811000D01*
X138787349Y-85693000D02*
X138787349Y-93807000D01*
X138827349Y-85698000D02*
X138827349Y-93802000D01*
X138867349Y-85702000D02*
X138867349Y-93798000D01*
X138907349Y-85708000D02*
X138907349Y-93792000D01*
X138947349Y-85713000D02*
X138947349Y-93787000D01*
X138987349Y-85720000D02*
X138987349Y-93780000D01*
X139027349Y-85726000D02*
X139027349Y-93774000D01*
X139068349Y-85733000D02*
X139068349Y-88710000D01*
X139068349Y-90790000D02*
X139068349Y-93767000D01*
X139108349Y-85740000D02*
X139108349Y-88710000D01*
X139108349Y-90790000D02*
X139108349Y-93760000D01*
X139148349Y-85748000D02*
X139148349Y-88710000D01*
X139148349Y-90790000D02*
X139148349Y-93752000D01*
X139188349Y-85756000D02*
X139188349Y-88710000D01*
X139188349Y-90790000D02*
X139188349Y-93744000D01*
X139228349Y-85765000D02*
X139228349Y-88710000D01*
X139228349Y-90790000D02*
X139228349Y-93735000D01*
X139268349Y-85774000D02*
X139268349Y-88710000D01*
X139268349Y-90790000D02*
X139268349Y-93726000D01*
X139308349Y-85783000D02*
X139308349Y-88710000D01*
X139308349Y-90790000D02*
X139308349Y-93717000D01*
X139348349Y-85793000D02*
X139348349Y-88710000D01*
X139348349Y-90790000D02*
X139348349Y-93707000D01*
X139388349Y-85803000D02*
X139388349Y-88710000D01*
X139388349Y-90790000D02*
X139388349Y-93697000D01*
X139428349Y-85814000D02*
X139428349Y-88710000D01*
X139428349Y-90790000D02*
X139428349Y-93686000D01*
X139468349Y-85825000D02*
X139468349Y-88710000D01*
X139468349Y-90790000D02*
X139468349Y-93675000D01*
X139508349Y-85836000D02*
X139508349Y-88710000D01*
X139508349Y-90790000D02*
X139508349Y-93664000D01*
X139548349Y-85848000D02*
X139548349Y-88710000D01*
X139548349Y-90790000D02*
X139548349Y-93652000D01*
X139588349Y-85861000D02*
X139588349Y-88710000D01*
X139588349Y-90790000D02*
X139588349Y-93639000D01*
X139628349Y-85873000D02*
X139628349Y-88710000D01*
X139628349Y-90790000D02*
X139628349Y-93627000D01*
X139668349Y-85887000D02*
X139668349Y-88710000D01*
X139668349Y-90790000D02*
X139668349Y-93613000D01*
X139708349Y-85900000D02*
X139708349Y-88710000D01*
X139708349Y-90790000D02*
X139708349Y-93600000D01*
X139748349Y-85915000D02*
X139748349Y-88710000D01*
X139748349Y-90790000D02*
X139748349Y-93585000D01*
X139788349Y-85929000D02*
X139788349Y-88710000D01*
X139788349Y-90790000D02*
X139788349Y-93571000D01*
X139828349Y-85945000D02*
X139828349Y-88710000D01*
X139828349Y-90790000D02*
X139828349Y-93555000D01*
X139868349Y-85960000D02*
X139868349Y-88710000D01*
X139868349Y-90790000D02*
X139868349Y-93540000D01*
X139908349Y-85976000D02*
X139908349Y-88710000D01*
X139908349Y-90790000D02*
X139908349Y-93524000D01*
X139948349Y-85993000D02*
X139948349Y-88710000D01*
X139948349Y-90790000D02*
X139948349Y-93507000D01*
X139988349Y-86010000D02*
X139988349Y-88710000D01*
X139988349Y-90790000D02*
X139988349Y-93490000D01*
X140028349Y-86028000D02*
X140028349Y-88710000D01*
X140028349Y-90790000D02*
X140028349Y-93472000D01*
X140068349Y-86046000D02*
X140068349Y-88710000D01*
X140068349Y-90790000D02*
X140068349Y-93454000D01*
X140108349Y-86064000D02*
X140108349Y-88710000D01*
X140108349Y-90790000D02*
X140108349Y-93436000D01*
X140148349Y-86084000D02*
X140148349Y-88710000D01*
X140148349Y-90790000D02*
X140148349Y-93416000D01*
X140188349Y-86103000D02*
X140188349Y-88710000D01*
X140188349Y-90790000D02*
X140188349Y-93397000D01*
X140228349Y-86123000D02*
X140228349Y-88710000D01*
X140228349Y-90790000D02*
X140228349Y-93377000D01*
X140268349Y-86144000D02*
X140268349Y-88710000D01*
X140268349Y-90790000D02*
X140268349Y-93356000D01*
X140308349Y-86166000D02*
X140308349Y-88710000D01*
X140308349Y-90790000D02*
X140308349Y-93334000D01*
X140348349Y-86188000D02*
X140348349Y-88710000D01*
X140348349Y-90790000D02*
X140348349Y-93312000D01*
X140388349Y-86210000D02*
X140388349Y-88710000D01*
X140388349Y-90790000D02*
X140388349Y-93290000D01*
X140428349Y-86233000D02*
X140428349Y-88710000D01*
X140428349Y-90790000D02*
X140428349Y-93267000D01*
X140468349Y-86257000D02*
X140468349Y-88710000D01*
X140468349Y-90790000D02*
X140468349Y-93243000D01*
X140508349Y-86281000D02*
X140508349Y-88710000D01*
X140508349Y-90790000D02*
X140508349Y-93219000D01*
X140548349Y-86306000D02*
X140548349Y-88710000D01*
X140548349Y-90790000D02*
X140548349Y-93194000D01*
X140588349Y-86332000D02*
X140588349Y-88710000D01*
X140588349Y-90790000D02*
X140588349Y-93168000D01*
X140628349Y-86358000D02*
X140628349Y-88710000D01*
X140628349Y-90790000D02*
X140628349Y-93142000D01*
X140668349Y-86385000D02*
X140668349Y-88710000D01*
X140668349Y-90790000D02*
X140668349Y-93115000D01*
X140708349Y-86412000D02*
X140708349Y-88710000D01*
X140708349Y-90790000D02*
X140708349Y-93088000D01*
X140748349Y-86441000D02*
X140748349Y-88710000D01*
X140748349Y-90790000D02*
X140748349Y-93059000D01*
X140788349Y-86470000D02*
X140788349Y-88710000D01*
X140788349Y-90790000D02*
X140788349Y-93030000D01*
X140828349Y-86500000D02*
X140828349Y-88710000D01*
X140828349Y-90790000D02*
X140828349Y-93000000D01*
X140868349Y-86530000D02*
X140868349Y-88710000D01*
X140868349Y-90790000D02*
X140868349Y-92970000D01*
X140908349Y-86561000D02*
X140908349Y-88710000D01*
X140908349Y-90790000D02*
X140908349Y-92939000D01*
X140948349Y-86594000D02*
X140948349Y-88710000D01*
X140948349Y-90790000D02*
X140948349Y-92906000D01*
X140988349Y-86626000D02*
X140988349Y-88710000D01*
X140988349Y-90790000D02*
X140988349Y-92874000D01*
X141028349Y-86660000D02*
X141028349Y-88710000D01*
X141028349Y-90790000D02*
X141028349Y-92840000D01*
X141068349Y-86695000D02*
X141068349Y-88710000D01*
X141068349Y-90790000D02*
X141068349Y-92805000D01*
X141108349Y-86731000D02*
X141108349Y-88710000D01*
X141108349Y-90790000D02*
X141108349Y-92769000D01*
X141148349Y-86767000D02*
X141148349Y-92733000D01*
X141188349Y-86805000D02*
X141188349Y-92695000D01*
X141228349Y-86843000D02*
X141228349Y-92657000D01*
X141268349Y-86883000D02*
X141268349Y-92617000D01*
X141308349Y-86924000D02*
X141308349Y-92576000D01*
X141348349Y-86966000D02*
X141348349Y-92534000D01*
X141388349Y-87009000D02*
X141388349Y-92491000D01*
X141428349Y-87053000D02*
X141428349Y-92447000D01*
X141468349Y-87099000D02*
X141468349Y-92401000D01*
X141508349Y-87146000D02*
X141508349Y-92354000D01*
X141548349Y-87194000D02*
X141548349Y-92306000D01*
X141588349Y-87245000D02*
X141588349Y-92255000D01*
X141628349Y-87296000D02*
X141628349Y-92204000D01*
X141668349Y-87350000D02*
X141668349Y-92150000D01*
X141708349Y-87405000D02*
X141708349Y-92095000D01*
X141748349Y-87463000D02*
X141748349Y-92037000D01*
X141788349Y-87522000D02*
X141788349Y-91978000D01*
X141828349Y-87584000D02*
X141828349Y-91916000D01*
X141868349Y-87648000D02*
X141868349Y-91852000D01*
X141908349Y-87716000D02*
X141908349Y-91784000D01*
X141948349Y-87786000D02*
X141948349Y-91714000D01*
X141988349Y-87860000D02*
X141988349Y-91640000D01*
X142028349Y-87937000D02*
X142028349Y-91563000D01*
X142068349Y-88019000D02*
X142068349Y-91481000D01*
X142108349Y-88105000D02*
X142108349Y-91395000D01*
X142148349Y-88198000D02*
X142148349Y-91302000D01*
X142188349Y-88297000D02*
X142188349Y-91203000D01*
X142228349Y-88404000D02*
X142228349Y-91096000D01*
X142268349Y-88521000D02*
X142268349Y-90979000D01*
X142308349Y-88652000D02*
X142308349Y-90848000D01*
X142348349Y-88802000D02*
X142348349Y-90698000D01*
X142388349Y-88982000D02*
X142388349Y-90518000D01*
X142428349Y-89217000D02*
X142428349Y-90283000D01*
X142467349Y-89750000D02*
G75*
G03*
X142467349Y-89750000I-4120000J0D01*
G01*
%TO.C,R7*%
X134060000Y-121270000D02*
X127520000Y-121270000D01*
X134060000Y-120940000D02*
X134060000Y-121270000D01*
X134060000Y-118860000D02*
X134060000Y-118530000D01*
X134060000Y-118530000D02*
X127520000Y-118530000D01*
X127520000Y-121270000D02*
X127520000Y-120940000D01*
X127520000Y-118530000D02*
X127520000Y-118860000D01*
%TO.C,TR1*%
X116355000Y-118830000D02*
X89005000Y-118830000D01*
X89005000Y-118830000D02*
X89005000Y-78510000D01*
X89005000Y-78510000D02*
X116355000Y-78510000D01*
X116355000Y-78510000D02*
X116355000Y-118830000D01*
%TO.C,C5*%
X172340580Y-115710000D02*
X172059420Y-115710000D01*
X172340580Y-114690000D02*
X172059420Y-114690000D01*
%TO.C,RV1*%
X138370000Y-65080000D02*
X129130000Y-65080000D01*
X138370000Y-65080000D02*
X138370000Y-81420000D01*
X129130000Y-65080000D02*
X129130000Y-81420000D01*
X138370000Y-66699000D02*
X129130000Y-66699000D01*
X138370000Y-79801000D02*
X129130000Y-79801000D01*
X138370000Y-81420000D02*
X129130000Y-81420000D01*
%TO.C,TR2*%
X144500000Y-85800000D02*
X168500000Y-85800000D01*
X168500000Y-85800000D02*
X168500000Y-120800000D01*
X168500000Y-120800000D02*
X144500000Y-120800000D01*
X144500000Y-120800000D02*
X144500000Y-85800000D01*
%TO.C,C1*%
X66012780Y-82385000D02*
X67812780Y-82385000D01*
X66912780Y-81485000D02*
X66912780Y-83285000D01*
X75772220Y-78419000D02*
X75772220Y-96581000D01*
X75812220Y-78420000D02*
X75812220Y-96580000D01*
X75852220Y-78420000D02*
X75852220Y-96580000D01*
X75892220Y-78420000D02*
X75892220Y-96580000D01*
X75932220Y-78421000D02*
X75932220Y-96579000D01*
X75972220Y-78422000D02*
X75972220Y-96578000D01*
X76012220Y-78423000D02*
X76012220Y-96577000D01*
X76052220Y-78424000D02*
X76052220Y-96576000D01*
X76092220Y-78425000D02*
X76092220Y-96575000D01*
X76132220Y-78427000D02*
X76132220Y-96573000D01*
X76172220Y-78428000D02*
X76172220Y-96572000D01*
X76212220Y-78430000D02*
X76212220Y-96570000D01*
X76252220Y-78432000D02*
X76252220Y-96568000D01*
X76292220Y-78434000D02*
X76292220Y-96566000D01*
X76332220Y-78437000D02*
X76332220Y-96563000D01*
X76372220Y-78439000D02*
X76372220Y-96561000D01*
X76412220Y-78442000D02*
X76412220Y-96558000D01*
X76452220Y-78445000D02*
X76452220Y-96555000D01*
X76493220Y-78448000D02*
X76493220Y-96552000D01*
X76533220Y-78451000D02*
X76533220Y-96549000D01*
X76573220Y-78455000D02*
X76573220Y-96545000D01*
X76613220Y-78458000D02*
X76613220Y-96542000D01*
X76653220Y-78462000D02*
X76653220Y-96538000D01*
X76693220Y-78466000D02*
X76693220Y-96534000D01*
X76733220Y-78470000D02*
X76733220Y-96530000D01*
X76773220Y-78474000D02*
X76773220Y-96526000D01*
X76813220Y-78479000D02*
X76813220Y-96521000D01*
X76853220Y-78484000D02*
X76853220Y-96516000D01*
X76893220Y-78489000D02*
X76893220Y-96511000D01*
X76933220Y-78494000D02*
X76933220Y-96506000D01*
X76973220Y-78499000D02*
X76973220Y-96501000D01*
X77013220Y-78504000D02*
X77013220Y-96496000D01*
X77053220Y-78510000D02*
X77053220Y-96490000D01*
X77093220Y-78516000D02*
X77093220Y-96484000D01*
X77133220Y-78521000D02*
X77133220Y-96479000D01*
X77173220Y-78528000D02*
X77173220Y-96472000D01*
X77213220Y-78534000D02*
X77213220Y-96466000D01*
X77253220Y-78540000D02*
X77253220Y-96460000D01*
X77293220Y-78547000D02*
X77293220Y-96453000D01*
X77333220Y-78554000D02*
X77333220Y-96446000D01*
X77373220Y-78561000D02*
X77373220Y-96439000D01*
X77413220Y-78568000D02*
X77413220Y-96432000D01*
X77453220Y-78576000D02*
X77453220Y-96424000D01*
X77493220Y-78583000D02*
X77493220Y-96417000D01*
X77533220Y-78591000D02*
X77533220Y-96409000D01*
X77573220Y-78599000D02*
X77573220Y-96401000D01*
X77613220Y-78607000D02*
X77613220Y-96393000D01*
X77653220Y-78615000D02*
X77653220Y-96385000D01*
X77693220Y-78624000D02*
X77693220Y-96376000D01*
X77733220Y-78633000D02*
X77733220Y-96367000D01*
X77773220Y-78642000D02*
X77773220Y-96358000D01*
X77813220Y-78651000D02*
X77813220Y-96349000D01*
X77853220Y-78660000D02*
X77853220Y-96340000D01*
X77893220Y-78669000D02*
X77893220Y-96331000D01*
X77933220Y-78679000D02*
X77933220Y-96321000D01*
X77973220Y-78689000D02*
X77973220Y-96311000D01*
X78013220Y-78699000D02*
X78013220Y-96301000D01*
X78053220Y-78709000D02*
X78053220Y-96291000D01*
X78093220Y-78720000D02*
X78093220Y-86060000D01*
X78093220Y-88940000D02*
X78093220Y-96280000D01*
X78133220Y-78730000D02*
X78133220Y-86060000D01*
X78133220Y-88940000D02*
X78133220Y-96270000D01*
X78173220Y-78741000D02*
X78173220Y-86060000D01*
X78173220Y-88940000D02*
X78173220Y-96259000D01*
X78213220Y-78752000D02*
X78213220Y-86060000D01*
X78213220Y-88940000D02*
X78213220Y-96248000D01*
X78253220Y-78763000D02*
X78253220Y-86060000D01*
X78253220Y-88940000D02*
X78253220Y-96237000D01*
X78293220Y-78775000D02*
X78293220Y-86060000D01*
X78293220Y-88940000D02*
X78293220Y-96225000D01*
X78333220Y-78786000D02*
X78333220Y-86060000D01*
X78333220Y-88940000D02*
X78333220Y-96214000D01*
X78373220Y-78798000D02*
X78373220Y-86060000D01*
X78373220Y-88940000D02*
X78373220Y-96202000D01*
X78413220Y-78810000D02*
X78413220Y-86060000D01*
X78413220Y-88940000D02*
X78413220Y-96190000D01*
X78453220Y-78822000D02*
X78453220Y-86060000D01*
X78453220Y-88940000D02*
X78453220Y-96178000D01*
X78493220Y-78835000D02*
X78493220Y-86060000D01*
X78493220Y-88940000D02*
X78493220Y-96165000D01*
X78533220Y-78847000D02*
X78533220Y-86060000D01*
X78533220Y-88940000D02*
X78533220Y-96153000D01*
X78573220Y-78860000D02*
X78573220Y-86060000D01*
X78573220Y-88940000D02*
X78573220Y-96140000D01*
X78613220Y-78873000D02*
X78613220Y-86060000D01*
X78613220Y-88940000D02*
X78613220Y-96127000D01*
X78653220Y-78886000D02*
X78653220Y-86060000D01*
X78653220Y-88940000D02*
X78653220Y-96114000D01*
X78693220Y-78900000D02*
X78693220Y-86060000D01*
X78693220Y-88940000D02*
X78693220Y-96100000D01*
X78733220Y-78913000D02*
X78733220Y-86060000D01*
X78733220Y-88940000D02*
X78733220Y-96087000D01*
X78773220Y-78927000D02*
X78773220Y-86060000D01*
X78773220Y-88940000D02*
X78773220Y-96073000D01*
X78813220Y-78941000D02*
X78813220Y-86060000D01*
X78813220Y-88940000D02*
X78813220Y-96059000D01*
X78853220Y-78955000D02*
X78853220Y-86060000D01*
X78853220Y-88940000D02*
X78853220Y-96045000D01*
X78893220Y-78970000D02*
X78893220Y-86060000D01*
X78893220Y-88940000D02*
X78893220Y-96030000D01*
X78933220Y-78984000D02*
X78933220Y-86060000D01*
X78933220Y-88940000D02*
X78933220Y-96016000D01*
X78973220Y-78999000D02*
X78973220Y-86060000D01*
X78973220Y-88940000D02*
X78973220Y-96001000D01*
X79013220Y-79014000D02*
X79013220Y-86060000D01*
X79013220Y-88940000D02*
X79013220Y-95986000D01*
X79053220Y-79030000D02*
X79053220Y-86060000D01*
X79053220Y-88940000D02*
X79053220Y-95970000D01*
X79093220Y-79045000D02*
X79093220Y-86060000D01*
X79093220Y-88940000D02*
X79093220Y-95955000D01*
X79133220Y-79061000D02*
X79133220Y-86060000D01*
X79133220Y-88940000D02*
X79133220Y-95939000D01*
X79173220Y-79077000D02*
X79173220Y-86060000D01*
X79173220Y-88940000D02*
X79173220Y-95923000D01*
X79213220Y-79093000D02*
X79213220Y-86060000D01*
X79213220Y-88940000D02*
X79213220Y-95907000D01*
X79253220Y-79110000D02*
X79253220Y-86060000D01*
X79253220Y-88940000D02*
X79253220Y-95890000D01*
X79293220Y-79126000D02*
X79293220Y-86060000D01*
X79293220Y-88940000D02*
X79293220Y-95874000D01*
X79333220Y-79143000D02*
X79333220Y-86060000D01*
X79333220Y-88940000D02*
X79333220Y-95857000D01*
X79373220Y-79160000D02*
X79373220Y-86060000D01*
X79373220Y-88940000D02*
X79373220Y-95840000D01*
X79413220Y-79177000D02*
X79413220Y-86060000D01*
X79413220Y-88940000D02*
X79413220Y-95823000D01*
X79453220Y-79195000D02*
X79453220Y-86060000D01*
X79453220Y-88940000D02*
X79453220Y-95805000D01*
X79493220Y-79213000D02*
X79493220Y-86060000D01*
X79493220Y-88940000D02*
X79493220Y-95787000D01*
X79533220Y-79231000D02*
X79533220Y-86060000D01*
X79533220Y-88940000D02*
X79533220Y-95769000D01*
X79573220Y-79249000D02*
X79573220Y-86060000D01*
X79573220Y-88940000D02*
X79573220Y-95751000D01*
X79613220Y-79267000D02*
X79613220Y-86060000D01*
X79613220Y-88940000D02*
X79613220Y-95733000D01*
X79653220Y-79286000D02*
X79653220Y-86060000D01*
X79653220Y-88940000D02*
X79653220Y-95714000D01*
X79693220Y-79305000D02*
X79693220Y-86060000D01*
X79693220Y-88940000D02*
X79693220Y-95695000D01*
X79733220Y-79324000D02*
X79733220Y-86060000D01*
X79733220Y-88940000D02*
X79733220Y-95676000D01*
X79773220Y-79344000D02*
X79773220Y-86060000D01*
X79773220Y-88940000D02*
X79773220Y-95656000D01*
X79813220Y-79363000D02*
X79813220Y-86060000D01*
X79813220Y-88940000D02*
X79813220Y-95637000D01*
X79853220Y-79383000D02*
X79853220Y-86060000D01*
X79853220Y-88940000D02*
X79853220Y-95617000D01*
X79893220Y-79403000D02*
X79893220Y-86060000D01*
X79893220Y-88940000D02*
X79893220Y-95597000D01*
X79933220Y-79424000D02*
X79933220Y-86060000D01*
X79933220Y-88940000D02*
X79933220Y-95576000D01*
X79973220Y-79444000D02*
X79973220Y-86060000D01*
X79973220Y-88940000D02*
X79973220Y-95556000D01*
X80013220Y-79465000D02*
X80013220Y-86060000D01*
X80013220Y-88940000D02*
X80013220Y-95535000D01*
X80053220Y-79486000D02*
X80053220Y-86060000D01*
X80053220Y-88940000D02*
X80053220Y-95514000D01*
X80093220Y-79508000D02*
X80093220Y-86060000D01*
X80093220Y-88940000D02*
X80093220Y-95492000D01*
X80133220Y-79529000D02*
X80133220Y-86060000D01*
X80133220Y-88940000D02*
X80133220Y-95471000D01*
X80173220Y-79551000D02*
X80173220Y-86060000D01*
X80173220Y-88940000D02*
X80173220Y-95449000D01*
X80213220Y-79573000D02*
X80213220Y-86060000D01*
X80213220Y-88940000D02*
X80213220Y-95427000D01*
X80253220Y-79596000D02*
X80253220Y-86060000D01*
X80253220Y-88940000D02*
X80253220Y-95404000D01*
X80293220Y-79618000D02*
X80293220Y-86060000D01*
X80293220Y-88940000D02*
X80293220Y-95382000D01*
X80333220Y-79641000D02*
X80333220Y-86060000D01*
X80333220Y-88940000D02*
X80333220Y-95359000D01*
X80373220Y-79665000D02*
X80373220Y-86060000D01*
X80373220Y-88940000D02*
X80373220Y-95335000D01*
X80413220Y-79688000D02*
X80413220Y-86060000D01*
X80413220Y-88940000D02*
X80413220Y-95312000D01*
X80453220Y-79712000D02*
X80453220Y-86060000D01*
X80453220Y-88940000D02*
X80453220Y-95288000D01*
X80493220Y-79736000D02*
X80493220Y-86060000D01*
X80493220Y-88940000D02*
X80493220Y-95264000D01*
X80533220Y-79760000D02*
X80533220Y-86060000D01*
X80533220Y-88940000D02*
X80533220Y-95240000D01*
X80573220Y-79785000D02*
X80573220Y-86060000D01*
X80573220Y-88940000D02*
X80573220Y-95215000D01*
X80613220Y-79810000D02*
X80613220Y-86060000D01*
X80613220Y-88940000D02*
X80613220Y-95190000D01*
X80653220Y-79835000D02*
X80653220Y-86060000D01*
X80653220Y-88940000D02*
X80653220Y-95165000D01*
X80693220Y-79860000D02*
X80693220Y-86060000D01*
X80693220Y-88940000D02*
X80693220Y-95140000D01*
X80733220Y-79886000D02*
X80733220Y-86060000D01*
X80733220Y-88940000D02*
X80733220Y-95114000D01*
X80773220Y-79912000D02*
X80773220Y-86060000D01*
X80773220Y-88940000D02*
X80773220Y-95088000D01*
X80813220Y-79939000D02*
X80813220Y-86060000D01*
X80813220Y-88940000D02*
X80813220Y-95061000D01*
X80853220Y-79965000D02*
X80853220Y-86060000D01*
X80853220Y-88940000D02*
X80853220Y-95035000D01*
X80893220Y-79992000D02*
X80893220Y-86060000D01*
X80893220Y-88940000D02*
X80893220Y-95008000D01*
X80933220Y-80020000D02*
X80933220Y-86060000D01*
X80933220Y-88940000D02*
X80933220Y-94980000D01*
X80973220Y-80047000D02*
X80973220Y-94953000D01*
X81013220Y-80075000D02*
X81013220Y-94925000D01*
X81053220Y-80103000D02*
X81053220Y-94897000D01*
X81093220Y-80132000D02*
X81093220Y-94868000D01*
X81133220Y-80161000D02*
X81133220Y-94839000D01*
X81173220Y-80190000D02*
X81173220Y-94810000D01*
X81213220Y-80220000D02*
X81213220Y-94780000D01*
X81253220Y-80250000D02*
X81253220Y-94750000D01*
X81293220Y-80280000D02*
X81293220Y-94720000D01*
X81333220Y-80310000D02*
X81333220Y-94690000D01*
X81373220Y-80341000D02*
X81373220Y-94659000D01*
X81413220Y-80373000D02*
X81413220Y-94627000D01*
X81453220Y-80404000D02*
X81453220Y-94596000D01*
X81493220Y-80436000D02*
X81493220Y-94564000D01*
X81533220Y-80469000D02*
X81533220Y-94531000D01*
X81573220Y-80501000D02*
X81573220Y-94499000D01*
X81613220Y-80535000D02*
X81613220Y-94465000D01*
X81653220Y-80568000D02*
X81653220Y-94432000D01*
X81693220Y-80602000D02*
X81693220Y-94398000D01*
X81733220Y-80636000D02*
X81733220Y-94364000D01*
X81773220Y-80671000D02*
X81773220Y-94329000D01*
X81813220Y-80706000D02*
X81813220Y-94294000D01*
X81853220Y-80742000D02*
X81853220Y-94258000D01*
X81893220Y-80778000D02*
X81893220Y-94222000D01*
X81933220Y-80814000D02*
X81933220Y-94186000D01*
X81973220Y-80851000D02*
X81973220Y-94149000D01*
X82013220Y-80888000D02*
X82013220Y-94112000D01*
X82053220Y-80926000D02*
X82053220Y-94074000D01*
X82093220Y-80964000D02*
X82093220Y-94036000D01*
X82133220Y-81003000D02*
X82133220Y-93997000D01*
X82173220Y-81042000D02*
X82173220Y-93958000D01*
X82213220Y-81082000D02*
X82213220Y-93918000D01*
X82253220Y-81122000D02*
X82253220Y-93878000D01*
X82293220Y-81163000D02*
X82293220Y-93837000D01*
X82333220Y-81204000D02*
X82333220Y-93796000D01*
X82373220Y-81246000D02*
X82373220Y-93754000D01*
X82413220Y-81288000D02*
X82413220Y-93712000D01*
X82453220Y-81330000D02*
X82453220Y-93670000D01*
X82493220Y-81374000D02*
X82493220Y-93626000D01*
X82533220Y-81418000D02*
X82533220Y-93582000D01*
X82573220Y-81462000D02*
X82573220Y-93538000D01*
X82613220Y-81507000D02*
X82613220Y-93493000D01*
X82653220Y-81553000D02*
X82653220Y-93447000D01*
X82693220Y-81599000D02*
X82693220Y-93401000D01*
X82733220Y-81646000D02*
X82733220Y-93354000D01*
X82773220Y-81694000D02*
X82773220Y-93306000D01*
X82813220Y-81742000D02*
X82813220Y-93258000D01*
X82853220Y-81791000D02*
X82853220Y-93209000D01*
X82893220Y-81840000D02*
X82893220Y-93160000D01*
X82933220Y-81891000D02*
X82933220Y-93109000D01*
X82973220Y-81942000D02*
X82973220Y-93058000D01*
X83013220Y-81994000D02*
X83013220Y-93006000D01*
X83053220Y-82046000D02*
X83053220Y-92954000D01*
X83093220Y-82100000D02*
X83093220Y-92900000D01*
X83133220Y-82154000D02*
X83133220Y-92846000D01*
X83173220Y-82209000D02*
X83173220Y-92791000D01*
X83213220Y-82265000D02*
X83213220Y-92735000D01*
X83253220Y-82322000D02*
X83253220Y-92678000D01*
X83293220Y-82380000D02*
X83293220Y-92620000D01*
X83333220Y-82438000D02*
X83333220Y-92562000D01*
X83373220Y-82498000D02*
X83373220Y-92502000D01*
X83413220Y-82559000D02*
X83413220Y-92441000D01*
X83453220Y-82621000D02*
X83453220Y-92379000D01*
X83493220Y-82684000D02*
X83493220Y-92316000D01*
X83533220Y-82748000D02*
X83533220Y-92252000D01*
X83573220Y-82814000D02*
X83573220Y-92186000D01*
X83613220Y-82880000D02*
X83613220Y-92120000D01*
X83653220Y-82948000D02*
X83653220Y-92052000D01*
X83693220Y-83018000D02*
X83693220Y-91982000D01*
X83733220Y-83088000D02*
X83733220Y-91912000D01*
X83773220Y-83161000D02*
X83773220Y-91839000D01*
X83813220Y-83235000D02*
X83813220Y-91765000D01*
X83853220Y-83310000D02*
X83853220Y-91690000D01*
X83893220Y-83387000D02*
X83893220Y-91613000D01*
X83933220Y-83467000D02*
X83933220Y-91533000D01*
X83972220Y-83548000D02*
X83972220Y-91452000D01*
X84012220Y-83631000D02*
X84012220Y-91369000D01*
X84052220Y-83716000D02*
X84052220Y-91284000D01*
X84092220Y-83804000D02*
X84092220Y-91196000D01*
X84132220Y-83895000D02*
X84132220Y-91105000D01*
X84172220Y-83988000D02*
X84172220Y-91012000D01*
X84212220Y-84084000D02*
X84212220Y-90916000D01*
X84252220Y-84183000D02*
X84252220Y-90817000D01*
X84292220Y-84286000D02*
X84292220Y-90714000D01*
X84332220Y-84393000D02*
X84332220Y-90607000D01*
X84372220Y-84504000D02*
X84372220Y-90496000D01*
X84412220Y-84620000D02*
X84412220Y-90380000D01*
X84452220Y-84741000D02*
X84452220Y-90259000D01*
X84492220Y-84868000D02*
X84492220Y-90132000D01*
X84532220Y-85002000D02*
X84532220Y-89998000D01*
X84572220Y-85145000D02*
X84572220Y-89855000D01*
X84612220Y-85297000D02*
X84612220Y-89703000D01*
X84652220Y-85461000D02*
X84652220Y-89539000D01*
X84692220Y-85640000D02*
X84692220Y-89360000D01*
X84732220Y-85839000D02*
X84732220Y-89161000D01*
X84772220Y-86065000D02*
X84772220Y-88935000D01*
X84812220Y-86334000D02*
X84812220Y-88666000D01*
X84852220Y-86686000D02*
X84852220Y-88314000D01*
X84892220Y-87460000D02*
X84892220Y-87540000D01*
X84892220Y-87500000D02*
G75*
G03*
X84892220Y-87500000I-9120000J0D01*
G01*
%TO.C,U3*%
X174260000Y-107600000D02*
X174260000Y-105800000D01*
X174260000Y-107600000D02*
X174260000Y-108400000D01*
X171140000Y-107600000D02*
X171140000Y-106800000D01*
X171140000Y-107600000D02*
X171140000Y-108400000D01*
%TO.C,C6*%
X144130000Y-129870000D02*
X146870000Y-129870000D01*
X144130000Y-129870000D02*
X144130000Y-122630000D01*
X146870000Y-129870000D02*
X146870000Y-122630000D01*
X144130000Y-122630000D02*
X146870000Y-122630000D01*
%TO.C,R3*%
X113160000Y-54500000D02*
X117360000Y-54500000D01*
X113160000Y-54500000D02*
G75*
G03*
X113160000Y-54500000I-1920000J0D01*
G01*
%TO.C,D4*%
X139249716Y-95900000D02*
G75*
G03*
X139191636Y-99175386I-2154716J-1600000D01*
G01*
%TO.C,Y1*%
X132620000Y-38880000D02*
X126380000Y-38880000D01*
X132620000Y-38880000D02*
X132620000Y-57120000D01*
X126380000Y-38880000D02*
X126380000Y-57120000D01*
X132620000Y-57120000D02*
X126380000Y-57120000D01*
%TO.C,R16*%
X132065000Y-108727064D02*
X132065000Y-108272936D01*
X133535000Y-108727064D02*
X133535000Y-108272936D01*
%TO.C,R1*%
X122500000Y-47340000D02*
X122500000Y-43140000D01*
X124420000Y-49260000D02*
G75*
G03*
X124420000Y-49260000I-1920000J0D01*
G01*
%TO.C,C7*%
X171859420Y-100390000D02*
X172140580Y-100390000D01*
X171859420Y-101410000D02*
X172140580Y-101410000D01*
%TO.C,R6*%
X127480000Y-123880000D02*
X134020000Y-123880000D01*
X127480000Y-124210000D02*
X127480000Y-123880000D01*
X127480000Y-126290000D02*
X127480000Y-126620000D01*
X127480000Y-126620000D02*
X134020000Y-126620000D01*
X134020000Y-123880000D02*
X134020000Y-124210000D01*
X134020000Y-126620000D02*
X134020000Y-126290000D01*
%TO.C,R10*%
X172427064Y-113535000D02*
X171972936Y-113535000D01*
X172427064Y-112065000D02*
X171972936Y-112065000D01*
D10*
%TO.C,JP1*%
X120850000Y-121280000D02*
X120350000Y-120780000D01*
X121650000Y-121280000D02*
X120850000Y-121280000D01*
X120350000Y-120780000D02*
X120350000Y-117180000D01*
X122150000Y-120780000D02*
X121650000Y-121280000D01*
X120350000Y-117180000D02*
X120850000Y-116680000D01*
X122150000Y-117180000D02*
X122150000Y-120780000D01*
X120850000Y-116680000D02*
X121650000Y-116680000D01*
X121650000Y-116680000D02*
X122150000Y-117180000D01*
D11*
%TO.C,K1*%
X109450000Y-77650000D02*
X116050000Y-77650000D01*
X109450000Y-77650000D02*
X109450000Y-57850000D01*
X118450000Y-77650000D02*
X125050000Y-77650000D01*
X117300000Y-73600000D02*
X117300000Y-74400000D01*
X117300000Y-73600000D02*
X120900000Y-73600000D01*
X123300000Y-72700000D02*
X123300000Y-70200000D01*
X115500000Y-72200000D02*
X115500000Y-68200000D01*
X119100000Y-72200000D02*
X115500000Y-72200000D01*
X111300000Y-70200000D02*
X111300000Y-72700000D01*
X111300000Y-70200000D02*
X115500000Y-70200000D01*
X119100000Y-70200000D02*
X123300000Y-70200000D01*
X115500000Y-68200000D02*
X119100000Y-68200000D01*
X119100000Y-68200000D02*
X115500000Y-72200000D01*
X119100000Y-68200000D02*
X119100000Y-72200000D01*
X117300000Y-66800000D02*
X120900000Y-66800000D01*
X117300000Y-66800000D02*
X117300000Y-65300000D01*
X120900000Y-66800000D02*
X120900000Y-73600000D01*
X117300000Y-65300000D02*
X114800000Y-60700000D01*
X113050000Y-62100000D02*
X115550000Y-62100000D01*
X121450000Y-62100000D02*
X119000000Y-62100000D01*
X109450000Y-57850000D02*
X125050000Y-57850000D01*
X125050000Y-57850000D02*
X125050000Y-77650000D01*
%TO.C,D2*%
X150530000Y-129720000D02*
X150530000Y-124280000D01*
X150660000Y-129720000D02*
X150530000Y-129720000D01*
X153340000Y-129720000D02*
X153470000Y-129720000D01*
X153470000Y-129720000D02*
X153470000Y-124280000D01*
X150530000Y-128940000D02*
X153470000Y-128940000D01*
X150530000Y-128820000D02*
X153470000Y-128820000D01*
X150530000Y-128700000D02*
X153470000Y-128700000D01*
X150530000Y-124280000D02*
X150660000Y-124280000D01*
X153470000Y-124280000D02*
X153340000Y-124280000D01*
%TO.C,CLR2*%
X67250000Y-130750000D02*
X118250000Y-130750000D01*
X90750000Y-130750000D02*
X90750000Y-134750000D01*
X92750000Y-130750000D02*
X92750000Y-134750000D01*
X94750000Y-130750000D02*
X94750000Y-134750000D01*
X118250000Y-134750000D02*
X67250000Y-134750000D01*
X67250000Y-119750000D02*
X118250000Y-119750000D01*
X118250000Y-119750000D02*
X118250000Y-145250000D01*
X118250000Y-145250000D02*
X67250000Y-145250000D01*
X67250000Y-145250000D02*
X67250000Y-119750000D01*
%TO.C,R2*%
X111500000Y-43550000D02*
X111500000Y-47750000D01*
X113420000Y-41630000D02*
G75*
G03*
X113420000Y-41630000I-1920000J0D01*
G01*
%TO.C,C10*%
X130909698Y-115815000D02*
X130109698Y-115815000D01*
X130509698Y-116215000D02*
X130509698Y-115415000D01*
X126500000Y-117580000D02*
X126500000Y-109420000D01*
X126460000Y-117580000D02*
X126460000Y-109420000D01*
X126420000Y-117580000D02*
X126420000Y-109420000D01*
X126380000Y-117579000D02*
X126380000Y-109421000D01*
X126340000Y-117577000D02*
X126340000Y-109423000D01*
X126300000Y-117576000D02*
X126300000Y-109424000D01*
X126260000Y-117574000D02*
X126260000Y-109426000D01*
X126220000Y-117571000D02*
X126220000Y-109429000D01*
X126180000Y-117568000D02*
X126180000Y-109432000D01*
X126140000Y-117565000D02*
X126140000Y-109435000D01*
X126100000Y-117561000D02*
X126100000Y-109439000D01*
X126060000Y-117557000D02*
X126060000Y-109443000D01*
X126020000Y-117552000D02*
X126020000Y-109448000D01*
X125980000Y-117548000D02*
X125980000Y-109452000D01*
X125940000Y-117542000D02*
X125940000Y-109458000D01*
X125900000Y-117537000D02*
X125900000Y-109463000D01*
X125860000Y-117530000D02*
X125860000Y-109470000D01*
X125820000Y-117524000D02*
X125820000Y-109476000D01*
X125779000Y-117517000D02*
X125779000Y-114540000D01*
X125779000Y-112460000D02*
X125779000Y-109483000D01*
X125739000Y-117510000D02*
X125739000Y-114540000D01*
X125739000Y-112460000D02*
X125739000Y-109490000D01*
X125699000Y-117502000D02*
X125699000Y-114540000D01*
X125699000Y-112460000D02*
X125699000Y-109498000D01*
X125659000Y-117494000D02*
X125659000Y-114540000D01*
X125659000Y-112460000D02*
X125659000Y-109506000D01*
X125619000Y-117485000D02*
X125619000Y-114540000D01*
X125619000Y-112460000D02*
X125619000Y-109515000D01*
X125579000Y-117476000D02*
X125579000Y-114540000D01*
X125579000Y-112460000D02*
X125579000Y-109524000D01*
X125539000Y-117467000D02*
X125539000Y-114540000D01*
X125539000Y-112460000D02*
X125539000Y-109533000D01*
X125499000Y-117457000D02*
X125499000Y-114540000D01*
X125499000Y-112460000D02*
X125499000Y-109543000D01*
X125459000Y-117447000D02*
X125459000Y-114540000D01*
X125459000Y-112460000D02*
X125459000Y-109553000D01*
X125419000Y-117436000D02*
X125419000Y-114540000D01*
X125419000Y-112460000D02*
X125419000Y-109564000D01*
X125379000Y-117425000D02*
X125379000Y-114540000D01*
X125379000Y-112460000D02*
X125379000Y-109575000D01*
X125339000Y-117414000D02*
X125339000Y-114540000D01*
X125339000Y-112460000D02*
X125339000Y-109586000D01*
X125299000Y-117402000D02*
X125299000Y-114540000D01*
X125299000Y-112460000D02*
X125299000Y-109598000D01*
X125259000Y-117389000D02*
X125259000Y-114540000D01*
X125259000Y-112460000D02*
X125259000Y-109611000D01*
X125219000Y-117377000D02*
X125219000Y-114540000D01*
X125219000Y-112460000D02*
X125219000Y-109623000D01*
X125179000Y-117363000D02*
X125179000Y-114540000D01*
X125179000Y-112460000D02*
X125179000Y-109637000D01*
X125139000Y-117350000D02*
X125139000Y-114540000D01*
X125139000Y-112460000D02*
X125139000Y-109650000D01*
X125099000Y-117335000D02*
X125099000Y-114540000D01*
X125099000Y-112460000D02*
X125099000Y-109665000D01*
X125059000Y-117321000D02*
X125059000Y-114540000D01*
X125059000Y-112460000D02*
X125059000Y-109679000D01*
X125019000Y-117305000D02*
X125019000Y-114540000D01*
X125019000Y-112460000D02*
X125019000Y-109695000D01*
X124979000Y-117290000D02*
X124979000Y-114540000D01*
X124979000Y-112460000D02*
X124979000Y-109710000D01*
X124939000Y-117274000D02*
X124939000Y-114540000D01*
X124939000Y-112460000D02*
X124939000Y-109726000D01*
X124899000Y-117257000D02*
X124899000Y-114540000D01*
X124899000Y-112460000D02*
X124899000Y-109743000D01*
X124859000Y-117240000D02*
X124859000Y-114540000D01*
X124859000Y-112460000D02*
X124859000Y-109760000D01*
X124819000Y-117222000D02*
X124819000Y-114540000D01*
X124819000Y-112460000D02*
X124819000Y-109778000D01*
X124779000Y-117204000D02*
X124779000Y-114540000D01*
X124779000Y-112460000D02*
X124779000Y-109796000D01*
X124739000Y-117186000D02*
X124739000Y-114540000D01*
X124739000Y-112460000D02*
X124739000Y-109814000D01*
X124699000Y-117166000D02*
X124699000Y-114540000D01*
X124699000Y-112460000D02*
X124699000Y-109834000D01*
X124659000Y-117147000D02*
X124659000Y-114540000D01*
X124659000Y-112460000D02*
X124659000Y-109853000D01*
X124619000Y-117127000D02*
X124619000Y-114540000D01*
X124619000Y-112460000D02*
X124619000Y-109873000D01*
X124579000Y-117106000D02*
X124579000Y-114540000D01*
X124579000Y-112460000D02*
X124579000Y-109894000D01*
X124539000Y-117084000D02*
X124539000Y-114540000D01*
X124539000Y-112460000D02*
X124539000Y-109916000D01*
X124499000Y-117062000D02*
X124499000Y-114540000D01*
X124499000Y-112460000D02*
X124499000Y-109938000D01*
X124459000Y-117040000D02*
X124459000Y-114540000D01*
X124459000Y-112460000D02*
X124459000Y-109960000D01*
X124419000Y-117017000D02*
X124419000Y-114540000D01*
X124419000Y-112460000D02*
X124419000Y-109983000D01*
X124379000Y-116993000D02*
X124379000Y-114540000D01*
X124379000Y-112460000D02*
X124379000Y-110007000D01*
X124339000Y-116969000D02*
X124339000Y-114540000D01*
X124339000Y-112460000D02*
X124339000Y-110031000D01*
X124299000Y-116944000D02*
X124299000Y-114540000D01*
X124299000Y-112460000D02*
X124299000Y-110056000D01*
X124259000Y-116918000D02*
X124259000Y-114540000D01*
X124259000Y-112460000D02*
X124259000Y-110082000D01*
X124219000Y-116892000D02*
X124219000Y-114540000D01*
X124219000Y-112460000D02*
X124219000Y-110108000D01*
X124179000Y-116865000D02*
X124179000Y-114540000D01*
X124179000Y-112460000D02*
X124179000Y-110135000D01*
X124139000Y-116838000D02*
X124139000Y-114540000D01*
X124139000Y-112460000D02*
X124139000Y-110162000D01*
X124099000Y-116809000D02*
X124099000Y-114540000D01*
X124099000Y-112460000D02*
X124099000Y-110191000D01*
X124059000Y-116780000D02*
X124059000Y-114540000D01*
X124059000Y-112460000D02*
X124059000Y-110220000D01*
X124019000Y-116750000D02*
X124019000Y-114540000D01*
X124019000Y-112460000D02*
X124019000Y-110250000D01*
X123979000Y-116720000D02*
X123979000Y-114540000D01*
X123979000Y-112460000D02*
X123979000Y-110280000D01*
X123939000Y-116689000D02*
X123939000Y-114540000D01*
X123939000Y-112460000D02*
X123939000Y-110311000D01*
X123899000Y-116656000D02*
X123899000Y-114540000D01*
X123899000Y-112460000D02*
X123899000Y-110344000D01*
X123859000Y-116624000D02*
X123859000Y-114540000D01*
X123859000Y-112460000D02*
X123859000Y-110376000D01*
X123819000Y-116590000D02*
X123819000Y-114540000D01*
X123819000Y-112460000D02*
X123819000Y-110410000D01*
X123779000Y-116555000D02*
X123779000Y-114540000D01*
X123779000Y-112460000D02*
X123779000Y-110445000D01*
X123739000Y-116519000D02*
X123739000Y-114540000D01*
X123739000Y-112460000D02*
X123739000Y-110481000D01*
X123699000Y-116483000D02*
X123699000Y-110517000D01*
X123659000Y-116445000D02*
X123659000Y-110555000D01*
X123619000Y-116407000D02*
X123619000Y-110593000D01*
X123579000Y-116367000D02*
X123579000Y-110633000D01*
X123539000Y-116326000D02*
X123539000Y-110674000D01*
X123499000Y-116284000D02*
X123499000Y-110716000D01*
X123459000Y-116241000D02*
X123459000Y-110759000D01*
X123419000Y-116197000D02*
X123419000Y-110803000D01*
X123379000Y-116151000D02*
X123379000Y-110849000D01*
X123339000Y-116104000D02*
X123339000Y-110896000D01*
X123299000Y-116056000D02*
X123299000Y-110944000D01*
X123259000Y-116005000D02*
X123259000Y-110995000D01*
X123219000Y-115954000D02*
X123219000Y-111046000D01*
X123179000Y-115900000D02*
X123179000Y-111100000D01*
X123139000Y-115845000D02*
X123139000Y-111155000D01*
X123099000Y-115787000D02*
X123099000Y-111213000D01*
X123059000Y-115728000D02*
X123059000Y-111272000D01*
X123019000Y-115666000D02*
X123019000Y-111334000D01*
X122979000Y-115602000D02*
X122979000Y-111398000D01*
X122939000Y-115534000D02*
X122939000Y-111466000D01*
X122899000Y-115464000D02*
X122899000Y-111536000D01*
X122859000Y-115390000D02*
X122859000Y-111610000D01*
X122819000Y-115313000D02*
X122819000Y-111687000D01*
X122779000Y-115231000D02*
X122779000Y-111769000D01*
X122739000Y-115145000D02*
X122739000Y-111855000D01*
X122699000Y-115052000D02*
X122699000Y-111948000D01*
X122659000Y-114953000D02*
X122659000Y-112047000D01*
X122619000Y-114846000D02*
X122619000Y-112154000D01*
X122579000Y-114729000D02*
X122579000Y-112271000D01*
X122539000Y-114598000D02*
X122539000Y-112402000D01*
X122499000Y-114448000D02*
X122499000Y-112552000D01*
X122459000Y-114268000D02*
X122459000Y-112732000D01*
X122419000Y-114033000D02*
X122419000Y-112967000D01*
X130620000Y-113500000D02*
G75*
G03*
X130620000Y-113500000I-4120000J0D01*
G01*
%TD*%
M02*
