M48
; DRILL file {KiCad 7.0.7-7.0.7~ubuntu22.04.1} date Вт 15 авг 2023 15:59:33
; FORMAT={-:-/ absolute / inch / decimal}
; #@! TF.CreationDate,2023-08-15T15:59:33+03:00
; #@! TF.GenerationSoftware,Kicad,Pcbnew,7.0.7-7.0.7~ubuntu22.04.1
; #@! TF.FileFunction,Plated,1,2,PTH
FMAT,2
INCH
; #@! TA.AperFunction,Plated,PTH,ViaDrill
T1C0.0157
; #@! TA.AperFunction,Plated,PTH,ComponentDrill
T2C0.0315
; #@! TA.AperFunction,Plated,PTH,ComponentDrill
T3C0.0354
; #@! TA.AperFunction,Plated,PTH,ComponentDrill
T4C0.0394
; #@! TA.AperFunction,Plated,PTH,ComponentDrill
T5C0.0433
; #@! TA.AperFunction,Plated,PTH,ComponentDrill
T6C0.0472
; #@! TA.AperFunction,Plated,PTH,ComponentDrill
T7C0.0512
; #@! TA.AperFunction,Plated,PTH,ComponentDrill
T8C0.0551
; #@! TA.AperFunction,Plated,PTH,ComponentDrill
T9C0.0591
; #@! TA.AperFunction,Plated,PTH,ComponentDrill
T10C0.0630
; #@! TA.AperFunction,Plated,PTH,ComponentDrill
T11C0.0827
%
G90
G05
T1
X3.7047Y-4.0979
X3.7953Y-4.8538
X4.4488Y-4.7126
X4.498Y-4.4129
X5.9843Y-4.5197
T2
X4.5472Y-4.7853
X4.5472Y-4.8853
X4.7323Y-3.8031
X4.7713Y-5.0822
X4.7728Y-4.8716
X4.8701Y-3.8031
X5.0041Y-4.6353
X5.0713Y-5.0822
X5.0728Y-4.8716
X5.0787Y-3.6811
X5.0829Y-4.6353
X5.2165Y-3.6811
X5.2953Y-4.9917
X5.2953Y-5.2917
X5.4409Y-5.0231
X5.4409Y-5.22
X5.9813Y-3.7323
X5.9813Y-4.0323
X6.0813Y-3.7323
X6.0813Y-4.0323
T3
X4.7047Y-4.3872
X4.7047Y-4.4872
X5.0201Y-4.2534
X5.1201Y-4.2534
T4
X4.1476Y-3.0965
X4.6201Y-3.0965
T5
X3.1474Y-3.9782
X3.1474Y-4.0782
X3.1474Y-4.1782
X3.3252Y-5.1631
X3.5252Y-5.1631
X5.2244Y-4.418
X5.2244Y-4.718
X5.6575Y-4.9839
X5.6575Y-5.2839
X5.9732Y-5.1339
X6.0732Y-5.1339
X6.1732Y-5.1339
T6
X2.6091Y-3.596
X2.9044Y-3.596
X4.0882Y-2.0866
X4.1354Y-2.315
X4.3882Y-2.0866
X4.4354Y-2.315
X4.6378Y-2.0311
X4.6378Y-2.3311
X4.8937Y-2.0472
X4.8937Y-2.6378
X5.8184Y-5.5748
X6.1137Y-5.5748
T7
X4.1457Y-2.6142
X4.3819Y-3.1732
X4.6201Y-2.6161
T8
X2.8816Y-2.9638
X3.0816Y-2.9638
X3.2816Y-2.9638
X3.4816Y-2.9638
X4.9252Y-2.9376
X4.9252Y-3.2278
T9
X2.4902Y-4.1865
T10
X3.3661Y-3.4357
X3.3661Y-3.6357
X3.3661Y-3.8357
X3.3661Y-4.0357
X3.3661Y-4.2357
X3.3661Y-4.4357
X3.3661Y-4.6357
X4.2661Y-3.4357
X4.2661Y-3.6357
X4.2661Y-3.8357
X4.2661Y-4.0357
X4.2661Y-4.2357
X4.2661Y-4.4357
X4.2661Y-4.6357
X5.0825Y-4.0276
X5.2325Y-4.0276
X5.4209Y-3.6141
X5.4209Y-3.8141
X5.4209Y-4.0141
X5.4209Y-4.2141
X5.4209Y-4.4141
X5.4209Y-4.6141
X5.4209Y-4.8141
X6.2209Y-3.6141
X6.2209Y-3.8141
X6.2209Y-4.0141
X6.2209Y-4.2141
X6.2209Y-4.4141
X6.2209Y-4.6141
X6.2209Y-4.8141
T11
X2.6378Y-4.4621
X2.6378Y-4.6983
X4.4803Y-3.9961
X4.626Y-5.3676
X4.8622Y-5.3676
X4.8819Y-5.5743
X4.8819Y-5.8105
X5.2165Y-2.0984
X5.2165Y-2.4055
X5.2165Y-2.7126
T0
M30
