%TF.GenerationSoftware,KiCad,Pcbnew,7.0.8-7.0.8~ubuntu22.04.1*%
%TF.CreationDate,2023-10-18T11:11:40+03:00*%
%TF.ProjectId,supply-uv,73757070-6c79-42d7-9576-2e6b69636164,rev?*%
%TF.SameCoordinates,Original*%
%TF.FileFunction,Soldermask,Top*%
%TF.FilePolarity,Negative*%
%FSLAX46Y46*%
G04 Gerber Fmt 4.6, Leading zero omitted, Abs format (unit mm)*
G04 Created by KiCad (PCBNEW 7.0.8-7.0.8~ubuntu22.04.1) date 2023-10-18 11:11:40*
%MOMM*%
%LPD*%
G01*
G04 APERTURE LIST*
G04 Aperture macros list*
%AMRoundRect*
0 Rectangle with rounded corners*
0 $1 Rounding radius*
0 $2 $3 $4 $5 $6 $7 $8 $9 X,Y pos of 4 corners*
0 Add a 4 corners polygon primitive as box body*
4,1,4,$2,$3,$4,$5,$6,$7,$8,$9,$2,$3,0*
0 Add four circle primitives for the rounded corners*
1,1,$1+$1,$2,$3*
1,1,$1+$1,$4,$5*
1,1,$1+$1,$6,$7*
1,1,$1+$1,$8,$9*
0 Add four rect primitives between the rounded corners*
20,1,$1+$1,$2,$3,$4,$5,0*
20,1,$1+$1,$4,$5,$6,$7,0*
20,1,$1+$1,$6,$7,$8,$9,0*
20,1,$1+$1,$8,$9,$2,$3,0*%
%AMFreePoly0*
4,1,6,1.000000,0.000000,0.500000,-0.750000,-0.500000,-0.750000,-0.500000,0.750000,0.500000,0.750000,1.000000,0.000000,1.000000,0.000000,$1*%
%AMFreePoly1*
4,1,6,0.500000,-0.750000,-0.650000,-0.750000,-0.150000,0.000000,-0.650000,0.750000,0.500000,0.750000,0.500000,-0.750000,0.500000,-0.750000,$1*%
G04 Aperture macros list end*
%ADD10FreePoly0,180.000000*%
%ADD11FreePoly1,180.000000*%
%ADD12R,1.905000X2.000000*%
%ADD13O,1.905000X2.000000*%
%ADD14RoundRect,0.250000X-0.450000X0.262500X-0.450000X-0.262500X0.450000X-0.262500X0.450000X0.262500X0*%
%ADD15R,2.000000X2.000000*%
%ADD16R,2.800000X2.800000*%
%ADD17C,2.800000*%
%ADD18C,2.200000*%
%ADD19R,3.000000X3.000000*%
%ADD20C,1.600000*%
%ADD21O,1.600000X1.600000*%
%ADD22O,2.000000X2.000000*%
%ADD23R,1.800000X1.800000*%
%ADD24C,1.800000*%
%ADD25R,2.200000X2.200000*%
%ADD26O,2.200000X2.200000*%
%ADD27R,2.400000X2.400000*%
%ADD28C,2.400000*%
%ADD29R,2.000000X1.905000*%
%ADD30O,2.000000X1.905000*%
%ADD31R,1.600000X1.600000*%
%ADD32C,2.500000*%
%ADD33RoundRect,0.249999X1.300001X-1.300001X1.300001X1.300001X-1.300001X1.300001X-1.300001X-1.300001X0*%
%ADD34C,3.100000*%
%ADD35RoundRect,0.250002X-1.699998X-1.699998X1.699998X-1.699998X1.699998X1.699998X-1.699998X1.699998X0*%
%ADD36RoundRect,0.250002X1.699998X-1.699998X1.699998X1.699998X-1.699998X1.699998X-1.699998X-1.699998X0*%
%ADD37C,3.900000*%
%ADD38R,3.200000X3.200000*%
%ADD39O,3.200000X3.200000*%
%ADD40RoundRect,0.250000X0.262500X0.450000X-0.262500X0.450000X-0.262500X-0.450000X0.262500X-0.450000X0*%
%ADD41RoundRect,0.249999X-1.300001X-1.300001X1.300001X-1.300001X1.300001X1.300001X-1.300001X1.300001X0*%
%ADD42C,1.400000*%
%ADD43C,3.000000*%
G04 APERTURE END LIST*
D10*
%TO.C,JP2*%
X126775000Y-102337500D03*
D11*
X125325000Y-102337500D03*
%TD*%
D12*
%TO.C,QP2*%
X154720000Y-124600000D03*
D13*
X157260000Y-124600000D03*
X159800000Y-124600000D03*
%TD*%
D14*
%TO.C,R4*%
X104000000Y-73375000D03*
X104000000Y-75200000D03*
%TD*%
D15*
%TO.C,TP4*%
X126700000Y-96800000D03*
%TD*%
D16*
%TO.C,D1*%
X76192500Y-69480000D03*
D17*
X81272500Y-69480000D03*
X86352500Y-69480000D03*
X91432500Y-69480000D03*
%TD*%
D18*
%TO.C,H1*%
X67000000Y-72000000D03*
%TD*%
D19*
%TO.C,TP1*%
X66250000Y-100537500D03*
%TD*%
D20*
%TO.C,R8*%
X137500000Y-128610000D03*
D21*
X137500000Y-120990000D03*
%TD*%
D15*
%TO.C,DP1*%
X92540000Y-125342500D03*
D22*
X87460000Y-125342500D03*
%TD*%
D23*
%TO.C,D6*%
X133050000Y-102237500D03*
D24*
X130510000Y-102237500D03*
%TD*%
D23*
%TO.C,D5*%
X122500000Y-108175000D03*
D24*
X122500000Y-105635000D03*
%TD*%
D25*
%TO.C,D3*%
X135700000Y-114037500D03*
D26*
X135700000Y-106417500D03*
%TD*%
D27*
%TO.C,C3*%
X150787246Y-135600000D03*
D28*
X158287246Y-135600000D03*
%TD*%
D18*
%TO.C,H2*%
X119000000Y-83000000D03*
%TD*%
D29*
%TO.C,QP1*%
X81845000Y-106440000D03*
D30*
X81845000Y-103900000D03*
X81845000Y-101360000D03*
%TD*%
D31*
%TO.C,C8*%
X132000000Y-87700000D03*
D20*
X135500000Y-87700000D03*
%TD*%
%TO.C,R7*%
X131850000Y-117937500D03*
D21*
X124230000Y-117937500D03*
%TD*%
D15*
%TO.C,TP3*%
X130100000Y-113400000D03*
%TD*%
D32*
%TO.C,TR1*%
X111360000Y-111947500D03*
X88500000Y-111947500D03*
X111360000Y-106867500D03*
X88500000Y-106867500D03*
X111360000Y-101787500D03*
X88500000Y-101787500D03*
X111360000Y-96707500D03*
X88500000Y-96707500D03*
X111360000Y-91627500D03*
X88500000Y-91627500D03*
X111360000Y-86547500D03*
X88500000Y-86547500D03*
X111360000Y-81467500D03*
X88500000Y-81467500D03*
%TD*%
D33*
%TO.C,J1*%
X127000000Y-141787500D03*
D34*
X127000000Y-135787500D03*
%TD*%
D35*
%TO.C,J2*%
X116800000Y-95700000D03*
%TD*%
D17*
%TO.C,RV1*%
X128100000Y-68815000D03*
X128100000Y-76185000D03*
%TD*%
D32*
%TO.C,TR2*%
X140690000Y-85997500D03*
X161010000Y-85997500D03*
X140690000Y-91077500D03*
X161010000Y-91077500D03*
X140690000Y-96157500D03*
X161010000Y-96157500D03*
X140690000Y-101237500D03*
X161010000Y-101237500D03*
X140690000Y-106317500D03*
X161010000Y-106317500D03*
X140690000Y-111397500D03*
X161010000Y-111397500D03*
X140690000Y-116477500D03*
X161010000Y-116477500D03*
%TD*%
D18*
%TO.C,H3*%
X119000000Y-124000000D03*
%TD*%
D27*
%TO.C,C1*%
X69122220Y-85200000D03*
D28*
X76622220Y-85200000D03*
%TD*%
D20*
%TO.C,C6*%
X141200000Y-126787500D03*
X141200000Y-121787500D03*
%TD*%
D36*
%TO.C,J3*%
X135500000Y-63100000D03*
D37*
X135500000Y-55300000D03*
X135500000Y-47500000D03*
%TD*%
D33*
%TO.C,CP5*%
X68700000Y-113400000D03*
D34*
X68700000Y-107400000D03*
%TD*%
D24*
%TO.C,R3*%
X106850000Y-53950000D03*
X109550000Y-46450000D03*
%TD*%
D38*
%TO.C,D4*%
X132095000Y-96500000D03*
D39*
X135905000Y-96500000D03*
%TD*%
D28*
%TO.C,Y1*%
X127300000Y-46200000D03*
X127300000Y-61200000D03*
%TD*%
D40*
%TO.C,R16*%
X137412500Y-100900000D03*
X135587500Y-100900000D03*
%TD*%
D24*
%TO.C,R1*%
X119550000Y-53950000D03*
X122250000Y-46450000D03*
%TD*%
D41*
%TO.C,F1*%
X120500000Y-130537500D03*
D34*
X126500000Y-130537500D03*
%TD*%
D20*
%TO.C,R6*%
X124190000Y-123287500D03*
D21*
X131810000Y-123287500D03*
%TD*%
D42*
%TO.C,JP1*%
X118500000Y-118287500D03*
X118500000Y-115747500D03*
%TD*%
D43*
%TO.C,K1*%
X114300000Y-75000000D03*
D32*
X120350000Y-73050000D03*
D43*
X120350000Y-60850000D03*
X108300000Y-60800000D03*
D32*
X108350000Y-73050000D03*
%TD*%
D25*
%TO.C,D2*%
X146700000Y-128410000D03*
D26*
X146700000Y-120790000D03*
%TD*%
D24*
%TO.C,R2*%
X115950000Y-46450000D03*
X113250000Y-53950000D03*
%TD*%
D31*
%TO.C,C10*%
X126700000Y-90800000D03*
D20*
X123200000Y-90800000D03*
%TD*%
D31*
%TO.C,U4*%
X154925000Y-89000000D03*
D21*
X157465000Y-89000000D03*
X157465000Y-96620000D03*
X154925000Y-96620000D03*
%TD*%
M02*
