%TF.GenerationSoftware,KiCad,Pcbnew,7.0.8-7.0.8~ubuntu22.04.1*%
%TF.CreationDate,2023-10-30T15:07:27+03:00*%
%TF.ProjectId,supply-uv,73757070-6c79-42d7-9576-2e6b69636164,rev?*%
%TF.SameCoordinates,Original*%
%TF.FileFunction,Legend,Bot*%
%TF.FilePolarity,Positive*%
%FSLAX46Y46*%
G04 Gerber Fmt 4.6, Leading zero omitted, Abs format (unit mm)*
G04 Created by KiCad (PCBNEW 7.0.8-7.0.8~ubuntu22.04.1) date 2023-10-30 15:07:27*
%MOMM*%
%LPD*%
G01*
G04 APERTURE LIST*
%ADD10C,0.150000*%
%ADD11C,0.300000*%
%ADD12C,0.120000*%
G04 APERTURE END LIST*
D10*
X142300000Y-88000000D02*
X143950000Y-88000000D01*
X144550000Y-88000000D02*
X144550000Y-88000000D01*
X145150000Y-88000000D02*
X145400000Y-88000000D01*
X145400000Y-88000000D02*
X145400000Y-89650000D01*
X145400000Y-90250000D02*
X145400000Y-90250000D01*
X145400000Y-90850000D02*
X145400000Y-92500000D01*
X145400000Y-93100000D02*
X145400000Y-93100000D01*
X145400000Y-93600000D02*
X143750000Y-93600000D01*
X143150000Y-93600000D02*
X143150000Y-93600000D01*
X142550000Y-93600000D02*
X142300000Y-93600000D01*
X142300000Y-93600000D02*
X142300000Y-91950000D01*
X142300000Y-91350000D02*
X142300000Y-91350000D01*
X142300000Y-90750000D02*
X142300000Y-89100000D01*
X142300000Y-88500000D02*
X142300000Y-88500000D01*
X104600000Y-90887500D02*
X106250000Y-90887500D01*
X106850000Y-90887500D02*
X106850000Y-90887500D01*
X107450000Y-90887500D02*
X109000000Y-90887500D01*
X109000000Y-90887500D02*
X109000000Y-92537500D01*
X109000000Y-93137500D02*
X109000000Y-93137500D01*
X109000000Y-93737500D02*
X109000000Y-95387500D01*
X109000000Y-95987500D02*
X109000000Y-95987500D01*
X109000000Y-96287500D02*
X107350000Y-96287500D01*
X106750000Y-96287500D02*
X106750000Y-96287500D01*
X106150000Y-96287500D02*
X104600000Y-96287500D01*
X104600000Y-96287500D02*
X104600000Y-94637500D01*
X104600000Y-94037500D02*
X104600000Y-94037500D01*
X104600000Y-93437500D02*
X104600000Y-91787500D01*
X104600000Y-91187500D02*
X104600000Y-91187500D01*
D11*
X88116917Y-47029400D02*
X87902632Y-47100828D01*
X87902632Y-47100828D02*
X87545489Y-47100828D01*
X87545489Y-47100828D02*
X87402632Y-47029400D01*
X87402632Y-47029400D02*
X87331203Y-46957971D01*
X87331203Y-46957971D02*
X87259774Y-46815114D01*
X87259774Y-46815114D02*
X87259774Y-46672257D01*
X87259774Y-46672257D02*
X87331203Y-46529400D01*
X87331203Y-46529400D02*
X87402632Y-46457971D01*
X87402632Y-46457971D02*
X87545489Y-46386542D01*
X87545489Y-46386542D02*
X87831203Y-46315114D01*
X87831203Y-46315114D02*
X87974060Y-46243685D01*
X87974060Y-46243685D02*
X88045489Y-46172257D01*
X88045489Y-46172257D02*
X88116917Y-46029400D01*
X88116917Y-46029400D02*
X88116917Y-45886542D01*
X88116917Y-45886542D02*
X88045489Y-45743685D01*
X88045489Y-45743685D02*
X87974060Y-45672257D01*
X87974060Y-45672257D02*
X87831203Y-45600828D01*
X87831203Y-45600828D02*
X87474060Y-45600828D01*
X87474060Y-45600828D02*
X87259774Y-45672257D01*
X85974061Y-46100828D02*
X85974061Y-47100828D01*
X86616918Y-46100828D02*
X86616918Y-46886542D01*
X86616918Y-46886542D02*
X86545489Y-47029400D01*
X86545489Y-47029400D02*
X86402632Y-47100828D01*
X86402632Y-47100828D02*
X86188346Y-47100828D01*
X86188346Y-47100828D02*
X86045489Y-47029400D01*
X86045489Y-47029400D02*
X85974061Y-46957971D01*
X85259775Y-46100828D02*
X85259775Y-47600828D01*
X85259775Y-46172257D02*
X85116918Y-46100828D01*
X85116918Y-46100828D02*
X84831203Y-46100828D01*
X84831203Y-46100828D02*
X84688346Y-46172257D01*
X84688346Y-46172257D02*
X84616918Y-46243685D01*
X84616918Y-46243685D02*
X84545489Y-46386542D01*
X84545489Y-46386542D02*
X84545489Y-46815114D01*
X84545489Y-46815114D02*
X84616918Y-46957971D01*
X84616918Y-46957971D02*
X84688346Y-47029400D01*
X84688346Y-47029400D02*
X84831203Y-47100828D01*
X84831203Y-47100828D02*
X85116918Y-47100828D01*
X85116918Y-47100828D02*
X85259775Y-47029400D01*
X83902632Y-46100828D02*
X83902632Y-47600828D01*
X83902632Y-46172257D02*
X83759775Y-46100828D01*
X83759775Y-46100828D02*
X83474060Y-46100828D01*
X83474060Y-46100828D02*
X83331203Y-46172257D01*
X83331203Y-46172257D02*
X83259775Y-46243685D01*
X83259775Y-46243685D02*
X83188346Y-46386542D01*
X83188346Y-46386542D02*
X83188346Y-46815114D01*
X83188346Y-46815114D02*
X83259775Y-46957971D01*
X83259775Y-46957971D02*
X83331203Y-47029400D01*
X83331203Y-47029400D02*
X83474060Y-47100828D01*
X83474060Y-47100828D02*
X83759775Y-47100828D01*
X83759775Y-47100828D02*
X83902632Y-47029400D01*
X82331203Y-47100828D02*
X82474060Y-47029400D01*
X82474060Y-47029400D02*
X82545489Y-46886542D01*
X82545489Y-46886542D02*
X82545489Y-45600828D01*
X81902632Y-46100828D02*
X81545489Y-47100828D01*
X81188346Y-46100828D02*
X81545489Y-47100828D01*
X81545489Y-47100828D02*
X81688346Y-47457971D01*
X81688346Y-47457971D02*
X81759775Y-47529400D01*
X81759775Y-47529400D02*
X81902632Y-47600828D01*
X79474061Y-47100828D02*
X79474061Y-45600828D01*
X79474061Y-46172257D02*
X79331204Y-46100828D01*
X79331204Y-46100828D02*
X79045489Y-46100828D01*
X79045489Y-46100828D02*
X78902632Y-46172257D01*
X78902632Y-46172257D02*
X78831204Y-46243685D01*
X78831204Y-46243685D02*
X78759775Y-46386542D01*
X78759775Y-46386542D02*
X78759775Y-46815114D01*
X78759775Y-46815114D02*
X78831204Y-46957971D01*
X78831204Y-46957971D02*
X78902632Y-47029400D01*
X78902632Y-47029400D02*
X79045489Y-47100828D01*
X79045489Y-47100828D02*
X79331204Y-47100828D01*
X79331204Y-47100828D02*
X79474061Y-47029400D01*
X77902632Y-47100828D02*
X78045489Y-47029400D01*
X78045489Y-47029400D02*
X78116918Y-46957971D01*
X78116918Y-46957971D02*
X78188346Y-46815114D01*
X78188346Y-46815114D02*
X78188346Y-46386542D01*
X78188346Y-46386542D02*
X78116918Y-46243685D01*
X78116918Y-46243685D02*
X78045489Y-46172257D01*
X78045489Y-46172257D02*
X77902632Y-46100828D01*
X77902632Y-46100828D02*
X77688346Y-46100828D01*
X77688346Y-46100828D02*
X77545489Y-46172257D01*
X77545489Y-46172257D02*
X77474061Y-46243685D01*
X77474061Y-46243685D02*
X77402632Y-46386542D01*
X77402632Y-46386542D02*
X77402632Y-46815114D01*
X77402632Y-46815114D02*
X77474061Y-46957971D01*
X77474061Y-46957971D02*
X77545489Y-47029400D01*
X77545489Y-47029400D02*
X77688346Y-47100828D01*
X77688346Y-47100828D02*
X77902632Y-47100828D01*
X76116918Y-47100828D02*
X76116918Y-46315114D01*
X76116918Y-46315114D02*
X76188346Y-46172257D01*
X76188346Y-46172257D02*
X76331203Y-46100828D01*
X76331203Y-46100828D02*
X76616918Y-46100828D01*
X76616918Y-46100828D02*
X76759775Y-46172257D01*
X76116918Y-47029400D02*
X76259775Y-47100828D01*
X76259775Y-47100828D02*
X76616918Y-47100828D01*
X76616918Y-47100828D02*
X76759775Y-47029400D01*
X76759775Y-47029400D02*
X76831203Y-46886542D01*
X76831203Y-46886542D02*
X76831203Y-46743685D01*
X76831203Y-46743685D02*
X76759775Y-46600828D01*
X76759775Y-46600828D02*
X76616918Y-46529400D01*
X76616918Y-46529400D02*
X76259775Y-46529400D01*
X76259775Y-46529400D02*
X76116918Y-46457971D01*
X75402632Y-47100828D02*
X75402632Y-46100828D01*
X75402632Y-46386542D02*
X75331203Y-46243685D01*
X75331203Y-46243685D02*
X75259775Y-46172257D01*
X75259775Y-46172257D02*
X75116917Y-46100828D01*
X75116917Y-46100828D02*
X74974060Y-46100828D01*
X73831204Y-47100828D02*
X73831204Y-45600828D01*
X73831204Y-47029400D02*
X73974061Y-47100828D01*
X73974061Y-47100828D02*
X74259775Y-47100828D01*
X74259775Y-47100828D02*
X74402632Y-47029400D01*
X74402632Y-47029400D02*
X74474061Y-46957971D01*
X74474061Y-46957971D02*
X74545489Y-46815114D01*
X74545489Y-46815114D02*
X74545489Y-46386542D01*
X74545489Y-46386542D02*
X74474061Y-46243685D01*
X74474061Y-46243685D02*
X74402632Y-46172257D01*
X74402632Y-46172257D02*
X74259775Y-46100828D01*
X74259775Y-46100828D02*
X73974061Y-46100828D01*
X73974061Y-46100828D02*
X73831204Y-46172257D01*
X73188346Y-46100828D02*
X72116918Y-46100828D01*
X72759775Y-45457971D02*
X73188346Y-47386542D01*
X72259775Y-46743685D02*
X73331203Y-46743685D01*
X72688346Y-47386542D02*
X72259775Y-45457971D01*
X70831203Y-47100828D02*
X71688346Y-47100828D01*
X71259775Y-47100828D02*
X71259775Y-45600828D01*
X71259775Y-45600828D02*
X71402632Y-45815114D01*
X71402632Y-45815114D02*
X71545489Y-45957971D01*
X71545489Y-45957971D02*
X71688346Y-46029400D01*
X69188347Y-46100828D02*
X68831204Y-47100828D01*
X68831204Y-47100828D02*
X68474061Y-46100828D01*
X67116918Y-47100828D02*
X67974061Y-47100828D01*
X67545490Y-47100828D02*
X67545490Y-45600828D01*
X67545490Y-45600828D02*
X67688347Y-45815114D01*
X67688347Y-45815114D02*
X67831204Y-45957971D01*
X67831204Y-45957971D02*
X67974061Y-46029400D01*
X66474062Y-46957971D02*
X66402633Y-47029400D01*
X66402633Y-47029400D02*
X66474062Y-47100828D01*
X66474062Y-47100828D02*
X66545490Y-47029400D01*
X66545490Y-47029400D02*
X66474062Y-46957971D01*
X66474062Y-46957971D02*
X66474062Y-47100828D01*
X64974061Y-47100828D02*
X65831204Y-47100828D01*
X65402633Y-47100828D02*
X65402633Y-45600828D01*
X65402633Y-45600828D02*
X65545490Y-45815114D01*
X65545490Y-45815114D02*
X65688347Y-45957971D01*
X65688347Y-45957971D02*
X65831204Y-46029400D01*
X66445489Y-113329400D02*
X65302632Y-113329400D01*
X65874060Y-113900828D02*
X65874060Y-112757971D01*
X124545489Y-142129400D02*
X123402632Y-142129400D01*
X124545489Y-136029400D02*
X123402632Y-136029400D01*
X123974060Y-136600828D02*
X123974060Y-135457971D01*
X66445489Y-107429400D02*
X65302632Y-107429400D01*
D10*
X68919047Y-98454819D02*
X68919047Y-97454819D01*
X68919047Y-97931009D02*
X68347619Y-97931009D01*
X68347619Y-98454819D02*
X68347619Y-97454819D01*
X68014285Y-97454819D02*
X67680952Y-98454819D01*
X67680952Y-98454819D02*
X67347619Y-97454819D01*
X65728571Y-97502438D02*
X65823809Y-97454819D01*
X65823809Y-97454819D02*
X65966666Y-97454819D01*
X65966666Y-97454819D02*
X66109523Y-97502438D01*
X66109523Y-97502438D02*
X66204761Y-97597676D01*
X66204761Y-97597676D02*
X66252380Y-97692914D01*
X66252380Y-97692914D02*
X66299999Y-97883390D01*
X66299999Y-97883390D02*
X66299999Y-98026247D01*
X66299999Y-98026247D02*
X66252380Y-98216723D01*
X66252380Y-98216723D02*
X66204761Y-98311961D01*
X66204761Y-98311961D02*
X66109523Y-98407200D01*
X66109523Y-98407200D02*
X65966666Y-98454819D01*
X65966666Y-98454819D02*
X65871428Y-98454819D01*
X65871428Y-98454819D02*
X65728571Y-98407200D01*
X65728571Y-98407200D02*
X65680952Y-98359580D01*
X65680952Y-98359580D02*
X65680952Y-98026247D01*
X65680952Y-98026247D02*
X65871428Y-98026247D01*
X65252380Y-98454819D02*
X65252380Y-97454819D01*
X65252380Y-97454819D02*
X64680952Y-98454819D01*
X64680952Y-98454819D02*
X64680952Y-97454819D01*
X64204761Y-98454819D02*
X64204761Y-97454819D01*
X64204761Y-97454819D02*
X63966666Y-97454819D01*
X63966666Y-97454819D02*
X63823809Y-97502438D01*
X63823809Y-97502438D02*
X63728571Y-97597676D01*
X63728571Y-97597676D02*
X63680952Y-97692914D01*
X63680952Y-97692914D02*
X63633333Y-97883390D01*
X63633333Y-97883390D02*
X63633333Y-98026247D01*
X63633333Y-98026247D02*
X63680952Y-98216723D01*
X63680952Y-98216723D02*
X63728571Y-98311961D01*
X63728571Y-98311961D02*
X63823809Y-98407200D01*
X63823809Y-98407200D02*
X63966666Y-98454819D01*
X63966666Y-98454819D02*
X64204761Y-98454819D01*
X95416666Y-100797080D02*
X95464285Y-100844700D01*
X95464285Y-100844700D02*
X95607142Y-100892319D01*
X95607142Y-100892319D02*
X95702380Y-100892319D01*
X95702380Y-100892319D02*
X95845237Y-100844700D01*
X95845237Y-100844700D02*
X95940475Y-100749461D01*
X95940475Y-100749461D02*
X95988094Y-100654223D01*
X95988094Y-100654223D02*
X96035713Y-100463747D01*
X96035713Y-100463747D02*
X96035713Y-100320890D01*
X96035713Y-100320890D02*
X95988094Y-100130414D01*
X95988094Y-100130414D02*
X95940475Y-100035176D01*
X95940475Y-100035176D02*
X95845237Y-99939938D01*
X95845237Y-99939938D02*
X95702380Y-99892319D01*
X95702380Y-99892319D02*
X95607142Y-99892319D01*
X95607142Y-99892319D02*
X95464285Y-99939938D01*
X95464285Y-99939938D02*
X95416666Y-99987557D01*
X94988094Y-100892319D02*
X94988094Y-99892319D01*
X94988094Y-99892319D02*
X94607142Y-99892319D01*
X94607142Y-99892319D02*
X94511904Y-99939938D01*
X94511904Y-99939938D02*
X94464285Y-99987557D01*
X94464285Y-99987557D02*
X94416666Y-100082795D01*
X94416666Y-100082795D02*
X94416666Y-100225652D01*
X94416666Y-100225652D02*
X94464285Y-100320890D01*
X94464285Y-100320890D02*
X94511904Y-100368509D01*
X94511904Y-100368509D02*
X94607142Y-100416128D01*
X94607142Y-100416128D02*
X94988094Y-100416128D01*
X93559523Y-100225652D02*
X93559523Y-100892319D01*
X93797618Y-99844700D02*
X94035713Y-100558985D01*
X94035713Y-100558985D02*
X93416666Y-100558985D01*
X87692857Y-133592319D02*
X88026190Y-133116128D01*
X88264285Y-133592319D02*
X88264285Y-132592319D01*
X88264285Y-132592319D02*
X87883333Y-132592319D01*
X87883333Y-132592319D02*
X87788095Y-132639938D01*
X87788095Y-132639938D02*
X87740476Y-132687557D01*
X87740476Y-132687557D02*
X87692857Y-132782795D01*
X87692857Y-132782795D02*
X87692857Y-132925652D01*
X87692857Y-132925652D02*
X87740476Y-133020890D01*
X87740476Y-133020890D02*
X87788095Y-133068509D01*
X87788095Y-133068509D02*
X87883333Y-133116128D01*
X87883333Y-133116128D02*
X88264285Y-133116128D01*
X87264285Y-133592319D02*
X87264285Y-132592319D01*
X87264285Y-132592319D02*
X86883333Y-132592319D01*
X86883333Y-132592319D02*
X86788095Y-132639938D01*
X86788095Y-132639938D02*
X86740476Y-132687557D01*
X86740476Y-132687557D02*
X86692857Y-132782795D01*
X86692857Y-132782795D02*
X86692857Y-132925652D01*
X86692857Y-132925652D02*
X86740476Y-133020890D01*
X86740476Y-133020890D02*
X86788095Y-133068509D01*
X86788095Y-133068509D02*
X86883333Y-133116128D01*
X86883333Y-133116128D02*
X87264285Y-133116128D01*
X85740476Y-133592319D02*
X86311904Y-133592319D01*
X86026190Y-133592319D02*
X86026190Y-132592319D01*
X86026190Y-132592319D02*
X86121428Y-132735176D01*
X86121428Y-132735176D02*
X86216666Y-132830414D01*
X86216666Y-132830414D02*
X86311904Y-132878033D01*
X84883333Y-132925652D02*
X84883333Y-133592319D01*
X85121428Y-132544700D02*
X85359523Y-133258985D01*
X85359523Y-133258985D02*
X84740476Y-133258985D01*
X121192857Y-98942319D02*
X121526190Y-98466128D01*
X121764285Y-98942319D02*
X121764285Y-97942319D01*
X121764285Y-97942319D02*
X121383333Y-97942319D01*
X121383333Y-97942319D02*
X121288095Y-97989938D01*
X121288095Y-97989938D02*
X121240476Y-98037557D01*
X121240476Y-98037557D02*
X121192857Y-98132795D01*
X121192857Y-98132795D02*
X121192857Y-98275652D01*
X121192857Y-98275652D02*
X121240476Y-98370890D01*
X121240476Y-98370890D02*
X121288095Y-98418509D01*
X121288095Y-98418509D02*
X121383333Y-98466128D01*
X121383333Y-98466128D02*
X121764285Y-98466128D01*
X120240476Y-98942319D02*
X120811904Y-98942319D01*
X120526190Y-98942319D02*
X120526190Y-97942319D01*
X120526190Y-97942319D02*
X120621428Y-98085176D01*
X120621428Y-98085176D02*
X120716666Y-98180414D01*
X120716666Y-98180414D02*
X120811904Y-98228033D01*
X119669047Y-98370890D02*
X119764285Y-98323271D01*
X119764285Y-98323271D02*
X119811904Y-98275652D01*
X119811904Y-98275652D02*
X119859523Y-98180414D01*
X119859523Y-98180414D02*
X119859523Y-98132795D01*
X119859523Y-98132795D02*
X119811904Y-98037557D01*
X119811904Y-98037557D02*
X119764285Y-97989938D01*
X119764285Y-97989938D02*
X119669047Y-97942319D01*
X119669047Y-97942319D02*
X119478571Y-97942319D01*
X119478571Y-97942319D02*
X119383333Y-97989938D01*
X119383333Y-97989938D02*
X119335714Y-98037557D01*
X119335714Y-98037557D02*
X119288095Y-98132795D01*
X119288095Y-98132795D02*
X119288095Y-98180414D01*
X119288095Y-98180414D02*
X119335714Y-98275652D01*
X119335714Y-98275652D02*
X119383333Y-98323271D01*
X119383333Y-98323271D02*
X119478571Y-98370890D01*
X119478571Y-98370890D02*
X119669047Y-98370890D01*
X119669047Y-98370890D02*
X119764285Y-98418509D01*
X119764285Y-98418509D02*
X119811904Y-98466128D01*
X119811904Y-98466128D02*
X119859523Y-98561366D01*
X119859523Y-98561366D02*
X119859523Y-98751842D01*
X119859523Y-98751842D02*
X119811904Y-98847080D01*
X119811904Y-98847080D02*
X119764285Y-98894700D01*
X119764285Y-98894700D02*
X119669047Y-98942319D01*
X119669047Y-98942319D02*
X119478571Y-98942319D01*
X119478571Y-98942319D02*
X119383333Y-98894700D01*
X119383333Y-98894700D02*
X119335714Y-98847080D01*
X119335714Y-98847080D02*
X119288095Y-98751842D01*
X119288095Y-98751842D02*
X119288095Y-98561366D01*
X119288095Y-98561366D02*
X119335714Y-98466128D01*
X119335714Y-98466128D02*
X119383333Y-98418509D01*
X119383333Y-98418509D02*
X119478571Y-98370890D01*
X106892857Y-99292319D02*
X107226190Y-98816128D01*
X107464285Y-99292319D02*
X107464285Y-98292319D01*
X107464285Y-98292319D02*
X107083333Y-98292319D01*
X107083333Y-98292319D02*
X106988095Y-98339938D01*
X106988095Y-98339938D02*
X106940476Y-98387557D01*
X106940476Y-98387557D02*
X106892857Y-98482795D01*
X106892857Y-98482795D02*
X106892857Y-98625652D01*
X106892857Y-98625652D02*
X106940476Y-98720890D01*
X106940476Y-98720890D02*
X106988095Y-98768509D01*
X106988095Y-98768509D02*
X107083333Y-98816128D01*
X107083333Y-98816128D02*
X107464285Y-98816128D01*
X106464285Y-99292319D02*
X106464285Y-98292319D01*
X106464285Y-98292319D02*
X106083333Y-98292319D01*
X106083333Y-98292319D02*
X105988095Y-98339938D01*
X105988095Y-98339938D02*
X105940476Y-98387557D01*
X105940476Y-98387557D02*
X105892857Y-98482795D01*
X105892857Y-98482795D02*
X105892857Y-98625652D01*
X105892857Y-98625652D02*
X105940476Y-98720890D01*
X105940476Y-98720890D02*
X105988095Y-98768509D01*
X105988095Y-98768509D02*
X106083333Y-98816128D01*
X106083333Y-98816128D02*
X106464285Y-98816128D01*
X104940476Y-99292319D02*
X105511904Y-99292319D01*
X105226190Y-99292319D02*
X105226190Y-98292319D01*
X105226190Y-98292319D02*
X105321428Y-98435176D01*
X105321428Y-98435176D02*
X105416666Y-98530414D01*
X105416666Y-98530414D02*
X105511904Y-98578033D01*
X103988095Y-99292319D02*
X104559523Y-99292319D01*
X104273809Y-99292319D02*
X104273809Y-98292319D01*
X104273809Y-98292319D02*
X104369047Y-98435176D01*
X104369047Y-98435176D02*
X104464285Y-98530414D01*
X104464285Y-98530414D02*
X104559523Y-98578033D01*
X100766666Y-87354819D02*
X101099999Y-86878628D01*
X101338094Y-87354819D02*
X101338094Y-86354819D01*
X101338094Y-86354819D02*
X100957142Y-86354819D01*
X100957142Y-86354819D02*
X100861904Y-86402438D01*
X100861904Y-86402438D02*
X100814285Y-86450057D01*
X100814285Y-86450057D02*
X100766666Y-86545295D01*
X100766666Y-86545295D02*
X100766666Y-86688152D01*
X100766666Y-86688152D02*
X100814285Y-86783390D01*
X100814285Y-86783390D02*
X100861904Y-86831009D01*
X100861904Y-86831009D02*
X100957142Y-86878628D01*
X100957142Y-86878628D02*
X101338094Y-86878628D01*
X100338094Y-87354819D02*
X100338094Y-86354819D01*
X100338094Y-86354819D02*
X99957142Y-86354819D01*
X99957142Y-86354819D02*
X99861904Y-86402438D01*
X99861904Y-86402438D02*
X99814285Y-86450057D01*
X99814285Y-86450057D02*
X99766666Y-86545295D01*
X99766666Y-86545295D02*
X99766666Y-86688152D01*
X99766666Y-86688152D02*
X99814285Y-86783390D01*
X99814285Y-86783390D02*
X99861904Y-86831009D01*
X99861904Y-86831009D02*
X99957142Y-86878628D01*
X99957142Y-86878628D02*
X100338094Y-86878628D01*
X98909523Y-86688152D02*
X98909523Y-87354819D01*
X99147618Y-86307200D02*
X99385713Y-87021485D01*
X99385713Y-87021485D02*
X98766666Y-87021485D01*
X152961904Y-91954819D02*
X152961904Y-92764342D01*
X152961904Y-92764342D02*
X152914285Y-92859580D01*
X152914285Y-92859580D02*
X152866666Y-92907200D01*
X152866666Y-92907200D02*
X152771428Y-92954819D01*
X152771428Y-92954819D02*
X152580952Y-92954819D01*
X152580952Y-92954819D02*
X152485714Y-92907200D01*
X152485714Y-92907200D02*
X152438095Y-92859580D01*
X152438095Y-92859580D02*
X152390476Y-92764342D01*
X152390476Y-92764342D02*
X152390476Y-91954819D01*
X151485714Y-92288152D02*
X151485714Y-92954819D01*
X151723809Y-91907200D02*
X151961904Y-92621485D01*
X151961904Y-92621485D02*
X151342857Y-92621485D01*
X155866666Y-102054819D02*
X156199999Y-101578628D01*
X156438094Y-102054819D02*
X156438094Y-101054819D01*
X156438094Y-101054819D02*
X156057142Y-101054819D01*
X156057142Y-101054819D02*
X155961904Y-101102438D01*
X155961904Y-101102438D02*
X155914285Y-101150057D01*
X155914285Y-101150057D02*
X155866666Y-101245295D01*
X155866666Y-101245295D02*
X155866666Y-101388152D01*
X155866666Y-101388152D02*
X155914285Y-101483390D01*
X155914285Y-101483390D02*
X155961904Y-101531009D01*
X155961904Y-101531009D02*
X156057142Y-101578628D01*
X156057142Y-101578628D02*
X156438094Y-101578628D01*
X154961904Y-101054819D02*
X155438094Y-101054819D01*
X155438094Y-101054819D02*
X155485713Y-101531009D01*
X155485713Y-101531009D02*
X155438094Y-101483390D01*
X155438094Y-101483390D02*
X155342856Y-101435771D01*
X155342856Y-101435771D02*
X155104761Y-101435771D01*
X155104761Y-101435771D02*
X155009523Y-101483390D01*
X155009523Y-101483390D02*
X154961904Y-101531009D01*
X154961904Y-101531009D02*
X154914285Y-101626247D01*
X154914285Y-101626247D02*
X154914285Y-101864342D01*
X154914285Y-101864342D02*
X154961904Y-101959580D01*
X154961904Y-101959580D02*
X155009523Y-102007200D01*
X155009523Y-102007200D02*
X155104761Y-102054819D01*
X155104761Y-102054819D02*
X155342856Y-102054819D01*
X155342856Y-102054819D02*
X155438094Y-102007200D01*
X155438094Y-102007200D02*
X155485713Y-101959580D01*
X79842857Y-88254819D02*
X80176190Y-87778628D01*
X80414285Y-88254819D02*
X80414285Y-87254819D01*
X80414285Y-87254819D02*
X80033333Y-87254819D01*
X80033333Y-87254819D02*
X79938095Y-87302438D01*
X79938095Y-87302438D02*
X79890476Y-87350057D01*
X79890476Y-87350057D02*
X79842857Y-87445295D01*
X79842857Y-87445295D02*
X79842857Y-87588152D01*
X79842857Y-87588152D02*
X79890476Y-87683390D01*
X79890476Y-87683390D02*
X79938095Y-87731009D01*
X79938095Y-87731009D02*
X80033333Y-87778628D01*
X80033333Y-87778628D02*
X80414285Y-87778628D01*
X79414285Y-88254819D02*
X79414285Y-87254819D01*
X79414285Y-87254819D02*
X79033333Y-87254819D01*
X79033333Y-87254819D02*
X78938095Y-87302438D01*
X78938095Y-87302438D02*
X78890476Y-87350057D01*
X78890476Y-87350057D02*
X78842857Y-87445295D01*
X78842857Y-87445295D02*
X78842857Y-87588152D01*
X78842857Y-87588152D02*
X78890476Y-87683390D01*
X78890476Y-87683390D02*
X78938095Y-87731009D01*
X78938095Y-87731009D02*
X79033333Y-87778628D01*
X79033333Y-87778628D02*
X79414285Y-87778628D01*
X77890476Y-88254819D02*
X78461904Y-88254819D01*
X78176190Y-88254819D02*
X78176190Y-87254819D01*
X78176190Y-87254819D02*
X78271428Y-87397676D01*
X78271428Y-87397676D02*
X78366666Y-87492914D01*
X78366666Y-87492914D02*
X78461904Y-87540533D01*
X77557142Y-87254819D02*
X76890476Y-87254819D01*
X76890476Y-87254819D02*
X77319047Y-88254819D01*
X118892857Y-110192319D02*
X119226190Y-109716128D01*
X119464285Y-110192319D02*
X119464285Y-109192319D01*
X119464285Y-109192319D02*
X119083333Y-109192319D01*
X119083333Y-109192319D02*
X118988095Y-109239938D01*
X118988095Y-109239938D02*
X118940476Y-109287557D01*
X118940476Y-109287557D02*
X118892857Y-109382795D01*
X118892857Y-109382795D02*
X118892857Y-109525652D01*
X118892857Y-109525652D02*
X118940476Y-109620890D01*
X118940476Y-109620890D02*
X118988095Y-109668509D01*
X118988095Y-109668509D02*
X119083333Y-109716128D01*
X119083333Y-109716128D02*
X119464285Y-109716128D01*
X117940476Y-110192319D02*
X118511904Y-110192319D01*
X118226190Y-110192319D02*
X118226190Y-109192319D01*
X118226190Y-109192319D02*
X118321428Y-109335176D01*
X118321428Y-109335176D02*
X118416666Y-109430414D01*
X118416666Y-109430414D02*
X118511904Y-109478033D01*
X117607142Y-109192319D02*
X116940476Y-109192319D01*
X116940476Y-109192319D02*
X117369047Y-110192319D01*
X144542857Y-93154819D02*
X144876190Y-92678628D01*
X145114285Y-93154819D02*
X145114285Y-92154819D01*
X145114285Y-92154819D02*
X144733333Y-92154819D01*
X144733333Y-92154819D02*
X144638095Y-92202438D01*
X144638095Y-92202438D02*
X144590476Y-92250057D01*
X144590476Y-92250057D02*
X144542857Y-92345295D01*
X144542857Y-92345295D02*
X144542857Y-92488152D01*
X144542857Y-92488152D02*
X144590476Y-92583390D01*
X144590476Y-92583390D02*
X144638095Y-92631009D01*
X144638095Y-92631009D02*
X144733333Y-92678628D01*
X144733333Y-92678628D02*
X145114285Y-92678628D01*
X143590476Y-93154819D02*
X144161904Y-93154819D01*
X143876190Y-93154819D02*
X143876190Y-92154819D01*
X143876190Y-92154819D02*
X143971428Y-92297676D01*
X143971428Y-92297676D02*
X144066666Y-92392914D01*
X144066666Y-92392914D02*
X144161904Y-92440533D01*
X142685714Y-92154819D02*
X143161904Y-92154819D01*
X143161904Y-92154819D02*
X143209523Y-92631009D01*
X143209523Y-92631009D02*
X143161904Y-92583390D01*
X143161904Y-92583390D02*
X143066666Y-92535771D01*
X143066666Y-92535771D02*
X142828571Y-92535771D01*
X142828571Y-92535771D02*
X142733333Y-92583390D01*
X142733333Y-92583390D02*
X142685714Y-92631009D01*
X142685714Y-92631009D02*
X142638095Y-92726247D01*
X142638095Y-92726247D02*
X142638095Y-92964342D01*
X142638095Y-92964342D02*
X142685714Y-93059580D01*
X142685714Y-93059580D02*
X142733333Y-93107200D01*
X142733333Y-93107200D02*
X142828571Y-93154819D01*
X142828571Y-93154819D02*
X143066666Y-93154819D01*
X143066666Y-93154819D02*
X143161904Y-93107200D01*
X143161904Y-93107200D02*
X143209523Y-93059580D01*
X152966666Y-105954819D02*
X153299999Y-105478628D01*
X153538094Y-105954819D02*
X153538094Y-104954819D01*
X153538094Y-104954819D02*
X153157142Y-104954819D01*
X153157142Y-104954819D02*
X153061904Y-105002438D01*
X153061904Y-105002438D02*
X153014285Y-105050057D01*
X153014285Y-105050057D02*
X152966666Y-105145295D01*
X152966666Y-105145295D02*
X152966666Y-105288152D01*
X152966666Y-105288152D02*
X153014285Y-105383390D01*
X153014285Y-105383390D02*
X153061904Y-105431009D01*
X153061904Y-105431009D02*
X153157142Y-105478628D01*
X153157142Y-105478628D02*
X153538094Y-105478628D01*
X152490475Y-105954819D02*
X152299999Y-105954819D01*
X152299999Y-105954819D02*
X152204761Y-105907200D01*
X152204761Y-105907200D02*
X152157142Y-105859580D01*
X152157142Y-105859580D02*
X152061904Y-105716723D01*
X152061904Y-105716723D02*
X152014285Y-105526247D01*
X152014285Y-105526247D02*
X152014285Y-105145295D01*
X152014285Y-105145295D02*
X152061904Y-105050057D01*
X152061904Y-105050057D02*
X152109523Y-105002438D01*
X152109523Y-105002438D02*
X152204761Y-104954819D01*
X152204761Y-104954819D02*
X152395237Y-104954819D01*
X152395237Y-104954819D02*
X152490475Y-105002438D01*
X152490475Y-105002438D02*
X152538094Y-105050057D01*
X152538094Y-105050057D02*
X152585713Y-105145295D01*
X152585713Y-105145295D02*
X152585713Y-105383390D01*
X152585713Y-105383390D02*
X152538094Y-105478628D01*
X152538094Y-105478628D02*
X152490475Y-105526247D01*
X152490475Y-105526247D02*
X152395237Y-105573866D01*
X152395237Y-105573866D02*
X152204761Y-105573866D01*
X152204761Y-105573866D02*
X152109523Y-105526247D01*
X152109523Y-105526247D02*
X152061904Y-105478628D01*
X152061904Y-105478628D02*
X152014285Y-105383390D01*
X150642857Y-94854819D02*
X150976190Y-94378628D01*
X151214285Y-94854819D02*
X151214285Y-93854819D01*
X151214285Y-93854819D02*
X150833333Y-93854819D01*
X150833333Y-93854819D02*
X150738095Y-93902438D01*
X150738095Y-93902438D02*
X150690476Y-93950057D01*
X150690476Y-93950057D02*
X150642857Y-94045295D01*
X150642857Y-94045295D02*
X150642857Y-94188152D01*
X150642857Y-94188152D02*
X150690476Y-94283390D01*
X150690476Y-94283390D02*
X150738095Y-94331009D01*
X150738095Y-94331009D02*
X150833333Y-94378628D01*
X150833333Y-94378628D02*
X151214285Y-94378628D01*
X149690476Y-94854819D02*
X150261904Y-94854819D01*
X149976190Y-94854819D02*
X149976190Y-93854819D01*
X149976190Y-93854819D02*
X150071428Y-93997676D01*
X150071428Y-93997676D02*
X150166666Y-94092914D01*
X150166666Y-94092914D02*
X150261904Y-94140533D01*
X148833333Y-94188152D02*
X148833333Y-94854819D01*
X149071428Y-93807200D02*
X149309523Y-94521485D01*
X149309523Y-94521485D02*
X148690476Y-94521485D01*
X103316666Y-90292319D02*
X103649999Y-89816128D01*
X103888094Y-90292319D02*
X103888094Y-89292319D01*
X103888094Y-89292319D02*
X103507142Y-89292319D01*
X103507142Y-89292319D02*
X103411904Y-89339938D01*
X103411904Y-89339938D02*
X103364285Y-89387557D01*
X103364285Y-89387557D02*
X103316666Y-89482795D01*
X103316666Y-89482795D02*
X103316666Y-89625652D01*
X103316666Y-89625652D02*
X103364285Y-89720890D01*
X103364285Y-89720890D02*
X103411904Y-89768509D01*
X103411904Y-89768509D02*
X103507142Y-89816128D01*
X103507142Y-89816128D02*
X103888094Y-89816128D01*
X102888094Y-90292319D02*
X102888094Y-89292319D01*
X102888094Y-89292319D02*
X102507142Y-89292319D01*
X102507142Y-89292319D02*
X102411904Y-89339938D01*
X102411904Y-89339938D02*
X102364285Y-89387557D01*
X102364285Y-89387557D02*
X102316666Y-89482795D01*
X102316666Y-89482795D02*
X102316666Y-89625652D01*
X102316666Y-89625652D02*
X102364285Y-89720890D01*
X102364285Y-89720890D02*
X102411904Y-89768509D01*
X102411904Y-89768509D02*
X102507142Y-89816128D01*
X102507142Y-89816128D02*
X102888094Y-89816128D01*
X101364285Y-90292319D02*
X101935713Y-90292319D01*
X101649999Y-90292319D02*
X101649999Y-89292319D01*
X101649999Y-89292319D02*
X101745237Y-89435176D01*
X101745237Y-89435176D02*
X101840475Y-89530414D01*
X101840475Y-89530414D02*
X101935713Y-89578033D01*
X96916666Y-132792319D02*
X97249999Y-132316128D01*
X97488094Y-132792319D02*
X97488094Y-131792319D01*
X97488094Y-131792319D02*
X97107142Y-131792319D01*
X97107142Y-131792319D02*
X97011904Y-131839938D01*
X97011904Y-131839938D02*
X96964285Y-131887557D01*
X96964285Y-131887557D02*
X96916666Y-131982795D01*
X96916666Y-131982795D02*
X96916666Y-132125652D01*
X96916666Y-132125652D02*
X96964285Y-132220890D01*
X96964285Y-132220890D02*
X97011904Y-132268509D01*
X97011904Y-132268509D02*
X97107142Y-132316128D01*
X97107142Y-132316128D02*
X97488094Y-132316128D01*
X96488094Y-132792319D02*
X96488094Y-131792319D01*
X96488094Y-131792319D02*
X96107142Y-131792319D01*
X96107142Y-131792319D02*
X96011904Y-131839938D01*
X96011904Y-131839938D02*
X95964285Y-131887557D01*
X95964285Y-131887557D02*
X95916666Y-131982795D01*
X95916666Y-131982795D02*
X95916666Y-132125652D01*
X95916666Y-132125652D02*
X95964285Y-132220890D01*
X95964285Y-132220890D02*
X96011904Y-132268509D01*
X96011904Y-132268509D02*
X96107142Y-132316128D01*
X96107142Y-132316128D02*
X96488094Y-132316128D01*
X95345237Y-132220890D02*
X95440475Y-132173271D01*
X95440475Y-132173271D02*
X95488094Y-132125652D01*
X95488094Y-132125652D02*
X95535713Y-132030414D01*
X95535713Y-132030414D02*
X95535713Y-131982795D01*
X95535713Y-131982795D02*
X95488094Y-131887557D01*
X95488094Y-131887557D02*
X95440475Y-131839938D01*
X95440475Y-131839938D02*
X95345237Y-131792319D01*
X95345237Y-131792319D02*
X95154761Y-131792319D01*
X95154761Y-131792319D02*
X95059523Y-131839938D01*
X95059523Y-131839938D02*
X95011904Y-131887557D01*
X95011904Y-131887557D02*
X94964285Y-131982795D01*
X94964285Y-131982795D02*
X94964285Y-132030414D01*
X94964285Y-132030414D02*
X95011904Y-132125652D01*
X95011904Y-132125652D02*
X95059523Y-132173271D01*
X95059523Y-132173271D02*
X95154761Y-132220890D01*
X95154761Y-132220890D02*
X95345237Y-132220890D01*
X95345237Y-132220890D02*
X95440475Y-132268509D01*
X95440475Y-132268509D02*
X95488094Y-132316128D01*
X95488094Y-132316128D02*
X95535713Y-132411366D01*
X95535713Y-132411366D02*
X95535713Y-132601842D01*
X95535713Y-132601842D02*
X95488094Y-132697080D01*
X95488094Y-132697080D02*
X95440475Y-132744700D01*
X95440475Y-132744700D02*
X95345237Y-132792319D01*
X95345237Y-132792319D02*
X95154761Y-132792319D01*
X95154761Y-132792319D02*
X95059523Y-132744700D01*
X95059523Y-132744700D02*
X95011904Y-132697080D01*
X95011904Y-132697080D02*
X94964285Y-132601842D01*
X94964285Y-132601842D02*
X94964285Y-132411366D01*
X94964285Y-132411366D02*
X95011904Y-132316128D01*
X95011904Y-132316128D02*
X95059523Y-132268509D01*
X95059523Y-132268509D02*
X95154761Y-132220890D01*
X99616666Y-110592319D02*
X99949999Y-110116128D01*
X100188094Y-110592319D02*
X100188094Y-109592319D01*
X100188094Y-109592319D02*
X99807142Y-109592319D01*
X99807142Y-109592319D02*
X99711904Y-109639938D01*
X99711904Y-109639938D02*
X99664285Y-109687557D01*
X99664285Y-109687557D02*
X99616666Y-109782795D01*
X99616666Y-109782795D02*
X99616666Y-109925652D01*
X99616666Y-109925652D02*
X99664285Y-110020890D01*
X99664285Y-110020890D02*
X99711904Y-110068509D01*
X99711904Y-110068509D02*
X99807142Y-110116128D01*
X99807142Y-110116128D02*
X100188094Y-110116128D01*
X99188094Y-110592319D02*
X99188094Y-109592319D01*
X99188094Y-109592319D02*
X98807142Y-109592319D01*
X98807142Y-109592319D02*
X98711904Y-109639938D01*
X98711904Y-109639938D02*
X98664285Y-109687557D01*
X98664285Y-109687557D02*
X98616666Y-109782795D01*
X98616666Y-109782795D02*
X98616666Y-109925652D01*
X98616666Y-109925652D02*
X98664285Y-110020890D01*
X98664285Y-110020890D02*
X98711904Y-110068509D01*
X98711904Y-110068509D02*
X98807142Y-110116128D01*
X98807142Y-110116128D02*
X99188094Y-110116128D01*
X98140475Y-110592319D02*
X97949999Y-110592319D01*
X97949999Y-110592319D02*
X97854761Y-110544700D01*
X97854761Y-110544700D02*
X97807142Y-110497080D01*
X97807142Y-110497080D02*
X97711904Y-110354223D01*
X97711904Y-110354223D02*
X97664285Y-110163747D01*
X97664285Y-110163747D02*
X97664285Y-109782795D01*
X97664285Y-109782795D02*
X97711904Y-109687557D01*
X97711904Y-109687557D02*
X97759523Y-109639938D01*
X97759523Y-109639938D02*
X97854761Y-109592319D01*
X97854761Y-109592319D02*
X98045237Y-109592319D01*
X98045237Y-109592319D02*
X98140475Y-109639938D01*
X98140475Y-109639938D02*
X98188094Y-109687557D01*
X98188094Y-109687557D02*
X98235713Y-109782795D01*
X98235713Y-109782795D02*
X98235713Y-110020890D01*
X98235713Y-110020890D02*
X98188094Y-110116128D01*
X98188094Y-110116128D02*
X98140475Y-110163747D01*
X98140475Y-110163747D02*
X98045237Y-110211366D01*
X98045237Y-110211366D02*
X97854761Y-110211366D01*
X97854761Y-110211366D02*
X97759523Y-110163747D01*
X97759523Y-110163747D02*
X97711904Y-110116128D01*
X97711904Y-110116128D02*
X97664285Y-110020890D01*
X105316666Y-122242319D02*
X105649999Y-121766128D01*
X105888094Y-122242319D02*
X105888094Y-121242319D01*
X105888094Y-121242319D02*
X105507142Y-121242319D01*
X105507142Y-121242319D02*
X105411904Y-121289938D01*
X105411904Y-121289938D02*
X105364285Y-121337557D01*
X105364285Y-121337557D02*
X105316666Y-121432795D01*
X105316666Y-121432795D02*
X105316666Y-121575652D01*
X105316666Y-121575652D02*
X105364285Y-121670890D01*
X105364285Y-121670890D02*
X105411904Y-121718509D01*
X105411904Y-121718509D02*
X105507142Y-121766128D01*
X105507142Y-121766128D02*
X105888094Y-121766128D01*
X104888094Y-122242319D02*
X104888094Y-121242319D01*
X104888094Y-121242319D02*
X104507142Y-121242319D01*
X104507142Y-121242319D02*
X104411904Y-121289938D01*
X104411904Y-121289938D02*
X104364285Y-121337557D01*
X104364285Y-121337557D02*
X104316666Y-121432795D01*
X104316666Y-121432795D02*
X104316666Y-121575652D01*
X104316666Y-121575652D02*
X104364285Y-121670890D01*
X104364285Y-121670890D02*
X104411904Y-121718509D01*
X104411904Y-121718509D02*
X104507142Y-121766128D01*
X104507142Y-121766128D02*
X104888094Y-121766128D01*
X103411904Y-121242319D02*
X103888094Y-121242319D01*
X103888094Y-121242319D02*
X103935713Y-121718509D01*
X103935713Y-121718509D02*
X103888094Y-121670890D01*
X103888094Y-121670890D02*
X103792856Y-121623271D01*
X103792856Y-121623271D02*
X103554761Y-121623271D01*
X103554761Y-121623271D02*
X103459523Y-121670890D01*
X103459523Y-121670890D02*
X103411904Y-121718509D01*
X103411904Y-121718509D02*
X103364285Y-121813747D01*
X103364285Y-121813747D02*
X103364285Y-122051842D01*
X103364285Y-122051842D02*
X103411904Y-122147080D01*
X103411904Y-122147080D02*
X103459523Y-122194700D01*
X103459523Y-122194700D02*
X103554761Y-122242319D01*
X103554761Y-122242319D02*
X103792856Y-122242319D01*
X103792856Y-122242319D02*
X103888094Y-122194700D01*
X103888094Y-122194700D02*
X103935713Y-122147080D01*
X153066666Y-111959580D02*
X153114285Y-112007200D01*
X153114285Y-112007200D02*
X153257142Y-112054819D01*
X153257142Y-112054819D02*
X153352380Y-112054819D01*
X153352380Y-112054819D02*
X153495237Y-112007200D01*
X153495237Y-112007200D02*
X153590475Y-111911961D01*
X153590475Y-111911961D02*
X153638094Y-111816723D01*
X153638094Y-111816723D02*
X153685713Y-111626247D01*
X153685713Y-111626247D02*
X153685713Y-111483390D01*
X153685713Y-111483390D02*
X153638094Y-111292914D01*
X153638094Y-111292914D02*
X153590475Y-111197676D01*
X153590475Y-111197676D02*
X153495237Y-111102438D01*
X153495237Y-111102438D02*
X153352380Y-111054819D01*
X153352380Y-111054819D02*
X153257142Y-111054819D01*
X153257142Y-111054819D02*
X153114285Y-111102438D01*
X153114285Y-111102438D02*
X153066666Y-111150057D01*
X152209523Y-111388152D02*
X152209523Y-112054819D01*
X152447618Y-111007200D02*
X152685713Y-111721485D01*
X152685713Y-111721485D02*
X152066666Y-111721485D01*
X94711904Y-93592319D02*
X94711904Y-94401842D01*
X94711904Y-94401842D02*
X94664285Y-94497080D01*
X94664285Y-94497080D02*
X94616666Y-94544700D01*
X94616666Y-94544700D02*
X94521428Y-94592319D01*
X94521428Y-94592319D02*
X94330952Y-94592319D01*
X94330952Y-94592319D02*
X94235714Y-94544700D01*
X94235714Y-94544700D02*
X94188095Y-94497080D01*
X94188095Y-94497080D02*
X94140476Y-94401842D01*
X94140476Y-94401842D02*
X94140476Y-93592319D01*
X93140476Y-94592319D02*
X93711904Y-94592319D01*
X93426190Y-94592319D02*
X93426190Y-93592319D01*
X93426190Y-93592319D02*
X93521428Y-93735176D01*
X93521428Y-93735176D02*
X93616666Y-93830414D01*
X93616666Y-93830414D02*
X93711904Y-93878033D01*
X122842857Y-113059580D02*
X122890476Y-113107200D01*
X122890476Y-113107200D02*
X123033333Y-113154819D01*
X123033333Y-113154819D02*
X123128571Y-113154819D01*
X123128571Y-113154819D02*
X123271428Y-113107200D01*
X123271428Y-113107200D02*
X123366666Y-113011961D01*
X123366666Y-113011961D02*
X123414285Y-112916723D01*
X123414285Y-112916723D02*
X123461904Y-112726247D01*
X123461904Y-112726247D02*
X123461904Y-112583390D01*
X123461904Y-112583390D02*
X123414285Y-112392914D01*
X123414285Y-112392914D02*
X123366666Y-112297676D01*
X123366666Y-112297676D02*
X123271428Y-112202438D01*
X123271428Y-112202438D02*
X123128571Y-112154819D01*
X123128571Y-112154819D02*
X123033333Y-112154819D01*
X123033333Y-112154819D02*
X122890476Y-112202438D01*
X122890476Y-112202438D02*
X122842857Y-112250057D01*
X121890476Y-113154819D02*
X122461904Y-113154819D01*
X122176190Y-113154819D02*
X122176190Y-112154819D01*
X122176190Y-112154819D02*
X122271428Y-112297676D01*
X122271428Y-112297676D02*
X122366666Y-112392914D01*
X122366666Y-112392914D02*
X122461904Y-112440533D01*
X120938095Y-113154819D02*
X121509523Y-113154819D01*
X121223809Y-113154819D02*
X121223809Y-112154819D01*
X121223809Y-112154819D02*
X121319047Y-112297676D01*
X121319047Y-112297676D02*
X121414285Y-112392914D01*
X121414285Y-112392914D02*
X121509523Y-112440533D01*
X153942857Y-84954819D02*
X154276190Y-84478628D01*
X154514285Y-84954819D02*
X154514285Y-83954819D01*
X154514285Y-83954819D02*
X154133333Y-83954819D01*
X154133333Y-83954819D02*
X154038095Y-84002438D01*
X154038095Y-84002438D02*
X153990476Y-84050057D01*
X153990476Y-84050057D02*
X153942857Y-84145295D01*
X153942857Y-84145295D02*
X153942857Y-84288152D01*
X153942857Y-84288152D02*
X153990476Y-84383390D01*
X153990476Y-84383390D02*
X154038095Y-84431009D01*
X154038095Y-84431009D02*
X154133333Y-84478628D01*
X154133333Y-84478628D02*
X154514285Y-84478628D01*
X152990476Y-84954819D02*
X153561904Y-84954819D01*
X153276190Y-84954819D02*
X153276190Y-83954819D01*
X153276190Y-83954819D02*
X153371428Y-84097676D01*
X153371428Y-84097676D02*
X153466666Y-84192914D01*
X153466666Y-84192914D02*
X153561904Y-84240533D01*
X152657142Y-83954819D02*
X152038095Y-83954819D01*
X152038095Y-83954819D02*
X152371428Y-84335771D01*
X152371428Y-84335771D02*
X152228571Y-84335771D01*
X152228571Y-84335771D02*
X152133333Y-84383390D01*
X152133333Y-84383390D02*
X152085714Y-84431009D01*
X152085714Y-84431009D02*
X152038095Y-84526247D01*
X152038095Y-84526247D02*
X152038095Y-84764342D01*
X152038095Y-84764342D02*
X152085714Y-84859580D01*
X152085714Y-84859580D02*
X152133333Y-84907200D01*
X152133333Y-84907200D02*
X152228571Y-84954819D01*
X152228571Y-84954819D02*
X152514285Y-84954819D01*
X152514285Y-84954819D02*
X152609523Y-84907200D01*
X152609523Y-84907200D02*
X152657142Y-84859580D01*
X100116666Y-103592319D02*
X100449999Y-103116128D01*
X100688094Y-103592319D02*
X100688094Y-102592319D01*
X100688094Y-102592319D02*
X100307142Y-102592319D01*
X100307142Y-102592319D02*
X100211904Y-102639938D01*
X100211904Y-102639938D02*
X100164285Y-102687557D01*
X100164285Y-102687557D02*
X100116666Y-102782795D01*
X100116666Y-102782795D02*
X100116666Y-102925652D01*
X100116666Y-102925652D02*
X100164285Y-103020890D01*
X100164285Y-103020890D02*
X100211904Y-103068509D01*
X100211904Y-103068509D02*
X100307142Y-103116128D01*
X100307142Y-103116128D02*
X100688094Y-103116128D01*
X99688094Y-103592319D02*
X99688094Y-102592319D01*
X99688094Y-102592319D02*
X99307142Y-102592319D01*
X99307142Y-102592319D02*
X99211904Y-102639938D01*
X99211904Y-102639938D02*
X99164285Y-102687557D01*
X99164285Y-102687557D02*
X99116666Y-102782795D01*
X99116666Y-102782795D02*
X99116666Y-102925652D01*
X99116666Y-102925652D02*
X99164285Y-103020890D01*
X99164285Y-103020890D02*
X99211904Y-103068509D01*
X99211904Y-103068509D02*
X99307142Y-103116128D01*
X99307142Y-103116128D02*
X99688094Y-103116128D01*
X98783332Y-102592319D02*
X98164285Y-102592319D01*
X98164285Y-102592319D02*
X98497618Y-102973271D01*
X98497618Y-102973271D02*
X98354761Y-102973271D01*
X98354761Y-102973271D02*
X98259523Y-103020890D01*
X98259523Y-103020890D02*
X98211904Y-103068509D01*
X98211904Y-103068509D02*
X98164285Y-103163747D01*
X98164285Y-103163747D02*
X98164285Y-103401842D01*
X98164285Y-103401842D02*
X98211904Y-103497080D01*
X98211904Y-103497080D02*
X98259523Y-103544700D01*
X98259523Y-103544700D02*
X98354761Y-103592319D01*
X98354761Y-103592319D02*
X98640475Y-103592319D01*
X98640475Y-103592319D02*
X98735713Y-103544700D01*
X98735713Y-103544700D02*
X98783332Y-103497080D01*
X92192857Y-138692319D02*
X92526190Y-138216128D01*
X92764285Y-138692319D02*
X92764285Y-137692319D01*
X92764285Y-137692319D02*
X92383333Y-137692319D01*
X92383333Y-137692319D02*
X92288095Y-137739938D01*
X92288095Y-137739938D02*
X92240476Y-137787557D01*
X92240476Y-137787557D02*
X92192857Y-137882795D01*
X92192857Y-137882795D02*
X92192857Y-138025652D01*
X92192857Y-138025652D02*
X92240476Y-138120890D01*
X92240476Y-138120890D02*
X92288095Y-138168509D01*
X92288095Y-138168509D02*
X92383333Y-138216128D01*
X92383333Y-138216128D02*
X92764285Y-138216128D01*
X91764285Y-138692319D02*
X91764285Y-137692319D01*
X91764285Y-137692319D02*
X91383333Y-137692319D01*
X91383333Y-137692319D02*
X91288095Y-137739938D01*
X91288095Y-137739938D02*
X91240476Y-137787557D01*
X91240476Y-137787557D02*
X91192857Y-137882795D01*
X91192857Y-137882795D02*
X91192857Y-138025652D01*
X91192857Y-138025652D02*
X91240476Y-138120890D01*
X91240476Y-138120890D02*
X91288095Y-138168509D01*
X91288095Y-138168509D02*
X91383333Y-138216128D01*
X91383333Y-138216128D02*
X91764285Y-138216128D01*
X90240476Y-138692319D02*
X90811904Y-138692319D01*
X90526190Y-138692319D02*
X90526190Y-137692319D01*
X90526190Y-137692319D02*
X90621428Y-137835176D01*
X90621428Y-137835176D02*
X90716666Y-137930414D01*
X90716666Y-137930414D02*
X90811904Y-137978033D01*
X89383333Y-137692319D02*
X89573809Y-137692319D01*
X89573809Y-137692319D02*
X89669047Y-137739938D01*
X89669047Y-137739938D02*
X89716666Y-137787557D01*
X89716666Y-137787557D02*
X89811904Y-137930414D01*
X89811904Y-137930414D02*
X89859523Y-138120890D01*
X89859523Y-138120890D02*
X89859523Y-138501842D01*
X89859523Y-138501842D02*
X89811904Y-138597080D01*
X89811904Y-138597080D02*
X89764285Y-138644700D01*
X89764285Y-138644700D02*
X89669047Y-138692319D01*
X89669047Y-138692319D02*
X89478571Y-138692319D01*
X89478571Y-138692319D02*
X89383333Y-138644700D01*
X89383333Y-138644700D02*
X89335714Y-138597080D01*
X89335714Y-138597080D02*
X89288095Y-138501842D01*
X89288095Y-138501842D02*
X89288095Y-138263747D01*
X89288095Y-138263747D02*
X89335714Y-138168509D01*
X89335714Y-138168509D02*
X89383333Y-138120890D01*
X89383333Y-138120890D02*
X89478571Y-138073271D01*
X89478571Y-138073271D02*
X89669047Y-138073271D01*
X89669047Y-138073271D02*
X89764285Y-138120890D01*
X89764285Y-138120890D02*
X89811904Y-138168509D01*
X89811904Y-138168509D02*
X89859523Y-138263747D01*
X128566666Y-86754819D02*
X129042856Y-86754819D01*
X129042856Y-86754819D02*
X129042856Y-85754819D01*
X127709523Y-86754819D02*
X128280951Y-86754819D01*
X127995237Y-86754819D02*
X127995237Y-85754819D01*
X127995237Y-85754819D02*
X128090475Y-85897676D01*
X128090475Y-85897676D02*
X128185713Y-85992914D01*
X128185713Y-85992914D02*
X128280951Y-86040533D01*
X100411904Y-137692319D02*
X100411904Y-138501842D01*
X100411904Y-138501842D02*
X100364285Y-138597080D01*
X100364285Y-138597080D02*
X100316666Y-138644700D01*
X100316666Y-138644700D02*
X100221428Y-138692319D01*
X100221428Y-138692319D02*
X100030952Y-138692319D01*
X100030952Y-138692319D02*
X99935714Y-138644700D01*
X99935714Y-138644700D02*
X99888095Y-138597080D01*
X99888095Y-138597080D02*
X99840476Y-138501842D01*
X99840476Y-138501842D02*
X99840476Y-137692319D01*
X99411904Y-137787557D02*
X99364285Y-137739938D01*
X99364285Y-137739938D02*
X99269047Y-137692319D01*
X99269047Y-137692319D02*
X99030952Y-137692319D01*
X99030952Y-137692319D02*
X98935714Y-137739938D01*
X98935714Y-137739938D02*
X98888095Y-137787557D01*
X98888095Y-137787557D02*
X98840476Y-137882795D01*
X98840476Y-137882795D02*
X98840476Y-137978033D01*
X98840476Y-137978033D02*
X98888095Y-138120890D01*
X98888095Y-138120890D02*
X99459523Y-138692319D01*
X99459523Y-138692319D02*
X98840476Y-138692319D01*
X155766666Y-110559580D02*
X155814285Y-110607200D01*
X155814285Y-110607200D02*
X155957142Y-110654819D01*
X155957142Y-110654819D02*
X156052380Y-110654819D01*
X156052380Y-110654819D02*
X156195237Y-110607200D01*
X156195237Y-110607200D02*
X156290475Y-110511961D01*
X156290475Y-110511961D02*
X156338094Y-110416723D01*
X156338094Y-110416723D02*
X156385713Y-110226247D01*
X156385713Y-110226247D02*
X156385713Y-110083390D01*
X156385713Y-110083390D02*
X156338094Y-109892914D01*
X156338094Y-109892914D02*
X156290475Y-109797676D01*
X156290475Y-109797676D02*
X156195237Y-109702438D01*
X156195237Y-109702438D02*
X156052380Y-109654819D01*
X156052380Y-109654819D02*
X155957142Y-109654819D01*
X155957142Y-109654819D02*
X155814285Y-109702438D01*
X155814285Y-109702438D02*
X155766666Y-109750057D01*
X154861904Y-109654819D02*
X155338094Y-109654819D01*
X155338094Y-109654819D02*
X155385713Y-110131009D01*
X155385713Y-110131009D02*
X155338094Y-110083390D01*
X155338094Y-110083390D02*
X155242856Y-110035771D01*
X155242856Y-110035771D02*
X155004761Y-110035771D01*
X155004761Y-110035771D02*
X154909523Y-110083390D01*
X154909523Y-110083390D02*
X154861904Y-110131009D01*
X154861904Y-110131009D02*
X154814285Y-110226247D01*
X154814285Y-110226247D02*
X154814285Y-110464342D01*
X154814285Y-110464342D02*
X154861904Y-110559580D01*
X154861904Y-110559580D02*
X154909523Y-110607200D01*
X154909523Y-110607200D02*
X155004761Y-110654819D01*
X155004761Y-110654819D02*
X155242856Y-110654819D01*
X155242856Y-110654819D02*
X155338094Y-110607200D01*
X155338094Y-110607200D02*
X155385713Y-110559580D01*
X105216666Y-126692319D02*
X105549999Y-126216128D01*
X105788094Y-126692319D02*
X105788094Y-125692319D01*
X105788094Y-125692319D02*
X105407142Y-125692319D01*
X105407142Y-125692319D02*
X105311904Y-125739938D01*
X105311904Y-125739938D02*
X105264285Y-125787557D01*
X105264285Y-125787557D02*
X105216666Y-125882795D01*
X105216666Y-125882795D02*
X105216666Y-126025652D01*
X105216666Y-126025652D02*
X105264285Y-126120890D01*
X105264285Y-126120890D02*
X105311904Y-126168509D01*
X105311904Y-126168509D02*
X105407142Y-126216128D01*
X105407142Y-126216128D02*
X105788094Y-126216128D01*
X104788094Y-126692319D02*
X104788094Y-125692319D01*
X104788094Y-125692319D02*
X104407142Y-125692319D01*
X104407142Y-125692319D02*
X104311904Y-125739938D01*
X104311904Y-125739938D02*
X104264285Y-125787557D01*
X104264285Y-125787557D02*
X104216666Y-125882795D01*
X104216666Y-125882795D02*
X104216666Y-126025652D01*
X104216666Y-126025652D02*
X104264285Y-126120890D01*
X104264285Y-126120890D02*
X104311904Y-126168509D01*
X104311904Y-126168509D02*
X104407142Y-126216128D01*
X104407142Y-126216128D02*
X104788094Y-126216128D01*
X103359523Y-125692319D02*
X103549999Y-125692319D01*
X103549999Y-125692319D02*
X103645237Y-125739938D01*
X103645237Y-125739938D02*
X103692856Y-125787557D01*
X103692856Y-125787557D02*
X103788094Y-125930414D01*
X103788094Y-125930414D02*
X103835713Y-126120890D01*
X103835713Y-126120890D02*
X103835713Y-126501842D01*
X103835713Y-126501842D02*
X103788094Y-126597080D01*
X103788094Y-126597080D02*
X103740475Y-126644700D01*
X103740475Y-126644700D02*
X103645237Y-126692319D01*
X103645237Y-126692319D02*
X103454761Y-126692319D01*
X103454761Y-126692319D02*
X103359523Y-126644700D01*
X103359523Y-126644700D02*
X103311904Y-126597080D01*
X103311904Y-126597080D02*
X103264285Y-126501842D01*
X103264285Y-126501842D02*
X103264285Y-126263747D01*
X103264285Y-126263747D02*
X103311904Y-126168509D01*
X103311904Y-126168509D02*
X103359523Y-126120890D01*
X103359523Y-126120890D02*
X103454761Y-126073271D01*
X103454761Y-126073271D02*
X103645237Y-126073271D01*
X103645237Y-126073271D02*
X103740475Y-126120890D01*
X103740475Y-126120890D02*
X103788094Y-126168509D01*
X103788094Y-126168509D02*
X103835713Y-126263747D01*
X155061904Y-102654819D02*
X155061904Y-103464342D01*
X155061904Y-103464342D02*
X155014285Y-103559580D01*
X155014285Y-103559580D02*
X154966666Y-103607200D01*
X154966666Y-103607200D02*
X154871428Y-103654819D01*
X154871428Y-103654819D02*
X154680952Y-103654819D01*
X154680952Y-103654819D02*
X154585714Y-103607200D01*
X154585714Y-103607200D02*
X154538095Y-103559580D01*
X154538095Y-103559580D02*
X154490476Y-103464342D01*
X154490476Y-103464342D02*
X154490476Y-102654819D01*
X154109523Y-102654819D02*
X153490476Y-102654819D01*
X153490476Y-102654819D02*
X153823809Y-103035771D01*
X153823809Y-103035771D02*
X153680952Y-103035771D01*
X153680952Y-103035771D02*
X153585714Y-103083390D01*
X153585714Y-103083390D02*
X153538095Y-103131009D01*
X153538095Y-103131009D02*
X153490476Y-103226247D01*
X153490476Y-103226247D02*
X153490476Y-103464342D01*
X153490476Y-103464342D02*
X153538095Y-103559580D01*
X153538095Y-103559580D02*
X153585714Y-103607200D01*
X153585714Y-103607200D02*
X153680952Y-103654819D01*
X153680952Y-103654819D02*
X153966666Y-103654819D01*
X153966666Y-103654819D02*
X154061904Y-103607200D01*
X154061904Y-103607200D02*
X154109523Y-103559580D01*
X83566666Y-88354819D02*
X83899999Y-87878628D01*
X84138094Y-88354819D02*
X84138094Y-87354819D01*
X84138094Y-87354819D02*
X83757142Y-87354819D01*
X83757142Y-87354819D02*
X83661904Y-87402438D01*
X83661904Y-87402438D02*
X83614285Y-87450057D01*
X83614285Y-87450057D02*
X83566666Y-87545295D01*
X83566666Y-87545295D02*
X83566666Y-87688152D01*
X83566666Y-87688152D02*
X83614285Y-87783390D01*
X83614285Y-87783390D02*
X83661904Y-87831009D01*
X83661904Y-87831009D02*
X83757142Y-87878628D01*
X83757142Y-87878628D02*
X84138094Y-87878628D01*
X83138094Y-88354819D02*
X83138094Y-87354819D01*
X83138094Y-87354819D02*
X82757142Y-87354819D01*
X82757142Y-87354819D02*
X82661904Y-87402438D01*
X82661904Y-87402438D02*
X82614285Y-87450057D01*
X82614285Y-87450057D02*
X82566666Y-87545295D01*
X82566666Y-87545295D02*
X82566666Y-87688152D01*
X82566666Y-87688152D02*
X82614285Y-87783390D01*
X82614285Y-87783390D02*
X82661904Y-87831009D01*
X82661904Y-87831009D02*
X82757142Y-87878628D01*
X82757142Y-87878628D02*
X83138094Y-87878628D01*
X82185713Y-87450057D02*
X82138094Y-87402438D01*
X82138094Y-87402438D02*
X82042856Y-87354819D01*
X82042856Y-87354819D02*
X81804761Y-87354819D01*
X81804761Y-87354819D02*
X81709523Y-87402438D01*
X81709523Y-87402438D02*
X81661904Y-87450057D01*
X81661904Y-87450057D02*
X81614285Y-87545295D01*
X81614285Y-87545295D02*
X81614285Y-87640533D01*
X81614285Y-87640533D02*
X81661904Y-87783390D01*
X81661904Y-87783390D02*
X82233332Y-88354819D01*
X82233332Y-88354819D02*
X81614285Y-88354819D01*
X152761904Y-86954819D02*
X152761904Y-87764342D01*
X152761904Y-87764342D02*
X152714285Y-87859580D01*
X152714285Y-87859580D02*
X152666666Y-87907200D01*
X152666666Y-87907200D02*
X152571428Y-87954819D01*
X152571428Y-87954819D02*
X152380952Y-87954819D01*
X152380952Y-87954819D02*
X152285714Y-87907200D01*
X152285714Y-87907200D02*
X152238095Y-87859580D01*
X152238095Y-87859580D02*
X152190476Y-87764342D01*
X152190476Y-87764342D02*
X152190476Y-86954819D01*
X151238095Y-86954819D02*
X151714285Y-86954819D01*
X151714285Y-86954819D02*
X151761904Y-87431009D01*
X151761904Y-87431009D02*
X151714285Y-87383390D01*
X151714285Y-87383390D02*
X151619047Y-87335771D01*
X151619047Y-87335771D02*
X151380952Y-87335771D01*
X151380952Y-87335771D02*
X151285714Y-87383390D01*
X151285714Y-87383390D02*
X151238095Y-87431009D01*
X151238095Y-87431009D02*
X151190476Y-87526247D01*
X151190476Y-87526247D02*
X151190476Y-87764342D01*
X151190476Y-87764342D02*
X151238095Y-87859580D01*
X151238095Y-87859580D02*
X151285714Y-87907200D01*
X151285714Y-87907200D02*
X151380952Y-87954819D01*
X151380952Y-87954819D02*
X151619047Y-87954819D01*
X151619047Y-87954819D02*
X151714285Y-87907200D01*
X151714285Y-87907200D02*
X151761904Y-87859580D01*
X107992857Y-92192319D02*
X108326190Y-91716128D01*
X108564285Y-92192319D02*
X108564285Y-91192319D01*
X108564285Y-91192319D02*
X108183333Y-91192319D01*
X108183333Y-91192319D02*
X108088095Y-91239938D01*
X108088095Y-91239938D02*
X108040476Y-91287557D01*
X108040476Y-91287557D02*
X107992857Y-91382795D01*
X107992857Y-91382795D02*
X107992857Y-91525652D01*
X107992857Y-91525652D02*
X108040476Y-91620890D01*
X108040476Y-91620890D02*
X108088095Y-91668509D01*
X108088095Y-91668509D02*
X108183333Y-91716128D01*
X108183333Y-91716128D02*
X108564285Y-91716128D01*
X107564285Y-92192319D02*
X107564285Y-91192319D01*
X107564285Y-91192319D02*
X107183333Y-91192319D01*
X107183333Y-91192319D02*
X107088095Y-91239938D01*
X107088095Y-91239938D02*
X107040476Y-91287557D01*
X107040476Y-91287557D02*
X106992857Y-91382795D01*
X106992857Y-91382795D02*
X106992857Y-91525652D01*
X106992857Y-91525652D02*
X107040476Y-91620890D01*
X107040476Y-91620890D02*
X107088095Y-91668509D01*
X107088095Y-91668509D02*
X107183333Y-91716128D01*
X107183333Y-91716128D02*
X107564285Y-91716128D01*
X106040476Y-92192319D02*
X106611904Y-92192319D01*
X106326190Y-92192319D02*
X106326190Y-91192319D01*
X106326190Y-91192319D02*
X106421428Y-91335176D01*
X106421428Y-91335176D02*
X106516666Y-91430414D01*
X106516666Y-91430414D02*
X106611904Y-91478033D01*
X105659523Y-91287557D02*
X105611904Y-91239938D01*
X105611904Y-91239938D02*
X105516666Y-91192319D01*
X105516666Y-91192319D02*
X105278571Y-91192319D01*
X105278571Y-91192319D02*
X105183333Y-91239938D01*
X105183333Y-91239938D02*
X105135714Y-91287557D01*
X105135714Y-91287557D02*
X105088095Y-91382795D01*
X105088095Y-91382795D02*
X105088095Y-91478033D01*
X105088095Y-91478033D02*
X105135714Y-91620890D01*
X105135714Y-91620890D02*
X105707142Y-92192319D01*
X105707142Y-92192319D02*
X105088095Y-92192319D01*
X105216666Y-131492319D02*
X105549999Y-131016128D01*
X105788094Y-131492319D02*
X105788094Y-130492319D01*
X105788094Y-130492319D02*
X105407142Y-130492319D01*
X105407142Y-130492319D02*
X105311904Y-130539938D01*
X105311904Y-130539938D02*
X105264285Y-130587557D01*
X105264285Y-130587557D02*
X105216666Y-130682795D01*
X105216666Y-130682795D02*
X105216666Y-130825652D01*
X105216666Y-130825652D02*
X105264285Y-130920890D01*
X105264285Y-130920890D02*
X105311904Y-130968509D01*
X105311904Y-130968509D02*
X105407142Y-131016128D01*
X105407142Y-131016128D02*
X105788094Y-131016128D01*
X104788094Y-131492319D02*
X104788094Y-130492319D01*
X104788094Y-130492319D02*
X104407142Y-130492319D01*
X104407142Y-130492319D02*
X104311904Y-130539938D01*
X104311904Y-130539938D02*
X104264285Y-130587557D01*
X104264285Y-130587557D02*
X104216666Y-130682795D01*
X104216666Y-130682795D02*
X104216666Y-130825652D01*
X104216666Y-130825652D02*
X104264285Y-130920890D01*
X104264285Y-130920890D02*
X104311904Y-130968509D01*
X104311904Y-130968509D02*
X104407142Y-131016128D01*
X104407142Y-131016128D02*
X104788094Y-131016128D01*
X103883332Y-130492319D02*
X103216666Y-130492319D01*
X103216666Y-130492319D02*
X103645237Y-131492319D01*
X154366666Y-99659580D02*
X154414285Y-99707200D01*
X154414285Y-99707200D02*
X154557142Y-99754819D01*
X154557142Y-99754819D02*
X154652380Y-99754819D01*
X154652380Y-99754819D02*
X154795237Y-99707200D01*
X154795237Y-99707200D02*
X154890475Y-99611961D01*
X154890475Y-99611961D02*
X154938094Y-99516723D01*
X154938094Y-99516723D02*
X154985713Y-99326247D01*
X154985713Y-99326247D02*
X154985713Y-99183390D01*
X154985713Y-99183390D02*
X154938094Y-98992914D01*
X154938094Y-98992914D02*
X154890475Y-98897676D01*
X154890475Y-98897676D02*
X154795237Y-98802438D01*
X154795237Y-98802438D02*
X154652380Y-98754819D01*
X154652380Y-98754819D02*
X154557142Y-98754819D01*
X154557142Y-98754819D02*
X154414285Y-98802438D01*
X154414285Y-98802438D02*
X154366666Y-98850057D01*
X154033332Y-98754819D02*
X153366666Y-98754819D01*
X153366666Y-98754819D02*
X153795237Y-99754819D01*
X157242857Y-130454819D02*
X157576190Y-129978628D01*
X157814285Y-130454819D02*
X157814285Y-129454819D01*
X157814285Y-129454819D02*
X157433333Y-129454819D01*
X157433333Y-129454819D02*
X157338095Y-129502438D01*
X157338095Y-129502438D02*
X157290476Y-129550057D01*
X157290476Y-129550057D02*
X157242857Y-129645295D01*
X157242857Y-129645295D02*
X157242857Y-129788152D01*
X157242857Y-129788152D02*
X157290476Y-129883390D01*
X157290476Y-129883390D02*
X157338095Y-129931009D01*
X157338095Y-129931009D02*
X157433333Y-129978628D01*
X157433333Y-129978628D02*
X157814285Y-129978628D01*
X156290476Y-130454819D02*
X156861904Y-130454819D01*
X156576190Y-130454819D02*
X156576190Y-129454819D01*
X156576190Y-129454819D02*
X156671428Y-129597676D01*
X156671428Y-129597676D02*
X156766666Y-129692914D01*
X156766666Y-129692914D02*
X156861904Y-129740533D01*
X155814285Y-130454819D02*
X155623809Y-130454819D01*
X155623809Y-130454819D02*
X155528571Y-130407200D01*
X155528571Y-130407200D02*
X155480952Y-130359580D01*
X155480952Y-130359580D02*
X155385714Y-130216723D01*
X155385714Y-130216723D02*
X155338095Y-130026247D01*
X155338095Y-130026247D02*
X155338095Y-129645295D01*
X155338095Y-129645295D02*
X155385714Y-129550057D01*
X155385714Y-129550057D02*
X155433333Y-129502438D01*
X155433333Y-129502438D02*
X155528571Y-129454819D01*
X155528571Y-129454819D02*
X155719047Y-129454819D01*
X155719047Y-129454819D02*
X155814285Y-129502438D01*
X155814285Y-129502438D02*
X155861904Y-129550057D01*
X155861904Y-129550057D02*
X155909523Y-129645295D01*
X155909523Y-129645295D02*
X155909523Y-129883390D01*
X155909523Y-129883390D02*
X155861904Y-129978628D01*
X155861904Y-129978628D02*
X155814285Y-130026247D01*
X155814285Y-130026247D02*
X155719047Y-130073866D01*
X155719047Y-130073866D02*
X155528571Y-130073866D01*
X155528571Y-130073866D02*
X155433333Y-130026247D01*
X155433333Y-130026247D02*
X155385714Y-129978628D01*
X155385714Y-129978628D02*
X155338095Y-129883390D01*
X96416666Y-141097080D02*
X96464285Y-141144700D01*
X96464285Y-141144700D02*
X96607142Y-141192319D01*
X96607142Y-141192319D02*
X96702380Y-141192319D01*
X96702380Y-141192319D02*
X96845237Y-141144700D01*
X96845237Y-141144700D02*
X96940475Y-141049461D01*
X96940475Y-141049461D02*
X96988094Y-140954223D01*
X96988094Y-140954223D02*
X97035713Y-140763747D01*
X97035713Y-140763747D02*
X97035713Y-140620890D01*
X97035713Y-140620890D02*
X96988094Y-140430414D01*
X96988094Y-140430414D02*
X96940475Y-140335176D01*
X96940475Y-140335176D02*
X96845237Y-140239938D01*
X96845237Y-140239938D02*
X96702380Y-140192319D01*
X96702380Y-140192319D02*
X96607142Y-140192319D01*
X96607142Y-140192319D02*
X96464285Y-140239938D01*
X96464285Y-140239938D02*
X96416666Y-140287557D01*
X96035713Y-140287557D02*
X95988094Y-140239938D01*
X95988094Y-140239938D02*
X95892856Y-140192319D01*
X95892856Y-140192319D02*
X95654761Y-140192319D01*
X95654761Y-140192319D02*
X95559523Y-140239938D01*
X95559523Y-140239938D02*
X95511904Y-140287557D01*
X95511904Y-140287557D02*
X95464285Y-140382795D01*
X95464285Y-140382795D02*
X95464285Y-140478033D01*
X95464285Y-140478033D02*
X95511904Y-140620890D01*
X95511904Y-140620890D02*
X96083332Y-141192319D01*
X96083332Y-141192319D02*
X95464285Y-141192319D01*
X160042857Y-114254819D02*
X160376190Y-113778628D01*
X160614285Y-114254819D02*
X160614285Y-113254819D01*
X160614285Y-113254819D02*
X160233333Y-113254819D01*
X160233333Y-113254819D02*
X160138095Y-113302438D01*
X160138095Y-113302438D02*
X160090476Y-113350057D01*
X160090476Y-113350057D02*
X160042857Y-113445295D01*
X160042857Y-113445295D02*
X160042857Y-113588152D01*
X160042857Y-113588152D02*
X160090476Y-113683390D01*
X160090476Y-113683390D02*
X160138095Y-113731009D01*
X160138095Y-113731009D02*
X160233333Y-113778628D01*
X160233333Y-113778628D02*
X160614285Y-113778628D01*
X159090476Y-114254819D02*
X159661904Y-114254819D01*
X159376190Y-114254819D02*
X159376190Y-113254819D01*
X159376190Y-113254819D02*
X159471428Y-113397676D01*
X159471428Y-113397676D02*
X159566666Y-113492914D01*
X159566666Y-113492914D02*
X159661904Y-113540533D01*
X158471428Y-113254819D02*
X158376190Y-113254819D01*
X158376190Y-113254819D02*
X158280952Y-113302438D01*
X158280952Y-113302438D02*
X158233333Y-113350057D01*
X158233333Y-113350057D02*
X158185714Y-113445295D01*
X158185714Y-113445295D02*
X158138095Y-113635771D01*
X158138095Y-113635771D02*
X158138095Y-113873866D01*
X158138095Y-113873866D02*
X158185714Y-114064342D01*
X158185714Y-114064342D02*
X158233333Y-114159580D01*
X158233333Y-114159580D02*
X158280952Y-114207200D01*
X158280952Y-114207200D02*
X158376190Y-114254819D01*
X158376190Y-114254819D02*
X158471428Y-114254819D01*
X158471428Y-114254819D02*
X158566666Y-114207200D01*
X158566666Y-114207200D02*
X158614285Y-114159580D01*
X158614285Y-114159580D02*
X158661904Y-114064342D01*
X158661904Y-114064342D02*
X158709523Y-113873866D01*
X158709523Y-113873866D02*
X158709523Y-113635771D01*
X158709523Y-113635771D02*
X158661904Y-113445295D01*
X158661904Y-113445295D02*
X158614285Y-113350057D01*
X158614285Y-113350057D02*
X158566666Y-113302438D01*
X158566666Y-113302438D02*
X158471428Y-113254819D01*
X129342857Y-107654819D02*
X129676190Y-107178628D01*
X129914285Y-107654819D02*
X129914285Y-106654819D01*
X129914285Y-106654819D02*
X129533333Y-106654819D01*
X129533333Y-106654819D02*
X129438095Y-106702438D01*
X129438095Y-106702438D02*
X129390476Y-106750057D01*
X129390476Y-106750057D02*
X129342857Y-106845295D01*
X129342857Y-106845295D02*
X129342857Y-106988152D01*
X129342857Y-106988152D02*
X129390476Y-107083390D01*
X129390476Y-107083390D02*
X129438095Y-107131009D01*
X129438095Y-107131009D02*
X129533333Y-107178628D01*
X129533333Y-107178628D02*
X129914285Y-107178628D01*
X128390476Y-107654819D02*
X128961904Y-107654819D01*
X128676190Y-107654819D02*
X128676190Y-106654819D01*
X128676190Y-106654819D02*
X128771428Y-106797676D01*
X128771428Y-106797676D02*
X128866666Y-106892914D01*
X128866666Y-106892914D02*
X128961904Y-106940533D01*
X127438095Y-107654819D02*
X128009523Y-107654819D01*
X127723809Y-107654819D02*
X127723809Y-106654819D01*
X127723809Y-106654819D02*
X127819047Y-106797676D01*
X127819047Y-106797676D02*
X127914285Y-106892914D01*
X127914285Y-106892914D02*
X128009523Y-106940533D01*
X100316666Y-89097080D02*
X100364285Y-89144700D01*
X100364285Y-89144700D02*
X100507142Y-89192319D01*
X100507142Y-89192319D02*
X100602380Y-89192319D01*
X100602380Y-89192319D02*
X100745237Y-89144700D01*
X100745237Y-89144700D02*
X100840475Y-89049461D01*
X100840475Y-89049461D02*
X100888094Y-88954223D01*
X100888094Y-88954223D02*
X100935713Y-88763747D01*
X100935713Y-88763747D02*
X100935713Y-88620890D01*
X100935713Y-88620890D02*
X100888094Y-88430414D01*
X100888094Y-88430414D02*
X100840475Y-88335176D01*
X100840475Y-88335176D02*
X100745237Y-88239938D01*
X100745237Y-88239938D02*
X100602380Y-88192319D01*
X100602380Y-88192319D02*
X100507142Y-88192319D01*
X100507142Y-88192319D02*
X100364285Y-88239938D01*
X100364285Y-88239938D02*
X100316666Y-88287557D01*
X99888094Y-89192319D02*
X99888094Y-88192319D01*
X99888094Y-88192319D02*
X99507142Y-88192319D01*
X99507142Y-88192319D02*
X99411904Y-88239938D01*
X99411904Y-88239938D02*
X99364285Y-88287557D01*
X99364285Y-88287557D02*
X99316666Y-88382795D01*
X99316666Y-88382795D02*
X99316666Y-88525652D01*
X99316666Y-88525652D02*
X99364285Y-88620890D01*
X99364285Y-88620890D02*
X99411904Y-88668509D01*
X99411904Y-88668509D02*
X99507142Y-88716128D01*
X99507142Y-88716128D02*
X99888094Y-88716128D01*
X98364285Y-89192319D02*
X98935713Y-89192319D01*
X98649999Y-89192319D02*
X98649999Y-88192319D01*
X98649999Y-88192319D02*
X98745237Y-88335176D01*
X98745237Y-88335176D02*
X98840475Y-88430414D01*
X98840475Y-88430414D02*
X98935713Y-88478033D01*
X103716666Y-103397080D02*
X103764285Y-103444700D01*
X103764285Y-103444700D02*
X103907142Y-103492319D01*
X103907142Y-103492319D02*
X104002380Y-103492319D01*
X104002380Y-103492319D02*
X104145237Y-103444700D01*
X104145237Y-103444700D02*
X104240475Y-103349461D01*
X104240475Y-103349461D02*
X104288094Y-103254223D01*
X104288094Y-103254223D02*
X104335713Y-103063747D01*
X104335713Y-103063747D02*
X104335713Y-102920890D01*
X104335713Y-102920890D02*
X104288094Y-102730414D01*
X104288094Y-102730414D02*
X104240475Y-102635176D01*
X104240475Y-102635176D02*
X104145237Y-102539938D01*
X104145237Y-102539938D02*
X104002380Y-102492319D01*
X104002380Y-102492319D02*
X103907142Y-102492319D01*
X103907142Y-102492319D02*
X103764285Y-102539938D01*
X103764285Y-102539938D02*
X103716666Y-102587557D01*
X103288094Y-103492319D02*
X103288094Y-102492319D01*
X103288094Y-102492319D02*
X102907142Y-102492319D01*
X102907142Y-102492319D02*
X102811904Y-102539938D01*
X102811904Y-102539938D02*
X102764285Y-102587557D01*
X102764285Y-102587557D02*
X102716666Y-102682795D01*
X102716666Y-102682795D02*
X102716666Y-102825652D01*
X102716666Y-102825652D02*
X102764285Y-102920890D01*
X102764285Y-102920890D02*
X102811904Y-102968509D01*
X102811904Y-102968509D02*
X102907142Y-103016128D01*
X102907142Y-103016128D02*
X103288094Y-103016128D01*
X102335713Y-102587557D02*
X102288094Y-102539938D01*
X102288094Y-102539938D02*
X102192856Y-102492319D01*
X102192856Y-102492319D02*
X101954761Y-102492319D01*
X101954761Y-102492319D02*
X101859523Y-102539938D01*
X101859523Y-102539938D02*
X101811904Y-102587557D01*
X101811904Y-102587557D02*
X101764285Y-102682795D01*
X101764285Y-102682795D02*
X101764285Y-102778033D01*
X101764285Y-102778033D02*
X101811904Y-102920890D01*
X101811904Y-102920890D02*
X102383332Y-103492319D01*
X102383332Y-103492319D02*
X101764285Y-103492319D01*
X146766666Y-93359580D02*
X146814285Y-93407200D01*
X146814285Y-93407200D02*
X146957142Y-93454819D01*
X146957142Y-93454819D02*
X147052380Y-93454819D01*
X147052380Y-93454819D02*
X147195237Y-93407200D01*
X147195237Y-93407200D02*
X147290475Y-93311961D01*
X147290475Y-93311961D02*
X147338094Y-93216723D01*
X147338094Y-93216723D02*
X147385713Y-93026247D01*
X147385713Y-93026247D02*
X147385713Y-92883390D01*
X147385713Y-92883390D02*
X147338094Y-92692914D01*
X147338094Y-92692914D02*
X147290475Y-92597676D01*
X147290475Y-92597676D02*
X147195237Y-92502438D01*
X147195237Y-92502438D02*
X147052380Y-92454819D01*
X147052380Y-92454819D02*
X146957142Y-92454819D01*
X146957142Y-92454819D02*
X146814285Y-92502438D01*
X146814285Y-92502438D02*
X146766666Y-92550057D01*
X146290475Y-93454819D02*
X146099999Y-93454819D01*
X146099999Y-93454819D02*
X146004761Y-93407200D01*
X146004761Y-93407200D02*
X145957142Y-93359580D01*
X145957142Y-93359580D02*
X145861904Y-93216723D01*
X145861904Y-93216723D02*
X145814285Y-93026247D01*
X145814285Y-93026247D02*
X145814285Y-92645295D01*
X145814285Y-92645295D02*
X145861904Y-92550057D01*
X145861904Y-92550057D02*
X145909523Y-92502438D01*
X145909523Y-92502438D02*
X146004761Y-92454819D01*
X146004761Y-92454819D02*
X146195237Y-92454819D01*
X146195237Y-92454819D02*
X146290475Y-92502438D01*
X146290475Y-92502438D02*
X146338094Y-92550057D01*
X146338094Y-92550057D02*
X146385713Y-92645295D01*
X146385713Y-92645295D02*
X146385713Y-92883390D01*
X146385713Y-92883390D02*
X146338094Y-92978628D01*
X146338094Y-92978628D02*
X146290475Y-93026247D01*
X146290475Y-93026247D02*
X146195237Y-93073866D01*
X146195237Y-93073866D02*
X146004761Y-93073866D01*
X146004761Y-93073866D02*
X145909523Y-93026247D01*
X145909523Y-93026247D02*
X145861904Y-92978628D01*
X145861904Y-92978628D02*
X145814285Y-92883390D01*
X91992857Y-133592319D02*
X92326190Y-133116128D01*
X92564285Y-133592319D02*
X92564285Y-132592319D01*
X92564285Y-132592319D02*
X92183333Y-132592319D01*
X92183333Y-132592319D02*
X92088095Y-132639938D01*
X92088095Y-132639938D02*
X92040476Y-132687557D01*
X92040476Y-132687557D02*
X91992857Y-132782795D01*
X91992857Y-132782795D02*
X91992857Y-132925652D01*
X91992857Y-132925652D02*
X92040476Y-133020890D01*
X92040476Y-133020890D02*
X92088095Y-133068509D01*
X92088095Y-133068509D02*
X92183333Y-133116128D01*
X92183333Y-133116128D02*
X92564285Y-133116128D01*
X91564285Y-133592319D02*
X91564285Y-132592319D01*
X91564285Y-132592319D02*
X91183333Y-132592319D01*
X91183333Y-132592319D02*
X91088095Y-132639938D01*
X91088095Y-132639938D02*
X91040476Y-132687557D01*
X91040476Y-132687557D02*
X90992857Y-132782795D01*
X90992857Y-132782795D02*
X90992857Y-132925652D01*
X90992857Y-132925652D02*
X91040476Y-133020890D01*
X91040476Y-133020890D02*
X91088095Y-133068509D01*
X91088095Y-133068509D02*
X91183333Y-133116128D01*
X91183333Y-133116128D02*
X91564285Y-133116128D01*
X90040476Y-133592319D02*
X90611904Y-133592319D01*
X90326190Y-133592319D02*
X90326190Y-132592319D01*
X90326190Y-132592319D02*
X90421428Y-132735176D01*
X90421428Y-132735176D02*
X90516666Y-132830414D01*
X90516666Y-132830414D02*
X90611904Y-132878033D01*
X89135714Y-132592319D02*
X89611904Y-132592319D01*
X89611904Y-132592319D02*
X89659523Y-133068509D01*
X89659523Y-133068509D02*
X89611904Y-133020890D01*
X89611904Y-133020890D02*
X89516666Y-132973271D01*
X89516666Y-132973271D02*
X89278571Y-132973271D01*
X89278571Y-132973271D02*
X89183333Y-133020890D01*
X89183333Y-133020890D02*
X89135714Y-133068509D01*
X89135714Y-133068509D02*
X89088095Y-133163747D01*
X89088095Y-133163747D02*
X89088095Y-133401842D01*
X89088095Y-133401842D02*
X89135714Y-133497080D01*
X89135714Y-133497080D02*
X89183333Y-133544700D01*
X89183333Y-133544700D02*
X89278571Y-133592319D01*
X89278571Y-133592319D02*
X89516666Y-133592319D01*
X89516666Y-133592319D02*
X89611904Y-133544700D01*
X89611904Y-133544700D02*
X89659523Y-133497080D01*
X117245238Y-101987557D02*
X117340476Y-101939938D01*
X117340476Y-101939938D02*
X117435714Y-101844700D01*
X117435714Y-101844700D02*
X117578571Y-101701842D01*
X117578571Y-101701842D02*
X117673809Y-101654223D01*
X117673809Y-101654223D02*
X117769047Y-101654223D01*
X117721428Y-101892319D02*
X117816666Y-101844700D01*
X117816666Y-101844700D02*
X117911904Y-101749461D01*
X117911904Y-101749461D02*
X117959523Y-101558985D01*
X117959523Y-101558985D02*
X117959523Y-101225652D01*
X117959523Y-101225652D02*
X117911904Y-101035176D01*
X117911904Y-101035176D02*
X117816666Y-100939938D01*
X117816666Y-100939938D02*
X117721428Y-100892319D01*
X117721428Y-100892319D02*
X117530952Y-100892319D01*
X117530952Y-100892319D02*
X117435714Y-100939938D01*
X117435714Y-100939938D02*
X117340476Y-101035176D01*
X117340476Y-101035176D02*
X117292857Y-101225652D01*
X117292857Y-101225652D02*
X117292857Y-101558985D01*
X117292857Y-101558985D02*
X117340476Y-101749461D01*
X117340476Y-101749461D02*
X117435714Y-101844700D01*
X117435714Y-101844700D02*
X117530952Y-101892319D01*
X117530952Y-101892319D02*
X117721428Y-101892319D01*
X116340476Y-101892319D02*
X116911904Y-101892319D01*
X116626190Y-101892319D02*
X116626190Y-100892319D01*
X116626190Y-100892319D02*
X116721428Y-101035176D01*
X116721428Y-101035176D02*
X116816666Y-101130414D01*
X116816666Y-101130414D02*
X116911904Y-101178033D01*
X104616666Y-97697080D02*
X104664285Y-97744700D01*
X104664285Y-97744700D02*
X104807142Y-97792319D01*
X104807142Y-97792319D02*
X104902380Y-97792319D01*
X104902380Y-97792319D02*
X105045237Y-97744700D01*
X105045237Y-97744700D02*
X105140475Y-97649461D01*
X105140475Y-97649461D02*
X105188094Y-97554223D01*
X105188094Y-97554223D02*
X105235713Y-97363747D01*
X105235713Y-97363747D02*
X105235713Y-97220890D01*
X105235713Y-97220890D02*
X105188094Y-97030414D01*
X105188094Y-97030414D02*
X105140475Y-96935176D01*
X105140475Y-96935176D02*
X105045237Y-96839938D01*
X105045237Y-96839938D02*
X104902380Y-96792319D01*
X104902380Y-96792319D02*
X104807142Y-96792319D01*
X104807142Y-96792319D02*
X104664285Y-96839938D01*
X104664285Y-96839938D02*
X104616666Y-96887557D01*
X104188094Y-97792319D02*
X104188094Y-96792319D01*
X104188094Y-96792319D02*
X103807142Y-96792319D01*
X103807142Y-96792319D02*
X103711904Y-96839938D01*
X103711904Y-96839938D02*
X103664285Y-96887557D01*
X103664285Y-96887557D02*
X103616666Y-96982795D01*
X103616666Y-96982795D02*
X103616666Y-97125652D01*
X103616666Y-97125652D02*
X103664285Y-97220890D01*
X103664285Y-97220890D02*
X103711904Y-97268509D01*
X103711904Y-97268509D02*
X103807142Y-97316128D01*
X103807142Y-97316128D02*
X104188094Y-97316128D01*
X103283332Y-96792319D02*
X102664285Y-96792319D01*
X102664285Y-96792319D02*
X102997618Y-97173271D01*
X102997618Y-97173271D02*
X102854761Y-97173271D01*
X102854761Y-97173271D02*
X102759523Y-97220890D01*
X102759523Y-97220890D02*
X102711904Y-97268509D01*
X102711904Y-97268509D02*
X102664285Y-97363747D01*
X102664285Y-97363747D02*
X102664285Y-97601842D01*
X102664285Y-97601842D02*
X102711904Y-97697080D01*
X102711904Y-97697080D02*
X102759523Y-97744700D01*
X102759523Y-97744700D02*
X102854761Y-97792319D01*
X102854761Y-97792319D02*
X103140475Y-97792319D01*
X103140475Y-97792319D02*
X103235713Y-97744700D01*
X103235713Y-97744700D02*
X103283332Y-97697080D01*
X145642857Y-86654819D02*
X145976190Y-86178628D01*
X146214285Y-86654819D02*
X146214285Y-85654819D01*
X146214285Y-85654819D02*
X145833333Y-85654819D01*
X145833333Y-85654819D02*
X145738095Y-85702438D01*
X145738095Y-85702438D02*
X145690476Y-85750057D01*
X145690476Y-85750057D02*
X145642857Y-85845295D01*
X145642857Y-85845295D02*
X145642857Y-85988152D01*
X145642857Y-85988152D02*
X145690476Y-86083390D01*
X145690476Y-86083390D02*
X145738095Y-86131009D01*
X145738095Y-86131009D02*
X145833333Y-86178628D01*
X145833333Y-86178628D02*
X146214285Y-86178628D01*
X144690476Y-86654819D02*
X145261904Y-86654819D01*
X144976190Y-86654819D02*
X144976190Y-85654819D01*
X144976190Y-85654819D02*
X145071428Y-85797676D01*
X145071428Y-85797676D02*
X145166666Y-85892914D01*
X145166666Y-85892914D02*
X145261904Y-85940533D01*
X144309523Y-85750057D02*
X144261904Y-85702438D01*
X144261904Y-85702438D02*
X144166666Y-85654819D01*
X144166666Y-85654819D02*
X143928571Y-85654819D01*
X143928571Y-85654819D02*
X143833333Y-85702438D01*
X143833333Y-85702438D02*
X143785714Y-85750057D01*
X143785714Y-85750057D02*
X143738095Y-85845295D01*
X143738095Y-85845295D02*
X143738095Y-85940533D01*
X143738095Y-85940533D02*
X143785714Y-86083390D01*
X143785714Y-86083390D02*
X144357142Y-86654819D01*
X144357142Y-86654819D02*
X143738095Y-86654819D01*
X83142857Y-133492319D02*
X83476190Y-133016128D01*
X83714285Y-133492319D02*
X83714285Y-132492319D01*
X83714285Y-132492319D02*
X83333333Y-132492319D01*
X83333333Y-132492319D02*
X83238095Y-132539938D01*
X83238095Y-132539938D02*
X83190476Y-132587557D01*
X83190476Y-132587557D02*
X83142857Y-132682795D01*
X83142857Y-132682795D02*
X83142857Y-132825652D01*
X83142857Y-132825652D02*
X83190476Y-132920890D01*
X83190476Y-132920890D02*
X83238095Y-132968509D01*
X83238095Y-132968509D02*
X83333333Y-133016128D01*
X83333333Y-133016128D02*
X83714285Y-133016128D01*
X82714285Y-133492319D02*
X82714285Y-132492319D01*
X82714285Y-132492319D02*
X82333333Y-132492319D01*
X82333333Y-132492319D02*
X82238095Y-132539938D01*
X82238095Y-132539938D02*
X82190476Y-132587557D01*
X82190476Y-132587557D02*
X82142857Y-132682795D01*
X82142857Y-132682795D02*
X82142857Y-132825652D01*
X82142857Y-132825652D02*
X82190476Y-132920890D01*
X82190476Y-132920890D02*
X82238095Y-132968509D01*
X82238095Y-132968509D02*
X82333333Y-133016128D01*
X82333333Y-133016128D02*
X82714285Y-133016128D01*
X81190476Y-133492319D02*
X81761904Y-133492319D01*
X81476190Y-133492319D02*
X81476190Y-132492319D01*
X81476190Y-132492319D02*
X81571428Y-132635176D01*
X81571428Y-132635176D02*
X81666666Y-132730414D01*
X81666666Y-132730414D02*
X81761904Y-132778033D01*
X80857142Y-132492319D02*
X80238095Y-132492319D01*
X80238095Y-132492319D02*
X80571428Y-132873271D01*
X80571428Y-132873271D02*
X80428571Y-132873271D01*
X80428571Y-132873271D02*
X80333333Y-132920890D01*
X80333333Y-132920890D02*
X80285714Y-132968509D01*
X80285714Y-132968509D02*
X80238095Y-133063747D01*
X80238095Y-133063747D02*
X80238095Y-133301842D01*
X80238095Y-133301842D02*
X80285714Y-133397080D01*
X80285714Y-133397080D02*
X80333333Y-133444700D01*
X80333333Y-133444700D02*
X80428571Y-133492319D01*
X80428571Y-133492319D02*
X80714285Y-133492319D01*
X80714285Y-133492319D02*
X80809523Y-133444700D01*
X80809523Y-133444700D02*
X80857142Y-133397080D01*
X105592857Y-108792319D02*
X105926190Y-108316128D01*
X106164285Y-108792319D02*
X106164285Y-107792319D01*
X106164285Y-107792319D02*
X105783333Y-107792319D01*
X105783333Y-107792319D02*
X105688095Y-107839938D01*
X105688095Y-107839938D02*
X105640476Y-107887557D01*
X105640476Y-107887557D02*
X105592857Y-107982795D01*
X105592857Y-107982795D02*
X105592857Y-108125652D01*
X105592857Y-108125652D02*
X105640476Y-108220890D01*
X105640476Y-108220890D02*
X105688095Y-108268509D01*
X105688095Y-108268509D02*
X105783333Y-108316128D01*
X105783333Y-108316128D02*
X106164285Y-108316128D01*
X105164285Y-108792319D02*
X105164285Y-107792319D01*
X105164285Y-107792319D02*
X104783333Y-107792319D01*
X104783333Y-107792319D02*
X104688095Y-107839938D01*
X104688095Y-107839938D02*
X104640476Y-107887557D01*
X104640476Y-107887557D02*
X104592857Y-107982795D01*
X104592857Y-107982795D02*
X104592857Y-108125652D01*
X104592857Y-108125652D02*
X104640476Y-108220890D01*
X104640476Y-108220890D02*
X104688095Y-108268509D01*
X104688095Y-108268509D02*
X104783333Y-108316128D01*
X104783333Y-108316128D02*
X105164285Y-108316128D01*
X103640476Y-108792319D02*
X104211904Y-108792319D01*
X103926190Y-108792319D02*
X103926190Y-107792319D01*
X103926190Y-107792319D02*
X104021428Y-107935176D01*
X104021428Y-107935176D02*
X104116666Y-108030414D01*
X104116666Y-108030414D02*
X104211904Y-108078033D01*
X103021428Y-107792319D02*
X102926190Y-107792319D01*
X102926190Y-107792319D02*
X102830952Y-107839938D01*
X102830952Y-107839938D02*
X102783333Y-107887557D01*
X102783333Y-107887557D02*
X102735714Y-107982795D01*
X102735714Y-107982795D02*
X102688095Y-108173271D01*
X102688095Y-108173271D02*
X102688095Y-108411366D01*
X102688095Y-108411366D02*
X102735714Y-108601842D01*
X102735714Y-108601842D02*
X102783333Y-108697080D01*
X102783333Y-108697080D02*
X102830952Y-108744700D01*
X102830952Y-108744700D02*
X102926190Y-108792319D01*
X102926190Y-108792319D02*
X103021428Y-108792319D01*
X103021428Y-108792319D02*
X103116666Y-108744700D01*
X103116666Y-108744700D02*
X103164285Y-108697080D01*
X103164285Y-108697080D02*
X103211904Y-108601842D01*
X103211904Y-108601842D02*
X103259523Y-108411366D01*
X103259523Y-108411366D02*
X103259523Y-108173271D01*
X103259523Y-108173271D02*
X103211904Y-107982795D01*
X103211904Y-107982795D02*
X103164285Y-107887557D01*
X103164285Y-107887557D02*
X103116666Y-107839938D01*
X103116666Y-107839938D02*
X103021428Y-107792319D01*
D12*
%TO.C,CP4*%
X97560000Y-100296920D02*
X97560000Y-100578080D01*
X96540000Y-100296920D02*
X96540000Y-100578080D01*
%TO.C,RP14*%
X86272936Y-134052500D02*
X86727064Y-134052500D01*
X86272936Y-135522500D02*
X86727064Y-135522500D01*
%TO.C,R18*%
X120777064Y-100872500D02*
X120322936Y-100872500D01*
X120777064Y-99402500D02*
X120322936Y-99402500D01*
%TO.C,RP11*%
X105265000Y-101514564D02*
X105265000Y-101060436D01*
X106735000Y-101514564D02*
X106735000Y-101060436D01*
%TO.C,RP4*%
X96527064Y-87735000D02*
X96072936Y-87735000D01*
X96527064Y-86265000D02*
X96072936Y-86265000D01*
%TO.C,U4*%
X158795000Y-90160000D02*
X158795000Y-95460000D01*
X153595000Y-90160000D02*
X158795000Y-90160000D01*
X153595000Y-91810000D02*
X153595000Y-90160000D01*
X158795000Y-95460000D02*
X153595000Y-95460000D01*
X153595000Y-95460000D02*
X153595000Y-93810000D01*
X153595000Y-93810000D02*
G75*
G03*
X153595000Y-91810000I0J1000000D01*
G01*
%TO.C,R5*%
X158435000Y-101672936D02*
X158435000Y-102127064D01*
X156965000Y-101672936D02*
X156965000Y-102127064D01*
%TO.C,RP17*%
X80510000Y-90422936D02*
X80510000Y-94777064D01*
X77090000Y-90422936D02*
X77090000Y-94777064D01*
%TO.C,R17*%
X118377064Y-108672500D02*
X117922936Y-108672500D01*
X118377064Y-107202500D02*
X117922936Y-107202500D01*
%TO.C,R15*%
X145035000Y-89872936D02*
X145035000Y-90327064D01*
X143565000Y-89872936D02*
X143565000Y-90327064D01*
%TO.C,R9*%
X152065000Y-108327064D02*
X152065000Y-107872936D01*
X153535000Y-108327064D02*
X153535000Y-107872936D01*
%TO.C,R14*%
X150735000Y-91572936D02*
X150735000Y-92027064D01*
X149265000Y-91572936D02*
X149265000Y-92027064D01*
%TO.C,RP1*%
X103185000Y-92210436D02*
X103185000Y-92664564D01*
X101715000Y-92210436D02*
X101715000Y-92664564D01*
%TO.C,RP8*%
X96985000Y-134560436D02*
X96985000Y-135014564D01*
X95515000Y-134560436D02*
X95515000Y-135014564D01*
%TO.C,RP9*%
X98772936Y-111052500D02*
X99227064Y-111052500D01*
X98772936Y-112522500D02*
X99227064Y-112522500D01*
%TO.C,RP5*%
X102735000Y-121560436D02*
X102735000Y-122014564D01*
X101265000Y-121560436D02*
X101265000Y-122014564D01*
%TO.C,C4*%
X152113748Y-112540000D02*
X153536252Y-112540000D01*
X152113748Y-115260000D02*
X153536252Y-115260000D01*
%TO.C,U1*%
X100210000Y-94137500D02*
X100210000Y-92187500D01*
X100210000Y-94137500D02*
X100210000Y-96087500D01*
X95090000Y-94137500D02*
X95090000Y-90687500D01*
X95090000Y-94137500D02*
X95090000Y-96087500D01*
%TO.C,C11*%
X122340580Y-111410000D02*
X122059420Y-111410000D01*
X122340580Y-110390000D02*
X122059420Y-110390000D01*
%TO.C,R13*%
X156827064Y-86335000D02*
X156372936Y-86335000D01*
X156827064Y-84865000D02*
X156372936Y-84865000D01*
%TO.C,RP3*%
X100285000Y-100110436D02*
X100285000Y-100564564D01*
X98815000Y-100110436D02*
X98815000Y-100564564D01*
%TO.C,RP16*%
X94735000Y-138060436D02*
X94735000Y-138514564D01*
X93265000Y-138060436D02*
X93265000Y-138514564D01*
%TO.C,L1*%
X128675279Y-88410000D02*
X128349721Y-88410000D01*
X128675279Y-87390000D02*
X128349721Y-87390000D01*
%TO.C,U2*%
X99650000Y-134277500D02*
X98850000Y-134277500D01*
X99650000Y-134277500D02*
X100450000Y-134277500D01*
X99650000Y-137397500D02*
X97850000Y-137397500D01*
X99650000Y-137397500D02*
X100450000Y-137397500D01*
%TO.C,C5*%
X158140580Y-110510000D02*
X157859420Y-110510000D01*
X158140580Y-109490000D02*
X157859420Y-109490000D01*
%TO.C,RP6*%
X102735000Y-126060436D02*
X102735000Y-126514564D01*
X101265000Y-126060436D02*
X101265000Y-126514564D01*
%TO.C,U3*%
X157760000Y-106000000D02*
X157760000Y-105200000D01*
X157760000Y-106000000D02*
X157760000Y-106800000D01*
X154640000Y-106000000D02*
X154640000Y-104200000D01*
X154640000Y-106000000D02*
X154640000Y-106800000D01*
%TO.C,RP2*%
X84510000Y-90422936D02*
X84510000Y-94777064D01*
X81090000Y-90422936D02*
X81090000Y-94777064D01*
%TO.C,U5*%
X147540000Y-87400000D02*
X147540000Y-88200000D01*
X147540000Y-87400000D02*
X147540000Y-86600000D01*
X150660000Y-87400000D02*
X150660000Y-89200000D01*
X150660000Y-87400000D02*
X150660000Y-86600000D01*
%TO.C,RP12*%
X105265000Y-94514564D02*
X105265000Y-94060436D01*
X106735000Y-94514564D02*
X106735000Y-94060436D01*
%TO.C,RP7*%
X102735000Y-130810436D02*
X102735000Y-131264564D01*
X101265000Y-130810436D02*
X101265000Y-131264564D01*
%TO.C,C7*%
X157040580Y-99810000D02*
X156759420Y-99810000D01*
X157040580Y-98790000D02*
X156759420Y-98790000D01*
%TO.C,R19*%
X158290000Y-132177064D02*
X158290000Y-127822936D01*
X161710000Y-132177064D02*
X161710000Y-127822936D01*
%TO.C,C2*%
X96660000Y-138196920D02*
X96660000Y-138478080D01*
X95640000Y-138196920D02*
X95640000Y-138478080D01*
%TO.C,R10*%
X156265000Y-114027064D02*
X156265000Y-113572936D01*
X157735000Y-114027064D02*
X157735000Y-113572936D01*
%TO.C,R11*%
X126735000Y-107072936D02*
X126735000Y-107527064D01*
X125265000Y-107072936D02*
X125265000Y-107527064D01*
%TO.C,CP1*%
X96490580Y-89547500D02*
X96209420Y-89547500D01*
X96490580Y-88527500D02*
X96209420Y-88527500D01*
%TO.C,CP2*%
X101140000Y-100478080D02*
X101140000Y-100196920D01*
X102160000Y-100478080D02*
X102160000Y-100196920D01*
%TO.C,C9*%
X146810000Y-89959420D02*
X146810000Y-90240580D01*
X145790000Y-89959420D02*
X145790000Y-90240580D01*
%TO.C,RP15*%
X90772936Y-134052500D02*
X91227064Y-134052500D01*
X90772936Y-135522500D02*
X91227064Y-135522500D01*
%TO.C,Q1*%
X116790000Y-104237500D02*
X116790000Y-104887500D01*
X116790000Y-104237500D02*
X116790000Y-103587500D01*
X119910000Y-104237500D02*
X119910000Y-105912500D01*
X119910000Y-104237500D02*
X119910000Y-103587500D01*
%TO.C,CP3*%
X102160000Y-96896920D02*
X102160000Y-97178080D01*
X101140000Y-96896920D02*
X101140000Y-97178080D01*
%TO.C,R12*%
X145227064Y-85135000D02*
X144772936Y-85135000D01*
X145227064Y-83665000D02*
X144772936Y-83665000D01*
%TO.C,RP13*%
X81772936Y-134052500D02*
X82227064Y-134052500D01*
X81772936Y-135522500D02*
X82227064Y-135522500D01*
%TO.C,RP10*%
X103765000Y-111014564D02*
X103765000Y-110560436D01*
X105235000Y-111014564D02*
X105235000Y-110560436D01*
%TD*%
M02*
