%TF.GenerationSoftware,KiCad,Pcbnew,7.0.8-7.0.8~ubuntu22.04.1*%
%TF.CreationDate,2023-10-18T11:11:40+03:00*%
%TF.ProjectId,supply-uv,73757070-6c79-42d7-9576-2e6b69636164,rev?*%
%TF.SameCoordinates,Original*%
%TF.FileFunction,Legend,Top*%
%TF.FilePolarity,Positive*%
%FSLAX46Y46*%
G04 Gerber Fmt 4.6, Leading zero omitted, Abs format (unit mm)*
G04 Created by KiCad (PCBNEW 7.0.8-7.0.8~ubuntu22.04.1) date 2023-10-18 11:11:40*
%MOMM*%
%LPD*%
G01*
G04 APERTURE LIST*
%ADD10C,0.150000*%
%ADD11C,0.300000*%
%ADD12C,0.120000*%
G04 APERTURE END LIST*
D10*
X129109524Y-106759819D02*
X129109524Y-105759819D01*
X129109524Y-105759819D02*
X129490476Y-105759819D01*
X129490476Y-105759819D02*
X129585714Y-105807438D01*
X129585714Y-105807438D02*
X129633333Y-105855057D01*
X129633333Y-105855057D02*
X129680952Y-105950295D01*
X129680952Y-105950295D02*
X129680952Y-106093152D01*
X129680952Y-106093152D02*
X129633333Y-106188390D01*
X129633333Y-106188390D02*
X129585714Y-106236009D01*
X129585714Y-106236009D02*
X129490476Y-106283628D01*
X129490476Y-106283628D02*
X129109524Y-106283628D01*
X130442857Y-106236009D02*
X130109524Y-106236009D01*
X130109524Y-106759819D02*
X130109524Y-105759819D01*
X130109524Y-105759819D02*
X130585714Y-105759819D01*
X131538095Y-106664580D02*
X131490476Y-106712200D01*
X131490476Y-106712200D02*
X131347619Y-106759819D01*
X131347619Y-106759819D02*
X131252381Y-106759819D01*
X131252381Y-106759819D02*
X131109524Y-106712200D01*
X131109524Y-106712200D02*
X131014286Y-106616961D01*
X131014286Y-106616961D02*
X130966667Y-106521723D01*
X130966667Y-106521723D02*
X130919048Y-106331247D01*
X130919048Y-106331247D02*
X130919048Y-106188390D01*
X130919048Y-106188390D02*
X130966667Y-105997914D01*
X130966667Y-105997914D02*
X131014286Y-105902676D01*
X131014286Y-105902676D02*
X131109524Y-105807438D01*
X131109524Y-105807438D02*
X131252381Y-105759819D01*
X131252381Y-105759819D02*
X131347619Y-105759819D01*
X131347619Y-105759819D02*
X131490476Y-105807438D01*
X131490476Y-105807438D02*
X131538095Y-105855057D01*
X129680952Y-108369819D02*
X129347619Y-107893628D01*
X129109524Y-108369819D02*
X129109524Y-107369819D01*
X129109524Y-107369819D02*
X129490476Y-107369819D01*
X129490476Y-107369819D02*
X129585714Y-107417438D01*
X129585714Y-107417438D02*
X129633333Y-107465057D01*
X129633333Y-107465057D02*
X129680952Y-107560295D01*
X129680952Y-107560295D02*
X129680952Y-107703152D01*
X129680952Y-107703152D02*
X129633333Y-107798390D01*
X129633333Y-107798390D02*
X129585714Y-107846009D01*
X129585714Y-107846009D02*
X129490476Y-107893628D01*
X129490476Y-107893628D02*
X129109524Y-107893628D01*
X130109524Y-108369819D02*
X130109524Y-107369819D01*
X130109524Y-107369819D02*
X130347619Y-107369819D01*
X130347619Y-107369819D02*
X130490476Y-107417438D01*
X130490476Y-107417438D02*
X130585714Y-107512676D01*
X130585714Y-107512676D02*
X130633333Y-107607914D01*
X130633333Y-107607914D02*
X130680952Y-107798390D01*
X130680952Y-107798390D02*
X130680952Y-107941247D01*
X130680952Y-107941247D02*
X130633333Y-108131723D01*
X130633333Y-108131723D02*
X130585714Y-108226961D01*
X130585714Y-108226961D02*
X130490476Y-108322200D01*
X130490476Y-108322200D02*
X130347619Y-108369819D01*
X130347619Y-108369819D02*
X130109524Y-108369819D01*
X131300000Y-107893628D02*
X131300000Y-108369819D01*
X130966667Y-107369819D02*
X131300000Y-107893628D01*
X131300000Y-107893628D02*
X131633333Y-107369819D01*
D11*
X65845489Y-107529400D02*
X64702632Y-107529400D01*
X123945489Y-135829400D02*
X122802632Y-135829400D01*
X123374060Y-136400828D02*
X123374060Y-135257971D01*
D10*
X117889160Y-107612200D02*
X118032017Y-107659819D01*
X118032017Y-107659819D02*
X118270112Y-107659819D01*
X118270112Y-107659819D02*
X118365350Y-107612200D01*
X118365350Y-107612200D02*
X118412969Y-107564580D01*
X118412969Y-107564580D02*
X118460588Y-107469342D01*
X118460588Y-107469342D02*
X118460588Y-107374104D01*
X118460588Y-107374104D02*
X118412969Y-107278866D01*
X118412969Y-107278866D02*
X118365350Y-107231247D01*
X118365350Y-107231247D02*
X118270112Y-107183628D01*
X118270112Y-107183628D02*
X118079636Y-107136009D01*
X118079636Y-107136009D02*
X117984398Y-107088390D01*
X117984398Y-107088390D02*
X117936779Y-107040771D01*
X117936779Y-107040771D02*
X117889160Y-106945533D01*
X117889160Y-106945533D02*
X117889160Y-106850295D01*
X117889160Y-106850295D02*
X117936779Y-106755057D01*
X117936779Y-106755057D02*
X117984398Y-106707438D01*
X117984398Y-106707438D02*
X118079636Y-106659819D01*
X118079636Y-106659819D02*
X118317731Y-106659819D01*
X118317731Y-106659819D02*
X118460588Y-106707438D01*
X118746303Y-106659819D02*
X119317731Y-106659819D01*
X119032017Y-107659819D02*
X119032017Y-106659819D01*
X119984398Y-107136009D02*
X120127255Y-107183628D01*
X120127255Y-107183628D02*
X120174874Y-107231247D01*
X120174874Y-107231247D02*
X120222493Y-107326485D01*
X120222493Y-107326485D02*
X120222493Y-107469342D01*
X120222493Y-107469342D02*
X120174874Y-107564580D01*
X120174874Y-107564580D02*
X120127255Y-107612200D01*
X120127255Y-107612200D02*
X120032017Y-107659819D01*
X120032017Y-107659819D02*
X119651065Y-107659819D01*
X119651065Y-107659819D02*
X119651065Y-106659819D01*
X119651065Y-106659819D02*
X119984398Y-106659819D01*
X119984398Y-106659819D02*
X120079636Y-106707438D01*
X120079636Y-106707438D02*
X120127255Y-106755057D01*
X120127255Y-106755057D02*
X120174874Y-106850295D01*
X120174874Y-106850295D02*
X120174874Y-106945533D01*
X120174874Y-106945533D02*
X120127255Y-107040771D01*
X120127255Y-107040771D02*
X120079636Y-107088390D01*
X120079636Y-107088390D02*
X119984398Y-107136009D01*
X119984398Y-107136009D02*
X119651065Y-107136009D01*
X118127255Y-108269819D02*
X118317731Y-108269819D01*
X118317731Y-108269819D02*
X118412969Y-108317438D01*
X118412969Y-108317438D02*
X118508207Y-108412676D01*
X118508207Y-108412676D02*
X118555826Y-108603152D01*
X118555826Y-108603152D02*
X118555826Y-108936485D01*
X118555826Y-108936485D02*
X118508207Y-109126961D01*
X118508207Y-109126961D02*
X118412969Y-109222200D01*
X118412969Y-109222200D02*
X118317731Y-109269819D01*
X118317731Y-109269819D02*
X118127255Y-109269819D01*
X118127255Y-109269819D02*
X118032017Y-109222200D01*
X118032017Y-109222200D02*
X117936779Y-109126961D01*
X117936779Y-109126961D02*
X117889160Y-108936485D01*
X117889160Y-108936485D02*
X117889160Y-108603152D01*
X117889160Y-108603152D02*
X117936779Y-108412676D01*
X117936779Y-108412676D02*
X118032017Y-108317438D01*
X118032017Y-108317438D02*
X118127255Y-108269819D01*
X118984398Y-109269819D02*
X118984398Y-108269819D01*
X119555826Y-109269819D02*
X119127255Y-108698390D01*
X119555826Y-108269819D02*
X118984398Y-108841247D01*
X130460588Y-141204938D02*
X130365350Y-141157319D01*
X130365350Y-141157319D02*
X130222493Y-141157319D01*
X130222493Y-141157319D02*
X130079636Y-141204938D01*
X130079636Y-141204938D02*
X129984398Y-141300176D01*
X129984398Y-141300176D02*
X129936779Y-141395414D01*
X129936779Y-141395414D02*
X129889160Y-141585890D01*
X129889160Y-141585890D02*
X129889160Y-141728747D01*
X129889160Y-141728747D02*
X129936779Y-141919223D01*
X129936779Y-141919223D02*
X129984398Y-142014461D01*
X129984398Y-142014461D02*
X130079636Y-142109700D01*
X130079636Y-142109700D02*
X130222493Y-142157319D01*
X130222493Y-142157319D02*
X130317731Y-142157319D01*
X130317731Y-142157319D02*
X130460588Y-142109700D01*
X130460588Y-142109700D02*
X130508207Y-142062080D01*
X130508207Y-142062080D02*
X130508207Y-141728747D01*
X130508207Y-141728747D02*
X130317731Y-141728747D01*
X130936779Y-142157319D02*
X130936779Y-141157319D01*
X130936779Y-141157319D02*
X131508207Y-142157319D01*
X131508207Y-142157319D02*
X131508207Y-141157319D01*
X131984398Y-142157319D02*
X131984398Y-141157319D01*
X131984398Y-141157319D02*
X132222493Y-141157319D01*
X132222493Y-141157319D02*
X132365350Y-141204938D01*
X132365350Y-141204938D02*
X132460588Y-141300176D01*
X132460588Y-141300176D02*
X132508207Y-141395414D01*
X132508207Y-141395414D02*
X132555826Y-141585890D01*
X132555826Y-141585890D02*
X132555826Y-141728747D01*
X132555826Y-141728747D02*
X132508207Y-141919223D01*
X132508207Y-141919223D02*
X132460588Y-142014461D01*
X132460588Y-142014461D02*
X132365350Y-142109700D01*
X132365350Y-142109700D02*
X132222493Y-142157319D01*
X132222493Y-142157319D02*
X131984398Y-142157319D01*
X120083333Y-118662200D02*
X120226190Y-118709819D01*
X120226190Y-118709819D02*
X120464285Y-118709819D01*
X120464285Y-118709819D02*
X120559523Y-118662200D01*
X120559523Y-118662200D02*
X120607142Y-118614580D01*
X120607142Y-118614580D02*
X120654761Y-118519342D01*
X120654761Y-118519342D02*
X120654761Y-118424104D01*
X120654761Y-118424104D02*
X120607142Y-118328866D01*
X120607142Y-118328866D02*
X120559523Y-118281247D01*
X120559523Y-118281247D02*
X120464285Y-118233628D01*
X120464285Y-118233628D02*
X120273809Y-118186009D01*
X120273809Y-118186009D02*
X120178571Y-118138390D01*
X120178571Y-118138390D02*
X120130952Y-118090771D01*
X120130952Y-118090771D02*
X120083333Y-117995533D01*
X120083333Y-117995533D02*
X120083333Y-117900295D01*
X120083333Y-117900295D02*
X120130952Y-117805057D01*
X120130952Y-117805057D02*
X120178571Y-117757438D01*
X120178571Y-117757438D02*
X120273809Y-117709819D01*
X120273809Y-117709819D02*
X120511904Y-117709819D01*
X120511904Y-117709819D02*
X120654761Y-117757438D01*
X120940476Y-117709819D02*
X121511904Y-117709819D01*
X121226190Y-118709819D02*
X121226190Y-117709819D01*
X122178571Y-118186009D02*
X122321428Y-118233628D01*
X122321428Y-118233628D02*
X122369047Y-118281247D01*
X122369047Y-118281247D02*
X122416666Y-118376485D01*
X122416666Y-118376485D02*
X122416666Y-118519342D01*
X122416666Y-118519342D02*
X122369047Y-118614580D01*
X122369047Y-118614580D02*
X122321428Y-118662200D01*
X122321428Y-118662200D02*
X122226190Y-118709819D01*
X122226190Y-118709819D02*
X121845238Y-118709819D01*
X121845238Y-118709819D02*
X121845238Y-117709819D01*
X121845238Y-117709819D02*
X122178571Y-117709819D01*
X122178571Y-117709819D02*
X122273809Y-117757438D01*
X122273809Y-117757438D02*
X122321428Y-117805057D01*
X122321428Y-117805057D02*
X122369047Y-117900295D01*
X122369047Y-117900295D02*
X122369047Y-117995533D01*
X122369047Y-117995533D02*
X122321428Y-118090771D01*
X122321428Y-118090771D02*
X122273809Y-118138390D01*
X122273809Y-118138390D02*
X122178571Y-118186009D01*
X122178571Y-118186009D02*
X121845238Y-118186009D01*
X120511905Y-119796009D02*
X120845238Y-119796009D01*
X120988095Y-120319819D02*
X120511905Y-120319819D01*
X120511905Y-120319819D02*
X120511905Y-119319819D01*
X120511905Y-119319819D02*
X120988095Y-119319819D01*
X121416667Y-120319819D02*
X121416667Y-119319819D01*
X121416667Y-119319819D02*
X121988095Y-120319819D01*
X121988095Y-120319819D02*
X121988095Y-119319819D01*
X128836779Y-103488866D02*
X129598684Y-103488866D01*
X129217731Y-103869819D02*
X129217731Y-103107914D01*
X131386779Y-47719819D02*
X131386779Y-46719819D01*
X131386779Y-46719819D02*
X131767731Y-46719819D01*
X131767731Y-46719819D02*
X131862969Y-46767438D01*
X131862969Y-46767438D02*
X131910588Y-46815057D01*
X131910588Y-46815057D02*
X131958207Y-46910295D01*
X131958207Y-46910295D02*
X131958207Y-47053152D01*
X131958207Y-47053152D02*
X131910588Y-47148390D01*
X131910588Y-47148390D02*
X131862969Y-47196009D01*
X131862969Y-47196009D02*
X131767731Y-47243628D01*
X131767731Y-47243628D02*
X131386779Y-47243628D01*
X132386779Y-47196009D02*
X132720112Y-47196009D01*
X132862969Y-47719819D02*
X132386779Y-47719819D01*
X132386779Y-47719819D02*
X132386779Y-46719819D01*
X132386779Y-46719819D02*
X132862969Y-46719819D01*
D11*
X123945489Y-141929400D02*
X122802632Y-141929400D01*
D10*
X115633333Y-90812200D02*
X115776190Y-90859819D01*
X115776190Y-90859819D02*
X116014285Y-90859819D01*
X116014285Y-90859819D02*
X116109523Y-90812200D01*
X116109523Y-90812200D02*
X116157142Y-90764580D01*
X116157142Y-90764580D02*
X116204761Y-90669342D01*
X116204761Y-90669342D02*
X116204761Y-90574104D01*
X116204761Y-90574104D02*
X116157142Y-90478866D01*
X116157142Y-90478866D02*
X116109523Y-90431247D01*
X116109523Y-90431247D02*
X116014285Y-90383628D01*
X116014285Y-90383628D02*
X115823809Y-90336009D01*
X115823809Y-90336009D02*
X115728571Y-90288390D01*
X115728571Y-90288390D02*
X115680952Y-90240771D01*
X115680952Y-90240771D02*
X115633333Y-90145533D01*
X115633333Y-90145533D02*
X115633333Y-90050295D01*
X115633333Y-90050295D02*
X115680952Y-89955057D01*
X115680952Y-89955057D02*
X115728571Y-89907438D01*
X115728571Y-89907438D02*
X115823809Y-89859819D01*
X115823809Y-89859819D02*
X116061904Y-89859819D01*
X116061904Y-89859819D02*
X116204761Y-89907438D01*
X116490476Y-89859819D02*
X117061904Y-89859819D01*
X116776190Y-90859819D02*
X116776190Y-89859819D01*
X117728571Y-90336009D02*
X117871428Y-90383628D01*
X117871428Y-90383628D02*
X117919047Y-90431247D01*
X117919047Y-90431247D02*
X117966666Y-90526485D01*
X117966666Y-90526485D02*
X117966666Y-90669342D01*
X117966666Y-90669342D02*
X117919047Y-90764580D01*
X117919047Y-90764580D02*
X117871428Y-90812200D01*
X117871428Y-90812200D02*
X117776190Y-90859819D01*
X117776190Y-90859819D02*
X117395238Y-90859819D01*
X117395238Y-90859819D02*
X117395238Y-89859819D01*
X117395238Y-89859819D02*
X117728571Y-89859819D01*
X117728571Y-89859819D02*
X117823809Y-89907438D01*
X117823809Y-89907438D02*
X117871428Y-89955057D01*
X117871428Y-89955057D02*
X117919047Y-90050295D01*
X117919047Y-90050295D02*
X117919047Y-90145533D01*
X117919047Y-90145533D02*
X117871428Y-90240771D01*
X117871428Y-90240771D02*
X117823809Y-90288390D01*
X117823809Y-90288390D02*
X117728571Y-90336009D01*
X117728571Y-90336009D02*
X117395238Y-90336009D01*
X115466667Y-91469819D02*
X115800000Y-92469819D01*
X115800000Y-92469819D02*
X116133333Y-91469819D01*
X117038095Y-92374580D02*
X116990476Y-92422200D01*
X116990476Y-92422200D02*
X116847619Y-92469819D01*
X116847619Y-92469819D02*
X116752381Y-92469819D01*
X116752381Y-92469819D02*
X116609524Y-92422200D01*
X116609524Y-92422200D02*
X116514286Y-92326961D01*
X116514286Y-92326961D02*
X116466667Y-92231723D01*
X116466667Y-92231723D02*
X116419048Y-92041247D01*
X116419048Y-92041247D02*
X116419048Y-91898390D01*
X116419048Y-91898390D02*
X116466667Y-91707914D01*
X116466667Y-91707914D02*
X116514286Y-91612676D01*
X116514286Y-91612676D02*
X116609524Y-91517438D01*
X116609524Y-91517438D02*
X116752381Y-91469819D01*
X116752381Y-91469819D02*
X116847619Y-91469819D01*
X116847619Y-91469819D02*
X116990476Y-91517438D01*
X116990476Y-91517438D02*
X117038095Y-91565057D01*
X118038095Y-92374580D02*
X117990476Y-92422200D01*
X117990476Y-92422200D02*
X117847619Y-92469819D01*
X117847619Y-92469819D02*
X117752381Y-92469819D01*
X117752381Y-92469819D02*
X117609524Y-92422200D01*
X117609524Y-92422200D02*
X117514286Y-92326961D01*
X117514286Y-92326961D02*
X117466667Y-92231723D01*
X117466667Y-92231723D02*
X117419048Y-92041247D01*
X117419048Y-92041247D02*
X117419048Y-91898390D01*
X117419048Y-91898390D02*
X117466667Y-91707914D01*
X117466667Y-91707914D02*
X117514286Y-91612676D01*
X117514286Y-91612676D02*
X117609524Y-91517438D01*
X117609524Y-91517438D02*
X117752381Y-91469819D01*
X117752381Y-91469819D02*
X117847619Y-91469819D01*
X117847619Y-91469819D02*
X117990476Y-91517438D01*
X117990476Y-91517438D02*
X118038095Y-91565057D01*
D11*
X65845489Y-113429400D02*
X64702632Y-113429400D01*
X65274060Y-114000828D02*
X65274060Y-112857971D01*
D10*
X129536779Y-135776366D02*
X130298684Y-135776366D01*
X129917731Y-136157319D02*
X129917731Y-135395414D01*
X131203445Y-135490652D02*
X131203445Y-136157319D01*
X130965350Y-135109700D02*
X130727255Y-135823985D01*
X130727255Y-135823985D02*
X131346302Y-135823985D01*
X131917731Y-135157319D02*
X132012969Y-135157319D01*
X132012969Y-135157319D02*
X132108207Y-135204938D01*
X132108207Y-135204938D02*
X132155826Y-135252557D01*
X132155826Y-135252557D02*
X132203445Y-135347795D01*
X132203445Y-135347795D02*
X132251064Y-135538271D01*
X132251064Y-135538271D02*
X132251064Y-135776366D01*
X132251064Y-135776366D02*
X132203445Y-135966842D01*
X132203445Y-135966842D02*
X132155826Y-136062080D01*
X132155826Y-136062080D02*
X132108207Y-136109700D01*
X132108207Y-136109700D02*
X132012969Y-136157319D01*
X132012969Y-136157319D02*
X131917731Y-136157319D01*
X131917731Y-136157319D02*
X131822493Y-136109700D01*
X131822493Y-136109700D02*
X131774874Y-136062080D01*
X131774874Y-136062080D02*
X131727255Y-135966842D01*
X131727255Y-135966842D02*
X131679636Y-135776366D01*
X131679636Y-135776366D02*
X131679636Y-135538271D01*
X131679636Y-135538271D02*
X131727255Y-135347795D01*
X131727255Y-135347795D02*
X131774874Y-135252557D01*
X131774874Y-135252557D02*
X131822493Y-135204938D01*
X131822493Y-135204938D02*
X131917731Y-135157319D01*
X132870112Y-135157319D02*
X132965350Y-135157319D01*
X132965350Y-135157319D02*
X133060588Y-135204938D01*
X133060588Y-135204938D02*
X133108207Y-135252557D01*
X133108207Y-135252557D02*
X133155826Y-135347795D01*
X133155826Y-135347795D02*
X133203445Y-135538271D01*
X133203445Y-135538271D02*
X133203445Y-135776366D01*
X133203445Y-135776366D02*
X133155826Y-135966842D01*
X133155826Y-135966842D02*
X133108207Y-136062080D01*
X133108207Y-136062080D02*
X133060588Y-136109700D01*
X133060588Y-136109700D02*
X132965350Y-136157319D01*
X132965350Y-136157319D02*
X132870112Y-136157319D01*
X132870112Y-136157319D02*
X132774874Y-136109700D01*
X132774874Y-136109700D02*
X132727255Y-136062080D01*
X132727255Y-136062080D02*
X132679636Y-135966842D01*
X132679636Y-135966842D02*
X132632017Y-135776366D01*
X132632017Y-135776366D02*
X132632017Y-135538271D01*
X132632017Y-135538271D02*
X132679636Y-135347795D01*
X132679636Y-135347795D02*
X132727255Y-135252557D01*
X132727255Y-135252557D02*
X132774874Y-135204938D01*
X132774874Y-135204938D02*
X132870112Y-135157319D01*
X133489160Y-135157319D02*
X133822493Y-136157319D01*
X133822493Y-136157319D02*
X134155826Y-135157319D01*
X122236779Y-103988866D02*
X122998684Y-103988866D01*
X122617731Y-104369819D02*
X122617731Y-103607914D01*
X132612969Y-55219819D02*
X132136779Y-55219819D01*
X132136779Y-55219819D02*
X132136779Y-54219819D01*
X125309524Y-106759819D02*
X125309524Y-105759819D01*
X125309524Y-105759819D02*
X125690476Y-105759819D01*
X125690476Y-105759819D02*
X125785714Y-105807438D01*
X125785714Y-105807438D02*
X125833333Y-105855057D01*
X125833333Y-105855057D02*
X125880952Y-105950295D01*
X125880952Y-105950295D02*
X125880952Y-106093152D01*
X125880952Y-106093152D02*
X125833333Y-106188390D01*
X125833333Y-106188390D02*
X125785714Y-106236009D01*
X125785714Y-106236009D02*
X125690476Y-106283628D01*
X125690476Y-106283628D02*
X125309524Y-106283628D01*
X126642857Y-106236009D02*
X126309524Y-106236009D01*
X126309524Y-106759819D02*
X126309524Y-105759819D01*
X126309524Y-105759819D02*
X126785714Y-105759819D01*
X127738095Y-106664580D02*
X127690476Y-106712200D01*
X127690476Y-106712200D02*
X127547619Y-106759819D01*
X127547619Y-106759819D02*
X127452381Y-106759819D01*
X127452381Y-106759819D02*
X127309524Y-106712200D01*
X127309524Y-106712200D02*
X127214286Y-106616961D01*
X127214286Y-106616961D02*
X127166667Y-106521723D01*
X127166667Y-106521723D02*
X127119048Y-106331247D01*
X127119048Y-106331247D02*
X127119048Y-106188390D01*
X127119048Y-106188390D02*
X127166667Y-105997914D01*
X127166667Y-105997914D02*
X127214286Y-105902676D01*
X127214286Y-105902676D02*
X127309524Y-105807438D01*
X127309524Y-105807438D02*
X127452381Y-105759819D01*
X127452381Y-105759819D02*
X127547619Y-105759819D01*
X127547619Y-105759819D02*
X127690476Y-105807438D01*
X127690476Y-105807438D02*
X127738095Y-105855057D01*
X125761905Y-107846009D02*
X126095238Y-107846009D01*
X126238095Y-108369819D02*
X125761905Y-108369819D01*
X125761905Y-108369819D02*
X125761905Y-107369819D01*
X125761905Y-107369819D02*
X126238095Y-107369819D01*
X126666667Y-108369819D02*
X126666667Y-107369819D01*
X126666667Y-107369819D02*
X127238095Y-108369819D01*
X127238095Y-108369819D02*
X127238095Y-107369819D01*
X132136779Y-62969819D02*
X132136779Y-61969819D01*
X132136779Y-61969819D02*
X132708207Y-62969819D01*
X132708207Y-62969819D02*
X132708207Y-61969819D01*
X125666666Y-104104819D02*
X125666666Y-104819104D01*
X125666666Y-104819104D02*
X125619047Y-104961961D01*
X125619047Y-104961961D02*
X125523809Y-105057200D01*
X125523809Y-105057200D02*
X125380952Y-105104819D01*
X125380952Y-105104819D02*
X125285714Y-105104819D01*
X126142857Y-105104819D02*
X126142857Y-104104819D01*
X126142857Y-104104819D02*
X126523809Y-104104819D01*
X126523809Y-104104819D02*
X126619047Y-104152438D01*
X126619047Y-104152438D02*
X126666666Y-104200057D01*
X126666666Y-104200057D02*
X126714285Y-104295295D01*
X126714285Y-104295295D02*
X126714285Y-104438152D01*
X126714285Y-104438152D02*
X126666666Y-104533390D01*
X126666666Y-104533390D02*
X126619047Y-104581009D01*
X126619047Y-104581009D02*
X126523809Y-104628628D01*
X126523809Y-104628628D02*
X126142857Y-104628628D01*
X127095238Y-104200057D02*
X127142857Y-104152438D01*
X127142857Y-104152438D02*
X127238095Y-104104819D01*
X127238095Y-104104819D02*
X127476190Y-104104819D01*
X127476190Y-104104819D02*
X127571428Y-104152438D01*
X127571428Y-104152438D02*
X127619047Y-104200057D01*
X127619047Y-104200057D02*
X127666666Y-104295295D01*
X127666666Y-104295295D02*
X127666666Y-104390533D01*
X127666666Y-104390533D02*
X127619047Y-104533390D01*
X127619047Y-104533390D02*
X127047619Y-105104819D01*
X127047619Y-105104819D02*
X127666666Y-105104819D01*
X149704761Y-123950057D02*
X149609523Y-123902438D01*
X149609523Y-123902438D02*
X149514285Y-123807200D01*
X149514285Y-123807200D02*
X149371428Y-123664342D01*
X149371428Y-123664342D02*
X149276190Y-123616723D01*
X149276190Y-123616723D02*
X149180952Y-123616723D01*
X149228571Y-123854819D02*
X149133333Y-123807200D01*
X149133333Y-123807200D02*
X149038095Y-123711961D01*
X149038095Y-123711961D02*
X148990476Y-123521485D01*
X148990476Y-123521485D02*
X148990476Y-123188152D01*
X148990476Y-123188152D02*
X149038095Y-122997676D01*
X149038095Y-122997676D02*
X149133333Y-122902438D01*
X149133333Y-122902438D02*
X149228571Y-122854819D01*
X149228571Y-122854819D02*
X149419047Y-122854819D01*
X149419047Y-122854819D02*
X149514285Y-122902438D01*
X149514285Y-122902438D02*
X149609523Y-122997676D01*
X149609523Y-122997676D02*
X149657142Y-123188152D01*
X149657142Y-123188152D02*
X149657142Y-123521485D01*
X149657142Y-123521485D02*
X149609523Y-123711961D01*
X149609523Y-123711961D02*
X149514285Y-123807200D01*
X149514285Y-123807200D02*
X149419047Y-123854819D01*
X149419047Y-123854819D02*
X149228571Y-123854819D01*
X150085714Y-123854819D02*
X150085714Y-122854819D01*
X150085714Y-122854819D02*
X150466666Y-122854819D01*
X150466666Y-122854819D02*
X150561904Y-122902438D01*
X150561904Y-122902438D02*
X150609523Y-122950057D01*
X150609523Y-122950057D02*
X150657142Y-123045295D01*
X150657142Y-123045295D02*
X150657142Y-123188152D01*
X150657142Y-123188152D02*
X150609523Y-123283390D01*
X150609523Y-123283390D02*
X150561904Y-123331009D01*
X150561904Y-123331009D02*
X150466666Y-123378628D01*
X150466666Y-123378628D02*
X150085714Y-123378628D01*
X151038095Y-122950057D02*
X151085714Y-122902438D01*
X151085714Y-122902438D02*
X151180952Y-122854819D01*
X151180952Y-122854819D02*
X151419047Y-122854819D01*
X151419047Y-122854819D02*
X151514285Y-122902438D01*
X151514285Y-122902438D02*
X151561904Y-122950057D01*
X151561904Y-122950057D02*
X151609523Y-123045295D01*
X151609523Y-123045295D02*
X151609523Y-123140533D01*
X151609523Y-123140533D02*
X151561904Y-123283390D01*
X151561904Y-123283390D02*
X150990476Y-123854819D01*
X150990476Y-123854819D02*
X151609523Y-123854819D01*
X101683333Y-74592319D02*
X101350000Y-74116128D01*
X101111905Y-74592319D02*
X101111905Y-73592319D01*
X101111905Y-73592319D02*
X101492857Y-73592319D01*
X101492857Y-73592319D02*
X101588095Y-73639938D01*
X101588095Y-73639938D02*
X101635714Y-73687557D01*
X101635714Y-73687557D02*
X101683333Y-73782795D01*
X101683333Y-73782795D02*
X101683333Y-73925652D01*
X101683333Y-73925652D02*
X101635714Y-74020890D01*
X101635714Y-74020890D02*
X101588095Y-74068509D01*
X101588095Y-74068509D02*
X101492857Y-74116128D01*
X101492857Y-74116128D02*
X101111905Y-74116128D01*
X102540476Y-73925652D02*
X102540476Y-74592319D01*
X102302381Y-73544700D02*
X102064286Y-74258985D01*
X102064286Y-74258985D02*
X102683333Y-74258985D01*
X121938095Y-97154819D02*
X122509523Y-97154819D01*
X122223809Y-98154819D02*
X122223809Y-97154819D01*
X122842857Y-98154819D02*
X122842857Y-97154819D01*
X122842857Y-97154819D02*
X123223809Y-97154819D01*
X123223809Y-97154819D02*
X123319047Y-97202438D01*
X123319047Y-97202438D02*
X123366666Y-97250057D01*
X123366666Y-97250057D02*
X123414285Y-97345295D01*
X123414285Y-97345295D02*
X123414285Y-97488152D01*
X123414285Y-97488152D02*
X123366666Y-97583390D01*
X123366666Y-97583390D02*
X123319047Y-97631009D01*
X123319047Y-97631009D02*
X123223809Y-97678628D01*
X123223809Y-97678628D02*
X122842857Y-97678628D01*
X124271428Y-97488152D02*
X124271428Y-98154819D01*
X124033333Y-97107200D02*
X123795238Y-97821485D01*
X123795238Y-97821485D02*
X124414285Y-97821485D01*
X122123809Y-99707200D02*
X122266666Y-99754819D01*
X122266666Y-99754819D02*
X122504761Y-99754819D01*
X122504761Y-99754819D02*
X122599999Y-99707200D01*
X122599999Y-99707200D02*
X122647618Y-99659580D01*
X122647618Y-99659580D02*
X122695237Y-99564342D01*
X122695237Y-99564342D02*
X122695237Y-99469104D01*
X122695237Y-99469104D02*
X122647618Y-99373866D01*
X122647618Y-99373866D02*
X122599999Y-99326247D01*
X122599999Y-99326247D02*
X122504761Y-99278628D01*
X122504761Y-99278628D02*
X122314285Y-99231009D01*
X122314285Y-99231009D02*
X122219047Y-99183390D01*
X122219047Y-99183390D02*
X122171428Y-99135771D01*
X122171428Y-99135771D02*
X122123809Y-99040533D01*
X122123809Y-99040533D02*
X122123809Y-98945295D01*
X122123809Y-98945295D02*
X122171428Y-98850057D01*
X122171428Y-98850057D02*
X122219047Y-98802438D01*
X122219047Y-98802438D02*
X122314285Y-98754819D01*
X122314285Y-98754819D02*
X122552380Y-98754819D01*
X122552380Y-98754819D02*
X122695237Y-98802438D01*
X122980952Y-98754819D02*
X123552380Y-98754819D01*
X123266666Y-99754819D02*
X123266666Y-98754819D01*
X124219047Y-99231009D02*
X124361904Y-99278628D01*
X124361904Y-99278628D02*
X124409523Y-99326247D01*
X124409523Y-99326247D02*
X124457142Y-99421485D01*
X124457142Y-99421485D02*
X124457142Y-99564342D01*
X124457142Y-99564342D02*
X124409523Y-99659580D01*
X124409523Y-99659580D02*
X124361904Y-99707200D01*
X124361904Y-99707200D02*
X124266666Y-99754819D01*
X124266666Y-99754819D02*
X123885714Y-99754819D01*
X123885714Y-99754819D02*
X123885714Y-98754819D01*
X123885714Y-98754819D02*
X124219047Y-98754819D01*
X124219047Y-98754819D02*
X124314285Y-98802438D01*
X124314285Y-98802438D02*
X124361904Y-98850057D01*
X124361904Y-98850057D02*
X124409523Y-98945295D01*
X124409523Y-98945295D02*
X124409523Y-99040533D01*
X124409523Y-99040533D02*
X124361904Y-99135771D01*
X124361904Y-99135771D02*
X124314285Y-99183390D01*
X124314285Y-99183390D02*
X124219047Y-99231009D01*
X124219047Y-99231009D02*
X123885714Y-99231009D01*
X125504762Y-98754819D02*
X125838095Y-99754819D01*
X125838095Y-99754819D02*
X126171428Y-98754819D01*
X127076190Y-99659580D02*
X127028571Y-99707200D01*
X127028571Y-99707200D02*
X126885714Y-99754819D01*
X126885714Y-99754819D02*
X126790476Y-99754819D01*
X126790476Y-99754819D02*
X126647619Y-99707200D01*
X126647619Y-99707200D02*
X126552381Y-99611961D01*
X126552381Y-99611961D02*
X126504762Y-99516723D01*
X126504762Y-99516723D02*
X126457143Y-99326247D01*
X126457143Y-99326247D02*
X126457143Y-99183390D01*
X126457143Y-99183390D02*
X126504762Y-98992914D01*
X126504762Y-98992914D02*
X126552381Y-98897676D01*
X126552381Y-98897676D02*
X126647619Y-98802438D01*
X126647619Y-98802438D02*
X126790476Y-98754819D01*
X126790476Y-98754819D02*
X126885714Y-98754819D01*
X126885714Y-98754819D02*
X127028571Y-98802438D01*
X127028571Y-98802438D02*
X127076190Y-98850057D01*
X128076190Y-99659580D02*
X128028571Y-99707200D01*
X128028571Y-99707200D02*
X127885714Y-99754819D01*
X127885714Y-99754819D02*
X127790476Y-99754819D01*
X127790476Y-99754819D02*
X127647619Y-99707200D01*
X127647619Y-99707200D02*
X127552381Y-99611961D01*
X127552381Y-99611961D02*
X127504762Y-99516723D01*
X127504762Y-99516723D02*
X127457143Y-99326247D01*
X127457143Y-99326247D02*
X127457143Y-99183390D01*
X127457143Y-99183390D02*
X127504762Y-98992914D01*
X127504762Y-98992914D02*
X127552381Y-98897676D01*
X127552381Y-98897676D02*
X127647619Y-98802438D01*
X127647619Y-98802438D02*
X127790476Y-98754819D01*
X127790476Y-98754819D02*
X127885714Y-98754819D01*
X127885714Y-98754819D02*
X128028571Y-98802438D01*
X128028571Y-98802438D02*
X128076190Y-98850057D01*
X70111905Y-69892319D02*
X70111905Y-68892319D01*
X70111905Y-68892319D02*
X70350000Y-68892319D01*
X70350000Y-68892319D02*
X70492857Y-68939938D01*
X70492857Y-68939938D02*
X70588095Y-69035176D01*
X70588095Y-69035176D02*
X70635714Y-69130414D01*
X70635714Y-69130414D02*
X70683333Y-69320890D01*
X70683333Y-69320890D02*
X70683333Y-69463747D01*
X70683333Y-69463747D02*
X70635714Y-69654223D01*
X70635714Y-69654223D02*
X70588095Y-69749461D01*
X70588095Y-69749461D02*
X70492857Y-69844700D01*
X70492857Y-69844700D02*
X70350000Y-69892319D01*
X70350000Y-69892319D02*
X70111905Y-69892319D01*
X71635714Y-69892319D02*
X71064286Y-69892319D01*
X71350000Y-69892319D02*
X71350000Y-68892319D01*
X71350000Y-68892319D02*
X71254762Y-69035176D01*
X71254762Y-69035176D02*
X71159524Y-69130414D01*
X71159524Y-69130414D02*
X71064286Y-69178033D01*
X65188095Y-95004819D02*
X65759523Y-95004819D01*
X65473809Y-96004819D02*
X65473809Y-95004819D01*
X66092857Y-96004819D02*
X66092857Y-95004819D01*
X66092857Y-95004819D02*
X66473809Y-95004819D01*
X66473809Y-95004819D02*
X66569047Y-95052438D01*
X66569047Y-95052438D02*
X66616666Y-95100057D01*
X66616666Y-95100057D02*
X66664285Y-95195295D01*
X66664285Y-95195295D02*
X66664285Y-95338152D01*
X66664285Y-95338152D02*
X66616666Y-95433390D01*
X66616666Y-95433390D02*
X66569047Y-95481009D01*
X66569047Y-95481009D02*
X66473809Y-95528628D01*
X66473809Y-95528628D02*
X66092857Y-95528628D01*
X67616666Y-96004819D02*
X67045238Y-96004819D01*
X67330952Y-96004819D02*
X67330952Y-95004819D01*
X67330952Y-95004819D02*
X67235714Y-95147676D01*
X67235714Y-95147676D02*
X67140476Y-95242914D01*
X67140476Y-95242914D02*
X67045238Y-95290533D01*
X63780952Y-97854819D02*
X63780952Y-96854819D01*
X63780952Y-97331009D02*
X64352380Y-97331009D01*
X64352380Y-97854819D02*
X64352380Y-96854819D01*
X64685714Y-96854819D02*
X65019047Y-97854819D01*
X65019047Y-97854819D02*
X65352380Y-96854819D01*
X66971428Y-96902438D02*
X66876190Y-96854819D01*
X66876190Y-96854819D02*
X66733333Y-96854819D01*
X66733333Y-96854819D02*
X66590476Y-96902438D01*
X66590476Y-96902438D02*
X66495238Y-96997676D01*
X66495238Y-96997676D02*
X66447619Y-97092914D01*
X66447619Y-97092914D02*
X66400000Y-97283390D01*
X66400000Y-97283390D02*
X66400000Y-97426247D01*
X66400000Y-97426247D02*
X66447619Y-97616723D01*
X66447619Y-97616723D02*
X66495238Y-97711961D01*
X66495238Y-97711961D02*
X66590476Y-97807200D01*
X66590476Y-97807200D02*
X66733333Y-97854819D01*
X66733333Y-97854819D02*
X66828571Y-97854819D01*
X66828571Y-97854819D02*
X66971428Y-97807200D01*
X66971428Y-97807200D02*
X67019047Y-97759580D01*
X67019047Y-97759580D02*
X67019047Y-97426247D01*
X67019047Y-97426247D02*
X66828571Y-97426247D01*
X67447619Y-97854819D02*
X67447619Y-96854819D01*
X67447619Y-96854819D02*
X68019047Y-97854819D01*
X68019047Y-97854819D02*
X68019047Y-96854819D01*
X68495238Y-97854819D02*
X68495238Y-96854819D01*
X68495238Y-96854819D02*
X68733333Y-96854819D01*
X68733333Y-96854819D02*
X68876190Y-96902438D01*
X68876190Y-96902438D02*
X68971428Y-96997676D01*
X68971428Y-96997676D02*
X69019047Y-97092914D01*
X69019047Y-97092914D02*
X69066666Y-97283390D01*
X69066666Y-97283390D02*
X69066666Y-97426247D01*
X69066666Y-97426247D02*
X69019047Y-97616723D01*
X69019047Y-97616723D02*
X68971428Y-97711961D01*
X68971428Y-97711961D02*
X68876190Y-97807200D01*
X68876190Y-97807200D02*
X68733333Y-97854819D01*
X68733333Y-97854819D02*
X68495238Y-97854819D01*
X137383333Y-131004819D02*
X137050000Y-130528628D01*
X136811905Y-131004819D02*
X136811905Y-130004819D01*
X136811905Y-130004819D02*
X137192857Y-130004819D01*
X137192857Y-130004819D02*
X137288095Y-130052438D01*
X137288095Y-130052438D02*
X137335714Y-130100057D01*
X137335714Y-130100057D02*
X137383333Y-130195295D01*
X137383333Y-130195295D02*
X137383333Y-130338152D01*
X137383333Y-130338152D02*
X137335714Y-130433390D01*
X137335714Y-130433390D02*
X137288095Y-130481009D01*
X137288095Y-130481009D02*
X137192857Y-130528628D01*
X137192857Y-130528628D02*
X136811905Y-130528628D01*
X137954762Y-130433390D02*
X137859524Y-130385771D01*
X137859524Y-130385771D02*
X137811905Y-130338152D01*
X137811905Y-130338152D02*
X137764286Y-130242914D01*
X137764286Y-130242914D02*
X137764286Y-130195295D01*
X137764286Y-130195295D02*
X137811905Y-130100057D01*
X137811905Y-130100057D02*
X137859524Y-130052438D01*
X137859524Y-130052438D02*
X137954762Y-130004819D01*
X137954762Y-130004819D02*
X138145238Y-130004819D01*
X138145238Y-130004819D02*
X138240476Y-130052438D01*
X138240476Y-130052438D02*
X138288095Y-130100057D01*
X138288095Y-130100057D02*
X138335714Y-130195295D01*
X138335714Y-130195295D02*
X138335714Y-130242914D01*
X138335714Y-130242914D02*
X138288095Y-130338152D01*
X138288095Y-130338152D02*
X138240476Y-130385771D01*
X138240476Y-130385771D02*
X138145238Y-130433390D01*
X138145238Y-130433390D02*
X137954762Y-130433390D01*
X137954762Y-130433390D02*
X137859524Y-130481009D01*
X137859524Y-130481009D02*
X137811905Y-130528628D01*
X137811905Y-130528628D02*
X137764286Y-130623866D01*
X137764286Y-130623866D02*
X137764286Y-130814342D01*
X137764286Y-130814342D02*
X137811905Y-130909580D01*
X137811905Y-130909580D02*
X137859524Y-130957200D01*
X137859524Y-130957200D02*
X137954762Y-131004819D01*
X137954762Y-131004819D02*
X138145238Y-131004819D01*
X138145238Y-131004819D02*
X138240476Y-130957200D01*
X138240476Y-130957200D02*
X138288095Y-130909580D01*
X138288095Y-130909580D02*
X138335714Y-130814342D01*
X138335714Y-130814342D02*
X138335714Y-130623866D01*
X138335714Y-130623866D02*
X138288095Y-130528628D01*
X138288095Y-130528628D02*
X138240476Y-130481009D01*
X138240476Y-130481009D02*
X138145238Y-130433390D01*
X88811905Y-123192319D02*
X88811905Y-122192319D01*
X88811905Y-122192319D02*
X89050000Y-122192319D01*
X89050000Y-122192319D02*
X89192857Y-122239938D01*
X89192857Y-122239938D02*
X89288095Y-122335176D01*
X89288095Y-122335176D02*
X89335714Y-122430414D01*
X89335714Y-122430414D02*
X89383333Y-122620890D01*
X89383333Y-122620890D02*
X89383333Y-122763747D01*
X89383333Y-122763747D02*
X89335714Y-122954223D01*
X89335714Y-122954223D02*
X89288095Y-123049461D01*
X89288095Y-123049461D02*
X89192857Y-123144700D01*
X89192857Y-123144700D02*
X89050000Y-123192319D01*
X89050000Y-123192319D02*
X88811905Y-123192319D01*
X89811905Y-123192319D02*
X89811905Y-122192319D01*
X89811905Y-122192319D02*
X90192857Y-122192319D01*
X90192857Y-122192319D02*
X90288095Y-122239938D01*
X90288095Y-122239938D02*
X90335714Y-122287557D01*
X90335714Y-122287557D02*
X90383333Y-122382795D01*
X90383333Y-122382795D02*
X90383333Y-122525652D01*
X90383333Y-122525652D02*
X90335714Y-122620890D01*
X90335714Y-122620890D02*
X90288095Y-122668509D01*
X90288095Y-122668509D02*
X90192857Y-122716128D01*
X90192857Y-122716128D02*
X89811905Y-122716128D01*
X91335714Y-123192319D02*
X90764286Y-123192319D01*
X91050000Y-123192319D02*
X91050000Y-122192319D01*
X91050000Y-122192319D02*
X90954762Y-122335176D01*
X90954762Y-122335176D02*
X90859524Y-122430414D01*
X90859524Y-122430414D02*
X90764286Y-122478033D01*
X129061905Y-105304819D02*
X129061905Y-104304819D01*
X129061905Y-104304819D02*
X129300000Y-104304819D01*
X129300000Y-104304819D02*
X129442857Y-104352438D01*
X129442857Y-104352438D02*
X129538095Y-104447676D01*
X129538095Y-104447676D02*
X129585714Y-104542914D01*
X129585714Y-104542914D02*
X129633333Y-104733390D01*
X129633333Y-104733390D02*
X129633333Y-104876247D01*
X129633333Y-104876247D02*
X129585714Y-105066723D01*
X129585714Y-105066723D02*
X129538095Y-105161961D01*
X129538095Y-105161961D02*
X129442857Y-105257200D01*
X129442857Y-105257200D02*
X129300000Y-105304819D01*
X129300000Y-105304819D02*
X129061905Y-105304819D01*
X130490476Y-104304819D02*
X130300000Y-104304819D01*
X130300000Y-104304819D02*
X130204762Y-104352438D01*
X130204762Y-104352438D02*
X130157143Y-104400057D01*
X130157143Y-104400057D02*
X130061905Y-104542914D01*
X130061905Y-104542914D02*
X130014286Y-104733390D01*
X130014286Y-104733390D02*
X130014286Y-105114342D01*
X130014286Y-105114342D02*
X130061905Y-105209580D01*
X130061905Y-105209580D02*
X130109524Y-105257200D01*
X130109524Y-105257200D02*
X130204762Y-105304819D01*
X130204762Y-105304819D02*
X130395238Y-105304819D01*
X130395238Y-105304819D02*
X130490476Y-105257200D01*
X130490476Y-105257200D02*
X130538095Y-105209580D01*
X130538095Y-105209580D02*
X130585714Y-105114342D01*
X130585714Y-105114342D02*
X130585714Y-104876247D01*
X130585714Y-104876247D02*
X130538095Y-104781009D01*
X130538095Y-104781009D02*
X130490476Y-104733390D01*
X130490476Y-104733390D02*
X130395238Y-104685771D01*
X130395238Y-104685771D02*
X130204762Y-104685771D01*
X130204762Y-104685771D02*
X130109524Y-104733390D01*
X130109524Y-104733390D02*
X130061905Y-104781009D01*
X130061905Y-104781009D02*
X130014286Y-104876247D01*
X118161905Y-105954819D02*
X118161905Y-104954819D01*
X118161905Y-104954819D02*
X118400000Y-104954819D01*
X118400000Y-104954819D02*
X118542857Y-105002438D01*
X118542857Y-105002438D02*
X118638095Y-105097676D01*
X118638095Y-105097676D02*
X118685714Y-105192914D01*
X118685714Y-105192914D02*
X118733333Y-105383390D01*
X118733333Y-105383390D02*
X118733333Y-105526247D01*
X118733333Y-105526247D02*
X118685714Y-105716723D01*
X118685714Y-105716723D02*
X118638095Y-105811961D01*
X118638095Y-105811961D02*
X118542857Y-105907200D01*
X118542857Y-105907200D02*
X118400000Y-105954819D01*
X118400000Y-105954819D02*
X118161905Y-105954819D01*
X119638095Y-104954819D02*
X119161905Y-104954819D01*
X119161905Y-104954819D02*
X119114286Y-105431009D01*
X119114286Y-105431009D02*
X119161905Y-105383390D01*
X119161905Y-105383390D02*
X119257143Y-105335771D01*
X119257143Y-105335771D02*
X119495238Y-105335771D01*
X119495238Y-105335771D02*
X119590476Y-105383390D01*
X119590476Y-105383390D02*
X119638095Y-105431009D01*
X119638095Y-105431009D02*
X119685714Y-105526247D01*
X119685714Y-105526247D02*
X119685714Y-105764342D01*
X119685714Y-105764342D02*
X119638095Y-105859580D01*
X119638095Y-105859580D02*
X119590476Y-105907200D01*
X119590476Y-105907200D02*
X119495238Y-105954819D01*
X119495238Y-105954819D02*
X119257143Y-105954819D01*
X119257143Y-105954819D02*
X119161905Y-105907200D01*
X119161905Y-105907200D02*
X119114286Y-105859580D01*
X64828571Y-65659580D02*
X64780952Y-65707200D01*
X64780952Y-65707200D02*
X64638095Y-65754819D01*
X64638095Y-65754819D02*
X64542857Y-65754819D01*
X64542857Y-65754819D02*
X64400000Y-65707200D01*
X64400000Y-65707200D02*
X64304762Y-65611961D01*
X64304762Y-65611961D02*
X64257143Y-65516723D01*
X64257143Y-65516723D02*
X64209524Y-65326247D01*
X64209524Y-65326247D02*
X64209524Y-65183390D01*
X64209524Y-65183390D02*
X64257143Y-64992914D01*
X64257143Y-64992914D02*
X64304762Y-64897676D01*
X64304762Y-64897676D02*
X64400000Y-64802438D01*
X64400000Y-64802438D02*
X64542857Y-64754819D01*
X64542857Y-64754819D02*
X64638095Y-64754819D01*
X64638095Y-64754819D02*
X64780952Y-64802438D01*
X64780952Y-64802438D02*
X64828571Y-64850057D01*
X65733333Y-65754819D02*
X65257143Y-65754819D01*
X65257143Y-65754819D02*
X65257143Y-64754819D01*
X66638095Y-65754819D02*
X66304762Y-65278628D01*
X66066667Y-65754819D02*
X66066667Y-64754819D01*
X66066667Y-64754819D02*
X66447619Y-64754819D01*
X66447619Y-64754819D02*
X66542857Y-64802438D01*
X66542857Y-64802438D02*
X66590476Y-64850057D01*
X66590476Y-64850057D02*
X66638095Y-64945295D01*
X66638095Y-64945295D02*
X66638095Y-65088152D01*
X66638095Y-65088152D02*
X66590476Y-65183390D01*
X66590476Y-65183390D02*
X66542857Y-65231009D01*
X66542857Y-65231009D02*
X66447619Y-65278628D01*
X66447619Y-65278628D02*
X66066667Y-65278628D01*
X67590476Y-65754819D02*
X67019048Y-65754819D01*
X67304762Y-65754819D02*
X67304762Y-64754819D01*
X67304762Y-64754819D02*
X67209524Y-64897676D01*
X67209524Y-64897676D02*
X67114286Y-64992914D01*
X67114286Y-64992914D02*
X67019048Y-65040533D01*
X134961905Y-116654819D02*
X134961905Y-115654819D01*
X134961905Y-115654819D02*
X135200000Y-115654819D01*
X135200000Y-115654819D02*
X135342857Y-115702438D01*
X135342857Y-115702438D02*
X135438095Y-115797676D01*
X135438095Y-115797676D02*
X135485714Y-115892914D01*
X135485714Y-115892914D02*
X135533333Y-116083390D01*
X135533333Y-116083390D02*
X135533333Y-116226247D01*
X135533333Y-116226247D02*
X135485714Y-116416723D01*
X135485714Y-116416723D02*
X135438095Y-116511961D01*
X135438095Y-116511961D02*
X135342857Y-116607200D01*
X135342857Y-116607200D02*
X135200000Y-116654819D01*
X135200000Y-116654819D02*
X134961905Y-116654819D01*
X135866667Y-115654819D02*
X136485714Y-115654819D01*
X136485714Y-115654819D02*
X136152381Y-116035771D01*
X136152381Y-116035771D02*
X136295238Y-116035771D01*
X136295238Y-116035771D02*
X136390476Y-116083390D01*
X136390476Y-116083390D02*
X136438095Y-116131009D01*
X136438095Y-116131009D02*
X136485714Y-116226247D01*
X136485714Y-116226247D02*
X136485714Y-116464342D01*
X136485714Y-116464342D02*
X136438095Y-116559580D01*
X136438095Y-116559580D02*
X136390476Y-116607200D01*
X136390476Y-116607200D02*
X136295238Y-116654819D01*
X136295238Y-116654819D02*
X136009524Y-116654819D01*
X136009524Y-116654819D02*
X135914286Y-116607200D01*
X135914286Y-116607200D02*
X135866667Y-116559580D01*
X137738095Y-114192319D02*
X137738095Y-113192319D01*
X138309523Y-114192319D02*
X137880952Y-113620890D01*
X138309523Y-113192319D02*
X137738095Y-113763747D01*
X144533333Y-135959580D02*
X144485714Y-136007200D01*
X144485714Y-136007200D02*
X144342857Y-136054819D01*
X144342857Y-136054819D02*
X144247619Y-136054819D01*
X144247619Y-136054819D02*
X144104762Y-136007200D01*
X144104762Y-136007200D02*
X144009524Y-135911961D01*
X144009524Y-135911961D02*
X143961905Y-135816723D01*
X143961905Y-135816723D02*
X143914286Y-135626247D01*
X143914286Y-135626247D02*
X143914286Y-135483390D01*
X143914286Y-135483390D02*
X143961905Y-135292914D01*
X143961905Y-135292914D02*
X144009524Y-135197676D01*
X144009524Y-135197676D02*
X144104762Y-135102438D01*
X144104762Y-135102438D02*
X144247619Y-135054819D01*
X144247619Y-135054819D02*
X144342857Y-135054819D01*
X144342857Y-135054819D02*
X144485714Y-135102438D01*
X144485714Y-135102438D02*
X144533333Y-135150057D01*
X144866667Y-135054819D02*
X145485714Y-135054819D01*
X145485714Y-135054819D02*
X145152381Y-135435771D01*
X145152381Y-135435771D02*
X145295238Y-135435771D01*
X145295238Y-135435771D02*
X145390476Y-135483390D01*
X145390476Y-135483390D02*
X145438095Y-135531009D01*
X145438095Y-135531009D02*
X145485714Y-135626247D01*
X145485714Y-135626247D02*
X145485714Y-135864342D01*
X145485714Y-135864342D02*
X145438095Y-135959580D01*
X145438095Y-135959580D02*
X145390476Y-136007200D01*
X145390476Y-136007200D02*
X145295238Y-136054819D01*
X145295238Y-136054819D02*
X145009524Y-136054819D01*
X145009524Y-136054819D02*
X144914286Y-136007200D01*
X144914286Y-136007200D02*
X144866667Y-135959580D01*
X80704761Y-113650057D02*
X80609523Y-113602438D01*
X80609523Y-113602438D02*
X80514285Y-113507200D01*
X80514285Y-113507200D02*
X80371428Y-113364342D01*
X80371428Y-113364342D02*
X80276190Y-113316723D01*
X80276190Y-113316723D02*
X80180952Y-113316723D01*
X80228571Y-113554819D02*
X80133333Y-113507200D01*
X80133333Y-113507200D02*
X80038095Y-113411961D01*
X80038095Y-113411961D02*
X79990476Y-113221485D01*
X79990476Y-113221485D02*
X79990476Y-112888152D01*
X79990476Y-112888152D02*
X80038095Y-112697676D01*
X80038095Y-112697676D02*
X80133333Y-112602438D01*
X80133333Y-112602438D02*
X80228571Y-112554819D01*
X80228571Y-112554819D02*
X80419047Y-112554819D01*
X80419047Y-112554819D02*
X80514285Y-112602438D01*
X80514285Y-112602438D02*
X80609523Y-112697676D01*
X80609523Y-112697676D02*
X80657142Y-112888152D01*
X80657142Y-112888152D02*
X80657142Y-113221485D01*
X80657142Y-113221485D02*
X80609523Y-113411961D01*
X80609523Y-113411961D02*
X80514285Y-113507200D01*
X80514285Y-113507200D02*
X80419047Y-113554819D01*
X80419047Y-113554819D02*
X80228571Y-113554819D01*
X81085714Y-113554819D02*
X81085714Y-112554819D01*
X81085714Y-112554819D02*
X81466666Y-112554819D01*
X81466666Y-112554819D02*
X81561904Y-112602438D01*
X81561904Y-112602438D02*
X81609523Y-112650057D01*
X81609523Y-112650057D02*
X81657142Y-112745295D01*
X81657142Y-112745295D02*
X81657142Y-112888152D01*
X81657142Y-112888152D02*
X81609523Y-112983390D01*
X81609523Y-112983390D02*
X81561904Y-113031009D01*
X81561904Y-113031009D02*
X81466666Y-113078628D01*
X81466666Y-113078628D02*
X81085714Y-113078628D01*
X82609523Y-113554819D02*
X82038095Y-113554819D01*
X82323809Y-113554819D02*
X82323809Y-112554819D01*
X82323809Y-112554819D02*
X82228571Y-112697676D01*
X82228571Y-112697676D02*
X82133333Y-112792914D01*
X82133333Y-112792914D02*
X82038095Y-112840533D01*
X133583333Y-82809580D02*
X133535714Y-82857200D01*
X133535714Y-82857200D02*
X133392857Y-82904819D01*
X133392857Y-82904819D02*
X133297619Y-82904819D01*
X133297619Y-82904819D02*
X133154762Y-82857200D01*
X133154762Y-82857200D02*
X133059524Y-82761961D01*
X133059524Y-82761961D02*
X133011905Y-82666723D01*
X133011905Y-82666723D02*
X132964286Y-82476247D01*
X132964286Y-82476247D02*
X132964286Y-82333390D01*
X132964286Y-82333390D02*
X133011905Y-82142914D01*
X133011905Y-82142914D02*
X133059524Y-82047676D01*
X133059524Y-82047676D02*
X133154762Y-81952438D01*
X133154762Y-81952438D02*
X133297619Y-81904819D01*
X133297619Y-81904819D02*
X133392857Y-81904819D01*
X133392857Y-81904819D02*
X133535714Y-81952438D01*
X133535714Y-81952438D02*
X133583333Y-82000057D01*
X134154762Y-82333390D02*
X134059524Y-82285771D01*
X134059524Y-82285771D02*
X134011905Y-82238152D01*
X134011905Y-82238152D02*
X133964286Y-82142914D01*
X133964286Y-82142914D02*
X133964286Y-82095295D01*
X133964286Y-82095295D02*
X134011905Y-82000057D01*
X134011905Y-82000057D02*
X134059524Y-81952438D01*
X134059524Y-81952438D02*
X134154762Y-81904819D01*
X134154762Y-81904819D02*
X134345238Y-81904819D01*
X134345238Y-81904819D02*
X134440476Y-81952438D01*
X134440476Y-81952438D02*
X134488095Y-82000057D01*
X134488095Y-82000057D02*
X134535714Y-82095295D01*
X134535714Y-82095295D02*
X134535714Y-82142914D01*
X134535714Y-82142914D02*
X134488095Y-82238152D01*
X134488095Y-82238152D02*
X134440476Y-82285771D01*
X134440476Y-82285771D02*
X134345238Y-82333390D01*
X134345238Y-82333390D02*
X134154762Y-82333390D01*
X134154762Y-82333390D02*
X134059524Y-82381009D01*
X134059524Y-82381009D02*
X134011905Y-82428628D01*
X134011905Y-82428628D02*
X133964286Y-82523866D01*
X133964286Y-82523866D02*
X133964286Y-82714342D01*
X133964286Y-82714342D02*
X134011905Y-82809580D01*
X134011905Y-82809580D02*
X134059524Y-82857200D01*
X134059524Y-82857200D02*
X134154762Y-82904819D01*
X134154762Y-82904819D02*
X134345238Y-82904819D01*
X134345238Y-82904819D02*
X134440476Y-82857200D01*
X134440476Y-82857200D02*
X134488095Y-82809580D01*
X134488095Y-82809580D02*
X134535714Y-82714342D01*
X134535714Y-82714342D02*
X134535714Y-82523866D01*
X134535714Y-82523866D02*
X134488095Y-82428628D01*
X134488095Y-82428628D02*
X134440476Y-82381009D01*
X134440476Y-82381009D02*
X134345238Y-82333390D01*
X133833333Y-118454819D02*
X133500000Y-117978628D01*
X133261905Y-118454819D02*
X133261905Y-117454819D01*
X133261905Y-117454819D02*
X133642857Y-117454819D01*
X133642857Y-117454819D02*
X133738095Y-117502438D01*
X133738095Y-117502438D02*
X133785714Y-117550057D01*
X133785714Y-117550057D02*
X133833333Y-117645295D01*
X133833333Y-117645295D02*
X133833333Y-117788152D01*
X133833333Y-117788152D02*
X133785714Y-117883390D01*
X133785714Y-117883390D02*
X133738095Y-117931009D01*
X133738095Y-117931009D02*
X133642857Y-117978628D01*
X133642857Y-117978628D02*
X133261905Y-117978628D01*
X134166667Y-117454819D02*
X134833333Y-117454819D01*
X134833333Y-117454819D02*
X134404762Y-118454819D01*
X125138095Y-110954819D02*
X125709523Y-110954819D01*
X125423809Y-111954819D02*
X125423809Y-110954819D01*
X126042857Y-111954819D02*
X126042857Y-110954819D01*
X126042857Y-110954819D02*
X126423809Y-110954819D01*
X126423809Y-110954819D02*
X126519047Y-111002438D01*
X126519047Y-111002438D02*
X126566666Y-111050057D01*
X126566666Y-111050057D02*
X126614285Y-111145295D01*
X126614285Y-111145295D02*
X126614285Y-111288152D01*
X126614285Y-111288152D02*
X126566666Y-111383390D01*
X126566666Y-111383390D02*
X126519047Y-111431009D01*
X126519047Y-111431009D02*
X126423809Y-111478628D01*
X126423809Y-111478628D02*
X126042857Y-111478628D01*
X126947619Y-110954819D02*
X127566666Y-110954819D01*
X127566666Y-110954819D02*
X127233333Y-111335771D01*
X127233333Y-111335771D02*
X127376190Y-111335771D01*
X127376190Y-111335771D02*
X127471428Y-111383390D01*
X127471428Y-111383390D02*
X127519047Y-111431009D01*
X127519047Y-111431009D02*
X127566666Y-111526247D01*
X127566666Y-111526247D02*
X127566666Y-111764342D01*
X127566666Y-111764342D02*
X127519047Y-111859580D01*
X127519047Y-111859580D02*
X127471428Y-111907200D01*
X127471428Y-111907200D02*
X127376190Y-111954819D01*
X127376190Y-111954819D02*
X127090476Y-111954819D01*
X127090476Y-111954819D02*
X126995238Y-111907200D01*
X126995238Y-111907200D02*
X126947619Y-111859580D01*
X119604761Y-113307200D02*
X119747618Y-113354819D01*
X119747618Y-113354819D02*
X119985713Y-113354819D01*
X119985713Y-113354819D02*
X120080951Y-113307200D01*
X120080951Y-113307200D02*
X120128570Y-113259580D01*
X120128570Y-113259580D02*
X120176189Y-113164342D01*
X120176189Y-113164342D02*
X120176189Y-113069104D01*
X120176189Y-113069104D02*
X120128570Y-112973866D01*
X120128570Y-112973866D02*
X120080951Y-112926247D01*
X120080951Y-112926247D02*
X119985713Y-112878628D01*
X119985713Y-112878628D02*
X119795237Y-112831009D01*
X119795237Y-112831009D02*
X119699999Y-112783390D01*
X119699999Y-112783390D02*
X119652380Y-112735771D01*
X119652380Y-112735771D02*
X119604761Y-112640533D01*
X119604761Y-112640533D02*
X119604761Y-112545295D01*
X119604761Y-112545295D02*
X119652380Y-112450057D01*
X119652380Y-112450057D02*
X119699999Y-112402438D01*
X119699999Y-112402438D02*
X119795237Y-112354819D01*
X119795237Y-112354819D02*
X120033332Y-112354819D01*
X120033332Y-112354819D02*
X120176189Y-112402438D01*
X121033332Y-112688152D02*
X121033332Y-113354819D01*
X120604761Y-112688152D02*
X120604761Y-113211961D01*
X120604761Y-113211961D02*
X120652380Y-113307200D01*
X120652380Y-113307200D02*
X120747618Y-113354819D01*
X120747618Y-113354819D02*
X120890475Y-113354819D01*
X120890475Y-113354819D02*
X120985713Y-113307200D01*
X120985713Y-113307200D02*
X121033332Y-113259580D01*
X121509523Y-112688152D02*
X121509523Y-113688152D01*
X121509523Y-112735771D02*
X121604761Y-112688152D01*
X121604761Y-112688152D02*
X121795237Y-112688152D01*
X121795237Y-112688152D02*
X121890475Y-112735771D01*
X121890475Y-112735771D02*
X121938094Y-112783390D01*
X121938094Y-112783390D02*
X121985713Y-112878628D01*
X121985713Y-112878628D02*
X121985713Y-113164342D01*
X121985713Y-113164342D02*
X121938094Y-113259580D01*
X121938094Y-113259580D02*
X121890475Y-113307200D01*
X121890475Y-113307200D02*
X121795237Y-113354819D01*
X121795237Y-113354819D02*
X121604761Y-113354819D01*
X121604761Y-113354819D02*
X121509523Y-113307200D01*
X122414285Y-112688152D02*
X122414285Y-113688152D01*
X122414285Y-112735771D02*
X122509523Y-112688152D01*
X122509523Y-112688152D02*
X122699999Y-112688152D01*
X122699999Y-112688152D02*
X122795237Y-112735771D01*
X122795237Y-112735771D02*
X122842856Y-112783390D01*
X122842856Y-112783390D02*
X122890475Y-112878628D01*
X122890475Y-112878628D02*
X122890475Y-113164342D01*
X122890475Y-113164342D02*
X122842856Y-113259580D01*
X122842856Y-113259580D02*
X122795237Y-113307200D01*
X122795237Y-113307200D02*
X122699999Y-113354819D01*
X122699999Y-113354819D02*
X122509523Y-113354819D01*
X122509523Y-113354819D02*
X122414285Y-113307200D01*
X123461904Y-113354819D02*
X123366666Y-113307200D01*
X123366666Y-113307200D02*
X123319047Y-113211961D01*
X123319047Y-113211961D02*
X123319047Y-112354819D01*
X123747619Y-112688152D02*
X123985714Y-113354819D01*
X124223809Y-112688152D02*
X123985714Y-113354819D01*
X123985714Y-113354819D02*
X123890476Y-113592914D01*
X123890476Y-113592914D02*
X123842857Y-113640533D01*
X123842857Y-113640533D02*
X123747619Y-113688152D01*
X125223810Y-112354819D02*
X125557143Y-113354819D01*
X125557143Y-113354819D02*
X125890476Y-112354819D01*
X126795238Y-113259580D02*
X126747619Y-113307200D01*
X126747619Y-113307200D02*
X126604762Y-113354819D01*
X126604762Y-113354819D02*
X126509524Y-113354819D01*
X126509524Y-113354819D02*
X126366667Y-113307200D01*
X126366667Y-113307200D02*
X126271429Y-113211961D01*
X126271429Y-113211961D02*
X126223810Y-113116723D01*
X126223810Y-113116723D02*
X126176191Y-112926247D01*
X126176191Y-112926247D02*
X126176191Y-112783390D01*
X126176191Y-112783390D02*
X126223810Y-112592914D01*
X126223810Y-112592914D02*
X126271429Y-112497676D01*
X126271429Y-112497676D02*
X126366667Y-112402438D01*
X126366667Y-112402438D02*
X126509524Y-112354819D01*
X126509524Y-112354819D02*
X126604762Y-112354819D01*
X126604762Y-112354819D02*
X126747619Y-112402438D01*
X126747619Y-112402438D02*
X126795238Y-112450057D01*
X127795238Y-113259580D02*
X127747619Y-113307200D01*
X127747619Y-113307200D02*
X127604762Y-113354819D01*
X127604762Y-113354819D02*
X127509524Y-113354819D01*
X127509524Y-113354819D02*
X127366667Y-113307200D01*
X127366667Y-113307200D02*
X127271429Y-113211961D01*
X127271429Y-113211961D02*
X127223810Y-113116723D01*
X127223810Y-113116723D02*
X127176191Y-112926247D01*
X127176191Y-112926247D02*
X127176191Y-112783390D01*
X127176191Y-112783390D02*
X127223810Y-112592914D01*
X127223810Y-112592914D02*
X127271429Y-112497676D01*
X127271429Y-112497676D02*
X127366667Y-112402438D01*
X127366667Y-112402438D02*
X127509524Y-112354819D01*
X127509524Y-112354819D02*
X127604762Y-112354819D01*
X127604762Y-112354819D02*
X127747619Y-112402438D01*
X127747619Y-112402438D02*
X127795238Y-112450057D01*
X97398095Y-96662319D02*
X97969523Y-96662319D01*
X97683809Y-97662319D02*
X97683809Y-96662319D01*
X98874285Y-97662319D02*
X98540952Y-97186128D01*
X98302857Y-97662319D02*
X98302857Y-96662319D01*
X98302857Y-96662319D02*
X98683809Y-96662319D01*
X98683809Y-96662319D02*
X98779047Y-96709938D01*
X98779047Y-96709938D02*
X98826666Y-96757557D01*
X98826666Y-96757557D02*
X98874285Y-96852795D01*
X98874285Y-96852795D02*
X98874285Y-96995652D01*
X98874285Y-96995652D02*
X98826666Y-97090890D01*
X98826666Y-97090890D02*
X98779047Y-97138509D01*
X98779047Y-97138509D02*
X98683809Y-97186128D01*
X98683809Y-97186128D02*
X98302857Y-97186128D01*
X99826666Y-97662319D02*
X99255238Y-97662319D01*
X99540952Y-97662319D02*
X99540952Y-96662319D01*
X99540952Y-96662319D02*
X99445714Y-96805176D01*
X99445714Y-96805176D02*
X99350476Y-96900414D01*
X99350476Y-96900414D02*
X99255238Y-96948033D01*
X129866666Y-133554819D02*
X129866666Y-134269104D01*
X129866666Y-134269104D02*
X129819047Y-134411961D01*
X129819047Y-134411961D02*
X129723809Y-134507200D01*
X129723809Y-134507200D02*
X129580952Y-134554819D01*
X129580952Y-134554819D02*
X129485714Y-134554819D01*
X130866666Y-134554819D02*
X130295238Y-134554819D01*
X130580952Y-134554819D02*
X130580952Y-133554819D01*
X130580952Y-133554819D02*
X130485714Y-133697676D01*
X130485714Y-133697676D02*
X130390476Y-133792914D01*
X130390476Y-133792914D02*
X130295238Y-133840533D01*
X116316666Y-88054819D02*
X116316666Y-88769104D01*
X116316666Y-88769104D02*
X116269047Y-88911961D01*
X116269047Y-88911961D02*
X116173809Y-89007200D01*
X116173809Y-89007200D02*
X116030952Y-89054819D01*
X116030952Y-89054819D02*
X115935714Y-89054819D01*
X116745238Y-88150057D02*
X116792857Y-88102438D01*
X116792857Y-88102438D02*
X116888095Y-88054819D01*
X116888095Y-88054819D02*
X117126190Y-88054819D01*
X117126190Y-88054819D02*
X117221428Y-88102438D01*
X117221428Y-88102438D02*
X117269047Y-88150057D01*
X117269047Y-88150057D02*
X117316666Y-88245295D01*
X117316666Y-88245295D02*
X117316666Y-88340533D01*
X117316666Y-88340533D02*
X117269047Y-88483390D01*
X117269047Y-88483390D02*
X116697619Y-89054819D01*
X116697619Y-89054819D02*
X117316666Y-89054819D01*
X134404761Y-73954819D02*
X134071428Y-73478628D01*
X133833333Y-73954819D02*
X133833333Y-72954819D01*
X133833333Y-72954819D02*
X134214285Y-72954819D01*
X134214285Y-72954819D02*
X134309523Y-73002438D01*
X134309523Y-73002438D02*
X134357142Y-73050057D01*
X134357142Y-73050057D02*
X134404761Y-73145295D01*
X134404761Y-73145295D02*
X134404761Y-73288152D01*
X134404761Y-73288152D02*
X134357142Y-73383390D01*
X134357142Y-73383390D02*
X134309523Y-73431009D01*
X134309523Y-73431009D02*
X134214285Y-73478628D01*
X134214285Y-73478628D02*
X133833333Y-73478628D01*
X134690476Y-72954819D02*
X135023809Y-73954819D01*
X135023809Y-73954819D02*
X135357142Y-72954819D01*
X136214285Y-73954819D02*
X135642857Y-73954819D01*
X135928571Y-73954819D02*
X135928571Y-72954819D01*
X135928571Y-72954819D02*
X135833333Y-73097676D01*
X135833333Y-73097676D02*
X135738095Y-73192914D01*
X135738095Y-73192914D02*
X135642857Y-73240533D01*
X149588095Y-100192319D02*
X150159523Y-100192319D01*
X149873809Y-101192319D02*
X149873809Y-100192319D01*
X151064285Y-101192319D02*
X150730952Y-100716128D01*
X150492857Y-101192319D02*
X150492857Y-100192319D01*
X150492857Y-100192319D02*
X150873809Y-100192319D01*
X150873809Y-100192319D02*
X150969047Y-100239938D01*
X150969047Y-100239938D02*
X151016666Y-100287557D01*
X151016666Y-100287557D02*
X151064285Y-100382795D01*
X151064285Y-100382795D02*
X151064285Y-100525652D01*
X151064285Y-100525652D02*
X151016666Y-100620890D01*
X151016666Y-100620890D02*
X150969047Y-100668509D01*
X150969047Y-100668509D02*
X150873809Y-100716128D01*
X150873809Y-100716128D02*
X150492857Y-100716128D01*
X151445238Y-100287557D02*
X151492857Y-100239938D01*
X151492857Y-100239938D02*
X151588095Y-100192319D01*
X151588095Y-100192319D02*
X151826190Y-100192319D01*
X151826190Y-100192319D02*
X151921428Y-100239938D01*
X151921428Y-100239938D02*
X151969047Y-100287557D01*
X151969047Y-100287557D02*
X152016666Y-100382795D01*
X152016666Y-100382795D02*
X152016666Y-100478033D01*
X152016666Y-100478033D02*
X151969047Y-100620890D01*
X151969047Y-100620890D02*
X151397619Y-101192319D01*
X151397619Y-101192319D02*
X152016666Y-101192319D01*
X65433333Y-77259580D02*
X65385714Y-77307200D01*
X65385714Y-77307200D02*
X65242857Y-77354819D01*
X65242857Y-77354819D02*
X65147619Y-77354819D01*
X65147619Y-77354819D02*
X65004762Y-77307200D01*
X65004762Y-77307200D02*
X64909524Y-77211961D01*
X64909524Y-77211961D02*
X64861905Y-77116723D01*
X64861905Y-77116723D02*
X64814286Y-76926247D01*
X64814286Y-76926247D02*
X64814286Y-76783390D01*
X64814286Y-76783390D02*
X64861905Y-76592914D01*
X64861905Y-76592914D02*
X64909524Y-76497676D01*
X64909524Y-76497676D02*
X65004762Y-76402438D01*
X65004762Y-76402438D02*
X65147619Y-76354819D01*
X65147619Y-76354819D02*
X65242857Y-76354819D01*
X65242857Y-76354819D02*
X65385714Y-76402438D01*
X65385714Y-76402438D02*
X65433333Y-76450057D01*
X66385714Y-77354819D02*
X65814286Y-77354819D01*
X66100000Y-77354819D02*
X66100000Y-76354819D01*
X66100000Y-76354819D02*
X66004762Y-76497676D01*
X66004762Y-76497676D02*
X65909524Y-76592914D01*
X65909524Y-76592914D02*
X65814286Y-76640533D01*
X141033333Y-129297080D02*
X140985714Y-129344700D01*
X140985714Y-129344700D02*
X140842857Y-129392319D01*
X140842857Y-129392319D02*
X140747619Y-129392319D01*
X140747619Y-129392319D02*
X140604762Y-129344700D01*
X140604762Y-129344700D02*
X140509524Y-129249461D01*
X140509524Y-129249461D02*
X140461905Y-129154223D01*
X140461905Y-129154223D02*
X140414286Y-128963747D01*
X140414286Y-128963747D02*
X140414286Y-128820890D01*
X140414286Y-128820890D02*
X140461905Y-128630414D01*
X140461905Y-128630414D02*
X140509524Y-128535176D01*
X140509524Y-128535176D02*
X140604762Y-128439938D01*
X140604762Y-128439938D02*
X140747619Y-128392319D01*
X140747619Y-128392319D02*
X140842857Y-128392319D01*
X140842857Y-128392319D02*
X140985714Y-128439938D01*
X140985714Y-128439938D02*
X141033333Y-128487557D01*
X141890476Y-128392319D02*
X141700000Y-128392319D01*
X141700000Y-128392319D02*
X141604762Y-128439938D01*
X141604762Y-128439938D02*
X141557143Y-128487557D01*
X141557143Y-128487557D02*
X141461905Y-128630414D01*
X141461905Y-128630414D02*
X141414286Y-128820890D01*
X141414286Y-128820890D02*
X141414286Y-129201842D01*
X141414286Y-129201842D02*
X141461905Y-129297080D01*
X141461905Y-129297080D02*
X141509524Y-129344700D01*
X141509524Y-129344700D02*
X141604762Y-129392319D01*
X141604762Y-129392319D02*
X141795238Y-129392319D01*
X141795238Y-129392319D02*
X141890476Y-129344700D01*
X141890476Y-129344700D02*
X141938095Y-129297080D01*
X141938095Y-129297080D02*
X141985714Y-129201842D01*
X141985714Y-129201842D02*
X141985714Y-128963747D01*
X141985714Y-128963747D02*
X141938095Y-128868509D01*
X141938095Y-128868509D02*
X141890476Y-128820890D01*
X141890476Y-128820890D02*
X141795238Y-128773271D01*
X141795238Y-128773271D02*
X141604762Y-128773271D01*
X141604762Y-128773271D02*
X141509524Y-128820890D01*
X141509524Y-128820890D02*
X141461905Y-128868509D01*
X141461905Y-128868509D02*
X141414286Y-128963747D01*
X137216666Y-66354819D02*
X137216666Y-67069104D01*
X137216666Y-67069104D02*
X137169047Y-67211961D01*
X137169047Y-67211961D02*
X137073809Y-67307200D01*
X137073809Y-67307200D02*
X136930952Y-67354819D01*
X136930952Y-67354819D02*
X136835714Y-67354819D01*
X137597619Y-66354819D02*
X138216666Y-66354819D01*
X138216666Y-66354819D02*
X137883333Y-66735771D01*
X137883333Y-66735771D02*
X138026190Y-66735771D01*
X138026190Y-66735771D02*
X138121428Y-66783390D01*
X138121428Y-66783390D02*
X138169047Y-66831009D01*
X138169047Y-66831009D02*
X138216666Y-66926247D01*
X138216666Y-66926247D02*
X138216666Y-67164342D01*
X138216666Y-67164342D02*
X138169047Y-67259580D01*
X138169047Y-67259580D02*
X138121428Y-67307200D01*
X138121428Y-67307200D02*
X138026190Y-67354819D01*
X138026190Y-67354819D02*
X137740476Y-67354819D01*
X137740476Y-67354819D02*
X137645238Y-67307200D01*
X137645238Y-67307200D02*
X137597619Y-67259580D01*
X64333333Y-110822080D02*
X64285714Y-110869700D01*
X64285714Y-110869700D02*
X64142857Y-110917319D01*
X64142857Y-110917319D02*
X64047619Y-110917319D01*
X64047619Y-110917319D02*
X63904762Y-110869700D01*
X63904762Y-110869700D02*
X63809524Y-110774461D01*
X63809524Y-110774461D02*
X63761905Y-110679223D01*
X63761905Y-110679223D02*
X63714286Y-110488747D01*
X63714286Y-110488747D02*
X63714286Y-110345890D01*
X63714286Y-110345890D02*
X63761905Y-110155414D01*
X63761905Y-110155414D02*
X63809524Y-110060176D01*
X63809524Y-110060176D02*
X63904762Y-109964938D01*
X63904762Y-109964938D02*
X64047619Y-109917319D01*
X64047619Y-109917319D02*
X64142857Y-109917319D01*
X64142857Y-109917319D02*
X64285714Y-109964938D01*
X64285714Y-109964938D02*
X64333333Y-110012557D01*
X64761905Y-110917319D02*
X64761905Y-109917319D01*
X64761905Y-109917319D02*
X65142857Y-109917319D01*
X65142857Y-109917319D02*
X65238095Y-109964938D01*
X65238095Y-109964938D02*
X65285714Y-110012557D01*
X65285714Y-110012557D02*
X65333333Y-110107795D01*
X65333333Y-110107795D02*
X65333333Y-110250652D01*
X65333333Y-110250652D02*
X65285714Y-110345890D01*
X65285714Y-110345890D02*
X65238095Y-110393509D01*
X65238095Y-110393509D02*
X65142857Y-110441128D01*
X65142857Y-110441128D02*
X64761905Y-110441128D01*
X66238095Y-109917319D02*
X65761905Y-109917319D01*
X65761905Y-109917319D02*
X65714286Y-110393509D01*
X65714286Y-110393509D02*
X65761905Y-110345890D01*
X65761905Y-110345890D02*
X65857143Y-110298271D01*
X65857143Y-110298271D02*
X66095238Y-110298271D01*
X66095238Y-110298271D02*
X66190476Y-110345890D01*
X66190476Y-110345890D02*
X66238095Y-110393509D01*
X66238095Y-110393509D02*
X66285714Y-110488747D01*
X66285714Y-110488747D02*
X66285714Y-110726842D01*
X66285714Y-110726842D02*
X66238095Y-110822080D01*
X66238095Y-110822080D02*
X66190476Y-110869700D01*
X66190476Y-110869700D02*
X66095238Y-110917319D01*
X66095238Y-110917319D02*
X65857143Y-110917319D01*
X65857143Y-110917319D02*
X65761905Y-110869700D01*
X65761905Y-110869700D02*
X65714286Y-110822080D01*
X108133333Y-50654819D02*
X107800000Y-50178628D01*
X107561905Y-50654819D02*
X107561905Y-49654819D01*
X107561905Y-49654819D02*
X107942857Y-49654819D01*
X107942857Y-49654819D02*
X108038095Y-49702438D01*
X108038095Y-49702438D02*
X108085714Y-49750057D01*
X108085714Y-49750057D02*
X108133333Y-49845295D01*
X108133333Y-49845295D02*
X108133333Y-49988152D01*
X108133333Y-49988152D02*
X108085714Y-50083390D01*
X108085714Y-50083390D02*
X108038095Y-50131009D01*
X108038095Y-50131009D02*
X107942857Y-50178628D01*
X107942857Y-50178628D02*
X107561905Y-50178628D01*
X108466667Y-49654819D02*
X109085714Y-49654819D01*
X109085714Y-49654819D02*
X108752381Y-50035771D01*
X108752381Y-50035771D02*
X108895238Y-50035771D01*
X108895238Y-50035771D02*
X108990476Y-50083390D01*
X108990476Y-50083390D02*
X109038095Y-50131009D01*
X109038095Y-50131009D02*
X109085714Y-50226247D01*
X109085714Y-50226247D02*
X109085714Y-50464342D01*
X109085714Y-50464342D02*
X109038095Y-50559580D01*
X109038095Y-50559580D02*
X108990476Y-50607200D01*
X108990476Y-50607200D02*
X108895238Y-50654819D01*
X108895238Y-50654819D02*
X108609524Y-50654819D01*
X108609524Y-50654819D02*
X108514286Y-50607200D01*
X108514286Y-50607200D02*
X108466667Y-50559580D01*
X135961905Y-93254819D02*
X135961905Y-92254819D01*
X135961905Y-92254819D02*
X136200000Y-92254819D01*
X136200000Y-92254819D02*
X136342857Y-92302438D01*
X136342857Y-92302438D02*
X136438095Y-92397676D01*
X136438095Y-92397676D02*
X136485714Y-92492914D01*
X136485714Y-92492914D02*
X136533333Y-92683390D01*
X136533333Y-92683390D02*
X136533333Y-92826247D01*
X136533333Y-92826247D02*
X136485714Y-93016723D01*
X136485714Y-93016723D02*
X136438095Y-93111961D01*
X136438095Y-93111961D02*
X136342857Y-93207200D01*
X136342857Y-93207200D02*
X136200000Y-93254819D01*
X136200000Y-93254819D02*
X135961905Y-93254819D01*
X137390476Y-92588152D02*
X137390476Y-93254819D01*
X137152381Y-92207200D02*
X136914286Y-92921485D01*
X136914286Y-92921485D02*
X137533333Y-92921485D01*
X135666905Y-99269104D02*
X136143095Y-99269104D01*
X135571667Y-99554819D02*
X135905000Y-98554819D01*
X135905000Y-98554819D02*
X136238333Y-99554819D01*
X131223809Y-51078628D02*
X131223809Y-51554819D01*
X130890476Y-50554819D02*
X131223809Y-51078628D01*
X131223809Y-51078628D02*
X131557142Y-50554819D01*
X132414285Y-51554819D02*
X131842857Y-51554819D01*
X132128571Y-51554819D02*
X132128571Y-50554819D01*
X132128571Y-50554819D02*
X132033333Y-50697676D01*
X132033333Y-50697676D02*
X131938095Y-50792914D01*
X131938095Y-50792914D02*
X131842857Y-50840533D01*
X135857142Y-103054819D02*
X135523809Y-102578628D01*
X135285714Y-103054819D02*
X135285714Y-102054819D01*
X135285714Y-102054819D02*
X135666666Y-102054819D01*
X135666666Y-102054819D02*
X135761904Y-102102438D01*
X135761904Y-102102438D02*
X135809523Y-102150057D01*
X135809523Y-102150057D02*
X135857142Y-102245295D01*
X135857142Y-102245295D02*
X135857142Y-102388152D01*
X135857142Y-102388152D02*
X135809523Y-102483390D01*
X135809523Y-102483390D02*
X135761904Y-102531009D01*
X135761904Y-102531009D02*
X135666666Y-102578628D01*
X135666666Y-102578628D02*
X135285714Y-102578628D01*
X136809523Y-103054819D02*
X136238095Y-103054819D01*
X136523809Y-103054819D02*
X136523809Y-102054819D01*
X136523809Y-102054819D02*
X136428571Y-102197676D01*
X136428571Y-102197676D02*
X136333333Y-102292914D01*
X136333333Y-102292914D02*
X136238095Y-102340533D01*
X137666666Y-102054819D02*
X137476190Y-102054819D01*
X137476190Y-102054819D02*
X137380952Y-102102438D01*
X137380952Y-102102438D02*
X137333333Y-102150057D01*
X137333333Y-102150057D02*
X137238095Y-102292914D01*
X137238095Y-102292914D02*
X137190476Y-102483390D01*
X137190476Y-102483390D02*
X137190476Y-102864342D01*
X137190476Y-102864342D02*
X137238095Y-102959580D01*
X137238095Y-102959580D02*
X137285714Y-103007200D01*
X137285714Y-103007200D02*
X137380952Y-103054819D01*
X137380952Y-103054819D02*
X137571428Y-103054819D01*
X137571428Y-103054819D02*
X137666666Y-103007200D01*
X137666666Y-103007200D02*
X137714285Y-102959580D01*
X137714285Y-102959580D02*
X137761904Y-102864342D01*
X137761904Y-102864342D02*
X137761904Y-102626247D01*
X137761904Y-102626247D02*
X137714285Y-102531009D01*
X137714285Y-102531009D02*
X137666666Y-102483390D01*
X137666666Y-102483390D02*
X137571428Y-102435771D01*
X137571428Y-102435771D02*
X137380952Y-102435771D01*
X137380952Y-102435771D02*
X137285714Y-102483390D01*
X137285714Y-102483390D02*
X137238095Y-102531009D01*
X137238095Y-102531009D02*
X137190476Y-102626247D01*
X120733333Y-50654819D02*
X120400000Y-50178628D01*
X120161905Y-50654819D02*
X120161905Y-49654819D01*
X120161905Y-49654819D02*
X120542857Y-49654819D01*
X120542857Y-49654819D02*
X120638095Y-49702438D01*
X120638095Y-49702438D02*
X120685714Y-49750057D01*
X120685714Y-49750057D02*
X120733333Y-49845295D01*
X120733333Y-49845295D02*
X120733333Y-49988152D01*
X120733333Y-49988152D02*
X120685714Y-50083390D01*
X120685714Y-50083390D02*
X120638095Y-50131009D01*
X120638095Y-50131009D02*
X120542857Y-50178628D01*
X120542857Y-50178628D02*
X120161905Y-50178628D01*
X121685714Y-50654819D02*
X121114286Y-50654819D01*
X121400000Y-50654819D02*
X121400000Y-49654819D01*
X121400000Y-49654819D02*
X121304762Y-49797676D01*
X121304762Y-49797676D02*
X121209524Y-49892914D01*
X121209524Y-49892914D02*
X121114286Y-49940533D01*
X123166666Y-127718509D02*
X122833333Y-127718509D01*
X122833333Y-128242319D02*
X122833333Y-127242319D01*
X122833333Y-127242319D02*
X123309523Y-127242319D01*
X124214285Y-128242319D02*
X123642857Y-128242319D01*
X123928571Y-128242319D02*
X123928571Y-127242319D01*
X123928571Y-127242319D02*
X123833333Y-127385176D01*
X123833333Y-127385176D02*
X123738095Y-127480414D01*
X123738095Y-127480414D02*
X123642857Y-127528033D01*
X127833333Y-121372319D02*
X127500000Y-120896128D01*
X127261905Y-121372319D02*
X127261905Y-120372319D01*
X127261905Y-120372319D02*
X127642857Y-120372319D01*
X127642857Y-120372319D02*
X127738095Y-120419938D01*
X127738095Y-120419938D02*
X127785714Y-120467557D01*
X127785714Y-120467557D02*
X127833333Y-120562795D01*
X127833333Y-120562795D02*
X127833333Y-120705652D01*
X127833333Y-120705652D02*
X127785714Y-120800890D01*
X127785714Y-120800890D02*
X127738095Y-120848509D01*
X127738095Y-120848509D02*
X127642857Y-120896128D01*
X127642857Y-120896128D02*
X127261905Y-120896128D01*
X128690476Y-120372319D02*
X128500000Y-120372319D01*
X128500000Y-120372319D02*
X128404762Y-120419938D01*
X128404762Y-120419938D02*
X128357143Y-120467557D01*
X128357143Y-120467557D02*
X128261905Y-120610414D01*
X128261905Y-120610414D02*
X128214286Y-120800890D01*
X128214286Y-120800890D02*
X128214286Y-121181842D01*
X128214286Y-121181842D02*
X128261905Y-121277080D01*
X128261905Y-121277080D02*
X128309524Y-121324700D01*
X128309524Y-121324700D02*
X128404762Y-121372319D01*
X128404762Y-121372319D02*
X128595238Y-121372319D01*
X128595238Y-121372319D02*
X128690476Y-121324700D01*
X128690476Y-121324700D02*
X128738095Y-121277080D01*
X128738095Y-121277080D02*
X128785714Y-121181842D01*
X128785714Y-121181842D02*
X128785714Y-120943747D01*
X128785714Y-120943747D02*
X128738095Y-120848509D01*
X128738095Y-120848509D02*
X128690476Y-120800890D01*
X128690476Y-120800890D02*
X128595238Y-120753271D01*
X128595238Y-120753271D02*
X128404762Y-120753271D01*
X128404762Y-120753271D02*
X128309524Y-120800890D01*
X128309524Y-120800890D02*
X128261905Y-120848509D01*
X128261905Y-120848509D02*
X128214286Y-120943747D01*
X120366666Y-116254819D02*
X120366666Y-116969104D01*
X120366666Y-116969104D02*
X120319047Y-117111961D01*
X120319047Y-117111961D02*
X120223809Y-117207200D01*
X120223809Y-117207200D02*
X120080952Y-117254819D01*
X120080952Y-117254819D02*
X119985714Y-117254819D01*
X120842857Y-117254819D02*
X120842857Y-116254819D01*
X120842857Y-116254819D02*
X121223809Y-116254819D01*
X121223809Y-116254819D02*
X121319047Y-116302438D01*
X121319047Y-116302438D02*
X121366666Y-116350057D01*
X121366666Y-116350057D02*
X121414285Y-116445295D01*
X121414285Y-116445295D02*
X121414285Y-116588152D01*
X121414285Y-116588152D02*
X121366666Y-116683390D01*
X121366666Y-116683390D02*
X121319047Y-116731009D01*
X121319047Y-116731009D02*
X121223809Y-116778628D01*
X121223809Y-116778628D02*
X120842857Y-116778628D01*
X122366666Y-117254819D02*
X121795238Y-117254819D01*
X122080952Y-117254819D02*
X122080952Y-116254819D01*
X122080952Y-116254819D02*
X121985714Y-116397676D01*
X121985714Y-116397676D02*
X121890476Y-116492914D01*
X121890476Y-116492914D02*
X121795238Y-116540533D01*
X79628571Y-95359580D02*
X79580952Y-95407200D01*
X79580952Y-95407200D02*
X79438095Y-95454819D01*
X79438095Y-95454819D02*
X79342857Y-95454819D01*
X79342857Y-95454819D02*
X79200000Y-95407200D01*
X79200000Y-95407200D02*
X79104762Y-95311961D01*
X79104762Y-95311961D02*
X79057143Y-95216723D01*
X79057143Y-95216723D02*
X79009524Y-95026247D01*
X79009524Y-95026247D02*
X79009524Y-94883390D01*
X79009524Y-94883390D02*
X79057143Y-94692914D01*
X79057143Y-94692914D02*
X79104762Y-94597676D01*
X79104762Y-94597676D02*
X79200000Y-94502438D01*
X79200000Y-94502438D02*
X79342857Y-94454819D01*
X79342857Y-94454819D02*
X79438095Y-94454819D01*
X79438095Y-94454819D02*
X79580952Y-94502438D01*
X79580952Y-94502438D02*
X79628571Y-94550057D01*
X80533333Y-95454819D02*
X80057143Y-95454819D01*
X80057143Y-95454819D02*
X80057143Y-94454819D01*
X81438095Y-95454819D02*
X81104762Y-94978628D01*
X80866667Y-95454819D02*
X80866667Y-94454819D01*
X80866667Y-94454819D02*
X81247619Y-94454819D01*
X81247619Y-94454819D02*
X81342857Y-94502438D01*
X81342857Y-94502438D02*
X81390476Y-94550057D01*
X81390476Y-94550057D02*
X81438095Y-94645295D01*
X81438095Y-94645295D02*
X81438095Y-94788152D01*
X81438095Y-94788152D02*
X81390476Y-94883390D01*
X81390476Y-94883390D02*
X81342857Y-94931009D01*
X81342857Y-94931009D02*
X81247619Y-94978628D01*
X81247619Y-94978628D02*
X80866667Y-94978628D01*
X81771429Y-94454819D02*
X82390476Y-94454819D01*
X82390476Y-94454819D02*
X82057143Y-94835771D01*
X82057143Y-94835771D02*
X82200000Y-94835771D01*
X82200000Y-94835771D02*
X82295238Y-94883390D01*
X82295238Y-94883390D02*
X82342857Y-94931009D01*
X82342857Y-94931009D02*
X82390476Y-95026247D01*
X82390476Y-95026247D02*
X82390476Y-95264342D01*
X82390476Y-95264342D02*
X82342857Y-95359580D01*
X82342857Y-95359580D02*
X82295238Y-95407200D01*
X82295238Y-95407200D02*
X82200000Y-95454819D01*
X82200000Y-95454819D02*
X81914286Y-95454819D01*
X81914286Y-95454819D02*
X81819048Y-95407200D01*
X81819048Y-95407200D02*
X81771429Y-95359580D01*
X103961905Y-71967319D02*
X103961905Y-70967319D01*
X104533333Y-71967319D02*
X104104762Y-71395890D01*
X104533333Y-70967319D02*
X103961905Y-71538747D01*
X105485714Y-71967319D02*
X104914286Y-71967319D01*
X105200000Y-71967319D02*
X105200000Y-70967319D01*
X105200000Y-70967319D02*
X105104762Y-71110176D01*
X105104762Y-71110176D02*
X105009524Y-71205414D01*
X105009524Y-71205414D02*
X104914286Y-71253033D01*
X149061905Y-121254819D02*
X149061905Y-120254819D01*
X149061905Y-120254819D02*
X149300000Y-120254819D01*
X149300000Y-120254819D02*
X149442857Y-120302438D01*
X149442857Y-120302438D02*
X149538095Y-120397676D01*
X149538095Y-120397676D02*
X149585714Y-120492914D01*
X149585714Y-120492914D02*
X149633333Y-120683390D01*
X149633333Y-120683390D02*
X149633333Y-120826247D01*
X149633333Y-120826247D02*
X149585714Y-121016723D01*
X149585714Y-121016723D02*
X149538095Y-121111961D01*
X149538095Y-121111961D02*
X149442857Y-121207200D01*
X149442857Y-121207200D02*
X149300000Y-121254819D01*
X149300000Y-121254819D02*
X149061905Y-121254819D01*
X150014286Y-120350057D02*
X150061905Y-120302438D01*
X150061905Y-120302438D02*
X150157143Y-120254819D01*
X150157143Y-120254819D02*
X150395238Y-120254819D01*
X150395238Y-120254819D02*
X150490476Y-120302438D01*
X150490476Y-120302438D02*
X150538095Y-120350057D01*
X150538095Y-120350057D02*
X150585714Y-120445295D01*
X150585714Y-120445295D02*
X150585714Y-120540533D01*
X150585714Y-120540533D02*
X150538095Y-120683390D01*
X150538095Y-120683390D02*
X149966667Y-121254819D01*
X149966667Y-121254819D02*
X150585714Y-121254819D01*
X144338095Y-128864819D02*
X144338095Y-127864819D01*
X144909523Y-128864819D02*
X144480952Y-128293390D01*
X144909523Y-127864819D02*
X144338095Y-128436247D01*
X66078571Y-142497080D02*
X66030952Y-142544700D01*
X66030952Y-142544700D02*
X65888095Y-142592319D01*
X65888095Y-142592319D02*
X65792857Y-142592319D01*
X65792857Y-142592319D02*
X65650000Y-142544700D01*
X65650000Y-142544700D02*
X65554762Y-142449461D01*
X65554762Y-142449461D02*
X65507143Y-142354223D01*
X65507143Y-142354223D02*
X65459524Y-142163747D01*
X65459524Y-142163747D02*
X65459524Y-142020890D01*
X65459524Y-142020890D02*
X65507143Y-141830414D01*
X65507143Y-141830414D02*
X65554762Y-141735176D01*
X65554762Y-141735176D02*
X65650000Y-141639938D01*
X65650000Y-141639938D02*
X65792857Y-141592319D01*
X65792857Y-141592319D02*
X65888095Y-141592319D01*
X65888095Y-141592319D02*
X66030952Y-141639938D01*
X66030952Y-141639938D02*
X66078571Y-141687557D01*
X66983333Y-142592319D02*
X66507143Y-142592319D01*
X66507143Y-142592319D02*
X66507143Y-141592319D01*
X67888095Y-142592319D02*
X67554762Y-142116128D01*
X67316667Y-142592319D02*
X67316667Y-141592319D01*
X67316667Y-141592319D02*
X67697619Y-141592319D01*
X67697619Y-141592319D02*
X67792857Y-141639938D01*
X67792857Y-141639938D02*
X67840476Y-141687557D01*
X67840476Y-141687557D02*
X67888095Y-141782795D01*
X67888095Y-141782795D02*
X67888095Y-141925652D01*
X67888095Y-141925652D02*
X67840476Y-142020890D01*
X67840476Y-142020890D02*
X67792857Y-142068509D01*
X67792857Y-142068509D02*
X67697619Y-142116128D01*
X67697619Y-142116128D02*
X67316667Y-142116128D01*
X68269048Y-141687557D02*
X68316667Y-141639938D01*
X68316667Y-141639938D02*
X68411905Y-141592319D01*
X68411905Y-141592319D02*
X68650000Y-141592319D01*
X68650000Y-141592319D02*
X68745238Y-141639938D01*
X68745238Y-141639938D02*
X68792857Y-141687557D01*
X68792857Y-141687557D02*
X68840476Y-141782795D01*
X68840476Y-141782795D02*
X68840476Y-141878033D01*
X68840476Y-141878033D02*
X68792857Y-142020890D01*
X68792857Y-142020890D02*
X68221429Y-142592319D01*
X68221429Y-142592319D02*
X68840476Y-142592319D01*
X114633333Y-50554819D02*
X114300000Y-50078628D01*
X114061905Y-50554819D02*
X114061905Y-49554819D01*
X114061905Y-49554819D02*
X114442857Y-49554819D01*
X114442857Y-49554819D02*
X114538095Y-49602438D01*
X114538095Y-49602438D02*
X114585714Y-49650057D01*
X114585714Y-49650057D02*
X114633333Y-49745295D01*
X114633333Y-49745295D02*
X114633333Y-49888152D01*
X114633333Y-49888152D02*
X114585714Y-49983390D01*
X114585714Y-49983390D02*
X114538095Y-50031009D01*
X114538095Y-50031009D02*
X114442857Y-50078628D01*
X114442857Y-50078628D02*
X114061905Y-50078628D01*
X115014286Y-49650057D02*
X115061905Y-49602438D01*
X115061905Y-49602438D02*
X115157143Y-49554819D01*
X115157143Y-49554819D02*
X115395238Y-49554819D01*
X115395238Y-49554819D02*
X115490476Y-49602438D01*
X115490476Y-49602438D02*
X115538095Y-49650057D01*
X115538095Y-49650057D02*
X115585714Y-49745295D01*
X115585714Y-49745295D02*
X115585714Y-49840533D01*
X115585714Y-49840533D02*
X115538095Y-49983390D01*
X115538095Y-49983390D02*
X114966667Y-50554819D01*
X114966667Y-50554819D02*
X115585714Y-50554819D01*
X119157142Y-88059580D02*
X119109523Y-88107200D01*
X119109523Y-88107200D02*
X118966666Y-88154819D01*
X118966666Y-88154819D02*
X118871428Y-88154819D01*
X118871428Y-88154819D02*
X118728571Y-88107200D01*
X118728571Y-88107200D02*
X118633333Y-88011961D01*
X118633333Y-88011961D02*
X118585714Y-87916723D01*
X118585714Y-87916723D02*
X118538095Y-87726247D01*
X118538095Y-87726247D02*
X118538095Y-87583390D01*
X118538095Y-87583390D02*
X118585714Y-87392914D01*
X118585714Y-87392914D02*
X118633333Y-87297676D01*
X118633333Y-87297676D02*
X118728571Y-87202438D01*
X118728571Y-87202438D02*
X118871428Y-87154819D01*
X118871428Y-87154819D02*
X118966666Y-87154819D01*
X118966666Y-87154819D02*
X119109523Y-87202438D01*
X119109523Y-87202438D02*
X119157142Y-87250057D01*
X120109523Y-88154819D02*
X119538095Y-88154819D01*
X119823809Y-88154819D02*
X119823809Y-87154819D01*
X119823809Y-87154819D02*
X119728571Y-87297676D01*
X119728571Y-87297676D02*
X119633333Y-87392914D01*
X119633333Y-87392914D02*
X119538095Y-87440533D01*
X120728571Y-87154819D02*
X120823809Y-87154819D01*
X120823809Y-87154819D02*
X120919047Y-87202438D01*
X120919047Y-87202438D02*
X120966666Y-87250057D01*
X120966666Y-87250057D02*
X121014285Y-87345295D01*
X121014285Y-87345295D02*
X121061904Y-87535771D01*
X121061904Y-87535771D02*
X121061904Y-87773866D01*
X121061904Y-87773866D02*
X121014285Y-87964342D01*
X121014285Y-87964342D02*
X120966666Y-88059580D01*
X120966666Y-88059580D02*
X120919047Y-88107200D01*
X120919047Y-88107200D02*
X120823809Y-88154819D01*
X120823809Y-88154819D02*
X120728571Y-88154819D01*
X120728571Y-88154819D02*
X120633333Y-88107200D01*
X120633333Y-88107200D02*
X120585714Y-88059580D01*
X120585714Y-88059580D02*
X120538095Y-87964342D01*
X120538095Y-87964342D02*
X120490476Y-87773866D01*
X120490476Y-87773866D02*
X120490476Y-87535771D01*
X120490476Y-87535771D02*
X120538095Y-87345295D01*
X120538095Y-87345295D02*
X120585714Y-87250057D01*
X120585714Y-87250057D02*
X120633333Y-87202438D01*
X120633333Y-87202438D02*
X120728571Y-87154819D01*
D12*
%TO.C,JP2*%
X127450000Y-103337500D02*
X124650000Y-103337500D01*
X127450000Y-101337500D02*
X127450000Y-103337500D01*
X124650000Y-103337500D02*
X124650000Y-101337500D01*
X124650000Y-101337500D02*
X127450000Y-101337500D01*
%TO.C,QP2*%
X152140000Y-121330000D02*
X152140000Y-125971000D01*
X152140000Y-121330000D02*
X162380000Y-121330000D01*
X152140000Y-122840000D02*
X162380000Y-122840000D01*
X152140000Y-125971000D02*
X162380000Y-125971000D01*
X155410000Y-121330000D02*
X155410000Y-122840000D01*
X159111000Y-121330000D02*
X159111000Y-122840000D01*
X162380000Y-121330000D02*
X162380000Y-125971000D01*
%TO.C,R4*%
X104735000Y-74060436D02*
X104735000Y-74514564D01*
X103265000Y-74060436D02*
X103265000Y-74514564D01*
%TO.C,TP4*%
X125500000Y-95600000D02*
X127900000Y-95600000D01*
X125500000Y-98000000D02*
X125500000Y-95600000D01*
X127900000Y-95600000D02*
X127900000Y-98000000D01*
X127900000Y-98000000D02*
X125500000Y-98000000D01*
%TO.C,D1*%
X71892500Y-67180000D02*
X73092500Y-67180000D01*
X71892500Y-68480000D02*
X71892500Y-67180000D01*
X72092500Y-67380000D02*
X72092500Y-74780000D01*
X72092500Y-74780000D02*
X95492500Y-74780000D01*
X76792500Y-67780000D02*
X76792500Y-67380000D01*
X76792500Y-71380000D02*
X76792500Y-74780000D01*
X95492500Y-67380000D02*
X72092500Y-67380000D01*
X95492500Y-74780000D02*
X95492500Y-67380000D01*
%TO.C,TP1*%
X64550000Y-98837500D02*
X67950000Y-98837500D01*
X64550000Y-102237500D02*
X64550000Y-98837500D01*
X67950000Y-98837500D02*
X67950000Y-102237500D01*
X67950000Y-102237500D02*
X64550000Y-102237500D01*
%TO.C,R8*%
X136130000Y-128070000D02*
X136130000Y-121530000D01*
X136460000Y-128070000D02*
X136130000Y-128070000D01*
X138540000Y-128070000D02*
X138870000Y-128070000D01*
X138870000Y-128070000D02*
X138870000Y-121530000D01*
X136130000Y-121530000D02*
X136460000Y-121530000D01*
X138870000Y-121530000D02*
X138540000Y-121530000D01*
%TO.C,DP1*%
X95120000Y-128612500D02*
X95120000Y-123971500D01*
X95120000Y-128612500D02*
X84880000Y-128612500D01*
X95120000Y-127102500D02*
X84880000Y-127102500D01*
X95120000Y-123971500D02*
X84880000Y-123971500D01*
X91850000Y-128612500D02*
X91850000Y-127102500D01*
X88149000Y-128612500D02*
X88149000Y-127102500D01*
X84880000Y-128612500D02*
X84880000Y-123971500D01*
%TO.C,D6*%
X133490000Y-103497500D02*
X133490000Y-103317500D01*
X133490000Y-103497500D02*
X130070000Y-103497500D01*
X133490000Y-101157500D02*
X133490000Y-100977500D01*
X133490000Y-100977500D02*
X130070000Y-100977500D01*
X133370000Y-103497500D02*
X133370000Y-103317500D01*
X133370000Y-101157500D02*
X133370000Y-100977500D01*
X133250000Y-103497500D02*
X133250000Y-103317500D01*
X133250000Y-101157500D02*
X133250000Y-100977500D01*
X130070000Y-103497500D02*
X130070000Y-103332500D01*
X130070000Y-101142500D02*
X130070000Y-100977500D01*
%TO.C,D5*%
X121240000Y-108615000D02*
X121420000Y-108615000D01*
X121240000Y-108615000D02*
X121240000Y-105195000D01*
X123580000Y-108615000D02*
X123760000Y-108615000D01*
X123760000Y-108615000D02*
X123760000Y-105195000D01*
X121240000Y-108495000D02*
X121420000Y-108495000D01*
X123580000Y-108495000D02*
X123760000Y-108495000D01*
X121240000Y-108375000D02*
X121420000Y-108375000D01*
X123580000Y-108375000D02*
X123760000Y-108375000D01*
X121240000Y-105195000D02*
X121405000Y-105195000D01*
X123595000Y-105195000D02*
X123760000Y-105195000D01*
%TO.C,CLR1*%
X63500000Y-36773500D02*
X102500000Y-36773500D01*
X63500000Y-59273500D02*
X104500000Y-59273500D01*
X63500000Y-66773500D02*
X63500000Y-36773500D01*
X63500000Y-66773500D02*
X104500000Y-66773500D01*
X81500000Y-59273500D02*
X81500000Y-66773500D01*
X86500000Y-59273500D02*
X86500000Y-66773500D01*
X104500000Y-36773500D02*
X102500000Y-36773500D01*
X104500000Y-66773500D02*
X104500000Y-36773500D01*
%TO.C,D3*%
X134230000Y-112947500D02*
X134230000Y-107507500D01*
X134360000Y-112947500D02*
X134230000Y-112947500D01*
X137040000Y-112947500D02*
X137170000Y-112947500D01*
X137170000Y-112947500D02*
X137170000Y-107507500D01*
X134230000Y-112167500D02*
X137170000Y-112167500D01*
X134230000Y-112047500D02*
X137170000Y-112047500D01*
X134230000Y-111927500D02*
X137170000Y-111927500D01*
X134230000Y-107507500D02*
X134360000Y-107507500D01*
X137170000Y-107507500D02*
X137040000Y-107507500D01*
%TO.C,C3*%
X145847755Y-131045000D02*
X147447755Y-131045000D01*
X146647755Y-130245000D02*
X146647755Y-131845000D01*
X154537246Y-127519000D02*
X154537246Y-143681000D01*
X154577246Y-127520000D02*
X154577246Y-143680000D01*
X154617246Y-127520000D02*
X154617246Y-143680000D01*
X154657246Y-127520000D02*
X154657246Y-143680000D01*
X154697246Y-127521000D02*
X154697246Y-143679000D01*
X154737246Y-127522000D02*
X154737246Y-143678000D01*
X154777246Y-127523000D02*
X154777246Y-143677000D01*
X154817246Y-127524000D02*
X154817246Y-143676000D01*
X154857246Y-127526000D02*
X154857246Y-143674000D01*
X154897246Y-127527000D02*
X154897246Y-143673000D01*
X154937246Y-127529000D02*
X154937246Y-143671000D01*
X154977246Y-127531000D02*
X154977246Y-143669000D01*
X155017246Y-127534000D02*
X155017246Y-143666000D01*
X155057246Y-127536000D02*
X155057246Y-143664000D01*
X155097246Y-127539000D02*
X155097246Y-143661000D01*
X155137246Y-127542000D02*
X155137246Y-143658000D01*
X155177246Y-127545000D02*
X155177246Y-143655000D01*
X155217246Y-127548000D02*
X155217246Y-143652000D01*
X155258246Y-127551000D02*
X155258246Y-143649000D01*
X155298246Y-127555000D02*
X155298246Y-143645000D01*
X155338246Y-127559000D02*
X155338246Y-143641000D01*
X155378246Y-127563000D02*
X155378246Y-143637000D01*
X155418246Y-127567000D02*
X155418246Y-143633000D01*
X155458246Y-127572000D02*
X155458246Y-143628000D01*
X155498246Y-127576000D02*
X155498246Y-143624000D01*
X155538246Y-127581000D02*
X155538246Y-143619000D01*
X155578246Y-127586000D02*
X155578246Y-143614000D01*
X155618246Y-127592000D02*
X155618246Y-143608000D01*
X155658246Y-127597000D02*
X155658246Y-143603000D01*
X155698246Y-127603000D02*
X155698246Y-143597000D01*
X155738246Y-127609000D02*
X155738246Y-143591000D01*
X155778246Y-127615000D02*
X155778246Y-143585000D01*
X155818246Y-127621000D02*
X155818246Y-143579000D01*
X155858246Y-127628000D02*
X155858246Y-143572000D01*
X155898246Y-127634000D02*
X155898246Y-143566000D01*
X155938246Y-127641000D02*
X155938246Y-143559000D01*
X155978246Y-127648000D02*
X155978246Y-143552000D01*
X156018246Y-127656000D02*
X156018246Y-143544000D01*
X156058246Y-127663000D02*
X156058246Y-143537000D01*
X156098246Y-127671000D02*
X156098246Y-143529000D01*
X156138246Y-127679000D02*
X156138246Y-143521000D01*
X156178246Y-127687000D02*
X156178246Y-143513000D01*
X156218246Y-127695000D02*
X156218246Y-143505000D01*
X156258246Y-127704000D02*
X156258246Y-143496000D01*
X156298246Y-127713000D02*
X156298246Y-143487000D01*
X156338246Y-127722000D02*
X156338246Y-143478000D01*
X156378246Y-127731000D02*
X156378246Y-143469000D01*
X156418246Y-127740000D02*
X156418246Y-143460000D01*
X156458246Y-127750000D02*
X156458246Y-143450000D01*
X156498246Y-127760000D02*
X156498246Y-143440000D01*
X156538246Y-127770000D02*
X156538246Y-143430000D01*
X156578246Y-127780000D02*
X156578246Y-143420000D01*
X156618246Y-127790000D02*
X156618246Y-143410000D01*
X156658246Y-127801000D02*
X156658246Y-143399000D01*
X156698246Y-127812000D02*
X156698246Y-143388000D01*
X156738246Y-127823000D02*
X156738246Y-143377000D01*
X156778246Y-127835000D02*
X156778246Y-143365000D01*
X156818246Y-127846000D02*
X156818246Y-143354000D01*
X156858246Y-127858000D02*
X156858246Y-134160000D01*
X156858246Y-137040000D02*
X156858246Y-143342000D01*
X156898246Y-127870000D02*
X156898246Y-134160000D01*
X156898246Y-137040000D02*
X156898246Y-143330000D01*
X156938246Y-127882000D02*
X156938246Y-134160000D01*
X156938246Y-137040000D02*
X156938246Y-143318000D01*
X156978246Y-127895000D02*
X156978246Y-134160000D01*
X156978246Y-137040000D02*
X156978246Y-143305000D01*
X157018246Y-127907000D02*
X157018246Y-134160000D01*
X157018246Y-137040000D02*
X157018246Y-143293000D01*
X157058246Y-127920000D02*
X157058246Y-134160000D01*
X157058246Y-137040000D02*
X157058246Y-143280000D01*
X157098246Y-127934000D02*
X157098246Y-134160000D01*
X157098246Y-137040000D02*
X157098246Y-143266000D01*
X157138246Y-127947000D02*
X157138246Y-134160000D01*
X157138246Y-137040000D02*
X157138246Y-143253000D01*
X157178246Y-127961000D02*
X157178246Y-134160000D01*
X157178246Y-137040000D02*
X157178246Y-143239000D01*
X157218246Y-127975000D02*
X157218246Y-134160000D01*
X157218246Y-137040000D02*
X157218246Y-143225000D01*
X157258246Y-127989000D02*
X157258246Y-134160000D01*
X157258246Y-137040000D02*
X157258246Y-143211000D01*
X157298246Y-128003000D02*
X157298246Y-134160000D01*
X157298246Y-137040000D02*
X157298246Y-143197000D01*
X157338246Y-128018000D02*
X157338246Y-134160000D01*
X157338246Y-137040000D02*
X157338246Y-143182000D01*
X157378246Y-128032000D02*
X157378246Y-134160000D01*
X157378246Y-137040000D02*
X157378246Y-143168000D01*
X157418246Y-128047000D02*
X157418246Y-134160000D01*
X157418246Y-137040000D02*
X157418246Y-143153000D01*
X157458246Y-128063000D02*
X157458246Y-134160000D01*
X157458246Y-137040000D02*
X157458246Y-143137000D01*
X157498246Y-128078000D02*
X157498246Y-134160000D01*
X157498246Y-137040000D02*
X157498246Y-143122000D01*
X157538246Y-128094000D02*
X157538246Y-134160000D01*
X157538246Y-137040000D02*
X157538246Y-143106000D01*
X157578246Y-128110000D02*
X157578246Y-134160000D01*
X157578246Y-137040000D02*
X157578246Y-143090000D01*
X157618246Y-128126000D02*
X157618246Y-134160000D01*
X157618246Y-137040000D02*
X157618246Y-143074000D01*
X157658246Y-128143000D02*
X157658246Y-134160000D01*
X157658246Y-137040000D02*
X157658246Y-143057000D01*
X157698246Y-128160000D02*
X157698246Y-134160000D01*
X157698246Y-137040000D02*
X157698246Y-143040000D01*
X157738246Y-128177000D02*
X157738246Y-134160000D01*
X157738246Y-137040000D02*
X157738246Y-143023000D01*
X157778246Y-128194000D02*
X157778246Y-134160000D01*
X157778246Y-137040000D02*
X157778246Y-143006000D01*
X157818246Y-128211000D02*
X157818246Y-134160000D01*
X157818246Y-137040000D02*
X157818246Y-142989000D01*
X157858246Y-128229000D02*
X157858246Y-134160000D01*
X157858246Y-137040000D02*
X157858246Y-142971000D01*
X157898246Y-128247000D02*
X157898246Y-134160000D01*
X157898246Y-137040000D02*
X157898246Y-142953000D01*
X157938246Y-128266000D02*
X157938246Y-134160000D01*
X157938246Y-137040000D02*
X157938246Y-142934000D01*
X157978246Y-128284000D02*
X157978246Y-134160000D01*
X157978246Y-137040000D02*
X157978246Y-142916000D01*
X158018246Y-128303000D02*
X158018246Y-134160000D01*
X158018246Y-137040000D02*
X158018246Y-142897000D01*
X158058246Y-128322000D02*
X158058246Y-134160000D01*
X158058246Y-137040000D02*
X158058246Y-142878000D01*
X158098246Y-128342000D02*
X158098246Y-134160000D01*
X158098246Y-137040000D02*
X158098246Y-142858000D01*
X158138246Y-128361000D02*
X158138246Y-134160000D01*
X158138246Y-137040000D02*
X158138246Y-142839000D01*
X158178246Y-128381000D02*
X158178246Y-134160000D01*
X158178246Y-137040000D02*
X158178246Y-142819000D01*
X158218246Y-128401000D02*
X158218246Y-134160000D01*
X158218246Y-137040000D02*
X158218246Y-142799000D01*
X158258246Y-128422000D02*
X158258246Y-134160000D01*
X158258246Y-137040000D02*
X158258246Y-142778000D01*
X158298246Y-128443000D02*
X158298246Y-134160000D01*
X158298246Y-137040000D02*
X158298246Y-142757000D01*
X158338246Y-128464000D02*
X158338246Y-134160000D01*
X158338246Y-137040000D02*
X158338246Y-142736000D01*
X158378246Y-128485000D02*
X158378246Y-134160000D01*
X158378246Y-137040000D02*
X158378246Y-142715000D01*
X158418246Y-128506000D02*
X158418246Y-134160000D01*
X158418246Y-137040000D02*
X158418246Y-142694000D01*
X158458246Y-128528000D02*
X158458246Y-134160000D01*
X158458246Y-137040000D02*
X158458246Y-142672000D01*
X158498246Y-128551000D02*
X158498246Y-134160000D01*
X158498246Y-137040000D02*
X158498246Y-142649000D01*
X158538246Y-128573000D02*
X158538246Y-134160000D01*
X158538246Y-137040000D02*
X158538246Y-142627000D01*
X158578246Y-128596000D02*
X158578246Y-134160000D01*
X158578246Y-137040000D02*
X158578246Y-142604000D01*
X158618246Y-128619000D02*
X158618246Y-134160000D01*
X158618246Y-137040000D02*
X158618246Y-142581000D01*
X158658246Y-128642000D02*
X158658246Y-134160000D01*
X158658246Y-137040000D02*
X158658246Y-142558000D01*
X158698246Y-128666000D02*
X158698246Y-134160000D01*
X158698246Y-137040000D02*
X158698246Y-142534000D01*
X158738246Y-128690000D02*
X158738246Y-134160000D01*
X158738246Y-137040000D02*
X158738246Y-142510000D01*
X158778246Y-128714000D02*
X158778246Y-134160000D01*
X158778246Y-137040000D02*
X158778246Y-142486000D01*
X158818246Y-128739000D02*
X158818246Y-134160000D01*
X158818246Y-137040000D02*
X158818246Y-142461000D01*
X158858246Y-128764000D02*
X158858246Y-134160000D01*
X158858246Y-137040000D02*
X158858246Y-142436000D01*
X158898246Y-128789000D02*
X158898246Y-134160000D01*
X158898246Y-137040000D02*
X158898246Y-142411000D01*
X158938246Y-128815000D02*
X158938246Y-134160000D01*
X158938246Y-137040000D02*
X158938246Y-142385000D01*
X158978246Y-128841000D02*
X158978246Y-134160000D01*
X158978246Y-137040000D02*
X158978246Y-142359000D01*
X159018246Y-128867000D02*
X159018246Y-134160000D01*
X159018246Y-137040000D02*
X159018246Y-142333000D01*
X159058246Y-128894000D02*
X159058246Y-134160000D01*
X159058246Y-137040000D02*
X159058246Y-142306000D01*
X159098246Y-128921000D02*
X159098246Y-134160000D01*
X159098246Y-137040000D02*
X159098246Y-142279000D01*
X159138246Y-128948000D02*
X159138246Y-134160000D01*
X159138246Y-137040000D02*
X159138246Y-142252000D01*
X159178246Y-128976000D02*
X159178246Y-134160000D01*
X159178246Y-137040000D02*
X159178246Y-142224000D01*
X159218246Y-129004000D02*
X159218246Y-134160000D01*
X159218246Y-137040000D02*
X159218246Y-142196000D01*
X159258246Y-129032000D02*
X159258246Y-134160000D01*
X159258246Y-137040000D02*
X159258246Y-142168000D01*
X159298246Y-129061000D02*
X159298246Y-134160000D01*
X159298246Y-137040000D02*
X159298246Y-142139000D01*
X159338246Y-129090000D02*
X159338246Y-134160000D01*
X159338246Y-137040000D02*
X159338246Y-142110000D01*
X159378246Y-129120000D02*
X159378246Y-134160000D01*
X159378246Y-137040000D02*
X159378246Y-142080000D01*
X159418246Y-129150000D02*
X159418246Y-134160000D01*
X159418246Y-137040000D02*
X159418246Y-142050000D01*
X159458246Y-129180000D02*
X159458246Y-134160000D01*
X159458246Y-137040000D02*
X159458246Y-142020000D01*
X159498246Y-129210000D02*
X159498246Y-134160000D01*
X159498246Y-137040000D02*
X159498246Y-141990000D01*
X159538246Y-129242000D02*
X159538246Y-134160000D01*
X159538246Y-137040000D02*
X159538246Y-141958000D01*
X159578246Y-129273000D02*
X159578246Y-134160000D01*
X159578246Y-137040000D02*
X159578246Y-141927000D01*
X159618246Y-129305000D02*
X159618246Y-134160000D01*
X159618246Y-137040000D02*
X159618246Y-141895000D01*
X159658246Y-129337000D02*
X159658246Y-134160000D01*
X159658246Y-137040000D02*
X159658246Y-141863000D01*
X159698246Y-129370000D02*
X159698246Y-134160000D01*
X159698246Y-137040000D02*
X159698246Y-141830000D01*
X159738246Y-129403000D02*
X159738246Y-141797000D01*
X159778246Y-129437000D02*
X159778246Y-141763000D01*
X159818246Y-129471000D02*
X159818246Y-141729000D01*
X159858246Y-129505000D02*
X159858246Y-141695000D01*
X159898246Y-129540000D02*
X159898246Y-141660000D01*
X159938246Y-129575000D02*
X159938246Y-141625000D01*
X159978246Y-129611000D02*
X159978246Y-141589000D01*
X160018246Y-129648000D02*
X160018246Y-141552000D01*
X160058246Y-129684000D02*
X160058246Y-141516000D01*
X160098246Y-129722000D02*
X160098246Y-141478000D01*
X160138246Y-129760000D02*
X160138246Y-141440000D01*
X160178246Y-129798000D02*
X160178246Y-141402000D01*
X160218246Y-129837000D02*
X160218246Y-141363000D01*
X160258246Y-129876000D02*
X160258246Y-141324000D01*
X160298246Y-129916000D02*
X160298246Y-141284000D01*
X160338246Y-129957000D02*
X160338246Y-141243000D01*
X160378246Y-129998000D02*
X160378246Y-141202000D01*
X160418246Y-130040000D02*
X160418246Y-141160000D01*
X160458246Y-130082000D02*
X160458246Y-141118000D01*
X160498246Y-130125000D02*
X160498246Y-141075000D01*
X160538246Y-130168000D02*
X160538246Y-141032000D01*
X160578246Y-130212000D02*
X160578246Y-140988000D01*
X160618246Y-130257000D02*
X160618246Y-140943000D01*
X160658246Y-130303000D02*
X160658246Y-140897000D01*
X160698246Y-130349000D02*
X160698246Y-140851000D01*
X160738246Y-130396000D02*
X160738246Y-140804000D01*
X160778246Y-130444000D02*
X160778246Y-140756000D01*
X160818246Y-130492000D02*
X160818246Y-140708000D01*
X160858246Y-130541000D02*
X160858246Y-140659000D01*
X160898246Y-130591000D02*
X160898246Y-140609000D01*
X160938246Y-130642000D02*
X160938246Y-140558000D01*
X160978246Y-130694000D02*
X160978246Y-140506000D01*
X161018246Y-130746000D02*
X161018246Y-140454000D01*
X161058246Y-130800000D02*
X161058246Y-140400000D01*
X161098246Y-130854000D02*
X161098246Y-140346000D01*
X161138246Y-130909000D02*
X161138246Y-140291000D01*
X161178246Y-130966000D02*
X161178246Y-140234000D01*
X161218246Y-131023000D02*
X161218246Y-140177000D01*
X161258246Y-131081000D02*
X161258246Y-140119000D01*
X161298246Y-131141000D02*
X161298246Y-140059000D01*
X161338246Y-131202000D02*
X161338246Y-139998000D01*
X161378246Y-131264000D02*
X161378246Y-139936000D01*
X161418246Y-131327000D02*
X161418246Y-139873000D01*
X161458246Y-131391000D02*
X161458246Y-139809000D01*
X161498246Y-131457000D02*
X161498246Y-139743000D01*
X161538246Y-131524000D02*
X161538246Y-139676000D01*
X161578246Y-131593000D02*
X161578246Y-139607000D01*
X161618246Y-131664000D02*
X161618246Y-139536000D01*
X161658246Y-131736000D02*
X161658246Y-139464000D01*
X161698246Y-131810000D02*
X161698246Y-139390000D01*
X161738246Y-131885000D02*
X161738246Y-139315000D01*
X161778246Y-131963000D02*
X161778246Y-139237000D01*
X161818246Y-132043000D02*
X161818246Y-139157000D01*
X161858246Y-132125000D02*
X161858246Y-139075000D01*
X161898246Y-132210000D02*
X161898246Y-138990000D01*
X161938246Y-132297000D02*
X161938246Y-138903000D01*
X161978246Y-132387000D02*
X161978246Y-138813000D01*
X162018246Y-132480000D02*
X162018246Y-138720000D01*
X162058246Y-132576000D02*
X162058246Y-138624000D01*
X162098246Y-132676000D02*
X162098246Y-138524000D01*
X162138246Y-132780000D02*
X162138246Y-138420000D01*
X162178246Y-132889000D02*
X162178246Y-138311000D01*
X162218246Y-133003000D02*
X162218246Y-138197000D01*
X162258246Y-133122000D02*
X162258246Y-138078000D01*
X162298246Y-133249000D02*
X162298246Y-137951000D01*
X162338246Y-133382000D02*
X162338246Y-137818000D01*
X162378246Y-133526000D02*
X162378246Y-137674000D01*
X162418246Y-133680000D02*
X162418246Y-137520000D01*
X162458246Y-133848000D02*
X162458246Y-137352000D01*
X162498246Y-134036000D02*
X162498246Y-137164000D01*
X162538246Y-134249000D02*
X162538246Y-136951000D01*
X162578246Y-134502000D02*
X162578246Y-136698000D01*
X162618246Y-134835000D02*
X162618246Y-136365000D01*
X162657246Y-135600000D02*
G75*
G03*
X162657246Y-135600000I-8120000J0D01*
G01*
%TO.C,QP1*%
X78575000Y-109020000D02*
X83216000Y-109020000D01*
X78575000Y-109020000D02*
X78575000Y-98780000D01*
X80085000Y-109020000D02*
X80085000Y-98780000D01*
X83216000Y-109020000D02*
X83216000Y-98780000D01*
X78575000Y-105750000D02*
X80085000Y-105750000D01*
X78575000Y-102049000D02*
X80085000Y-102049000D01*
X78575000Y-98780000D02*
X83216000Y-98780000D01*
%TO.C,C8*%
X129340302Y-85385000D02*
X130140302Y-85385000D01*
X129740302Y-84985000D02*
X129740302Y-85785000D01*
X133750000Y-83620000D02*
X133750000Y-91780000D01*
X133790000Y-83620000D02*
X133790000Y-91780000D01*
X133830000Y-83620000D02*
X133830000Y-91780000D01*
X133870000Y-83621000D02*
X133870000Y-91779000D01*
X133910000Y-83623000D02*
X133910000Y-91777000D01*
X133950000Y-83624000D02*
X133950000Y-91776000D01*
X133990000Y-83626000D02*
X133990000Y-91774000D01*
X134030000Y-83629000D02*
X134030000Y-91771000D01*
X134070000Y-83632000D02*
X134070000Y-91768000D01*
X134110000Y-83635000D02*
X134110000Y-91765000D01*
X134150000Y-83639000D02*
X134150000Y-91761000D01*
X134190000Y-83643000D02*
X134190000Y-91757000D01*
X134230000Y-83648000D02*
X134230000Y-91752000D01*
X134270000Y-83652000D02*
X134270000Y-91748000D01*
X134310000Y-83658000D02*
X134310000Y-91742000D01*
X134350000Y-83663000D02*
X134350000Y-91737000D01*
X134390000Y-83670000D02*
X134390000Y-91730000D01*
X134430000Y-83676000D02*
X134430000Y-91724000D01*
X134471000Y-83683000D02*
X134471000Y-86660000D01*
X134471000Y-88740000D02*
X134471000Y-91717000D01*
X134511000Y-83690000D02*
X134511000Y-86660000D01*
X134511000Y-88740000D02*
X134511000Y-91710000D01*
X134551000Y-83698000D02*
X134551000Y-86660000D01*
X134551000Y-88740000D02*
X134551000Y-91702000D01*
X134591000Y-83706000D02*
X134591000Y-86660000D01*
X134591000Y-88740000D02*
X134591000Y-91694000D01*
X134631000Y-83715000D02*
X134631000Y-86660000D01*
X134631000Y-88740000D02*
X134631000Y-91685000D01*
X134671000Y-83724000D02*
X134671000Y-86660000D01*
X134671000Y-88740000D02*
X134671000Y-91676000D01*
X134711000Y-83733000D02*
X134711000Y-86660000D01*
X134711000Y-88740000D02*
X134711000Y-91667000D01*
X134751000Y-83743000D02*
X134751000Y-86660000D01*
X134751000Y-88740000D02*
X134751000Y-91657000D01*
X134791000Y-83753000D02*
X134791000Y-86660000D01*
X134791000Y-88740000D02*
X134791000Y-91647000D01*
X134831000Y-83764000D02*
X134831000Y-86660000D01*
X134831000Y-88740000D02*
X134831000Y-91636000D01*
X134871000Y-83775000D02*
X134871000Y-86660000D01*
X134871000Y-88740000D02*
X134871000Y-91625000D01*
X134911000Y-83786000D02*
X134911000Y-86660000D01*
X134911000Y-88740000D02*
X134911000Y-91614000D01*
X134951000Y-83798000D02*
X134951000Y-86660000D01*
X134951000Y-88740000D02*
X134951000Y-91602000D01*
X134991000Y-83811000D02*
X134991000Y-86660000D01*
X134991000Y-88740000D02*
X134991000Y-91589000D01*
X135031000Y-83823000D02*
X135031000Y-86660000D01*
X135031000Y-88740000D02*
X135031000Y-91577000D01*
X135071000Y-83837000D02*
X135071000Y-86660000D01*
X135071000Y-88740000D02*
X135071000Y-91563000D01*
X135111000Y-83850000D02*
X135111000Y-86660000D01*
X135111000Y-88740000D02*
X135111000Y-91550000D01*
X135151000Y-83865000D02*
X135151000Y-86660000D01*
X135151000Y-88740000D02*
X135151000Y-91535000D01*
X135191000Y-83879000D02*
X135191000Y-86660000D01*
X135191000Y-88740000D02*
X135191000Y-91521000D01*
X135231000Y-83895000D02*
X135231000Y-86660000D01*
X135231000Y-88740000D02*
X135231000Y-91505000D01*
X135271000Y-83910000D02*
X135271000Y-86660000D01*
X135271000Y-88740000D02*
X135271000Y-91490000D01*
X135311000Y-83926000D02*
X135311000Y-86660000D01*
X135311000Y-88740000D02*
X135311000Y-91474000D01*
X135351000Y-83943000D02*
X135351000Y-86660000D01*
X135351000Y-88740000D02*
X135351000Y-91457000D01*
X135391000Y-83960000D02*
X135391000Y-86660000D01*
X135391000Y-88740000D02*
X135391000Y-91440000D01*
X135431000Y-83978000D02*
X135431000Y-86660000D01*
X135431000Y-88740000D02*
X135431000Y-91422000D01*
X135471000Y-83996000D02*
X135471000Y-86660000D01*
X135471000Y-88740000D02*
X135471000Y-91404000D01*
X135511000Y-84014000D02*
X135511000Y-86660000D01*
X135511000Y-88740000D02*
X135511000Y-91386000D01*
X135551000Y-84034000D02*
X135551000Y-86660000D01*
X135551000Y-88740000D02*
X135551000Y-91366000D01*
X135591000Y-84053000D02*
X135591000Y-86660000D01*
X135591000Y-88740000D02*
X135591000Y-91347000D01*
X135631000Y-84073000D02*
X135631000Y-86660000D01*
X135631000Y-88740000D02*
X135631000Y-91327000D01*
X135671000Y-84094000D02*
X135671000Y-86660000D01*
X135671000Y-88740000D02*
X135671000Y-91306000D01*
X135711000Y-84116000D02*
X135711000Y-86660000D01*
X135711000Y-88740000D02*
X135711000Y-91284000D01*
X135751000Y-84138000D02*
X135751000Y-86660000D01*
X135751000Y-88740000D02*
X135751000Y-91262000D01*
X135791000Y-84160000D02*
X135791000Y-86660000D01*
X135791000Y-88740000D02*
X135791000Y-91240000D01*
X135831000Y-84183000D02*
X135831000Y-86660000D01*
X135831000Y-88740000D02*
X135831000Y-91217000D01*
X135871000Y-84207000D02*
X135871000Y-86660000D01*
X135871000Y-88740000D02*
X135871000Y-91193000D01*
X135911000Y-84231000D02*
X135911000Y-86660000D01*
X135911000Y-88740000D02*
X135911000Y-91169000D01*
X135951000Y-84256000D02*
X135951000Y-86660000D01*
X135951000Y-88740000D02*
X135951000Y-91144000D01*
X135991000Y-84282000D02*
X135991000Y-86660000D01*
X135991000Y-88740000D02*
X135991000Y-91118000D01*
X136031000Y-84308000D02*
X136031000Y-86660000D01*
X136031000Y-88740000D02*
X136031000Y-91092000D01*
X136071000Y-84335000D02*
X136071000Y-86660000D01*
X136071000Y-88740000D02*
X136071000Y-91065000D01*
X136111000Y-84362000D02*
X136111000Y-86660000D01*
X136111000Y-88740000D02*
X136111000Y-91038000D01*
X136151000Y-84391000D02*
X136151000Y-86660000D01*
X136151000Y-88740000D02*
X136151000Y-91009000D01*
X136191000Y-84420000D02*
X136191000Y-86660000D01*
X136191000Y-88740000D02*
X136191000Y-90980000D01*
X136231000Y-84450000D02*
X136231000Y-86660000D01*
X136231000Y-88740000D02*
X136231000Y-90950000D01*
X136271000Y-84480000D02*
X136271000Y-86660000D01*
X136271000Y-88740000D02*
X136271000Y-90920000D01*
X136311000Y-84511000D02*
X136311000Y-86660000D01*
X136311000Y-88740000D02*
X136311000Y-90889000D01*
X136351000Y-84544000D02*
X136351000Y-86660000D01*
X136351000Y-88740000D02*
X136351000Y-90856000D01*
X136391000Y-84576000D02*
X136391000Y-86660000D01*
X136391000Y-88740000D02*
X136391000Y-90824000D01*
X136431000Y-84610000D02*
X136431000Y-86660000D01*
X136431000Y-88740000D02*
X136431000Y-90790000D01*
X136471000Y-84645000D02*
X136471000Y-86660000D01*
X136471000Y-88740000D02*
X136471000Y-90755000D01*
X136511000Y-84681000D02*
X136511000Y-86660000D01*
X136511000Y-88740000D02*
X136511000Y-90719000D01*
X136551000Y-84717000D02*
X136551000Y-90683000D01*
X136591000Y-84755000D02*
X136591000Y-90645000D01*
X136631000Y-84793000D02*
X136631000Y-90607000D01*
X136671000Y-84833000D02*
X136671000Y-90567000D01*
X136711000Y-84874000D02*
X136711000Y-90526000D01*
X136751000Y-84916000D02*
X136751000Y-90484000D01*
X136791000Y-84959000D02*
X136791000Y-90441000D01*
X136831000Y-85003000D02*
X136831000Y-90397000D01*
X136871000Y-85049000D02*
X136871000Y-90351000D01*
X136911000Y-85096000D02*
X136911000Y-90304000D01*
X136951000Y-85144000D02*
X136951000Y-90256000D01*
X136991000Y-85195000D02*
X136991000Y-90205000D01*
X137031000Y-85246000D02*
X137031000Y-90154000D01*
X137071000Y-85300000D02*
X137071000Y-90100000D01*
X137111000Y-85355000D02*
X137111000Y-90045000D01*
X137151000Y-85413000D02*
X137151000Y-89987000D01*
X137191000Y-85472000D02*
X137191000Y-89928000D01*
X137231000Y-85534000D02*
X137231000Y-89866000D01*
X137271000Y-85598000D02*
X137271000Y-89802000D01*
X137311000Y-85666000D02*
X137311000Y-89734000D01*
X137351000Y-85736000D02*
X137351000Y-89664000D01*
X137391000Y-85810000D02*
X137391000Y-89590000D01*
X137431000Y-85887000D02*
X137431000Y-89513000D01*
X137471000Y-85969000D02*
X137471000Y-89431000D01*
X137511000Y-86055000D02*
X137511000Y-89345000D01*
X137551000Y-86148000D02*
X137551000Y-89252000D01*
X137591000Y-86247000D02*
X137591000Y-89153000D01*
X137631000Y-86354000D02*
X137631000Y-89046000D01*
X137671000Y-86471000D02*
X137671000Y-88929000D01*
X137711000Y-86602000D02*
X137711000Y-88798000D01*
X137751000Y-86752000D02*
X137751000Y-88648000D01*
X137791000Y-86932000D02*
X137791000Y-88468000D01*
X137831000Y-87167000D02*
X137831000Y-88233000D01*
X137870000Y-87700000D02*
G75*
G03*
X137870000Y-87700000I-4120000J0D01*
G01*
%TO.C,R7*%
X131310000Y-119307500D02*
X124770000Y-119307500D01*
X131310000Y-118977500D02*
X131310000Y-119307500D01*
X131310000Y-116897500D02*
X131310000Y-116567500D01*
X131310000Y-116567500D02*
X124770000Y-116567500D01*
X124770000Y-119307500D02*
X124770000Y-118977500D01*
X124770000Y-116567500D02*
X124770000Y-116897500D01*
%TO.C,TP3*%
X128900000Y-112200000D02*
X131300000Y-112200000D01*
X128900000Y-114600000D02*
X128900000Y-112200000D01*
X131300000Y-112200000D02*
X131300000Y-114600000D01*
X131300000Y-114600000D02*
X128900000Y-114600000D01*
%TO.C,TR1*%
X113605000Y-116867500D02*
X86255000Y-116867500D01*
X86255000Y-116867500D02*
X86255000Y-76547500D01*
X86255000Y-76547500D02*
X113605000Y-76547500D01*
X113605000Y-76547500D02*
X113605000Y-116867500D01*
%TO.C,RV1*%
X132720000Y-64330000D02*
X123480000Y-64330000D01*
X132720000Y-64330000D02*
X132720000Y-80670000D01*
X123480000Y-64330000D02*
X123480000Y-80670000D01*
X132720000Y-65949000D02*
X123480000Y-65949000D01*
X132720000Y-79051000D02*
X123480000Y-79051000D01*
X132720000Y-80670000D02*
X123480000Y-80670000D01*
%TO.C,TR2*%
X138850000Y-83737500D02*
X162850000Y-83737500D01*
X162850000Y-83737500D02*
X162850000Y-118737500D01*
X162850000Y-118737500D02*
X138850000Y-118737500D01*
X138850000Y-118737500D02*
X138850000Y-83737500D01*
%TO.C,C1*%
X63112780Y-80085000D02*
X64912780Y-80085000D01*
X64012780Y-79185000D02*
X64012780Y-80985000D01*
X72872220Y-76119000D02*
X72872220Y-94281000D01*
X72912220Y-76120000D02*
X72912220Y-94280000D01*
X72952220Y-76120000D02*
X72952220Y-94280000D01*
X72992220Y-76120000D02*
X72992220Y-94280000D01*
X73032220Y-76121000D02*
X73032220Y-94279000D01*
X73072220Y-76122000D02*
X73072220Y-94278000D01*
X73112220Y-76123000D02*
X73112220Y-94277000D01*
X73152220Y-76124000D02*
X73152220Y-94276000D01*
X73192220Y-76125000D02*
X73192220Y-94275000D01*
X73232220Y-76127000D02*
X73232220Y-94273000D01*
X73272220Y-76128000D02*
X73272220Y-94272000D01*
X73312220Y-76130000D02*
X73312220Y-94270000D01*
X73352220Y-76132000D02*
X73352220Y-94268000D01*
X73392220Y-76134000D02*
X73392220Y-94266000D01*
X73432220Y-76137000D02*
X73432220Y-94263000D01*
X73472220Y-76139000D02*
X73472220Y-94261000D01*
X73512220Y-76142000D02*
X73512220Y-94258000D01*
X73552220Y-76145000D02*
X73552220Y-94255000D01*
X73593220Y-76148000D02*
X73593220Y-94252000D01*
X73633220Y-76151000D02*
X73633220Y-94249000D01*
X73673220Y-76155000D02*
X73673220Y-94245000D01*
X73713220Y-76158000D02*
X73713220Y-94242000D01*
X73753220Y-76162000D02*
X73753220Y-94238000D01*
X73793220Y-76166000D02*
X73793220Y-94234000D01*
X73833220Y-76170000D02*
X73833220Y-94230000D01*
X73873220Y-76174000D02*
X73873220Y-94226000D01*
X73913220Y-76179000D02*
X73913220Y-94221000D01*
X73953220Y-76184000D02*
X73953220Y-94216000D01*
X73993220Y-76189000D02*
X73993220Y-94211000D01*
X74033220Y-76194000D02*
X74033220Y-94206000D01*
X74073220Y-76199000D02*
X74073220Y-94201000D01*
X74113220Y-76204000D02*
X74113220Y-94196000D01*
X74153220Y-76210000D02*
X74153220Y-94190000D01*
X74193220Y-76216000D02*
X74193220Y-94184000D01*
X74233220Y-76221000D02*
X74233220Y-94179000D01*
X74273220Y-76228000D02*
X74273220Y-94172000D01*
X74313220Y-76234000D02*
X74313220Y-94166000D01*
X74353220Y-76240000D02*
X74353220Y-94160000D01*
X74393220Y-76247000D02*
X74393220Y-94153000D01*
X74433220Y-76254000D02*
X74433220Y-94146000D01*
X74473220Y-76261000D02*
X74473220Y-94139000D01*
X74513220Y-76268000D02*
X74513220Y-94132000D01*
X74553220Y-76276000D02*
X74553220Y-94124000D01*
X74593220Y-76283000D02*
X74593220Y-94117000D01*
X74633220Y-76291000D02*
X74633220Y-94109000D01*
X74673220Y-76299000D02*
X74673220Y-94101000D01*
X74713220Y-76307000D02*
X74713220Y-94093000D01*
X74753220Y-76315000D02*
X74753220Y-94085000D01*
X74793220Y-76324000D02*
X74793220Y-94076000D01*
X74833220Y-76333000D02*
X74833220Y-94067000D01*
X74873220Y-76342000D02*
X74873220Y-94058000D01*
X74913220Y-76351000D02*
X74913220Y-94049000D01*
X74953220Y-76360000D02*
X74953220Y-94040000D01*
X74993220Y-76369000D02*
X74993220Y-94031000D01*
X75033220Y-76379000D02*
X75033220Y-94021000D01*
X75073220Y-76389000D02*
X75073220Y-94011000D01*
X75113220Y-76399000D02*
X75113220Y-94001000D01*
X75153220Y-76409000D02*
X75153220Y-93991000D01*
X75193220Y-76420000D02*
X75193220Y-83760000D01*
X75193220Y-86640000D02*
X75193220Y-93980000D01*
X75233220Y-76430000D02*
X75233220Y-83760000D01*
X75233220Y-86640000D02*
X75233220Y-93970000D01*
X75273220Y-76441000D02*
X75273220Y-83760000D01*
X75273220Y-86640000D02*
X75273220Y-93959000D01*
X75313220Y-76452000D02*
X75313220Y-83760000D01*
X75313220Y-86640000D02*
X75313220Y-93948000D01*
X75353220Y-76463000D02*
X75353220Y-83760000D01*
X75353220Y-86640000D02*
X75353220Y-93937000D01*
X75393220Y-76475000D02*
X75393220Y-83760000D01*
X75393220Y-86640000D02*
X75393220Y-93925000D01*
X75433220Y-76486000D02*
X75433220Y-83760000D01*
X75433220Y-86640000D02*
X75433220Y-93914000D01*
X75473220Y-76498000D02*
X75473220Y-83760000D01*
X75473220Y-86640000D02*
X75473220Y-93902000D01*
X75513220Y-76510000D02*
X75513220Y-83760000D01*
X75513220Y-86640000D02*
X75513220Y-93890000D01*
X75553220Y-76522000D02*
X75553220Y-83760000D01*
X75553220Y-86640000D02*
X75553220Y-93878000D01*
X75593220Y-76535000D02*
X75593220Y-83760000D01*
X75593220Y-86640000D02*
X75593220Y-93865000D01*
X75633220Y-76547000D02*
X75633220Y-83760000D01*
X75633220Y-86640000D02*
X75633220Y-93853000D01*
X75673220Y-76560000D02*
X75673220Y-83760000D01*
X75673220Y-86640000D02*
X75673220Y-93840000D01*
X75713220Y-76573000D02*
X75713220Y-83760000D01*
X75713220Y-86640000D02*
X75713220Y-93827000D01*
X75753220Y-76586000D02*
X75753220Y-83760000D01*
X75753220Y-86640000D02*
X75753220Y-93814000D01*
X75793220Y-76600000D02*
X75793220Y-83760000D01*
X75793220Y-86640000D02*
X75793220Y-93800000D01*
X75833220Y-76613000D02*
X75833220Y-83760000D01*
X75833220Y-86640000D02*
X75833220Y-93787000D01*
X75873220Y-76627000D02*
X75873220Y-83760000D01*
X75873220Y-86640000D02*
X75873220Y-93773000D01*
X75913220Y-76641000D02*
X75913220Y-83760000D01*
X75913220Y-86640000D02*
X75913220Y-93759000D01*
X75953220Y-76655000D02*
X75953220Y-83760000D01*
X75953220Y-86640000D02*
X75953220Y-93745000D01*
X75993220Y-76670000D02*
X75993220Y-83760000D01*
X75993220Y-86640000D02*
X75993220Y-93730000D01*
X76033220Y-76684000D02*
X76033220Y-83760000D01*
X76033220Y-86640000D02*
X76033220Y-93716000D01*
X76073220Y-76699000D02*
X76073220Y-83760000D01*
X76073220Y-86640000D02*
X76073220Y-93701000D01*
X76113220Y-76714000D02*
X76113220Y-83760000D01*
X76113220Y-86640000D02*
X76113220Y-93686000D01*
X76153220Y-76730000D02*
X76153220Y-83760000D01*
X76153220Y-86640000D02*
X76153220Y-93670000D01*
X76193220Y-76745000D02*
X76193220Y-83760000D01*
X76193220Y-86640000D02*
X76193220Y-93655000D01*
X76233220Y-76761000D02*
X76233220Y-83760000D01*
X76233220Y-86640000D02*
X76233220Y-93639000D01*
X76273220Y-76777000D02*
X76273220Y-83760000D01*
X76273220Y-86640000D02*
X76273220Y-93623000D01*
X76313220Y-76793000D02*
X76313220Y-83760000D01*
X76313220Y-86640000D02*
X76313220Y-93607000D01*
X76353220Y-76810000D02*
X76353220Y-83760000D01*
X76353220Y-86640000D02*
X76353220Y-93590000D01*
X76393220Y-76826000D02*
X76393220Y-83760000D01*
X76393220Y-86640000D02*
X76393220Y-93574000D01*
X76433220Y-76843000D02*
X76433220Y-83760000D01*
X76433220Y-86640000D02*
X76433220Y-93557000D01*
X76473220Y-76860000D02*
X76473220Y-83760000D01*
X76473220Y-86640000D02*
X76473220Y-93540000D01*
X76513220Y-76877000D02*
X76513220Y-83760000D01*
X76513220Y-86640000D02*
X76513220Y-93523000D01*
X76553220Y-76895000D02*
X76553220Y-83760000D01*
X76553220Y-86640000D02*
X76553220Y-93505000D01*
X76593220Y-76913000D02*
X76593220Y-83760000D01*
X76593220Y-86640000D02*
X76593220Y-93487000D01*
X76633220Y-76931000D02*
X76633220Y-83760000D01*
X76633220Y-86640000D02*
X76633220Y-93469000D01*
X76673220Y-76949000D02*
X76673220Y-83760000D01*
X76673220Y-86640000D02*
X76673220Y-93451000D01*
X76713220Y-76967000D02*
X76713220Y-83760000D01*
X76713220Y-86640000D02*
X76713220Y-93433000D01*
X76753220Y-76986000D02*
X76753220Y-83760000D01*
X76753220Y-86640000D02*
X76753220Y-93414000D01*
X76793220Y-77005000D02*
X76793220Y-83760000D01*
X76793220Y-86640000D02*
X76793220Y-93395000D01*
X76833220Y-77024000D02*
X76833220Y-83760000D01*
X76833220Y-86640000D02*
X76833220Y-93376000D01*
X76873220Y-77044000D02*
X76873220Y-83760000D01*
X76873220Y-86640000D02*
X76873220Y-93356000D01*
X76913220Y-77063000D02*
X76913220Y-83760000D01*
X76913220Y-86640000D02*
X76913220Y-93337000D01*
X76953220Y-77083000D02*
X76953220Y-83760000D01*
X76953220Y-86640000D02*
X76953220Y-93317000D01*
X76993220Y-77103000D02*
X76993220Y-83760000D01*
X76993220Y-86640000D02*
X76993220Y-93297000D01*
X77033220Y-77124000D02*
X77033220Y-83760000D01*
X77033220Y-86640000D02*
X77033220Y-93276000D01*
X77073220Y-77144000D02*
X77073220Y-83760000D01*
X77073220Y-86640000D02*
X77073220Y-93256000D01*
X77113220Y-77165000D02*
X77113220Y-83760000D01*
X77113220Y-86640000D02*
X77113220Y-93235000D01*
X77153220Y-77186000D02*
X77153220Y-83760000D01*
X77153220Y-86640000D02*
X77153220Y-93214000D01*
X77193220Y-77208000D02*
X77193220Y-83760000D01*
X77193220Y-86640000D02*
X77193220Y-93192000D01*
X77233220Y-77229000D02*
X77233220Y-83760000D01*
X77233220Y-86640000D02*
X77233220Y-93171000D01*
X77273220Y-77251000D02*
X77273220Y-83760000D01*
X77273220Y-86640000D02*
X77273220Y-93149000D01*
X77313220Y-77273000D02*
X77313220Y-83760000D01*
X77313220Y-86640000D02*
X77313220Y-93127000D01*
X77353220Y-77296000D02*
X77353220Y-83760000D01*
X77353220Y-86640000D02*
X77353220Y-93104000D01*
X77393220Y-77318000D02*
X77393220Y-83760000D01*
X77393220Y-86640000D02*
X77393220Y-93082000D01*
X77433220Y-77341000D02*
X77433220Y-83760000D01*
X77433220Y-86640000D02*
X77433220Y-93059000D01*
X77473220Y-77365000D02*
X77473220Y-83760000D01*
X77473220Y-86640000D02*
X77473220Y-93035000D01*
X77513220Y-77388000D02*
X77513220Y-83760000D01*
X77513220Y-86640000D02*
X77513220Y-93012000D01*
X77553220Y-77412000D02*
X77553220Y-83760000D01*
X77553220Y-86640000D02*
X77553220Y-92988000D01*
X77593220Y-77436000D02*
X77593220Y-83760000D01*
X77593220Y-86640000D02*
X77593220Y-92964000D01*
X77633220Y-77460000D02*
X77633220Y-83760000D01*
X77633220Y-86640000D02*
X77633220Y-92940000D01*
X77673220Y-77485000D02*
X77673220Y-83760000D01*
X77673220Y-86640000D02*
X77673220Y-92915000D01*
X77713220Y-77510000D02*
X77713220Y-83760000D01*
X77713220Y-86640000D02*
X77713220Y-92890000D01*
X77753220Y-77535000D02*
X77753220Y-83760000D01*
X77753220Y-86640000D02*
X77753220Y-92865000D01*
X77793220Y-77560000D02*
X77793220Y-83760000D01*
X77793220Y-86640000D02*
X77793220Y-92840000D01*
X77833220Y-77586000D02*
X77833220Y-83760000D01*
X77833220Y-86640000D02*
X77833220Y-92814000D01*
X77873220Y-77612000D02*
X77873220Y-83760000D01*
X77873220Y-86640000D02*
X77873220Y-92788000D01*
X77913220Y-77639000D02*
X77913220Y-83760000D01*
X77913220Y-86640000D02*
X77913220Y-92761000D01*
X77953220Y-77665000D02*
X77953220Y-83760000D01*
X77953220Y-86640000D02*
X77953220Y-92735000D01*
X77993220Y-77692000D02*
X77993220Y-83760000D01*
X77993220Y-86640000D02*
X77993220Y-92708000D01*
X78033220Y-77720000D02*
X78033220Y-83760000D01*
X78033220Y-86640000D02*
X78033220Y-92680000D01*
X78073220Y-77747000D02*
X78073220Y-92653000D01*
X78113220Y-77775000D02*
X78113220Y-92625000D01*
X78153220Y-77803000D02*
X78153220Y-92597000D01*
X78193220Y-77832000D02*
X78193220Y-92568000D01*
X78233220Y-77861000D02*
X78233220Y-92539000D01*
X78273220Y-77890000D02*
X78273220Y-92510000D01*
X78313220Y-77920000D02*
X78313220Y-92480000D01*
X78353220Y-77950000D02*
X78353220Y-92450000D01*
X78393220Y-77980000D02*
X78393220Y-92420000D01*
X78433220Y-78010000D02*
X78433220Y-92390000D01*
X78473220Y-78041000D02*
X78473220Y-92359000D01*
X78513220Y-78073000D02*
X78513220Y-92327000D01*
X78553220Y-78104000D02*
X78553220Y-92296000D01*
X78593220Y-78136000D02*
X78593220Y-92264000D01*
X78633220Y-78169000D02*
X78633220Y-92231000D01*
X78673220Y-78201000D02*
X78673220Y-92199000D01*
X78713220Y-78235000D02*
X78713220Y-92165000D01*
X78753220Y-78268000D02*
X78753220Y-92132000D01*
X78793220Y-78302000D02*
X78793220Y-92098000D01*
X78833220Y-78336000D02*
X78833220Y-92064000D01*
X78873220Y-78371000D02*
X78873220Y-92029000D01*
X78913220Y-78406000D02*
X78913220Y-91994000D01*
X78953220Y-78442000D02*
X78953220Y-91958000D01*
X78993220Y-78478000D02*
X78993220Y-91922000D01*
X79033220Y-78514000D02*
X79033220Y-91886000D01*
X79073220Y-78551000D02*
X79073220Y-91849000D01*
X79113220Y-78588000D02*
X79113220Y-91812000D01*
X79153220Y-78626000D02*
X79153220Y-91774000D01*
X79193220Y-78664000D02*
X79193220Y-91736000D01*
X79233220Y-78703000D02*
X79233220Y-91697000D01*
X79273220Y-78742000D02*
X79273220Y-91658000D01*
X79313220Y-78782000D02*
X79313220Y-91618000D01*
X79353220Y-78822000D02*
X79353220Y-91578000D01*
X79393220Y-78863000D02*
X79393220Y-91537000D01*
X79433220Y-78904000D02*
X79433220Y-91496000D01*
X79473220Y-78946000D02*
X79473220Y-91454000D01*
X79513220Y-78988000D02*
X79513220Y-91412000D01*
X79553220Y-79030000D02*
X79553220Y-91370000D01*
X79593220Y-79074000D02*
X79593220Y-91326000D01*
X79633220Y-79118000D02*
X79633220Y-91282000D01*
X79673220Y-79162000D02*
X79673220Y-91238000D01*
X79713220Y-79207000D02*
X79713220Y-91193000D01*
X79753220Y-79253000D02*
X79753220Y-91147000D01*
X79793220Y-79299000D02*
X79793220Y-91101000D01*
X79833220Y-79346000D02*
X79833220Y-91054000D01*
X79873220Y-79394000D02*
X79873220Y-91006000D01*
X79913220Y-79442000D02*
X79913220Y-90958000D01*
X79953220Y-79491000D02*
X79953220Y-90909000D01*
X79993220Y-79540000D02*
X79993220Y-90860000D01*
X80033220Y-79591000D02*
X80033220Y-90809000D01*
X80073220Y-79642000D02*
X80073220Y-90758000D01*
X80113220Y-79694000D02*
X80113220Y-90706000D01*
X80153220Y-79746000D02*
X80153220Y-90654000D01*
X80193220Y-79800000D02*
X80193220Y-90600000D01*
X80233220Y-79854000D02*
X80233220Y-90546000D01*
X80273220Y-79909000D02*
X80273220Y-90491000D01*
X80313220Y-79965000D02*
X80313220Y-90435000D01*
X80353220Y-80022000D02*
X80353220Y-90378000D01*
X80393220Y-80080000D02*
X80393220Y-90320000D01*
X80433220Y-80138000D02*
X80433220Y-90262000D01*
X80473220Y-80198000D02*
X80473220Y-90202000D01*
X80513220Y-80259000D02*
X80513220Y-90141000D01*
X80553220Y-80321000D02*
X80553220Y-90079000D01*
X80593220Y-80384000D02*
X80593220Y-90016000D01*
X80633220Y-80448000D02*
X80633220Y-89952000D01*
X80673220Y-80514000D02*
X80673220Y-89886000D01*
X80713220Y-80580000D02*
X80713220Y-89820000D01*
X80753220Y-80648000D02*
X80753220Y-89752000D01*
X80793220Y-80718000D02*
X80793220Y-89682000D01*
X80833220Y-80788000D02*
X80833220Y-89612000D01*
X80873220Y-80861000D02*
X80873220Y-89539000D01*
X80913220Y-80935000D02*
X80913220Y-89465000D01*
X80953220Y-81010000D02*
X80953220Y-89390000D01*
X80993220Y-81087000D02*
X80993220Y-89313000D01*
X81033220Y-81167000D02*
X81033220Y-89233000D01*
X81072220Y-81248000D02*
X81072220Y-89152000D01*
X81112220Y-81331000D02*
X81112220Y-89069000D01*
X81152220Y-81416000D02*
X81152220Y-88984000D01*
X81192220Y-81504000D02*
X81192220Y-88896000D01*
X81232220Y-81595000D02*
X81232220Y-88805000D01*
X81272220Y-81688000D02*
X81272220Y-88712000D01*
X81312220Y-81784000D02*
X81312220Y-88616000D01*
X81352220Y-81883000D02*
X81352220Y-88517000D01*
X81392220Y-81986000D02*
X81392220Y-88414000D01*
X81432220Y-82093000D02*
X81432220Y-88307000D01*
X81472220Y-82204000D02*
X81472220Y-88196000D01*
X81512220Y-82320000D02*
X81512220Y-88080000D01*
X81552220Y-82441000D02*
X81552220Y-87959000D01*
X81592220Y-82568000D02*
X81592220Y-87832000D01*
X81632220Y-82702000D02*
X81632220Y-87698000D01*
X81672220Y-82845000D02*
X81672220Y-87555000D01*
X81712220Y-82997000D02*
X81712220Y-87403000D01*
X81752220Y-83161000D02*
X81752220Y-87239000D01*
X81792220Y-83340000D02*
X81792220Y-87060000D01*
X81832220Y-83539000D02*
X81832220Y-86861000D01*
X81872220Y-83765000D02*
X81872220Y-86635000D01*
X81912220Y-84034000D02*
X81912220Y-86366000D01*
X81952220Y-84386000D02*
X81952220Y-86014000D01*
X81992220Y-85160000D02*
X81992220Y-85240000D01*
X81992220Y-85200000D02*
G75*
G03*
X81992220Y-85200000I-9120000J0D01*
G01*
%TO.C,C6*%
X139830000Y-127907500D02*
X142570000Y-127907500D01*
X139830000Y-127907500D02*
X139830000Y-120667500D01*
X142570000Y-127907500D02*
X142570000Y-120667500D01*
X139830000Y-120667500D02*
X142570000Y-120667500D01*
D10*
%TO.C,R3*%
X105300000Y-56200000D02*
X111100000Y-56200000D01*
X105300000Y-56200000D02*
X105300000Y-44200000D01*
X111100000Y-56200000D02*
X111100000Y-44200000D01*
X105300000Y-44200000D02*
X111100000Y-44200000D01*
D12*
%TO.C,D4*%
X134249716Y-94900000D02*
G75*
G03*
X134191636Y-98175386I-2154716J-1600000D01*
G01*
%TO.C,Y1*%
X130420000Y-44580000D02*
X124180000Y-44580000D01*
X130420000Y-44580000D02*
X130420000Y-62820000D01*
X124180000Y-44580000D02*
X124180000Y-62820000D01*
X130420000Y-62820000D02*
X124180000Y-62820000D01*
%TO.C,R16*%
X136727064Y-101635000D02*
X136272936Y-101635000D01*
X136727064Y-100165000D02*
X136272936Y-100165000D01*
D10*
%TO.C,R1*%
X118000000Y-56200000D02*
X123800000Y-56200000D01*
X118000000Y-56200000D02*
X118000000Y-44200000D01*
X123800000Y-56200000D02*
X123800000Y-44200000D01*
X118000000Y-44200000D02*
X123800000Y-44200000D01*
D12*
%TO.C,R6*%
X124730000Y-121917500D02*
X131270000Y-121917500D01*
X124730000Y-122247500D02*
X124730000Y-121917500D01*
X124730000Y-124327500D02*
X124730000Y-124657500D01*
X124730000Y-124657500D02*
X131270000Y-124657500D01*
X131270000Y-121917500D02*
X131270000Y-122247500D01*
X131270000Y-124657500D02*
X131270000Y-124327500D01*
D10*
%TO.C,JP1*%
X118100000Y-119317500D02*
X117600000Y-118817500D01*
X118900000Y-119317500D02*
X118100000Y-119317500D01*
X117600000Y-118817500D02*
X117600000Y-115217500D01*
X119400000Y-118817500D02*
X118900000Y-119317500D01*
X117600000Y-115217500D02*
X118100000Y-114717500D01*
X119400000Y-115217500D02*
X119400000Y-118817500D01*
X118100000Y-114717500D02*
X118900000Y-114717500D01*
X118900000Y-114717500D02*
X119400000Y-115217500D01*
D12*
%TO.C,CLR3*%
X72900000Y-111400000D02*
X72900000Y-96400000D01*
X78400000Y-111400000D02*
X78400000Y-96400000D01*
X82900000Y-111400000D02*
X72900000Y-111400000D01*
X78400000Y-110400000D02*
X82900000Y-110400000D01*
X82900000Y-110400000D02*
X82900000Y-111400000D01*
X78400000Y-103900000D02*
X77900000Y-103900000D01*
X78400000Y-97400000D02*
X82900000Y-97400000D01*
X72900000Y-96400000D02*
X82900000Y-96400000D01*
X82900000Y-96400000D02*
X82900000Y-97400000D01*
%TO.C,K1*%
X106500000Y-76400000D02*
X113100000Y-76400000D01*
X106500000Y-76400000D02*
X106500000Y-56600000D01*
X115500000Y-76400000D02*
X122100000Y-76400000D01*
X114350000Y-72350000D02*
X114350000Y-73150000D01*
X114350000Y-72350000D02*
X117950000Y-72350000D01*
X120350000Y-71450000D02*
X120350000Y-68950000D01*
X112550000Y-70950000D02*
X112550000Y-66950000D01*
X116150000Y-70950000D02*
X112550000Y-70950000D01*
X108350000Y-68950000D02*
X108350000Y-71450000D01*
X108350000Y-68950000D02*
X112550000Y-68950000D01*
X116150000Y-68950000D02*
X120350000Y-68950000D01*
X112550000Y-66950000D02*
X116150000Y-66950000D01*
X116150000Y-66950000D02*
X112550000Y-70950000D01*
X116150000Y-66950000D02*
X116150000Y-70950000D01*
X114350000Y-65550000D02*
X117950000Y-65550000D01*
X114350000Y-65550000D02*
X114350000Y-64050000D01*
X117950000Y-65550000D02*
X117950000Y-72350000D01*
X114350000Y-64050000D02*
X111850000Y-59450000D01*
X110100000Y-60850000D02*
X112600000Y-60850000D01*
X118500000Y-60850000D02*
X116050000Y-60850000D01*
X106500000Y-56600000D02*
X122100000Y-56600000D01*
X122100000Y-56600000D02*
X122100000Y-76400000D01*
%TO.C,D2*%
X145230000Y-127320000D02*
X145230000Y-121880000D01*
X145360000Y-127320000D02*
X145230000Y-127320000D01*
X148040000Y-127320000D02*
X148170000Y-127320000D01*
X148170000Y-127320000D02*
X148170000Y-121880000D01*
X145230000Y-126540000D02*
X148170000Y-126540000D01*
X145230000Y-126420000D02*
X148170000Y-126420000D01*
X145230000Y-126300000D02*
X148170000Y-126300000D01*
X145230000Y-121880000D02*
X145360000Y-121880000D01*
X148170000Y-121880000D02*
X148040000Y-121880000D01*
%TO.C,CLR2*%
X64500000Y-128787500D02*
X115500000Y-128787500D01*
X88000000Y-128787500D02*
X88000000Y-132787500D01*
X90000000Y-128787500D02*
X90000000Y-132787500D01*
X92000000Y-128787500D02*
X92000000Y-132787500D01*
X115500000Y-132787500D02*
X64500000Y-132787500D01*
X64500000Y-117787500D02*
X115500000Y-117787500D01*
X115500000Y-117787500D02*
X115500000Y-143287500D01*
X115500000Y-143287500D02*
X64500000Y-143287500D01*
X64500000Y-143287500D02*
X64500000Y-117787500D01*
D10*
%TO.C,R2*%
X117500000Y-44200000D02*
X111700000Y-44200000D01*
X117500000Y-44200000D02*
X117500000Y-56200000D01*
X111700000Y-44200000D02*
X111700000Y-56200000D01*
X117500000Y-56200000D02*
X111700000Y-56200000D01*
D12*
%TO.C,C10*%
X129359698Y-93115000D02*
X128559698Y-93115000D01*
X128959698Y-93515000D02*
X128959698Y-92715000D01*
X124950000Y-94880000D02*
X124950000Y-86720000D01*
X124910000Y-94880000D02*
X124910000Y-86720000D01*
X124870000Y-94880000D02*
X124870000Y-86720000D01*
X124830000Y-94879000D02*
X124830000Y-86721000D01*
X124790000Y-94877000D02*
X124790000Y-86723000D01*
X124750000Y-94876000D02*
X124750000Y-86724000D01*
X124710000Y-94874000D02*
X124710000Y-86726000D01*
X124670000Y-94871000D02*
X124670000Y-86729000D01*
X124630000Y-94868000D02*
X124630000Y-86732000D01*
X124590000Y-94865000D02*
X124590000Y-86735000D01*
X124550000Y-94861000D02*
X124550000Y-86739000D01*
X124510000Y-94857000D02*
X124510000Y-86743000D01*
X124470000Y-94852000D02*
X124470000Y-86748000D01*
X124430000Y-94848000D02*
X124430000Y-86752000D01*
X124390000Y-94842000D02*
X124390000Y-86758000D01*
X124350000Y-94837000D02*
X124350000Y-86763000D01*
X124310000Y-94830000D02*
X124310000Y-86770000D01*
X124270000Y-94824000D02*
X124270000Y-86776000D01*
X124229000Y-94817000D02*
X124229000Y-91840000D01*
X124229000Y-89760000D02*
X124229000Y-86783000D01*
X124189000Y-94810000D02*
X124189000Y-91840000D01*
X124189000Y-89760000D02*
X124189000Y-86790000D01*
X124149000Y-94802000D02*
X124149000Y-91840000D01*
X124149000Y-89760000D02*
X124149000Y-86798000D01*
X124109000Y-94794000D02*
X124109000Y-91840000D01*
X124109000Y-89760000D02*
X124109000Y-86806000D01*
X124069000Y-94785000D02*
X124069000Y-91840000D01*
X124069000Y-89760000D02*
X124069000Y-86815000D01*
X124029000Y-94776000D02*
X124029000Y-91840000D01*
X124029000Y-89760000D02*
X124029000Y-86824000D01*
X123989000Y-94767000D02*
X123989000Y-91840000D01*
X123989000Y-89760000D02*
X123989000Y-86833000D01*
X123949000Y-94757000D02*
X123949000Y-91840000D01*
X123949000Y-89760000D02*
X123949000Y-86843000D01*
X123909000Y-94747000D02*
X123909000Y-91840000D01*
X123909000Y-89760000D02*
X123909000Y-86853000D01*
X123869000Y-94736000D02*
X123869000Y-91840000D01*
X123869000Y-89760000D02*
X123869000Y-86864000D01*
X123829000Y-94725000D02*
X123829000Y-91840000D01*
X123829000Y-89760000D02*
X123829000Y-86875000D01*
X123789000Y-94714000D02*
X123789000Y-91840000D01*
X123789000Y-89760000D02*
X123789000Y-86886000D01*
X123749000Y-94702000D02*
X123749000Y-91840000D01*
X123749000Y-89760000D02*
X123749000Y-86898000D01*
X123709000Y-94689000D02*
X123709000Y-91840000D01*
X123709000Y-89760000D02*
X123709000Y-86911000D01*
X123669000Y-94677000D02*
X123669000Y-91840000D01*
X123669000Y-89760000D02*
X123669000Y-86923000D01*
X123629000Y-94663000D02*
X123629000Y-91840000D01*
X123629000Y-89760000D02*
X123629000Y-86937000D01*
X123589000Y-94650000D02*
X123589000Y-91840000D01*
X123589000Y-89760000D02*
X123589000Y-86950000D01*
X123549000Y-94635000D02*
X123549000Y-91840000D01*
X123549000Y-89760000D02*
X123549000Y-86965000D01*
X123509000Y-94621000D02*
X123509000Y-91840000D01*
X123509000Y-89760000D02*
X123509000Y-86979000D01*
X123469000Y-94605000D02*
X123469000Y-91840000D01*
X123469000Y-89760000D02*
X123469000Y-86995000D01*
X123429000Y-94590000D02*
X123429000Y-91840000D01*
X123429000Y-89760000D02*
X123429000Y-87010000D01*
X123389000Y-94574000D02*
X123389000Y-91840000D01*
X123389000Y-89760000D02*
X123389000Y-87026000D01*
X123349000Y-94557000D02*
X123349000Y-91840000D01*
X123349000Y-89760000D02*
X123349000Y-87043000D01*
X123309000Y-94540000D02*
X123309000Y-91840000D01*
X123309000Y-89760000D02*
X123309000Y-87060000D01*
X123269000Y-94522000D02*
X123269000Y-91840000D01*
X123269000Y-89760000D02*
X123269000Y-87078000D01*
X123229000Y-94504000D02*
X123229000Y-91840000D01*
X123229000Y-89760000D02*
X123229000Y-87096000D01*
X123189000Y-94486000D02*
X123189000Y-91840000D01*
X123189000Y-89760000D02*
X123189000Y-87114000D01*
X123149000Y-94466000D02*
X123149000Y-91840000D01*
X123149000Y-89760000D02*
X123149000Y-87134000D01*
X123109000Y-94447000D02*
X123109000Y-91840000D01*
X123109000Y-89760000D02*
X123109000Y-87153000D01*
X123069000Y-94427000D02*
X123069000Y-91840000D01*
X123069000Y-89760000D02*
X123069000Y-87173000D01*
X123029000Y-94406000D02*
X123029000Y-91840000D01*
X123029000Y-89760000D02*
X123029000Y-87194000D01*
X122989000Y-94384000D02*
X122989000Y-91840000D01*
X122989000Y-89760000D02*
X122989000Y-87216000D01*
X122949000Y-94362000D02*
X122949000Y-91840000D01*
X122949000Y-89760000D02*
X122949000Y-87238000D01*
X122909000Y-94340000D02*
X122909000Y-91840000D01*
X122909000Y-89760000D02*
X122909000Y-87260000D01*
X122869000Y-94317000D02*
X122869000Y-91840000D01*
X122869000Y-89760000D02*
X122869000Y-87283000D01*
X122829000Y-94293000D02*
X122829000Y-91840000D01*
X122829000Y-89760000D02*
X122829000Y-87307000D01*
X122789000Y-94269000D02*
X122789000Y-91840000D01*
X122789000Y-89760000D02*
X122789000Y-87331000D01*
X122749000Y-94244000D02*
X122749000Y-91840000D01*
X122749000Y-89760000D02*
X122749000Y-87356000D01*
X122709000Y-94218000D02*
X122709000Y-91840000D01*
X122709000Y-89760000D02*
X122709000Y-87382000D01*
X122669000Y-94192000D02*
X122669000Y-91840000D01*
X122669000Y-89760000D02*
X122669000Y-87408000D01*
X122629000Y-94165000D02*
X122629000Y-91840000D01*
X122629000Y-89760000D02*
X122629000Y-87435000D01*
X122589000Y-94138000D02*
X122589000Y-91840000D01*
X122589000Y-89760000D02*
X122589000Y-87462000D01*
X122549000Y-94109000D02*
X122549000Y-91840000D01*
X122549000Y-89760000D02*
X122549000Y-87491000D01*
X122509000Y-94080000D02*
X122509000Y-91840000D01*
X122509000Y-89760000D02*
X122509000Y-87520000D01*
X122469000Y-94050000D02*
X122469000Y-91840000D01*
X122469000Y-89760000D02*
X122469000Y-87550000D01*
X122429000Y-94020000D02*
X122429000Y-91840000D01*
X122429000Y-89760000D02*
X122429000Y-87580000D01*
X122389000Y-93989000D02*
X122389000Y-91840000D01*
X122389000Y-89760000D02*
X122389000Y-87611000D01*
X122349000Y-93956000D02*
X122349000Y-91840000D01*
X122349000Y-89760000D02*
X122349000Y-87644000D01*
X122309000Y-93924000D02*
X122309000Y-91840000D01*
X122309000Y-89760000D02*
X122309000Y-87676000D01*
X122269000Y-93890000D02*
X122269000Y-91840000D01*
X122269000Y-89760000D02*
X122269000Y-87710000D01*
X122229000Y-93855000D02*
X122229000Y-91840000D01*
X122229000Y-89760000D02*
X122229000Y-87745000D01*
X122189000Y-93819000D02*
X122189000Y-91840000D01*
X122189000Y-89760000D02*
X122189000Y-87781000D01*
X122149000Y-93783000D02*
X122149000Y-87817000D01*
X122109000Y-93745000D02*
X122109000Y-87855000D01*
X122069000Y-93707000D02*
X122069000Y-87893000D01*
X122029000Y-93667000D02*
X122029000Y-87933000D01*
X121989000Y-93626000D02*
X121989000Y-87974000D01*
X121949000Y-93584000D02*
X121949000Y-88016000D01*
X121909000Y-93541000D02*
X121909000Y-88059000D01*
X121869000Y-93497000D02*
X121869000Y-88103000D01*
X121829000Y-93451000D02*
X121829000Y-88149000D01*
X121789000Y-93404000D02*
X121789000Y-88196000D01*
X121749000Y-93356000D02*
X121749000Y-88244000D01*
X121709000Y-93305000D02*
X121709000Y-88295000D01*
X121669000Y-93254000D02*
X121669000Y-88346000D01*
X121629000Y-93200000D02*
X121629000Y-88400000D01*
X121589000Y-93145000D02*
X121589000Y-88455000D01*
X121549000Y-93087000D02*
X121549000Y-88513000D01*
X121509000Y-93028000D02*
X121509000Y-88572000D01*
X121469000Y-92966000D02*
X121469000Y-88634000D01*
X121429000Y-92902000D02*
X121429000Y-88698000D01*
X121389000Y-92834000D02*
X121389000Y-88766000D01*
X121349000Y-92764000D02*
X121349000Y-88836000D01*
X121309000Y-92690000D02*
X121309000Y-88910000D01*
X121269000Y-92613000D02*
X121269000Y-88987000D01*
X121229000Y-92531000D02*
X121229000Y-89069000D01*
X121189000Y-92445000D02*
X121189000Y-89155000D01*
X121149000Y-92352000D02*
X121149000Y-89248000D01*
X121109000Y-92253000D02*
X121109000Y-89347000D01*
X121069000Y-92146000D02*
X121069000Y-89454000D01*
X121029000Y-92029000D02*
X121029000Y-89571000D01*
X120989000Y-91898000D02*
X120989000Y-89702000D01*
X120949000Y-91748000D02*
X120949000Y-89852000D01*
X120909000Y-91568000D02*
X120909000Y-90032000D01*
X120869000Y-91333000D02*
X120869000Y-90267000D01*
X129070000Y-90800000D02*
G75*
G03*
X129070000Y-90800000I-4120000J0D01*
G01*
%TD*%
M02*
