%TF.GenerationSoftware,KiCad,Pcbnew,7.0.6-7.0.6~ubuntu22.04.1*%
%TF.CreationDate,2023-07-24T12:55:12+03:00*%
%TF.ProjectId,supply-uv,73757070-6c79-42d7-9576-2e6b69636164,rev?*%
%TF.SameCoordinates,Original*%
%TF.FileFunction,Drillmap*%
%TF.FilePolarity,Positive*%
%FSLAX45Y45*%
G04 Gerber Fmt 4.5, Leading zero omitted, Abs format (unit mm)*
G04 Created by KiCad (PCBNEW 7.0.6-7.0.6~ubuntu22.04.1) date 2023-07-24 12:55:12*
%MOMM*%
%LPD*%
G01*
G04 APERTURE LIST*
%ADD10C,0.100000*%
%ADD11C,0.200000*%
%ADD12C,0.040000*%
%ADD13C,0.080000*%
%ADD14C,0.090000*%
%ADD15C,0.110000*%
%ADD16C,0.120000*%
%ADD17C,0.130000*%
%ADD18C,0.140000*%
%ADD19C,0.150000*%
%ADD20C,0.160000*%
%ADD21C,0.210000*%
G04 APERTURE END LIST*
D10*
X14175000Y-3825000D02*
X6575000Y-3825000D01*
X6575000Y-14625000D02*
X17575000Y-14625000D01*
X14175000Y-8525000D02*
X14175000Y-3825000D01*
X17575000Y-14625000D02*
X17575000Y-8525000D01*
X6575000Y-3825000D02*
X6575000Y-14625000D01*
X17575000Y-8525000D02*
X14175000Y-8525000D01*
D11*
D12*
X9965000Y-10005000D02*
X10005000Y-10045000D01*
X10005000Y-10005000D02*
X9965000Y-10045000D01*
X10195000Y-11925000D02*
X10235000Y-11965000D01*
X10235000Y-11925000D02*
X10195000Y-11965000D01*
X11980000Y-10805000D02*
X12020000Y-10845000D01*
X12020000Y-10805000D02*
X11980000Y-10845000D01*
X17355000Y-11055000D02*
X17395000Y-11095000D01*
X17395000Y-11055000D02*
X17355000Y-11095000D01*
X17505000Y-10905000D02*
X17545000Y-10945000D01*
X17545000Y-10905000D02*
X17505000Y-10945000D01*
D13*
X12165000Y-11771000D02*
G75*
G03*
X12165000Y-11771000I-40000J0D01*
G01*
X12165000Y-12025000D02*
G75*
G03*
X12165000Y-12025000I-40000J0D01*
G01*
X12515000Y-11350000D02*
G75*
G03*
X12515000Y-11350000I-40000J0D01*
G01*
X12734000Y-12525000D02*
G75*
G03*
X12734000Y-12525000I-40000J0D01*
G01*
X12738000Y-11990000D02*
G75*
G03*
X12738000Y-11990000I-40000J0D01*
G01*
X12865000Y-11350000D02*
G75*
G03*
X12865000Y-11350000I-40000J0D01*
G01*
X13325511Y-11390000D02*
G75*
G03*
X13325511Y-11390000I-40000J0D01*
G01*
X13496000Y-12525000D02*
G75*
G03*
X13496000Y-12525000I-40000J0D01*
G01*
X13500000Y-11990000D02*
G75*
G03*
X13500000Y-11990000I-40000J0D01*
G01*
X13525511Y-11390000D02*
G75*
G03*
X13525511Y-11390000I-40000J0D01*
G01*
X13699735Y-8975000D02*
G75*
G03*
X13699735Y-8975000I-40000J0D01*
G01*
X14049735Y-8975000D02*
G75*
G03*
X14049735Y-8975000I-40000J0D01*
G01*
X14065000Y-12194000D02*
G75*
G03*
X14065000Y-12194000I-40000J0D01*
G01*
X14065000Y-12956000D02*
G75*
G03*
X14065000Y-12956000I-40000J0D01*
G01*
X14590000Y-12375000D02*
G75*
G03*
X14590000Y-12375000I-40000J0D01*
G01*
X14590000Y-12875000D02*
G75*
G03*
X14590000Y-12875000I-40000J0D01*
G01*
X17138500Y-9045000D02*
G75*
G03*
X17138500Y-9045000I-40000J0D01*
G01*
X17138500Y-9807000D02*
G75*
G03*
X17138500Y-9807000I-40000J0D01*
G01*
X17392500Y-9045000D02*
G75*
G03*
X17392500Y-9045000I-40000J0D01*
G01*
X17392500Y-9807000D02*
G75*
G03*
X17392500Y-9807000I-40000J0D01*
G01*
D14*
X12798500Y-9055000D02*
X12798500Y-9145000D01*
X12753500Y-9100000D02*
X12843500Y-9100000D01*
X13052500Y-9055000D02*
X13052500Y-9145000D01*
X13007500Y-9100000D02*
X13097500Y-9100000D01*
X13326000Y-10375000D02*
X13326000Y-10465000D01*
X13281000Y-10420000D02*
X13371000Y-10420000D01*
X13580000Y-10375000D02*
X13580000Y-10465000D01*
X13535000Y-10420000D02*
X13625000Y-10420000D01*
D10*
X11165356Y-7465356D02*
X11165356Y-7394644D01*
X11094644Y-7394644D01*
X11094644Y-7465356D01*
X11165356Y-7465356D01*
X12365356Y-7465356D02*
X12365356Y-7394644D01*
X12294644Y-7394644D01*
X12294644Y-7465356D01*
X12365356Y-7465356D01*
D15*
X8569500Y-9776000D02*
X8624500Y-9721000D01*
X8569500Y-9666000D01*
X8514500Y-9721000D01*
X8569500Y-9776000D01*
X8569500Y-10030000D02*
X8624500Y-9975000D01*
X8569500Y-9920000D01*
X8514500Y-9975000D01*
X8569500Y-10030000D01*
X8569500Y-10284000D02*
X8624500Y-10229000D01*
X8569500Y-10174000D01*
X8514500Y-10229000D01*
X8569500Y-10284000D01*
X9021000Y-12785500D02*
X9076000Y-12730500D01*
X9021000Y-12675500D01*
X8966000Y-12730500D01*
X9021000Y-12785500D01*
X9529000Y-12785500D02*
X9584000Y-12730500D01*
X9529000Y-12675500D01*
X9474000Y-12730500D01*
X9529000Y-12785500D01*
X13900000Y-10893000D02*
X13955000Y-10838000D01*
X13900000Y-10783000D01*
X13845000Y-10838000D01*
X13900000Y-10893000D01*
X13900000Y-11655000D02*
X13955000Y-11600000D01*
X13900000Y-11545000D01*
X13845000Y-11600000D01*
X13900000Y-11655000D01*
X15200000Y-12374000D02*
X15255000Y-12319000D01*
X15200000Y-12264000D01*
X15145000Y-12319000D01*
X15200000Y-12374000D01*
X15200000Y-13136000D02*
X15255000Y-13081000D01*
X15200000Y-13026000D01*
X15145000Y-13081000D01*
X15200000Y-13136000D01*
X17125500Y-12531000D02*
X17180500Y-12476000D01*
X17125500Y-12421000D01*
X17070500Y-12476000D01*
X17125500Y-12531000D01*
X17125500Y-12785000D02*
X17180500Y-12730000D01*
X17125500Y-12675000D01*
X17070500Y-12730000D01*
X17125500Y-12785000D01*
X17125500Y-13039000D02*
X17180500Y-12984000D01*
X17125500Y-12929000D01*
X17070500Y-12984000D01*
X17125500Y-13039000D01*
D16*
X7142222Y-8690000D02*
X7262222Y-8810000D01*
X7262222Y-8690000D02*
X7142222Y-8810000D01*
X7262222Y-8750000D02*
G75*
G03*
X7262222Y-8750000I-60000J0D01*
G01*
X7892222Y-8690000D02*
X8012222Y-8810000D01*
X8012222Y-8690000D02*
X7892222Y-8810000D01*
X8012222Y-8750000D02*
G75*
G03*
X8012222Y-8750000I-60000J0D01*
G01*
X11064000Y-5390000D02*
X11184000Y-5510000D01*
X11184000Y-5390000D02*
X11064000Y-5510000D01*
X11184000Y-5450000D02*
G75*
G03*
X11184000Y-5450000I-60000J0D01*
G01*
X11090000Y-4103000D02*
X11210000Y-4223000D01*
X11210000Y-4103000D02*
X11090000Y-4223000D01*
X11210000Y-4163000D02*
G75*
G03*
X11210000Y-4163000I-60000J0D01*
G01*
X11090000Y-4865000D02*
X11210000Y-4985000D01*
X11210000Y-4865000D02*
X11090000Y-4985000D01*
X11210000Y-4925000D02*
G75*
G03*
X11210000Y-4925000I-60000J0D01*
G01*
X11826000Y-5390000D02*
X11946000Y-5510000D01*
X11946000Y-5390000D02*
X11826000Y-5510000D01*
X11946000Y-5450000D02*
G75*
G03*
X11946000Y-5450000I-60000J0D01*
G01*
X12190000Y-4104000D02*
X12310000Y-4224000D01*
X12310000Y-4104000D02*
X12190000Y-4224000D01*
X12310000Y-4164000D02*
G75*
G03*
X12310000Y-4164000I-60000J0D01*
G01*
X12190000Y-4866000D02*
X12310000Y-4986000D01*
X12310000Y-4866000D02*
X12190000Y-4986000D01*
X12310000Y-4926000D02*
G75*
G03*
X12310000Y-4926000I-60000J0D01*
G01*
X12890000Y-3990000D02*
X13010000Y-4110000D01*
X13010000Y-3990000D02*
X12890000Y-4110000D01*
X13010000Y-4050000D02*
G75*
G03*
X13010000Y-4050000I-60000J0D01*
G01*
X12890000Y-5490000D02*
X13010000Y-5610000D01*
X13010000Y-5490000D02*
X12890000Y-5610000D01*
X13010000Y-5550000D02*
G75*
G03*
X13010000Y-5550000I-60000J0D01*
G01*
X15663725Y-13715000D02*
X15783725Y-13835000D01*
X15783725Y-13715000D02*
X15663725Y-13835000D01*
X15783725Y-13775000D02*
G75*
G03*
X15783725Y-13775000I-60000J0D01*
G01*
X16413725Y-13715000D02*
X16533725Y-13835000D01*
X16533725Y-13715000D02*
X16413725Y-13835000D01*
X16533725Y-13775000D02*
G75*
G03*
X16533725Y-13775000I-60000J0D01*
G01*
D17*
X11060000Y-6140000D02*
X11190000Y-6270000D01*
X11190000Y-6140000D02*
X11060000Y-6270000D01*
X11125000Y-6140000D02*
X11125000Y-6270000D01*
X11060000Y-6205000D02*
X11190000Y-6205000D01*
X11660000Y-7560000D02*
X11790000Y-7690000D01*
X11790000Y-7560000D02*
X11660000Y-7690000D01*
X11725000Y-7560000D02*
X11725000Y-7690000D01*
X11660000Y-7625000D02*
X11790000Y-7625000D01*
X12265000Y-6145000D02*
X12395000Y-6275000D01*
X12395000Y-6145000D02*
X12265000Y-6275000D01*
X12330000Y-6145000D02*
X12330000Y-6275000D01*
X12265000Y-6210000D02*
X12395000Y-6210000D01*
D18*
X7824250Y-7074250D02*
X7964250Y-7214250D01*
X7964250Y-7074250D02*
X7824250Y-7214250D01*
X7943748Y-7193748D02*
X7943748Y-7094752D01*
X7844752Y-7094752D01*
X7844752Y-7193748D01*
X7943748Y-7193748D01*
X8332250Y-7074250D02*
X8472250Y-7214250D01*
X8472250Y-7074250D02*
X8332250Y-7214250D01*
X8451748Y-7193748D02*
X8451748Y-7094752D01*
X8352752Y-7094752D01*
X8352752Y-7193748D01*
X8451748Y-7193748D01*
X8840250Y-7074250D02*
X8980250Y-7214250D01*
X8980250Y-7074250D02*
X8840250Y-7214250D01*
X8959748Y-7193748D02*
X8959748Y-7094752D01*
X8860752Y-7094752D01*
X8860752Y-7193748D01*
X8959748Y-7193748D01*
X9348250Y-7074250D02*
X9488250Y-7214250D01*
X9488250Y-7074250D02*
X9348250Y-7214250D01*
X9467748Y-7193748D02*
X9467748Y-7094752D01*
X9368752Y-7094752D01*
X9368752Y-7193748D01*
X9467748Y-7193748D01*
X13305000Y-6886500D02*
X13445000Y-7026500D01*
X13445000Y-6886500D02*
X13305000Y-7026500D01*
X13424498Y-7005998D02*
X13424498Y-6907002D01*
X13325502Y-6907002D01*
X13325502Y-7005998D01*
X13424498Y-7005998D01*
X13305000Y-7623500D02*
X13445000Y-7763500D01*
X13445000Y-7623500D02*
X13305000Y-7763500D01*
X13424498Y-7742998D02*
X13424498Y-7644002D01*
X13325502Y-7644002D01*
X13325502Y-7742998D01*
X13424498Y-7742998D01*
D19*
X6825000Y-10175000D02*
X6975000Y-10325000D01*
X6975000Y-10175000D02*
X6825000Y-10325000D01*
X6900000Y-10325000D02*
X6975000Y-10250000D01*
X6900000Y-10175000D01*
X6825000Y-10250000D01*
X6900000Y-10325000D01*
D20*
X9125000Y-8263000D02*
X9125000Y-8423000D01*
X9045000Y-8343000D02*
X9205000Y-8343000D01*
X9205000Y-8343000D02*
G75*
G03*
X9205000Y-8343000I-80000J0D01*
G01*
X9125000Y-8771000D02*
X9125000Y-8931000D01*
X9045000Y-8851000D02*
X9205000Y-8851000D01*
X9205000Y-8851000D02*
G75*
G03*
X9205000Y-8851000I-80000J0D01*
G01*
X9125000Y-9279000D02*
X9125000Y-9439000D01*
X9045000Y-9359000D02*
X9205000Y-9359000D01*
X9205000Y-9359000D02*
G75*
G03*
X9205000Y-9359000I-80000J0D01*
G01*
X9125000Y-9787000D02*
X9125000Y-9947000D01*
X9045000Y-9867000D02*
X9205000Y-9867000D01*
X9205000Y-9867000D02*
G75*
G03*
X9205000Y-9867000I-80000J0D01*
G01*
X9125000Y-10295000D02*
X9125000Y-10455000D01*
X9045000Y-10375000D02*
X9205000Y-10375000D01*
X9205000Y-10375000D02*
G75*
G03*
X9205000Y-10375000I-80000J0D01*
G01*
X9125000Y-10803000D02*
X9125000Y-10963000D01*
X9045000Y-10883000D02*
X9205000Y-10883000D01*
X9205000Y-10883000D02*
G75*
G03*
X9205000Y-10883000I-80000J0D01*
G01*
X9125000Y-11311000D02*
X9125000Y-11471000D01*
X9045000Y-11391000D02*
X9205000Y-11391000D01*
X9205000Y-11391000D02*
G75*
G03*
X9205000Y-11391000I-80000J0D01*
G01*
X11411000Y-8263000D02*
X11411000Y-8423000D01*
X11331000Y-8343000D02*
X11491000Y-8343000D01*
X11491000Y-8343000D02*
G75*
G03*
X11491000Y-8343000I-80000J0D01*
G01*
X11411000Y-8771000D02*
X11411000Y-8931000D01*
X11331000Y-8851000D02*
X11491000Y-8851000D01*
X11491000Y-8851000D02*
G75*
G03*
X11491000Y-8851000I-80000J0D01*
G01*
X11411000Y-9279000D02*
X11411000Y-9439000D01*
X11331000Y-9359000D02*
X11491000Y-9359000D01*
X11491000Y-9359000D02*
G75*
G03*
X11491000Y-9359000I-80000J0D01*
G01*
X11411000Y-9787000D02*
X11411000Y-9947000D01*
X11331000Y-9867000D02*
X11491000Y-9867000D01*
X11491000Y-9867000D02*
G75*
G03*
X11491000Y-9867000I-80000J0D01*
G01*
X11411000Y-10295000D02*
X11411000Y-10455000D01*
X11331000Y-10375000D02*
X11491000Y-10375000D01*
X11491000Y-10375000D02*
G75*
G03*
X11491000Y-10375000I-80000J0D01*
G01*
X11411000Y-10803000D02*
X11411000Y-10963000D01*
X11331000Y-10883000D02*
X11491000Y-10883000D01*
X11491000Y-10883000D02*
G75*
G03*
X11491000Y-10883000I-80000J0D01*
G01*
X11411000Y-11311000D02*
X11411000Y-11471000D01*
X11331000Y-11391000D02*
X11491000Y-11391000D01*
X11491000Y-11391000D02*
G75*
G03*
X11491000Y-11391000I-80000J0D01*
G01*
X13709500Y-9670000D02*
X13709500Y-9830000D01*
X13629500Y-9750000D02*
X13789500Y-9750000D01*
X13789500Y-9750000D02*
G75*
G03*
X13789500Y-9750000I-80000J0D01*
G01*
X14090500Y-9670000D02*
X14090500Y-9830000D01*
X14010500Y-9750000D02*
X14170500Y-9750000D01*
X14170500Y-9750000D02*
G75*
G03*
X14170500Y-9750000I-80000J0D01*
G01*
X14634000Y-8726000D02*
X14634000Y-8886000D01*
X14554000Y-8806000D02*
X14714000Y-8806000D01*
X14714000Y-8806000D02*
G75*
G03*
X14714000Y-8806000I-80000J0D01*
G01*
X14634000Y-9234000D02*
X14634000Y-9394000D01*
X14554000Y-9314000D02*
X14714000Y-9314000D01*
X14714000Y-9314000D02*
G75*
G03*
X14714000Y-9314000I-80000J0D01*
G01*
X14634000Y-9742000D02*
X14634000Y-9902000D01*
X14554000Y-9822000D02*
X14714000Y-9822000D01*
X14714000Y-9822000D02*
G75*
G03*
X14714000Y-9822000I-80000J0D01*
G01*
X14634000Y-10250000D02*
X14634000Y-10410000D01*
X14554000Y-10330000D02*
X14714000Y-10330000D01*
X14714000Y-10330000D02*
G75*
G03*
X14714000Y-10330000I-80000J0D01*
G01*
X14634000Y-10758000D02*
X14634000Y-10918000D01*
X14554000Y-10838000D02*
X14714000Y-10838000D01*
X14714000Y-10838000D02*
G75*
G03*
X14714000Y-10838000I-80000J0D01*
G01*
X14634000Y-11266000D02*
X14634000Y-11426000D01*
X14554000Y-11346000D02*
X14714000Y-11346000D01*
X14714000Y-11346000D02*
G75*
G03*
X14714000Y-11346000I-80000J0D01*
G01*
X14634000Y-11774000D02*
X14634000Y-11934000D01*
X14554000Y-11854000D02*
X14714000Y-11854000D01*
X14714000Y-11854000D02*
G75*
G03*
X14714000Y-11854000I-80000J0D01*
G01*
X16666000Y-8726000D02*
X16666000Y-8886000D01*
X16586000Y-8806000D02*
X16746000Y-8806000D01*
X16746000Y-8806000D02*
G75*
G03*
X16746000Y-8806000I-80000J0D01*
G01*
X16666000Y-9234000D02*
X16666000Y-9394000D01*
X16586000Y-9314000D02*
X16746000Y-9314000D01*
X16746000Y-9314000D02*
G75*
G03*
X16746000Y-9314000I-80000J0D01*
G01*
X16666000Y-9742000D02*
X16666000Y-9902000D01*
X16586000Y-9822000D02*
X16746000Y-9822000D01*
X16746000Y-9822000D02*
G75*
G03*
X16746000Y-9822000I-80000J0D01*
G01*
X16666000Y-10250000D02*
X16666000Y-10410000D01*
X16586000Y-10330000D02*
X16746000Y-10330000D01*
X16746000Y-10330000D02*
G75*
G03*
X16746000Y-10330000I-80000J0D01*
G01*
X16666000Y-10758000D02*
X16666000Y-10918000D01*
X16586000Y-10838000D02*
X16746000Y-10838000D01*
X16746000Y-10838000D02*
G75*
G03*
X16746000Y-10838000I-80000J0D01*
G01*
X16666000Y-11266000D02*
X16666000Y-11426000D01*
X16586000Y-11346000D02*
X16746000Y-11346000D01*
X16746000Y-11346000D02*
G75*
G03*
X16746000Y-11346000I-80000J0D01*
G01*
X16666000Y-11774000D02*
X16666000Y-11934000D01*
X16586000Y-11854000D02*
X16746000Y-11854000D01*
X16746000Y-11854000D02*
G75*
G03*
X16746000Y-11854000I-80000J0D01*
G01*
D21*
X7349247Y-11024247D02*
X7349247Y-10875753D01*
X7200753Y-10875753D01*
X7200753Y-11024247D01*
X7349247Y-11024247D01*
X7380000Y-10950000D02*
G75*
G03*
X7380000Y-10950000I-105000J0D01*
G01*
X7349247Y-11624247D02*
X7349247Y-11475753D01*
X7200753Y-11475753D01*
X7200753Y-11624247D01*
X7349247Y-11624247D01*
X7380000Y-11550000D02*
G75*
G03*
X7380000Y-11550000I-105000J0D01*
G01*
X12149247Y-9599247D02*
X12149247Y-9450753D01*
X12000753Y-9450753D01*
X12000753Y-9599247D01*
X12149247Y-9599247D01*
X12180000Y-9525000D02*
G75*
G03*
X12180000Y-9525000I-105000J0D01*
G01*
X12399247Y-13324247D02*
X12399247Y-13175753D01*
X12250753Y-13175753D01*
X12250753Y-13324247D01*
X12399247Y-13324247D01*
X12430000Y-13250000D02*
G75*
G03*
X12430000Y-13250000I-105000J0D01*
G01*
X12999247Y-13324247D02*
X12999247Y-13175753D01*
X12850753Y-13175753D01*
X12850753Y-13324247D01*
X12999247Y-13324247D01*
X13030000Y-13250000D02*
G75*
G03*
X13030000Y-13250000I-105000J0D01*
G01*
X13049247Y-13849247D02*
X13049247Y-13700753D01*
X12900753Y-13700753D01*
X12900753Y-13849247D01*
X13049247Y-13849247D01*
X13080000Y-13775000D02*
G75*
G03*
X13080000Y-13775000I-105000J0D01*
G01*
X13049247Y-14449247D02*
X13049247Y-14300753D01*
X12900753Y-14300753D01*
X12900753Y-14449247D01*
X13049247Y-14449247D01*
X13080000Y-14375000D02*
G75*
G03*
X13080000Y-14375000I-105000J0D01*
G01*
X13899247Y-4194247D02*
X13899247Y-4045753D01*
X13750753Y-4045753D01*
X13750753Y-4194247D01*
X13899247Y-4194247D01*
X13930000Y-4120000D02*
G75*
G03*
X13930000Y-4120000I-105000J0D01*
G01*
X13899247Y-4974247D02*
X13899247Y-4825753D01*
X13750753Y-4825753D01*
X13750753Y-4974247D01*
X13899247Y-4974247D01*
X13930000Y-4900000D02*
G75*
G03*
X13930000Y-4900000I-105000J0D01*
G01*
X13899247Y-5754247D02*
X13899247Y-5605753D01*
X13750753Y-5605753D01*
X13750753Y-5754247D01*
X13899247Y-5754247D01*
X13930000Y-5680000D02*
G75*
G03*
X13930000Y-5680000I-105000J0D01*
G01*
D11*
X6830777Y-14941484D02*
X6830777Y-14741484D01*
X6830777Y-14741484D02*
X6878396Y-14741484D01*
X6878396Y-14741484D02*
X6906967Y-14751008D01*
X6906967Y-14751008D02*
X6926015Y-14770055D01*
X6926015Y-14770055D02*
X6935539Y-14789103D01*
X6935539Y-14789103D02*
X6945062Y-14827198D01*
X6945062Y-14827198D02*
X6945062Y-14855769D01*
X6945062Y-14855769D02*
X6935539Y-14893865D01*
X6935539Y-14893865D02*
X6926015Y-14912912D01*
X6926015Y-14912912D02*
X6906967Y-14931960D01*
X6906967Y-14931960D02*
X6878396Y-14941484D01*
X6878396Y-14941484D02*
X6830777Y-14941484D01*
X7030777Y-14941484D02*
X7030777Y-14808150D01*
X7030777Y-14846246D02*
X7040301Y-14827198D01*
X7040301Y-14827198D02*
X7049824Y-14817674D01*
X7049824Y-14817674D02*
X7068872Y-14808150D01*
X7068872Y-14808150D02*
X7087920Y-14808150D01*
X7154586Y-14941484D02*
X7154586Y-14808150D01*
X7154586Y-14741484D02*
X7145062Y-14751008D01*
X7145062Y-14751008D02*
X7154586Y-14760531D01*
X7154586Y-14760531D02*
X7164110Y-14751008D01*
X7164110Y-14751008D02*
X7154586Y-14741484D01*
X7154586Y-14741484D02*
X7154586Y-14760531D01*
X7278396Y-14941484D02*
X7259348Y-14931960D01*
X7259348Y-14931960D02*
X7249824Y-14912912D01*
X7249824Y-14912912D02*
X7249824Y-14741484D01*
X7383158Y-14941484D02*
X7364110Y-14931960D01*
X7364110Y-14931960D02*
X7354586Y-14912912D01*
X7354586Y-14912912D02*
X7354586Y-14741484D01*
X7611729Y-14941484D02*
X7611729Y-14741484D01*
X7611729Y-14741484D02*
X7678396Y-14884341D01*
X7678396Y-14884341D02*
X7745062Y-14741484D01*
X7745062Y-14741484D02*
X7745062Y-14941484D01*
X7926015Y-14941484D02*
X7926015Y-14836722D01*
X7926015Y-14836722D02*
X7916491Y-14817674D01*
X7916491Y-14817674D02*
X7897443Y-14808150D01*
X7897443Y-14808150D02*
X7859348Y-14808150D01*
X7859348Y-14808150D02*
X7840301Y-14817674D01*
X7926015Y-14931960D02*
X7906967Y-14941484D01*
X7906967Y-14941484D02*
X7859348Y-14941484D01*
X7859348Y-14941484D02*
X7840301Y-14931960D01*
X7840301Y-14931960D02*
X7830777Y-14912912D01*
X7830777Y-14912912D02*
X7830777Y-14893865D01*
X7830777Y-14893865D02*
X7840301Y-14874817D01*
X7840301Y-14874817D02*
X7859348Y-14865293D01*
X7859348Y-14865293D02*
X7906967Y-14865293D01*
X7906967Y-14865293D02*
X7926015Y-14855769D01*
X8021253Y-14808150D02*
X8021253Y-15008150D01*
X8021253Y-14817674D02*
X8040301Y-14808150D01*
X8040301Y-14808150D02*
X8078396Y-14808150D01*
X8078396Y-14808150D02*
X8097443Y-14817674D01*
X8097443Y-14817674D02*
X8106967Y-14827198D01*
X8106967Y-14827198D02*
X8116491Y-14846246D01*
X8116491Y-14846246D02*
X8116491Y-14903388D01*
X8116491Y-14903388D02*
X8106967Y-14922436D01*
X8106967Y-14922436D02*
X8097443Y-14931960D01*
X8097443Y-14931960D02*
X8078396Y-14941484D01*
X8078396Y-14941484D02*
X8040301Y-14941484D01*
X8040301Y-14941484D02*
X8021253Y-14931960D01*
X8202205Y-14922436D02*
X8211729Y-14931960D01*
X8211729Y-14931960D02*
X8202205Y-14941484D01*
X8202205Y-14941484D02*
X8192682Y-14931960D01*
X8192682Y-14931960D02*
X8202205Y-14922436D01*
X8202205Y-14922436D02*
X8202205Y-14941484D01*
X8202205Y-14817674D02*
X8211729Y-14827198D01*
X8211729Y-14827198D02*
X8202205Y-14836722D01*
X8202205Y-14836722D02*
X8192682Y-14827198D01*
X8192682Y-14827198D02*
X8202205Y-14817674D01*
X8202205Y-14817674D02*
X8202205Y-14836722D01*
D12*
X6530000Y-15250000D02*
X6570000Y-15290000D01*
X6570000Y-15250000D02*
X6530000Y-15290000D01*
D11*
X6868872Y-15161484D02*
X6887920Y-15161484D01*
X6887920Y-15161484D02*
X6906967Y-15171008D01*
X6906967Y-15171008D02*
X6916491Y-15180531D01*
X6916491Y-15180531D02*
X6926015Y-15199579D01*
X6926015Y-15199579D02*
X6935539Y-15237674D01*
X6935539Y-15237674D02*
X6935539Y-15285293D01*
X6935539Y-15285293D02*
X6926015Y-15323388D01*
X6926015Y-15323388D02*
X6916491Y-15342436D01*
X6916491Y-15342436D02*
X6906967Y-15351960D01*
X6906967Y-15351960D02*
X6887920Y-15361484D01*
X6887920Y-15361484D02*
X6868872Y-15361484D01*
X6868872Y-15361484D02*
X6849824Y-15351960D01*
X6849824Y-15351960D02*
X6840301Y-15342436D01*
X6840301Y-15342436D02*
X6830777Y-15323388D01*
X6830777Y-15323388D02*
X6821253Y-15285293D01*
X6821253Y-15285293D02*
X6821253Y-15237674D01*
X6821253Y-15237674D02*
X6830777Y-15199579D01*
X6830777Y-15199579D02*
X6840301Y-15180531D01*
X6840301Y-15180531D02*
X6849824Y-15171008D01*
X6849824Y-15171008D02*
X6868872Y-15161484D01*
X7021253Y-15342436D02*
X7030777Y-15351960D01*
X7030777Y-15351960D02*
X7021253Y-15361484D01*
X7021253Y-15361484D02*
X7011729Y-15351960D01*
X7011729Y-15351960D02*
X7021253Y-15342436D01*
X7021253Y-15342436D02*
X7021253Y-15361484D01*
X7202205Y-15228150D02*
X7202205Y-15361484D01*
X7154586Y-15151960D02*
X7106967Y-15294817D01*
X7106967Y-15294817D02*
X7230777Y-15294817D01*
X7345062Y-15161484D02*
X7364110Y-15161484D01*
X7364110Y-15161484D02*
X7383158Y-15171008D01*
X7383158Y-15171008D02*
X7392682Y-15180531D01*
X7392682Y-15180531D02*
X7402205Y-15199579D01*
X7402205Y-15199579D02*
X7411729Y-15237674D01*
X7411729Y-15237674D02*
X7411729Y-15285293D01*
X7411729Y-15285293D02*
X7402205Y-15323388D01*
X7402205Y-15323388D02*
X7392682Y-15342436D01*
X7392682Y-15342436D02*
X7383158Y-15351960D01*
X7383158Y-15351960D02*
X7364110Y-15361484D01*
X7364110Y-15361484D02*
X7345062Y-15361484D01*
X7345062Y-15361484D02*
X7326015Y-15351960D01*
X7326015Y-15351960D02*
X7316491Y-15342436D01*
X7316491Y-15342436D02*
X7306967Y-15323388D01*
X7306967Y-15323388D02*
X7297443Y-15285293D01*
X7297443Y-15285293D02*
X7297443Y-15237674D01*
X7297443Y-15237674D02*
X7306967Y-15199579D01*
X7306967Y-15199579D02*
X7316491Y-15180531D01*
X7316491Y-15180531D02*
X7326015Y-15171008D01*
X7326015Y-15171008D02*
X7345062Y-15161484D01*
X7535539Y-15161484D02*
X7554586Y-15161484D01*
X7554586Y-15161484D02*
X7573634Y-15171008D01*
X7573634Y-15171008D02*
X7583158Y-15180531D01*
X7583158Y-15180531D02*
X7592682Y-15199579D01*
X7592682Y-15199579D02*
X7602205Y-15237674D01*
X7602205Y-15237674D02*
X7602205Y-15285293D01*
X7602205Y-15285293D02*
X7592682Y-15323388D01*
X7592682Y-15323388D02*
X7583158Y-15342436D01*
X7583158Y-15342436D02*
X7573634Y-15351960D01*
X7573634Y-15351960D02*
X7554586Y-15361484D01*
X7554586Y-15361484D02*
X7535539Y-15361484D01*
X7535539Y-15361484D02*
X7516491Y-15351960D01*
X7516491Y-15351960D02*
X7506967Y-15342436D01*
X7506967Y-15342436D02*
X7497443Y-15323388D01*
X7497443Y-15323388D02*
X7487920Y-15285293D01*
X7487920Y-15285293D02*
X7487920Y-15237674D01*
X7487920Y-15237674D02*
X7497443Y-15199579D01*
X7497443Y-15199579D02*
X7506967Y-15180531D01*
X7506967Y-15180531D02*
X7516491Y-15171008D01*
X7516491Y-15171008D02*
X7535539Y-15161484D01*
X7687920Y-15361484D02*
X7687920Y-15228150D01*
X7687920Y-15247198D02*
X7697443Y-15237674D01*
X7697443Y-15237674D02*
X7716491Y-15228150D01*
X7716491Y-15228150D02*
X7745063Y-15228150D01*
X7745063Y-15228150D02*
X7764110Y-15237674D01*
X7764110Y-15237674D02*
X7773634Y-15256722D01*
X7773634Y-15256722D02*
X7773634Y-15361484D01*
X7773634Y-15256722D02*
X7783158Y-15237674D01*
X7783158Y-15237674D02*
X7802205Y-15228150D01*
X7802205Y-15228150D02*
X7830777Y-15228150D01*
X7830777Y-15228150D02*
X7849824Y-15237674D01*
X7849824Y-15237674D02*
X7859348Y-15256722D01*
X7859348Y-15256722D02*
X7859348Y-15361484D01*
X7954586Y-15361484D02*
X7954586Y-15228150D01*
X7954586Y-15247198D02*
X7964110Y-15237674D01*
X7964110Y-15237674D02*
X7983158Y-15228150D01*
X7983158Y-15228150D02*
X8011729Y-15228150D01*
X8011729Y-15228150D02*
X8030777Y-15237674D01*
X8030777Y-15237674D02*
X8040301Y-15256722D01*
X8040301Y-15256722D02*
X8040301Y-15361484D01*
X8040301Y-15256722D02*
X8049824Y-15237674D01*
X8049824Y-15237674D02*
X8068872Y-15228150D01*
X8068872Y-15228150D02*
X8097443Y-15228150D01*
X8097443Y-15228150D02*
X8116491Y-15237674D01*
X8116491Y-15237674D02*
X8126015Y-15256722D01*
X8126015Y-15256722D02*
X8126015Y-15361484D01*
X8516491Y-15151960D02*
X8345063Y-15409103D01*
X8773634Y-15161484D02*
X8792682Y-15161484D01*
X8792682Y-15161484D02*
X8811729Y-15171008D01*
X8811729Y-15171008D02*
X8821253Y-15180531D01*
X8821253Y-15180531D02*
X8830777Y-15199579D01*
X8830777Y-15199579D02*
X8840301Y-15237674D01*
X8840301Y-15237674D02*
X8840301Y-15285293D01*
X8840301Y-15285293D02*
X8830777Y-15323388D01*
X8830777Y-15323388D02*
X8821253Y-15342436D01*
X8821253Y-15342436D02*
X8811729Y-15351960D01*
X8811729Y-15351960D02*
X8792682Y-15361484D01*
X8792682Y-15361484D02*
X8773634Y-15361484D01*
X8773634Y-15361484D02*
X8754587Y-15351960D01*
X8754587Y-15351960D02*
X8745063Y-15342436D01*
X8745063Y-15342436D02*
X8735539Y-15323388D01*
X8735539Y-15323388D02*
X8726015Y-15285293D01*
X8726015Y-15285293D02*
X8726015Y-15237674D01*
X8726015Y-15237674D02*
X8735539Y-15199579D01*
X8735539Y-15199579D02*
X8745063Y-15180531D01*
X8745063Y-15180531D02*
X8754587Y-15171008D01*
X8754587Y-15171008D02*
X8773634Y-15161484D01*
X8926015Y-15342436D02*
X8935539Y-15351960D01*
X8935539Y-15351960D02*
X8926015Y-15361484D01*
X8926015Y-15361484D02*
X8916491Y-15351960D01*
X8916491Y-15351960D02*
X8926015Y-15342436D01*
X8926015Y-15342436D02*
X8926015Y-15361484D01*
X9059348Y-15161484D02*
X9078396Y-15161484D01*
X9078396Y-15161484D02*
X9097444Y-15171008D01*
X9097444Y-15171008D02*
X9106968Y-15180531D01*
X9106968Y-15180531D02*
X9116491Y-15199579D01*
X9116491Y-15199579D02*
X9126015Y-15237674D01*
X9126015Y-15237674D02*
X9126015Y-15285293D01*
X9126015Y-15285293D02*
X9116491Y-15323388D01*
X9116491Y-15323388D02*
X9106968Y-15342436D01*
X9106968Y-15342436D02*
X9097444Y-15351960D01*
X9097444Y-15351960D02*
X9078396Y-15361484D01*
X9078396Y-15361484D02*
X9059348Y-15361484D01*
X9059348Y-15361484D02*
X9040301Y-15351960D01*
X9040301Y-15351960D02*
X9030777Y-15342436D01*
X9030777Y-15342436D02*
X9021253Y-15323388D01*
X9021253Y-15323388D02*
X9011729Y-15285293D01*
X9011729Y-15285293D02*
X9011729Y-15237674D01*
X9011729Y-15237674D02*
X9021253Y-15199579D01*
X9021253Y-15199579D02*
X9030777Y-15180531D01*
X9030777Y-15180531D02*
X9040301Y-15171008D01*
X9040301Y-15171008D02*
X9059348Y-15161484D01*
X9316491Y-15361484D02*
X9202206Y-15361484D01*
X9259348Y-15361484D02*
X9259348Y-15161484D01*
X9259348Y-15161484D02*
X9240301Y-15190055D01*
X9240301Y-15190055D02*
X9221253Y-15209103D01*
X9221253Y-15209103D02*
X9202206Y-15218627D01*
X9497444Y-15161484D02*
X9402206Y-15161484D01*
X9402206Y-15161484D02*
X9392682Y-15256722D01*
X9392682Y-15256722D02*
X9402206Y-15247198D01*
X9402206Y-15247198D02*
X9421253Y-15237674D01*
X9421253Y-15237674D02*
X9468872Y-15237674D01*
X9468872Y-15237674D02*
X9487920Y-15247198D01*
X9487920Y-15247198D02*
X9497444Y-15256722D01*
X9497444Y-15256722D02*
X9506968Y-15275769D01*
X9506968Y-15275769D02*
X9506968Y-15323388D01*
X9506968Y-15323388D02*
X9497444Y-15342436D01*
X9497444Y-15342436D02*
X9487920Y-15351960D01*
X9487920Y-15351960D02*
X9468872Y-15361484D01*
X9468872Y-15361484D02*
X9421253Y-15361484D01*
X9421253Y-15361484D02*
X9402206Y-15351960D01*
X9402206Y-15351960D02*
X9392682Y-15342436D01*
X9573634Y-15161484D02*
X9706968Y-15161484D01*
X9706968Y-15161484D02*
X9621253Y-15361484D01*
X9773634Y-15161484D02*
X9773634Y-15199579D01*
X9849825Y-15161484D02*
X9849825Y-15199579D01*
X10145063Y-15437674D02*
X10135539Y-15428150D01*
X10135539Y-15428150D02*
X10116491Y-15399579D01*
X10116491Y-15399579D02*
X10106968Y-15380531D01*
X10106968Y-15380531D02*
X10097444Y-15351960D01*
X10097444Y-15351960D02*
X10087920Y-15304341D01*
X10087920Y-15304341D02*
X10087920Y-15266246D01*
X10087920Y-15266246D02*
X10097444Y-15218627D01*
X10097444Y-15218627D02*
X10106968Y-15190055D01*
X10106968Y-15190055D02*
X10116491Y-15171008D01*
X10116491Y-15171008D02*
X10135539Y-15142436D01*
X10135539Y-15142436D02*
X10145063Y-15132912D01*
X10316491Y-15161484D02*
X10221253Y-15161484D01*
X10221253Y-15161484D02*
X10211730Y-15256722D01*
X10211730Y-15256722D02*
X10221253Y-15247198D01*
X10221253Y-15247198D02*
X10240301Y-15237674D01*
X10240301Y-15237674D02*
X10287920Y-15237674D01*
X10287920Y-15237674D02*
X10306968Y-15247198D01*
X10306968Y-15247198D02*
X10316491Y-15256722D01*
X10316491Y-15256722D02*
X10326015Y-15275769D01*
X10326015Y-15275769D02*
X10326015Y-15323388D01*
X10326015Y-15323388D02*
X10316491Y-15342436D01*
X10316491Y-15342436D02*
X10306968Y-15351960D01*
X10306968Y-15351960D02*
X10287920Y-15361484D01*
X10287920Y-15361484D02*
X10240301Y-15361484D01*
X10240301Y-15361484D02*
X10221253Y-15351960D01*
X10221253Y-15351960D02*
X10211730Y-15342436D01*
X10564111Y-15361484D02*
X10564111Y-15161484D01*
X10649825Y-15361484D02*
X10649825Y-15256722D01*
X10649825Y-15256722D02*
X10640301Y-15237674D01*
X10640301Y-15237674D02*
X10621253Y-15228150D01*
X10621253Y-15228150D02*
X10592682Y-15228150D01*
X10592682Y-15228150D02*
X10573634Y-15237674D01*
X10573634Y-15237674D02*
X10564111Y-15247198D01*
X10773634Y-15361484D02*
X10754587Y-15351960D01*
X10754587Y-15351960D02*
X10745063Y-15342436D01*
X10745063Y-15342436D02*
X10735539Y-15323388D01*
X10735539Y-15323388D02*
X10735539Y-15266246D01*
X10735539Y-15266246D02*
X10745063Y-15247198D01*
X10745063Y-15247198D02*
X10754587Y-15237674D01*
X10754587Y-15237674D02*
X10773634Y-15228150D01*
X10773634Y-15228150D02*
X10802206Y-15228150D01*
X10802206Y-15228150D02*
X10821253Y-15237674D01*
X10821253Y-15237674D02*
X10830777Y-15247198D01*
X10830777Y-15247198D02*
X10840301Y-15266246D01*
X10840301Y-15266246D02*
X10840301Y-15323388D01*
X10840301Y-15323388D02*
X10830777Y-15342436D01*
X10830777Y-15342436D02*
X10821253Y-15351960D01*
X10821253Y-15351960D02*
X10802206Y-15361484D01*
X10802206Y-15361484D02*
X10773634Y-15361484D01*
X10954587Y-15361484D02*
X10935539Y-15351960D01*
X10935539Y-15351960D02*
X10926015Y-15332912D01*
X10926015Y-15332912D02*
X10926015Y-15161484D01*
X11106968Y-15351960D02*
X11087920Y-15361484D01*
X11087920Y-15361484D02*
X11049825Y-15361484D01*
X11049825Y-15361484D02*
X11030777Y-15351960D01*
X11030777Y-15351960D02*
X11021253Y-15332912D01*
X11021253Y-15332912D02*
X11021253Y-15256722D01*
X11021253Y-15256722D02*
X11030777Y-15237674D01*
X11030777Y-15237674D02*
X11049825Y-15228150D01*
X11049825Y-15228150D02*
X11087920Y-15228150D01*
X11087920Y-15228150D02*
X11106968Y-15237674D01*
X11106968Y-15237674D02*
X11116492Y-15256722D01*
X11116492Y-15256722D02*
X11116492Y-15275769D01*
X11116492Y-15275769D02*
X11021253Y-15294817D01*
X11192682Y-15351960D02*
X11211730Y-15361484D01*
X11211730Y-15361484D02*
X11249825Y-15361484D01*
X11249825Y-15361484D02*
X11268872Y-15351960D01*
X11268872Y-15351960D02*
X11278396Y-15332912D01*
X11278396Y-15332912D02*
X11278396Y-15323388D01*
X11278396Y-15323388D02*
X11268872Y-15304341D01*
X11268872Y-15304341D02*
X11249825Y-15294817D01*
X11249825Y-15294817D02*
X11221253Y-15294817D01*
X11221253Y-15294817D02*
X11202206Y-15285293D01*
X11202206Y-15285293D02*
X11192682Y-15266246D01*
X11192682Y-15266246D02*
X11192682Y-15256722D01*
X11192682Y-15256722D02*
X11202206Y-15237674D01*
X11202206Y-15237674D02*
X11221253Y-15228150D01*
X11221253Y-15228150D02*
X11249825Y-15228150D01*
X11249825Y-15228150D02*
X11268872Y-15237674D01*
X11345063Y-15437674D02*
X11354587Y-15428150D01*
X11354587Y-15428150D02*
X11373634Y-15399579D01*
X11373634Y-15399579D02*
X11383158Y-15380531D01*
X11383158Y-15380531D02*
X11392682Y-15351960D01*
X11392682Y-15351960D02*
X11402206Y-15304341D01*
X11402206Y-15304341D02*
X11402206Y-15266246D01*
X11402206Y-15266246D02*
X11392682Y-15218627D01*
X11392682Y-15218627D02*
X11383158Y-15190055D01*
X11383158Y-15190055D02*
X11373634Y-15171008D01*
X11373634Y-15171008D02*
X11354587Y-15142436D01*
X11354587Y-15142436D02*
X11345063Y-15132912D01*
D13*
X6570000Y-15534000D02*
G75*
G03*
X6570000Y-15534000I-40000J0D01*
G01*
D11*
X6868872Y-15425484D02*
X6887920Y-15425484D01*
X6887920Y-15425484D02*
X6906967Y-15435008D01*
X6906967Y-15435008D02*
X6916491Y-15444531D01*
X6916491Y-15444531D02*
X6926015Y-15463579D01*
X6926015Y-15463579D02*
X6935539Y-15501674D01*
X6935539Y-15501674D02*
X6935539Y-15549293D01*
X6935539Y-15549293D02*
X6926015Y-15587388D01*
X6926015Y-15587388D02*
X6916491Y-15606436D01*
X6916491Y-15606436D02*
X6906967Y-15615960D01*
X6906967Y-15615960D02*
X6887920Y-15625484D01*
X6887920Y-15625484D02*
X6868872Y-15625484D01*
X6868872Y-15625484D02*
X6849824Y-15615960D01*
X6849824Y-15615960D02*
X6840301Y-15606436D01*
X6840301Y-15606436D02*
X6830777Y-15587388D01*
X6830777Y-15587388D02*
X6821253Y-15549293D01*
X6821253Y-15549293D02*
X6821253Y-15501674D01*
X6821253Y-15501674D02*
X6830777Y-15463579D01*
X6830777Y-15463579D02*
X6840301Y-15444531D01*
X6840301Y-15444531D02*
X6849824Y-15435008D01*
X6849824Y-15435008D02*
X6868872Y-15425484D01*
X7021253Y-15606436D02*
X7030777Y-15615960D01*
X7030777Y-15615960D02*
X7021253Y-15625484D01*
X7021253Y-15625484D02*
X7011729Y-15615960D01*
X7011729Y-15615960D02*
X7021253Y-15606436D01*
X7021253Y-15606436D02*
X7021253Y-15625484D01*
X7145062Y-15511198D02*
X7126015Y-15501674D01*
X7126015Y-15501674D02*
X7116491Y-15492150D01*
X7116491Y-15492150D02*
X7106967Y-15473103D01*
X7106967Y-15473103D02*
X7106967Y-15463579D01*
X7106967Y-15463579D02*
X7116491Y-15444531D01*
X7116491Y-15444531D02*
X7126015Y-15435008D01*
X7126015Y-15435008D02*
X7145062Y-15425484D01*
X7145062Y-15425484D02*
X7183158Y-15425484D01*
X7183158Y-15425484D02*
X7202205Y-15435008D01*
X7202205Y-15435008D02*
X7211729Y-15444531D01*
X7211729Y-15444531D02*
X7221253Y-15463579D01*
X7221253Y-15463579D02*
X7221253Y-15473103D01*
X7221253Y-15473103D02*
X7211729Y-15492150D01*
X7211729Y-15492150D02*
X7202205Y-15501674D01*
X7202205Y-15501674D02*
X7183158Y-15511198D01*
X7183158Y-15511198D02*
X7145062Y-15511198D01*
X7145062Y-15511198D02*
X7126015Y-15520722D01*
X7126015Y-15520722D02*
X7116491Y-15530246D01*
X7116491Y-15530246D02*
X7106967Y-15549293D01*
X7106967Y-15549293D02*
X7106967Y-15587388D01*
X7106967Y-15587388D02*
X7116491Y-15606436D01*
X7116491Y-15606436D02*
X7126015Y-15615960D01*
X7126015Y-15615960D02*
X7145062Y-15625484D01*
X7145062Y-15625484D02*
X7183158Y-15625484D01*
X7183158Y-15625484D02*
X7202205Y-15615960D01*
X7202205Y-15615960D02*
X7211729Y-15606436D01*
X7211729Y-15606436D02*
X7221253Y-15587388D01*
X7221253Y-15587388D02*
X7221253Y-15549293D01*
X7221253Y-15549293D02*
X7211729Y-15530246D01*
X7211729Y-15530246D02*
X7202205Y-15520722D01*
X7202205Y-15520722D02*
X7183158Y-15511198D01*
X7345062Y-15425484D02*
X7364110Y-15425484D01*
X7364110Y-15425484D02*
X7383158Y-15435008D01*
X7383158Y-15435008D02*
X7392682Y-15444531D01*
X7392682Y-15444531D02*
X7402205Y-15463579D01*
X7402205Y-15463579D02*
X7411729Y-15501674D01*
X7411729Y-15501674D02*
X7411729Y-15549293D01*
X7411729Y-15549293D02*
X7402205Y-15587388D01*
X7402205Y-15587388D02*
X7392682Y-15606436D01*
X7392682Y-15606436D02*
X7383158Y-15615960D01*
X7383158Y-15615960D02*
X7364110Y-15625484D01*
X7364110Y-15625484D02*
X7345062Y-15625484D01*
X7345062Y-15625484D02*
X7326015Y-15615960D01*
X7326015Y-15615960D02*
X7316491Y-15606436D01*
X7316491Y-15606436D02*
X7306967Y-15587388D01*
X7306967Y-15587388D02*
X7297443Y-15549293D01*
X7297443Y-15549293D02*
X7297443Y-15501674D01*
X7297443Y-15501674D02*
X7306967Y-15463579D01*
X7306967Y-15463579D02*
X7316491Y-15444531D01*
X7316491Y-15444531D02*
X7326015Y-15435008D01*
X7326015Y-15435008D02*
X7345062Y-15425484D01*
X7535539Y-15425484D02*
X7554586Y-15425484D01*
X7554586Y-15425484D02*
X7573634Y-15435008D01*
X7573634Y-15435008D02*
X7583158Y-15444531D01*
X7583158Y-15444531D02*
X7592682Y-15463579D01*
X7592682Y-15463579D02*
X7602205Y-15501674D01*
X7602205Y-15501674D02*
X7602205Y-15549293D01*
X7602205Y-15549293D02*
X7592682Y-15587388D01*
X7592682Y-15587388D02*
X7583158Y-15606436D01*
X7583158Y-15606436D02*
X7573634Y-15615960D01*
X7573634Y-15615960D02*
X7554586Y-15625484D01*
X7554586Y-15625484D02*
X7535539Y-15625484D01*
X7535539Y-15625484D02*
X7516491Y-15615960D01*
X7516491Y-15615960D02*
X7506967Y-15606436D01*
X7506967Y-15606436D02*
X7497443Y-15587388D01*
X7497443Y-15587388D02*
X7487920Y-15549293D01*
X7487920Y-15549293D02*
X7487920Y-15501674D01*
X7487920Y-15501674D02*
X7497443Y-15463579D01*
X7497443Y-15463579D02*
X7506967Y-15444531D01*
X7506967Y-15444531D02*
X7516491Y-15435008D01*
X7516491Y-15435008D02*
X7535539Y-15425484D01*
X7687920Y-15625484D02*
X7687920Y-15492150D01*
X7687920Y-15511198D02*
X7697443Y-15501674D01*
X7697443Y-15501674D02*
X7716491Y-15492150D01*
X7716491Y-15492150D02*
X7745063Y-15492150D01*
X7745063Y-15492150D02*
X7764110Y-15501674D01*
X7764110Y-15501674D02*
X7773634Y-15520722D01*
X7773634Y-15520722D02*
X7773634Y-15625484D01*
X7773634Y-15520722D02*
X7783158Y-15501674D01*
X7783158Y-15501674D02*
X7802205Y-15492150D01*
X7802205Y-15492150D02*
X7830777Y-15492150D01*
X7830777Y-15492150D02*
X7849824Y-15501674D01*
X7849824Y-15501674D02*
X7859348Y-15520722D01*
X7859348Y-15520722D02*
X7859348Y-15625484D01*
X7954586Y-15625484D02*
X7954586Y-15492150D01*
X7954586Y-15511198D02*
X7964110Y-15501674D01*
X7964110Y-15501674D02*
X7983158Y-15492150D01*
X7983158Y-15492150D02*
X8011729Y-15492150D01*
X8011729Y-15492150D02*
X8030777Y-15501674D01*
X8030777Y-15501674D02*
X8040301Y-15520722D01*
X8040301Y-15520722D02*
X8040301Y-15625484D01*
X8040301Y-15520722D02*
X8049824Y-15501674D01*
X8049824Y-15501674D02*
X8068872Y-15492150D01*
X8068872Y-15492150D02*
X8097443Y-15492150D01*
X8097443Y-15492150D02*
X8116491Y-15501674D01*
X8116491Y-15501674D02*
X8126015Y-15520722D01*
X8126015Y-15520722D02*
X8126015Y-15625484D01*
X8516491Y-15415960D02*
X8345063Y-15673103D01*
X8773634Y-15425484D02*
X8792682Y-15425484D01*
X8792682Y-15425484D02*
X8811729Y-15435008D01*
X8811729Y-15435008D02*
X8821253Y-15444531D01*
X8821253Y-15444531D02*
X8830777Y-15463579D01*
X8830777Y-15463579D02*
X8840301Y-15501674D01*
X8840301Y-15501674D02*
X8840301Y-15549293D01*
X8840301Y-15549293D02*
X8830777Y-15587388D01*
X8830777Y-15587388D02*
X8821253Y-15606436D01*
X8821253Y-15606436D02*
X8811729Y-15615960D01*
X8811729Y-15615960D02*
X8792682Y-15625484D01*
X8792682Y-15625484D02*
X8773634Y-15625484D01*
X8773634Y-15625484D02*
X8754587Y-15615960D01*
X8754587Y-15615960D02*
X8745063Y-15606436D01*
X8745063Y-15606436D02*
X8735539Y-15587388D01*
X8735539Y-15587388D02*
X8726015Y-15549293D01*
X8726015Y-15549293D02*
X8726015Y-15501674D01*
X8726015Y-15501674D02*
X8735539Y-15463579D01*
X8735539Y-15463579D02*
X8745063Y-15444531D01*
X8745063Y-15444531D02*
X8754587Y-15435008D01*
X8754587Y-15435008D02*
X8773634Y-15425484D01*
X8926015Y-15606436D02*
X8935539Y-15615960D01*
X8935539Y-15615960D02*
X8926015Y-15625484D01*
X8926015Y-15625484D02*
X8916491Y-15615960D01*
X8916491Y-15615960D02*
X8926015Y-15606436D01*
X8926015Y-15606436D02*
X8926015Y-15625484D01*
X9059348Y-15425484D02*
X9078396Y-15425484D01*
X9078396Y-15425484D02*
X9097444Y-15435008D01*
X9097444Y-15435008D02*
X9106968Y-15444531D01*
X9106968Y-15444531D02*
X9116491Y-15463579D01*
X9116491Y-15463579D02*
X9126015Y-15501674D01*
X9126015Y-15501674D02*
X9126015Y-15549293D01*
X9126015Y-15549293D02*
X9116491Y-15587388D01*
X9116491Y-15587388D02*
X9106968Y-15606436D01*
X9106968Y-15606436D02*
X9097444Y-15615960D01*
X9097444Y-15615960D02*
X9078396Y-15625484D01*
X9078396Y-15625484D02*
X9059348Y-15625484D01*
X9059348Y-15625484D02*
X9040301Y-15615960D01*
X9040301Y-15615960D02*
X9030777Y-15606436D01*
X9030777Y-15606436D02*
X9021253Y-15587388D01*
X9021253Y-15587388D02*
X9011729Y-15549293D01*
X9011729Y-15549293D02*
X9011729Y-15501674D01*
X9011729Y-15501674D02*
X9021253Y-15463579D01*
X9021253Y-15463579D02*
X9030777Y-15444531D01*
X9030777Y-15444531D02*
X9040301Y-15435008D01*
X9040301Y-15435008D02*
X9059348Y-15425484D01*
X9192682Y-15425484D02*
X9316491Y-15425484D01*
X9316491Y-15425484D02*
X9249825Y-15501674D01*
X9249825Y-15501674D02*
X9278396Y-15501674D01*
X9278396Y-15501674D02*
X9297444Y-15511198D01*
X9297444Y-15511198D02*
X9306968Y-15520722D01*
X9306968Y-15520722D02*
X9316491Y-15539769D01*
X9316491Y-15539769D02*
X9316491Y-15587388D01*
X9316491Y-15587388D02*
X9306968Y-15606436D01*
X9306968Y-15606436D02*
X9297444Y-15615960D01*
X9297444Y-15615960D02*
X9278396Y-15625484D01*
X9278396Y-15625484D02*
X9221253Y-15625484D01*
X9221253Y-15625484D02*
X9202206Y-15615960D01*
X9202206Y-15615960D02*
X9192682Y-15606436D01*
X9506968Y-15625484D02*
X9392682Y-15625484D01*
X9449825Y-15625484D02*
X9449825Y-15425484D01*
X9449825Y-15425484D02*
X9430777Y-15454055D01*
X9430777Y-15454055D02*
X9411729Y-15473103D01*
X9411729Y-15473103D02*
X9392682Y-15482627D01*
X9687920Y-15425484D02*
X9592682Y-15425484D01*
X9592682Y-15425484D02*
X9583158Y-15520722D01*
X9583158Y-15520722D02*
X9592682Y-15511198D01*
X9592682Y-15511198D02*
X9611729Y-15501674D01*
X9611729Y-15501674D02*
X9659349Y-15501674D01*
X9659349Y-15501674D02*
X9678396Y-15511198D01*
X9678396Y-15511198D02*
X9687920Y-15520722D01*
X9687920Y-15520722D02*
X9697444Y-15539769D01*
X9697444Y-15539769D02*
X9697444Y-15587388D01*
X9697444Y-15587388D02*
X9687920Y-15606436D01*
X9687920Y-15606436D02*
X9678396Y-15615960D01*
X9678396Y-15615960D02*
X9659349Y-15625484D01*
X9659349Y-15625484D02*
X9611729Y-15625484D01*
X9611729Y-15625484D02*
X9592682Y-15615960D01*
X9592682Y-15615960D02*
X9583158Y-15606436D01*
X9773634Y-15425484D02*
X9773634Y-15463579D01*
X9849825Y-15425484D02*
X9849825Y-15463579D01*
X10145063Y-15701674D02*
X10135539Y-15692150D01*
X10135539Y-15692150D02*
X10116491Y-15663579D01*
X10116491Y-15663579D02*
X10106968Y-15644531D01*
X10106968Y-15644531D02*
X10097444Y-15615960D01*
X10097444Y-15615960D02*
X10087920Y-15568341D01*
X10087920Y-15568341D02*
X10087920Y-15530246D01*
X10087920Y-15530246D02*
X10097444Y-15482627D01*
X10097444Y-15482627D02*
X10106968Y-15454055D01*
X10106968Y-15454055D02*
X10116491Y-15435008D01*
X10116491Y-15435008D02*
X10135539Y-15406436D01*
X10135539Y-15406436D02*
X10145063Y-15396912D01*
X10211730Y-15444531D02*
X10221253Y-15435008D01*
X10221253Y-15435008D02*
X10240301Y-15425484D01*
X10240301Y-15425484D02*
X10287920Y-15425484D01*
X10287920Y-15425484D02*
X10306968Y-15435008D01*
X10306968Y-15435008D02*
X10316491Y-15444531D01*
X10316491Y-15444531D02*
X10326015Y-15463579D01*
X10326015Y-15463579D02*
X10326015Y-15482627D01*
X10326015Y-15482627D02*
X10316491Y-15511198D01*
X10316491Y-15511198D02*
X10202206Y-15625484D01*
X10202206Y-15625484D02*
X10326015Y-15625484D01*
X10449825Y-15425484D02*
X10468872Y-15425484D01*
X10468872Y-15425484D02*
X10487920Y-15435008D01*
X10487920Y-15435008D02*
X10497444Y-15444531D01*
X10497444Y-15444531D02*
X10506968Y-15463579D01*
X10506968Y-15463579D02*
X10516491Y-15501674D01*
X10516491Y-15501674D02*
X10516491Y-15549293D01*
X10516491Y-15549293D02*
X10506968Y-15587388D01*
X10506968Y-15587388D02*
X10497444Y-15606436D01*
X10497444Y-15606436D02*
X10487920Y-15615960D01*
X10487920Y-15615960D02*
X10468872Y-15625484D01*
X10468872Y-15625484D02*
X10449825Y-15625484D01*
X10449825Y-15625484D02*
X10430777Y-15615960D01*
X10430777Y-15615960D02*
X10421253Y-15606436D01*
X10421253Y-15606436D02*
X10411730Y-15587388D01*
X10411730Y-15587388D02*
X10402206Y-15549293D01*
X10402206Y-15549293D02*
X10402206Y-15501674D01*
X10402206Y-15501674D02*
X10411730Y-15463579D01*
X10411730Y-15463579D02*
X10421253Y-15444531D01*
X10421253Y-15444531D02*
X10430777Y-15435008D01*
X10430777Y-15435008D02*
X10449825Y-15425484D01*
X10754587Y-15625484D02*
X10754587Y-15425484D01*
X10840301Y-15625484D02*
X10840301Y-15520722D01*
X10840301Y-15520722D02*
X10830777Y-15501674D01*
X10830777Y-15501674D02*
X10811730Y-15492150D01*
X10811730Y-15492150D02*
X10783158Y-15492150D01*
X10783158Y-15492150D02*
X10764111Y-15501674D01*
X10764111Y-15501674D02*
X10754587Y-15511198D01*
X10964111Y-15625484D02*
X10945063Y-15615960D01*
X10945063Y-15615960D02*
X10935539Y-15606436D01*
X10935539Y-15606436D02*
X10926015Y-15587388D01*
X10926015Y-15587388D02*
X10926015Y-15530246D01*
X10926015Y-15530246D02*
X10935539Y-15511198D01*
X10935539Y-15511198D02*
X10945063Y-15501674D01*
X10945063Y-15501674D02*
X10964111Y-15492150D01*
X10964111Y-15492150D02*
X10992682Y-15492150D01*
X10992682Y-15492150D02*
X11011730Y-15501674D01*
X11011730Y-15501674D02*
X11021253Y-15511198D01*
X11021253Y-15511198D02*
X11030777Y-15530246D01*
X11030777Y-15530246D02*
X11030777Y-15587388D01*
X11030777Y-15587388D02*
X11021253Y-15606436D01*
X11021253Y-15606436D02*
X11011730Y-15615960D01*
X11011730Y-15615960D02*
X10992682Y-15625484D01*
X10992682Y-15625484D02*
X10964111Y-15625484D01*
X11145063Y-15625484D02*
X11126015Y-15615960D01*
X11126015Y-15615960D02*
X11116492Y-15596912D01*
X11116492Y-15596912D02*
X11116492Y-15425484D01*
X11297444Y-15615960D02*
X11278396Y-15625484D01*
X11278396Y-15625484D02*
X11240301Y-15625484D01*
X11240301Y-15625484D02*
X11221253Y-15615960D01*
X11221253Y-15615960D02*
X11211730Y-15596912D01*
X11211730Y-15596912D02*
X11211730Y-15520722D01*
X11211730Y-15520722D02*
X11221253Y-15501674D01*
X11221253Y-15501674D02*
X11240301Y-15492150D01*
X11240301Y-15492150D02*
X11278396Y-15492150D01*
X11278396Y-15492150D02*
X11297444Y-15501674D01*
X11297444Y-15501674D02*
X11306968Y-15520722D01*
X11306968Y-15520722D02*
X11306968Y-15539769D01*
X11306968Y-15539769D02*
X11211730Y-15558817D01*
X11383158Y-15615960D02*
X11402206Y-15625484D01*
X11402206Y-15625484D02*
X11440301Y-15625484D01*
X11440301Y-15625484D02*
X11459349Y-15615960D01*
X11459349Y-15615960D02*
X11468872Y-15596912D01*
X11468872Y-15596912D02*
X11468872Y-15587388D01*
X11468872Y-15587388D02*
X11459349Y-15568341D01*
X11459349Y-15568341D02*
X11440301Y-15558817D01*
X11440301Y-15558817D02*
X11411730Y-15558817D01*
X11411730Y-15558817D02*
X11392682Y-15549293D01*
X11392682Y-15549293D02*
X11383158Y-15530246D01*
X11383158Y-15530246D02*
X11383158Y-15520722D01*
X11383158Y-15520722D02*
X11392682Y-15501674D01*
X11392682Y-15501674D02*
X11411730Y-15492150D01*
X11411730Y-15492150D02*
X11440301Y-15492150D01*
X11440301Y-15492150D02*
X11459349Y-15501674D01*
X11535539Y-15701674D02*
X11545063Y-15692150D01*
X11545063Y-15692150D02*
X11564111Y-15663579D01*
X11564111Y-15663579D02*
X11573634Y-15644531D01*
X11573634Y-15644531D02*
X11583158Y-15615960D01*
X11583158Y-15615960D02*
X11592682Y-15568341D01*
X11592682Y-15568341D02*
X11592682Y-15530246D01*
X11592682Y-15530246D02*
X11583158Y-15482627D01*
X11583158Y-15482627D02*
X11573634Y-15454055D01*
X11573634Y-15454055D02*
X11564111Y-15435008D01*
X11564111Y-15435008D02*
X11545063Y-15406436D01*
X11545063Y-15406436D02*
X11535539Y-15396912D01*
D14*
X6525000Y-15753000D02*
X6525000Y-15843000D01*
X6480000Y-15798000D02*
X6570000Y-15798000D01*
D11*
X6868872Y-15689484D02*
X6887920Y-15689484D01*
X6887920Y-15689484D02*
X6906967Y-15699008D01*
X6906967Y-15699008D02*
X6916491Y-15708531D01*
X6916491Y-15708531D02*
X6926015Y-15727579D01*
X6926015Y-15727579D02*
X6935539Y-15765674D01*
X6935539Y-15765674D02*
X6935539Y-15813293D01*
X6935539Y-15813293D02*
X6926015Y-15851388D01*
X6926015Y-15851388D02*
X6916491Y-15870436D01*
X6916491Y-15870436D02*
X6906967Y-15879960D01*
X6906967Y-15879960D02*
X6887920Y-15889484D01*
X6887920Y-15889484D02*
X6868872Y-15889484D01*
X6868872Y-15889484D02*
X6849824Y-15879960D01*
X6849824Y-15879960D02*
X6840301Y-15870436D01*
X6840301Y-15870436D02*
X6830777Y-15851388D01*
X6830777Y-15851388D02*
X6821253Y-15813293D01*
X6821253Y-15813293D02*
X6821253Y-15765674D01*
X6821253Y-15765674D02*
X6830777Y-15727579D01*
X6830777Y-15727579D02*
X6840301Y-15708531D01*
X6840301Y-15708531D02*
X6849824Y-15699008D01*
X6849824Y-15699008D02*
X6868872Y-15689484D01*
X7021253Y-15870436D02*
X7030777Y-15879960D01*
X7030777Y-15879960D02*
X7021253Y-15889484D01*
X7021253Y-15889484D02*
X7011729Y-15879960D01*
X7011729Y-15879960D02*
X7021253Y-15870436D01*
X7021253Y-15870436D02*
X7021253Y-15889484D01*
X7126015Y-15889484D02*
X7164110Y-15889484D01*
X7164110Y-15889484D02*
X7183158Y-15879960D01*
X7183158Y-15879960D02*
X7192682Y-15870436D01*
X7192682Y-15870436D02*
X7211729Y-15841865D01*
X7211729Y-15841865D02*
X7221253Y-15803769D01*
X7221253Y-15803769D02*
X7221253Y-15727579D01*
X7221253Y-15727579D02*
X7211729Y-15708531D01*
X7211729Y-15708531D02*
X7202205Y-15699008D01*
X7202205Y-15699008D02*
X7183158Y-15689484D01*
X7183158Y-15689484D02*
X7145062Y-15689484D01*
X7145062Y-15689484D02*
X7126015Y-15699008D01*
X7126015Y-15699008D02*
X7116491Y-15708531D01*
X7116491Y-15708531D02*
X7106967Y-15727579D01*
X7106967Y-15727579D02*
X7106967Y-15775198D01*
X7106967Y-15775198D02*
X7116491Y-15794246D01*
X7116491Y-15794246D02*
X7126015Y-15803769D01*
X7126015Y-15803769D02*
X7145062Y-15813293D01*
X7145062Y-15813293D02*
X7183158Y-15813293D01*
X7183158Y-15813293D02*
X7202205Y-15803769D01*
X7202205Y-15803769D02*
X7211729Y-15794246D01*
X7211729Y-15794246D02*
X7221253Y-15775198D01*
X7345062Y-15689484D02*
X7364110Y-15689484D01*
X7364110Y-15689484D02*
X7383158Y-15699008D01*
X7383158Y-15699008D02*
X7392682Y-15708531D01*
X7392682Y-15708531D02*
X7402205Y-15727579D01*
X7402205Y-15727579D02*
X7411729Y-15765674D01*
X7411729Y-15765674D02*
X7411729Y-15813293D01*
X7411729Y-15813293D02*
X7402205Y-15851388D01*
X7402205Y-15851388D02*
X7392682Y-15870436D01*
X7392682Y-15870436D02*
X7383158Y-15879960D01*
X7383158Y-15879960D02*
X7364110Y-15889484D01*
X7364110Y-15889484D02*
X7345062Y-15889484D01*
X7345062Y-15889484D02*
X7326015Y-15879960D01*
X7326015Y-15879960D02*
X7316491Y-15870436D01*
X7316491Y-15870436D02*
X7306967Y-15851388D01*
X7306967Y-15851388D02*
X7297443Y-15813293D01*
X7297443Y-15813293D02*
X7297443Y-15765674D01*
X7297443Y-15765674D02*
X7306967Y-15727579D01*
X7306967Y-15727579D02*
X7316491Y-15708531D01*
X7316491Y-15708531D02*
X7326015Y-15699008D01*
X7326015Y-15699008D02*
X7345062Y-15689484D01*
X7535539Y-15689484D02*
X7554586Y-15689484D01*
X7554586Y-15689484D02*
X7573634Y-15699008D01*
X7573634Y-15699008D02*
X7583158Y-15708531D01*
X7583158Y-15708531D02*
X7592682Y-15727579D01*
X7592682Y-15727579D02*
X7602205Y-15765674D01*
X7602205Y-15765674D02*
X7602205Y-15813293D01*
X7602205Y-15813293D02*
X7592682Y-15851388D01*
X7592682Y-15851388D02*
X7583158Y-15870436D01*
X7583158Y-15870436D02*
X7573634Y-15879960D01*
X7573634Y-15879960D02*
X7554586Y-15889484D01*
X7554586Y-15889484D02*
X7535539Y-15889484D01*
X7535539Y-15889484D02*
X7516491Y-15879960D01*
X7516491Y-15879960D02*
X7506967Y-15870436D01*
X7506967Y-15870436D02*
X7497443Y-15851388D01*
X7497443Y-15851388D02*
X7487920Y-15813293D01*
X7487920Y-15813293D02*
X7487920Y-15765674D01*
X7487920Y-15765674D02*
X7497443Y-15727579D01*
X7497443Y-15727579D02*
X7506967Y-15708531D01*
X7506967Y-15708531D02*
X7516491Y-15699008D01*
X7516491Y-15699008D02*
X7535539Y-15689484D01*
X7687920Y-15889484D02*
X7687920Y-15756150D01*
X7687920Y-15775198D02*
X7697443Y-15765674D01*
X7697443Y-15765674D02*
X7716491Y-15756150D01*
X7716491Y-15756150D02*
X7745063Y-15756150D01*
X7745063Y-15756150D02*
X7764110Y-15765674D01*
X7764110Y-15765674D02*
X7773634Y-15784722D01*
X7773634Y-15784722D02*
X7773634Y-15889484D01*
X7773634Y-15784722D02*
X7783158Y-15765674D01*
X7783158Y-15765674D02*
X7802205Y-15756150D01*
X7802205Y-15756150D02*
X7830777Y-15756150D01*
X7830777Y-15756150D02*
X7849824Y-15765674D01*
X7849824Y-15765674D02*
X7859348Y-15784722D01*
X7859348Y-15784722D02*
X7859348Y-15889484D01*
X7954586Y-15889484D02*
X7954586Y-15756150D01*
X7954586Y-15775198D02*
X7964110Y-15765674D01*
X7964110Y-15765674D02*
X7983158Y-15756150D01*
X7983158Y-15756150D02*
X8011729Y-15756150D01*
X8011729Y-15756150D02*
X8030777Y-15765674D01*
X8030777Y-15765674D02*
X8040301Y-15784722D01*
X8040301Y-15784722D02*
X8040301Y-15889484D01*
X8040301Y-15784722D02*
X8049824Y-15765674D01*
X8049824Y-15765674D02*
X8068872Y-15756150D01*
X8068872Y-15756150D02*
X8097443Y-15756150D01*
X8097443Y-15756150D02*
X8116491Y-15765674D01*
X8116491Y-15765674D02*
X8126015Y-15784722D01*
X8126015Y-15784722D02*
X8126015Y-15889484D01*
X8516491Y-15679960D02*
X8345063Y-15937103D01*
X8773634Y-15689484D02*
X8792682Y-15689484D01*
X8792682Y-15689484D02*
X8811729Y-15699008D01*
X8811729Y-15699008D02*
X8821253Y-15708531D01*
X8821253Y-15708531D02*
X8830777Y-15727579D01*
X8830777Y-15727579D02*
X8840301Y-15765674D01*
X8840301Y-15765674D02*
X8840301Y-15813293D01*
X8840301Y-15813293D02*
X8830777Y-15851388D01*
X8830777Y-15851388D02*
X8821253Y-15870436D01*
X8821253Y-15870436D02*
X8811729Y-15879960D01*
X8811729Y-15879960D02*
X8792682Y-15889484D01*
X8792682Y-15889484D02*
X8773634Y-15889484D01*
X8773634Y-15889484D02*
X8754587Y-15879960D01*
X8754587Y-15879960D02*
X8745063Y-15870436D01*
X8745063Y-15870436D02*
X8735539Y-15851388D01*
X8735539Y-15851388D02*
X8726015Y-15813293D01*
X8726015Y-15813293D02*
X8726015Y-15765674D01*
X8726015Y-15765674D02*
X8735539Y-15727579D01*
X8735539Y-15727579D02*
X8745063Y-15708531D01*
X8745063Y-15708531D02*
X8754587Y-15699008D01*
X8754587Y-15699008D02*
X8773634Y-15689484D01*
X8926015Y-15870436D02*
X8935539Y-15879960D01*
X8935539Y-15879960D02*
X8926015Y-15889484D01*
X8926015Y-15889484D02*
X8916491Y-15879960D01*
X8916491Y-15879960D02*
X8926015Y-15870436D01*
X8926015Y-15870436D02*
X8926015Y-15889484D01*
X9059348Y-15689484D02*
X9078396Y-15689484D01*
X9078396Y-15689484D02*
X9097444Y-15699008D01*
X9097444Y-15699008D02*
X9106968Y-15708531D01*
X9106968Y-15708531D02*
X9116491Y-15727579D01*
X9116491Y-15727579D02*
X9126015Y-15765674D01*
X9126015Y-15765674D02*
X9126015Y-15813293D01*
X9126015Y-15813293D02*
X9116491Y-15851388D01*
X9116491Y-15851388D02*
X9106968Y-15870436D01*
X9106968Y-15870436D02*
X9097444Y-15879960D01*
X9097444Y-15879960D02*
X9078396Y-15889484D01*
X9078396Y-15889484D02*
X9059348Y-15889484D01*
X9059348Y-15889484D02*
X9040301Y-15879960D01*
X9040301Y-15879960D02*
X9030777Y-15870436D01*
X9030777Y-15870436D02*
X9021253Y-15851388D01*
X9021253Y-15851388D02*
X9011729Y-15813293D01*
X9011729Y-15813293D02*
X9011729Y-15765674D01*
X9011729Y-15765674D02*
X9021253Y-15727579D01*
X9021253Y-15727579D02*
X9030777Y-15708531D01*
X9030777Y-15708531D02*
X9040301Y-15699008D01*
X9040301Y-15699008D02*
X9059348Y-15689484D01*
X9192682Y-15689484D02*
X9316491Y-15689484D01*
X9316491Y-15689484D02*
X9249825Y-15765674D01*
X9249825Y-15765674D02*
X9278396Y-15765674D01*
X9278396Y-15765674D02*
X9297444Y-15775198D01*
X9297444Y-15775198D02*
X9306968Y-15784722D01*
X9306968Y-15784722D02*
X9316491Y-15803769D01*
X9316491Y-15803769D02*
X9316491Y-15851388D01*
X9316491Y-15851388D02*
X9306968Y-15870436D01*
X9306968Y-15870436D02*
X9297444Y-15879960D01*
X9297444Y-15879960D02*
X9278396Y-15889484D01*
X9278396Y-15889484D02*
X9221253Y-15889484D01*
X9221253Y-15889484D02*
X9202206Y-15879960D01*
X9202206Y-15879960D02*
X9192682Y-15870436D01*
X9497444Y-15689484D02*
X9402206Y-15689484D01*
X9402206Y-15689484D02*
X9392682Y-15784722D01*
X9392682Y-15784722D02*
X9402206Y-15775198D01*
X9402206Y-15775198D02*
X9421253Y-15765674D01*
X9421253Y-15765674D02*
X9468872Y-15765674D01*
X9468872Y-15765674D02*
X9487920Y-15775198D01*
X9487920Y-15775198D02*
X9497444Y-15784722D01*
X9497444Y-15784722D02*
X9506968Y-15803769D01*
X9506968Y-15803769D02*
X9506968Y-15851388D01*
X9506968Y-15851388D02*
X9497444Y-15870436D01*
X9497444Y-15870436D02*
X9487920Y-15879960D01*
X9487920Y-15879960D02*
X9468872Y-15889484D01*
X9468872Y-15889484D02*
X9421253Y-15889484D01*
X9421253Y-15889484D02*
X9402206Y-15879960D01*
X9402206Y-15879960D02*
X9392682Y-15870436D01*
X9678396Y-15756150D02*
X9678396Y-15889484D01*
X9630777Y-15679960D02*
X9583158Y-15822817D01*
X9583158Y-15822817D02*
X9706968Y-15822817D01*
X9773634Y-15689484D02*
X9773634Y-15727579D01*
X9849825Y-15689484D02*
X9849825Y-15727579D01*
X10145063Y-15965674D02*
X10135539Y-15956150D01*
X10135539Y-15956150D02*
X10116491Y-15927579D01*
X10116491Y-15927579D02*
X10106968Y-15908531D01*
X10106968Y-15908531D02*
X10097444Y-15879960D01*
X10097444Y-15879960D02*
X10087920Y-15832341D01*
X10087920Y-15832341D02*
X10087920Y-15794246D01*
X10087920Y-15794246D02*
X10097444Y-15746627D01*
X10097444Y-15746627D02*
X10106968Y-15718055D01*
X10106968Y-15718055D02*
X10116491Y-15699008D01*
X10116491Y-15699008D02*
X10135539Y-15670436D01*
X10135539Y-15670436D02*
X10145063Y-15660912D01*
X10306968Y-15756150D02*
X10306968Y-15889484D01*
X10259349Y-15679960D02*
X10211730Y-15822817D01*
X10211730Y-15822817D02*
X10335539Y-15822817D01*
X10564111Y-15889484D02*
X10564111Y-15689484D01*
X10649825Y-15889484D02*
X10649825Y-15784722D01*
X10649825Y-15784722D02*
X10640301Y-15765674D01*
X10640301Y-15765674D02*
X10621253Y-15756150D01*
X10621253Y-15756150D02*
X10592682Y-15756150D01*
X10592682Y-15756150D02*
X10573634Y-15765674D01*
X10573634Y-15765674D02*
X10564111Y-15775198D01*
X10773634Y-15889484D02*
X10754587Y-15879960D01*
X10754587Y-15879960D02*
X10745063Y-15870436D01*
X10745063Y-15870436D02*
X10735539Y-15851388D01*
X10735539Y-15851388D02*
X10735539Y-15794246D01*
X10735539Y-15794246D02*
X10745063Y-15775198D01*
X10745063Y-15775198D02*
X10754587Y-15765674D01*
X10754587Y-15765674D02*
X10773634Y-15756150D01*
X10773634Y-15756150D02*
X10802206Y-15756150D01*
X10802206Y-15756150D02*
X10821253Y-15765674D01*
X10821253Y-15765674D02*
X10830777Y-15775198D01*
X10830777Y-15775198D02*
X10840301Y-15794246D01*
X10840301Y-15794246D02*
X10840301Y-15851388D01*
X10840301Y-15851388D02*
X10830777Y-15870436D01*
X10830777Y-15870436D02*
X10821253Y-15879960D01*
X10821253Y-15879960D02*
X10802206Y-15889484D01*
X10802206Y-15889484D02*
X10773634Y-15889484D01*
X10954587Y-15889484D02*
X10935539Y-15879960D01*
X10935539Y-15879960D02*
X10926015Y-15860912D01*
X10926015Y-15860912D02*
X10926015Y-15689484D01*
X11106968Y-15879960D02*
X11087920Y-15889484D01*
X11087920Y-15889484D02*
X11049825Y-15889484D01*
X11049825Y-15889484D02*
X11030777Y-15879960D01*
X11030777Y-15879960D02*
X11021253Y-15860912D01*
X11021253Y-15860912D02*
X11021253Y-15784722D01*
X11021253Y-15784722D02*
X11030777Y-15765674D01*
X11030777Y-15765674D02*
X11049825Y-15756150D01*
X11049825Y-15756150D02*
X11087920Y-15756150D01*
X11087920Y-15756150D02*
X11106968Y-15765674D01*
X11106968Y-15765674D02*
X11116492Y-15784722D01*
X11116492Y-15784722D02*
X11116492Y-15803769D01*
X11116492Y-15803769D02*
X11021253Y-15822817D01*
X11192682Y-15879960D02*
X11211730Y-15889484D01*
X11211730Y-15889484D02*
X11249825Y-15889484D01*
X11249825Y-15889484D02*
X11268872Y-15879960D01*
X11268872Y-15879960D02*
X11278396Y-15860912D01*
X11278396Y-15860912D02*
X11278396Y-15851388D01*
X11278396Y-15851388D02*
X11268872Y-15832341D01*
X11268872Y-15832341D02*
X11249825Y-15822817D01*
X11249825Y-15822817D02*
X11221253Y-15822817D01*
X11221253Y-15822817D02*
X11202206Y-15813293D01*
X11202206Y-15813293D02*
X11192682Y-15794246D01*
X11192682Y-15794246D02*
X11192682Y-15784722D01*
X11192682Y-15784722D02*
X11202206Y-15765674D01*
X11202206Y-15765674D02*
X11221253Y-15756150D01*
X11221253Y-15756150D02*
X11249825Y-15756150D01*
X11249825Y-15756150D02*
X11268872Y-15765674D01*
X11345063Y-15965674D02*
X11354587Y-15956150D01*
X11354587Y-15956150D02*
X11373634Y-15927579D01*
X11373634Y-15927579D02*
X11383158Y-15908531D01*
X11383158Y-15908531D02*
X11392682Y-15879960D01*
X11392682Y-15879960D02*
X11402206Y-15832341D01*
X11402206Y-15832341D02*
X11402206Y-15794246D01*
X11402206Y-15794246D02*
X11392682Y-15746627D01*
X11392682Y-15746627D02*
X11383158Y-15718055D01*
X11383158Y-15718055D02*
X11373634Y-15699008D01*
X11373634Y-15699008D02*
X11354587Y-15670436D01*
X11354587Y-15670436D02*
X11345063Y-15660912D01*
D10*
X6555356Y-16097356D02*
X6555356Y-16026644D01*
X6484644Y-16026644D01*
X6484644Y-16097356D01*
X6555356Y-16097356D01*
D11*
X6935539Y-16153484D02*
X6821253Y-16153484D01*
X6878396Y-16153484D02*
X6878396Y-15953484D01*
X6878396Y-15953484D02*
X6859348Y-15982055D01*
X6859348Y-15982055D02*
X6840301Y-16001103D01*
X6840301Y-16001103D02*
X6821253Y-16010627D01*
X7021253Y-16134436D02*
X7030777Y-16143960D01*
X7030777Y-16143960D02*
X7021253Y-16153484D01*
X7021253Y-16153484D02*
X7011729Y-16143960D01*
X7011729Y-16143960D02*
X7021253Y-16134436D01*
X7021253Y-16134436D02*
X7021253Y-16153484D01*
X7154586Y-15953484D02*
X7173634Y-15953484D01*
X7173634Y-15953484D02*
X7192682Y-15963008D01*
X7192682Y-15963008D02*
X7202205Y-15972531D01*
X7202205Y-15972531D02*
X7211729Y-15991579D01*
X7211729Y-15991579D02*
X7221253Y-16029674D01*
X7221253Y-16029674D02*
X7221253Y-16077293D01*
X7221253Y-16077293D02*
X7211729Y-16115388D01*
X7211729Y-16115388D02*
X7202205Y-16134436D01*
X7202205Y-16134436D02*
X7192682Y-16143960D01*
X7192682Y-16143960D02*
X7173634Y-16153484D01*
X7173634Y-16153484D02*
X7154586Y-16153484D01*
X7154586Y-16153484D02*
X7135539Y-16143960D01*
X7135539Y-16143960D02*
X7126015Y-16134436D01*
X7126015Y-16134436D02*
X7116491Y-16115388D01*
X7116491Y-16115388D02*
X7106967Y-16077293D01*
X7106967Y-16077293D02*
X7106967Y-16029674D01*
X7106967Y-16029674D02*
X7116491Y-15991579D01*
X7116491Y-15991579D02*
X7126015Y-15972531D01*
X7126015Y-15972531D02*
X7135539Y-15963008D01*
X7135539Y-15963008D02*
X7154586Y-15953484D01*
X7345062Y-15953484D02*
X7364110Y-15953484D01*
X7364110Y-15953484D02*
X7383158Y-15963008D01*
X7383158Y-15963008D02*
X7392682Y-15972531D01*
X7392682Y-15972531D02*
X7402205Y-15991579D01*
X7402205Y-15991579D02*
X7411729Y-16029674D01*
X7411729Y-16029674D02*
X7411729Y-16077293D01*
X7411729Y-16077293D02*
X7402205Y-16115388D01*
X7402205Y-16115388D02*
X7392682Y-16134436D01*
X7392682Y-16134436D02*
X7383158Y-16143960D01*
X7383158Y-16143960D02*
X7364110Y-16153484D01*
X7364110Y-16153484D02*
X7345062Y-16153484D01*
X7345062Y-16153484D02*
X7326015Y-16143960D01*
X7326015Y-16143960D02*
X7316491Y-16134436D01*
X7316491Y-16134436D02*
X7306967Y-16115388D01*
X7306967Y-16115388D02*
X7297443Y-16077293D01*
X7297443Y-16077293D02*
X7297443Y-16029674D01*
X7297443Y-16029674D02*
X7306967Y-15991579D01*
X7306967Y-15991579D02*
X7316491Y-15972531D01*
X7316491Y-15972531D02*
X7326015Y-15963008D01*
X7326015Y-15963008D02*
X7345062Y-15953484D01*
X7535539Y-15953484D02*
X7554586Y-15953484D01*
X7554586Y-15953484D02*
X7573634Y-15963008D01*
X7573634Y-15963008D02*
X7583158Y-15972531D01*
X7583158Y-15972531D02*
X7592682Y-15991579D01*
X7592682Y-15991579D02*
X7602205Y-16029674D01*
X7602205Y-16029674D02*
X7602205Y-16077293D01*
X7602205Y-16077293D02*
X7592682Y-16115388D01*
X7592682Y-16115388D02*
X7583158Y-16134436D01*
X7583158Y-16134436D02*
X7573634Y-16143960D01*
X7573634Y-16143960D02*
X7554586Y-16153484D01*
X7554586Y-16153484D02*
X7535539Y-16153484D01*
X7535539Y-16153484D02*
X7516491Y-16143960D01*
X7516491Y-16143960D02*
X7506967Y-16134436D01*
X7506967Y-16134436D02*
X7497443Y-16115388D01*
X7497443Y-16115388D02*
X7487920Y-16077293D01*
X7487920Y-16077293D02*
X7487920Y-16029674D01*
X7487920Y-16029674D02*
X7497443Y-15991579D01*
X7497443Y-15991579D02*
X7506967Y-15972531D01*
X7506967Y-15972531D02*
X7516491Y-15963008D01*
X7516491Y-15963008D02*
X7535539Y-15953484D01*
X7687920Y-16153484D02*
X7687920Y-16020150D01*
X7687920Y-16039198D02*
X7697443Y-16029674D01*
X7697443Y-16029674D02*
X7716491Y-16020150D01*
X7716491Y-16020150D02*
X7745063Y-16020150D01*
X7745063Y-16020150D02*
X7764110Y-16029674D01*
X7764110Y-16029674D02*
X7773634Y-16048722D01*
X7773634Y-16048722D02*
X7773634Y-16153484D01*
X7773634Y-16048722D02*
X7783158Y-16029674D01*
X7783158Y-16029674D02*
X7802205Y-16020150D01*
X7802205Y-16020150D02*
X7830777Y-16020150D01*
X7830777Y-16020150D02*
X7849824Y-16029674D01*
X7849824Y-16029674D02*
X7859348Y-16048722D01*
X7859348Y-16048722D02*
X7859348Y-16153484D01*
X7954586Y-16153484D02*
X7954586Y-16020150D01*
X7954586Y-16039198D02*
X7964110Y-16029674D01*
X7964110Y-16029674D02*
X7983158Y-16020150D01*
X7983158Y-16020150D02*
X8011729Y-16020150D01*
X8011729Y-16020150D02*
X8030777Y-16029674D01*
X8030777Y-16029674D02*
X8040301Y-16048722D01*
X8040301Y-16048722D02*
X8040301Y-16153484D01*
X8040301Y-16048722D02*
X8049824Y-16029674D01*
X8049824Y-16029674D02*
X8068872Y-16020150D01*
X8068872Y-16020150D02*
X8097443Y-16020150D01*
X8097443Y-16020150D02*
X8116491Y-16029674D01*
X8116491Y-16029674D02*
X8126015Y-16048722D01*
X8126015Y-16048722D02*
X8126015Y-16153484D01*
X8516491Y-15943960D02*
X8345063Y-16201103D01*
X8773634Y-15953484D02*
X8792682Y-15953484D01*
X8792682Y-15953484D02*
X8811729Y-15963008D01*
X8811729Y-15963008D02*
X8821253Y-15972531D01*
X8821253Y-15972531D02*
X8830777Y-15991579D01*
X8830777Y-15991579D02*
X8840301Y-16029674D01*
X8840301Y-16029674D02*
X8840301Y-16077293D01*
X8840301Y-16077293D02*
X8830777Y-16115388D01*
X8830777Y-16115388D02*
X8821253Y-16134436D01*
X8821253Y-16134436D02*
X8811729Y-16143960D01*
X8811729Y-16143960D02*
X8792682Y-16153484D01*
X8792682Y-16153484D02*
X8773634Y-16153484D01*
X8773634Y-16153484D02*
X8754587Y-16143960D01*
X8754587Y-16143960D02*
X8745063Y-16134436D01*
X8745063Y-16134436D02*
X8735539Y-16115388D01*
X8735539Y-16115388D02*
X8726015Y-16077293D01*
X8726015Y-16077293D02*
X8726015Y-16029674D01*
X8726015Y-16029674D02*
X8735539Y-15991579D01*
X8735539Y-15991579D02*
X8745063Y-15972531D01*
X8745063Y-15972531D02*
X8754587Y-15963008D01*
X8754587Y-15963008D02*
X8773634Y-15953484D01*
X8926015Y-16134436D02*
X8935539Y-16143960D01*
X8935539Y-16143960D02*
X8926015Y-16153484D01*
X8926015Y-16153484D02*
X8916491Y-16143960D01*
X8916491Y-16143960D02*
X8926015Y-16134436D01*
X8926015Y-16134436D02*
X8926015Y-16153484D01*
X9059348Y-15953484D02*
X9078396Y-15953484D01*
X9078396Y-15953484D02*
X9097444Y-15963008D01*
X9097444Y-15963008D02*
X9106968Y-15972531D01*
X9106968Y-15972531D02*
X9116491Y-15991579D01*
X9116491Y-15991579D02*
X9126015Y-16029674D01*
X9126015Y-16029674D02*
X9126015Y-16077293D01*
X9126015Y-16077293D02*
X9116491Y-16115388D01*
X9116491Y-16115388D02*
X9106968Y-16134436D01*
X9106968Y-16134436D02*
X9097444Y-16143960D01*
X9097444Y-16143960D02*
X9078396Y-16153484D01*
X9078396Y-16153484D02*
X9059348Y-16153484D01*
X9059348Y-16153484D02*
X9040301Y-16143960D01*
X9040301Y-16143960D02*
X9030777Y-16134436D01*
X9030777Y-16134436D02*
X9021253Y-16115388D01*
X9021253Y-16115388D02*
X9011729Y-16077293D01*
X9011729Y-16077293D02*
X9011729Y-16029674D01*
X9011729Y-16029674D02*
X9021253Y-15991579D01*
X9021253Y-15991579D02*
X9030777Y-15972531D01*
X9030777Y-15972531D02*
X9040301Y-15963008D01*
X9040301Y-15963008D02*
X9059348Y-15953484D01*
X9192682Y-15953484D02*
X9316491Y-15953484D01*
X9316491Y-15953484D02*
X9249825Y-16029674D01*
X9249825Y-16029674D02*
X9278396Y-16029674D01*
X9278396Y-16029674D02*
X9297444Y-16039198D01*
X9297444Y-16039198D02*
X9306968Y-16048722D01*
X9306968Y-16048722D02*
X9316491Y-16067769D01*
X9316491Y-16067769D02*
X9316491Y-16115388D01*
X9316491Y-16115388D02*
X9306968Y-16134436D01*
X9306968Y-16134436D02*
X9297444Y-16143960D01*
X9297444Y-16143960D02*
X9278396Y-16153484D01*
X9278396Y-16153484D02*
X9221253Y-16153484D01*
X9221253Y-16153484D02*
X9202206Y-16143960D01*
X9202206Y-16143960D02*
X9192682Y-16134436D01*
X9411729Y-16153484D02*
X9449825Y-16153484D01*
X9449825Y-16153484D02*
X9468872Y-16143960D01*
X9468872Y-16143960D02*
X9478396Y-16134436D01*
X9478396Y-16134436D02*
X9497444Y-16105865D01*
X9497444Y-16105865D02*
X9506968Y-16067769D01*
X9506968Y-16067769D02*
X9506968Y-15991579D01*
X9506968Y-15991579D02*
X9497444Y-15972531D01*
X9497444Y-15972531D02*
X9487920Y-15963008D01*
X9487920Y-15963008D02*
X9468872Y-15953484D01*
X9468872Y-15953484D02*
X9430777Y-15953484D01*
X9430777Y-15953484D02*
X9411729Y-15963008D01*
X9411729Y-15963008D02*
X9402206Y-15972531D01*
X9402206Y-15972531D02*
X9392682Y-15991579D01*
X9392682Y-15991579D02*
X9392682Y-16039198D01*
X9392682Y-16039198D02*
X9402206Y-16058246D01*
X9402206Y-16058246D02*
X9411729Y-16067769D01*
X9411729Y-16067769D02*
X9430777Y-16077293D01*
X9430777Y-16077293D02*
X9468872Y-16077293D01*
X9468872Y-16077293D02*
X9487920Y-16067769D01*
X9487920Y-16067769D02*
X9497444Y-16058246D01*
X9497444Y-16058246D02*
X9506968Y-16039198D01*
X9678396Y-16020150D02*
X9678396Y-16153484D01*
X9630777Y-15943960D02*
X9583158Y-16086817D01*
X9583158Y-16086817D02*
X9706968Y-16086817D01*
X9773634Y-15953484D02*
X9773634Y-15991579D01*
X9849825Y-15953484D02*
X9849825Y-15991579D01*
X10145063Y-16229674D02*
X10135539Y-16220150D01*
X10135539Y-16220150D02*
X10116491Y-16191579D01*
X10116491Y-16191579D02*
X10106968Y-16172531D01*
X10106968Y-16172531D02*
X10097444Y-16143960D01*
X10097444Y-16143960D02*
X10087920Y-16096341D01*
X10087920Y-16096341D02*
X10087920Y-16058246D01*
X10087920Y-16058246D02*
X10097444Y-16010627D01*
X10097444Y-16010627D02*
X10106968Y-15982055D01*
X10106968Y-15982055D02*
X10116491Y-15963008D01*
X10116491Y-15963008D02*
X10135539Y-15934436D01*
X10135539Y-15934436D02*
X10145063Y-15924912D01*
X10211730Y-15972531D02*
X10221253Y-15963008D01*
X10221253Y-15963008D02*
X10240301Y-15953484D01*
X10240301Y-15953484D02*
X10287920Y-15953484D01*
X10287920Y-15953484D02*
X10306968Y-15963008D01*
X10306968Y-15963008D02*
X10316491Y-15972531D01*
X10316491Y-15972531D02*
X10326015Y-15991579D01*
X10326015Y-15991579D02*
X10326015Y-16010627D01*
X10326015Y-16010627D02*
X10316491Y-16039198D01*
X10316491Y-16039198D02*
X10202206Y-16153484D01*
X10202206Y-16153484D02*
X10326015Y-16153484D01*
X10564111Y-16153484D02*
X10564111Y-15953484D01*
X10649825Y-16153484D02*
X10649825Y-16048722D01*
X10649825Y-16048722D02*
X10640301Y-16029674D01*
X10640301Y-16029674D02*
X10621253Y-16020150D01*
X10621253Y-16020150D02*
X10592682Y-16020150D01*
X10592682Y-16020150D02*
X10573634Y-16029674D01*
X10573634Y-16029674D02*
X10564111Y-16039198D01*
X10773634Y-16153484D02*
X10754587Y-16143960D01*
X10754587Y-16143960D02*
X10745063Y-16134436D01*
X10745063Y-16134436D02*
X10735539Y-16115388D01*
X10735539Y-16115388D02*
X10735539Y-16058246D01*
X10735539Y-16058246D02*
X10745063Y-16039198D01*
X10745063Y-16039198D02*
X10754587Y-16029674D01*
X10754587Y-16029674D02*
X10773634Y-16020150D01*
X10773634Y-16020150D02*
X10802206Y-16020150D01*
X10802206Y-16020150D02*
X10821253Y-16029674D01*
X10821253Y-16029674D02*
X10830777Y-16039198D01*
X10830777Y-16039198D02*
X10840301Y-16058246D01*
X10840301Y-16058246D02*
X10840301Y-16115388D01*
X10840301Y-16115388D02*
X10830777Y-16134436D01*
X10830777Y-16134436D02*
X10821253Y-16143960D01*
X10821253Y-16143960D02*
X10802206Y-16153484D01*
X10802206Y-16153484D02*
X10773634Y-16153484D01*
X10954587Y-16153484D02*
X10935539Y-16143960D01*
X10935539Y-16143960D02*
X10926015Y-16124912D01*
X10926015Y-16124912D02*
X10926015Y-15953484D01*
X11106968Y-16143960D02*
X11087920Y-16153484D01*
X11087920Y-16153484D02*
X11049825Y-16153484D01*
X11049825Y-16153484D02*
X11030777Y-16143960D01*
X11030777Y-16143960D02*
X11021253Y-16124912D01*
X11021253Y-16124912D02*
X11021253Y-16048722D01*
X11021253Y-16048722D02*
X11030777Y-16029674D01*
X11030777Y-16029674D02*
X11049825Y-16020150D01*
X11049825Y-16020150D02*
X11087920Y-16020150D01*
X11087920Y-16020150D02*
X11106968Y-16029674D01*
X11106968Y-16029674D02*
X11116492Y-16048722D01*
X11116492Y-16048722D02*
X11116492Y-16067769D01*
X11116492Y-16067769D02*
X11021253Y-16086817D01*
X11192682Y-16143960D02*
X11211730Y-16153484D01*
X11211730Y-16153484D02*
X11249825Y-16153484D01*
X11249825Y-16153484D02*
X11268872Y-16143960D01*
X11268872Y-16143960D02*
X11278396Y-16124912D01*
X11278396Y-16124912D02*
X11278396Y-16115388D01*
X11278396Y-16115388D02*
X11268872Y-16096341D01*
X11268872Y-16096341D02*
X11249825Y-16086817D01*
X11249825Y-16086817D02*
X11221253Y-16086817D01*
X11221253Y-16086817D02*
X11202206Y-16077293D01*
X11202206Y-16077293D02*
X11192682Y-16058246D01*
X11192682Y-16058246D02*
X11192682Y-16048722D01*
X11192682Y-16048722D02*
X11202206Y-16029674D01*
X11202206Y-16029674D02*
X11221253Y-16020150D01*
X11221253Y-16020150D02*
X11249825Y-16020150D01*
X11249825Y-16020150D02*
X11268872Y-16029674D01*
X11345063Y-16229674D02*
X11354587Y-16220150D01*
X11354587Y-16220150D02*
X11373634Y-16191579D01*
X11373634Y-16191579D02*
X11383158Y-16172531D01*
X11383158Y-16172531D02*
X11392682Y-16143960D01*
X11392682Y-16143960D02*
X11402206Y-16096341D01*
X11402206Y-16096341D02*
X11402206Y-16058246D01*
X11402206Y-16058246D02*
X11392682Y-16010627D01*
X11392682Y-16010627D02*
X11383158Y-15982055D01*
X11383158Y-15982055D02*
X11373634Y-15963008D01*
X11373634Y-15963008D02*
X11354587Y-15934436D01*
X11354587Y-15934436D02*
X11345063Y-15924912D01*
D15*
X6515000Y-16381000D02*
X6570000Y-16326000D01*
X6515000Y-16271000D01*
X6460000Y-16326000D01*
X6515000Y-16381000D01*
D11*
X6935539Y-16417484D02*
X6821253Y-16417484D01*
X6878396Y-16417484D02*
X6878396Y-16217484D01*
X6878396Y-16217484D02*
X6859348Y-16246055D01*
X6859348Y-16246055D02*
X6840301Y-16265103D01*
X6840301Y-16265103D02*
X6821253Y-16274627D01*
X7021253Y-16398436D02*
X7030777Y-16407960D01*
X7030777Y-16407960D02*
X7021253Y-16417484D01*
X7021253Y-16417484D02*
X7011729Y-16407960D01*
X7011729Y-16407960D02*
X7021253Y-16398436D01*
X7021253Y-16398436D02*
X7021253Y-16417484D01*
X7221253Y-16417484D02*
X7106967Y-16417484D01*
X7164110Y-16417484D02*
X7164110Y-16217484D01*
X7164110Y-16217484D02*
X7145062Y-16246055D01*
X7145062Y-16246055D02*
X7126015Y-16265103D01*
X7126015Y-16265103D02*
X7106967Y-16274627D01*
X7345062Y-16217484D02*
X7364110Y-16217484D01*
X7364110Y-16217484D02*
X7383158Y-16227008D01*
X7383158Y-16227008D02*
X7392682Y-16236531D01*
X7392682Y-16236531D02*
X7402205Y-16255579D01*
X7402205Y-16255579D02*
X7411729Y-16293674D01*
X7411729Y-16293674D02*
X7411729Y-16341293D01*
X7411729Y-16341293D02*
X7402205Y-16379388D01*
X7402205Y-16379388D02*
X7392682Y-16398436D01*
X7392682Y-16398436D02*
X7383158Y-16407960D01*
X7383158Y-16407960D02*
X7364110Y-16417484D01*
X7364110Y-16417484D02*
X7345062Y-16417484D01*
X7345062Y-16417484D02*
X7326015Y-16407960D01*
X7326015Y-16407960D02*
X7316491Y-16398436D01*
X7316491Y-16398436D02*
X7306967Y-16379388D01*
X7306967Y-16379388D02*
X7297443Y-16341293D01*
X7297443Y-16341293D02*
X7297443Y-16293674D01*
X7297443Y-16293674D02*
X7306967Y-16255579D01*
X7306967Y-16255579D02*
X7316491Y-16236531D01*
X7316491Y-16236531D02*
X7326015Y-16227008D01*
X7326015Y-16227008D02*
X7345062Y-16217484D01*
X7535539Y-16217484D02*
X7554586Y-16217484D01*
X7554586Y-16217484D02*
X7573634Y-16227008D01*
X7573634Y-16227008D02*
X7583158Y-16236531D01*
X7583158Y-16236531D02*
X7592682Y-16255579D01*
X7592682Y-16255579D02*
X7602205Y-16293674D01*
X7602205Y-16293674D02*
X7602205Y-16341293D01*
X7602205Y-16341293D02*
X7592682Y-16379388D01*
X7592682Y-16379388D02*
X7583158Y-16398436D01*
X7583158Y-16398436D02*
X7573634Y-16407960D01*
X7573634Y-16407960D02*
X7554586Y-16417484D01*
X7554586Y-16417484D02*
X7535539Y-16417484D01*
X7535539Y-16417484D02*
X7516491Y-16407960D01*
X7516491Y-16407960D02*
X7506967Y-16398436D01*
X7506967Y-16398436D02*
X7497443Y-16379388D01*
X7497443Y-16379388D02*
X7487920Y-16341293D01*
X7487920Y-16341293D02*
X7487920Y-16293674D01*
X7487920Y-16293674D02*
X7497443Y-16255579D01*
X7497443Y-16255579D02*
X7506967Y-16236531D01*
X7506967Y-16236531D02*
X7516491Y-16227008D01*
X7516491Y-16227008D02*
X7535539Y-16217484D01*
X7687920Y-16417484D02*
X7687920Y-16284150D01*
X7687920Y-16303198D02*
X7697443Y-16293674D01*
X7697443Y-16293674D02*
X7716491Y-16284150D01*
X7716491Y-16284150D02*
X7745063Y-16284150D01*
X7745063Y-16284150D02*
X7764110Y-16293674D01*
X7764110Y-16293674D02*
X7773634Y-16312722D01*
X7773634Y-16312722D02*
X7773634Y-16417484D01*
X7773634Y-16312722D02*
X7783158Y-16293674D01*
X7783158Y-16293674D02*
X7802205Y-16284150D01*
X7802205Y-16284150D02*
X7830777Y-16284150D01*
X7830777Y-16284150D02*
X7849824Y-16293674D01*
X7849824Y-16293674D02*
X7859348Y-16312722D01*
X7859348Y-16312722D02*
X7859348Y-16417484D01*
X7954586Y-16417484D02*
X7954586Y-16284150D01*
X7954586Y-16303198D02*
X7964110Y-16293674D01*
X7964110Y-16293674D02*
X7983158Y-16284150D01*
X7983158Y-16284150D02*
X8011729Y-16284150D01*
X8011729Y-16284150D02*
X8030777Y-16293674D01*
X8030777Y-16293674D02*
X8040301Y-16312722D01*
X8040301Y-16312722D02*
X8040301Y-16417484D01*
X8040301Y-16312722D02*
X8049824Y-16293674D01*
X8049824Y-16293674D02*
X8068872Y-16284150D01*
X8068872Y-16284150D02*
X8097443Y-16284150D01*
X8097443Y-16284150D02*
X8116491Y-16293674D01*
X8116491Y-16293674D02*
X8126015Y-16312722D01*
X8126015Y-16312722D02*
X8126015Y-16417484D01*
X8516491Y-16207960D02*
X8345063Y-16465103D01*
X8773634Y-16217484D02*
X8792682Y-16217484D01*
X8792682Y-16217484D02*
X8811729Y-16227008D01*
X8811729Y-16227008D02*
X8821253Y-16236531D01*
X8821253Y-16236531D02*
X8830777Y-16255579D01*
X8830777Y-16255579D02*
X8840301Y-16293674D01*
X8840301Y-16293674D02*
X8840301Y-16341293D01*
X8840301Y-16341293D02*
X8830777Y-16379388D01*
X8830777Y-16379388D02*
X8821253Y-16398436D01*
X8821253Y-16398436D02*
X8811729Y-16407960D01*
X8811729Y-16407960D02*
X8792682Y-16417484D01*
X8792682Y-16417484D02*
X8773634Y-16417484D01*
X8773634Y-16417484D02*
X8754587Y-16407960D01*
X8754587Y-16407960D02*
X8745063Y-16398436D01*
X8745063Y-16398436D02*
X8735539Y-16379388D01*
X8735539Y-16379388D02*
X8726015Y-16341293D01*
X8726015Y-16341293D02*
X8726015Y-16293674D01*
X8726015Y-16293674D02*
X8735539Y-16255579D01*
X8735539Y-16255579D02*
X8745063Y-16236531D01*
X8745063Y-16236531D02*
X8754587Y-16227008D01*
X8754587Y-16227008D02*
X8773634Y-16217484D01*
X8926015Y-16398436D02*
X8935539Y-16407960D01*
X8935539Y-16407960D02*
X8926015Y-16417484D01*
X8926015Y-16417484D02*
X8916491Y-16407960D01*
X8916491Y-16407960D02*
X8926015Y-16398436D01*
X8926015Y-16398436D02*
X8926015Y-16417484D01*
X9059348Y-16217484D02*
X9078396Y-16217484D01*
X9078396Y-16217484D02*
X9097444Y-16227008D01*
X9097444Y-16227008D02*
X9106968Y-16236531D01*
X9106968Y-16236531D02*
X9116491Y-16255579D01*
X9116491Y-16255579D02*
X9126015Y-16293674D01*
X9126015Y-16293674D02*
X9126015Y-16341293D01*
X9126015Y-16341293D02*
X9116491Y-16379388D01*
X9116491Y-16379388D02*
X9106968Y-16398436D01*
X9106968Y-16398436D02*
X9097444Y-16407960D01*
X9097444Y-16407960D02*
X9078396Y-16417484D01*
X9078396Y-16417484D02*
X9059348Y-16417484D01*
X9059348Y-16417484D02*
X9040301Y-16407960D01*
X9040301Y-16407960D02*
X9030777Y-16398436D01*
X9030777Y-16398436D02*
X9021253Y-16379388D01*
X9021253Y-16379388D02*
X9011729Y-16341293D01*
X9011729Y-16341293D02*
X9011729Y-16293674D01*
X9011729Y-16293674D02*
X9021253Y-16255579D01*
X9021253Y-16255579D02*
X9030777Y-16236531D01*
X9030777Y-16236531D02*
X9040301Y-16227008D01*
X9040301Y-16227008D02*
X9059348Y-16217484D01*
X9297444Y-16284150D02*
X9297444Y-16417484D01*
X9249825Y-16207960D02*
X9202206Y-16350817D01*
X9202206Y-16350817D02*
X9326015Y-16350817D01*
X9383158Y-16217484D02*
X9506968Y-16217484D01*
X9506968Y-16217484D02*
X9440301Y-16293674D01*
X9440301Y-16293674D02*
X9468872Y-16293674D01*
X9468872Y-16293674D02*
X9487920Y-16303198D01*
X9487920Y-16303198D02*
X9497444Y-16312722D01*
X9497444Y-16312722D02*
X9506968Y-16331769D01*
X9506968Y-16331769D02*
X9506968Y-16379388D01*
X9506968Y-16379388D02*
X9497444Y-16398436D01*
X9497444Y-16398436D02*
X9487920Y-16407960D01*
X9487920Y-16407960D02*
X9468872Y-16417484D01*
X9468872Y-16417484D02*
X9411729Y-16417484D01*
X9411729Y-16417484D02*
X9392682Y-16407960D01*
X9392682Y-16407960D02*
X9383158Y-16398436D01*
X9573634Y-16217484D02*
X9697444Y-16217484D01*
X9697444Y-16217484D02*
X9630777Y-16293674D01*
X9630777Y-16293674D02*
X9659349Y-16293674D01*
X9659349Y-16293674D02*
X9678396Y-16303198D01*
X9678396Y-16303198D02*
X9687920Y-16312722D01*
X9687920Y-16312722D02*
X9697444Y-16331769D01*
X9697444Y-16331769D02*
X9697444Y-16379388D01*
X9697444Y-16379388D02*
X9687920Y-16398436D01*
X9687920Y-16398436D02*
X9678396Y-16407960D01*
X9678396Y-16407960D02*
X9659349Y-16417484D01*
X9659349Y-16417484D02*
X9602206Y-16417484D01*
X9602206Y-16417484D02*
X9583158Y-16407960D01*
X9583158Y-16407960D02*
X9573634Y-16398436D01*
X9773634Y-16217484D02*
X9773634Y-16255579D01*
X9849825Y-16217484D02*
X9849825Y-16255579D01*
X10145063Y-16493674D02*
X10135539Y-16484150D01*
X10135539Y-16484150D02*
X10116491Y-16455579D01*
X10116491Y-16455579D02*
X10106968Y-16436531D01*
X10106968Y-16436531D02*
X10097444Y-16407960D01*
X10097444Y-16407960D02*
X10087920Y-16360341D01*
X10087920Y-16360341D02*
X10087920Y-16322246D01*
X10087920Y-16322246D02*
X10097444Y-16274627D01*
X10097444Y-16274627D02*
X10106968Y-16246055D01*
X10106968Y-16246055D02*
X10116491Y-16227008D01*
X10116491Y-16227008D02*
X10135539Y-16198436D01*
X10135539Y-16198436D02*
X10145063Y-16188912D01*
X10326015Y-16417484D02*
X10211730Y-16417484D01*
X10268872Y-16417484D02*
X10268872Y-16217484D01*
X10268872Y-16217484D02*
X10249825Y-16246055D01*
X10249825Y-16246055D02*
X10230777Y-16265103D01*
X10230777Y-16265103D02*
X10211730Y-16274627D01*
X10402206Y-16236531D02*
X10411730Y-16227008D01*
X10411730Y-16227008D02*
X10430777Y-16217484D01*
X10430777Y-16217484D02*
X10478396Y-16217484D01*
X10478396Y-16217484D02*
X10497444Y-16227008D01*
X10497444Y-16227008D02*
X10506968Y-16236531D01*
X10506968Y-16236531D02*
X10516491Y-16255579D01*
X10516491Y-16255579D02*
X10516491Y-16274627D01*
X10516491Y-16274627D02*
X10506968Y-16303198D01*
X10506968Y-16303198D02*
X10392682Y-16417484D01*
X10392682Y-16417484D02*
X10516491Y-16417484D01*
X10754587Y-16417484D02*
X10754587Y-16217484D01*
X10840301Y-16417484D02*
X10840301Y-16312722D01*
X10840301Y-16312722D02*
X10830777Y-16293674D01*
X10830777Y-16293674D02*
X10811730Y-16284150D01*
X10811730Y-16284150D02*
X10783158Y-16284150D01*
X10783158Y-16284150D02*
X10764111Y-16293674D01*
X10764111Y-16293674D02*
X10754587Y-16303198D01*
X10964111Y-16417484D02*
X10945063Y-16407960D01*
X10945063Y-16407960D02*
X10935539Y-16398436D01*
X10935539Y-16398436D02*
X10926015Y-16379388D01*
X10926015Y-16379388D02*
X10926015Y-16322246D01*
X10926015Y-16322246D02*
X10935539Y-16303198D01*
X10935539Y-16303198D02*
X10945063Y-16293674D01*
X10945063Y-16293674D02*
X10964111Y-16284150D01*
X10964111Y-16284150D02*
X10992682Y-16284150D01*
X10992682Y-16284150D02*
X11011730Y-16293674D01*
X11011730Y-16293674D02*
X11021253Y-16303198D01*
X11021253Y-16303198D02*
X11030777Y-16322246D01*
X11030777Y-16322246D02*
X11030777Y-16379388D01*
X11030777Y-16379388D02*
X11021253Y-16398436D01*
X11021253Y-16398436D02*
X11011730Y-16407960D01*
X11011730Y-16407960D02*
X10992682Y-16417484D01*
X10992682Y-16417484D02*
X10964111Y-16417484D01*
X11145063Y-16417484D02*
X11126015Y-16407960D01*
X11126015Y-16407960D02*
X11116492Y-16388912D01*
X11116492Y-16388912D02*
X11116492Y-16217484D01*
X11297444Y-16407960D02*
X11278396Y-16417484D01*
X11278396Y-16417484D02*
X11240301Y-16417484D01*
X11240301Y-16417484D02*
X11221253Y-16407960D01*
X11221253Y-16407960D02*
X11211730Y-16388912D01*
X11211730Y-16388912D02*
X11211730Y-16312722D01*
X11211730Y-16312722D02*
X11221253Y-16293674D01*
X11221253Y-16293674D02*
X11240301Y-16284150D01*
X11240301Y-16284150D02*
X11278396Y-16284150D01*
X11278396Y-16284150D02*
X11297444Y-16293674D01*
X11297444Y-16293674D02*
X11306968Y-16312722D01*
X11306968Y-16312722D02*
X11306968Y-16331769D01*
X11306968Y-16331769D02*
X11211730Y-16350817D01*
X11383158Y-16407960D02*
X11402206Y-16417484D01*
X11402206Y-16417484D02*
X11440301Y-16417484D01*
X11440301Y-16417484D02*
X11459349Y-16407960D01*
X11459349Y-16407960D02*
X11468872Y-16388912D01*
X11468872Y-16388912D02*
X11468872Y-16379388D01*
X11468872Y-16379388D02*
X11459349Y-16360341D01*
X11459349Y-16360341D02*
X11440301Y-16350817D01*
X11440301Y-16350817D02*
X11411730Y-16350817D01*
X11411730Y-16350817D02*
X11392682Y-16341293D01*
X11392682Y-16341293D02*
X11383158Y-16322246D01*
X11383158Y-16322246D02*
X11383158Y-16312722D01*
X11383158Y-16312722D02*
X11392682Y-16293674D01*
X11392682Y-16293674D02*
X11411730Y-16284150D01*
X11411730Y-16284150D02*
X11440301Y-16284150D01*
X11440301Y-16284150D02*
X11459349Y-16293674D01*
X11535539Y-16493674D02*
X11545063Y-16484150D01*
X11545063Y-16484150D02*
X11564111Y-16455579D01*
X11564111Y-16455579D02*
X11573634Y-16436531D01*
X11573634Y-16436531D02*
X11583158Y-16407960D01*
X11583158Y-16407960D02*
X11592682Y-16360341D01*
X11592682Y-16360341D02*
X11592682Y-16322246D01*
X11592682Y-16322246D02*
X11583158Y-16274627D01*
X11583158Y-16274627D02*
X11573634Y-16246055D01*
X11573634Y-16246055D02*
X11564111Y-16227008D01*
X11564111Y-16227008D02*
X11545063Y-16198436D01*
X11545063Y-16198436D02*
X11535539Y-16188912D01*
D16*
X6450000Y-16530000D02*
X6570000Y-16650000D01*
X6570000Y-16530000D02*
X6450000Y-16650000D01*
X6570000Y-16590000D02*
G75*
G03*
X6570000Y-16590000I-60000J0D01*
G01*
D11*
X6935539Y-16681484D02*
X6821253Y-16681484D01*
X6878396Y-16681484D02*
X6878396Y-16481484D01*
X6878396Y-16481484D02*
X6859348Y-16510055D01*
X6859348Y-16510055D02*
X6840301Y-16529103D01*
X6840301Y-16529103D02*
X6821253Y-16538627D01*
X7021253Y-16662436D02*
X7030777Y-16671960D01*
X7030777Y-16671960D02*
X7021253Y-16681484D01*
X7021253Y-16681484D02*
X7011729Y-16671960D01*
X7011729Y-16671960D02*
X7021253Y-16662436D01*
X7021253Y-16662436D02*
X7021253Y-16681484D01*
X7106967Y-16500531D02*
X7116491Y-16491008D01*
X7116491Y-16491008D02*
X7135539Y-16481484D01*
X7135539Y-16481484D02*
X7183158Y-16481484D01*
X7183158Y-16481484D02*
X7202205Y-16491008D01*
X7202205Y-16491008D02*
X7211729Y-16500531D01*
X7211729Y-16500531D02*
X7221253Y-16519579D01*
X7221253Y-16519579D02*
X7221253Y-16538627D01*
X7221253Y-16538627D02*
X7211729Y-16567198D01*
X7211729Y-16567198D02*
X7097443Y-16681484D01*
X7097443Y-16681484D02*
X7221253Y-16681484D01*
X7345062Y-16481484D02*
X7364110Y-16481484D01*
X7364110Y-16481484D02*
X7383158Y-16491008D01*
X7383158Y-16491008D02*
X7392682Y-16500531D01*
X7392682Y-16500531D02*
X7402205Y-16519579D01*
X7402205Y-16519579D02*
X7411729Y-16557674D01*
X7411729Y-16557674D02*
X7411729Y-16605293D01*
X7411729Y-16605293D02*
X7402205Y-16643388D01*
X7402205Y-16643388D02*
X7392682Y-16662436D01*
X7392682Y-16662436D02*
X7383158Y-16671960D01*
X7383158Y-16671960D02*
X7364110Y-16681484D01*
X7364110Y-16681484D02*
X7345062Y-16681484D01*
X7345062Y-16681484D02*
X7326015Y-16671960D01*
X7326015Y-16671960D02*
X7316491Y-16662436D01*
X7316491Y-16662436D02*
X7306967Y-16643388D01*
X7306967Y-16643388D02*
X7297443Y-16605293D01*
X7297443Y-16605293D02*
X7297443Y-16557674D01*
X7297443Y-16557674D02*
X7306967Y-16519579D01*
X7306967Y-16519579D02*
X7316491Y-16500531D01*
X7316491Y-16500531D02*
X7326015Y-16491008D01*
X7326015Y-16491008D02*
X7345062Y-16481484D01*
X7535539Y-16481484D02*
X7554586Y-16481484D01*
X7554586Y-16481484D02*
X7573634Y-16491008D01*
X7573634Y-16491008D02*
X7583158Y-16500531D01*
X7583158Y-16500531D02*
X7592682Y-16519579D01*
X7592682Y-16519579D02*
X7602205Y-16557674D01*
X7602205Y-16557674D02*
X7602205Y-16605293D01*
X7602205Y-16605293D02*
X7592682Y-16643388D01*
X7592682Y-16643388D02*
X7583158Y-16662436D01*
X7583158Y-16662436D02*
X7573634Y-16671960D01*
X7573634Y-16671960D02*
X7554586Y-16681484D01*
X7554586Y-16681484D02*
X7535539Y-16681484D01*
X7535539Y-16681484D02*
X7516491Y-16671960D01*
X7516491Y-16671960D02*
X7506967Y-16662436D01*
X7506967Y-16662436D02*
X7497443Y-16643388D01*
X7497443Y-16643388D02*
X7487920Y-16605293D01*
X7487920Y-16605293D02*
X7487920Y-16557674D01*
X7487920Y-16557674D02*
X7497443Y-16519579D01*
X7497443Y-16519579D02*
X7506967Y-16500531D01*
X7506967Y-16500531D02*
X7516491Y-16491008D01*
X7516491Y-16491008D02*
X7535539Y-16481484D01*
X7687920Y-16681484D02*
X7687920Y-16548150D01*
X7687920Y-16567198D02*
X7697443Y-16557674D01*
X7697443Y-16557674D02*
X7716491Y-16548150D01*
X7716491Y-16548150D02*
X7745063Y-16548150D01*
X7745063Y-16548150D02*
X7764110Y-16557674D01*
X7764110Y-16557674D02*
X7773634Y-16576722D01*
X7773634Y-16576722D02*
X7773634Y-16681484D01*
X7773634Y-16576722D02*
X7783158Y-16557674D01*
X7783158Y-16557674D02*
X7802205Y-16548150D01*
X7802205Y-16548150D02*
X7830777Y-16548150D01*
X7830777Y-16548150D02*
X7849824Y-16557674D01*
X7849824Y-16557674D02*
X7859348Y-16576722D01*
X7859348Y-16576722D02*
X7859348Y-16681484D01*
X7954586Y-16681484D02*
X7954586Y-16548150D01*
X7954586Y-16567198D02*
X7964110Y-16557674D01*
X7964110Y-16557674D02*
X7983158Y-16548150D01*
X7983158Y-16548150D02*
X8011729Y-16548150D01*
X8011729Y-16548150D02*
X8030777Y-16557674D01*
X8030777Y-16557674D02*
X8040301Y-16576722D01*
X8040301Y-16576722D02*
X8040301Y-16681484D01*
X8040301Y-16576722D02*
X8049824Y-16557674D01*
X8049824Y-16557674D02*
X8068872Y-16548150D01*
X8068872Y-16548150D02*
X8097443Y-16548150D01*
X8097443Y-16548150D02*
X8116491Y-16557674D01*
X8116491Y-16557674D02*
X8126015Y-16576722D01*
X8126015Y-16576722D02*
X8126015Y-16681484D01*
X8516491Y-16471960D02*
X8345063Y-16729103D01*
X8773634Y-16481484D02*
X8792682Y-16481484D01*
X8792682Y-16481484D02*
X8811729Y-16491008D01*
X8811729Y-16491008D02*
X8821253Y-16500531D01*
X8821253Y-16500531D02*
X8830777Y-16519579D01*
X8830777Y-16519579D02*
X8840301Y-16557674D01*
X8840301Y-16557674D02*
X8840301Y-16605293D01*
X8840301Y-16605293D02*
X8830777Y-16643388D01*
X8830777Y-16643388D02*
X8821253Y-16662436D01*
X8821253Y-16662436D02*
X8811729Y-16671960D01*
X8811729Y-16671960D02*
X8792682Y-16681484D01*
X8792682Y-16681484D02*
X8773634Y-16681484D01*
X8773634Y-16681484D02*
X8754587Y-16671960D01*
X8754587Y-16671960D02*
X8745063Y-16662436D01*
X8745063Y-16662436D02*
X8735539Y-16643388D01*
X8735539Y-16643388D02*
X8726015Y-16605293D01*
X8726015Y-16605293D02*
X8726015Y-16557674D01*
X8726015Y-16557674D02*
X8735539Y-16519579D01*
X8735539Y-16519579D02*
X8745063Y-16500531D01*
X8745063Y-16500531D02*
X8754587Y-16491008D01*
X8754587Y-16491008D02*
X8773634Y-16481484D01*
X8926015Y-16662436D02*
X8935539Y-16671960D01*
X8935539Y-16671960D02*
X8926015Y-16681484D01*
X8926015Y-16681484D02*
X8916491Y-16671960D01*
X8916491Y-16671960D02*
X8926015Y-16662436D01*
X8926015Y-16662436D02*
X8926015Y-16681484D01*
X9059348Y-16481484D02*
X9078396Y-16481484D01*
X9078396Y-16481484D02*
X9097444Y-16491008D01*
X9097444Y-16491008D02*
X9106968Y-16500531D01*
X9106968Y-16500531D02*
X9116491Y-16519579D01*
X9116491Y-16519579D02*
X9126015Y-16557674D01*
X9126015Y-16557674D02*
X9126015Y-16605293D01*
X9126015Y-16605293D02*
X9116491Y-16643388D01*
X9116491Y-16643388D02*
X9106968Y-16662436D01*
X9106968Y-16662436D02*
X9097444Y-16671960D01*
X9097444Y-16671960D02*
X9078396Y-16681484D01*
X9078396Y-16681484D02*
X9059348Y-16681484D01*
X9059348Y-16681484D02*
X9040301Y-16671960D01*
X9040301Y-16671960D02*
X9030777Y-16662436D01*
X9030777Y-16662436D02*
X9021253Y-16643388D01*
X9021253Y-16643388D02*
X9011729Y-16605293D01*
X9011729Y-16605293D02*
X9011729Y-16557674D01*
X9011729Y-16557674D02*
X9021253Y-16519579D01*
X9021253Y-16519579D02*
X9030777Y-16500531D01*
X9030777Y-16500531D02*
X9040301Y-16491008D01*
X9040301Y-16491008D02*
X9059348Y-16481484D01*
X9297444Y-16548150D02*
X9297444Y-16681484D01*
X9249825Y-16471960D02*
X9202206Y-16614817D01*
X9202206Y-16614817D02*
X9326015Y-16614817D01*
X9383158Y-16481484D02*
X9516491Y-16481484D01*
X9516491Y-16481484D02*
X9430777Y-16681484D01*
X9583158Y-16500531D02*
X9592682Y-16491008D01*
X9592682Y-16491008D02*
X9611729Y-16481484D01*
X9611729Y-16481484D02*
X9659349Y-16481484D01*
X9659349Y-16481484D02*
X9678396Y-16491008D01*
X9678396Y-16491008D02*
X9687920Y-16500531D01*
X9687920Y-16500531D02*
X9697444Y-16519579D01*
X9697444Y-16519579D02*
X9697444Y-16538627D01*
X9697444Y-16538627D02*
X9687920Y-16567198D01*
X9687920Y-16567198D02*
X9573634Y-16681484D01*
X9573634Y-16681484D02*
X9697444Y-16681484D01*
X9773634Y-16481484D02*
X9773634Y-16519579D01*
X9849825Y-16481484D02*
X9849825Y-16519579D01*
X10145063Y-16757674D02*
X10135539Y-16748150D01*
X10135539Y-16748150D02*
X10116491Y-16719579D01*
X10116491Y-16719579D02*
X10106968Y-16700531D01*
X10106968Y-16700531D02*
X10097444Y-16671960D01*
X10097444Y-16671960D02*
X10087920Y-16624341D01*
X10087920Y-16624341D02*
X10087920Y-16586246D01*
X10087920Y-16586246D02*
X10097444Y-16538627D01*
X10097444Y-16538627D02*
X10106968Y-16510055D01*
X10106968Y-16510055D02*
X10116491Y-16491008D01*
X10116491Y-16491008D02*
X10135539Y-16462436D01*
X10135539Y-16462436D02*
X10145063Y-16452912D01*
X10326015Y-16681484D02*
X10211730Y-16681484D01*
X10268872Y-16681484D02*
X10268872Y-16481484D01*
X10268872Y-16481484D02*
X10249825Y-16510055D01*
X10249825Y-16510055D02*
X10230777Y-16529103D01*
X10230777Y-16529103D02*
X10211730Y-16538627D01*
X10402206Y-16500531D02*
X10411730Y-16491008D01*
X10411730Y-16491008D02*
X10430777Y-16481484D01*
X10430777Y-16481484D02*
X10478396Y-16481484D01*
X10478396Y-16481484D02*
X10497444Y-16491008D01*
X10497444Y-16491008D02*
X10506968Y-16500531D01*
X10506968Y-16500531D02*
X10516491Y-16519579D01*
X10516491Y-16519579D02*
X10516491Y-16538627D01*
X10516491Y-16538627D02*
X10506968Y-16567198D01*
X10506968Y-16567198D02*
X10392682Y-16681484D01*
X10392682Y-16681484D02*
X10516491Y-16681484D01*
X10754587Y-16681484D02*
X10754587Y-16481484D01*
X10840301Y-16681484D02*
X10840301Y-16576722D01*
X10840301Y-16576722D02*
X10830777Y-16557674D01*
X10830777Y-16557674D02*
X10811730Y-16548150D01*
X10811730Y-16548150D02*
X10783158Y-16548150D01*
X10783158Y-16548150D02*
X10764111Y-16557674D01*
X10764111Y-16557674D02*
X10754587Y-16567198D01*
X10964111Y-16681484D02*
X10945063Y-16671960D01*
X10945063Y-16671960D02*
X10935539Y-16662436D01*
X10935539Y-16662436D02*
X10926015Y-16643388D01*
X10926015Y-16643388D02*
X10926015Y-16586246D01*
X10926015Y-16586246D02*
X10935539Y-16567198D01*
X10935539Y-16567198D02*
X10945063Y-16557674D01*
X10945063Y-16557674D02*
X10964111Y-16548150D01*
X10964111Y-16548150D02*
X10992682Y-16548150D01*
X10992682Y-16548150D02*
X11011730Y-16557674D01*
X11011730Y-16557674D02*
X11021253Y-16567198D01*
X11021253Y-16567198D02*
X11030777Y-16586246D01*
X11030777Y-16586246D02*
X11030777Y-16643388D01*
X11030777Y-16643388D02*
X11021253Y-16662436D01*
X11021253Y-16662436D02*
X11011730Y-16671960D01*
X11011730Y-16671960D02*
X10992682Y-16681484D01*
X10992682Y-16681484D02*
X10964111Y-16681484D01*
X11145063Y-16681484D02*
X11126015Y-16671960D01*
X11126015Y-16671960D02*
X11116492Y-16652912D01*
X11116492Y-16652912D02*
X11116492Y-16481484D01*
X11297444Y-16671960D02*
X11278396Y-16681484D01*
X11278396Y-16681484D02*
X11240301Y-16681484D01*
X11240301Y-16681484D02*
X11221253Y-16671960D01*
X11221253Y-16671960D02*
X11211730Y-16652912D01*
X11211730Y-16652912D02*
X11211730Y-16576722D01*
X11211730Y-16576722D02*
X11221253Y-16557674D01*
X11221253Y-16557674D02*
X11240301Y-16548150D01*
X11240301Y-16548150D02*
X11278396Y-16548150D01*
X11278396Y-16548150D02*
X11297444Y-16557674D01*
X11297444Y-16557674D02*
X11306968Y-16576722D01*
X11306968Y-16576722D02*
X11306968Y-16595769D01*
X11306968Y-16595769D02*
X11211730Y-16614817D01*
X11383158Y-16671960D02*
X11402206Y-16681484D01*
X11402206Y-16681484D02*
X11440301Y-16681484D01*
X11440301Y-16681484D02*
X11459349Y-16671960D01*
X11459349Y-16671960D02*
X11468872Y-16652912D01*
X11468872Y-16652912D02*
X11468872Y-16643388D01*
X11468872Y-16643388D02*
X11459349Y-16624341D01*
X11459349Y-16624341D02*
X11440301Y-16614817D01*
X11440301Y-16614817D02*
X11411730Y-16614817D01*
X11411730Y-16614817D02*
X11392682Y-16605293D01*
X11392682Y-16605293D02*
X11383158Y-16586246D01*
X11383158Y-16586246D02*
X11383158Y-16576722D01*
X11383158Y-16576722D02*
X11392682Y-16557674D01*
X11392682Y-16557674D02*
X11411730Y-16548150D01*
X11411730Y-16548150D02*
X11440301Y-16548150D01*
X11440301Y-16548150D02*
X11459349Y-16557674D01*
X11535539Y-16757674D02*
X11545063Y-16748150D01*
X11545063Y-16748150D02*
X11564111Y-16719579D01*
X11564111Y-16719579D02*
X11573634Y-16700531D01*
X11573634Y-16700531D02*
X11583158Y-16671960D01*
X11583158Y-16671960D02*
X11592682Y-16624341D01*
X11592682Y-16624341D02*
X11592682Y-16586246D01*
X11592682Y-16586246D02*
X11583158Y-16538627D01*
X11583158Y-16538627D02*
X11573634Y-16510055D01*
X11573634Y-16510055D02*
X11564111Y-16491008D01*
X11564111Y-16491008D02*
X11545063Y-16462436D01*
X11545063Y-16462436D02*
X11535539Y-16452912D01*
D17*
X6440000Y-16789000D02*
X6570000Y-16919000D01*
X6570000Y-16789000D02*
X6440000Y-16919000D01*
X6505000Y-16789000D02*
X6505000Y-16919000D01*
X6440000Y-16854000D02*
X6570000Y-16854000D01*
D11*
X6935539Y-16945484D02*
X6821253Y-16945484D01*
X6878396Y-16945484D02*
X6878396Y-16745484D01*
X6878396Y-16745484D02*
X6859348Y-16774055D01*
X6859348Y-16774055D02*
X6840301Y-16793103D01*
X6840301Y-16793103D02*
X6821253Y-16802627D01*
X7021253Y-16926436D02*
X7030777Y-16935960D01*
X7030777Y-16935960D02*
X7021253Y-16945484D01*
X7021253Y-16945484D02*
X7011729Y-16935960D01*
X7011729Y-16935960D02*
X7021253Y-16926436D01*
X7021253Y-16926436D02*
X7021253Y-16945484D01*
X7097443Y-16745484D02*
X7221253Y-16745484D01*
X7221253Y-16745484D02*
X7154586Y-16821674D01*
X7154586Y-16821674D02*
X7183158Y-16821674D01*
X7183158Y-16821674D02*
X7202205Y-16831198D01*
X7202205Y-16831198D02*
X7211729Y-16840722D01*
X7211729Y-16840722D02*
X7221253Y-16859770D01*
X7221253Y-16859770D02*
X7221253Y-16907389D01*
X7221253Y-16907389D02*
X7211729Y-16926436D01*
X7211729Y-16926436D02*
X7202205Y-16935960D01*
X7202205Y-16935960D02*
X7183158Y-16945484D01*
X7183158Y-16945484D02*
X7126015Y-16945484D01*
X7126015Y-16945484D02*
X7106967Y-16935960D01*
X7106967Y-16935960D02*
X7097443Y-16926436D01*
X7345062Y-16745484D02*
X7364110Y-16745484D01*
X7364110Y-16745484D02*
X7383158Y-16755008D01*
X7383158Y-16755008D02*
X7392682Y-16764531D01*
X7392682Y-16764531D02*
X7402205Y-16783579D01*
X7402205Y-16783579D02*
X7411729Y-16821674D01*
X7411729Y-16821674D02*
X7411729Y-16869293D01*
X7411729Y-16869293D02*
X7402205Y-16907389D01*
X7402205Y-16907389D02*
X7392682Y-16926436D01*
X7392682Y-16926436D02*
X7383158Y-16935960D01*
X7383158Y-16935960D02*
X7364110Y-16945484D01*
X7364110Y-16945484D02*
X7345062Y-16945484D01*
X7345062Y-16945484D02*
X7326015Y-16935960D01*
X7326015Y-16935960D02*
X7316491Y-16926436D01*
X7316491Y-16926436D02*
X7306967Y-16907389D01*
X7306967Y-16907389D02*
X7297443Y-16869293D01*
X7297443Y-16869293D02*
X7297443Y-16821674D01*
X7297443Y-16821674D02*
X7306967Y-16783579D01*
X7306967Y-16783579D02*
X7316491Y-16764531D01*
X7316491Y-16764531D02*
X7326015Y-16755008D01*
X7326015Y-16755008D02*
X7345062Y-16745484D01*
X7535539Y-16745484D02*
X7554586Y-16745484D01*
X7554586Y-16745484D02*
X7573634Y-16755008D01*
X7573634Y-16755008D02*
X7583158Y-16764531D01*
X7583158Y-16764531D02*
X7592682Y-16783579D01*
X7592682Y-16783579D02*
X7602205Y-16821674D01*
X7602205Y-16821674D02*
X7602205Y-16869293D01*
X7602205Y-16869293D02*
X7592682Y-16907389D01*
X7592682Y-16907389D02*
X7583158Y-16926436D01*
X7583158Y-16926436D02*
X7573634Y-16935960D01*
X7573634Y-16935960D02*
X7554586Y-16945484D01*
X7554586Y-16945484D02*
X7535539Y-16945484D01*
X7535539Y-16945484D02*
X7516491Y-16935960D01*
X7516491Y-16935960D02*
X7506967Y-16926436D01*
X7506967Y-16926436D02*
X7497443Y-16907389D01*
X7497443Y-16907389D02*
X7487920Y-16869293D01*
X7487920Y-16869293D02*
X7487920Y-16821674D01*
X7487920Y-16821674D02*
X7497443Y-16783579D01*
X7497443Y-16783579D02*
X7506967Y-16764531D01*
X7506967Y-16764531D02*
X7516491Y-16755008D01*
X7516491Y-16755008D02*
X7535539Y-16745484D01*
X7687920Y-16945484D02*
X7687920Y-16812150D01*
X7687920Y-16831198D02*
X7697443Y-16821674D01*
X7697443Y-16821674D02*
X7716491Y-16812150D01*
X7716491Y-16812150D02*
X7745063Y-16812150D01*
X7745063Y-16812150D02*
X7764110Y-16821674D01*
X7764110Y-16821674D02*
X7773634Y-16840722D01*
X7773634Y-16840722D02*
X7773634Y-16945484D01*
X7773634Y-16840722D02*
X7783158Y-16821674D01*
X7783158Y-16821674D02*
X7802205Y-16812150D01*
X7802205Y-16812150D02*
X7830777Y-16812150D01*
X7830777Y-16812150D02*
X7849824Y-16821674D01*
X7849824Y-16821674D02*
X7859348Y-16840722D01*
X7859348Y-16840722D02*
X7859348Y-16945484D01*
X7954586Y-16945484D02*
X7954586Y-16812150D01*
X7954586Y-16831198D02*
X7964110Y-16821674D01*
X7964110Y-16821674D02*
X7983158Y-16812150D01*
X7983158Y-16812150D02*
X8011729Y-16812150D01*
X8011729Y-16812150D02*
X8030777Y-16821674D01*
X8030777Y-16821674D02*
X8040301Y-16840722D01*
X8040301Y-16840722D02*
X8040301Y-16945484D01*
X8040301Y-16840722D02*
X8049824Y-16821674D01*
X8049824Y-16821674D02*
X8068872Y-16812150D01*
X8068872Y-16812150D02*
X8097443Y-16812150D01*
X8097443Y-16812150D02*
X8116491Y-16821674D01*
X8116491Y-16821674D02*
X8126015Y-16840722D01*
X8126015Y-16840722D02*
X8126015Y-16945484D01*
X8516491Y-16735960D02*
X8345063Y-16993103D01*
X8773634Y-16745484D02*
X8792682Y-16745484D01*
X8792682Y-16745484D02*
X8811729Y-16755008D01*
X8811729Y-16755008D02*
X8821253Y-16764531D01*
X8821253Y-16764531D02*
X8830777Y-16783579D01*
X8830777Y-16783579D02*
X8840301Y-16821674D01*
X8840301Y-16821674D02*
X8840301Y-16869293D01*
X8840301Y-16869293D02*
X8830777Y-16907389D01*
X8830777Y-16907389D02*
X8821253Y-16926436D01*
X8821253Y-16926436D02*
X8811729Y-16935960D01*
X8811729Y-16935960D02*
X8792682Y-16945484D01*
X8792682Y-16945484D02*
X8773634Y-16945484D01*
X8773634Y-16945484D02*
X8754587Y-16935960D01*
X8754587Y-16935960D02*
X8745063Y-16926436D01*
X8745063Y-16926436D02*
X8735539Y-16907389D01*
X8735539Y-16907389D02*
X8726015Y-16869293D01*
X8726015Y-16869293D02*
X8726015Y-16821674D01*
X8726015Y-16821674D02*
X8735539Y-16783579D01*
X8735539Y-16783579D02*
X8745063Y-16764531D01*
X8745063Y-16764531D02*
X8754587Y-16755008D01*
X8754587Y-16755008D02*
X8773634Y-16745484D01*
X8926015Y-16926436D02*
X8935539Y-16935960D01*
X8935539Y-16935960D02*
X8926015Y-16945484D01*
X8926015Y-16945484D02*
X8916491Y-16935960D01*
X8916491Y-16935960D02*
X8926015Y-16926436D01*
X8926015Y-16926436D02*
X8926015Y-16945484D01*
X9059348Y-16745484D02*
X9078396Y-16745484D01*
X9078396Y-16745484D02*
X9097444Y-16755008D01*
X9097444Y-16755008D02*
X9106968Y-16764531D01*
X9106968Y-16764531D02*
X9116491Y-16783579D01*
X9116491Y-16783579D02*
X9126015Y-16821674D01*
X9126015Y-16821674D02*
X9126015Y-16869293D01*
X9126015Y-16869293D02*
X9116491Y-16907389D01*
X9116491Y-16907389D02*
X9106968Y-16926436D01*
X9106968Y-16926436D02*
X9097444Y-16935960D01*
X9097444Y-16935960D02*
X9078396Y-16945484D01*
X9078396Y-16945484D02*
X9059348Y-16945484D01*
X9059348Y-16945484D02*
X9040301Y-16935960D01*
X9040301Y-16935960D02*
X9030777Y-16926436D01*
X9030777Y-16926436D02*
X9021253Y-16907389D01*
X9021253Y-16907389D02*
X9011729Y-16869293D01*
X9011729Y-16869293D02*
X9011729Y-16821674D01*
X9011729Y-16821674D02*
X9021253Y-16783579D01*
X9021253Y-16783579D02*
X9030777Y-16764531D01*
X9030777Y-16764531D02*
X9040301Y-16755008D01*
X9040301Y-16755008D02*
X9059348Y-16745484D01*
X9306968Y-16745484D02*
X9211729Y-16745484D01*
X9211729Y-16745484D02*
X9202206Y-16840722D01*
X9202206Y-16840722D02*
X9211729Y-16831198D01*
X9211729Y-16831198D02*
X9230777Y-16821674D01*
X9230777Y-16821674D02*
X9278396Y-16821674D01*
X9278396Y-16821674D02*
X9297444Y-16831198D01*
X9297444Y-16831198D02*
X9306968Y-16840722D01*
X9306968Y-16840722D02*
X9316491Y-16859770D01*
X9316491Y-16859770D02*
X9316491Y-16907389D01*
X9316491Y-16907389D02*
X9306968Y-16926436D01*
X9306968Y-16926436D02*
X9297444Y-16935960D01*
X9297444Y-16935960D02*
X9278396Y-16945484D01*
X9278396Y-16945484D02*
X9230777Y-16945484D01*
X9230777Y-16945484D02*
X9211729Y-16935960D01*
X9211729Y-16935960D02*
X9202206Y-16926436D01*
X9506968Y-16945484D02*
X9392682Y-16945484D01*
X9449825Y-16945484D02*
X9449825Y-16745484D01*
X9449825Y-16745484D02*
X9430777Y-16774055D01*
X9430777Y-16774055D02*
X9411729Y-16793103D01*
X9411729Y-16793103D02*
X9392682Y-16802627D01*
X9583158Y-16764531D02*
X9592682Y-16755008D01*
X9592682Y-16755008D02*
X9611729Y-16745484D01*
X9611729Y-16745484D02*
X9659349Y-16745484D01*
X9659349Y-16745484D02*
X9678396Y-16755008D01*
X9678396Y-16755008D02*
X9687920Y-16764531D01*
X9687920Y-16764531D02*
X9697444Y-16783579D01*
X9697444Y-16783579D02*
X9697444Y-16802627D01*
X9697444Y-16802627D02*
X9687920Y-16831198D01*
X9687920Y-16831198D02*
X9573634Y-16945484D01*
X9573634Y-16945484D02*
X9697444Y-16945484D01*
X9773634Y-16745484D02*
X9773634Y-16783579D01*
X9849825Y-16745484D02*
X9849825Y-16783579D01*
X10145063Y-17021674D02*
X10135539Y-17012150D01*
X10135539Y-17012150D02*
X10116491Y-16983579D01*
X10116491Y-16983579D02*
X10106968Y-16964531D01*
X10106968Y-16964531D02*
X10097444Y-16935960D01*
X10097444Y-16935960D02*
X10087920Y-16888341D01*
X10087920Y-16888341D02*
X10087920Y-16850246D01*
X10087920Y-16850246D02*
X10097444Y-16802627D01*
X10097444Y-16802627D02*
X10106968Y-16774055D01*
X10106968Y-16774055D02*
X10116491Y-16755008D01*
X10116491Y-16755008D02*
X10135539Y-16726436D01*
X10135539Y-16726436D02*
X10145063Y-16716912D01*
X10202206Y-16745484D02*
X10326015Y-16745484D01*
X10326015Y-16745484D02*
X10259349Y-16821674D01*
X10259349Y-16821674D02*
X10287920Y-16821674D01*
X10287920Y-16821674D02*
X10306968Y-16831198D01*
X10306968Y-16831198D02*
X10316491Y-16840722D01*
X10316491Y-16840722D02*
X10326015Y-16859770D01*
X10326015Y-16859770D02*
X10326015Y-16907389D01*
X10326015Y-16907389D02*
X10316491Y-16926436D01*
X10316491Y-16926436D02*
X10306968Y-16935960D01*
X10306968Y-16935960D02*
X10287920Y-16945484D01*
X10287920Y-16945484D02*
X10230777Y-16945484D01*
X10230777Y-16945484D02*
X10211730Y-16935960D01*
X10211730Y-16935960D02*
X10202206Y-16926436D01*
X10564111Y-16945484D02*
X10564111Y-16745484D01*
X10649825Y-16945484D02*
X10649825Y-16840722D01*
X10649825Y-16840722D02*
X10640301Y-16821674D01*
X10640301Y-16821674D02*
X10621253Y-16812150D01*
X10621253Y-16812150D02*
X10592682Y-16812150D01*
X10592682Y-16812150D02*
X10573634Y-16821674D01*
X10573634Y-16821674D02*
X10564111Y-16831198D01*
X10773634Y-16945484D02*
X10754587Y-16935960D01*
X10754587Y-16935960D02*
X10745063Y-16926436D01*
X10745063Y-16926436D02*
X10735539Y-16907389D01*
X10735539Y-16907389D02*
X10735539Y-16850246D01*
X10735539Y-16850246D02*
X10745063Y-16831198D01*
X10745063Y-16831198D02*
X10754587Y-16821674D01*
X10754587Y-16821674D02*
X10773634Y-16812150D01*
X10773634Y-16812150D02*
X10802206Y-16812150D01*
X10802206Y-16812150D02*
X10821253Y-16821674D01*
X10821253Y-16821674D02*
X10830777Y-16831198D01*
X10830777Y-16831198D02*
X10840301Y-16850246D01*
X10840301Y-16850246D02*
X10840301Y-16907389D01*
X10840301Y-16907389D02*
X10830777Y-16926436D01*
X10830777Y-16926436D02*
X10821253Y-16935960D01*
X10821253Y-16935960D02*
X10802206Y-16945484D01*
X10802206Y-16945484D02*
X10773634Y-16945484D01*
X10954587Y-16945484D02*
X10935539Y-16935960D01*
X10935539Y-16935960D02*
X10926015Y-16916912D01*
X10926015Y-16916912D02*
X10926015Y-16745484D01*
X11106968Y-16935960D02*
X11087920Y-16945484D01*
X11087920Y-16945484D02*
X11049825Y-16945484D01*
X11049825Y-16945484D02*
X11030777Y-16935960D01*
X11030777Y-16935960D02*
X11021253Y-16916912D01*
X11021253Y-16916912D02*
X11021253Y-16840722D01*
X11021253Y-16840722D02*
X11030777Y-16821674D01*
X11030777Y-16821674D02*
X11049825Y-16812150D01*
X11049825Y-16812150D02*
X11087920Y-16812150D01*
X11087920Y-16812150D02*
X11106968Y-16821674D01*
X11106968Y-16821674D02*
X11116492Y-16840722D01*
X11116492Y-16840722D02*
X11116492Y-16859770D01*
X11116492Y-16859770D02*
X11021253Y-16878817D01*
X11192682Y-16935960D02*
X11211730Y-16945484D01*
X11211730Y-16945484D02*
X11249825Y-16945484D01*
X11249825Y-16945484D02*
X11268872Y-16935960D01*
X11268872Y-16935960D02*
X11278396Y-16916912D01*
X11278396Y-16916912D02*
X11278396Y-16907389D01*
X11278396Y-16907389D02*
X11268872Y-16888341D01*
X11268872Y-16888341D02*
X11249825Y-16878817D01*
X11249825Y-16878817D02*
X11221253Y-16878817D01*
X11221253Y-16878817D02*
X11202206Y-16869293D01*
X11202206Y-16869293D02*
X11192682Y-16850246D01*
X11192682Y-16850246D02*
X11192682Y-16840722D01*
X11192682Y-16840722D02*
X11202206Y-16821674D01*
X11202206Y-16821674D02*
X11221253Y-16812150D01*
X11221253Y-16812150D02*
X11249825Y-16812150D01*
X11249825Y-16812150D02*
X11268872Y-16821674D01*
X11345063Y-17021674D02*
X11354587Y-17012150D01*
X11354587Y-17012150D02*
X11373634Y-16983579D01*
X11373634Y-16983579D02*
X11383158Y-16964531D01*
X11383158Y-16964531D02*
X11392682Y-16935960D01*
X11392682Y-16935960D02*
X11402206Y-16888341D01*
X11402206Y-16888341D02*
X11402206Y-16850246D01*
X11402206Y-16850246D02*
X11392682Y-16802627D01*
X11392682Y-16802627D02*
X11383158Y-16774055D01*
X11383158Y-16774055D02*
X11373634Y-16755008D01*
X11373634Y-16755008D02*
X11354587Y-16726436D01*
X11354587Y-16726436D02*
X11345063Y-16716912D01*
D18*
X6430000Y-17048000D02*
X6570000Y-17188000D01*
X6570000Y-17048000D02*
X6430000Y-17188000D01*
X6549498Y-17167498D02*
X6549498Y-17068502D01*
X6450502Y-17068502D01*
X6450502Y-17167498D01*
X6549498Y-17167498D01*
D11*
X6935539Y-17209484D02*
X6821253Y-17209484D01*
X6878396Y-17209484D02*
X6878396Y-17009484D01*
X6878396Y-17009484D02*
X6859348Y-17038055D01*
X6859348Y-17038055D02*
X6840301Y-17057103D01*
X6840301Y-17057103D02*
X6821253Y-17066627D01*
X7021253Y-17190436D02*
X7030777Y-17199960D01*
X7030777Y-17199960D02*
X7021253Y-17209484D01*
X7021253Y-17209484D02*
X7011729Y-17199960D01*
X7011729Y-17199960D02*
X7021253Y-17190436D01*
X7021253Y-17190436D02*
X7021253Y-17209484D01*
X7202205Y-17076150D02*
X7202205Y-17209484D01*
X7154586Y-16999960D02*
X7106967Y-17142817D01*
X7106967Y-17142817D02*
X7230777Y-17142817D01*
X7345062Y-17009484D02*
X7364110Y-17009484D01*
X7364110Y-17009484D02*
X7383158Y-17019008D01*
X7383158Y-17019008D02*
X7392682Y-17028531D01*
X7392682Y-17028531D02*
X7402205Y-17047579D01*
X7402205Y-17047579D02*
X7411729Y-17085674D01*
X7411729Y-17085674D02*
X7411729Y-17133293D01*
X7411729Y-17133293D02*
X7402205Y-17171389D01*
X7402205Y-17171389D02*
X7392682Y-17190436D01*
X7392682Y-17190436D02*
X7383158Y-17199960D01*
X7383158Y-17199960D02*
X7364110Y-17209484D01*
X7364110Y-17209484D02*
X7345062Y-17209484D01*
X7345062Y-17209484D02*
X7326015Y-17199960D01*
X7326015Y-17199960D02*
X7316491Y-17190436D01*
X7316491Y-17190436D02*
X7306967Y-17171389D01*
X7306967Y-17171389D02*
X7297443Y-17133293D01*
X7297443Y-17133293D02*
X7297443Y-17085674D01*
X7297443Y-17085674D02*
X7306967Y-17047579D01*
X7306967Y-17047579D02*
X7316491Y-17028531D01*
X7316491Y-17028531D02*
X7326015Y-17019008D01*
X7326015Y-17019008D02*
X7345062Y-17009484D01*
X7535539Y-17009484D02*
X7554586Y-17009484D01*
X7554586Y-17009484D02*
X7573634Y-17019008D01*
X7573634Y-17019008D02*
X7583158Y-17028531D01*
X7583158Y-17028531D02*
X7592682Y-17047579D01*
X7592682Y-17047579D02*
X7602205Y-17085674D01*
X7602205Y-17085674D02*
X7602205Y-17133293D01*
X7602205Y-17133293D02*
X7592682Y-17171389D01*
X7592682Y-17171389D02*
X7583158Y-17190436D01*
X7583158Y-17190436D02*
X7573634Y-17199960D01*
X7573634Y-17199960D02*
X7554586Y-17209484D01*
X7554586Y-17209484D02*
X7535539Y-17209484D01*
X7535539Y-17209484D02*
X7516491Y-17199960D01*
X7516491Y-17199960D02*
X7506967Y-17190436D01*
X7506967Y-17190436D02*
X7497443Y-17171389D01*
X7497443Y-17171389D02*
X7487920Y-17133293D01*
X7487920Y-17133293D02*
X7487920Y-17085674D01*
X7487920Y-17085674D02*
X7497443Y-17047579D01*
X7497443Y-17047579D02*
X7506967Y-17028531D01*
X7506967Y-17028531D02*
X7516491Y-17019008D01*
X7516491Y-17019008D02*
X7535539Y-17009484D01*
X7687920Y-17209484D02*
X7687920Y-17076150D01*
X7687920Y-17095198D02*
X7697443Y-17085674D01*
X7697443Y-17085674D02*
X7716491Y-17076150D01*
X7716491Y-17076150D02*
X7745063Y-17076150D01*
X7745063Y-17076150D02*
X7764110Y-17085674D01*
X7764110Y-17085674D02*
X7773634Y-17104722D01*
X7773634Y-17104722D02*
X7773634Y-17209484D01*
X7773634Y-17104722D02*
X7783158Y-17085674D01*
X7783158Y-17085674D02*
X7802205Y-17076150D01*
X7802205Y-17076150D02*
X7830777Y-17076150D01*
X7830777Y-17076150D02*
X7849824Y-17085674D01*
X7849824Y-17085674D02*
X7859348Y-17104722D01*
X7859348Y-17104722D02*
X7859348Y-17209484D01*
X7954586Y-17209484D02*
X7954586Y-17076150D01*
X7954586Y-17095198D02*
X7964110Y-17085674D01*
X7964110Y-17085674D02*
X7983158Y-17076150D01*
X7983158Y-17076150D02*
X8011729Y-17076150D01*
X8011729Y-17076150D02*
X8030777Y-17085674D01*
X8030777Y-17085674D02*
X8040301Y-17104722D01*
X8040301Y-17104722D02*
X8040301Y-17209484D01*
X8040301Y-17104722D02*
X8049824Y-17085674D01*
X8049824Y-17085674D02*
X8068872Y-17076150D01*
X8068872Y-17076150D02*
X8097443Y-17076150D01*
X8097443Y-17076150D02*
X8116491Y-17085674D01*
X8116491Y-17085674D02*
X8126015Y-17104722D01*
X8126015Y-17104722D02*
X8126015Y-17209484D01*
X8516491Y-16999960D02*
X8345063Y-17257103D01*
X8773634Y-17009484D02*
X8792682Y-17009484D01*
X8792682Y-17009484D02*
X8811729Y-17019008D01*
X8811729Y-17019008D02*
X8821253Y-17028531D01*
X8821253Y-17028531D02*
X8830777Y-17047579D01*
X8830777Y-17047579D02*
X8840301Y-17085674D01*
X8840301Y-17085674D02*
X8840301Y-17133293D01*
X8840301Y-17133293D02*
X8830777Y-17171389D01*
X8830777Y-17171389D02*
X8821253Y-17190436D01*
X8821253Y-17190436D02*
X8811729Y-17199960D01*
X8811729Y-17199960D02*
X8792682Y-17209484D01*
X8792682Y-17209484D02*
X8773634Y-17209484D01*
X8773634Y-17209484D02*
X8754587Y-17199960D01*
X8754587Y-17199960D02*
X8745063Y-17190436D01*
X8745063Y-17190436D02*
X8735539Y-17171389D01*
X8735539Y-17171389D02*
X8726015Y-17133293D01*
X8726015Y-17133293D02*
X8726015Y-17085674D01*
X8726015Y-17085674D02*
X8735539Y-17047579D01*
X8735539Y-17047579D02*
X8745063Y-17028531D01*
X8745063Y-17028531D02*
X8754587Y-17019008D01*
X8754587Y-17019008D02*
X8773634Y-17009484D01*
X8926015Y-17190436D02*
X8935539Y-17199960D01*
X8935539Y-17199960D02*
X8926015Y-17209484D01*
X8926015Y-17209484D02*
X8916491Y-17199960D01*
X8916491Y-17199960D02*
X8926015Y-17190436D01*
X8926015Y-17190436D02*
X8926015Y-17209484D01*
X9059348Y-17009484D02*
X9078396Y-17009484D01*
X9078396Y-17009484D02*
X9097444Y-17019008D01*
X9097444Y-17019008D02*
X9106968Y-17028531D01*
X9106968Y-17028531D02*
X9116491Y-17047579D01*
X9116491Y-17047579D02*
X9126015Y-17085674D01*
X9126015Y-17085674D02*
X9126015Y-17133293D01*
X9126015Y-17133293D02*
X9116491Y-17171389D01*
X9116491Y-17171389D02*
X9106968Y-17190436D01*
X9106968Y-17190436D02*
X9097444Y-17199960D01*
X9097444Y-17199960D02*
X9078396Y-17209484D01*
X9078396Y-17209484D02*
X9059348Y-17209484D01*
X9059348Y-17209484D02*
X9040301Y-17199960D01*
X9040301Y-17199960D02*
X9030777Y-17190436D01*
X9030777Y-17190436D02*
X9021253Y-17171389D01*
X9021253Y-17171389D02*
X9011729Y-17133293D01*
X9011729Y-17133293D02*
X9011729Y-17085674D01*
X9011729Y-17085674D02*
X9021253Y-17047579D01*
X9021253Y-17047579D02*
X9030777Y-17028531D01*
X9030777Y-17028531D02*
X9040301Y-17019008D01*
X9040301Y-17019008D02*
X9059348Y-17009484D01*
X9306968Y-17009484D02*
X9211729Y-17009484D01*
X9211729Y-17009484D02*
X9202206Y-17104722D01*
X9202206Y-17104722D02*
X9211729Y-17095198D01*
X9211729Y-17095198D02*
X9230777Y-17085674D01*
X9230777Y-17085674D02*
X9278396Y-17085674D01*
X9278396Y-17085674D02*
X9297444Y-17095198D01*
X9297444Y-17095198D02*
X9306968Y-17104722D01*
X9306968Y-17104722D02*
X9316491Y-17123770D01*
X9316491Y-17123770D02*
X9316491Y-17171389D01*
X9316491Y-17171389D02*
X9306968Y-17190436D01*
X9306968Y-17190436D02*
X9297444Y-17199960D01*
X9297444Y-17199960D02*
X9278396Y-17209484D01*
X9278396Y-17209484D02*
X9230777Y-17209484D01*
X9230777Y-17209484D02*
X9211729Y-17199960D01*
X9211729Y-17199960D02*
X9202206Y-17190436D01*
X9497444Y-17009484D02*
X9402206Y-17009484D01*
X9402206Y-17009484D02*
X9392682Y-17104722D01*
X9392682Y-17104722D02*
X9402206Y-17095198D01*
X9402206Y-17095198D02*
X9421253Y-17085674D01*
X9421253Y-17085674D02*
X9468872Y-17085674D01*
X9468872Y-17085674D02*
X9487920Y-17095198D01*
X9487920Y-17095198D02*
X9497444Y-17104722D01*
X9497444Y-17104722D02*
X9506968Y-17123770D01*
X9506968Y-17123770D02*
X9506968Y-17171389D01*
X9506968Y-17171389D02*
X9497444Y-17190436D01*
X9497444Y-17190436D02*
X9487920Y-17199960D01*
X9487920Y-17199960D02*
X9468872Y-17209484D01*
X9468872Y-17209484D02*
X9421253Y-17209484D01*
X9421253Y-17209484D02*
X9402206Y-17199960D01*
X9402206Y-17199960D02*
X9392682Y-17190436D01*
X9697444Y-17209484D02*
X9583158Y-17209484D01*
X9640301Y-17209484D02*
X9640301Y-17009484D01*
X9640301Y-17009484D02*
X9621253Y-17038055D01*
X9621253Y-17038055D02*
X9602206Y-17057103D01*
X9602206Y-17057103D02*
X9583158Y-17066627D01*
X9773634Y-17009484D02*
X9773634Y-17047579D01*
X9849825Y-17009484D02*
X9849825Y-17047579D01*
X10145063Y-17285674D02*
X10135539Y-17276150D01*
X10135539Y-17276150D02*
X10116491Y-17247579D01*
X10116491Y-17247579D02*
X10106968Y-17228531D01*
X10106968Y-17228531D02*
X10097444Y-17199960D01*
X10097444Y-17199960D02*
X10087920Y-17152341D01*
X10087920Y-17152341D02*
X10087920Y-17114246D01*
X10087920Y-17114246D02*
X10097444Y-17066627D01*
X10097444Y-17066627D02*
X10106968Y-17038055D01*
X10106968Y-17038055D02*
X10116491Y-17019008D01*
X10116491Y-17019008D02*
X10135539Y-16990436D01*
X10135539Y-16990436D02*
X10145063Y-16980912D01*
X10306968Y-17009484D02*
X10268872Y-17009484D01*
X10268872Y-17009484D02*
X10249825Y-17019008D01*
X10249825Y-17019008D02*
X10240301Y-17028531D01*
X10240301Y-17028531D02*
X10221253Y-17057103D01*
X10221253Y-17057103D02*
X10211730Y-17095198D01*
X10211730Y-17095198D02*
X10211730Y-17171389D01*
X10211730Y-17171389D02*
X10221253Y-17190436D01*
X10221253Y-17190436D02*
X10230777Y-17199960D01*
X10230777Y-17199960D02*
X10249825Y-17209484D01*
X10249825Y-17209484D02*
X10287920Y-17209484D01*
X10287920Y-17209484D02*
X10306968Y-17199960D01*
X10306968Y-17199960D02*
X10316491Y-17190436D01*
X10316491Y-17190436D02*
X10326015Y-17171389D01*
X10326015Y-17171389D02*
X10326015Y-17123770D01*
X10326015Y-17123770D02*
X10316491Y-17104722D01*
X10316491Y-17104722D02*
X10306968Y-17095198D01*
X10306968Y-17095198D02*
X10287920Y-17085674D01*
X10287920Y-17085674D02*
X10249825Y-17085674D01*
X10249825Y-17085674D02*
X10230777Y-17095198D01*
X10230777Y-17095198D02*
X10221253Y-17104722D01*
X10221253Y-17104722D02*
X10211730Y-17123770D01*
X10564111Y-17209484D02*
X10564111Y-17009484D01*
X10649825Y-17209484D02*
X10649825Y-17104722D01*
X10649825Y-17104722D02*
X10640301Y-17085674D01*
X10640301Y-17085674D02*
X10621253Y-17076150D01*
X10621253Y-17076150D02*
X10592682Y-17076150D01*
X10592682Y-17076150D02*
X10573634Y-17085674D01*
X10573634Y-17085674D02*
X10564111Y-17095198D01*
X10773634Y-17209484D02*
X10754587Y-17199960D01*
X10754587Y-17199960D02*
X10745063Y-17190436D01*
X10745063Y-17190436D02*
X10735539Y-17171389D01*
X10735539Y-17171389D02*
X10735539Y-17114246D01*
X10735539Y-17114246D02*
X10745063Y-17095198D01*
X10745063Y-17095198D02*
X10754587Y-17085674D01*
X10754587Y-17085674D02*
X10773634Y-17076150D01*
X10773634Y-17076150D02*
X10802206Y-17076150D01*
X10802206Y-17076150D02*
X10821253Y-17085674D01*
X10821253Y-17085674D02*
X10830777Y-17095198D01*
X10830777Y-17095198D02*
X10840301Y-17114246D01*
X10840301Y-17114246D02*
X10840301Y-17171389D01*
X10840301Y-17171389D02*
X10830777Y-17190436D01*
X10830777Y-17190436D02*
X10821253Y-17199960D01*
X10821253Y-17199960D02*
X10802206Y-17209484D01*
X10802206Y-17209484D02*
X10773634Y-17209484D01*
X10954587Y-17209484D02*
X10935539Y-17199960D01*
X10935539Y-17199960D02*
X10926015Y-17180912D01*
X10926015Y-17180912D02*
X10926015Y-17009484D01*
X11106968Y-17199960D02*
X11087920Y-17209484D01*
X11087920Y-17209484D02*
X11049825Y-17209484D01*
X11049825Y-17209484D02*
X11030777Y-17199960D01*
X11030777Y-17199960D02*
X11021253Y-17180912D01*
X11021253Y-17180912D02*
X11021253Y-17104722D01*
X11021253Y-17104722D02*
X11030777Y-17085674D01*
X11030777Y-17085674D02*
X11049825Y-17076150D01*
X11049825Y-17076150D02*
X11087920Y-17076150D01*
X11087920Y-17076150D02*
X11106968Y-17085674D01*
X11106968Y-17085674D02*
X11116492Y-17104722D01*
X11116492Y-17104722D02*
X11116492Y-17123770D01*
X11116492Y-17123770D02*
X11021253Y-17142817D01*
X11192682Y-17199960D02*
X11211730Y-17209484D01*
X11211730Y-17209484D02*
X11249825Y-17209484D01*
X11249825Y-17209484D02*
X11268872Y-17199960D01*
X11268872Y-17199960D02*
X11278396Y-17180912D01*
X11278396Y-17180912D02*
X11278396Y-17171389D01*
X11278396Y-17171389D02*
X11268872Y-17152341D01*
X11268872Y-17152341D02*
X11249825Y-17142817D01*
X11249825Y-17142817D02*
X11221253Y-17142817D01*
X11221253Y-17142817D02*
X11202206Y-17133293D01*
X11202206Y-17133293D02*
X11192682Y-17114246D01*
X11192682Y-17114246D02*
X11192682Y-17104722D01*
X11192682Y-17104722D02*
X11202206Y-17085674D01*
X11202206Y-17085674D02*
X11221253Y-17076150D01*
X11221253Y-17076150D02*
X11249825Y-17076150D01*
X11249825Y-17076150D02*
X11268872Y-17085674D01*
X11345063Y-17285674D02*
X11354587Y-17276150D01*
X11354587Y-17276150D02*
X11373634Y-17247579D01*
X11373634Y-17247579D02*
X11383158Y-17228531D01*
X11383158Y-17228531D02*
X11392682Y-17199960D01*
X11392682Y-17199960D02*
X11402206Y-17152341D01*
X11402206Y-17152341D02*
X11402206Y-17114246D01*
X11402206Y-17114246D02*
X11392682Y-17066627D01*
X11392682Y-17066627D02*
X11383158Y-17038055D01*
X11383158Y-17038055D02*
X11373634Y-17019008D01*
X11373634Y-17019008D02*
X11354587Y-16990436D01*
X11354587Y-16990436D02*
X11345063Y-16980912D01*
D19*
X6420000Y-17307000D02*
X6570000Y-17457000D01*
X6570000Y-17307000D02*
X6420000Y-17457000D01*
X6495000Y-17457000D02*
X6570000Y-17382000D01*
X6495000Y-17307000D01*
X6420000Y-17382000D01*
X6495000Y-17457000D01*
D11*
X6935539Y-17473484D02*
X6821253Y-17473484D01*
X6878396Y-17473484D02*
X6878396Y-17273484D01*
X6878396Y-17273484D02*
X6859348Y-17302055D01*
X6859348Y-17302055D02*
X6840301Y-17321103D01*
X6840301Y-17321103D02*
X6821253Y-17330627D01*
X7021253Y-17454436D02*
X7030777Y-17463960D01*
X7030777Y-17463960D02*
X7021253Y-17473484D01*
X7021253Y-17473484D02*
X7011729Y-17463960D01*
X7011729Y-17463960D02*
X7021253Y-17454436D01*
X7021253Y-17454436D02*
X7021253Y-17473484D01*
X7211729Y-17273484D02*
X7116491Y-17273484D01*
X7116491Y-17273484D02*
X7106967Y-17368722D01*
X7106967Y-17368722D02*
X7116491Y-17359198D01*
X7116491Y-17359198D02*
X7135539Y-17349674D01*
X7135539Y-17349674D02*
X7183158Y-17349674D01*
X7183158Y-17349674D02*
X7202205Y-17359198D01*
X7202205Y-17359198D02*
X7211729Y-17368722D01*
X7211729Y-17368722D02*
X7221253Y-17387770D01*
X7221253Y-17387770D02*
X7221253Y-17435389D01*
X7221253Y-17435389D02*
X7211729Y-17454436D01*
X7211729Y-17454436D02*
X7202205Y-17463960D01*
X7202205Y-17463960D02*
X7183158Y-17473484D01*
X7183158Y-17473484D02*
X7135539Y-17473484D01*
X7135539Y-17473484D02*
X7116491Y-17463960D01*
X7116491Y-17463960D02*
X7106967Y-17454436D01*
X7345062Y-17273484D02*
X7364110Y-17273484D01*
X7364110Y-17273484D02*
X7383158Y-17283008D01*
X7383158Y-17283008D02*
X7392682Y-17292531D01*
X7392682Y-17292531D02*
X7402205Y-17311579D01*
X7402205Y-17311579D02*
X7411729Y-17349674D01*
X7411729Y-17349674D02*
X7411729Y-17397293D01*
X7411729Y-17397293D02*
X7402205Y-17435389D01*
X7402205Y-17435389D02*
X7392682Y-17454436D01*
X7392682Y-17454436D02*
X7383158Y-17463960D01*
X7383158Y-17463960D02*
X7364110Y-17473484D01*
X7364110Y-17473484D02*
X7345062Y-17473484D01*
X7345062Y-17473484D02*
X7326015Y-17463960D01*
X7326015Y-17463960D02*
X7316491Y-17454436D01*
X7316491Y-17454436D02*
X7306967Y-17435389D01*
X7306967Y-17435389D02*
X7297443Y-17397293D01*
X7297443Y-17397293D02*
X7297443Y-17349674D01*
X7297443Y-17349674D02*
X7306967Y-17311579D01*
X7306967Y-17311579D02*
X7316491Y-17292531D01*
X7316491Y-17292531D02*
X7326015Y-17283008D01*
X7326015Y-17283008D02*
X7345062Y-17273484D01*
X7535539Y-17273484D02*
X7554586Y-17273484D01*
X7554586Y-17273484D02*
X7573634Y-17283008D01*
X7573634Y-17283008D02*
X7583158Y-17292531D01*
X7583158Y-17292531D02*
X7592682Y-17311579D01*
X7592682Y-17311579D02*
X7602205Y-17349674D01*
X7602205Y-17349674D02*
X7602205Y-17397293D01*
X7602205Y-17397293D02*
X7592682Y-17435389D01*
X7592682Y-17435389D02*
X7583158Y-17454436D01*
X7583158Y-17454436D02*
X7573634Y-17463960D01*
X7573634Y-17463960D02*
X7554586Y-17473484D01*
X7554586Y-17473484D02*
X7535539Y-17473484D01*
X7535539Y-17473484D02*
X7516491Y-17463960D01*
X7516491Y-17463960D02*
X7506967Y-17454436D01*
X7506967Y-17454436D02*
X7497443Y-17435389D01*
X7497443Y-17435389D02*
X7487920Y-17397293D01*
X7487920Y-17397293D02*
X7487920Y-17349674D01*
X7487920Y-17349674D02*
X7497443Y-17311579D01*
X7497443Y-17311579D02*
X7506967Y-17292531D01*
X7506967Y-17292531D02*
X7516491Y-17283008D01*
X7516491Y-17283008D02*
X7535539Y-17273484D01*
X7687920Y-17473484D02*
X7687920Y-17340150D01*
X7687920Y-17359198D02*
X7697443Y-17349674D01*
X7697443Y-17349674D02*
X7716491Y-17340150D01*
X7716491Y-17340150D02*
X7745063Y-17340150D01*
X7745063Y-17340150D02*
X7764110Y-17349674D01*
X7764110Y-17349674D02*
X7773634Y-17368722D01*
X7773634Y-17368722D02*
X7773634Y-17473484D01*
X7773634Y-17368722D02*
X7783158Y-17349674D01*
X7783158Y-17349674D02*
X7802205Y-17340150D01*
X7802205Y-17340150D02*
X7830777Y-17340150D01*
X7830777Y-17340150D02*
X7849824Y-17349674D01*
X7849824Y-17349674D02*
X7859348Y-17368722D01*
X7859348Y-17368722D02*
X7859348Y-17473484D01*
X7954586Y-17473484D02*
X7954586Y-17340150D01*
X7954586Y-17359198D02*
X7964110Y-17349674D01*
X7964110Y-17349674D02*
X7983158Y-17340150D01*
X7983158Y-17340150D02*
X8011729Y-17340150D01*
X8011729Y-17340150D02*
X8030777Y-17349674D01*
X8030777Y-17349674D02*
X8040301Y-17368722D01*
X8040301Y-17368722D02*
X8040301Y-17473484D01*
X8040301Y-17368722D02*
X8049824Y-17349674D01*
X8049824Y-17349674D02*
X8068872Y-17340150D01*
X8068872Y-17340150D02*
X8097443Y-17340150D01*
X8097443Y-17340150D02*
X8116491Y-17349674D01*
X8116491Y-17349674D02*
X8126015Y-17368722D01*
X8126015Y-17368722D02*
X8126015Y-17473484D01*
X8516491Y-17263960D02*
X8345063Y-17521103D01*
X8773634Y-17273484D02*
X8792682Y-17273484D01*
X8792682Y-17273484D02*
X8811729Y-17283008D01*
X8811729Y-17283008D02*
X8821253Y-17292531D01*
X8821253Y-17292531D02*
X8830777Y-17311579D01*
X8830777Y-17311579D02*
X8840301Y-17349674D01*
X8840301Y-17349674D02*
X8840301Y-17397293D01*
X8840301Y-17397293D02*
X8830777Y-17435389D01*
X8830777Y-17435389D02*
X8821253Y-17454436D01*
X8821253Y-17454436D02*
X8811729Y-17463960D01*
X8811729Y-17463960D02*
X8792682Y-17473484D01*
X8792682Y-17473484D02*
X8773634Y-17473484D01*
X8773634Y-17473484D02*
X8754587Y-17463960D01*
X8754587Y-17463960D02*
X8745063Y-17454436D01*
X8745063Y-17454436D02*
X8735539Y-17435389D01*
X8735539Y-17435389D02*
X8726015Y-17397293D01*
X8726015Y-17397293D02*
X8726015Y-17349674D01*
X8726015Y-17349674D02*
X8735539Y-17311579D01*
X8735539Y-17311579D02*
X8745063Y-17292531D01*
X8745063Y-17292531D02*
X8754587Y-17283008D01*
X8754587Y-17283008D02*
X8773634Y-17273484D01*
X8926015Y-17454436D02*
X8935539Y-17463960D01*
X8935539Y-17463960D02*
X8926015Y-17473484D01*
X8926015Y-17473484D02*
X8916491Y-17463960D01*
X8916491Y-17463960D02*
X8926015Y-17454436D01*
X8926015Y-17454436D02*
X8926015Y-17473484D01*
X9059348Y-17273484D02*
X9078396Y-17273484D01*
X9078396Y-17273484D02*
X9097444Y-17283008D01*
X9097444Y-17283008D02*
X9106968Y-17292531D01*
X9106968Y-17292531D02*
X9116491Y-17311579D01*
X9116491Y-17311579D02*
X9126015Y-17349674D01*
X9126015Y-17349674D02*
X9126015Y-17397293D01*
X9126015Y-17397293D02*
X9116491Y-17435389D01*
X9116491Y-17435389D02*
X9106968Y-17454436D01*
X9106968Y-17454436D02*
X9097444Y-17463960D01*
X9097444Y-17463960D02*
X9078396Y-17473484D01*
X9078396Y-17473484D02*
X9059348Y-17473484D01*
X9059348Y-17473484D02*
X9040301Y-17463960D01*
X9040301Y-17463960D02*
X9030777Y-17454436D01*
X9030777Y-17454436D02*
X9021253Y-17435389D01*
X9021253Y-17435389D02*
X9011729Y-17397293D01*
X9011729Y-17397293D02*
X9011729Y-17349674D01*
X9011729Y-17349674D02*
X9021253Y-17311579D01*
X9021253Y-17311579D02*
X9030777Y-17292531D01*
X9030777Y-17292531D02*
X9040301Y-17283008D01*
X9040301Y-17283008D02*
X9059348Y-17273484D01*
X9306968Y-17273484D02*
X9211729Y-17273484D01*
X9211729Y-17273484D02*
X9202206Y-17368722D01*
X9202206Y-17368722D02*
X9211729Y-17359198D01*
X9211729Y-17359198D02*
X9230777Y-17349674D01*
X9230777Y-17349674D02*
X9278396Y-17349674D01*
X9278396Y-17349674D02*
X9297444Y-17359198D01*
X9297444Y-17359198D02*
X9306968Y-17368722D01*
X9306968Y-17368722D02*
X9316491Y-17387770D01*
X9316491Y-17387770D02*
X9316491Y-17435389D01*
X9316491Y-17435389D02*
X9306968Y-17454436D01*
X9306968Y-17454436D02*
X9297444Y-17463960D01*
X9297444Y-17463960D02*
X9278396Y-17473484D01*
X9278396Y-17473484D02*
X9230777Y-17473484D01*
X9230777Y-17473484D02*
X9211729Y-17463960D01*
X9211729Y-17463960D02*
X9202206Y-17454436D01*
X9411729Y-17473484D02*
X9449825Y-17473484D01*
X9449825Y-17473484D02*
X9468872Y-17463960D01*
X9468872Y-17463960D02*
X9478396Y-17454436D01*
X9478396Y-17454436D02*
X9497444Y-17425865D01*
X9497444Y-17425865D02*
X9506968Y-17387770D01*
X9506968Y-17387770D02*
X9506968Y-17311579D01*
X9506968Y-17311579D02*
X9497444Y-17292531D01*
X9497444Y-17292531D02*
X9487920Y-17283008D01*
X9487920Y-17283008D02*
X9468872Y-17273484D01*
X9468872Y-17273484D02*
X9430777Y-17273484D01*
X9430777Y-17273484D02*
X9411729Y-17283008D01*
X9411729Y-17283008D02*
X9402206Y-17292531D01*
X9402206Y-17292531D02*
X9392682Y-17311579D01*
X9392682Y-17311579D02*
X9392682Y-17359198D01*
X9392682Y-17359198D02*
X9402206Y-17378246D01*
X9402206Y-17378246D02*
X9411729Y-17387770D01*
X9411729Y-17387770D02*
X9430777Y-17397293D01*
X9430777Y-17397293D02*
X9468872Y-17397293D01*
X9468872Y-17397293D02*
X9487920Y-17387770D01*
X9487920Y-17387770D02*
X9497444Y-17378246D01*
X9497444Y-17378246D02*
X9506968Y-17359198D01*
X9697444Y-17473484D02*
X9583158Y-17473484D01*
X9640301Y-17473484D02*
X9640301Y-17273484D01*
X9640301Y-17273484D02*
X9621253Y-17302055D01*
X9621253Y-17302055D02*
X9602206Y-17321103D01*
X9602206Y-17321103D02*
X9583158Y-17330627D01*
X9773634Y-17273484D02*
X9773634Y-17311579D01*
X9849825Y-17273484D02*
X9849825Y-17311579D01*
X10145063Y-17549674D02*
X10135539Y-17540150D01*
X10135539Y-17540150D02*
X10116491Y-17511579D01*
X10116491Y-17511579D02*
X10106968Y-17492531D01*
X10106968Y-17492531D02*
X10097444Y-17463960D01*
X10097444Y-17463960D02*
X10087920Y-17416341D01*
X10087920Y-17416341D02*
X10087920Y-17378246D01*
X10087920Y-17378246D02*
X10097444Y-17330627D01*
X10097444Y-17330627D02*
X10106968Y-17302055D01*
X10106968Y-17302055D02*
X10116491Y-17283008D01*
X10116491Y-17283008D02*
X10135539Y-17254436D01*
X10135539Y-17254436D02*
X10145063Y-17244912D01*
X10326015Y-17473484D02*
X10211730Y-17473484D01*
X10268872Y-17473484D02*
X10268872Y-17273484D01*
X10268872Y-17273484D02*
X10249825Y-17302055D01*
X10249825Y-17302055D02*
X10230777Y-17321103D01*
X10230777Y-17321103D02*
X10211730Y-17330627D01*
X10564111Y-17473484D02*
X10564111Y-17273484D01*
X10649825Y-17473484D02*
X10649825Y-17368722D01*
X10649825Y-17368722D02*
X10640301Y-17349674D01*
X10640301Y-17349674D02*
X10621253Y-17340150D01*
X10621253Y-17340150D02*
X10592682Y-17340150D01*
X10592682Y-17340150D02*
X10573634Y-17349674D01*
X10573634Y-17349674D02*
X10564111Y-17359198D01*
X10773634Y-17473484D02*
X10754587Y-17463960D01*
X10754587Y-17463960D02*
X10745063Y-17454436D01*
X10745063Y-17454436D02*
X10735539Y-17435389D01*
X10735539Y-17435389D02*
X10735539Y-17378246D01*
X10735539Y-17378246D02*
X10745063Y-17359198D01*
X10745063Y-17359198D02*
X10754587Y-17349674D01*
X10754587Y-17349674D02*
X10773634Y-17340150D01*
X10773634Y-17340150D02*
X10802206Y-17340150D01*
X10802206Y-17340150D02*
X10821253Y-17349674D01*
X10821253Y-17349674D02*
X10830777Y-17359198D01*
X10830777Y-17359198D02*
X10840301Y-17378246D01*
X10840301Y-17378246D02*
X10840301Y-17435389D01*
X10840301Y-17435389D02*
X10830777Y-17454436D01*
X10830777Y-17454436D02*
X10821253Y-17463960D01*
X10821253Y-17463960D02*
X10802206Y-17473484D01*
X10802206Y-17473484D02*
X10773634Y-17473484D01*
X10954587Y-17473484D02*
X10935539Y-17463960D01*
X10935539Y-17463960D02*
X10926015Y-17444912D01*
X10926015Y-17444912D02*
X10926015Y-17273484D01*
X11106968Y-17463960D02*
X11087920Y-17473484D01*
X11087920Y-17473484D02*
X11049825Y-17473484D01*
X11049825Y-17473484D02*
X11030777Y-17463960D01*
X11030777Y-17463960D02*
X11021253Y-17444912D01*
X11021253Y-17444912D02*
X11021253Y-17368722D01*
X11021253Y-17368722D02*
X11030777Y-17349674D01*
X11030777Y-17349674D02*
X11049825Y-17340150D01*
X11049825Y-17340150D02*
X11087920Y-17340150D01*
X11087920Y-17340150D02*
X11106968Y-17349674D01*
X11106968Y-17349674D02*
X11116492Y-17368722D01*
X11116492Y-17368722D02*
X11116492Y-17387770D01*
X11116492Y-17387770D02*
X11021253Y-17406817D01*
X11183158Y-17549674D02*
X11192682Y-17540150D01*
X11192682Y-17540150D02*
X11211730Y-17511579D01*
X11211730Y-17511579D02*
X11221253Y-17492531D01*
X11221253Y-17492531D02*
X11230777Y-17463960D01*
X11230777Y-17463960D02*
X11240301Y-17416341D01*
X11240301Y-17416341D02*
X11240301Y-17378246D01*
X11240301Y-17378246D02*
X11230777Y-17330627D01*
X11230777Y-17330627D02*
X11221253Y-17302055D01*
X11221253Y-17302055D02*
X11211730Y-17283008D01*
X11211730Y-17283008D02*
X11192682Y-17254436D01*
X11192682Y-17254436D02*
X11183158Y-17244912D01*
D20*
X6490000Y-17572000D02*
X6490000Y-17732000D01*
X6410000Y-17652000D02*
X6570000Y-17652000D01*
X6570000Y-17652000D02*
G75*
G03*
X6570000Y-17652000I-80000J0D01*
G01*
D11*
X6935539Y-17743484D02*
X6821253Y-17743484D01*
X6878396Y-17743484D02*
X6878396Y-17543484D01*
X6878396Y-17543484D02*
X6859348Y-17572055D01*
X6859348Y-17572055D02*
X6840301Y-17591103D01*
X6840301Y-17591103D02*
X6821253Y-17600627D01*
X7021253Y-17724436D02*
X7030777Y-17733960D01*
X7030777Y-17733960D02*
X7021253Y-17743484D01*
X7021253Y-17743484D02*
X7011729Y-17733960D01*
X7011729Y-17733960D02*
X7021253Y-17724436D01*
X7021253Y-17724436D02*
X7021253Y-17743484D01*
X7202205Y-17543484D02*
X7164110Y-17543484D01*
X7164110Y-17543484D02*
X7145062Y-17553008D01*
X7145062Y-17553008D02*
X7135539Y-17562531D01*
X7135539Y-17562531D02*
X7116491Y-17591103D01*
X7116491Y-17591103D02*
X7106967Y-17629198D01*
X7106967Y-17629198D02*
X7106967Y-17705389D01*
X7106967Y-17705389D02*
X7116491Y-17724436D01*
X7116491Y-17724436D02*
X7126015Y-17733960D01*
X7126015Y-17733960D02*
X7145062Y-17743484D01*
X7145062Y-17743484D02*
X7183158Y-17743484D01*
X7183158Y-17743484D02*
X7202205Y-17733960D01*
X7202205Y-17733960D02*
X7211729Y-17724436D01*
X7211729Y-17724436D02*
X7221253Y-17705389D01*
X7221253Y-17705389D02*
X7221253Y-17657770D01*
X7221253Y-17657770D02*
X7211729Y-17638722D01*
X7211729Y-17638722D02*
X7202205Y-17629198D01*
X7202205Y-17629198D02*
X7183158Y-17619674D01*
X7183158Y-17619674D02*
X7145062Y-17619674D01*
X7145062Y-17619674D02*
X7126015Y-17629198D01*
X7126015Y-17629198D02*
X7116491Y-17638722D01*
X7116491Y-17638722D02*
X7106967Y-17657770D01*
X7345062Y-17543484D02*
X7364110Y-17543484D01*
X7364110Y-17543484D02*
X7383158Y-17553008D01*
X7383158Y-17553008D02*
X7392682Y-17562531D01*
X7392682Y-17562531D02*
X7402205Y-17581579D01*
X7402205Y-17581579D02*
X7411729Y-17619674D01*
X7411729Y-17619674D02*
X7411729Y-17667293D01*
X7411729Y-17667293D02*
X7402205Y-17705389D01*
X7402205Y-17705389D02*
X7392682Y-17724436D01*
X7392682Y-17724436D02*
X7383158Y-17733960D01*
X7383158Y-17733960D02*
X7364110Y-17743484D01*
X7364110Y-17743484D02*
X7345062Y-17743484D01*
X7345062Y-17743484D02*
X7326015Y-17733960D01*
X7326015Y-17733960D02*
X7316491Y-17724436D01*
X7316491Y-17724436D02*
X7306967Y-17705389D01*
X7306967Y-17705389D02*
X7297443Y-17667293D01*
X7297443Y-17667293D02*
X7297443Y-17619674D01*
X7297443Y-17619674D02*
X7306967Y-17581579D01*
X7306967Y-17581579D02*
X7316491Y-17562531D01*
X7316491Y-17562531D02*
X7326015Y-17553008D01*
X7326015Y-17553008D02*
X7345062Y-17543484D01*
X7535539Y-17543484D02*
X7554586Y-17543484D01*
X7554586Y-17543484D02*
X7573634Y-17553008D01*
X7573634Y-17553008D02*
X7583158Y-17562531D01*
X7583158Y-17562531D02*
X7592682Y-17581579D01*
X7592682Y-17581579D02*
X7602205Y-17619674D01*
X7602205Y-17619674D02*
X7602205Y-17667293D01*
X7602205Y-17667293D02*
X7592682Y-17705389D01*
X7592682Y-17705389D02*
X7583158Y-17724436D01*
X7583158Y-17724436D02*
X7573634Y-17733960D01*
X7573634Y-17733960D02*
X7554586Y-17743484D01*
X7554586Y-17743484D02*
X7535539Y-17743484D01*
X7535539Y-17743484D02*
X7516491Y-17733960D01*
X7516491Y-17733960D02*
X7506967Y-17724436D01*
X7506967Y-17724436D02*
X7497443Y-17705389D01*
X7497443Y-17705389D02*
X7487920Y-17667293D01*
X7487920Y-17667293D02*
X7487920Y-17619674D01*
X7487920Y-17619674D02*
X7497443Y-17581579D01*
X7497443Y-17581579D02*
X7506967Y-17562531D01*
X7506967Y-17562531D02*
X7516491Y-17553008D01*
X7516491Y-17553008D02*
X7535539Y-17543484D01*
X7687920Y-17743484D02*
X7687920Y-17610150D01*
X7687920Y-17629198D02*
X7697443Y-17619674D01*
X7697443Y-17619674D02*
X7716491Y-17610150D01*
X7716491Y-17610150D02*
X7745063Y-17610150D01*
X7745063Y-17610150D02*
X7764110Y-17619674D01*
X7764110Y-17619674D02*
X7773634Y-17638722D01*
X7773634Y-17638722D02*
X7773634Y-17743484D01*
X7773634Y-17638722D02*
X7783158Y-17619674D01*
X7783158Y-17619674D02*
X7802205Y-17610150D01*
X7802205Y-17610150D02*
X7830777Y-17610150D01*
X7830777Y-17610150D02*
X7849824Y-17619674D01*
X7849824Y-17619674D02*
X7859348Y-17638722D01*
X7859348Y-17638722D02*
X7859348Y-17743484D01*
X7954586Y-17743484D02*
X7954586Y-17610150D01*
X7954586Y-17629198D02*
X7964110Y-17619674D01*
X7964110Y-17619674D02*
X7983158Y-17610150D01*
X7983158Y-17610150D02*
X8011729Y-17610150D01*
X8011729Y-17610150D02*
X8030777Y-17619674D01*
X8030777Y-17619674D02*
X8040301Y-17638722D01*
X8040301Y-17638722D02*
X8040301Y-17743484D01*
X8040301Y-17638722D02*
X8049824Y-17619674D01*
X8049824Y-17619674D02*
X8068872Y-17610150D01*
X8068872Y-17610150D02*
X8097443Y-17610150D01*
X8097443Y-17610150D02*
X8116491Y-17619674D01*
X8116491Y-17619674D02*
X8126015Y-17638722D01*
X8126015Y-17638722D02*
X8126015Y-17743484D01*
X8516491Y-17533960D02*
X8345063Y-17791103D01*
X8773634Y-17543484D02*
X8792682Y-17543484D01*
X8792682Y-17543484D02*
X8811729Y-17553008D01*
X8811729Y-17553008D02*
X8821253Y-17562531D01*
X8821253Y-17562531D02*
X8830777Y-17581579D01*
X8830777Y-17581579D02*
X8840301Y-17619674D01*
X8840301Y-17619674D02*
X8840301Y-17667293D01*
X8840301Y-17667293D02*
X8830777Y-17705389D01*
X8830777Y-17705389D02*
X8821253Y-17724436D01*
X8821253Y-17724436D02*
X8811729Y-17733960D01*
X8811729Y-17733960D02*
X8792682Y-17743484D01*
X8792682Y-17743484D02*
X8773634Y-17743484D01*
X8773634Y-17743484D02*
X8754587Y-17733960D01*
X8754587Y-17733960D02*
X8745063Y-17724436D01*
X8745063Y-17724436D02*
X8735539Y-17705389D01*
X8735539Y-17705389D02*
X8726015Y-17667293D01*
X8726015Y-17667293D02*
X8726015Y-17619674D01*
X8726015Y-17619674D02*
X8735539Y-17581579D01*
X8735539Y-17581579D02*
X8745063Y-17562531D01*
X8745063Y-17562531D02*
X8754587Y-17553008D01*
X8754587Y-17553008D02*
X8773634Y-17543484D01*
X8926015Y-17724436D02*
X8935539Y-17733960D01*
X8935539Y-17733960D02*
X8926015Y-17743484D01*
X8926015Y-17743484D02*
X8916491Y-17733960D01*
X8916491Y-17733960D02*
X8926015Y-17724436D01*
X8926015Y-17724436D02*
X8926015Y-17743484D01*
X9059348Y-17543484D02*
X9078396Y-17543484D01*
X9078396Y-17543484D02*
X9097444Y-17553008D01*
X9097444Y-17553008D02*
X9106968Y-17562531D01*
X9106968Y-17562531D02*
X9116491Y-17581579D01*
X9116491Y-17581579D02*
X9126015Y-17619674D01*
X9126015Y-17619674D02*
X9126015Y-17667293D01*
X9126015Y-17667293D02*
X9116491Y-17705389D01*
X9116491Y-17705389D02*
X9106968Y-17724436D01*
X9106968Y-17724436D02*
X9097444Y-17733960D01*
X9097444Y-17733960D02*
X9078396Y-17743484D01*
X9078396Y-17743484D02*
X9059348Y-17743484D01*
X9059348Y-17743484D02*
X9040301Y-17733960D01*
X9040301Y-17733960D02*
X9030777Y-17724436D01*
X9030777Y-17724436D02*
X9021253Y-17705389D01*
X9021253Y-17705389D02*
X9011729Y-17667293D01*
X9011729Y-17667293D02*
X9011729Y-17619674D01*
X9011729Y-17619674D02*
X9021253Y-17581579D01*
X9021253Y-17581579D02*
X9030777Y-17562531D01*
X9030777Y-17562531D02*
X9040301Y-17553008D01*
X9040301Y-17553008D02*
X9059348Y-17543484D01*
X9297444Y-17543484D02*
X9259348Y-17543484D01*
X9259348Y-17543484D02*
X9240301Y-17553008D01*
X9240301Y-17553008D02*
X9230777Y-17562531D01*
X9230777Y-17562531D02*
X9211729Y-17591103D01*
X9211729Y-17591103D02*
X9202206Y-17629198D01*
X9202206Y-17629198D02*
X9202206Y-17705389D01*
X9202206Y-17705389D02*
X9211729Y-17724436D01*
X9211729Y-17724436D02*
X9221253Y-17733960D01*
X9221253Y-17733960D02*
X9240301Y-17743484D01*
X9240301Y-17743484D02*
X9278396Y-17743484D01*
X9278396Y-17743484D02*
X9297444Y-17733960D01*
X9297444Y-17733960D02*
X9306968Y-17724436D01*
X9306968Y-17724436D02*
X9316491Y-17705389D01*
X9316491Y-17705389D02*
X9316491Y-17657770D01*
X9316491Y-17657770D02*
X9306968Y-17638722D01*
X9306968Y-17638722D02*
X9297444Y-17629198D01*
X9297444Y-17629198D02*
X9278396Y-17619674D01*
X9278396Y-17619674D02*
X9240301Y-17619674D01*
X9240301Y-17619674D02*
X9221253Y-17629198D01*
X9221253Y-17629198D02*
X9211729Y-17638722D01*
X9211729Y-17638722D02*
X9202206Y-17657770D01*
X9383158Y-17543484D02*
X9506968Y-17543484D01*
X9506968Y-17543484D02*
X9440301Y-17619674D01*
X9440301Y-17619674D02*
X9468872Y-17619674D01*
X9468872Y-17619674D02*
X9487920Y-17629198D01*
X9487920Y-17629198D02*
X9497444Y-17638722D01*
X9497444Y-17638722D02*
X9506968Y-17657770D01*
X9506968Y-17657770D02*
X9506968Y-17705389D01*
X9506968Y-17705389D02*
X9497444Y-17724436D01*
X9497444Y-17724436D02*
X9487920Y-17733960D01*
X9487920Y-17733960D02*
X9468872Y-17743484D01*
X9468872Y-17743484D02*
X9411729Y-17743484D01*
X9411729Y-17743484D02*
X9392682Y-17733960D01*
X9392682Y-17733960D02*
X9383158Y-17724436D01*
X9630777Y-17543484D02*
X9649825Y-17543484D01*
X9649825Y-17543484D02*
X9668872Y-17553008D01*
X9668872Y-17553008D02*
X9678396Y-17562531D01*
X9678396Y-17562531D02*
X9687920Y-17581579D01*
X9687920Y-17581579D02*
X9697444Y-17619674D01*
X9697444Y-17619674D02*
X9697444Y-17667293D01*
X9697444Y-17667293D02*
X9687920Y-17705389D01*
X9687920Y-17705389D02*
X9678396Y-17724436D01*
X9678396Y-17724436D02*
X9668872Y-17733960D01*
X9668872Y-17733960D02*
X9649825Y-17743484D01*
X9649825Y-17743484D02*
X9630777Y-17743484D01*
X9630777Y-17743484D02*
X9611729Y-17733960D01*
X9611729Y-17733960D02*
X9602206Y-17724436D01*
X9602206Y-17724436D02*
X9592682Y-17705389D01*
X9592682Y-17705389D02*
X9583158Y-17667293D01*
X9583158Y-17667293D02*
X9583158Y-17619674D01*
X9583158Y-17619674D02*
X9592682Y-17581579D01*
X9592682Y-17581579D02*
X9602206Y-17562531D01*
X9602206Y-17562531D02*
X9611729Y-17553008D01*
X9611729Y-17553008D02*
X9630777Y-17543484D01*
X9773634Y-17543484D02*
X9773634Y-17581579D01*
X9849825Y-17543484D02*
X9849825Y-17581579D01*
X10145063Y-17819674D02*
X10135539Y-17810150D01*
X10135539Y-17810150D02*
X10116491Y-17781579D01*
X10116491Y-17781579D02*
X10106968Y-17762531D01*
X10106968Y-17762531D02*
X10097444Y-17733960D01*
X10097444Y-17733960D02*
X10087920Y-17686341D01*
X10087920Y-17686341D02*
X10087920Y-17648246D01*
X10087920Y-17648246D02*
X10097444Y-17600627D01*
X10097444Y-17600627D02*
X10106968Y-17572055D01*
X10106968Y-17572055D02*
X10116491Y-17553008D01*
X10116491Y-17553008D02*
X10135539Y-17524436D01*
X10135539Y-17524436D02*
X10145063Y-17514912D01*
X10202206Y-17543484D02*
X10326015Y-17543484D01*
X10326015Y-17543484D02*
X10259349Y-17619674D01*
X10259349Y-17619674D02*
X10287920Y-17619674D01*
X10287920Y-17619674D02*
X10306968Y-17629198D01*
X10306968Y-17629198D02*
X10316491Y-17638722D01*
X10316491Y-17638722D02*
X10326015Y-17657770D01*
X10326015Y-17657770D02*
X10326015Y-17705389D01*
X10326015Y-17705389D02*
X10316491Y-17724436D01*
X10316491Y-17724436D02*
X10306968Y-17733960D01*
X10306968Y-17733960D02*
X10287920Y-17743484D01*
X10287920Y-17743484D02*
X10230777Y-17743484D01*
X10230777Y-17743484D02*
X10211730Y-17733960D01*
X10211730Y-17733960D02*
X10202206Y-17724436D01*
X10449825Y-17543484D02*
X10468872Y-17543484D01*
X10468872Y-17543484D02*
X10487920Y-17553008D01*
X10487920Y-17553008D02*
X10497444Y-17562531D01*
X10497444Y-17562531D02*
X10506968Y-17581579D01*
X10506968Y-17581579D02*
X10516491Y-17619674D01*
X10516491Y-17619674D02*
X10516491Y-17667293D01*
X10516491Y-17667293D02*
X10506968Y-17705389D01*
X10506968Y-17705389D02*
X10497444Y-17724436D01*
X10497444Y-17724436D02*
X10487920Y-17733960D01*
X10487920Y-17733960D02*
X10468872Y-17743484D01*
X10468872Y-17743484D02*
X10449825Y-17743484D01*
X10449825Y-17743484D02*
X10430777Y-17733960D01*
X10430777Y-17733960D02*
X10421253Y-17724436D01*
X10421253Y-17724436D02*
X10411730Y-17705389D01*
X10411730Y-17705389D02*
X10402206Y-17667293D01*
X10402206Y-17667293D02*
X10402206Y-17619674D01*
X10402206Y-17619674D02*
X10411730Y-17581579D01*
X10411730Y-17581579D02*
X10421253Y-17562531D01*
X10421253Y-17562531D02*
X10430777Y-17553008D01*
X10430777Y-17553008D02*
X10449825Y-17543484D01*
X10754587Y-17743484D02*
X10754587Y-17543484D01*
X10840301Y-17743484D02*
X10840301Y-17638722D01*
X10840301Y-17638722D02*
X10830777Y-17619674D01*
X10830777Y-17619674D02*
X10811730Y-17610150D01*
X10811730Y-17610150D02*
X10783158Y-17610150D01*
X10783158Y-17610150D02*
X10764111Y-17619674D01*
X10764111Y-17619674D02*
X10754587Y-17629198D01*
X10964111Y-17743484D02*
X10945063Y-17733960D01*
X10945063Y-17733960D02*
X10935539Y-17724436D01*
X10935539Y-17724436D02*
X10926015Y-17705389D01*
X10926015Y-17705389D02*
X10926015Y-17648246D01*
X10926015Y-17648246D02*
X10935539Y-17629198D01*
X10935539Y-17629198D02*
X10945063Y-17619674D01*
X10945063Y-17619674D02*
X10964111Y-17610150D01*
X10964111Y-17610150D02*
X10992682Y-17610150D01*
X10992682Y-17610150D02*
X11011730Y-17619674D01*
X11011730Y-17619674D02*
X11021253Y-17629198D01*
X11021253Y-17629198D02*
X11030777Y-17648246D01*
X11030777Y-17648246D02*
X11030777Y-17705389D01*
X11030777Y-17705389D02*
X11021253Y-17724436D01*
X11021253Y-17724436D02*
X11011730Y-17733960D01*
X11011730Y-17733960D02*
X10992682Y-17743484D01*
X10992682Y-17743484D02*
X10964111Y-17743484D01*
X11145063Y-17743484D02*
X11126015Y-17733960D01*
X11126015Y-17733960D02*
X11116492Y-17714912D01*
X11116492Y-17714912D02*
X11116492Y-17543484D01*
X11297444Y-17733960D02*
X11278396Y-17743484D01*
X11278396Y-17743484D02*
X11240301Y-17743484D01*
X11240301Y-17743484D02*
X11221253Y-17733960D01*
X11221253Y-17733960D02*
X11211730Y-17714912D01*
X11211730Y-17714912D02*
X11211730Y-17638722D01*
X11211730Y-17638722D02*
X11221253Y-17619674D01*
X11221253Y-17619674D02*
X11240301Y-17610150D01*
X11240301Y-17610150D02*
X11278396Y-17610150D01*
X11278396Y-17610150D02*
X11297444Y-17619674D01*
X11297444Y-17619674D02*
X11306968Y-17638722D01*
X11306968Y-17638722D02*
X11306968Y-17657770D01*
X11306968Y-17657770D02*
X11211730Y-17676817D01*
X11383158Y-17733960D02*
X11402206Y-17743484D01*
X11402206Y-17743484D02*
X11440301Y-17743484D01*
X11440301Y-17743484D02*
X11459349Y-17733960D01*
X11459349Y-17733960D02*
X11468872Y-17714912D01*
X11468872Y-17714912D02*
X11468872Y-17705389D01*
X11468872Y-17705389D02*
X11459349Y-17686341D01*
X11459349Y-17686341D02*
X11440301Y-17676817D01*
X11440301Y-17676817D02*
X11411730Y-17676817D01*
X11411730Y-17676817D02*
X11392682Y-17667293D01*
X11392682Y-17667293D02*
X11383158Y-17648246D01*
X11383158Y-17648246D02*
X11383158Y-17638722D01*
X11383158Y-17638722D02*
X11392682Y-17619674D01*
X11392682Y-17619674D02*
X11411730Y-17610150D01*
X11411730Y-17610150D02*
X11440301Y-17610150D01*
X11440301Y-17610150D02*
X11459349Y-17619674D01*
X11535539Y-17819674D02*
X11545063Y-17810150D01*
X11545063Y-17810150D02*
X11564111Y-17781579D01*
X11564111Y-17781579D02*
X11573634Y-17762531D01*
X11573634Y-17762531D02*
X11583158Y-17733960D01*
X11583158Y-17733960D02*
X11592682Y-17686341D01*
X11592682Y-17686341D02*
X11592682Y-17648246D01*
X11592682Y-17648246D02*
X11583158Y-17600627D01*
X11583158Y-17600627D02*
X11573634Y-17572055D01*
X11573634Y-17572055D02*
X11564111Y-17553008D01*
X11564111Y-17553008D02*
X11545063Y-17524436D01*
X11545063Y-17524436D02*
X11535539Y-17514912D01*
X6540711Y-18002711D02*
X6540711Y-17861289D01*
X6399289Y-17861289D01*
X6399289Y-18002711D01*
X6540711Y-18002711D01*
X6570000Y-17932000D02*
G75*
G03*
X6570000Y-17932000I-100000J0D01*
G01*
X6821253Y-17842531D02*
X6830777Y-17833008D01*
X6830777Y-17833008D02*
X6849824Y-17823484D01*
X6849824Y-17823484D02*
X6897443Y-17823484D01*
X6897443Y-17823484D02*
X6916491Y-17833008D01*
X6916491Y-17833008D02*
X6926015Y-17842531D01*
X6926015Y-17842531D02*
X6935539Y-17861579D01*
X6935539Y-17861579D02*
X6935539Y-17880627D01*
X6935539Y-17880627D02*
X6926015Y-17909198D01*
X6926015Y-17909198D02*
X6811729Y-18023484D01*
X6811729Y-18023484D02*
X6935539Y-18023484D01*
X7021253Y-18004436D02*
X7030777Y-18013960D01*
X7030777Y-18013960D02*
X7021253Y-18023484D01*
X7021253Y-18023484D02*
X7011729Y-18013960D01*
X7011729Y-18013960D02*
X7021253Y-18004436D01*
X7021253Y-18004436D02*
X7021253Y-18023484D01*
X7221253Y-18023484D02*
X7106967Y-18023484D01*
X7164110Y-18023484D02*
X7164110Y-17823484D01*
X7164110Y-17823484D02*
X7145062Y-17852055D01*
X7145062Y-17852055D02*
X7126015Y-17871103D01*
X7126015Y-17871103D02*
X7106967Y-17880627D01*
X7345062Y-17823484D02*
X7364110Y-17823484D01*
X7364110Y-17823484D02*
X7383158Y-17833008D01*
X7383158Y-17833008D02*
X7392682Y-17842531D01*
X7392682Y-17842531D02*
X7402205Y-17861579D01*
X7402205Y-17861579D02*
X7411729Y-17899674D01*
X7411729Y-17899674D02*
X7411729Y-17947293D01*
X7411729Y-17947293D02*
X7402205Y-17985389D01*
X7402205Y-17985389D02*
X7392682Y-18004436D01*
X7392682Y-18004436D02*
X7383158Y-18013960D01*
X7383158Y-18013960D02*
X7364110Y-18023484D01*
X7364110Y-18023484D02*
X7345062Y-18023484D01*
X7345062Y-18023484D02*
X7326015Y-18013960D01*
X7326015Y-18013960D02*
X7316491Y-18004436D01*
X7316491Y-18004436D02*
X7306967Y-17985389D01*
X7306967Y-17985389D02*
X7297443Y-17947293D01*
X7297443Y-17947293D02*
X7297443Y-17899674D01*
X7297443Y-17899674D02*
X7306967Y-17861579D01*
X7306967Y-17861579D02*
X7316491Y-17842531D01*
X7316491Y-17842531D02*
X7326015Y-17833008D01*
X7326015Y-17833008D02*
X7345062Y-17823484D01*
X7535539Y-17823484D02*
X7554586Y-17823484D01*
X7554586Y-17823484D02*
X7573634Y-17833008D01*
X7573634Y-17833008D02*
X7583158Y-17842531D01*
X7583158Y-17842531D02*
X7592682Y-17861579D01*
X7592682Y-17861579D02*
X7602205Y-17899674D01*
X7602205Y-17899674D02*
X7602205Y-17947293D01*
X7602205Y-17947293D02*
X7592682Y-17985389D01*
X7592682Y-17985389D02*
X7583158Y-18004436D01*
X7583158Y-18004436D02*
X7573634Y-18013960D01*
X7573634Y-18013960D02*
X7554586Y-18023484D01*
X7554586Y-18023484D02*
X7535539Y-18023484D01*
X7535539Y-18023484D02*
X7516491Y-18013960D01*
X7516491Y-18013960D02*
X7506967Y-18004436D01*
X7506967Y-18004436D02*
X7497443Y-17985389D01*
X7497443Y-17985389D02*
X7487920Y-17947293D01*
X7487920Y-17947293D02*
X7487920Y-17899674D01*
X7487920Y-17899674D02*
X7497443Y-17861579D01*
X7497443Y-17861579D02*
X7506967Y-17842531D01*
X7506967Y-17842531D02*
X7516491Y-17833008D01*
X7516491Y-17833008D02*
X7535539Y-17823484D01*
X7687920Y-18023484D02*
X7687920Y-17890150D01*
X7687920Y-17909198D02*
X7697443Y-17899674D01*
X7697443Y-17899674D02*
X7716491Y-17890150D01*
X7716491Y-17890150D02*
X7745063Y-17890150D01*
X7745063Y-17890150D02*
X7764110Y-17899674D01*
X7764110Y-17899674D02*
X7773634Y-17918722D01*
X7773634Y-17918722D02*
X7773634Y-18023484D01*
X7773634Y-17918722D02*
X7783158Y-17899674D01*
X7783158Y-17899674D02*
X7802205Y-17890150D01*
X7802205Y-17890150D02*
X7830777Y-17890150D01*
X7830777Y-17890150D02*
X7849824Y-17899674D01*
X7849824Y-17899674D02*
X7859348Y-17918722D01*
X7859348Y-17918722D02*
X7859348Y-18023484D01*
X7954586Y-18023484D02*
X7954586Y-17890150D01*
X7954586Y-17909198D02*
X7964110Y-17899674D01*
X7964110Y-17899674D02*
X7983158Y-17890150D01*
X7983158Y-17890150D02*
X8011729Y-17890150D01*
X8011729Y-17890150D02*
X8030777Y-17899674D01*
X8030777Y-17899674D02*
X8040301Y-17918722D01*
X8040301Y-17918722D02*
X8040301Y-18023484D01*
X8040301Y-17918722D02*
X8049824Y-17899674D01*
X8049824Y-17899674D02*
X8068872Y-17890150D01*
X8068872Y-17890150D02*
X8097443Y-17890150D01*
X8097443Y-17890150D02*
X8116491Y-17899674D01*
X8116491Y-17899674D02*
X8126015Y-17918722D01*
X8126015Y-17918722D02*
X8126015Y-18023484D01*
X8516491Y-17813960D02*
X8345063Y-18071103D01*
X8773634Y-17823484D02*
X8792682Y-17823484D01*
X8792682Y-17823484D02*
X8811729Y-17833008D01*
X8811729Y-17833008D02*
X8821253Y-17842531D01*
X8821253Y-17842531D02*
X8830777Y-17861579D01*
X8830777Y-17861579D02*
X8840301Y-17899674D01*
X8840301Y-17899674D02*
X8840301Y-17947293D01*
X8840301Y-17947293D02*
X8830777Y-17985389D01*
X8830777Y-17985389D02*
X8821253Y-18004436D01*
X8821253Y-18004436D02*
X8811729Y-18013960D01*
X8811729Y-18013960D02*
X8792682Y-18023484D01*
X8792682Y-18023484D02*
X8773634Y-18023484D01*
X8773634Y-18023484D02*
X8754587Y-18013960D01*
X8754587Y-18013960D02*
X8745063Y-18004436D01*
X8745063Y-18004436D02*
X8735539Y-17985389D01*
X8735539Y-17985389D02*
X8726015Y-17947293D01*
X8726015Y-17947293D02*
X8726015Y-17899674D01*
X8726015Y-17899674D02*
X8735539Y-17861579D01*
X8735539Y-17861579D02*
X8745063Y-17842531D01*
X8745063Y-17842531D02*
X8754587Y-17833008D01*
X8754587Y-17833008D02*
X8773634Y-17823484D01*
X8926015Y-18004436D02*
X8935539Y-18013960D01*
X8935539Y-18013960D02*
X8926015Y-18023484D01*
X8926015Y-18023484D02*
X8916491Y-18013960D01*
X8916491Y-18013960D02*
X8926015Y-18004436D01*
X8926015Y-18004436D02*
X8926015Y-18023484D01*
X9059348Y-17823484D02*
X9078396Y-17823484D01*
X9078396Y-17823484D02*
X9097444Y-17833008D01*
X9097444Y-17833008D02*
X9106968Y-17842531D01*
X9106968Y-17842531D02*
X9116491Y-17861579D01*
X9116491Y-17861579D02*
X9126015Y-17899674D01*
X9126015Y-17899674D02*
X9126015Y-17947293D01*
X9126015Y-17947293D02*
X9116491Y-17985389D01*
X9116491Y-17985389D02*
X9106968Y-18004436D01*
X9106968Y-18004436D02*
X9097444Y-18013960D01*
X9097444Y-18013960D02*
X9078396Y-18023484D01*
X9078396Y-18023484D02*
X9059348Y-18023484D01*
X9059348Y-18023484D02*
X9040301Y-18013960D01*
X9040301Y-18013960D02*
X9030777Y-18004436D01*
X9030777Y-18004436D02*
X9021253Y-17985389D01*
X9021253Y-17985389D02*
X9011729Y-17947293D01*
X9011729Y-17947293D02*
X9011729Y-17899674D01*
X9011729Y-17899674D02*
X9021253Y-17861579D01*
X9021253Y-17861579D02*
X9030777Y-17842531D01*
X9030777Y-17842531D02*
X9040301Y-17833008D01*
X9040301Y-17833008D02*
X9059348Y-17823484D01*
X9240301Y-17909198D02*
X9221253Y-17899674D01*
X9221253Y-17899674D02*
X9211729Y-17890150D01*
X9211729Y-17890150D02*
X9202206Y-17871103D01*
X9202206Y-17871103D02*
X9202206Y-17861579D01*
X9202206Y-17861579D02*
X9211729Y-17842531D01*
X9211729Y-17842531D02*
X9221253Y-17833008D01*
X9221253Y-17833008D02*
X9240301Y-17823484D01*
X9240301Y-17823484D02*
X9278396Y-17823484D01*
X9278396Y-17823484D02*
X9297444Y-17833008D01*
X9297444Y-17833008D02*
X9306968Y-17842531D01*
X9306968Y-17842531D02*
X9316491Y-17861579D01*
X9316491Y-17861579D02*
X9316491Y-17871103D01*
X9316491Y-17871103D02*
X9306968Y-17890150D01*
X9306968Y-17890150D02*
X9297444Y-17899674D01*
X9297444Y-17899674D02*
X9278396Y-17909198D01*
X9278396Y-17909198D02*
X9240301Y-17909198D01*
X9240301Y-17909198D02*
X9221253Y-17918722D01*
X9221253Y-17918722D02*
X9211729Y-17928246D01*
X9211729Y-17928246D02*
X9202206Y-17947293D01*
X9202206Y-17947293D02*
X9202206Y-17985389D01*
X9202206Y-17985389D02*
X9211729Y-18004436D01*
X9211729Y-18004436D02*
X9221253Y-18013960D01*
X9221253Y-18013960D02*
X9240301Y-18023484D01*
X9240301Y-18023484D02*
X9278396Y-18023484D01*
X9278396Y-18023484D02*
X9297444Y-18013960D01*
X9297444Y-18013960D02*
X9306968Y-18004436D01*
X9306968Y-18004436D02*
X9316491Y-17985389D01*
X9316491Y-17985389D02*
X9316491Y-17947293D01*
X9316491Y-17947293D02*
X9306968Y-17928246D01*
X9306968Y-17928246D02*
X9297444Y-17918722D01*
X9297444Y-17918722D02*
X9278396Y-17909198D01*
X9392682Y-17842531D02*
X9402206Y-17833008D01*
X9402206Y-17833008D02*
X9421253Y-17823484D01*
X9421253Y-17823484D02*
X9468872Y-17823484D01*
X9468872Y-17823484D02*
X9487920Y-17833008D01*
X9487920Y-17833008D02*
X9497444Y-17842531D01*
X9497444Y-17842531D02*
X9506968Y-17861579D01*
X9506968Y-17861579D02*
X9506968Y-17880627D01*
X9506968Y-17880627D02*
X9497444Y-17909198D01*
X9497444Y-17909198D02*
X9383158Y-18023484D01*
X9383158Y-18023484D02*
X9506968Y-18023484D01*
X9573634Y-17823484D02*
X9706968Y-17823484D01*
X9706968Y-17823484D02*
X9621253Y-18023484D01*
X9773634Y-17823484D02*
X9773634Y-17861579D01*
X9849825Y-17823484D02*
X9849825Y-17861579D01*
X10145063Y-18099674D02*
X10135539Y-18090150D01*
X10135539Y-18090150D02*
X10116491Y-18061579D01*
X10116491Y-18061579D02*
X10106968Y-18042531D01*
X10106968Y-18042531D02*
X10097444Y-18013960D01*
X10097444Y-18013960D02*
X10087920Y-17966341D01*
X10087920Y-17966341D02*
X10087920Y-17928246D01*
X10087920Y-17928246D02*
X10097444Y-17880627D01*
X10097444Y-17880627D02*
X10106968Y-17852055D01*
X10106968Y-17852055D02*
X10116491Y-17833008D01*
X10116491Y-17833008D02*
X10135539Y-17804436D01*
X10135539Y-17804436D02*
X10145063Y-17794912D01*
X10326015Y-18023484D02*
X10211730Y-18023484D01*
X10268872Y-18023484D02*
X10268872Y-17823484D01*
X10268872Y-17823484D02*
X10249825Y-17852055D01*
X10249825Y-17852055D02*
X10230777Y-17871103D01*
X10230777Y-17871103D02*
X10211730Y-17880627D01*
X10449825Y-17823484D02*
X10468872Y-17823484D01*
X10468872Y-17823484D02*
X10487920Y-17833008D01*
X10487920Y-17833008D02*
X10497444Y-17842531D01*
X10497444Y-17842531D02*
X10506968Y-17861579D01*
X10506968Y-17861579D02*
X10516491Y-17899674D01*
X10516491Y-17899674D02*
X10516491Y-17947293D01*
X10516491Y-17947293D02*
X10506968Y-17985389D01*
X10506968Y-17985389D02*
X10497444Y-18004436D01*
X10497444Y-18004436D02*
X10487920Y-18013960D01*
X10487920Y-18013960D02*
X10468872Y-18023484D01*
X10468872Y-18023484D02*
X10449825Y-18023484D01*
X10449825Y-18023484D02*
X10430777Y-18013960D01*
X10430777Y-18013960D02*
X10421253Y-18004436D01*
X10421253Y-18004436D02*
X10411730Y-17985389D01*
X10411730Y-17985389D02*
X10402206Y-17947293D01*
X10402206Y-17947293D02*
X10402206Y-17899674D01*
X10402206Y-17899674D02*
X10411730Y-17861579D01*
X10411730Y-17861579D02*
X10421253Y-17842531D01*
X10421253Y-17842531D02*
X10430777Y-17833008D01*
X10430777Y-17833008D02*
X10449825Y-17823484D01*
X10754587Y-18023484D02*
X10754587Y-17823484D01*
X10840301Y-18023484D02*
X10840301Y-17918722D01*
X10840301Y-17918722D02*
X10830777Y-17899674D01*
X10830777Y-17899674D02*
X10811730Y-17890150D01*
X10811730Y-17890150D02*
X10783158Y-17890150D01*
X10783158Y-17890150D02*
X10764111Y-17899674D01*
X10764111Y-17899674D02*
X10754587Y-17909198D01*
X10964111Y-18023484D02*
X10945063Y-18013960D01*
X10945063Y-18013960D02*
X10935539Y-18004436D01*
X10935539Y-18004436D02*
X10926015Y-17985389D01*
X10926015Y-17985389D02*
X10926015Y-17928246D01*
X10926015Y-17928246D02*
X10935539Y-17909198D01*
X10935539Y-17909198D02*
X10945063Y-17899674D01*
X10945063Y-17899674D02*
X10964111Y-17890150D01*
X10964111Y-17890150D02*
X10992682Y-17890150D01*
X10992682Y-17890150D02*
X11011730Y-17899674D01*
X11011730Y-17899674D02*
X11021253Y-17909198D01*
X11021253Y-17909198D02*
X11030777Y-17928246D01*
X11030777Y-17928246D02*
X11030777Y-17985389D01*
X11030777Y-17985389D02*
X11021253Y-18004436D01*
X11021253Y-18004436D02*
X11011730Y-18013960D01*
X11011730Y-18013960D02*
X10992682Y-18023484D01*
X10992682Y-18023484D02*
X10964111Y-18023484D01*
X11145063Y-18023484D02*
X11126015Y-18013960D01*
X11126015Y-18013960D02*
X11116492Y-17994912D01*
X11116492Y-17994912D02*
X11116492Y-17823484D01*
X11297444Y-18013960D02*
X11278396Y-18023484D01*
X11278396Y-18023484D02*
X11240301Y-18023484D01*
X11240301Y-18023484D02*
X11221253Y-18013960D01*
X11221253Y-18013960D02*
X11211730Y-17994912D01*
X11211730Y-17994912D02*
X11211730Y-17918722D01*
X11211730Y-17918722D02*
X11221253Y-17899674D01*
X11221253Y-17899674D02*
X11240301Y-17890150D01*
X11240301Y-17890150D02*
X11278396Y-17890150D01*
X11278396Y-17890150D02*
X11297444Y-17899674D01*
X11297444Y-17899674D02*
X11306968Y-17918722D01*
X11306968Y-17918722D02*
X11306968Y-17937770D01*
X11306968Y-17937770D02*
X11211730Y-17956817D01*
X11383158Y-18013960D02*
X11402206Y-18023484D01*
X11402206Y-18023484D02*
X11440301Y-18023484D01*
X11440301Y-18023484D02*
X11459349Y-18013960D01*
X11459349Y-18013960D02*
X11468872Y-17994912D01*
X11468872Y-17994912D02*
X11468872Y-17985389D01*
X11468872Y-17985389D02*
X11459349Y-17966341D01*
X11459349Y-17966341D02*
X11440301Y-17956817D01*
X11440301Y-17956817D02*
X11411730Y-17956817D01*
X11411730Y-17956817D02*
X11392682Y-17947293D01*
X11392682Y-17947293D02*
X11383158Y-17928246D01*
X11383158Y-17928246D02*
X11383158Y-17918722D01*
X11383158Y-17918722D02*
X11392682Y-17899674D01*
X11392682Y-17899674D02*
X11411730Y-17890150D01*
X11411730Y-17890150D02*
X11440301Y-17890150D01*
X11440301Y-17890150D02*
X11459349Y-17899674D01*
X11535539Y-18099674D02*
X11545063Y-18090150D01*
X11545063Y-18090150D02*
X11564111Y-18061579D01*
X11564111Y-18061579D02*
X11573634Y-18042531D01*
X11573634Y-18042531D02*
X11583158Y-18013960D01*
X11583158Y-18013960D02*
X11592682Y-17966341D01*
X11592682Y-17966341D02*
X11592682Y-17928246D01*
X11592682Y-17928246D02*
X11583158Y-17880627D01*
X11583158Y-17880627D02*
X11573634Y-17852055D01*
X11573634Y-17852055D02*
X11564111Y-17833008D01*
X11564111Y-17833008D02*
X11545063Y-17804436D01*
X11545063Y-17804436D02*
X11535539Y-17794912D01*
M02*
