%TF.GenerationSoftware,KiCad,Pcbnew,8.0.3-8.0.3-0~ubuntu22.04.1*%
%TF.CreationDate,2024-07-10T15:47:32+03:00*%
%TF.ProjectId,supply-uv,73757070-6c79-42d7-9576-2e6b69636164,rev?*%
%TF.SameCoordinates,Original*%
%TF.FileFunction,Paste,Bot*%
%TF.FilePolarity,Positive*%
%FSLAX46Y46*%
G04 Gerber Fmt 4.6, Leading zero omitted, Abs format (unit mm)*
G04 Created by KiCad (PCBNEW 8.0.3-8.0.3-0~ubuntu22.04.1) date 2024-07-10 15:47:32*
%MOMM*%
%LPD*%
G01*
G04 APERTURE LIST*
G04 Aperture macros list*
%AMRoundRect*
0 Rectangle with rounded corners*
0 $1 Rounding radius*
0 $2 $3 $4 $5 $6 $7 $8 $9 X,Y pos of 4 corners*
0 Add a 4 corners polygon primitive as box body*
4,1,4,$2,$3,$4,$5,$6,$7,$8,$9,$2,$3,0*
0 Add four circle primitives for the rounded corners*
1,1,$1+$1,$2,$3*
1,1,$1+$1,$4,$5*
1,1,$1+$1,$6,$7*
1,1,$1+$1,$8,$9*
0 Add four rect primitives between the rounded corners*
20,1,$1+$1,$2,$3,$4,$5,0*
20,1,$1+$1,$4,$5,$6,$7,0*
20,1,$1+$1,$6,$7,$8,$9,0*
20,1,$1+$1,$8,$9,$2,$3,0*%
%AMFreePoly0*
4,1,14,0.385355,0.085355,0.400000,0.050000,0.400000,0.000711,0.385355,-0.034644,0.334644,-0.085355,0.299289,-0.100000,-0.350000,-0.100000,-0.385355,-0.085355,-0.400000,-0.050000,-0.400000,0.050000,-0.385355,0.085355,-0.350000,0.100000,0.350000,0.100000,0.385355,0.085355,0.385355,0.085355,$1*%
%AMFreePoly1*
4,1,14,0.334644,0.085355,0.385355,0.034644,0.400000,-0.000711,0.400000,-0.050000,0.385355,-0.085355,0.350000,-0.100000,-0.350000,-0.100000,-0.385355,-0.085355,-0.400000,-0.050000,-0.400000,0.050000,-0.385355,0.085355,-0.350000,0.100000,0.299289,0.100000,0.334644,0.085355,0.334644,0.085355,$1*%
%AMFreePoly2*
4,1,14,0.085355,0.385355,0.100000,0.350000,0.100000,-0.350000,0.085355,-0.385355,0.050000,-0.400000,0.000711,-0.400000,-0.034644,-0.385355,-0.085355,-0.334644,-0.100000,-0.299289,-0.100000,0.350000,-0.085355,0.385355,-0.050000,0.400000,0.050000,0.400000,0.085355,0.385355,0.085355,0.385355,$1*%
%AMFreePoly3*
4,1,14,0.085355,0.385355,0.100000,0.350000,0.100000,-0.299289,0.085355,-0.334644,0.034644,-0.385355,-0.000711,-0.400000,-0.050000,-0.400000,-0.085355,-0.385355,-0.100000,-0.350000,-0.100000,0.350000,-0.085355,0.385355,-0.050000,0.400000,0.050000,0.400000,0.085355,0.385355,0.085355,0.385355,$1*%
%AMFreePoly4*
4,1,14,0.385355,0.085355,0.400000,0.050000,0.400000,-0.050000,0.385355,-0.085355,0.350000,-0.100000,-0.350000,-0.100000,-0.385355,-0.085355,-0.400000,-0.050000,-0.400000,-0.000711,-0.385355,0.034644,-0.334644,0.085355,-0.299289,0.100000,0.350000,0.100000,0.385355,0.085355,0.385355,0.085355,$1*%
%AMFreePoly5*
4,1,14,0.385355,0.085355,0.400000,0.050000,0.400000,-0.050000,0.385355,-0.085355,0.350000,-0.100000,-0.299289,-0.100000,-0.334644,-0.085355,-0.385355,-0.034644,-0.400000,0.000711,-0.400000,0.050000,-0.385355,0.085355,-0.350000,0.100000,0.350000,0.100000,0.385355,0.085355,0.385355,0.085355,$1*%
%AMFreePoly6*
4,1,14,0.034644,0.385355,0.085355,0.334644,0.100000,0.299289,0.100000,-0.350000,0.085355,-0.385355,0.050000,-0.400000,-0.050000,-0.400000,-0.085355,-0.385355,-0.100000,-0.350000,-0.100000,0.350000,-0.085355,0.385355,-0.050000,0.400000,-0.000711,0.400000,0.034644,0.385355,0.034644,0.385355,$1*%
%AMFreePoly7*
4,1,14,0.085355,0.385355,0.100000,0.350000,0.100000,-0.350000,0.085355,-0.385355,0.050000,-0.400000,-0.050000,-0.400000,-0.085355,-0.385355,-0.100000,-0.350000,-0.100000,0.299289,-0.085355,0.334644,-0.034644,0.385355,0.000711,0.400000,0.050000,0.400000,0.085355,0.385355,0.085355,0.385355,$1*%
G04 Aperture macros list end*
%ADD10RoundRect,0.250000X0.262500X0.450000X-0.262500X0.450000X-0.262500X-0.450000X0.262500X-0.450000X0*%
%ADD11RoundRect,0.250000X-1.000000X-0.900000X1.000000X-0.900000X1.000000X0.900000X-1.000000X0.900000X0*%
%ADD12RoundRect,0.150000X-0.587500X-0.150000X0.587500X-0.150000X0.587500X0.150000X-0.587500X0.150000X0*%
%ADD13RoundRect,0.250000X0.450000X-0.262500X0.450000X0.262500X-0.450000X0.262500X-0.450000X-0.262500X0*%
%ADD14RoundRect,0.125000X0.125000X-0.125000X0.125000X0.125000X-0.125000X0.125000X-0.125000X-0.125000X0*%
%ADD15RoundRect,0.225000X0.225000X0.250000X-0.225000X0.250000X-0.225000X-0.250000X0.225000X-0.250000X0*%
%ADD16RoundRect,0.250000X-0.262500X-0.450000X0.262500X-0.450000X0.262500X0.450000X-0.262500X0.450000X0*%
%ADD17RoundRect,0.250000X-0.450000X0.262500X-0.450000X-0.262500X0.450000X-0.262500X0.450000X0.262500X0*%
%ADD18RoundRect,0.225000X-0.225000X-0.250000X0.225000X-0.250000X0.225000X0.250000X-0.225000X0.250000X0*%
%ADD19RoundRect,0.250000X-0.325000X-1.100000X0.325000X-1.100000X0.325000X1.100000X-0.325000X1.100000X0*%
%ADD20RoundRect,0.250000X0.362500X1.425000X-0.362500X1.425000X-0.362500X-1.425000X0.362500X-1.425000X0*%
%ADD21RoundRect,0.225000X-0.250000X0.225000X-0.250000X-0.225000X0.250000X-0.225000X0.250000X0.225000X0*%
%ADD22RoundRect,0.150000X0.512500X0.150000X-0.512500X0.150000X-0.512500X-0.150000X0.512500X-0.150000X0*%
%ADD23RoundRect,0.150000X0.587500X0.150000X-0.587500X0.150000X-0.587500X-0.150000X0.587500X-0.150000X0*%
%ADD24RoundRect,0.150000X-0.725000X-0.150000X0.725000X-0.150000X0.725000X0.150000X-0.725000X0.150000X0*%
%ADD25RoundRect,0.150000X-0.150000X0.512500X-0.150000X-0.512500X0.150000X-0.512500X0.150000X0.512500X0*%
%ADD26RoundRect,0.250000X0.537500X0.425000X-0.537500X0.425000X-0.537500X-0.425000X0.537500X-0.425000X0*%
%ADD27RoundRect,0.225000X0.250000X-0.225000X0.250000X0.225000X-0.250000X0.225000X-0.250000X-0.225000X0*%
%ADD28RoundRect,0.250000X-0.362500X-1.425000X0.362500X-1.425000X0.362500X1.425000X-0.362500X1.425000X0*%
%ADD29RoundRect,0.218750X-0.256250X0.218750X-0.256250X-0.218750X0.256250X-0.218750X0.256250X0.218750X0*%
%ADD30RoundRect,0.150000X0.875000X0.150000X-0.875000X0.150000X-0.875000X-0.150000X0.875000X-0.150000X0*%
%ADD31RoundRect,0.250000X-0.537500X-0.425000X0.537500X-0.425000X0.537500X0.425000X-0.537500X0.425000X0*%
%ADD32RoundRect,0.250000X0.425000X-0.537500X0.425000X0.537500X-0.425000X0.537500X-0.425000X-0.537500X0*%
%ADD33RoundRect,0.150000X0.150000X-0.587500X0.150000X0.587500X-0.150000X0.587500X-0.150000X-0.587500X0*%
%ADD34RoundRect,0.250000X-0.425000X0.537500X-0.425000X-0.537500X0.425000X-0.537500X0.425000X0.537500X0*%
%ADD35RoundRect,0.250000X-1.100000X0.325000X-1.100000X-0.325000X1.100000X-0.325000X1.100000X0.325000X0*%
%ADD36RoundRect,0.250000X-1.000000X-0.650000X1.000000X-0.650000X1.000000X0.650000X-1.000000X0.650000X0*%
%ADD37R,2.000000X3.400000*%
%ADD38RoundRect,0.150000X0.825000X0.150000X-0.825000X0.150000X-0.825000X-0.150000X0.825000X-0.150000X0*%
%ADD39RoundRect,0.250000X1.100000X-0.325000X1.100000X0.325000X-1.100000X0.325000X-1.100000X-0.325000X0*%
%ADD40RoundRect,0.150000X-0.512500X-0.150000X0.512500X-0.150000X0.512500X0.150000X-0.512500X0.150000X0*%
%ADD41RoundRect,0.172500X0.172500X-0.172500X0.172500X0.172500X-0.172500X0.172500X-0.172500X-0.172500X0*%
%ADD42FreePoly0,90.000000*%
%ADD43RoundRect,0.050000X0.050000X-0.350000X0.050000X0.350000X-0.050000X0.350000X-0.050000X-0.350000X0*%
%ADD44FreePoly1,90.000000*%
%ADD45FreePoly2,90.000000*%
%ADD46RoundRect,0.050000X0.350000X-0.050000X0.350000X0.050000X-0.350000X0.050000X-0.350000X-0.050000X0*%
%ADD47FreePoly3,90.000000*%
%ADD48FreePoly4,90.000000*%
%ADD49FreePoly5,90.000000*%
%ADD50FreePoly6,90.000000*%
%ADD51FreePoly7,90.000000*%
%ADD52RoundRect,0.250000X0.900000X-1.000000X0.900000X1.000000X-0.900000X1.000000X-0.900000X-1.000000X0*%
G04 APERTURE END LIST*
D10*
%TO.C,R26*%
X113812500Y-106600000D03*
X111987500Y-106600000D03*
%TD*%
D11*
%TO.C,D2*%
X142025000Y-78437500D03*
X146325000Y-78437500D03*
%TD*%
D12*
%TO.C,Q3*%
X175062500Y-62050000D03*
X175062500Y-60150000D03*
X176937500Y-61100000D03*
%TD*%
D13*
%TO.C,R46*%
X106300000Y-159312500D03*
X106300000Y-157487500D03*
%TD*%
D10*
%TO.C,R76*%
X159312500Y-134600000D03*
X157487500Y-134600000D03*
%TD*%
D14*
%TO.C,D24*%
X155300000Y-132900000D03*
X155300000Y-130700000D03*
%TD*%
D15*
%TO.C,C76*%
X159975000Y-136400000D03*
X158425000Y-136400000D03*
%TD*%
D16*
%TO.C,R55*%
X117287500Y-149300000D03*
X119112500Y-149300000D03*
%TD*%
D17*
%TO.C,R19*%
X171800000Y-92287500D03*
X171800000Y-94112500D03*
%TD*%
D18*
%TO.C,C28*%
X112425000Y-108500000D03*
X113975000Y-108500000D03*
%TD*%
D17*
%TO.C,R45*%
X65800000Y-226087500D03*
X65800000Y-227912500D03*
%TD*%
D19*
%TO.C,C47*%
X35025000Y-226400000D03*
X37975000Y-226400000D03*
%TD*%
D20*
%TO.C,R14*%
X138037500Y-69837500D03*
X132112500Y-69837500D03*
%TD*%
D13*
%TO.C,R29*%
X115800000Y-108612500D03*
X115800000Y-106787500D03*
%TD*%
D21*
%TO.C,C8*%
X159992424Y-73579924D03*
X159992424Y-75129924D03*
%TD*%
D22*
%TO.C,U10*%
X108237500Y-104650000D03*
X108237500Y-105600000D03*
X108237500Y-106550000D03*
X105962500Y-106550000D03*
X105962500Y-104650000D03*
%TD*%
D10*
%TO.C,R56*%
X134112500Y-126700000D03*
X132287500Y-126700000D03*
%TD*%
D16*
%TO.C,R32*%
X45887500Y-162600000D03*
X47712500Y-162600000D03*
%TD*%
%TO.C,R54*%
X113587500Y-149300000D03*
X115412500Y-149300000D03*
%TD*%
D21*
%TO.C,C75*%
X167400000Y-128225000D03*
X167400000Y-129775000D03*
%TD*%
D17*
%TO.C,R28*%
X76575000Y-85325000D03*
X76575000Y-87150000D03*
%TD*%
D13*
%TO.C,R69*%
X169500000Y-126412500D03*
X169500000Y-124587500D03*
%TD*%
D23*
%TO.C,Q12*%
X150637500Y-133050000D03*
X150637500Y-134950000D03*
X148762500Y-134000000D03*
%TD*%
D24*
%TO.C,U17*%
X113200000Y-155115000D03*
X113200000Y-153845000D03*
X113200000Y-152575000D03*
X113200000Y-151305000D03*
X118350000Y-151305000D03*
X118350000Y-152575000D03*
X118350000Y-153845000D03*
X118350000Y-155115000D03*
%TD*%
D17*
%TO.C,R44*%
X72100000Y-230487500D03*
X72100000Y-232312500D03*
%TD*%
D18*
%TO.C,C32*%
X51225000Y-156700000D03*
X52775000Y-156700000D03*
%TD*%
D25*
%TO.C,U2*%
X135375000Y-74662500D03*
X136325000Y-74662500D03*
X137275000Y-74662500D03*
X137275000Y-76937500D03*
X136325000Y-76937500D03*
X135375000Y-76937500D03*
%TD*%
D20*
%TO.C,R66*%
X142362500Y-151400000D03*
X136437500Y-151400000D03*
%TD*%
D26*
%TO.C,C19*%
X159527500Y-106625000D03*
X156652500Y-106625000D03*
%TD*%
D27*
%TO.C,C71*%
X146800000Y-147075000D03*
X146800000Y-145525000D03*
%TD*%
D28*
%TO.C,R41*%
X40837500Y-159100000D03*
X46762500Y-159100000D03*
%TD*%
D18*
%TO.C,C73*%
X160325000Y-131075000D03*
X161875000Y-131075000D03*
%TD*%
D26*
%TO.C,C20*%
X175537500Y-89100000D03*
X172662500Y-89100000D03*
%TD*%
D15*
%TO.C,C25*%
X120475000Y-78400000D03*
X118925000Y-78400000D03*
%TD*%
D16*
%TO.C,R49*%
X118587500Y-136600000D03*
X120412500Y-136600000D03*
%TD*%
D13*
%TO.C,R12*%
X172800000Y-62112500D03*
X172800000Y-60287500D03*
%TD*%
D17*
%TO.C,R64*%
X153600000Y-146887500D03*
X153600000Y-148712500D03*
%TD*%
D21*
%TO.C,C1*%
X165700000Y-119925000D03*
X165700000Y-121475000D03*
%TD*%
D16*
%TO.C,R17*%
X124612500Y-81600000D03*
X126437500Y-81600000D03*
%TD*%
%TO.C,R18*%
X160987500Y-95700000D03*
X162812500Y-95700000D03*
%TD*%
D27*
%TO.C,C72*%
X142700000Y-143575000D03*
X142700000Y-142025000D03*
%TD*%
D25*
%TO.C,U9*%
X118750000Y-80262500D03*
X120650000Y-80262500D03*
X119700000Y-82537500D03*
%TD*%
D14*
%TO.C,D25*%
X157500000Y-132900000D03*
X157500000Y-130700000D03*
%TD*%
D15*
%TO.C,C6*%
X144875000Y-75237500D03*
X143325000Y-75237500D03*
%TD*%
D29*
%TO.C,L3*%
X116700000Y-97212500D03*
X116700000Y-98787500D03*
%TD*%
D13*
%TO.C,R11*%
X161992424Y-75167424D03*
X161992424Y-73342424D03*
%TD*%
D27*
%TO.C,C50*%
X72000000Y-228475000D03*
X72000000Y-226925000D03*
%TD*%
D18*
%TO.C,C38*%
X80075000Y-139265000D03*
X81625000Y-139265000D03*
%TD*%
D16*
%TO.C,R8*%
X131762500Y-75837500D03*
X133587500Y-75837500D03*
%TD*%
D18*
%TO.C,C21*%
X124650000Y-68800000D03*
X126200000Y-68800000D03*
%TD*%
D30*
%TO.C,U12*%
X75900000Y-129620000D03*
X75900000Y-130890000D03*
X75900000Y-132160000D03*
X75900000Y-133430000D03*
X75900000Y-134700000D03*
X75900000Y-135970000D03*
X75900000Y-137240000D03*
X75900000Y-138510000D03*
X66600000Y-138510000D03*
X66600000Y-137240000D03*
X66600000Y-135970000D03*
X66600000Y-134700000D03*
X66600000Y-133430000D03*
X66600000Y-132160000D03*
X66600000Y-130890000D03*
X66600000Y-129620000D03*
%TD*%
D13*
%TO.C,R22*%
X108300000Y-99512500D03*
X108300000Y-97687500D03*
%TD*%
%TO.C,R67*%
X144900000Y-147212500D03*
X144900000Y-145387500D03*
%TD*%
D28*
%TO.C,R60*%
X101537500Y-162400000D03*
X107462500Y-162400000D03*
%TD*%
D31*
%TO.C,C27*%
X174862500Y-111400000D03*
X177737500Y-111400000D03*
%TD*%
D13*
%TO.C,R21*%
X116500000Y-82312500D03*
X116500000Y-80487500D03*
%TD*%
D10*
%TO.C,R38*%
X81962500Y-137265000D03*
X80137500Y-137265000D03*
%TD*%
D12*
%TO.C,Q2*%
X164154924Y-75204924D03*
X164154924Y-73304924D03*
X166029924Y-74254924D03*
%TD*%
D32*
%TO.C,C17*%
X165400000Y-90637500D03*
X165400000Y-87762500D03*
%TD*%
D15*
%TO.C,C64*%
X117250000Y-147100000D03*
X115700000Y-147100000D03*
%TD*%
D33*
%TO.C,Q9*%
X134150000Y-124437500D03*
X132250000Y-124437500D03*
X133200000Y-122562500D03*
%TD*%
D13*
%TO.C,R42*%
X68900000Y-235712500D03*
X68900000Y-233887500D03*
%TD*%
D12*
%TO.C,Q8*%
X125262500Y-143950000D03*
X125262500Y-142050000D03*
X127137500Y-143000000D03*
%TD*%
D34*
%TO.C,C49*%
X54200000Y-240662500D03*
X54200000Y-243537500D03*
%TD*%
D27*
%TO.C,C70*%
X149700000Y-148675000D03*
X149700000Y-147125000D03*
%TD*%
D35*
%TO.C,C5*%
X143275000Y-69762500D03*
X143275000Y-72712500D03*
%TD*%
D16*
%TO.C,R33*%
X76987500Y-194200000D03*
X78812500Y-194200000D03*
%TD*%
D18*
%TO.C,C36*%
X79875000Y-133265000D03*
X81425000Y-133265000D03*
%TD*%
D17*
%TO.C,R62*%
X146400000Y-132887500D03*
X146400000Y-134712500D03*
%TD*%
D27*
%TO.C,C51*%
X56400000Y-242675000D03*
X56400000Y-241125000D03*
%TD*%
D13*
%TO.C,R65*%
X151500000Y-148712500D03*
X151500000Y-146887500D03*
%TD*%
D22*
%TO.C,U20*%
X140837500Y-145350000D03*
X140837500Y-146300000D03*
X140837500Y-147250000D03*
X138562500Y-147250000D03*
X138562500Y-145350000D03*
%TD*%
D17*
%TO.C,R20*%
X113500000Y-84287500D03*
X113500000Y-86112500D03*
%TD*%
%TO.C,R13*%
X138825000Y-60787500D03*
X138825000Y-62612500D03*
%TD*%
D13*
%TO.C,R51*%
X148500000Y-124412500D03*
X148500000Y-122587500D03*
%TD*%
D36*
%TO.C,D9*%
X155490000Y-99025000D03*
X159490000Y-99025000D03*
%TD*%
D27*
%TO.C,C55*%
X109800000Y-151975000D03*
X109800000Y-150425000D03*
%TD*%
D11*
%TO.C,D19*%
X102250000Y-154000000D03*
X106550000Y-154000000D03*
%TD*%
D16*
%TO.C,R37*%
X80137500Y-135165000D03*
X81962500Y-135165000D03*
%TD*%
D37*
%TO.C,L5*%
X157150000Y-154600000D03*
X151450000Y-154600000D03*
%TD*%
D17*
%TO.C,R1*%
X140075000Y-69325000D03*
X140075000Y-71150000D03*
%TD*%
D18*
%TO.C,C35*%
X79225000Y-150700000D03*
X80775000Y-150700000D03*
%TD*%
%TO.C,C34*%
X66575000Y-140665000D03*
X68125000Y-140665000D03*
%TD*%
D12*
%TO.C,Q4*%
X118062500Y-108650000D03*
X118062500Y-106750000D03*
X119937500Y-107700000D03*
%TD*%
D17*
%TO.C,R53*%
X146500000Y-126887500D03*
X146500000Y-128712500D03*
%TD*%
D38*
%TO.C,U1*%
X163275000Y-118495000D03*
X163275000Y-119765000D03*
X163275000Y-121035000D03*
X163275000Y-122305000D03*
X158325000Y-122305000D03*
X158325000Y-121035000D03*
X158325000Y-119765000D03*
X158325000Y-118495000D03*
%TD*%
D16*
%TO.C,R10*%
X135362500Y-79337500D03*
X137187500Y-79337500D03*
%TD*%
D21*
%TO.C,C2*%
X156200000Y-119525000D03*
X156200000Y-121075000D03*
%TD*%
D39*
%TO.C,C11*%
X159400000Y-88175000D03*
X159400000Y-85225000D03*
%TD*%
D23*
%TO.C,Q7*%
X146175000Y-122450000D03*
X146175000Y-124350000D03*
X144300000Y-123400000D03*
%TD*%
D13*
%TO.C,R50*%
X121200000Y-132212500D03*
X121200000Y-130387500D03*
%TD*%
D27*
%TO.C,C29*%
X110300000Y-106375000D03*
X110300000Y-104825000D03*
%TD*%
D40*
%TO.C,U14*%
X74362500Y-228650000D03*
X74362500Y-226750000D03*
X76637500Y-227700000D03*
%TD*%
D16*
%TO.C,R36*%
X79187500Y-148700000D03*
X81012500Y-148700000D03*
%TD*%
D27*
%TO.C,C59*%
X112600000Y-133375000D03*
X112600000Y-131825000D03*
%TD*%
D10*
%TO.C,R27*%
X113812500Y-104400000D03*
X111987500Y-104400000D03*
%TD*%
D41*
%TO.C,U22*%
X160475000Y-128300000D03*
X161325000Y-128300000D03*
X160475000Y-127450000D03*
X161325000Y-127450000D03*
D42*
X161700000Y-129325000D03*
D43*
X161300000Y-129325000D03*
X160900000Y-129325000D03*
X160500000Y-129325000D03*
D44*
X160100000Y-129325000D03*
D45*
X159450000Y-128675000D03*
D46*
X159450000Y-128275000D03*
X159450000Y-127875000D03*
X159450000Y-127475000D03*
D47*
X159450000Y-127075000D03*
D48*
X160100000Y-126425000D03*
D43*
X160500000Y-126425000D03*
X160900000Y-126425000D03*
X161300000Y-126425000D03*
D49*
X161700000Y-126425000D03*
D50*
X162350000Y-127075000D03*
D46*
X162350000Y-127475000D03*
X162350000Y-127875000D03*
X162350000Y-128275000D03*
D51*
X162350000Y-128675000D03*
%TD*%
D17*
%TO.C,R31*%
X75400000Y-196687500D03*
X75400000Y-198512500D03*
%TD*%
D13*
%TO.C,R30*%
X127100000Y-104712500D03*
X127100000Y-102887500D03*
%TD*%
%TO.C,R43*%
X68900000Y-232212500D03*
X68900000Y-230387500D03*
%TD*%
D15*
%TO.C,C9*%
X174375000Y-64000000D03*
X172825000Y-64000000D03*
%TD*%
D52*
%TO.C,D14*%
X50900000Y-164550000D03*
X50900000Y-160250000D03*
%TD*%
D17*
%TO.C,R16*%
X129300000Y-81487500D03*
X129300000Y-83312500D03*
%TD*%
M02*
