%TF.GenerationSoftware,KiCad,Pcbnew,7.0.6-7.0.6~ubuntu22.04.1*%
%TF.CreationDate,2023-08-07T15:18:18+03:00*%
%TF.ProjectId,supply-uv,73757070-6c79-42d7-9576-2e6b69636164,rev?*%
%TF.SameCoordinates,Original*%
%TF.FileFunction,Legend,Top*%
%TF.FilePolarity,Positive*%
%FSLAX46Y46*%
G04 Gerber Fmt 4.6, Leading zero omitted, Abs format (unit mm)*
G04 Created by KiCad (PCBNEW 7.0.6-7.0.6~ubuntu22.04.1) date 2023-08-07 15:18:18*
%MOMM*%
%LPD*%
G01*
G04 APERTURE LIST*
%ADD10C,0.150000*%
%ADD11C,0.120000*%
G04 APERTURE END LIST*
D10*
X126109524Y-112559819D02*
X126109524Y-111559819D01*
X126109524Y-111559819D02*
X126490476Y-111559819D01*
X126490476Y-111559819D02*
X126585714Y-111607438D01*
X126585714Y-111607438D02*
X126633333Y-111655057D01*
X126633333Y-111655057D02*
X126680952Y-111750295D01*
X126680952Y-111750295D02*
X126680952Y-111893152D01*
X126680952Y-111893152D02*
X126633333Y-111988390D01*
X126633333Y-111988390D02*
X126585714Y-112036009D01*
X126585714Y-112036009D02*
X126490476Y-112083628D01*
X126490476Y-112083628D02*
X126109524Y-112083628D01*
X127442857Y-112036009D02*
X127109524Y-112036009D01*
X127109524Y-112559819D02*
X127109524Y-111559819D01*
X127109524Y-111559819D02*
X127585714Y-111559819D01*
X128538095Y-112464580D02*
X128490476Y-112512200D01*
X128490476Y-112512200D02*
X128347619Y-112559819D01*
X128347619Y-112559819D02*
X128252381Y-112559819D01*
X128252381Y-112559819D02*
X128109524Y-112512200D01*
X128109524Y-112512200D02*
X128014286Y-112416961D01*
X128014286Y-112416961D02*
X127966667Y-112321723D01*
X127966667Y-112321723D02*
X127919048Y-112131247D01*
X127919048Y-112131247D02*
X127919048Y-111988390D01*
X127919048Y-111988390D02*
X127966667Y-111797914D01*
X127966667Y-111797914D02*
X128014286Y-111702676D01*
X128014286Y-111702676D02*
X128109524Y-111607438D01*
X128109524Y-111607438D02*
X128252381Y-111559819D01*
X128252381Y-111559819D02*
X128347619Y-111559819D01*
X128347619Y-111559819D02*
X128490476Y-111607438D01*
X128490476Y-111607438D02*
X128538095Y-111655057D01*
X126680952Y-114169819D02*
X126347619Y-113693628D01*
X126109524Y-114169819D02*
X126109524Y-113169819D01*
X126109524Y-113169819D02*
X126490476Y-113169819D01*
X126490476Y-113169819D02*
X126585714Y-113217438D01*
X126585714Y-113217438D02*
X126633333Y-113265057D01*
X126633333Y-113265057D02*
X126680952Y-113360295D01*
X126680952Y-113360295D02*
X126680952Y-113503152D01*
X126680952Y-113503152D02*
X126633333Y-113598390D01*
X126633333Y-113598390D02*
X126585714Y-113646009D01*
X126585714Y-113646009D02*
X126490476Y-113693628D01*
X126490476Y-113693628D02*
X126109524Y-113693628D01*
X127109524Y-114169819D02*
X127109524Y-113169819D01*
X127109524Y-113169819D02*
X127347619Y-113169819D01*
X127347619Y-113169819D02*
X127490476Y-113217438D01*
X127490476Y-113217438D02*
X127585714Y-113312676D01*
X127585714Y-113312676D02*
X127633333Y-113407914D01*
X127633333Y-113407914D02*
X127680952Y-113598390D01*
X127680952Y-113598390D02*
X127680952Y-113741247D01*
X127680952Y-113741247D02*
X127633333Y-113931723D01*
X127633333Y-113931723D02*
X127585714Y-114026961D01*
X127585714Y-114026961D02*
X127490476Y-114122200D01*
X127490476Y-114122200D02*
X127347619Y-114169819D01*
X127347619Y-114169819D02*
X127109524Y-114169819D01*
X128300000Y-113693628D02*
X128300000Y-114169819D01*
X127966667Y-113169819D02*
X128300000Y-113693628D01*
X128300000Y-113693628D02*
X128633333Y-113169819D01*
X66060588Y-105804938D02*
X65965350Y-105757319D01*
X65965350Y-105757319D02*
X65822493Y-105757319D01*
X65822493Y-105757319D02*
X65679636Y-105804938D01*
X65679636Y-105804938D02*
X65584398Y-105900176D01*
X65584398Y-105900176D02*
X65536779Y-105995414D01*
X65536779Y-105995414D02*
X65489160Y-106185890D01*
X65489160Y-106185890D02*
X65489160Y-106328747D01*
X65489160Y-106328747D02*
X65536779Y-106519223D01*
X65536779Y-106519223D02*
X65584398Y-106614461D01*
X65584398Y-106614461D02*
X65679636Y-106709700D01*
X65679636Y-106709700D02*
X65822493Y-106757319D01*
X65822493Y-106757319D02*
X65917731Y-106757319D01*
X65917731Y-106757319D02*
X66060588Y-106709700D01*
X66060588Y-106709700D02*
X66108207Y-106662080D01*
X66108207Y-106662080D02*
X66108207Y-106328747D01*
X66108207Y-106328747D02*
X65917731Y-106328747D01*
X66536779Y-106757319D02*
X66536779Y-105757319D01*
X66536779Y-105757319D02*
X67108207Y-106757319D01*
X67108207Y-106757319D02*
X67108207Y-105757319D01*
X67584398Y-106757319D02*
X67584398Y-105757319D01*
X67584398Y-105757319D02*
X67822493Y-105757319D01*
X67822493Y-105757319D02*
X67965350Y-105804938D01*
X67965350Y-105804938D02*
X68060588Y-105900176D01*
X68060588Y-105900176D02*
X68108207Y-105995414D01*
X68108207Y-105995414D02*
X68155826Y-106185890D01*
X68155826Y-106185890D02*
X68155826Y-106328747D01*
X68155826Y-106328747D02*
X68108207Y-106519223D01*
X68108207Y-106519223D02*
X68060588Y-106614461D01*
X68060588Y-106614461D02*
X67965350Y-106709700D01*
X67965350Y-106709700D02*
X67822493Y-106757319D01*
X67822493Y-106757319D02*
X67584398Y-106757319D01*
X70212379Y-119209566D02*
X70974284Y-119209566D01*
X70593331Y-119590519D02*
X70593331Y-118828614D01*
X70212379Y-113265966D02*
X70974284Y-113265966D01*
X114889160Y-113412200D02*
X115032017Y-113459819D01*
X115032017Y-113459819D02*
X115270112Y-113459819D01*
X115270112Y-113459819D02*
X115365350Y-113412200D01*
X115365350Y-113412200D02*
X115412969Y-113364580D01*
X115412969Y-113364580D02*
X115460588Y-113269342D01*
X115460588Y-113269342D02*
X115460588Y-113174104D01*
X115460588Y-113174104D02*
X115412969Y-113078866D01*
X115412969Y-113078866D02*
X115365350Y-113031247D01*
X115365350Y-113031247D02*
X115270112Y-112983628D01*
X115270112Y-112983628D02*
X115079636Y-112936009D01*
X115079636Y-112936009D02*
X114984398Y-112888390D01*
X114984398Y-112888390D02*
X114936779Y-112840771D01*
X114936779Y-112840771D02*
X114889160Y-112745533D01*
X114889160Y-112745533D02*
X114889160Y-112650295D01*
X114889160Y-112650295D02*
X114936779Y-112555057D01*
X114936779Y-112555057D02*
X114984398Y-112507438D01*
X114984398Y-112507438D02*
X115079636Y-112459819D01*
X115079636Y-112459819D02*
X115317731Y-112459819D01*
X115317731Y-112459819D02*
X115460588Y-112507438D01*
X115746303Y-112459819D02*
X116317731Y-112459819D01*
X116032017Y-113459819D02*
X116032017Y-112459819D01*
X116984398Y-112936009D02*
X117127255Y-112983628D01*
X117127255Y-112983628D02*
X117174874Y-113031247D01*
X117174874Y-113031247D02*
X117222493Y-113126485D01*
X117222493Y-113126485D02*
X117222493Y-113269342D01*
X117222493Y-113269342D02*
X117174874Y-113364580D01*
X117174874Y-113364580D02*
X117127255Y-113412200D01*
X117127255Y-113412200D02*
X117032017Y-113459819D01*
X117032017Y-113459819D02*
X116651065Y-113459819D01*
X116651065Y-113459819D02*
X116651065Y-112459819D01*
X116651065Y-112459819D02*
X116984398Y-112459819D01*
X116984398Y-112459819D02*
X117079636Y-112507438D01*
X117079636Y-112507438D02*
X117127255Y-112555057D01*
X117127255Y-112555057D02*
X117174874Y-112650295D01*
X117174874Y-112650295D02*
X117174874Y-112745533D01*
X117174874Y-112745533D02*
X117127255Y-112840771D01*
X117127255Y-112840771D02*
X117079636Y-112888390D01*
X117079636Y-112888390D02*
X116984398Y-112936009D01*
X116984398Y-112936009D02*
X116651065Y-112936009D01*
X115127255Y-114069819D02*
X115317731Y-114069819D01*
X115317731Y-114069819D02*
X115412969Y-114117438D01*
X115412969Y-114117438D02*
X115508207Y-114212676D01*
X115508207Y-114212676D02*
X115555826Y-114403152D01*
X115555826Y-114403152D02*
X115555826Y-114736485D01*
X115555826Y-114736485D02*
X115508207Y-114926961D01*
X115508207Y-114926961D02*
X115412969Y-115022200D01*
X115412969Y-115022200D02*
X115317731Y-115069819D01*
X115317731Y-115069819D02*
X115127255Y-115069819D01*
X115127255Y-115069819D02*
X115032017Y-115022200D01*
X115032017Y-115022200D02*
X114936779Y-114926961D01*
X114936779Y-114926961D02*
X114889160Y-114736485D01*
X114889160Y-114736485D02*
X114889160Y-114403152D01*
X114889160Y-114403152D02*
X114936779Y-114212676D01*
X114936779Y-114212676D02*
X115032017Y-114117438D01*
X115032017Y-114117438D02*
X115127255Y-114069819D01*
X115984398Y-115069819D02*
X115984398Y-114069819D01*
X116555826Y-115069819D02*
X116127255Y-114498390D01*
X116555826Y-114069819D02*
X115984398Y-114641247D01*
X127460588Y-147004938D02*
X127365350Y-146957319D01*
X127365350Y-146957319D02*
X127222493Y-146957319D01*
X127222493Y-146957319D02*
X127079636Y-147004938D01*
X127079636Y-147004938D02*
X126984398Y-147100176D01*
X126984398Y-147100176D02*
X126936779Y-147195414D01*
X126936779Y-147195414D02*
X126889160Y-147385890D01*
X126889160Y-147385890D02*
X126889160Y-147528747D01*
X126889160Y-147528747D02*
X126936779Y-147719223D01*
X126936779Y-147719223D02*
X126984398Y-147814461D01*
X126984398Y-147814461D02*
X127079636Y-147909700D01*
X127079636Y-147909700D02*
X127222493Y-147957319D01*
X127222493Y-147957319D02*
X127317731Y-147957319D01*
X127317731Y-147957319D02*
X127460588Y-147909700D01*
X127460588Y-147909700D02*
X127508207Y-147862080D01*
X127508207Y-147862080D02*
X127508207Y-147528747D01*
X127508207Y-147528747D02*
X127317731Y-147528747D01*
X127936779Y-147957319D02*
X127936779Y-146957319D01*
X127936779Y-146957319D02*
X128508207Y-147957319D01*
X128508207Y-147957319D02*
X128508207Y-146957319D01*
X128984398Y-147957319D02*
X128984398Y-146957319D01*
X128984398Y-146957319D02*
X129222493Y-146957319D01*
X129222493Y-146957319D02*
X129365350Y-147004938D01*
X129365350Y-147004938D02*
X129460588Y-147100176D01*
X129460588Y-147100176D02*
X129508207Y-147195414D01*
X129508207Y-147195414D02*
X129555826Y-147385890D01*
X129555826Y-147385890D02*
X129555826Y-147528747D01*
X129555826Y-147528747D02*
X129508207Y-147719223D01*
X129508207Y-147719223D02*
X129460588Y-147814461D01*
X129460588Y-147814461D02*
X129365350Y-147909700D01*
X129365350Y-147909700D02*
X129222493Y-147957319D01*
X129222493Y-147957319D02*
X128984398Y-147957319D01*
X117133333Y-120012200D02*
X117276190Y-120059819D01*
X117276190Y-120059819D02*
X117514285Y-120059819D01*
X117514285Y-120059819D02*
X117609523Y-120012200D01*
X117609523Y-120012200D02*
X117657142Y-119964580D01*
X117657142Y-119964580D02*
X117704761Y-119869342D01*
X117704761Y-119869342D02*
X117704761Y-119774104D01*
X117704761Y-119774104D02*
X117657142Y-119678866D01*
X117657142Y-119678866D02*
X117609523Y-119631247D01*
X117609523Y-119631247D02*
X117514285Y-119583628D01*
X117514285Y-119583628D02*
X117323809Y-119536009D01*
X117323809Y-119536009D02*
X117228571Y-119488390D01*
X117228571Y-119488390D02*
X117180952Y-119440771D01*
X117180952Y-119440771D02*
X117133333Y-119345533D01*
X117133333Y-119345533D02*
X117133333Y-119250295D01*
X117133333Y-119250295D02*
X117180952Y-119155057D01*
X117180952Y-119155057D02*
X117228571Y-119107438D01*
X117228571Y-119107438D02*
X117323809Y-119059819D01*
X117323809Y-119059819D02*
X117561904Y-119059819D01*
X117561904Y-119059819D02*
X117704761Y-119107438D01*
X117990476Y-119059819D02*
X118561904Y-119059819D01*
X118276190Y-120059819D02*
X118276190Y-119059819D01*
X119228571Y-119536009D02*
X119371428Y-119583628D01*
X119371428Y-119583628D02*
X119419047Y-119631247D01*
X119419047Y-119631247D02*
X119466666Y-119726485D01*
X119466666Y-119726485D02*
X119466666Y-119869342D01*
X119466666Y-119869342D02*
X119419047Y-119964580D01*
X119419047Y-119964580D02*
X119371428Y-120012200D01*
X119371428Y-120012200D02*
X119276190Y-120059819D01*
X119276190Y-120059819D02*
X118895238Y-120059819D01*
X118895238Y-120059819D02*
X118895238Y-119059819D01*
X118895238Y-119059819D02*
X119228571Y-119059819D01*
X119228571Y-119059819D02*
X119323809Y-119107438D01*
X119323809Y-119107438D02*
X119371428Y-119155057D01*
X119371428Y-119155057D02*
X119419047Y-119250295D01*
X119419047Y-119250295D02*
X119419047Y-119345533D01*
X119419047Y-119345533D02*
X119371428Y-119440771D01*
X119371428Y-119440771D02*
X119323809Y-119488390D01*
X119323809Y-119488390D02*
X119228571Y-119536009D01*
X119228571Y-119536009D02*
X118895238Y-119536009D01*
X117561905Y-121146009D02*
X117895238Y-121146009D01*
X118038095Y-121669819D02*
X117561905Y-121669819D01*
X117561905Y-121669819D02*
X117561905Y-120669819D01*
X117561905Y-120669819D02*
X118038095Y-120669819D01*
X118466667Y-121669819D02*
X118466667Y-120669819D01*
X118466667Y-120669819D02*
X119038095Y-121669819D01*
X119038095Y-121669819D02*
X119038095Y-120669819D01*
X127086779Y-105826366D02*
X127848684Y-105826366D01*
X127467731Y-106207319D02*
X127467731Y-105445414D01*
X128386779Y-53519819D02*
X128386779Y-52519819D01*
X128386779Y-52519819D02*
X128767731Y-52519819D01*
X128767731Y-52519819D02*
X128862969Y-52567438D01*
X128862969Y-52567438D02*
X128910588Y-52615057D01*
X128910588Y-52615057D02*
X128958207Y-52710295D01*
X128958207Y-52710295D02*
X128958207Y-52853152D01*
X128958207Y-52853152D02*
X128910588Y-52948390D01*
X128910588Y-52948390D02*
X128862969Y-52996009D01*
X128862969Y-52996009D02*
X128767731Y-53043628D01*
X128767731Y-53043628D02*
X128386779Y-53043628D01*
X129386779Y-52996009D02*
X129720112Y-52996009D01*
X129862969Y-53519819D02*
X129386779Y-53519819D01*
X129386779Y-53519819D02*
X129386779Y-52519819D01*
X129386779Y-52519819D02*
X129862969Y-52519819D01*
X112633333Y-96612200D02*
X112776190Y-96659819D01*
X112776190Y-96659819D02*
X113014285Y-96659819D01*
X113014285Y-96659819D02*
X113109523Y-96612200D01*
X113109523Y-96612200D02*
X113157142Y-96564580D01*
X113157142Y-96564580D02*
X113204761Y-96469342D01*
X113204761Y-96469342D02*
X113204761Y-96374104D01*
X113204761Y-96374104D02*
X113157142Y-96278866D01*
X113157142Y-96278866D02*
X113109523Y-96231247D01*
X113109523Y-96231247D02*
X113014285Y-96183628D01*
X113014285Y-96183628D02*
X112823809Y-96136009D01*
X112823809Y-96136009D02*
X112728571Y-96088390D01*
X112728571Y-96088390D02*
X112680952Y-96040771D01*
X112680952Y-96040771D02*
X112633333Y-95945533D01*
X112633333Y-95945533D02*
X112633333Y-95850295D01*
X112633333Y-95850295D02*
X112680952Y-95755057D01*
X112680952Y-95755057D02*
X112728571Y-95707438D01*
X112728571Y-95707438D02*
X112823809Y-95659819D01*
X112823809Y-95659819D02*
X113061904Y-95659819D01*
X113061904Y-95659819D02*
X113204761Y-95707438D01*
X113490476Y-95659819D02*
X114061904Y-95659819D01*
X113776190Y-96659819D02*
X113776190Y-95659819D01*
X114728571Y-96136009D02*
X114871428Y-96183628D01*
X114871428Y-96183628D02*
X114919047Y-96231247D01*
X114919047Y-96231247D02*
X114966666Y-96326485D01*
X114966666Y-96326485D02*
X114966666Y-96469342D01*
X114966666Y-96469342D02*
X114919047Y-96564580D01*
X114919047Y-96564580D02*
X114871428Y-96612200D01*
X114871428Y-96612200D02*
X114776190Y-96659819D01*
X114776190Y-96659819D02*
X114395238Y-96659819D01*
X114395238Y-96659819D02*
X114395238Y-95659819D01*
X114395238Y-95659819D02*
X114728571Y-95659819D01*
X114728571Y-95659819D02*
X114823809Y-95707438D01*
X114823809Y-95707438D02*
X114871428Y-95755057D01*
X114871428Y-95755057D02*
X114919047Y-95850295D01*
X114919047Y-95850295D02*
X114919047Y-95945533D01*
X114919047Y-95945533D02*
X114871428Y-96040771D01*
X114871428Y-96040771D02*
X114823809Y-96088390D01*
X114823809Y-96088390D02*
X114728571Y-96136009D01*
X114728571Y-96136009D02*
X114395238Y-96136009D01*
X112466667Y-97269819D02*
X112800000Y-98269819D01*
X112800000Y-98269819D02*
X113133333Y-97269819D01*
X114038095Y-98174580D02*
X113990476Y-98222200D01*
X113990476Y-98222200D02*
X113847619Y-98269819D01*
X113847619Y-98269819D02*
X113752381Y-98269819D01*
X113752381Y-98269819D02*
X113609524Y-98222200D01*
X113609524Y-98222200D02*
X113514286Y-98126961D01*
X113514286Y-98126961D02*
X113466667Y-98031723D01*
X113466667Y-98031723D02*
X113419048Y-97841247D01*
X113419048Y-97841247D02*
X113419048Y-97698390D01*
X113419048Y-97698390D02*
X113466667Y-97507914D01*
X113466667Y-97507914D02*
X113514286Y-97412676D01*
X113514286Y-97412676D02*
X113609524Y-97317438D01*
X113609524Y-97317438D02*
X113752381Y-97269819D01*
X113752381Y-97269819D02*
X113847619Y-97269819D01*
X113847619Y-97269819D02*
X113990476Y-97317438D01*
X113990476Y-97317438D02*
X114038095Y-97365057D01*
X115038095Y-98174580D02*
X114990476Y-98222200D01*
X114990476Y-98222200D02*
X114847619Y-98269819D01*
X114847619Y-98269819D02*
X114752381Y-98269819D01*
X114752381Y-98269819D02*
X114609524Y-98222200D01*
X114609524Y-98222200D02*
X114514286Y-98126961D01*
X114514286Y-98126961D02*
X114466667Y-98031723D01*
X114466667Y-98031723D02*
X114419048Y-97841247D01*
X114419048Y-97841247D02*
X114419048Y-97698390D01*
X114419048Y-97698390D02*
X114466667Y-97507914D01*
X114466667Y-97507914D02*
X114514286Y-97412676D01*
X114514286Y-97412676D02*
X114609524Y-97317438D01*
X114609524Y-97317438D02*
X114752381Y-97269819D01*
X114752381Y-97269819D02*
X114847619Y-97269819D01*
X114847619Y-97269819D02*
X114990476Y-97317438D01*
X114990476Y-97317438D02*
X115038095Y-97365057D01*
X126536779Y-141576366D02*
X127298684Y-141576366D01*
X126917731Y-141957319D02*
X126917731Y-141195414D01*
X128203445Y-141290652D02*
X128203445Y-141957319D01*
X127965350Y-140909700D02*
X127727255Y-141623985D01*
X127727255Y-141623985D02*
X128346302Y-141623985D01*
X128917731Y-140957319D02*
X129012969Y-140957319D01*
X129012969Y-140957319D02*
X129108207Y-141004938D01*
X129108207Y-141004938D02*
X129155826Y-141052557D01*
X129155826Y-141052557D02*
X129203445Y-141147795D01*
X129203445Y-141147795D02*
X129251064Y-141338271D01*
X129251064Y-141338271D02*
X129251064Y-141576366D01*
X129251064Y-141576366D02*
X129203445Y-141766842D01*
X129203445Y-141766842D02*
X129155826Y-141862080D01*
X129155826Y-141862080D02*
X129108207Y-141909700D01*
X129108207Y-141909700D02*
X129012969Y-141957319D01*
X129012969Y-141957319D02*
X128917731Y-141957319D01*
X128917731Y-141957319D02*
X128822493Y-141909700D01*
X128822493Y-141909700D02*
X128774874Y-141862080D01*
X128774874Y-141862080D02*
X128727255Y-141766842D01*
X128727255Y-141766842D02*
X128679636Y-141576366D01*
X128679636Y-141576366D02*
X128679636Y-141338271D01*
X128679636Y-141338271D02*
X128727255Y-141147795D01*
X128727255Y-141147795D02*
X128774874Y-141052557D01*
X128774874Y-141052557D02*
X128822493Y-141004938D01*
X128822493Y-141004938D02*
X128917731Y-140957319D01*
X129870112Y-140957319D02*
X129965350Y-140957319D01*
X129965350Y-140957319D02*
X130060588Y-141004938D01*
X130060588Y-141004938D02*
X130108207Y-141052557D01*
X130108207Y-141052557D02*
X130155826Y-141147795D01*
X130155826Y-141147795D02*
X130203445Y-141338271D01*
X130203445Y-141338271D02*
X130203445Y-141576366D01*
X130203445Y-141576366D02*
X130155826Y-141766842D01*
X130155826Y-141766842D02*
X130108207Y-141862080D01*
X130108207Y-141862080D02*
X130060588Y-141909700D01*
X130060588Y-141909700D02*
X129965350Y-141957319D01*
X129965350Y-141957319D02*
X129870112Y-141957319D01*
X129870112Y-141957319D02*
X129774874Y-141909700D01*
X129774874Y-141909700D02*
X129727255Y-141862080D01*
X129727255Y-141862080D02*
X129679636Y-141766842D01*
X129679636Y-141766842D02*
X129632017Y-141576366D01*
X129632017Y-141576366D02*
X129632017Y-141338271D01*
X129632017Y-141338271D02*
X129679636Y-141147795D01*
X129679636Y-141147795D02*
X129727255Y-141052557D01*
X129727255Y-141052557D02*
X129774874Y-141004938D01*
X129774874Y-141004938D02*
X129870112Y-140957319D01*
X130489160Y-140957319D02*
X130822493Y-141957319D01*
X130822493Y-141957319D02*
X131155826Y-140957319D01*
X113915350Y-141840652D02*
X113915350Y-142507319D01*
X113677255Y-141459700D02*
X113439160Y-142173985D01*
X113439160Y-142173985D02*
X114058207Y-142173985D01*
X114629636Y-141507319D02*
X114724874Y-141507319D01*
X114724874Y-141507319D02*
X114820112Y-141554938D01*
X114820112Y-141554938D02*
X114867731Y-141602557D01*
X114867731Y-141602557D02*
X114915350Y-141697795D01*
X114915350Y-141697795D02*
X114962969Y-141888271D01*
X114962969Y-141888271D02*
X114962969Y-142126366D01*
X114962969Y-142126366D02*
X114915350Y-142316842D01*
X114915350Y-142316842D02*
X114867731Y-142412080D01*
X114867731Y-142412080D02*
X114820112Y-142459700D01*
X114820112Y-142459700D02*
X114724874Y-142507319D01*
X114724874Y-142507319D02*
X114629636Y-142507319D01*
X114629636Y-142507319D02*
X114534398Y-142459700D01*
X114534398Y-142459700D02*
X114486779Y-142412080D01*
X114486779Y-142412080D02*
X114439160Y-142316842D01*
X114439160Y-142316842D02*
X114391541Y-142126366D01*
X114391541Y-142126366D02*
X114391541Y-141888271D01*
X114391541Y-141888271D02*
X114439160Y-141697795D01*
X114439160Y-141697795D02*
X114486779Y-141602557D01*
X114486779Y-141602557D02*
X114534398Y-141554938D01*
X114534398Y-141554938D02*
X114629636Y-141507319D01*
X115582017Y-141507319D02*
X115677255Y-141507319D01*
X115677255Y-141507319D02*
X115772493Y-141554938D01*
X115772493Y-141554938D02*
X115820112Y-141602557D01*
X115820112Y-141602557D02*
X115867731Y-141697795D01*
X115867731Y-141697795D02*
X115915350Y-141888271D01*
X115915350Y-141888271D02*
X115915350Y-142126366D01*
X115915350Y-142126366D02*
X115867731Y-142316842D01*
X115867731Y-142316842D02*
X115820112Y-142412080D01*
X115820112Y-142412080D02*
X115772493Y-142459700D01*
X115772493Y-142459700D02*
X115677255Y-142507319D01*
X115677255Y-142507319D02*
X115582017Y-142507319D01*
X115582017Y-142507319D02*
X115486779Y-142459700D01*
X115486779Y-142459700D02*
X115439160Y-142412080D01*
X115439160Y-142412080D02*
X115391541Y-142316842D01*
X115391541Y-142316842D02*
X115343922Y-142126366D01*
X115343922Y-142126366D02*
X115343922Y-141888271D01*
X115343922Y-141888271D02*
X115391541Y-141697795D01*
X115391541Y-141697795D02*
X115439160Y-141602557D01*
X115439160Y-141602557D02*
X115486779Y-141554938D01*
X115486779Y-141554938D02*
X115582017Y-141507319D01*
X116201065Y-141507319D02*
X116534398Y-142507319D01*
X116534398Y-142507319D02*
X116867731Y-141507319D01*
X121836779Y-111388866D02*
X122598684Y-111388866D01*
X122217731Y-111769819D02*
X122217731Y-111007914D01*
X129612969Y-61019819D02*
X129136779Y-61019819D01*
X129136779Y-61019819D02*
X129136779Y-60019819D01*
X118309524Y-107059819D02*
X118309524Y-106059819D01*
X118309524Y-106059819D02*
X118690476Y-106059819D01*
X118690476Y-106059819D02*
X118785714Y-106107438D01*
X118785714Y-106107438D02*
X118833333Y-106155057D01*
X118833333Y-106155057D02*
X118880952Y-106250295D01*
X118880952Y-106250295D02*
X118880952Y-106393152D01*
X118880952Y-106393152D02*
X118833333Y-106488390D01*
X118833333Y-106488390D02*
X118785714Y-106536009D01*
X118785714Y-106536009D02*
X118690476Y-106583628D01*
X118690476Y-106583628D02*
X118309524Y-106583628D01*
X119642857Y-106536009D02*
X119309524Y-106536009D01*
X119309524Y-107059819D02*
X119309524Y-106059819D01*
X119309524Y-106059819D02*
X119785714Y-106059819D01*
X120738095Y-106964580D02*
X120690476Y-107012200D01*
X120690476Y-107012200D02*
X120547619Y-107059819D01*
X120547619Y-107059819D02*
X120452381Y-107059819D01*
X120452381Y-107059819D02*
X120309524Y-107012200D01*
X120309524Y-107012200D02*
X120214286Y-106916961D01*
X120214286Y-106916961D02*
X120166667Y-106821723D01*
X120166667Y-106821723D02*
X120119048Y-106631247D01*
X120119048Y-106631247D02*
X120119048Y-106488390D01*
X120119048Y-106488390D02*
X120166667Y-106297914D01*
X120166667Y-106297914D02*
X120214286Y-106202676D01*
X120214286Y-106202676D02*
X120309524Y-106107438D01*
X120309524Y-106107438D02*
X120452381Y-106059819D01*
X120452381Y-106059819D02*
X120547619Y-106059819D01*
X120547619Y-106059819D02*
X120690476Y-106107438D01*
X120690476Y-106107438D02*
X120738095Y-106155057D01*
X118761905Y-108146009D02*
X119095238Y-108146009D01*
X119238095Y-108669819D02*
X118761905Y-108669819D01*
X118761905Y-108669819D02*
X118761905Y-107669819D01*
X118761905Y-107669819D02*
X119238095Y-107669819D01*
X119666667Y-108669819D02*
X119666667Y-107669819D01*
X119666667Y-107669819D02*
X120238095Y-108669819D01*
X120238095Y-108669819D02*
X120238095Y-107669819D01*
X129136779Y-68769819D02*
X129136779Y-67769819D01*
X129136779Y-67769819D02*
X129708207Y-68769819D01*
X129708207Y-68769819D02*
X129708207Y-67769819D01*
X109333333Y-57754819D02*
X109000000Y-57278628D01*
X108761905Y-57754819D02*
X108761905Y-56754819D01*
X108761905Y-56754819D02*
X109142857Y-56754819D01*
X109142857Y-56754819D02*
X109238095Y-56802438D01*
X109238095Y-56802438D02*
X109285714Y-56850057D01*
X109285714Y-56850057D02*
X109333333Y-56945295D01*
X109333333Y-56945295D02*
X109333333Y-57088152D01*
X109333333Y-57088152D02*
X109285714Y-57183390D01*
X109285714Y-57183390D02*
X109238095Y-57231009D01*
X109238095Y-57231009D02*
X109142857Y-57278628D01*
X109142857Y-57278628D02*
X108761905Y-57278628D01*
X109666667Y-56754819D02*
X110285714Y-56754819D01*
X110285714Y-56754819D02*
X109952381Y-57135771D01*
X109952381Y-57135771D02*
X110095238Y-57135771D01*
X110095238Y-57135771D02*
X110190476Y-57183390D01*
X110190476Y-57183390D02*
X110238095Y-57231009D01*
X110238095Y-57231009D02*
X110285714Y-57326247D01*
X110285714Y-57326247D02*
X110285714Y-57564342D01*
X110285714Y-57564342D02*
X110238095Y-57659580D01*
X110238095Y-57659580D02*
X110190476Y-57707200D01*
X110190476Y-57707200D02*
X110095238Y-57754819D01*
X110095238Y-57754819D02*
X109809524Y-57754819D01*
X109809524Y-57754819D02*
X109714286Y-57707200D01*
X109714286Y-57707200D02*
X109666667Y-57659580D01*
X106533333Y-54754819D02*
X106200000Y-54278628D01*
X105961905Y-54754819D02*
X105961905Y-53754819D01*
X105961905Y-53754819D02*
X106342857Y-53754819D01*
X106342857Y-53754819D02*
X106438095Y-53802438D01*
X106438095Y-53802438D02*
X106485714Y-53850057D01*
X106485714Y-53850057D02*
X106533333Y-53945295D01*
X106533333Y-53945295D02*
X106533333Y-54088152D01*
X106533333Y-54088152D02*
X106485714Y-54183390D01*
X106485714Y-54183390D02*
X106438095Y-54231009D01*
X106438095Y-54231009D02*
X106342857Y-54278628D01*
X106342857Y-54278628D02*
X105961905Y-54278628D01*
X106914286Y-53850057D02*
X106961905Y-53802438D01*
X106961905Y-53802438D02*
X107057143Y-53754819D01*
X107057143Y-53754819D02*
X107295238Y-53754819D01*
X107295238Y-53754819D02*
X107390476Y-53802438D01*
X107390476Y-53802438D02*
X107438095Y-53850057D01*
X107438095Y-53850057D02*
X107485714Y-53945295D01*
X107485714Y-53945295D02*
X107485714Y-54040533D01*
X107485714Y-54040533D02*
X107438095Y-54183390D01*
X107438095Y-54183390D02*
X106866667Y-54754819D01*
X106866667Y-54754819D02*
X107485714Y-54754819D01*
X116133333Y-55254819D02*
X115800000Y-54778628D01*
X115561905Y-55254819D02*
X115561905Y-54254819D01*
X115561905Y-54254819D02*
X115942857Y-54254819D01*
X115942857Y-54254819D02*
X116038095Y-54302438D01*
X116038095Y-54302438D02*
X116085714Y-54350057D01*
X116085714Y-54350057D02*
X116133333Y-54445295D01*
X116133333Y-54445295D02*
X116133333Y-54588152D01*
X116133333Y-54588152D02*
X116085714Y-54683390D01*
X116085714Y-54683390D02*
X116038095Y-54731009D01*
X116038095Y-54731009D02*
X115942857Y-54778628D01*
X115942857Y-54778628D02*
X115561905Y-54778628D01*
X117085714Y-55254819D02*
X116514286Y-55254819D01*
X116800000Y-55254819D02*
X116800000Y-54254819D01*
X116800000Y-54254819D02*
X116704762Y-54397676D01*
X116704762Y-54397676D02*
X116609524Y-54492914D01*
X116609524Y-54492914D02*
X116514286Y-54540533D01*
X118666666Y-104404819D02*
X118666666Y-105119104D01*
X118666666Y-105119104D02*
X118619047Y-105261961D01*
X118619047Y-105261961D02*
X118523809Y-105357200D01*
X118523809Y-105357200D02*
X118380952Y-105404819D01*
X118380952Y-105404819D02*
X118285714Y-105404819D01*
X119142857Y-105404819D02*
X119142857Y-104404819D01*
X119142857Y-104404819D02*
X119523809Y-104404819D01*
X119523809Y-104404819D02*
X119619047Y-104452438D01*
X119619047Y-104452438D02*
X119666666Y-104500057D01*
X119666666Y-104500057D02*
X119714285Y-104595295D01*
X119714285Y-104595295D02*
X119714285Y-104738152D01*
X119714285Y-104738152D02*
X119666666Y-104833390D01*
X119666666Y-104833390D02*
X119619047Y-104881009D01*
X119619047Y-104881009D02*
X119523809Y-104928628D01*
X119523809Y-104928628D02*
X119142857Y-104928628D01*
X120095238Y-104500057D02*
X120142857Y-104452438D01*
X120142857Y-104452438D02*
X120238095Y-104404819D01*
X120238095Y-104404819D02*
X120476190Y-104404819D01*
X120476190Y-104404819D02*
X120571428Y-104452438D01*
X120571428Y-104452438D02*
X120619047Y-104500057D01*
X120619047Y-104500057D02*
X120666666Y-104595295D01*
X120666666Y-104595295D02*
X120666666Y-104690533D01*
X120666666Y-104690533D02*
X120619047Y-104833390D01*
X120619047Y-104833390D02*
X120047619Y-105404819D01*
X120047619Y-105404819D02*
X120666666Y-105404819D01*
X129583333Y-114797080D02*
X129535714Y-114844700D01*
X129535714Y-114844700D02*
X129392857Y-114892319D01*
X129392857Y-114892319D02*
X129297619Y-114892319D01*
X129297619Y-114892319D02*
X129154762Y-114844700D01*
X129154762Y-114844700D02*
X129059524Y-114749461D01*
X129059524Y-114749461D02*
X129011905Y-114654223D01*
X129011905Y-114654223D02*
X128964286Y-114463747D01*
X128964286Y-114463747D02*
X128964286Y-114320890D01*
X128964286Y-114320890D02*
X129011905Y-114130414D01*
X129011905Y-114130414D02*
X129059524Y-114035176D01*
X129059524Y-114035176D02*
X129154762Y-113939938D01*
X129154762Y-113939938D02*
X129297619Y-113892319D01*
X129297619Y-113892319D02*
X129392857Y-113892319D01*
X129392857Y-113892319D02*
X129535714Y-113939938D01*
X129535714Y-113939938D02*
X129583333Y-113987557D01*
X130440476Y-114225652D02*
X130440476Y-114892319D01*
X130202381Y-113844700D02*
X129964286Y-114558985D01*
X129964286Y-114558985D02*
X130583333Y-114558985D01*
X146704761Y-129750057D02*
X146609523Y-129702438D01*
X146609523Y-129702438D02*
X146514285Y-129607200D01*
X146514285Y-129607200D02*
X146371428Y-129464342D01*
X146371428Y-129464342D02*
X146276190Y-129416723D01*
X146276190Y-129416723D02*
X146180952Y-129416723D01*
X146228571Y-129654819D02*
X146133333Y-129607200D01*
X146133333Y-129607200D02*
X146038095Y-129511961D01*
X146038095Y-129511961D02*
X145990476Y-129321485D01*
X145990476Y-129321485D02*
X145990476Y-128988152D01*
X145990476Y-128988152D02*
X146038095Y-128797676D01*
X146038095Y-128797676D02*
X146133333Y-128702438D01*
X146133333Y-128702438D02*
X146228571Y-128654819D01*
X146228571Y-128654819D02*
X146419047Y-128654819D01*
X146419047Y-128654819D02*
X146514285Y-128702438D01*
X146514285Y-128702438D02*
X146609523Y-128797676D01*
X146609523Y-128797676D02*
X146657142Y-128988152D01*
X146657142Y-128988152D02*
X146657142Y-129321485D01*
X146657142Y-129321485D02*
X146609523Y-129511961D01*
X146609523Y-129511961D02*
X146514285Y-129607200D01*
X146514285Y-129607200D02*
X146419047Y-129654819D01*
X146419047Y-129654819D02*
X146228571Y-129654819D01*
X147085714Y-129654819D02*
X147085714Y-128654819D01*
X147085714Y-128654819D02*
X147466666Y-128654819D01*
X147466666Y-128654819D02*
X147561904Y-128702438D01*
X147561904Y-128702438D02*
X147609523Y-128750057D01*
X147609523Y-128750057D02*
X147657142Y-128845295D01*
X147657142Y-128845295D02*
X147657142Y-128988152D01*
X147657142Y-128988152D02*
X147609523Y-129083390D01*
X147609523Y-129083390D02*
X147561904Y-129131009D01*
X147561904Y-129131009D02*
X147466666Y-129178628D01*
X147466666Y-129178628D02*
X147085714Y-129178628D01*
X148038095Y-128750057D02*
X148085714Y-128702438D01*
X148085714Y-128702438D02*
X148180952Y-128654819D01*
X148180952Y-128654819D02*
X148419047Y-128654819D01*
X148419047Y-128654819D02*
X148514285Y-128702438D01*
X148514285Y-128702438D02*
X148561904Y-128750057D01*
X148561904Y-128750057D02*
X148609523Y-128845295D01*
X148609523Y-128845295D02*
X148609523Y-128940533D01*
X148609523Y-128940533D02*
X148561904Y-129083390D01*
X148561904Y-129083390D02*
X147990476Y-129654819D01*
X147990476Y-129654819D02*
X148609523Y-129654819D01*
X98683333Y-80392319D02*
X98350000Y-79916128D01*
X98111905Y-80392319D02*
X98111905Y-79392319D01*
X98111905Y-79392319D02*
X98492857Y-79392319D01*
X98492857Y-79392319D02*
X98588095Y-79439938D01*
X98588095Y-79439938D02*
X98635714Y-79487557D01*
X98635714Y-79487557D02*
X98683333Y-79582795D01*
X98683333Y-79582795D02*
X98683333Y-79725652D01*
X98683333Y-79725652D02*
X98635714Y-79820890D01*
X98635714Y-79820890D02*
X98588095Y-79868509D01*
X98588095Y-79868509D02*
X98492857Y-79916128D01*
X98492857Y-79916128D02*
X98111905Y-79916128D01*
X99540476Y-79725652D02*
X99540476Y-80392319D01*
X99302381Y-79344700D02*
X99064286Y-80058985D01*
X99064286Y-80058985D02*
X99683333Y-80058985D01*
X67111905Y-75692319D02*
X67111905Y-74692319D01*
X67111905Y-74692319D02*
X67350000Y-74692319D01*
X67350000Y-74692319D02*
X67492857Y-74739938D01*
X67492857Y-74739938D02*
X67588095Y-74835176D01*
X67588095Y-74835176D02*
X67635714Y-74930414D01*
X67635714Y-74930414D02*
X67683333Y-75120890D01*
X67683333Y-75120890D02*
X67683333Y-75263747D01*
X67683333Y-75263747D02*
X67635714Y-75454223D01*
X67635714Y-75454223D02*
X67588095Y-75549461D01*
X67588095Y-75549461D02*
X67492857Y-75644700D01*
X67492857Y-75644700D02*
X67350000Y-75692319D01*
X67350000Y-75692319D02*
X67111905Y-75692319D01*
X68635714Y-75692319D02*
X68064286Y-75692319D01*
X68350000Y-75692319D02*
X68350000Y-74692319D01*
X68350000Y-74692319D02*
X68254762Y-74835176D01*
X68254762Y-74835176D02*
X68159524Y-74930414D01*
X68159524Y-74930414D02*
X68064286Y-74978033D01*
X65488095Y-103992319D02*
X66059523Y-103992319D01*
X65773809Y-104992319D02*
X65773809Y-103992319D01*
X66392857Y-104992319D02*
X66392857Y-103992319D01*
X66392857Y-103992319D02*
X66773809Y-103992319D01*
X66773809Y-103992319D02*
X66869047Y-104039938D01*
X66869047Y-104039938D02*
X66916666Y-104087557D01*
X66916666Y-104087557D02*
X66964285Y-104182795D01*
X66964285Y-104182795D02*
X66964285Y-104325652D01*
X66964285Y-104325652D02*
X66916666Y-104420890D01*
X66916666Y-104420890D02*
X66869047Y-104468509D01*
X66869047Y-104468509D02*
X66773809Y-104516128D01*
X66773809Y-104516128D02*
X66392857Y-104516128D01*
X67916666Y-104992319D02*
X67345238Y-104992319D01*
X67630952Y-104992319D02*
X67630952Y-103992319D01*
X67630952Y-103992319D02*
X67535714Y-104135176D01*
X67535714Y-104135176D02*
X67440476Y-104230414D01*
X67440476Y-104230414D02*
X67345238Y-104278033D01*
X134383333Y-136804819D02*
X134050000Y-136328628D01*
X133811905Y-136804819D02*
X133811905Y-135804819D01*
X133811905Y-135804819D02*
X134192857Y-135804819D01*
X134192857Y-135804819D02*
X134288095Y-135852438D01*
X134288095Y-135852438D02*
X134335714Y-135900057D01*
X134335714Y-135900057D02*
X134383333Y-135995295D01*
X134383333Y-135995295D02*
X134383333Y-136138152D01*
X134383333Y-136138152D02*
X134335714Y-136233390D01*
X134335714Y-136233390D02*
X134288095Y-136281009D01*
X134288095Y-136281009D02*
X134192857Y-136328628D01*
X134192857Y-136328628D02*
X133811905Y-136328628D01*
X134954762Y-136233390D02*
X134859524Y-136185771D01*
X134859524Y-136185771D02*
X134811905Y-136138152D01*
X134811905Y-136138152D02*
X134764286Y-136042914D01*
X134764286Y-136042914D02*
X134764286Y-135995295D01*
X134764286Y-135995295D02*
X134811905Y-135900057D01*
X134811905Y-135900057D02*
X134859524Y-135852438D01*
X134859524Y-135852438D02*
X134954762Y-135804819D01*
X134954762Y-135804819D02*
X135145238Y-135804819D01*
X135145238Y-135804819D02*
X135240476Y-135852438D01*
X135240476Y-135852438D02*
X135288095Y-135900057D01*
X135288095Y-135900057D02*
X135335714Y-135995295D01*
X135335714Y-135995295D02*
X135335714Y-136042914D01*
X135335714Y-136042914D02*
X135288095Y-136138152D01*
X135288095Y-136138152D02*
X135240476Y-136185771D01*
X135240476Y-136185771D02*
X135145238Y-136233390D01*
X135145238Y-136233390D02*
X134954762Y-136233390D01*
X134954762Y-136233390D02*
X134859524Y-136281009D01*
X134859524Y-136281009D02*
X134811905Y-136328628D01*
X134811905Y-136328628D02*
X134764286Y-136423866D01*
X134764286Y-136423866D02*
X134764286Y-136614342D01*
X134764286Y-136614342D02*
X134811905Y-136709580D01*
X134811905Y-136709580D02*
X134859524Y-136757200D01*
X134859524Y-136757200D02*
X134954762Y-136804819D01*
X134954762Y-136804819D02*
X135145238Y-136804819D01*
X135145238Y-136804819D02*
X135240476Y-136757200D01*
X135240476Y-136757200D02*
X135288095Y-136709580D01*
X135288095Y-136709580D02*
X135335714Y-136614342D01*
X135335714Y-136614342D02*
X135335714Y-136423866D01*
X135335714Y-136423866D02*
X135288095Y-136328628D01*
X135288095Y-136328628D02*
X135240476Y-136281009D01*
X135240476Y-136281009D02*
X135145238Y-136233390D01*
X113888095Y-139992319D02*
X114459523Y-139992319D01*
X114173809Y-140992319D02*
X114173809Y-139992319D01*
X114792857Y-140992319D02*
X114792857Y-139992319D01*
X114792857Y-139992319D02*
X115173809Y-139992319D01*
X115173809Y-139992319D02*
X115269047Y-140039938D01*
X115269047Y-140039938D02*
X115316666Y-140087557D01*
X115316666Y-140087557D02*
X115364285Y-140182795D01*
X115364285Y-140182795D02*
X115364285Y-140325652D01*
X115364285Y-140325652D02*
X115316666Y-140420890D01*
X115316666Y-140420890D02*
X115269047Y-140468509D01*
X115269047Y-140468509D02*
X115173809Y-140516128D01*
X115173809Y-140516128D02*
X114792857Y-140516128D01*
X115745238Y-140087557D02*
X115792857Y-140039938D01*
X115792857Y-140039938D02*
X115888095Y-139992319D01*
X115888095Y-139992319D02*
X116126190Y-139992319D01*
X116126190Y-139992319D02*
X116221428Y-140039938D01*
X116221428Y-140039938D02*
X116269047Y-140087557D01*
X116269047Y-140087557D02*
X116316666Y-140182795D01*
X116316666Y-140182795D02*
X116316666Y-140278033D01*
X116316666Y-140278033D02*
X116269047Y-140420890D01*
X116269047Y-140420890D02*
X115697619Y-140992319D01*
X115697619Y-140992319D02*
X116316666Y-140992319D01*
X85811905Y-128992319D02*
X85811905Y-127992319D01*
X85811905Y-127992319D02*
X86050000Y-127992319D01*
X86050000Y-127992319D02*
X86192857Y-128039938D01*
X86192857Y-128039938D02*
X86288095Y-128135176D01*
X86288095Y-128135176D02*
X86335714Y-128230414D01*
X86335714Y-128230414D02*
X86383333Y-128420890D01*
X86383333Y-128420890D02*
X86383333Y-128563747D01*
X86383333Y-128563747D02*
X86335714Y-128754223D01*
X86335714Y-128754223D02*
X86288095Y-128849461D01*
X86288095Y-128849461D02*
X86192857Y-128944700D01*
X86192857Y-128944700D02*
X86050000Y-128992319D01*
X86050000Y-128992319D02*
X85811905Y-128992319D01*
X86811905Y-128992319D02*
X86811905Y-127992319D01*
X86811905Y-127992319D02*
X87192857Y-127992319D01*
X87192857Y-127992319D02*
X87288095Y-128039938D01*
X87288095Y-128039938D02*
X87335714Y-128087557D01*
X87335714Y-128087557D02*
X87383333Y-128182795D01*
X87383333Y-128182795D02*
X87383333Y-128325652D01*
X87383333Y-128325652D02*
X87335714Y-128420890D01*
X87335714Y-128420890D02*
X87288095Y-128468509D01*
X87288095Y-128468509D02*
X87192857Y-128516128D01*
X87192857Y-128516128D02*
X86811905Y-128516128D01*
X88335714Y-128992319D02*
X87764286Y-128992319D01*
X88050000Y-128992319D02*
X88050000Y-127992319D01*
X88050000Y-127992319D02*
X87954762Y-128135176D01*
X87954762Y-128135176D02*
X87859524Y-128230414D01*
X87859524Y-128230414D02*
X87764286Y-128278033D01*
X126061905Y-111104819D02*
X126061905Y-110104819D01*
X126061905Y-110104819D02*
X126300000Y-110104819D01*
X126300000Y-110104819D02*
X126442857Y-110152438D01*
X126442857Y-110152438D02*
X126538095Y-110247676D01*
X126538095Y-110247676D02*
X126585714Y-110342914D01*
X126585714Y-110342914D02*
X126633333Y-110533390D01*
X126633333Y-110533390D02*
X126633333Y-110676247D01*
X126633333Y-110676247D02*
X126585714Y-110866723D01*
X126585714Y-110866723D02*
X126538095Y-110961961D01*
X126538095Y-110961961D02*
X126442857Y-111057200D01*
X126442857Y-111057200D02*
X126300000Y-111104819D01*
X126300000Y-111104819D02*
X126061905Y-111104819D01*
X127490476Y-110104819D02*
X127300000Y-110104819D01*
X127300000Y-110104819D02*
X127204762Y-110152438D01*
X127204762Y-110152438D02*
X127157143Y-110200057D01*
X127157143Y-110200057D02*
X127061905Y-110342914D01*
X127061905Y-110342914D02*
X127014286Y-110533390D01*
X127014286Y-110533390D02*
X127014286Y-110914342D01*
X127014286Y-110914342D02*
X127061905Y-111009580D01*
X127061905Y-111009580D02*
X127109524Y-111057200D01*
X127109524Y-111057200D02*
X127204762Y-111104819D01*
X127204762Y-111104819D02*
X127395238Y-111104819D01*
X127395238Y-111104819D02*
X127490476Y-111057200D01*
X127490476Y-111057200D02*
X127538095Y-111009580D01*
X127538095Y-111009580D02*
X127585714Y-110914342D01*
X127585714Y-110914342D02*
X127585714Y-110676247D01*
X127585714Y-110676247D02*
X127538095Y-110581009D01*
X127538095Y-110581009D02*
X127490476Y-110533390D01*
X127490476Y-110533390D02*
X127395238Y-110485771D01*
X127395238Y-110485771D02*
X127204762Y-110485771D01*
X127204762Y-110485771D02*
X127109524Y-110533390D01*
X127109524Y-110533390D02*
X127061905Y-110581009D01*
X127061905Y-110581009D02*
X127014286Y-110676247D01*
X115161905Y-111754819D02*
X115161905Y-110754819D01*
X115161905Y-110754819D02*
X115400000Y-110754819D01*
X115400000Y-110754819D02*
X115542857Y-110802438D01*
X115542857Y-110802438D02*
X115638095Y-110897676D01*
X115638095Y-110897676D02*
X115685714Y-110992914D01*
X115685714Y-110992914D02*
X115733333Y-111183390D01*
X115733333Y-111183390D02*
X115733333Y-111326247D01*
X115733333Y-111326247D02*
X115685714Y-111516723D01*
X115685714Y-111516723D02*
X115638095Y-111611961D01*
X115638095Y-111611961D02*
X115542857Y-111707200D01*
X115542857Y-111707200D02*
X115400000Y-111754819D01*
X115400000Y-111754819D02*
X115161905Y-111754819D01*
X116638095Y-110754819D02*
X116161905Y-110754819D01*
X116161905Y-110754819D02*
X116114286Y-111231009D01*
X116114286Y-111231009D02*
X116161905Y-111183390D01*
X116161905Y-111183390D02*
X116257143Y-111135771D01*
X116257143Y-111135771D02*
X116495238Y-111135771D01*
X116495238Y-111135771D02*
X116590476Y-111183390D01*
X116590476Y-111183390D02*
X116638095Y-111231009D01*
X116638095Y-111231009D02*
X116685714Y-111326247D01*
X116685714Y-111326247D02*
X116685714Y-111564342D01*
X116685714Y-111564342D02*
X116638095Y-111659580D01*
X116638095Y-111659580D02*
X116590476Y-111707200D01*
X116590476Y-111707200D02*
X116495238Y-111754819D01*
X116495238Y-111754819D02*
X116257143Y-111754819D01*
X116257143Y-111754819D02*
X116161905Y-111707200D01*
X116161905Y-111707200D02*
X116114286Y-111659580D01*
X61828571Y-71459580D02*
X61780952Y-71507200D01*
X61780952Y-71507200D02*
X61638095Y-71554819D01*
X61638095Y-71554819D02*
X61542857Y-71554819D01*
X61542857Y-71554819D02*
X61400000Y-71507200D01*
X61400000Y-71507200D02*
X61304762Y-71411961D01*
X61304762Y-71411961D02*
X61257143Y-71316723D01*
X61257143Y-71316723D02*
X61209524Y-71126247D01*
X61209524Y-71126247D02*
X61209524Y-70983390D01*
X61209524Y-70983390D02*
X61257143Y-70792914D01*
X61257143Y-70792914D02*
X61304762Y-70697676D01*
X61304762Y-70697676D02*
X61400000Y-70602438D01*
X61400000Y-70602438D02*
X61542857Y-70554819D01*
X61542857Y-70554819D02*
X61638095Y-70554819D01*
X61638095Y-70554819D02*
X61780952Y-70602438D01*
X61780952Y-70602438D02*
X61828571Y-70650057D01*
X62733333Y-71554819D02*
X62257143Y-71554819D01*
X62257143Y-71554819D02*
X62257143Y-70554819D01*
X63638095Y-71554819D02*
X63304762Y-71078628D01*
X63066667Y-71554819D02*
X63066667Y-70554819D01*
X63066667Y-70554819D02*
X63447619Y-70554819D01*
X63447619Y-70554819D02*
X63542857Y-70602438D01*
X63542857Y-70602438D02*
X63590476Y-70650057D01*
X63590476Y-70650057D02*
X63638095Y-70745295D01*
X63638095Y-70745295D02*
X63638095Y-70888152D01*
X63638095Y-70888152D02*
X63590476Y-70983390D01*
X63590476Y-70983390D02*
X63542857Y-71031009D01*
X63542857Y-71031009D02*
X63447619Y-71078628D01*
X63447619Y-71078628D02*
X63066667Y-71078628D01*
X64590476Y-71554819D02*
X64019048Y-71554819D01*
X64304762Y-71554819D02*
X64304762Y-70554819D01*
X64304762Y-70554819D02*
X64209524Y-70697676D01*
X64209524Y-70697676D02*
X64114286Y-70792914D01*
X64114286Y-70792914D02*
X64019048Y-70840533D01*
X131961905Y-122454819D02*
X131961905Y-121454819D01*
X131961905Y-121454819D02*
X132200000Y-121454819D01*
X132200000Y-121454819D02*
X132342857Y-121502438D01*
X132342857Y-121502438D02*
X132438095Y-121597676D01*
X132438095Y-121597676D02*
X132485714Y-121692914D01*
X132485714Y-121692914D02*
X132533333Y-121883390D01*
X132533333Y-121883390D02*
X132533333Y-122026247D01*
X132533333Y-122026247D02*
X132485714Y-122216723D01*
X132485714Y-122216723D02*
X132438095Y-122311961D01*
X132438095Y-122311961D02*
X132342857Y-122407200D01*
X132342857Y-122407200D02*
X132200000Y-122454819D01*
X132200000Y-122454819D02*
X131961905Y-122454819D01*
X132866667Y-121454819D02*
X133485714Y-121454819D01*
X133485714Y-121454819D02*
X133152381Y-121835771D01*
X133152381Y-121835771D02*
X133295238Y-121835771D01*
X133295238Y-121835771D02*
X133390476Y-121883390D01*
X133390476Y-121883390D02*
X133438095Y-121931009D01*
X133438095Y-121931009D02*
X133485714Y-122026247D01*
X133485714Y-122026247D02*
X133485714Y-122264342D01*
X133485714Y-122264342D02*
X133438095Y-122359580D01*
X133438095Y-122359580D02*
X133390476Y-122407200D01*
X133390476Y-122407200D02*
X133295238Y-122454819D01*
X133295238Y-122454819D02*
X133009524Y-122454819D01*
X133009524Y-122454819D02*
X132914286Y-122407200D01*
X132914286Y-122407200D02*
X132866667Y-122359580D01*
X134738095Y-119992319D02*
X134738095Y-118992319D01*
X135309523Y-119992319D02*
X134880952Y-119420890D01*
X135309523Y-118992319D02*
X134738095Y-119563747D01*
X141533333Y-141959580D02*
X141485714Y-142007200D01*
X141485714Y-142007200D02*
X141342857Y-142054819D01*
X141342857Y-142054819D02*
X141247619Y-142054819D01*
X141247619Y-142054819D02*
X141104762Y-142007200D01*
X141104762Y-142007200D02*
X141009524Y-141911961D01*
X141009524Y-141911961D02*
X140961905Y-141816723D01*
X140961905Y-141816723D02*
X140914286Y-141626247D01*
X140914286Y-141626247D02*
X140914286Y-141483390D01*
X140914286Y-141483390D02*
X140961905Y-141292914D01*
X140961905Y-141292914D02*
X141009524Y-141197676D01*
X141009524Y-141197676D02*
X141104762Y-141102438D01*
X141104762Y-141102438D02*
X141247619Y-141054819D01*
X141247619Y-141054819D02*
X141342857Y-141054819D01*
X141342857Y-141054819D02*
X141485714Y-141102438D01*
X141485714Y-141102438D02*
X141533333Y-141150057D01*
X141866667Y-141054819D02*
X142485714Y-141054819D01*
X142485714Y-141054819D02*
X142152381Y-141435771D01*
X142152381Y-141435771D02*
X142295238Y-141435771D01*
X142295238Y-141435771D02*
X142390476Y-141483390D01*
X142390476Y-141483390D02*
X142438095Y-141531009D01*
X142438095Y-141531009D02*
X142485714Y-141626247D01*
X142485714Y-141626247D02*
X142485714Y-141864342D01*
X142485714Y-141864342D02*
X142438095Y-141959580D01*
X142438095Y-141959580D02*
X142390476Y-142007200D01*
X142390476Y-142007200D02*
X142295238Y-142054819D01*
X142295238Y-142054819D02*
X142009524Y-142054819D01*
X142009524Y-142054819D02*
X141914286Y-142007200D01*
X141914286Y-142007200D02*
X141866667Y-141959580D01*
X74154761Y-104387557D02*
X74059523Y-104339938D01*
X74059523Y-104339938D02*
X73964285Y-104244700D01*
X73964285Y-104244700D02*
X73821428Y-104101842D01*
X73821428Y-104101842D02*
X73726190Y-104054223D01*
X73726190Y-104054223D02*
X73630952Y-104054223D01*
X73678571Y-104292319D02*
X73583333Y-104244700D01*
X73583333Y-104244700D02*
X73488095Y-104149461D01*
X73488095Y-104149461D02*
X73440476Y-103958985D01*
X73440476Y-103958985D02*
X73440476Y-103625652D01*
X73440476Y-103625652D02*
X73488095Y-103435176D01*
X73488095Y-103435176D02*
X73583333Y-103339938D01*
X73583333Y-103339938D02*
X73678571Y-103292319D01*
X73678571Y-103292319D02*
X73869047Y-103292319D01*
X73869047Y-103292319D02*
X73964285Y-103339938D01*
X73964285Y-103339938D02*
X74059523Y-103435176D01*
X74059523Y-103435176D02*
X74107142Y-103625652D01*
X74107142Y-103625652D02*
X74107142Y-103958985D01*
X74107142Y-103958985D02*
X74059523Y-104149461D01*
X74059523Y-104149461D02*
X73964285Y-104244700D01*
X73964285Y-104244700D02*
X73869047Y-104292319D01*
X73869047Y-104292319D02*
X73678571Y-104292319D01*
X74535714Y-104292319D02*
X74535714Y-103292319D01*
X74535714Y-103292319D02*
X74916666Y-103292319D01*
X74916666Y-103292319D02*
X75011904Y-103339938D01*
X75011904Y-103339938D02*
X75059523Y-103387557D01*
X75059523Y-103387557D02*
X75107142Y-103482795D01*
X75107142Y-103482795D02*
X75107142Y-103625652D01*
X75107142Y-103625652D02*
X75059523Y-103720890D01*
X75059523Y-103720890D02*
X75011904Y-103768509D01*
X75011904Y-103768509D02*
X74916666Y-103816128D01*
X74916666Y-103816128D02*
X74535714Y-103816128D01*
X76059523Y-104292319D02*
X75488095Y-104292319D01*
X75773809Y-104292319D02*
X75773809Y-103292319D01*
X75773809Y-103292319D02*
X75678571Y-103435176D01*
X75678571Y-103435176D02*
X75583333Y-103530414D01*
X75583333Y-103530414D02*
X75488095Y-103578033D01*
X130583333Y-88609580D02*
X130535714Y-88657200D01*
X130535714Y-88657200D02*
X130392857Y-88704819D01*
X130392857Y-88704819D02*
X130297619Y-88704819D01*
X130297619Y-88704819D02*
X130154762Y-88657200D01*
X130154762Y-88657200D02*
X130059524Y-88561961D01*
X130059524Y-88561961D02*
X130011905Y-88466723D01*
X130011905Y-88466723D02*
X129964286Y-88276247D01*
X129964286Y-88276247D02*
X129964286Y-88133390D01*
X129964286Y-88133390D02*
X130011905Y-87942914D01*
X130011905Y-87942914D02*
X130059524Y-87847676D01*
X130059524Y-87847676D02*
X130154762Y-87752438D01*
X130154762Y-87752438D02*
X130297619Y-87704819D01*
X130297619Y-87704819D02*
X130392857Y-87704819D01*
X130392857Y-87704819D02*
X130535714Y-87752438D01*
X130535714Y-87752438D02*
X130583333Y-87800057D01*
X131154762Y-88133390D02*
X131059524Y-88085771D01*
X131059524Y-88085771D02*
X131011905Y-88038152D01*
X131011905Y-88038152D02*
X130964286Y-87942914D01*
X130964286Y-87942914D02*
X130964286Y-87895295D01*
X130964286Y-87895295D02*
X131011905Y-87800057D01*
X131011905Y-87800057D02*
X131059524Y-87752438D01*
X131059524Y-87752438D02*
X131154762Y-87704819D01*
X131154762Y-87704819D02*
X131345238Y-87704819D01*
X131345238Y-87704819D02*
X131440476Y-87752438D01*
X131440476Y-87752438D02*
X131488095Y-87800057D01*
X131488095Y-87800057D02*
X131535714Y-87895295D01*
X131535714Y-87895295D02*
X131535714Y-87942914D01*
X131535714Y-87942914D02*
X131488095Y-88038152D01*
X131488095Y-88038152D02*
X131440476Y-88085771D01*
X131440476Y-88085771D02*
X131345238Y-88133390D01*
X131345238Y-88133390D02*
X131154762Y-88133390D01*
X131154762Y-88133390D02*
X131059524Y-88181009D01*
X131059524Y-88181009D02*
X131011905Y-88228628D01*
X131011905Y-88228628D02*
X130964286Y-88323866D01*
X130964286Y-88323866D02*
X130964286Y-88514342D01*
X130964286Y-88514342D02*
X131011905Y-88609580D01*
X131011905Y-88609580D02*
X131059524Y-88657200D01*
X131059524Y-88657200D02*
X131154762Y-88704819D01*
X131154762Y-88704819D02*
X131345238Y-88704819D01*
X131345238Y-88704819D02*
X131440476Y-88657200D01*
X131440476Y-88657200D02*
X131488095Y-88609580D01*
X131488095Y-88609580D02*
X131535714Y-88514342D01*
X131535714Y-88514342D02*
X131535714Y-88323866D01*
X131535714Y-88323866D02*
X131488095Y-88228628D01*
X131488095Y-88228628D02*
X131440476Y-88181009D01*
X131440476Y-88181009D02*
X131345238Y-88133390D01*
X124983333Y-121992319D02*
X124650000Y-121516128D01*
X124411905Y-121992319D02*
X124411905Y-120992319D01*
X124411905Y-120992319D02*
X124792857Y-120992319D01*
X124792857Y-120992319D02*
X124888095Y-121039938D01*
X124888095Y-121039938D02*
X124935714Y-121087557D01*
X124935714Y-121087557D02*
X124983333Y-121182795D01*
X124983333Y-121182795D02*
X124983333Y-121325652D01*
X124983333Y-121325652D02*
X124935714Y-121420890D01*
X124935714Y-121420890D02*
X124888095Y-121468509D01*
X124888095Y-121468509D02*
X124792857Y-121516128D01*
X124792857Y-121516128D02*
X124411905Y-121516128D01*
X125316667Y-120992319D02*
X125983333Y-120992319D01*
X125983333Y-120992319D02*
X125554762Y-121992319D01*
X94398095Y-102462319D02*
X94969523Y-102462319D01*
X94683809Y-103462319D02*
X94683809Y-102462319D01*
X95874285Y-103462319D02*
X95540952Y-102986128D01*
X95302857Y-103462319D02*
X95302857Y-102462319D01*
X95302857Y-102462319D02*
X95683809Y-102462319D01*
X95683809Y-102462319D02*
X95779047Y-102509938D01*
X95779047Y-102509938D02*
X95826666Y-102557557D01*
X95826666Y-102557557D02*
X95874285Y-102652795D01*
X95874285Y-102652795D02*
X95874285Y-102795652D01*
X95874285Y-102795652D02*
X95826666Y-102890890D01*
X95826666Y-102890890D02*
X95779047Y-102938509D01*
X95779047Y-102938509D02*
X95683809Y-102986128D01*
X95683809Y-102986128D02*
X95302857Y-102986128D01*
X96826666Y-103462319D02*
X96255238Y-103462319D01*
X96540952Y-103462319D02*
X96540952Y-102462319D01*
X96540952Y-102462319D02*
X96445714Y-102605176D01*
X96445714Y-102605176D02*
X96350476Y-102700414D01*
X96350476Y-102700414D02*
X96255238Y-102748033D01*
X126866666Y-139354819D02*
X126866666Y-140069104D01*
X126866666Y-140069104D02*
X126819047Y-140211961D01*
X126819047Y-140211961D02*
X126723809Y-140307200D01*
X126723809Y-140307200D02*
X126580952Y-140354819D01*
X126580952Y-140354819D02*
X126485714Y-140354819D01*
X127866666Y-140354819D02*
X127295238Y-140354819D01*
X127580952Y-140354819D02*
X127580952Y-139354819D01*
X127580952Y-139354819D02*
X127485714Y-139497676D01*
X127485714Y-139497676D02*
X127390476Y-139592914D01*
X127390476Y-139592914D02*
X127295238Y-139640533D01*
X113316666Y-93854819D02*
X113316666Y-94569104D01*
X113316666Y-94569104D02*
X113269047Y-94711961D01*
X113269047Y-94711961D02*
X113173809Y-94807200D01*
X113173809Y-94807200D02*
X113030952Y-94854819D01*
X113030952Y-94854819D02*
X112935714Y-94854819D01*
X113745238Y-93950057D02*
X113792857Y-93902438D01*
X113792857Y-93902438D02*
X113888095Y-93854819D01*
X113888095Y-93854819D02*
X114126190Y-93854819D01*
X114126190Y-93854819D02*
X114221428Y-93902438D01*
X114221428Y-93902438D02*
X114269047Y-93950057D01*
X114269047Y-93950057D02*
X114316666Y-94045295D01*
X114316666Y-94045295D02*
X114316666Y-94140533D01*
X114316666Y-94140533D02*
X114269047Y-94283390D01*
X114269047Y-94283390D02*
X113697619Y-94854819D01*
X113697619Y-94854819D02*
X114316666Y-94854819D01*
X131404761Y-79754819D02*
X131071428Y-79278628D01*
X130833333Y-79754819D02*
X130833333Y-78754819D01*
X130833333Y-78754819D02*
X131214285Y-78754819D01*
X131214285Y-78754819D02*
X131309523Y-78802438D01*
X131309523Y-78802438D02*
X131357142Y-78850057D01*
X131357142Y-78850057D02*
X131404761Y-78945295D01*
X131404761Y-78945295D02*
X131404761Y-79088152D01*
X131404761Y-79088152D02*
X131357142Y-79183390D01*
X131357142Y-79183390D02*
X131309523Y-79231009D01*
X131309523Y-79231009D02*
X131214285Y-79278628D01*
X131214285Y-79278628D02*
X130833333Y-79278628D01*
X131690476Y-78754819D02*
X132023809Y-79754819D01*
X132023809Y-79754819D02*
X132357142Y-78754819D01*
X133214285Y-79754819D02*
X132642857Y-79754819D01*
X132928571Y-79754819D02*
X132928571Y-78754819D01*
X132928571Y-78754819D02*
X132833333Y-78897676D01*
X132833333Y-78897676D02*
X132738095Y-78992914D01*
X132738095Y-78992914D02*
X132642857Y-79040533D01*
X146588095Y-105992319D02*
X147159523Y-105992319D01*
X146873809Y-106992319D02*
X146873809Y-105992319D01*
X148064285Y-106992319D02*
X147730952Y-106516128D01*
X147492857Y-106992319D02*
X147492857Y-105992319D01*
X147492857Y-105992319D02*
X147873809Y-105992319D01*
X147873809Y-105992319D02*
X147969047Y-106039938D01*
X147969047Y-106039938D02*
X148016666Y-106087557D01*
X148016666Y-106087557D02*
X148064285Y-106182795D01*
X148064285Y-106182795D02*
X148064285Y-106325652D01*
X148064285Y-106325652D02*
X148016666Y-106420890D01*
X148016666Y-106420890D02*
X147969047Y-106468509D01*
X147969047Y-106468509D02*
X147873809Y-106516128D01*
X147873809Y-106516128D02*
X147492857Y-106516128D01*
X148445238Y-106087557D02*
X148492857Y-106039938D01*
X148492857Y-106039938D02*
X148588095Y-105992319D01*
X148588095Y-105992319D02*
X148826190Y-105992319D01*
X148826190Y-105992319D02*
X148921428Y-106039938D01*
X148921428Y-106039938D02*
X148969047Y-106087557D01*
X148969047Y-106087557D02*
X149016666Y-106182795D01*
X149016666Y-106182795D02*
X149016666Y-106278033D01*
X149016666Y-106278033D02*
X148969047Y-106420890D01*
X148969047Y-106420890D02*
X148397619Y-106992319D01*
X148397619Y-106992319D02*
X149016666Y-106992319D01*
X62583333Y-83397080D02*
X62535714Y-83444700D01*
X62535714Y-83444700D02*
X62392857Y-83492319D01*
X62392857Y-83492319D02*
X62297619Y-83492319D01*
X62297619Y-83492319D02*
X62154762Y-83444700D01*
X62154762Y-83444700D02*
X62059524Y-83349461D01*
X62059524Y-83349461D02*
X62011905Y-83254223D01*
X62011905Y-83254223D02*
X61964286Y-83063747D01*
X61964286Y-83063747D02*
X61964286Y-82920890D01*
X61964286Y-82920890D02*
X62011905Y-82730414D01*
X62011905Y-82730414D02*
X62059524Y-82635176D01*
X62059524Y-82635176D02*
X62154762Y-82539938D01*
X62154762Y-82539938D02*
X62297619Y-82492319D01*
X62297619Y-82492319D02*
X62392857Y-82492319D01*
X62392857Y-82492319D02*
X62535714Y-82539938D01*
X62535714Y-82539938D02*
X62583333Y-82587557D01*
X63535714Y-83492319D02*
X62964286Y-83492319D01*
X63250000Y-83492319D02*
X63250000Y-82492319D01*
X63250000Y-82492319D02*
X63154762Y-82635176D01*
X63154762Y-82635176D02*
X63059524Y-82730414D01*
X63059524Y-82730414D02*
X62964286Y-82778033D01*
X138033333Y-135097080D02*
X137985714Y-135144700D01*
X137985714Y-135144700D02*
X137842857Y-135192319D01*
X137842857Y-135192319D02*
X137747619Y-135192319D01*
X137747619Y-135192319D02*
X137604762Y-135144700D01*
X137604762Y-135144700D02*
X137509524Y-135049461D01*
X137509524Y-135049461D02*
X137461905Y-134954223D01*
X137461905Y-134954223D02*
X137414286Y-134763747D01*
X137414286Y-134763747D02*
X137414286Y-134620890D01*
X137414286Y-134620890D02*
X137461905Y-134430414D01*
X137461905Y-134430414D02*
X137509524Y-134335176D01*
X137509524Y-134335176D02*
X137604762Y-134239938D01*
X137604762Y-134239938D02*
X137747619Y-134192319D01*
X137747619Y-134192319D02*
X137842857Y-134192319D01*
X137842857Y-134192319D02*
X137985714Y-134239938D01*
X137985714Y-134239938D02*
X138033333Y-134287557D01*
X138890476Y-134192319D02*
X138700000Y-134192319D01*
X138700000Y-134192319D02*
X138604762Y-134239938D01*
X138604762Y-134239938D02*
X138557143Y-134287557D01*
X138557143Y-134287557D02*
X138461905Y-134430414D01*
X138461905Y-134430414D02*
X138414286Y-134620890D01*
X138414286Y-134620890D02*
X138414286Y-135001842D01*
X138414286Y-135001842D02*
X138461905Y-135097080D01*
X138461905Y-135097080D02*
X138509524Y-135144700D01*
X138509524Y-135144700D02*
X138604762Y-135192319D01*
X138604762Y-135192319D02*
X138795238Y-135192319D01*
X138795238Y-135192319D02*
X138890476Y-135144700D01*
X138890476Y-135144700D02*
X138938095Y-135097080D01*
X138938095Y-135097080D02*
X138985714Y-135001842D01*
X138985714Y-135001842D02*
X138985714Y-134763747D01*
X138985714Y-134763747D02*
X138938095Y-134668509D01*
X138938095Y-134668509D02*
X138890476Y-134620890D01*
X138890476Y-134620890D02*
X138795238Y-134573271D01*
X138795238Y-134573271D02*
X138604762Y-134573271D01*
X138604762Y-134573271D02*
X138509524Y-134620890D01*
X138509524Y-134620890D02*
X138461905Y-134668509D01*
X138461905Y-134668509D02*
X138414286Y-134763747D01*
X134216666Y-72154819D02*
X134216666Y-72869104D01*
X134216666Y-72869104D02*
X134169047Y-73011961D01*
X134169047Y-73011961D02*
X134073809Y-73107200D01*
X134073809Y-73107200D02*
X133930952Y-73154819D01*
X133930952Y-73154819D02*
X133835714Y-73154819D01*
X134597619Y-72154819D02*
X135216666Y-72154819D01*
X135216666Y-72154819D02*
X134883333Y-72535771D01*
X134883333Y-72535771D02*
X135026190Y-72535771D01*
X135026190Y-72535771D02*
X135121428Y-72583390D01*
X135121428Y-72583390D02*
X135169047Y-72631009D01*
X135169047Y-72631009D02*
X135216666Y-72726247D01*
X135216666Y-72726247D02*
X135216666Y-72964342D01*
X135216666Y-72964342D02*
X135169047Y-73059580D01*
X135169047Y-73059580D02*
X135121428Y-73107200D01*
X135121428Y-73107200D02*
X135026190Y-73154819D01*
X135026190Y-73154819D02*
X134740476Y-73154819D01*
X134740476Y-73154819D02*
X134645238Y-73107200D01*
X134645238Y-73107200D02*
X134597619Y-73059580D01*
X62583333Y-119697080D02*
X62535714Y-119744700D01*
X62535714Y-119744700D02*
X62392857Y-119792319D01*
X62392857Y-119792319D02*
X62297619Y-119792319D01*
X62297619Y-119792319D02*
X62154762Y-119744700D01*
X62154762Y-119744700D02*
X62059524Y-119649461D01*
X62059524Y-119649461D02*
X62011905Y-119554223D01*
X62011905Y-119554223D02*
X61964286Y-119363747D01*
X61964286Y-119363747D02*
X61964286Y-119220890D01*
X61964286Y-119220890D02*
X62011905Y-119030414D01*
X62011905Y-119030414D02*
X62059524Y-118935176D01*
X62059524Y-118935176D02*
X62154762Y-118839938D01*
X62154762Y-118839938D02*
X62297619Y-118792319D01*
X62297619Y-118792319D02*
X62392857Y-118792319D01*
X62392857Y-118792319D02*
X62535714Y-118839938D01*
X62535714Y-118839938D02*
X62583333Y-118887557D01*
X63011905Y-119792319D02*
X63011905Y-118792319D01*
X63011905Y-118792319D02*
X63392857Y-118792319D01*
X63392857Y-118792319D02*
X63488095Y-118839938D01*
X63488095Y-118839938D02*
X63535714Y-118887557D01*
X63535714Y-118887557D02*
X63583333Y-118982795D01*
X63583333Y-118982795D02*
X63583333Y-119125652D01*
X63583333Y-119125652D02*
X63535714Y-119220890D01*
X63535714Y-119220890D02*
X63488095Y-119268509D01*
X63488095Y-119268509D02*
X63392857Y-119316128D01*
X63392857Y-119316128D02*
X63011905Y-119316128D01*
X64488095Y-118792319D02*
X64011905Y-118792319D01*
X64011905Y-118792319D02*
X63964286Y-119268509D01*
X63964286Y-119268509D02*
X64011905Y-119220890D01*
X64011905Y-119220890D02*
X64107143Y-119173271D01*
X64107143Y-119173271D02*
X64345238Y-119173271D01*
X64345238Y-119173271D02*
X64440476Y-119220890D01*
X64440476Y-119220890D02*
X64488095Y-119268509D01*
X64488095Y-119268509D02*
X64535714Y-119363747D01*
X64535714Y-119363747D02*
X64535714Y-119601842D01*
X64535714Y-119601842D02*
X64488095Y-119697080D01*
X64488095Y-119697080D02*
X64440476Y-119744700D01*
X64440476Y-119744700D02*
X64345238Y-119792319D01*
X64345238Y-119792319D02*
X64107143Y-119792319D01*
X64107143Y-119792319D02*
X64011905Y-119744700D01*
X64011905Y-119744700D02*
X63964286Y-119697080D01*
X124161905Y-102854819D02*
X124161905Y-101854819D01*
X124161905Y-101854819D02*
X124400000Y-101854819D01*
X124400000Y-101854819D02*
X124542857Y-101902438D01*
X124542857Y-101902438D02*
X124638095Y-101997676D01*
X124638095Y-101997676D02*
X124685714Y-102092914D01*
X124685714Y-102092914D02*
X124733333Y-102283390D01*
X124733333Y-102283390D02*
X124733333Y-102426247D01*
X124733333Y-102426247D02*
X124685714Y-102616723D01*
X124685714Y-102616723D02*
X124638095Y-102711961D01*
X124638095Y-102711961D02*
X124542857Y-102807200D01*
X124542857Y-102807200D02*
X124400000Y-102854819D01*
X124400000Y-102854819D02*
X124161905Y-102854819D01*
X125590476Y-102188152D02*
X125590476Y-102854819D01*
X125352381Y-101807200D02*
X125114286Y-102521485D01*
X125114286Y-102521485D02*
X125733333Y-102521485D01*
X132666905Y-105069104D02*
X133143095Y-105069104D01*
X132571667Y-105354819D02*
X132905000Y-104354819D01*
X132905000Y-104354819D02*
X133238333Y-105354819D01*
X128123809Y-50978628D02*
X128123809Y-51454819D01*
X127790476Y-50454819D02*
X128123809Y-50978628D01*
X128123809Y-50978628D02*
X128457142Y-50454819D01*
X129314285Y-51454819D02*
X128742857Y-51454819D01*
X129028571Y-51454819D02*
X129028571Y-50454819D01*
X129028571Y-50454819D02*
X128933333Y-50597676D01*
X128933333Y-50597676D02*
X128838095Y-50692914D01*
X128838095Y-50692914D02*
X128742857Y-50740533D01*
X132857142Y-108854819D02*
X132523809Y-108378628D01*
X132285714Y-108854819D02*
X132285714Y-107854819D01*
X132285714Y-107854819D02*
X132666666Y-107854819D01*
X132666666Y-107854819D02*
X132761904Y-107902438D01*
X132761904Y-107902438D02*
X132809523Y-107950057D01*
X132809523Y-107950057D02*
X132857142Y-108045295D01*
X132857142Y-108045295D02*
X132857142Y-108188152D01*
X132857142Y-108188152D02*
X132809523Y-108283390D01*
X132809523Y-108283390D02*
X132761904Y-108331009D01*
X132761904Y-108331009D02*
X132666666Y-108378628D01*
X132666666Y-108378628D02*
X132285714Y-108378628D01*
X133809523Y-108854819D02*
X133238095Y-108854819D01*
X133523809Y-108854819D02*
X133523809Y-107854819D01*
X133523809Y-107854819D02*
X133428571Y-107997676D01*
X133428571Y-107997676D02*
X133333333Y-108092914D01*
X133333333Y-108092914D02*
X133238095Y-108140533D01*
X134666666Y-107854819D02*
X134476190Y-107854819D01*
X134476190Y-107854819D02*
X134380952Y-107902438D01*
X134380952Y-107902438D02*
X134333333Y-107950057D01*
X134333333Y-107950057D02*
X134238095Y-108092914D01*
X134238095Y-108092914D02*
X134190476Y-108283390D01*
X134190476Y-108283390D02*
X134190476Y-108664342D01*
X134190476Y-108664342D02*
X134238095Y-108759580D01*
X134238095Y-108759580D02*
X134285714Y-108807200D01*
X134285714Y-108807200D02*
X134380952Y-108854819D01*
X134380952Y-108854819D02*
X134571428Y-108854819D01*
X134571428Y-108854819D02*
X134666666Y-108807200D01*
X134666666Y-108807200D02*
X134714285Y-108759580D01*
X134714285Y-108759580D02*
X134761904Y-108664342D01*
X134761904Y-108664342D02*
X134761904Y-108426247D01*
X134761904Y-108426247D02*
X134714285Y-108331009D01*
X134714285Y-108331009D02*
X134666666Y-108283390D01*
X134666666Y-108283390D02*
X134571428Y-108235771D01*
X134571428Y-108235771D02*
X134380952Y-108235771D01*
X134380952Y-108235771D02*
X134285714Y-108283390D01*
X134285714Y-108283390D02*
X134238095Y-108331009D01*
X134238095Y-108331009D02*
X134190476Y-108426247D01*
X120166666Y-133518509D02*
X119833333Y-133518509D01*
X119833333Y-134042319D02*
X119833333Y-133042319D01*
X119833333Y-133042319D02*
X120309523Y-133042319D01*
X121214285Y-134042319D02*
X120642857Y-134042319D01*
X120928571Y-134042319D02*
X120928571Y-133042319D01*
X120928571Y-133042319D02*
X120833333Y-133185176D01*
X120833333Y-133185176D02*
X120738095Y-133280414D01*
X120738095Y-133280414D02*
X120642857Y-133328033D01*
X124833333Y-127172319D02*
X124500000Y-126696128D01*
X124261905Y-127172319D02*
X124261905Y-126172319D01*
X124261905Y-126172319D02*
X124642857Y-126172319D01*
X124642857Y-126172319D02*
X124738095Y-126219938D01*
X124738095Y-126219938D02*
X124785714Y-126267557D01*
X124785714Y-126267557D02*
X124833333Y-126362795D01*
X124833333Y-126362795D02*
X124833333Y-126505652D01*
X124833333Y-126505652D02*
X124785714Y-126600890D01*
X124785714Y-126600890D02*
X124738095Y-126648509D01*
X124738095Y-126648509D02*
X124642857Y-126696128D01*
X124642857Y-126696128D02*
X124261905Y-126696128D01*
X125690476Y-126172319D02*
X125500000Y-126172319D01*
X125500000Y-126172319D02*
X125404762Y-126219938D01*
X125404762Y-126219938D02*
X125357143Y-126267557D01*
X125357143Y-126267557D02*
X125261905Y-126410414D01*
X125261905Y-126410414D02*
X125214286Y-126600890D01*
X125214286Y-126600890D02*
X125214286Y-126981842D01*
X125214286Y-126981842D02*
X125261905Y-127077080D01*
X125261905Y-127077080D02*
X125309524Y-127124700D01*
X125309524Y-127124700D02*
X125404762Y-127172319D01*
X125404762Y-127172319D02*
X125595238Y-127172319D01*
X125595238Y-127172319D02*
X125690476Y-127124700D01*
X125690476Y-127124700D02*
X125738095Y-127077080D01*
X125738095Y-127077080D02*
X125785714Y-126981842D01*
X125785714Y-126981842D02*
X125785714Y-126743747D01*
X125785714Y-126743747D02*
X125738095Y-126648509D01*
X125738095Y-126648509D02*
X125690476Y-126600890D01*
X125690476Y-126600890D02*
X125595238Y-126553271D01*
X125595238Y-126553271D02*
X125404762Y-126553271D01*
X125404762Y-126553271D02*
X125309524Y-126600890D01*
X125309524Y-126600890D02*
X125261905Y-126648509D01*
X125261905Y-126648509D02*
X125214286Y-126743747D01*
X117416666Y-117604819D02*
X117416666Y-118319104D01*
X117416666Y-118319104D02*
X117369047Y-118461961D01*
X117369047Y-118461961D02*
X117273809Y-118557200D01*
X117273809Y-118557200D02*
X117130952Y-118604819D01*
X117130952Y-118604819D02*
X117035714Y-118604819D01*
X117892857Y-118604819D02*
X117892857Y-117604819D01*
X117892857Y-117604819D02*
X118273809Y-117604819D01*
X118273809Y-117604819D02*
X118369047Y-117652438D01*
X118369047Y-117652438D02*
X118416666Y-117700057D01*
X118416666Y-117700057D02*
X118464285Y-117795295D01*
X118464285Y-117795295D02*
X118464285Y-117938152D01*
X118464285Y-117938152D02*
X118416666Y-118033390D01*
X118416666Y-118033390D02*
X118369047Y-118081009D01*
X118369047Y-118081009D02*
X118273809Y-118128628D01*
X118273809Y-118128628D02*
X117892857Y-118128628D01*
X119416666Y-118604819D02*
X118845238Y-118604819D01*
X119130952Y-118604819D02*
X119130952Y-117604819D01*
X119130952Y-117604819D02*
X119035714Y-117747676D01*
X119035714Y-117747676D02*
X118940476Y-117842914D01*
X118940476Y-117842914D02*
X118845238Y-117890533D01*
X100961905Y-77567319D02*
X100961905Y-76567319D01*
X101533333Y-77567319D02*
X101104762Y-76995890D01*
X101533333Y-76567319D02*
X100961905Y-77138747D01*
X102485714Y-77567319D02*
X101914286Y-77567319D01*
X102200000Y-77567319D02*
X102200000Y-76567319D01*
X102200000Y-76567319D02*
X102104762Y-76710176D01*
X102104762Y-76710176D02*
X102009524Y-76805414D01*
X102009524Y-76805414D02*
X101914286Y-76853033D01*
X146061905Y-127054819D02*
X146061905Y-126054819D01*
X146061905Y-126054819D02*
X146300000Y-126054819D01*
X146300000Y-126054819D02*
X146442857Y-126102438D01*
X146442857Y-126102438D02*
X146538095Y-126197676D01*
X146538095Y-126197676D02*
X146585714Y-126292914D01*
X146585714Y-126292914D02*
X146633333Y-126483390D01*
X146633333Y-126483390D02*
X146633333Y-126626247D01*
X146633333Y-126626247D02*
X146585714Y-126816723D01*
X146585714Y-126816723D02*
X146538095Y-126911961D01*
X146538095Y-126911961D02*
X146442857Y-127007200D01*
X146442857Y-127007200D02*
X146300000Y-127054819D01*
X146300000Y-127054819D02*
X146061905Y-127054819D01*
X147014286Y-126150057D02*
X147061905Y-126102438D01*
X147061905Y-126102438D02*
X147157143Y-126054819D01*
X147157143Y-126054819D02*
X147395238Y-126054819D01*
X147395238Y-126054819D02*
X147490476Y-126102438D01*
X147490476Y-126102438D02*
X147538095Y-126150057D01*
X147538095Y-126150057D02*
X147585714Y-126245295D01*
X147585714Y-126245295D02*
X147585714Y-126340533D01*
X147585714Y-126340533D02*
X147538095Y-126483390D01*
X147538095Y-126483390D02*
X146966667Y-127054819D01*
X146966667Y-127054819D02*
X147585714Y-127054819D01*
X141338095Y-134664819D02*
X141338095Y-133664819D01*
X141909523Y-134664819D02*
X141480952Y-134093390D01*
X141909523Y-133664819D02*
X141338095Y-134236247D01*
X63078571Y-148297080D02*
X63030952Y-148344700D01*
X63030952Y-148344700D02*
X62888095Y-148392319D01*
X62888095Y-148392319D02*
X62792857Y-148392319D01*
X62792857Y-148392319D02*
X62650000Y-148344700D01*
X62650000Y-148344700D02*
X62554762Y-148249461D01*
X62554762Y-148249461D02*
X62507143Y-148154223D01*
X62507143Y-148154223D02*
X62459524Y-147963747D01*
X62459524Y-147963747D02*
X62459524Y-147820890D01*
X62459524Y-147820890D02*
X62507143Y-147630414D01*
X62507143Y-147630414D02*
X62554762Y-147535176D01*
X62554762Y-147535176D02*
X62650000Y-147439938D01*
X62650000Y-147439938D02*
X62792857Y-147392319D01*
X62792857Y-147392319D02*
X62888095Y-147392319D01*
X62888095Y-147392319D02*
X63030952Y-147439938D01*
X63030952Y-147439938D02*
X63078571Y-147487557D01*
X63983333Y-148392319D02*
X63507143Y-148392319D01*
X63507143Y-148392319D02*
X63507143Y-147392319D01*
X64888095Y-148392319D02*
X64554762Y-147916128D01*
X64316667Y-148392319D02*
X64316667Y-147392319D01*
X64316667Y-147392319D02*
X64697619Y-147392319D01*
X64697619Y-147392319D02*
X64792857Y-147439938D01*
X64792857Y-147439938D02*
X64840476Y-147487557D01*
X64840476Y-147487557D02*
X64888095Y-147582795D01*
X64888095Y-147582795D02*
X64888095Y-147725652D01*
X64888095Y-147725652D02*
X64840476Y-147820890D01*
X64840476Y-147820890D02*
X64792857Y-147868509D01*
X64792857Y-147868509D02*
X64697619Y-147916128D01*
X64697619Y-147916128D02*
X64316667Y-147916128D01*
X65269048Y-147487557D02*
X65316667Y-147439938D01*
X65316667Y-147439938D02*
X65411905Y-147392319D01*
X65411905Y-147392319D02*
X65650000Y-147392319D01*
X65650000Y-147392319D02*
X65745238Y-147439938D01*
X65745238Y-147439938D02*
X65792857Y-147487557D01*
X65792857Y-147487557D02*
X65840476Y-147582795D01*
X65840476Y-147582795D02*
X65840476Y-147678033D01*
X65840476Y-147678033D02*
X65792857Y-147820890D01*
X65792857Y-147820890D02*
X65221429Y-148392319D01*
X65221429Y-148392319D02*
X65840476Y-148392319D01*
X120957142Y-91759580D02*
X120909523Y-91807200D01*
X120909523Y-91807200D02*
X120766666Y-91854819D01*
X120766666Y-91854819D02*
X120671428Y-91854819D01*
X120671428Y-91854819D02*
X120528571Y-91807200D01*
X120528571Y-91807200D02*
X120433333Y-91711961D01*
X120433333Y-91711961D02*
X120385714Y-91616723D01*
X120385714Y-91616723D02*
X120338095Y-91426247D01*
X120338095Y-91426247D02*
X120338095Y-91283390D01*
X120338095Y-91283390D02*
X120385714Y-91092914D01*
X120385714Y-91092914D02*
X120433333Y-90997676D01*
X120433333Y-90997676D02*
X120528571Y-90902438D01*
X120528571Y-90902438D02*
X120671428Y-90854819D01*
X120671428Y-90854819D02*
X120766666Y-90854819D01*
X120766666Y-90854819D02*
X120909523Y-90902438D01*
X120909523Y-90902438D02*
X120957142Y-90950057D01*
X121909523Y-91854819D02*
X121338095Y-91854819D01*
X121623809Y-91854819D02*
X121623809Y-90854819D01*
X121623809Y-90854819D02*
X121528571Y-90997676D01*
X121528571Y-90997676D02*
X121433333Y-91092914D01*
X121433333Y-91092914D02*
X121338095Y-91140533D01*
X122528571Y-90854819D02*
X122623809Y-90854819D01*
X122623809Y-90854819D02*
X122719047Y-90902438D01*
X122719047Y-90902438D02*
X122766666Y-90950057D01*
X122766666Y-90950057D02*
X122814285Y-91045295D01*
X122814285Y-91045295D02*
X122861904Y-91235771D01*
X122861904Y-91235771D02*
X122861904Y-91473866D01*
X122861904Y-91473866D02*
X122814285Y-91664342D01*
X122814285Y-91664342D02*
X122766666Y-91759580D01*
X122766666Y-91759580D02*
X122719047Y-91807200D01*
X122719047Y-91807200D02*
X122623809Y-91854819D01*
X122623809Y-91854819D02*
X122528571Y-91854819D01*
X122528571Y-91854819D02*
X122433333Y-91807200D01*
X122433333Y-91807200D02*
X122385714Y-91759580D01*
X122385714Y-91759580D02*
X122338095Y-91664342D01*
X122338095Y-91664342D02*
X122290476Y-91473866D01*
X122290476Y-91473866D02*
X122290476Y-91235771D01*
X122290476Y-91235771D02*
X122338095Y-91045295D01*
X122338095Y-91045295D02*
X122385714Y-90950057D01*
X122385714Y-90950057D02*
X122433333Y-90902438D01*
X122433333Y-90902438D02*
X122528571Y-90854819D01*
D11*
%TO.C,R3*%
X107660000Y-58800000D02*
G75*
G03*
X107660000Y-58800000I-2620000J0D01*
G01*
X107660000Y-58800000D02*
X111160000Y-58800000D01*
%TO.C,R2*%
X108840000Y-53000000D02*
X105340000Y-53000000D01*
X114080000Y-53000000D02*
G75*
G03*
X114080000Y-53000000I-2620000J0D01*
G01*
%TO.C,R1*%
X117800000Y-56590000D02*
X117800000Y-53090000D01*
X120420000Y-59210000D02*
G75*
G03*
X120420000Y-59210000I-2620000J0D01*
G01*
%TO.C,JP2*%
X124450000Y-109137500D02*
X121650000Y-109137500D01*
X124450000Y-107137500D02*
X124450000Y-109137500D01*
X121650000Y-109137500D02*
X121650000Y-107137500D01*
X121650000Y-107137500D02*
X124450000Y-107137500D01*
%TO.C,C4*%
X130909888Y-119212500D02*
X130409888Y-119212500D01*
X130659888Y-119462500D02*
X130659888Y-118962500D01*
X128105113Y-120317500D02*
X128105113Y-118777500D01*
X128105113Y-116697500D02*
X128105113Y-115157500D01*
X128065113Y-120317500D02*
X128065113Y-118777500D01*
X128065113Y-116697500D02*
X128065113Y-115157500D01*
X128025113Y-120316500D02*
X128025113Y-118777500D01*
X128025113Y-116697500D02*
X128025113Y-115158500D01*
X127985113Y-120315500D02*
X127985113Y-118777500D01*
X127985113Y-116697500D02*
X127985113Y-115159500D01*
X127945113Y-120313500D02*
X127945113Y-118777500D01*
X127945113Y-116697500D02*
X127945113Y-115161500D01*
X127905113Y-120310500D02*
X127905113Y-118777500D01*
X127905113Y-116697500D02*
X127905113Y-115164500D01*
X127865113Y-120306500D02*
X127865113Y-118777500D01*
X127865113Y-116697500D02*
X127865113Y-115168500D01*
X127825113Y-120302500D02*
X127825113Y-118777500D01*
X127825113Y-116697500D02*
X127825113Y-115172500D01*
X127785113Y-120298500D02*
X127785113Y-118777500D01*
X127785113Y-116697500D02*
X127785113Y-115176500D01*
X127745113Y-120293500D02*
X127745113Y-118777500D01*
X127745113Y-116697500D02*
X127745113Y-115181500D01*
X127705113Y-120287500D02*
X127705113Y-118777500D01*
X127705113Y-116697500D02*
X127705113Y-115187500D01*
X127665113Y-120280500D02*
X127665113Y-118777500D01*
X127665113Y-116697500D02*
X127665113Y-115194500D01*
X127625113Y-120273500D02*
X127625113Y-118777500D01*
X127625113Y-116697500D02*
X127625113Y-115201500D01*
X127585113Y-120265500D02*
X127585113Y-118777500D01*
X127585113Y-116697500D02*
X127585113Y-115209500D01*
X127545113Y-120257500D02*
X127545113Y-118777500D01*
X127545113Y-116697500D02*
X127545113Y-115217500D01*
X127505113Y-120248500D02*
X127505113Y-118777500D01*
X127505113Y-116697500D02*
X127505113Y-115226500D01*
X127465113Y-120238500D02*
X127465113Y-118777500D01*
X127465113Y-116697500D02*
X127465113Y-115236500D01*
X127425113Y-120228500D02*
X127425113Y-118777500D01*
X127425113Y-116697500D02*
X127425113Y-115246500D01*
X127384113Y-120217500D02*
X127384113Y-118777500D01*
X127384113Y-116697500D02*
X127384113Y-115257500D01*
X127344113Y-120205500D02*
X127344113Y-118777500D01*
X127344113Y-116697500D02*
X127344113Y-115269500D01*
X127304113Y-120192500D02*
X127304113Y-118777500D01*
X127304113Y-116697500D02*
X127304113Y-115282500D01*
X127264113Y-120179500D02*
X127264113Y-118777500D01*
X127264113Y-116697500D02*
X127264113Y-115295500D01*
X127224113Y-120165500D02*
X127224113Y-118777500D01*
X127224113Y-116697500D02*
X127224113Y-115309500D01*
X127184113Y-120151500D02*
X127184113Y-118777500D01*
X127184113Y-116697500D02*
X127184113Y-115323500D01*
X127144113Y-120135500D02*
X127144113Y-118777500D01*
X127144113Y-116697500D02*
X127144113Y-115339500D01*
X127104113Y-120119500D02*
X127104113Y-118777500D01*
X127104113Y-116697500D02*
X127104113Y-115355500D01*
X127064113Y-120102500D02*
X127064113Y-118777500D01*
X127064113Y-116697500D02*
X127064113Y-115372500D01*
X127024113Y-120085500D02*
X127024113Y-118777500D01*
X127024113Y-116697500D02*
X127024113Y-115389500D01*
X126984113Y-120066500D02*
X126984113Y-118777500D01*
X126984113Y-116697500D02*
X126984113Y-115408500D01*
X126944113Y-120047500D02*
X126944113Y-118777500D01*
X126944113Y-116697500D02*
X126944113Y-115427500D01*
X126904113Y-120027500D02*
X126904113Y-118777500D01*
X126904113Y-116697500D02*
X126904113Y-115447500D01*
X126864113Y-120005500D02*
X126864113Y-118777500D01*
X126864113Y-116697500D02*
X126864113Y-115469500D01*
X126824113Y-119984500D02*
X126824113Y-118777500D01*
X126824113Y-116697500D02*
X126824113Y-115490500D01*
X126784113Y-119961500D02*
X126784113Y-118777500D01*
X126784113Y-116697500D02*
X126784113Y-115513500D01*
X126744113Y-119937500D02*
X126744113Y-118777500D01*
X126744113Y-116697500D02*
X126744113Y-115537500D01*
X126704113Y-119912500D02*
X126704113Y-118777500D01*
X126704113Y-116697500D02*
X126704113Y-115562500D01*
X126664113Y-119886500D02*
X126664113Y-118777500D01*
X126664113Y-116697500D02*
X126664113Y-115588500D01*
X126624113Y-119859500D02*
X126624113Y-118777500D01*
X126624113Y-116697500D02*
X126624113Y-115615500D01*
X126584113Y-119832500D02*
X126584113Y-118777500D01*
X126584113Y-116697500D02*
X126584113Y-115642500D01*
X126544113Y-119802500D02*
X126544113Y-118777500D01*
X126544113Y-116697500D02*
X126544113Y-115672500D01*
X126504113Y-119772500D02*
X126504113Y-118777500D01*
X126504113Y-116697500D02*
X126504113Y-115702500D01*
X126464113Y-119741500D02*
X126464113Y-118777500D01*
X126464113Y-116697500D02*
X126464113Y-115733500D01*
X126424113Y-119708500D02*
X126424113Y-118777500D01*
X126424113Y-116697500D02*
X126424113Y-115766500D01*
X126384113Y-119674500D02*
X126384113Y-118777500D01*
X126384113Y-116697500D02*
X126384113Y-115800500D01*
X126344113Y-119638500D02*
X126344113Y-118777500D01*
X126344113Y-116697500D02*
X126344113Y-115836500D01*
X126304113Y-119601500D02*
X126304113Y-118777500D01*
X126304113Y-116697500D02*
X126304113Y-115873500D01*
X126264113Y-119563500D02*
X126264113Y-118777500D01*
X126264113Y-116697500D02*
X126264113Y-115911500D01*
X126224113Y-119522500D02*
X126224113Y-118777500D01*
X126224113Y-116697500D02*
X126224113Y-115952500D01*
X126184113Y-119480500D02*
X126184113Y-118777500D01*
X126184113Y-116697500D02*
X126184113Y-115994500D01*
X126144113Y-119436500D02*
X126144113Y-118777500D01*
X126144113Y-116697500D02*
X126144113Y-116038500D01*
X126104113Y-119390500D02*
X126104113Y-118777500D01*
X126104113Y-116697500D02*
X126104113Y-116084500D01*
X126064113Y-119342500D02*
X126064113Y-116132500D01*
X126024113Y-119291500D02*
X126024113Y-116183500D01*
X125984113Y-119237500D02*
X125984113Y-116237500D01*
X125944113Y-119180500D02*
X125944113Y-116294500D01*
X125904113Y-119120500D02*
X125904113Y-116354500D01*
X125864113Y-119056500D02*
X125864113Y-116418500D01*
X125824113Y-118988500D02*
X125824113Y-116486500D01*
X125784113Y-118915500D02*
X125784113Y-116559500D01*
X125744113Y-118835500D02*
X125744113Y-116639500D01*
X125704113Y-118748500D02*
X125704113Y-116726500D01*
X125664113Y-118652500D02*
X125664113Y-116822500D01*
X125624113Y-118542500D02*
X125624113Y-116932500D01*
X125584113Y-118414500D02*
X125584113Y-117060500D01*
X125544113Y-118255500D02*
X125544113Y-117219500D01*
X125504113Y-118021500D02*
X125504113Y-117453500D01*
X130725113Y-117737500D02*
G75*
G03*
X130725113Y-117737500I-2620000J0D01*
G01*
%TO.C,QP2*%
X149140000Y-127130000D02*
X149140000Y-131771000D01*
X149140000Y-127130000D02*
X159380000Y-127130000D01*
X149140000Y-128640000D02*
X159380000Y-128640000D01*
X149140000Y-131771000D02*
X159380000Y-131771000D01*
X152410000Y-127130000D02*
X152410000Y-128640000D01*
X156111000Y-127130000D02*
X156111000Y-128640000D01*
X159380000Y-127130000D02*
X159380000Y-131771000D01*
%TO.C,R4*%
X101735000Y-79860436D02*
X101735000Y-80314564D01*
X100265000Y-79860436D02*
X100265000Y-80314564D01*
%TO.C,D1*%
X68892500Y-72980000D02*
X70092500Y-72980000D01*
X68892500Y-74280000D02*
X68892500Y-72980000D01*
X69092500Y-73180000D02*
X69092500Y-80580000D01*
X69092500Y-80580000D02*
X92492500Y-80580000D01*
X73792500Y-73580000D02*
X73792500Y-73180000D01*
X73792500Y-77180000D02*
X73792500Y-80580000D01*
X92492500Y-73180000D02*
X69092500Y-73180000D01*
X92492500Y-80580000D02*
X92492500Y-73180000D01*
%TO.C,TP1*%
X61550000Y-104637500D02*
X64950000Y-104637500D01*
X61550000Y-108037500D02*
X61550000Y-104637500D01*
X64950000Y-104637500D02*
X64950000Y-108037500D01*
X64950000Y-108037500D02*
X61550000Y-108037500D01*
%TO.C,R8*%
X133130000Y-133870000D02*
X133130000Y-127330000D01*
X133460000Y-133870000D02*
X133130000Y-133870000D01*
X135540000Y-133870000D02*
X135870000Y-133870000D01*
X135870000Y-133870000D02*
X135870000Y-127330000D01*
X133130000Y-127330000D02*
X133460000Y-127330000D01*
X135870000Y-127330000D02*
X135540000Y-127330000D01*
%TO.C,TP2*%
X117550000Y-139637500D02*
X119950000Y-139637500D01*
X117550000Y-142037500D02*
X117550000Y-139637500D01*
X119950000Y-139637500D02*
X119950000Y-142037500D01*
X119950000Y-142037500D02*
X117550000Y-142037500D01*
%TO.C,DP1*%
X92120000Y-134412500D02*
X92120000Y-129771500D01*
X92120000Y-134412500D02*
X81880000Y-134412500D01*
X92120000Y-132902500D02*
X81880000Y-132902500D01*
X92120000Y-129771500D02*
X81880000Y-129771500D01*
X88850000Y-134412500D02*
X88850000Y-132902500D01*
X85149000Y-134412500D02*
X85149000Y-132902500D01*
X81880000Y-134412500D02*
X81880000Y-129771500D01*
%TO.C,D6*%
X130490000Y-109297500D02*
X130490000Y-109117500D01*
X130490000Y-109297500D02*
X127070000Y-109297500D01*
X130490000Y-106957500D02*
X130490000Y-106777500D01*
X130490000Y-106777500D02*
X127070000Y-106777500D01*
X130370000Y-109297500D02*
X130370000Y-109117500D01*
X130370000Y-106957500D02*
X130370000Y-106777500D01*
X130250000Y-109297500D02*
X130250000Y-109117500D01*
X130250000Y-106957500D02*
X130250000Y-106777500D01*
X127070000Y-109297500D02*
X127070000Y-109132500D01*
X127070000Y-106942500D02*
X127070000Y-106777500D01*
%TO.C,D5*%
X118240000Y-114415000D02*
X118420000Y-114415000D01*
X118240000Y-114415000D02*
X118240000Y-110995000D01*
X120580000Y-114415000D02*
X120760000Y-114415000D01*
X120760000Y-114415000D02*
X120760000Y-110995000D01*
X118240000Y-114295000D02*
X118420000Y-114295000D01*
X120580000Y-114295000D02*
X120760000Y-114295000D01*
X118240000Y-114175000D02*
X118420000Y-114175000D01*
X120580000Y-114175000D02*
X120760000Y-114175000D01*
X118240000Y-110995000D02*
X118405000Y-110995000D01*
X120595000Y-110995000D02*
X120760000Y-110995000D01*
%TO.C,CLR1*%
X60500000Y-42573500D02*
X99500000Y-42573500D01*
X60500000Y-65073500D02*
X101500000Y-65073500D01*
X60500000Y-72573500D02*
X60500000Y-42573500D01*
X60500000Y-72573500D02*
X101500000Y-72573500D01*
X78500000Y-65073500D02*
X78500000Y-72573500D01*
X83500000Y-65073500D02*
X83500000Y-72573500D01*
X101500000Y-42573500D02*
X99500000Y-42573500D01*
X101500000Y-72573500D02*
X101500000Y-42573500D01*
%TO.C,D3*%
X131230000Y-118747500D02*
X131230000Y-113307500D01*
X131360000Y-118747500D02*
X131230000Y-118747500D01*
X134040000Y-118747500D02*
X134170000Y-118747500D01*
X134170000Y-118747500D02*
X134170000Y-113307500D01*
X131230000Y-117967500D02*
X134170000Y-117967500D01*
X131230000Y-117847500D02*
X134170000Y-117847500D01*
X131230000Y-117727500D02*
X134170000Y-117727500D01*
X131230000Y-113307500D02*
X131360000Y-113307500D01*
X134170000Y-113307500D02*
X134040000Y-113307500D01*
%TO.C,C3*%
X142847755Y-137045000D02*
X144447755Y-137045000D01*
X143647755Y-136245000D02*
X143647755Y-137845000D01*
X151537246Y-133519000D02*
X151537246Y-149681000D01*
X151577246Y-133520000D02*
X151577246Y-149680000D01*
X151617246Y-133520000D02*
X151617246Y-149680000D01*
X151657246Y-133520000D02*
X151657246Y-149680000D01*
X151697246Y-133521000D02*
X151697246Y-149679000D01*
X151737246Y-133522000D02*
X151737246Y-149678000D01*
X151777246Y-133523000D02*
X151777246Y-149677000D01*
X151817246Y-133524000D02*
X151817246Y-149676000D01*
X151857246Y-133526000D02*
X151857246Y-149674000D01*
X151897246Y-133527000D02*
X151897246Y-149673000D01*
X151937246Y-133529000D02*
X151937246Y-149671000D01*
X151977246Y-133531000D02*
X151977246Y-149669000D01*
X152017246Y-133534000D02*
X152017246Y-149666000D01*
X152057246Y-133536000D02*
X152057246Y-149664000D01*
X152097246Y-133539000D02*
X152097246Y-149661000D01*
X152137246Y-133542000D02*
X152137246Y-149658000D01*
X152177246Y-133545000D02*
X152177246Y-149655000D01*
X152217246Y-133548000D02*
X152217246Y-149652000D01*
X152258246Y-133551000D02*
X152258246Y-149649000D01*
X152298246Y-133555000D02*
X152298246Y-149645000D01*
X152338246Y-133559000D02*
X152338246Y-149641000D01*
X152378246Y-133563000D02*
X152378246Y-149637000D01*
X152418246Y-133567000D02*
X152418246Y-149633000D01*
X152458246Y-133572000D02*
X152458246Y-149628000D01*
X152498246Y-133576000D02*
X152498246Y-149624000D01*
X152538246Y-133581000D02*
X152538246Y-149619000D01*
X152578246Y-133586000D02*
X152578246Y-149614000D01*
X152618246Y-133592000D02*
X152618246Y-149608000D01*
X152658246Y-133597000D02*
X152658246Y-149603000D01*
X152698246Y-133603000D02*
X152698246Y-149597000D01*
X152738246Y-133609000D02*
X152738246Y-149591000D01*
X152778246Y-133615000D02*
X152778246Y-149585000D01*
X152818246Y-133621000D02*
X152818246Y-149579000D01*
X152858246Y-133628000D02*
X152858246Y-149572000D01*
X152898246Y-133634000D02*
X152898246Y-149566000D01*
X152938246Y-133641000D02*
X152938246Y-149559000D01*
X152978246Y-133648000D02*
X152978246Y-149552000D01*
X153018246Y-133656000D02*
X153018246Y-149544000D01*
X153058246Y-133663000D02*
X153058246Y-149537000D01*
X153098246Y-133671000D02*
X153098246Y-149529000D01*
X153138246Y-133679000D02*
X153138246Y-149521000D01*
X153178246Y-133687000D02*
X153178246Y-149513000D01*
X153218246Y-133695000D02*
X153218246Y-149505000D01*
X153258246Y-133704000D02*
X153258246Y-149496000D01*
X153298246Y-133713000D02*
X153298246Y-149487000D01*
X153338246Y-133722000D02*
X153338246Y-149478000D01*
X153378246Y-133731000D02*
X153378246Y-149469000D01*
X153418246Y-133740000D02*
X153418246Y-149460000D01*
X153458246Y-133750000D02*
X153458246Y-149450000D01*
X153498246Y-133760000D02*
X153498246Y-149440000D01*
X153538246Y-133770000D02*
X153538246Y-149430000D01*
X153578246Y-133780000D02*
X153578246Y-149420000D01*
X153618246Y-133790000D02*
X153618246Y-149410000D01*
X153658246Y-133801000D02*
X153658246Y-149399000D01*
X153698246Y-133812000D02*
X153698246Y-149388000D01*
X153738246Y-133823000D02*
X153738246Y-149377000D01*
X153778246Y-133835000D02*
X153778246Y-149365000D01*
X153818246Y-133846000D02*
X153818246Y-149354000D01*
X153858246Y-133858000D02*
X153858246Y-140160000D01*
X153858246Y-143040000D02*
X153858246Y-149342000D01*
X153898246Y-133870000D02*
X153898246Y-140160000D01*
X153898246Y-143040000D02*
X153898246Y-149330000D01*
X153938246Y-133882000D02*
X153938246Y-140160000D01*
X153938246Y-143040000D02*
X153938246Y-149318000D01*
X153978246Y-133895000D02*
X153978246Y-140160000D01*
X153978246Y-143040000D02*
X153978246Y-149305000D01*
X154018246Y-133907000D02*
X154018246Y-140160000D01*
X154018246Y-143040000D02*
X154018246Y-149293000D01*
X154058246Y-133920000D02*
X154058246Y-140160000D01*
X154058246Y-143040000D02*
X154058246Y-149280000D01*
X154098246Y-133934000D02*
X154098246Y-140160000D01*
X154098246Y-143040000D02*
X154098246Y-149266000D01*
X154138246Y-133947000D02*
X154138246Y-140160000D01*
X154138246Y-143040000D02*
X154138246Y-149253000D01*
X154178246Y-133961000D02*
X154178246Y-140160000D01*
X154178246Y-143040000D02*
X154178246Y-149239000D01*
X154218246Y-133975000D02*
X154218246Y-140160000D01*
X154218246Y-143040000D02*
X154218246Y-149225000D01*
X154258246Y-133989000D02*
X154258246Y-140160000D01*
X154258246Y-143040000D02*
X154258246Y-149211000D01*
X154298246Y-134003000D02*
X154298246Y-140160000D01*
X154298246Y-143040000D02*
X154298246Y-149197000D01*
X154338246Y-134018000D02*
X154338246Y-140160000D01*
X154338246Y-143040000D02*
X154338246Y-149182000D01*
X154378246Y-134032000D02*
X154378246Y-140160000D01*
X154378246Y-143040000D02*
X154378246Y-149168000D01*
X154418246Y-134047000D02*
X154418246Y-140160000D01*
X154418246Y-143040000D02*
X154418246Y-149153000D01*
X154458246Y-134063000D02*
X154458246Y-140160000D01*
X154458246Y-143040000D02*
X154458246Y-149137000D01*
X154498246Y-134078000D02*
X154498246Y-140160000D01*
X154498246Y-143040000D02*
X154498246Y-149122000D01*
X154538246Y-134094000D02*
X154538246Y-140160000D01*
X154538246Y-143040000D02*
X154538246Y-149106000D01*
X154578246Y-134110000D02*
X154578246Y-140160000D01*
X154578246Y-143040000D02*
X154578246Y-149090000D01*
X154618246Y-134126000D02*
X154618246Y-140160000D01*
X154618246Y-143040000D02*
X154618246Y-149074000D01*
X154658246Y-134143000D02*
X154658246Y-140160000D01*
X154658246Y-143040000D02*
X154658246Y-149057000D01*
X154698246Y-134160000D02*
X154698246Y-140160000D01*
X154698246Y-143040000D02*
X154698246Y-149040000D01*
X154738246Y-134177000D02*
X154738246Y-140160000D01*
X154738246Y-143040000D02*
X154738246Y-149023000D01*
X154778246Y-134194000D02*
X154778246Y-140160000D01*
X154778246Y-143040000D02*
X154778246Y-149006000D01*
X154818246Y-134211000D02*
X154818246Y-140160000D01*
X154818246Y-143040000D02*
X154818246Y-148989000D01*
X154858246Y-134229000D02*
X154858246Y-140160000D01*
X154858246Y-143040000D02*
X154858246Y-148971000D01*
X154898246Y-134247000D02*
X154898246Y-140160000D01*
X154898246Y-143040000D02*
X154898246Y-148953000D01*
X154938246Y-134266000D02*
X154938246Y-140160000D01*
X154938246Y-143040000D02*
X154938246Y-148934000D01*
X154978246Y-134284000D02*
X154978246Y-140160000D01*
X154978246Y-143040000D02*
X154978246Y-148916000D01*
X155018246Y-134303000D02*
X155018246Y-140160000D01*
X155018246Y-143040000D02*
X155018246Y-148897000D01*
X155058246Y-134322000D02*
X155058246Y-140160000D01*
X155058246Y-143040000D02*
X155058246Y-148878000D01*
X155098246Y-134342000D02*
X155098246Y-140160000D01*
X155098246Y-143040000D02*
X155098246Y-148858000D01*
X155138246Y-134361000D02*
X155138246Y-140160000D01*
X155138246Y-143040000D02*
X155138246Y-148839000D01*
X155178246Y-134381000D02*
X155178246Y-140160000D01*
X155178246Y-143040000D02*
X155178246Y-148819000D01*
X155218246Y-134401000D02*
X155218246Y-140160000D01*
X155218246Y-143040000D02*
X155218246Y-148799000D01*
X155258246Y-134422000D02*
X155258246Y-140160000D01*
X155258246Y-143040000D02*
X155258246Y-148778000D01*
X155298246Y-134443000D02*
X155298246Y-140160000D01*
X155298246Y-143040000D02*
X155298246Y-148757000D01*
X155338246Y-134464000D02*
X155338246Y-140160000D01*
X155338246Y-143040000D02*
X155338246Y-148736000D01*
X155378246Y-134485000D02*
X155378246Y-140160000D01*
X155378246Y-143040000D02*
X155378246Y-148715000D01*
X155418246Y-134506000D02*
X155418246Y-140160000D01*
X155418246Y-143040000D02*
X155418246Y-148694000D01*
X155458246Y-134528000D02*
X155458246Y-140160000D01*
X155458246Y-143040000D02*
X155458246Y-148672000D01*
X155498246Y-134551000D02*
X155498246Y-140160000D01*
X155498246Y-143040000D02*
X155498246Y-148649000D01*
X155538246Y-134573000D02*
X155538246Y-140160000D01*
X155538246Y-143040000D02*
X155538246Y-148627000D01*
X155578246Y-134596000D02*
X155578246Y-140160000D01*
X155578246Y-143040000D02*
X155578246Y-148604000D01*
X155618246Y-134619000D02*
X155618246Y-140160000D01*
X155618246Y-143040000D02*
X155618246Y-148581000D01*
X155658246Y-134642000D02*
X155658246Y-140160000D01*
X155658246Y-143040000D02*
X155658246Y-148558000D01*
X155698246Y-134666000D02*
X155698246Y-140160000D01*
X155698246Y-143040000D02*
X155698246Y-148534000D01*
X155738246Y-134690000D02*
X155738246Y-140160000D01*
X155738246Y-143040000D02*
X155738246Y-148510000D01*
X155778246Y-134714000D02*
X155778246Y-140160000D01*
X155778246Y-143040000D02*
X155778246Y-148486000D01*
X155818246Y-134739000D02*
X155818246Y-140160000D01*
X155818246Y-143040000D02*
X155818246Y-148461000D01*
X155858246Y-134764000D02*
X155858246Y-140160000D01*
X155858246Y-143040000D02*
X155858246Y-148436000D01*
X155898246Y-134789000D02*
X155898246Y-140160000D01*
X155898246Y-143040000D02*
X155898246Y-148411000D01*
X155938246Y-134815000D02*
X155938246Y-140160000D01*
X155938246Y-143040000D02*
X155938246Y-148385000D01*
X155978246Y-134841000D02*
X155978246Y-140160000D01*
X155978246Y-143040000D02*
X155978246Y-148359000D01*
X156018246Y-134867000D02*
X156018246Y-140160000D01*
X156018246Y-143040000D02*
X156018246Y-148333000D01*
X156058246Y-134894000D02*
X156058246Y-140160000D01*
X156058246Y-143040000D02*
X156058246Y-148306000D01*
X156098246Y-134921000D02*
X156098246Y-140160000D01*
X156098246Y-143040000D02*
X156098246Y-148279000D01*
X156138246Y-134948000D02*
X156138246Y-140160000D01*
X156138246Y-143040000D02*
X156138246Y-148252000D01*
X156178246Y-134976000D02*
X156178246Y-140160000D01*
X156178246Y-143040000D02*
X156178246Y-148224000D01*
X156218246Y-135004000D02*
X156218246Y-140160000D01*
X156218246Y-143040000D02*
X156218246Y-148196000D01*
X156258246Y-135032000D02*
X156258246Y-140160000D01*
X156258246Y-143040000D02*
X156258246Y-148168000D01*
X156298246Y-135061000D02*
X156298246Y-140160000D01*
X156298246Y-143040000D02*
X156298246Y-148139000D01*
X156338246Y-135090000D02*
X156338246Y-140160000D01*
X156338246Y-143040000D02*
X156338246Y-148110000D01*
X156378246Y-135120000D02*
X156378246Y-140160000D01*
X156378246Y-143040000D02*
X156378246Y-148080000D01*
X156418246Y-135150000D02*
X156418246Y-140160000D01*
X156418246Y-143040000D02*
X156418246Y-148050000D01*
X156458246Y-135180000D02*
X156458246Y-140160000D01*
X156458246Y-143040000D02*
X156458246Y-148020000D01*
X156498246Y-135210000D02*
X156498246Y-140160000D01*
X156498246Y-143040000D02*
X156498246Y-147990000D01*
X156538246Y-135242000D02*
X156538246Y-140160000D01*
X156538246Y-143040000D02*
X156538246Y-147958000D01*
X156578246Y-135273000D02*
X156578246Y-140160000D01*
X156578246Y-143040000D02*
X156578246Y-147927000D01*
X156618246Y-135305000D02*
X156618246Y-140160000D01*
X156618246Y-143040000D02*
X156618246Y-147895000D01*
X156658246Y-135337000D02*
X156658246Y-140160000D01*
X156658246Y-143040000D02*
X156658246Y-147863000D01*
X156698246Y-135370000D02*
X156698246Y-140160000D01*
X156698246Y-143040000D02*
X156698246Y-147830000D01*
X156738246Y-135403000D02*
X156738246Y-147797000D01*
X156778246Y-135437000D02*
X156778246Y-147763000D01*
X156818246Y-135471000D02*
X156818246Y-147729000D01*
X156858246Y-135505000D02*
X156858246Y-147695000D01*
X156898246Y-135540000D02*
X156898246Y-147660000D01*
X156938246Y-135575000D02*
X156938246Y-147625000D01*
X156978246Y-135611000D02*
X156978246Y-147589000D01*
X157018246Y-135648000D02*
X157018246Y-147552000D01*
X157058246Y-135684000D02*
X157058246Y-147516000D01*
X157098246Y-135722000D02*
X157098246Y-147478000D01*
X157138246Y-135760000D02*
X157138246Y-147440000D01*
X157178246Y-135798000D02*
X157178246Y-147402000D01*
X157218246Y-135837000D02*
X157218246Y-147363000D01*
X157258246Y-135876000D02*
X157258246Y-147324000D01*
X157298246Y-135916000D02*
X157298246Y-147284000D01*
X157338246Y-135957000D02*
X157338246Y-147243000D01*
X157378246Y-135998000D02*
X157378246Y-147202000D01*
X157418246Y-136040000D02*
X157418246Y-147160000D01*
X157458246Y-136082000D02*
X157458246Y-147118000D01*
X157498246Y-136125000D02*
X157498246Y-147075000D01*
X157538246Y-136168000D02*
X157538246Y-147032000D01*
X157578246Y-136212000D02*
X157578246Y-146988000D01*
X157618246Y-136257000D02*
X157618246Y-146943000D01*
X157658246Y-136303000D02*
X157658246Y-146897000D01*
X157698246Y-136349000D02*
X157698246Y-146851000D01*
X157738246Y-136396000D02*
X157738246Y-146804000D01*
X157778246Y-136444000D02*
X157778246Y-146756000D01*
X157818246Y-136492000D02*
X157818246Y-146708000D01*
X157858246Y-136541000D02*
X157858246Y-146659000D01*
X157898246Y-136591000D02*
X157898246Y-146609000D01*
X157938246Y-136642000D02*
X157938246Y-146558000D01*
X157978246Y-136694000D02*
X157978246Y-146506000D01*
X158018246Y-136746000D02*
X158018246Y-146454000D01*
X158058246Y-136800000D02*
X158058246Y-146400000D01*
X158098246Y-136854000D02*
X158098246Y-146346000D01*
X158138246Y-136909000D02*
X158138246Y-146291000D01*
X158178246Y-136966000D02*
X158178246Y-146234000D01*
X158218246Y-137023000D02*
X158218246Y-146177000D01*
X158258246Y-137081000D02*
X158258246Y-146119000D01*
X158298246Y-137141000D02*
X158298246Y-146059000D01*
X158338246Y-137202000D02*
X158338246Y-145998000D01*
X158378246Y-137264000D02*
X158378246Y-145936000D01*
X158418246Y-137327000D02*
X158418246Y-145873000D01*
X158458246Y-137391000D02*
X158458246Y-145809000D01*
X158498246Y-137457000D02*
X158498246Y-145743000D01*
X158538246Y-137524000D02*
X158538246Y-145676000D01*
X158578246Y-137593000D02*
X158578246Y-145607000D01*
X158618246Y-137664000D02*
X158618246Y-145536000D01*
X158658246Y-137736000D02*
X158658246Y-145464000D01*
X158698246Y-137810000D02*
X158698246Y-145390000D01*
X158738246Y-137885000D02*
X158738246Y-145315000D01*
X158778246Y-137963000D02*
X158778246Y-145237000D01*
X158818246Y-138043000D02*
X158818246Y-145157000D01*
X158858246Y-138125000D02*
X158858246Y-145075000D01*
X158898246Y-138210000D02*
X158898246Y-144990000D01*
X158938246Y-138297000D02*
X158938246Y-144903000D01*
X158978246Y-138387000D02*
X158978246Y-144813000D01*
X159018246Y-138480000D02*
X159018246Y-144720000D01*
X159058246Y-138576000D02*
X159058246Y-144624000D01*
X159098246Y-138676000D02*
X159098246Y-144524000D01*
X159138246Y-138780000D02*
X159138246Y-144420000D01*
X159178246Y-138889000D02*
X159178246Y-144311000D01*
X159218246Y-139003000D02*
X159218246Y-144197000D01*
X159258246Y-139122000D02*
X159258246Y-144078000D01*
X159298246Y-139249000D02*
X159298246Y-143951000D01*
X159338246Y-139382000D02*
X159338246Y-143818000D01*
X159378246Y-139526000D02*
X159378246Y-143674000D01*
X159418246Y-139680000D02*
X159418246Y-143520000D01*
X159458246Y-139848000D02*
X159458246Y-143352000D01*
X159498246Y-140036000D02*
X159498246Y-143164000D01*
X159538246Y-140249000D02*
X159538246Y-142951000D01*
X159578246Y-140502000D02*
X159578246Y-142698000D01*
X159618246Y-140835000D02*
X159618246Y-142365000D01*
X159657246Y-141600000D02*
G75*
G03*
X159657246Y-141600000I-8120000J0D01*
G01*
%TO.C,QP1*%
X76675000Y-108707500D02*
X81316000Y-108707500D01*
X76675000Y-108707500D02*
X76675000Y-98467500D01*
X78185000Y-108707500D02*
X78185000Y-98467500D01*
X81316000Y-108707500D02*
X81316000Y-98467500D01*
X76675000Y-105437500D02*
X78185000Y-105437500D01*
X76675000Y-101736500D02*
X78185000Y-101736500D01*
X76675000Y-98467500D02*
X81316000Y-98467500D01*
%TO.C,C8*%
X126340302Y-91185000D02*
X127140302Y-91185000D01*
X126740302Y-90785000D02*
X126740302Y-91585000D01*
X130750000Y-89420000D02*
X130750000Y-97580000D01*
X130790000Y-89420000D02*
X130790000Y-97580000D01*
X130830000Y-89420000D02*
X130830000Y-97580000D01*
X130870000Y-89421000D02*
X130870000Y-97579000D01*
X130910000Y-89423000D02*
X130910000Y-97577000D01*
X130950000Y-89424000D02*
X130950000Y-97576000D01*
X130990000Y-89426000D02*
X130990000Y-97574000D01*
X131030000Y-89429000D02*
X131030000Y-97571000D01*
X131070000Y-89432000D02*
X131070000Y-97568000D01*
X131110000Y-89435000D02*
X131110000Y-97565000D01*
X131150000Y-89439000D02*
X131150000Y-97561000D01*
X131190000Y-89443000D02*
X131190000Y-97557000D01*
X131230000Y-89448000D02*
X131230000Y-97552000D01*
X131270000Y-89452000D02*
X131270000Y-97548000D01*
X131310000Y-89458000D02*
X131310000Y-97542000D01*
X131350000Y-89463000D02*
X131350000Y-97537000D01*
X131390000Y-89470000D02*
X131390000Y-97530000D01*
X131430000Y-89476000D02*
X131430000Y-97524000D01*
X131471000Y-89483000D02*
X131471000Y-92460000D01*
X131471000Y-94540000D02*
X131471000Y-97517000D01*
X131511000Y-89490000D02*
X131511000Y-92460000D01*
X131511000Y-94540000D02*
X131511000Y-97510000D01*
X131551000Y-89498000D02*
X131551000Y-92460000D01*
X131551000Y-94540000D02*
X131551000Y-97502000D01*
X131591000Y-89506000D02*
X131591000Y-92460000D01*
X131591000Y-94540000D02*
X131591000Y-97494000D01*
X131631000Y-89515000D02*
X131631000Y-92460000D01*
X131631000Y-94540000D02*
X131631000Y-97485000D01*
X131671000Y-89524000D02*
X131671000Y-92460000D01*
X131671000Y-94540000D02*
X131671000Y-97476000D01*
X131711000Y-89533000D02*
X131711000Y-92460000D01*
X131711000Y-94540000D02*
X131711000Y-97467000D01*
X131751000Y-89543000D02*
X131751000Y-92460000D01*
X131751000Y-94540000D02*
X131751000Y-97457000D01*
X131791000Y-89553000D02*
X131791000Y-92460000D01*
X131791000Y-94540000D02*
X131791000Y-97447000D01*
X131831000Y-89564000D02*
X131831000Y-92460000D01*
X131831000Y-94540000D02*
X131831000Y-97436000D01*
X131871000Y-89575000D02*
X131871000Y-92460000D01*
X131871000Y-94540000D02*
X131871000Y-97425000D01*
X131911000Y-89586000D02*
X131911000Y-92460000D01*
X131911000Y-94540000D02*
X131911000Y-97414000D01*
X131951000Y-89598000D02*
X131951000Y-92460000D01*
X131951000Y-94540000D02*
X131951000Y-97402000D01*
X131991000Y-89611000D02*
X131991000Y-92460000D01*
X131991000Y-94540000D02*
X131991000Y-97389000D01*
X132031000Y-89623000D02*
X132031000Y-92460000D01*
X132031000Y-94540000D02*
X132031000Y-97377000D01*
X132071000Y-89637000D02*
X132071000Y-92460000D01*
X132071000Y-94540000D02*
X132071000Y-97363000D01*
X132111000Y-89650000D02*
X132111000Y-92460000D01*
X132111000Y-94540000D02*
X132111000Y-97350000D01*
X132151000Y-89665000D02*
X132151000Y-92460000D01*
X132151000Y-94540000D02*
X132151000Y-97335000D01*
X132191000Y-89679000D02*
X132191000Y-92460000D01*
X132191000Y-94540000D02*
X132191000Y-97321000D01*
X132231000Y-89695000D02*
X132231000Y-92460000D01*
X132231000Y-94540000D02*
X132231000Y-97305000D01*
X132271000Y-89710000D02*
X132271000Y-92460000D01*
X132271000Y-94540000D02*
X132271000Y-97290000D01*
X132311000Y-89726000D02*
X132311000Y-92460000D01*
X132311000Y-94540000D02*
X132311000Y-97274000D01*
X132351000Y-89743000D02*
X132351000Y-92460000D01*
X132351000Y-94540000D02*
X132351000Y-97257000D01*
X132391000Y-89760000D02*
X132391000Y-92460000D01*
X132391000Y-94540000D02*
X132391000Y-97240000D01*
X132431000Y-89778000D02*
X132431000Y-92460000D01*
X132431000Y-94540000D02*
X132431000Y-97222000D01*
X132471000Y-89796000D02*
X132471000Y-92460000D01*
X132471000Y-94540000D02*
X132471000Y-97204000D01*
X132511000Y-89814000D02*
X132511000Y-92460000D01*
X132511000Y-94540000D02*
X132511000Y-97186000D01*
X132551000Y-89834000D02*
X132551000Y-92460000D01*
X132551000Y-94540000D02*
X132551000Y-97166000D01*
X132591000Y-89853000D02*
X132591000Y-92460000D01*
X132591000Y-94540000D02*
X132591000Y-97147000D01*
X132631000Y-89873000D02*
X132631000Y-92460000D01*
X132631000Y-94540000D02*
X132631000Y-97127000D01*
X132671000Y-89894000D02*
X132671000Y-92460000D01*
X132671000Y-94540000D02*
X132671000Y-97106000D01*
X132711000Y-89916000D02*
X132711000Y-92460000D01*
X132711000Y-94540000D02*
X132711000Y-97084000D01*
X132751000Y-89938000D02*
X132751000Y-92460000D01*
X132751000Y-94540000D02*
X132751000Y-97062000D01*
X132791000Y-89960000D02*
X132791000Y-92460000D01*
X132791000Y-94540000D02*
X132791000Y-97040000D01*
X132831000Y-89983000D02*
X132831000Y-92460000D01*
X132831000Y-94540000D02*
X132831000Y-97017000D01*
X132871000Y-90007000D02*
X132871000Y-92460000D01*
X132871000Y-94540000D02*
X132871000Y-96993000D01*
X132911000Y-90031000D02*
X132911000Y-92460000D01*
X132911000Y-94540000D02*
X132911000Y-96969000D01*
X132951000Y-90056000D02*
X132951000Y-92460000D01*
X132951000Y-94540000D02*
X132951000Y-96944000D01*
X132991000Y-90082000D02*
X132991000Y-92460000D01*
X132991000Y-94540000D02*
X132991000Y-96918000D01*
X133031000Y-90108000D02*
X133031000Y-92460000D01*
X133031000Y-94540000D02*
X133031000Y-96892000D01*
X133071000Y-90135000D02*
X133071000Y-92460000D01*
X133071000Y-94540000D02*
X133071000Y-96865000D01*
X133111000Y-90162000D02*
X133111000Y-92460000D01*
X133111000Y-94540000D02*
X133111000Y-96838000D01*
X133151000Y-90191000D02*
X133151000Y-92460000D01*
X133151000Y-94540000D02*
X133151000Y-96809000D01*
X133191000Y-90220000D02*
X133191000Y-92460000D01*
X133191000Y-94540000D02*
X133191000Y-96780000D01*
X133231000Y-90250000D02*
X133231000Y-92460000D01*
X133231000Y-94540000D02*
X133231000Y-96750000D01*
X133271000Y-90280000D02*
X133271000Y-92460000D01*
X133271000Y-94540000D02*
X133271000Y-96720000D01*
X133311000Y-90311000D02*
X133311000Y-92460000D01*
X133311000Y-94540000D02*
X133311000Y-96689000D01*
X133351000Y-90344000D02*
X133351000Y-92460000D01*
X133351000Y-94540000D02*
X133351000Y-96656000D01*
X133391000Y-90376000D02*
X133391000Y-92460000D01*
X133391000Y-94540000D02*
X133391000Y-96624000D01*
X133431000Y-90410000D02*
X133431000Y-92460000D01*
X133431000Y-94540000D02*
X133431000Y-96590000D01*
X133471000Y-90445000D02*
X133471000Y-92460000D01*
X133471000Y-94540000D02*
X133471000Y-96555000D01*
X133511000Y-90481000D02*
X133511000Y-92460000D01*
X133511000Y-94540000D02*
X133511000Y-96519000D01*
X133551000Y-90517000D02*
X133551000Y-96483000D01*
X133591000Y-90555000D02*
X133591000Y-96445000D01*
X133631000Y-90593000D02*
X133631000Y-96407000D01*
X133671000Y-90633000D02*
X133671000Y-96367000D01*
X133711000Y-90674000D02*
X133711000Y-96326000D01*
X133751000Y-90716000D02*
X133751000Y-96284000D01*
X133791000Y-90759000D02*
X133791000Y-96241000D01*
X133831000Y-90803000D02*
X133831000Y-96197000D01*
X133871000Y-90849000D02*
X133871000Y-96151000D01*
X133911000Y-90896000D02*
X133911000Y-96104000D01*
X133951000Y-90944000D02*
X133951000Y-96056000D01*
X133991000Y-90995000D02*
X133991000Y-96005000D01*
X134031000Y-91046000D02*
X134031000Y-95954000D01*
X134071000Y-91100000D02*
X134071000Y-95900000D01*
X134111000Y-91155000D02*
X134111000Y-95845000D01*
X134151000Y-91213000D02*
X134151000Y-95787000D01*
X134191000Y-91272000D02*
X134191000Y-95728000D01*
X134231000Y-91334000D02*
X134231000Y-95666000D01*
X134271000Y-91398000D02*
X134271000Y-95602000D01*
X134311000Y-91466000D02*
X134311000Y-95534000D01*
X134351000Y-91536000D02*
X134351000Y-95464000D01*
X134391000Y-91610000D02*
X134391000Y-95390000D01*
X134431000Y-91687000D02*
X134431000Y-95313000D01*
X134471000Y-91769000D02*
X134471000Y-95231000D01*
X134511000Y-91855000D02*
X134511000Y-95145000D01*
X134551000Y-91948000D02*
X134551000Y-95052000D01*
X134591000Y-92047000D02*
X134591000Y-94953000D01*
X134631000Y-92154000D02*
X134631000Y-94846000D01*
X134671000Y-92271000D02*
X134671000Y-94729000D01*
X134711000Y-92402000D02*
X134711000Y-94598000D01*
X134751000Y-92552000D02*
X134751000Y-94448000D01*
X134791000Y-92732000D02*
X134791000Y-94268000D01*
X134831000Y-92967000D02*
X134831000Y-94033000D01*
X134870000Y-93500000D02*
G75*
G03*
X134870000Y-93500000I-4120000J0D01*
G01*
%TO.C,R7*%
X128310000Y-125107500D02*
X121770000Y-125107500D01*
X128310000Y-124777500D02*
X128310000Y-125107500D01*
X128310000Y-122697500D02*
X128310000Y-122367500D01*
X128310000Y-122367500D02*
X121770000Y-122367500D01*
X121770000Y-125107500D02*
X121770000Y-124777500D01*
X121770000Y-122367500D02*
X121770000Y-122697500D01*
%TO.C,TR1*%
X110605000Y-122667500D02*
X83255000Y-122667500D01*
X83255000Y-122667500D02*
X83255000Y-82347500D01*
X83255000Y-82347500D02*
X110605000Y-82347500D01*
X110605000Y-82347500D02*
X110605000Y-122667500D01*
%TO.C,RV1*%
X129720000Y-70130000D02*
X120480000Y-70130000D01*
X129720000Y-70130000D02*
X129720000Y-86470000D01*
X120480000Y-70130000D02*
X120480000Y-86470000D01*
X129720000Y-71749000D02*
X120480000Y-71749000D01*
X129720000Y-84851000D02*
X120480000Y-84851000D01*
X129720000Y-86470000D02*
X120480000Y-86470000D01*
%TO.C,TR2*%
X135850000Y-89537500D02*
X159850000Y-89537500D01*
X159850000Y-89537500D02*
X159850000Y-124537500D01*
X159850000Y-124537500D02*
X135850000Y-124537500D01*
X135850000Y-124537500D02*
X135850000Y-89537500D01*
%TO.C,C1*%
X60262780Y-86222500D02*
X62062780Y-86222500D01*
X61162780Y-85322500D02*
X61162780Y-87122500D01*
X70022220Y-82256500D02*
X70022220Y-100418500D01*
X70062220Y-82257500D02*
X70062220Y-100417500D01*
X70102220Y-82257500D02*
X70102220Y-100417500D01*
X70142220Y-82257500D02*
X70142220Y-100417500D01*
X70182220Y-82258500D02*
X70182220Y-100416500D01*
X70222220Y-82259500D02*
X70222220Y-100415500D01*
X70262220Y-82260500D02*
X70262220Y-100414500D01*
X70302220Y-82261500D02*
X70302220Y-100413500D01*
X70342220Y-82262500D02*
X70342220Y-100412500D01*
X70382220Y-82264500D02*
X70382220Y-100410500D01*
X70422220Y-82265500D02*
X70422220Y-100409500D01*
X70462220Y-82267500D02*
X70462220Y-100407500D01*
X70502220Y-82269500D02*
X70502220Y-100405500D01*
X70542220Y-82271500D02*
X70542220Y-100403500D01*
X70582220Y-82274500D02*
X70582220Y-100400500D01*
X70622220Y-82276500D02*
X70622220Y-100398500D01*
X70662220Y-82279500D02*
X70662220Y-100395500D01*
X70702220Y-82282500D02*
X70702220Y-100392500D01*
X70743220Y-82285500D02*
X70743220Y-100389500D01*
X70783220Y-82288500D02*
X70783220Y-100386500D01*
X70823220Y-82292500D02*
X70823220Y-100382500D01*
X70863220Y-82295500D02*
X70863220Y-100379500D01*
X70903220Y-82299500D02*
X70903220Y-100375500D01*
X70943220Y-82303500D02*
X70943220Y-100371500D01*
X70983220Y-82307500D02*
X70983220Y-100367500D01*
X71023220Y-82311500D02*
X71023220Y-100363500D01*
X71063220Y-82316500D02*
X71063220Y-100358500D01*
X71103220Y-82321500D02*
X71103220Y-100353500D01*
X71143220Y-82326500D02*
X71143220Y-100348500D01*
X71183220Y-82331500D02*
X71183220Y-100343500D01*
X71223220Y-82336500D02*
X71223220Y-100338500D01*
X71263220Y-82341500D02*
X71263220Y-100333500D01*
X71303220Y-82347500D02*
X71303220Y-100327500D01*
X71343220Y-82353500D02*
X71343220Y-100321500D01*
X71383220Y-82358500D02*
X71383220Y-100316500D01*
X71423220Y-82365500D02*
X71423220Y-100309500D01*
X71463220Y-82371500D02*
X71463220Y-100303500D01*
X71503220Y-82377500D02*
X71503220Y-100297500D01*
X71543220Y-82384500D02*
X71543220Y-100290500D01*
X71583220Y-82391500D02*
X71583220Y-100283500D01*
X71623220Y-82398500D02*
X71623220Y-100276500D01*
X71663220Y-82405500D02*
X71663220Y-100269500D01*
X71703220Y-82413500D02*
X71703220Y-100261500D01*
X71743220Y-82420500D02*
X71743220Y-100254500D01*
X71783220Y-82428500D02*
X71783220Y-100246500D01*
X71823220Y-82436500D02*
X71823220Y-100238500D01*
X71863220Y-82444500D02*
X71863220Y-100230500D01*
X71903220Y-82452500D02*
X71903220Y-100222500D01*
X71943220Y-82461500D02*
X71943220Y-100213500D01*
X71983220Y-82470500D02*
X71983220Y-100204500D01*
X72023220Y-82479500D02*
X72023220Y-100195500D01*
X72063220Y-82488500D02*
X72063220Y-100186500D01*
X72103220Y-82497500D02*
X72103220Y-100177500D01*
X72143220Y-82506500D02*
X72143220Y-100168500D01*
X72183220Y-82516500D02*
X72183220Y-100158500D01*
X72223220Y-82526500D02*
X72223220Y-100148500D01*
X72263220Y-82536500D02*
X72263220Y-100138500D01*
X72303220Y-82546500D02*
X72303220Y-100128500D01*
X72343220Y-82557500D02*
X72343220Y-89897500D01*
X72343220Y-92777500D02*
X72343220Y-100117500D01*
X72383220Y-82567500D02*
X72383220Y-89897500D01*
X72383220Y-92777500D02*
X72383220Y-100107500D01*
X72423220Y-82578500D02*
X72423220Y-89897500D01*
X72423220Y-92777500D02*
X72423220Y-100096500D01*
X72463220Y-82589500D02*
X72463220Y-89897500D01*
X72463220Y-92777500D02*
X72463220Y-100085500D01*
X72503220Y-82600500D02*
X72503220Y-89897500D01*
X72503220Y-92777500D02*
X72503220Y-100074500D01*
X72543220Y-82612500D02*
X72543220Y-89897500D01*
X72543220Y-92777500D02*
X72543220Y-100062500D01*
X72583220Y-82623500D02*
X72583220Y-89897500D01*
X72583220Y-92777500D02*
X72583220Y-100051500D01*
X72623220Y-82635500D02*
X72623220Y-89897500D01*
X72623220Y-92777500D02*
X72623220Y-100039500D01*
X72663220Y-82647500D02*
X72663220Y-89897500D01*
X72663220Y-92777500D02*
X72663220Y-100027500D01*
X72703220Y-82659500D02*
X72703220Y-89897500D01*
X72703220Y-92777500D02*
X72703220Y-100015500D01*
X72743220Y-82672500D02*
X72743220Y-89897500D01*
X72743220Y-92777500D02*
X72743220Y-100002500D01*
X72783220Y-82684500D02*
X72783220Y-89897500D01*
X72783220Y-92777500D02*
X72783220Y-99990500D01*
X72823220Y-82697500D02*
X72823220Y-89897500D01*
X72823220Y-92777500D02*
X72823220Y-99977500D01*
X72863220Y-82710500D02*
X72863220Y-89897500D01*
X72863220Y-92777500D02*
X72863220Y-99964500D01*
X72903220Y-82723500D02*
X72903220Y-89897500D01*
X72903220Y-92777500D02*
X72903220Y-99951500D01*
X72943220Y-82737500D02*
X72943220Y-89897500D01*
X72943220Y-92777500D02*
X72943220Y-99937500D01*
X72983220Y-82750500D02*
X72983220Y-89897500D01*
X72983220Y-92777500D02*
X72983220Y-99924500D01*
X73023220Y-82764500D02*
X73023220Y-89897500D01*
X73023220Y-92777500D02*
X73023220Y-99910500D01*
X73063220Y-82778500D02*
X73063220Y-89897500D01*
X73063220Y-92777500D02*
X73063220Y-99896500D01*
X73103220Y-82792500D02*
X73103220Y-89897500D01*
X73103220Y-92777500D02*
X73103220Y-99882500D01*
X73143220Y-82807500D02*
X73143220Y-89897500D01*
X73143220Y-92777500D02*
X73143220Y-99867500D01*
X73183220Y-82821500D02*
X73183220Y-89897500D01*
X73183220Y-92777500D02*
X73183220Y-99853500D01*
X73223220Y-82836500D02*
X73223220Y-89897500D01*
X73223220Y-92777500D02*
X73223220Y-99838500D01*
X73263220Y-82851500D02*
X73263220Y-89897500D01*
X73263220Y-92777500D02*
X73263220Y-99823500D01*
X73303220Y-82867500D02*
X73303220Y-89897500D01*
X73303220Y-92777500D02*
X73303220Y-99807500D01*
X73343220Y-82882500D02*
X73343220Y-89897500D01*
X73343220Y-92777500D02*
X73343220Y-99792500D01*
X73383220Y-82898500D02*
X73383220Y-89897500D01*
X73383220Y-92777500D02*
X73383220Y-99776500D01*
X73423220Y-82914500D02*
X73423220Y-89897500D01*
X73423220Y-92777500D02*
X73423220Y-99760500D01*
X73463220Y-82930500D02*
X73463220Y-89897500D01*
X73463220Y-92777500D02*
X73463220Y-99744500D01*
X73503220Y-82947500D02*
X73503220Y-89897500D01*
X73503220Y-92777500D02*
X73503220Y-99727500D01*
X73543220Y-82963500D02*
X73543220Y-89897500D01*
X73543220Y-92777500D02*
X73543220Y-99711500D01*
X73583220Y-82980500D02*
X73583220Y-89897500D01*
X73583220Y-92777500D02*
X73583220Y-99694500D01*
X73623220Y-82997500D02*
X73623220Y-89897500D01*
X73623220Y-92777500D02*
X73623220Y-99677500D01*
X73663220Y-83014500D02*
X73663220Y-89897500D01*
X73663220Y-92777500D02*
X73663220Y-99660500D01*
X73703220Y-83032500D02*
X73703220Y-89897500D01*
X73703220Y-92777500D02*
X73703220Y-99642500D01*
X73743220Y-83050500D02*
X73743220Y-89897500D01*
X73743220Y-92777500D02*
X73743220Y-99624500D01*
X73783220Y-83068500D02*
X73783220Y-89897500D01*
X73783220Y-92777500D02*
X73783220Y-99606500D01*
X73823220Y-83086500D02*
X73823220Y-89897500D01*
X73823220Y-92777500D02*
X73823220Y-99588500D01*
X73863220Y-83104500D02*
X73863220Y-89897500D01*
X73863220Y-92777500D02*
X73863220Y-99570500D01*
X73903220Y-83123500D02*
X73903220Y-89897500D01*
X73903220Y-92777500D02*
X73903220Y-99551500D01*
X73943220Y-83142500D02*
X73943220Y-89897500D01*
X73943220Y-92777500D02*
X73943220Y-99532500D01*
X73983220Y-83161500D02*
X73983220Y-89897500D01*
X73983220Y-92777500D02*
X73983220Y-99513500D01*
X74023220Y-83181500D02*
X74023220Y-89897500D01*
X74023220Y-92777500D02*
X74023220Y-99493500D01*
X74063220Y-83200500D02*
X74063220Y-89897500D01*
X74063220Y-92777500D02*
X74063220Y-99474500D01*
X74103220Y-83220500D02*
X74103220Y-89897500D01*
X74103220Y-92777500D02*
X74103220Y-99454500D01*
X74143220Y-83240500D02*
X74143220Y-89897500D01*
X74143220Y-92777500D02*
X74143220Y-99434500D01*
X74183220Y-83261500D02*
X74183220Y-89897500D01*
X74183220Y-92777500D02*
X74183220Y-99413500D01*
X74223220Y-83281500D02*
X74223220Y-89897500D01*
X74223220Y-92777500D02*
X74223220Y-99393500D01*
X74263220Y-83302500D02*
X74263220Y-89897500D01*
X74263220Y-92777500D02*
X74263220Y-99372500D01*
X74303220Y-83323500D02*
X74303220Y-89897500D01*
X74303220Y-92777500D02*
X74303220Y-99351500D01*
X74343220Y-83345500D02*
X74343220Y-89897500D01*
X74343220Y-92777500D02*
X74343220Y-99329500D01*
X74383220Y-83366500D02*
X74383220Y-89897500D01*
X74383220Y-92777500D02*
X74383220Y-99308500D01*
X74423220Y-83388500D02*
X74423220Y-89897500D01*
X74423220Y-92777500D02*
X74423220Y-99286500D01*
X74463220Y-83410500D02*
X74463220Y-89897500D01*
X74463220Y-92777500D02*
X74463220Y-99264500D01*
X74503220Y-83433500D02*
X74503220Y-89897500D01*
X74503220Y-92777500D02*
X74503220Y-99241500D01*
X74543220Y-83455500D02*
X74543220Y-89897500D01*
X74543220Y-92777500D02*
X74543220Y-99219500D01*
X74583220Y-83478500D02*
X74583220Y-89897500D01*
X74583220Y-92777500D02*
X74583220Y-99196500D01*
X74623220Y-83502500D02*
X74623220Y-89897500D01*
X74623220Y-92777500D02*
X74623220Y-99172500D01*
X74663220Y-83525500D02*
X74663220Y-89897500D01*
X74663220Y-92777500D02*
X74663220Y-99149500D01*
X74703220Y-83549500D02*
X74703220Y-89897500D01*
X74703220Y-92777500D02*
X74703220Y-99125500D01*
X74743220Y-83573500D02*
X74743220Y-89897500D01*
X74743220Y-92777500D02*
X74743220Y-99101500D01*
X74783220Y-83597500D02*
X74783220Y-89897500D01*
X74783220Y-92777500D02*
X74783220Y-99077500D01*
X74823220Y-83622500D02*
X74823220Y-89897500D01*
X74823220Y-92777500D02*
X74823220Y-99052500D01*
X74863220Y-83647500D02*
X74863220Y-89897500D01*
X74863220Y-92777500D02*
X74863220Y-99027500D01*
X74903220Y-83672500D02*
X74903220Y-89897500D01*
X74903220Y-92777500D02*
X74903220Y-99002500D01*
X74943220Y-83697500D02*
X74943220Y-89897500D01*
X74943220Y-92777500D02*
X74943220Y-98977500D01*
X74983220Y-83723500D02*
X74983220Y-89897500D01*
X74983220Y-92777500D02*
X74983220Y-98951500D01*
X75023220Y-83749500D02*
X75023220Y-89897500D01*
X75023220Y-92777500D02*
X75023220Y-98925500D01*
X75063220Y-83776500D02*
X75063220Y-89897500D01*
X75063220Y-92777500D02*
X75063220Y-98898500D01*
X75103220Y-83802500D02*
X75103220Y-89897500D01*
X75103220Y-92777500D02*
X75103220Y-98872500D01*
X75143220Y-83829500D02*
X75143220Y-89897500D01*
X75143220Y-92777500D02*
X75143220Y-98845500D01*
X75183220Y-83857500D02*
X75183220Y-89897500D01*
X75183220Y-92777500D02*
X75183220Y-98817500D01*
X75223220Y-83884500D02*
X75223220Y-98790500D01*
X75263220Y-83912500D02*
X75263220Y-98762500D01*
X75303220Y-83940500D02*
X75303220Y-98734500D01*
X75343220Y-83969500D02*
X75343220Y-98705500D01*
X75383220Y-83998500D02*
X75383220Y-98676500D01*
X75423220Y-84027500D02*
X75423220Y-98647500D01*
X75463220Y-84057500D02*
X75463220Y-98617500D01*
X75503220Y-84087500D02*
X75503220Y-98587500D01*
X75543220Y-84117500D02*
X75543220Y-98557500D01*
X75583220Y-84147500D02*
X75583220Y-98527500D01*
X75623220Y-84178500D02*
X75623220Y-98496500D01*
X75663220Y-84210500D02*
X75663220Y-98464500D01*
X75703220Y-84241500D02*
X75703220Y-98433500D01*
X75743220Y-84273500D02*
X75743220Y-98401500D01*
X75783220Y-84306500D02*
X75783220Y-98368500D01*
X75823220Y-84338500D02*
X75823220Y-98336500D01*
X75863220Y-84372500D02*
X75863220Y-98302500D01*
X75903220Y-84405500D02*
X75903220Y-98269500D01*
X75943220Y-84439500D02*
X75943220Y-98235500D01*
X75983220Y-84473500D02*
X75983220Y-98201500D01*
X76023220Y-84508500D02*
X76023220Y-98166500D01*
X76063220Y-84543500D02*
X76063220Y-98131500D01*
X76103220Y-84579500D02*
X76103220Y-98095500D01*
X76143220Y-84615500D02*
X76143220Y-98059500D01*
X76183220Y-84651500D02*
X76183220Y-98023500D01*
X76223220Y-84688500D02*
X76223220Y-97986500D01*
X76263220Y-84725500D02*
X76263220Y-97949500D01*
X76303220Y-84763500D02*
X76303220Y-97911500D01*
X76343220Y-84801500D02*
X76343220Y-97873500D01*
X76383220Y-84840500D02*
X76383220Y-97834500D01*
X76423220Y-84879500D02*
X76423220Y-97795500D01*
X76463220Y-84919500D02*
X76463220Y-97755500D01*
X76503220Y-84959500D02*
X76503220Y-97715500D01*
X76543220Y-85000500D02*
X76543220Y-97674500D01*
X76583220Y-85041500D02*
X76583220Y-97633500D01*
X76623220Y-85083500D02*
X76623220Y-97591500D01*
X76663220Y-85125500D02*
X76663220Y-97549500D01*
X76703220Y-85167500D02*
X76703220Y-97507500D01*
X76743220Y-85211500D02*
X76743220Y-97463500D01*
X76783220Y-85255500D02*
X76783220Y-97419500D01*
X76823220Y-85299500D02*
X76823220Y-97375500D01*
X76863220Y-85344500D02*
X76863220Y-97330500D01*
X76903220Y-85390500D02*
X76903220Y-97284500D01*
X76943220Y-85436500D02*
X76943220Y-97238500D01*
X76983220Y-85483500D02*
X76983220Y-97191500D01*
X77023220Y-85531500D02*
X77023220Y-97143500D01*
X77063220Y-85579500D02*
X77063220Y-97095500D01*
X77103220Y-85628500D02*
X77103220Y-97046500D01*
X77143220Y-85677500D02*
X77143220Y-96997500D01*
X77183220Y-85728500D02*
X77183220Y-96946500D01*
X77223220Y-85779500D02*
X77223220Y-96895500D01*
X77263220Y-85831500D02*
X77263220Y-96843500D01*
X77303220Y-85883500D02*
X77303220Y-96791500D01*
X77343220Y-85937500D02*
X77343220Y-96737500D01*
X77383220Y-85991500D02*
X77383220Y-96683500D01*
X77423220Y-86046500D02*
X77423220Y-96628500D01*
X77463220Y-86102500D02*
X77463220Y-96572500D01*
X77503220Y-86159500D02*
X77503220Y-96515500D01*
X77543220Y-86217500D02*
X77543220Y-96457500D01*
X77583220Y-86275500D02*
X77583220Y-96399500D01*
X77623220Y-86335500D02*
X77623220Y-96339500D01*
X77663220Y-86396500D02*
X77663220Y-96278500D01*
X77703220Y-86458500D02*
X77703220Y-96216500D01*
X77743220Y-86521500D02*
X77743220Y-96153500D01*
X77783220Y-86585500D02*
X77783220Y-96089500D01*
X77823220Y-86651500D02*
X77823220Y-96023500D01*
X77863220Y-86717500D02*
X77863220Y-95957500D01*
X77903220Y-86785500D02*
X77903220Y-95889500D01*
X77943220Y-86855500D02*
X77943220Y-95819500D01*
X77983220Y-86925500D02*
X77983220Y-95749500D01*
X78023220Y-86998500D02*
X78023220Y-95676500D01*
X78063220Y-87072500D02*
X78063220Y-95602500D01*
X78103220Y-87147500D02*
X78103220Y-95527500D01*
X78143220Y-87224500D02*
X78143220Y-95450500D01*
X78183220Y-87304500D02*
X78183220Y-95370500D01*
X78222220Y-87385500D02*
X78222220Y-95289500D01*
X78262220Y-87468500D02*
X78262220Y-95206500D01*
X78302220Y-87553500D02*
X78302220Y-95121500D01*
X78342220Y-87641500D02*
X78342220Y-95033500D01*
X78382220Y-87732500D02*
X78382220Y-94942500D01*
X78422220Y-87825500D02*
X78422220Y-94849500D01*
X78462220Y-87921500D02*
X78462220Y-94753500D01*
X78502220Y-88020500D02*
X78502220Y-94654500D01*
X78542220Y-88123500D02*
X78542220Y-94551500D01*
X78582220Y-88230500D02*
X78582220Y-94444500D01*
X78622220Y-88341500D02*
X78622220Y-94333500D01*
X78662220Y-88457500D02*
X78662220Y-94217500D01*
X78702220Y-88578500D02*
X78702220Y-94096500D01*
X78742220Y-88705500D02*
X78742220Y-93969500D01*
X78782220Y-88839500D02*
X78782220Y-93835500D01*
X78822220Y-88982500D02*
X78822220Y-93692500D01*
X78862220Y-89134500D02*
X78862220Y-93540500D01*
X78902220Y-89298500D02*
X78902220Y-93376500D01*
X78942220Y-89477500D02*
X78942220Y-93197500D01*
X78982220Y-89676500D02*
X78982220Y-92998500D01*
X79022220Y-89902500D02*
X79022220Y-92772500D01*
X79062220Y-90171500D02*
X79062220Y-92503500D01*
X79102220Y-90523500D02*
X79102220Y-92151500D01*
X79142220Y-91297500D02*
X79142220Y-91377500D01*
X79142220Y-91337500D02*
G75*
G03*
X79142220Y-91337500I-9120000J0D01*
G01*
%TO.C,C6*%
X136830000Y-133707500D02*
X139570000Y-133707500D01*
X136830000Y-133707500D02*
X136830000Y-126467500D01*
X139570000Y-133707500D02*
X139570000Y-126467500D01*
X136830000Y-126467500D02*
X139570000Y-126467500D01*
%TO.C,D4*%
X131249716Y-100700000D02*
G75*
G03*
X131191636Y-103975386I-2154716J-1600000D01*
G01*
%TO.C,Y1*%
X127420000Y-50380000D02*
X121180000Y-50380000D01*
X127420000Y-50380000D02*
X127420000Y-68620000D01*
X121180000Y-50380000D02*
X121180000Y-68620000D01*
X127420000Y-68620000D02*
X121180000Y-68620000D01*
%TO.C,R16*%
X133727064Y-107435000D02*
X133272936Y-107435000D01*
X133727064Y-105965000D02*
X133272936Y-105965000D01*
%TO.C,R6*%
X121730000Y-127717500D02*
X128270000Y-127717500D01*
X121730000Y-128047500D02*
X121730000Y-127717500D01*
X121730000Y-130127500D02*
X121730000Y-130457500D01*
X121730000Y-130457500D02*
X128270000Y-130457500D01*
X128270000Y-127717500D02*
X128270000Y-128047500D01*
X128270000Y-130457500D02*
X128270000Y-130127500D01*
D10*
%TO.C,JP1*%
X115100000Y-125117500D02*
X114600000Y-124617500D01*
X115900000Y-125117500D02*
X115100000Y-125117500D01*
X114600000Y-124617500D02*
X114600000Y-121017500D01*
X116400000Y-124617500D02*
X115900000Y-125117500D01*
X114600000Y-121017500D02*
X115100000Y-120517500D01*
X116400000Y-121017500D02*
X116400000Y-124617500D01*
X115100000Y-120517500D02*
X115900000Y-120517500D01*
X115900000Y-120517500D02*
X116400000Y-121017500D01*
D11*
%TO.C,K1*%
X103500000Y-82000000D02*
X110100000Y-82000000D01*
X103500000Y-82000000D02*
X103500000Y-62200000D01*
X112500000Y-82000000D02*
X119100000Y-82000000D01*
X111350000Y-77950000D02*
X111350000Y-78750000D01*
X111350000Y-77950000D02*
X114950000Y-77950000D01*
X117350000Y-77050000D02*
X117350000Y-74550000D01*
X109550000Y-76550000D02*
X109550000Y-72550000D01*
X113150000Y-76550000D02*
X109550000Y-76550000D01*
X105350000Y-74550000D02*
X105350000Y-77050000D01*
X105350000Y-74550000D02*
X109550000Y-74550000D01*
X113150000Y-74550000D02*
X117350000Y-74550000D01*
X109550000Y-72550000D02*
X113150000Y-72550000D01*
X113150000Y-72550000D02*
X109550000Y-76550000D01*
X113150000Y-72550000D02*
X113150000Y-76550000D01*
X111350000Y-71150000D02*
X114950000Y-71150000D01*
X111350000Y-71150000D02*
X111350000Y-69650000D01*
X114950000Y-71150000D02*
X114950000Y-77950000D01*
X111350000Y-69650000D02*
X108850000Y-65050000D01*
X107100000Y-66450000D02*
X109600000Y-66450000D01*
X115500000Y-66450000D02*
X113050000Y-66450000D01*
X103500000Y-62200000D02*
X119100000Y-62200000D01*
X119100000Y-62200000D02*
X119100000Y-82000000D01*
%TO.C,D2*%
X142230000Y-133120000D02*
X142230000Y-127680000D01*
X142360000Y-133120000D02*
X142230000Y-133120000D01*
X145040000Y-133120000D02*
X145170000Y-133120000D01*
X145170000Y-133120000D02*
X145170000Y-127680000D01*
X142230000Y-132340000D02*
X145170000Y-132340000D01*
X142230000Y-132220000D02*
X145170000Y-132220000D01*
X142230000Y-132100000D02*
X145170000Y-132100000D01*
X142230000Y-127680000D02*
X142360000Y-127680000D01*
X145170000Y-127680000D02*
X145040000Y-127680000D01*
%TO.C,CLR2*%
X61500000Y-134587500D02*
X112500000Y-134587500D01*
X85000000Y-134587500D02*
X85000000Y-138587500D01*
X87000000Y-134587500D02*
X87000000Y-138587500D01*
X89000000Y-134587500D02*
X89000000Y-138587500D01*
X112500000Y-138587500D02*
X61500000Y-138587500D01*
X61500000Y-123587500D02*
X112500000Y-123587500D01*
X112500000Y-123587500D02*
X112500000Y-149087500D01*
X112500000Y-149087500D02*
X61500000Y-149087500D01*
X61500000Y-149087500D02*
X61500000Y-123587500D01*
%TO.C,C10*%
X126359698Y-98915000D02*
X125559698Y-98915000D01*
X125959698Y-99315000D02*
X125959698Y-98515000D01*
X121950000Y-100680000D02*
X121950000Y-92520000D01*
X121910000Y-100680000D02*
X121910000Y-92520000D01*
X121870000Y-100680000D02*
X121870000Y-92520000D01*
X121830000Y-100679000D02*
X121830000Y-92521000D01*
X121790000Y-100677000D02*
X121790000Y-92523000D01*
X121750000Y-100676000D02*
X121750000Y-92524000D01*
X121710000Y-100674000D02*
X121710000Y-92526000D01*
X121670000Y-100671000D02*
X121670000Y-92529000D01*
X121630000Y-100668000D02*
X121630000Y-92532000D01*
X121590000Y-100665000D02*
X121590000Y-92535000D01*
X121550000Y-100661000D02*
X121550000Y-92539000D01*
X121510000Y-100657000D02*
X121510000Y-92543000D01*
X121470000Y-100652000D02*
X121470000Y-92548000D01*
X121430000Y-100648000D02*
X121430000Y-92552000D01*
X121390000Y-100642000D02*
X121390000Y-92558000D01*
X121350000Y-100637000D02*
X121350000Y-92563000D01*
X121310000Y-100630000D02*
X121310000Y-92570000D01*
X121270000Y-100624000D02*
X121270000Y-92576000D01*
X121229000Y-100617000D02*
X121229000Y-97640000D01*
X121229000Y-95560000D02*
X121229000Y-92583000D01*
X121189000Y-100610000D02*
X121189000Y-97640000D01*
X121189000Y-95560000D02*
X121189000Y-92590000D01*
X121149000Y-100602000D02*
X121149000Y-97640000D01*
X121149000Y-95560000D02*
X121149000Y-92598000D01*
X121109000Y-100594000D02*
X121109000Y-97640000D01*
X121109000Y-95560000D02*
X121109000Y-92606000D01*
X121069000Y-100585000D02*
X121069000Y-97640000D01*
X121069000Y-95560000D02*
X121069000Y-92615000D01*
X121029000Y-100576000D02*
X121029000Y-97640000D01*
X121029000Y-95560000D02*
X121029000Y-92624000D01*
X120989000Y-100567000D02*
X120989000Y-97640000D01*
X120989000Y-95560000D02*
X120989000Y-92633000D01*
X120949000Y-100557000D02*
X120949000Y-97640000D01*
X120949000Y-95560000D02*
X120949000Y-92643000D01*
X120909000Y-100547000D02*
X120909000Y-97640000D01*
X120909000Y-95560000D02*
X120909000Y-92653000D01*
X120869000Y-100536000D02*
X120869000Y-97640000D01*
X120869000Y-95560000D02*
X120869000Y-92664000D01*
X120829000Y-100525000D02*
X120829000Y-97640000D01*
X120829000Y-95560000D02*
X120829000Y-92675000D01*
X120789000Y-100514000D02*
X120789000Y-97640000D01*
X120789000Y-95560000D02*
X120789000Y-92686000D01*
X120749000Y-100502000D02*
X120749000Y-97640000D01*
X120749000Y-95560000D02*
X120749000Y-92698000D01*
X120709000Y-100489000D02*
X120709000Y-97640000D01*
X120709000Y-95560000D02*
X120709000Y-92711000D01*
X120669000Y-100477000D02*
X120669000Y-97640000D01*
X120669000Y-95560000D02*
X120669000Y-92723000D01*
X120629000Y-100463000D02*
X120629000Y-97640000D01*
X120629000Y-95560000D02*
X120629000Y-92737000D01*
X120589000Y-100450000D02*
X120589000Y-97640000D01*
X120589000Y-95560000D02*
X120589000Y-92750000D01*
X120549000Y-100435000D02*
X120549000Y-97640000D01*
X120549000Y-95560000D02*
X120549000Y-92765000D01*
X120509000Y-100421000D02*
X120509000Y-97640000D01*
X120509000Y-95560000D02*
X120509000Y-92779000D01*
X120469000Y-100405000D02*
X120469000Y-97640000D01*
X120469000Y-95560000D02*
X120469000Y-92795000D01*
X120429000Y-100390000D02*
X120429000Y-97640000D01*
X120429000Y-95560000D02*
X120429000Y-92810000D01*
X120389000Y-100374000D02*
X120389000Y-97640000D01*
X120389000Y-95560000D02*
X120389000Y-92826000D01*
X120349000Y-100357000D02*
X120349000Y-97640000D01*
X120349000Y-95560000D02*
X120349000Y-92843000D01*
X120309000Y-100340000D02*
X120309000Y-97640000D01*
X120309000Y-95560000D02*
X120309000Y-92860000D01*
X120269000Y-100322000D02*
X120269000Y-97640000D01*
X120269000Y-95560000D02*
X120269000Y-92878000D01*
X120229000Y-100304000D02*
X120229000Y-97640000D01*
X120229000Y-95560000D02*
X120229000Y-92896000D01*
X120189000Y-100286000D02*
X120189000Y-97640000D01*
X120189000Y-95560000D02*
X120189000Y-92914000D01*
X120149000Y-100266000D02*
X120149000Y-97640000D01*
X120149000Y-95560000D02*
X120149000Y-92934000D01*
X120109000Y-100247000D02*
X120109000Y-97640000D01*
X120109000Y-95560000D02*
X120109000Y-92953000D01*
X120069000Y-100227000D02*
X120069000Y-97640000D01*
X120069000Y-95560000D02*
X120069000Y-92973000D01*
X120029000Y-100206000D02*
X120029000Y-97640000D01*
X120029000Y-95560000D02*
X120029000Y-92994000D01*
X119989000Y-100184000D02*
X119989000Y-97640000D01*
X119989000Y-95560000D02*
X119989000Y-93016000D01*
X119949000Y-100162000D02*
X119949000Y-97640000D01*
X119949000Y-95560000D02*
X119949000Y-93038000D01*
X119909000Y-100140000D02*
X119909000Y-97640000D01*
X119909000Y-95560000D02*
X119909000Y-93060000D01*
X119869000Y-100117000D02*
X119869000Y-97640000D01*
X119869000Y-95560000D02*
X119869000Y-93083000D01*
X119829000Y-100093000D02*
X119829000Y-97640000D01*
X119829000Y-95560000D02*
X119829000Y-93107000D01*
X119789000Y-100069000D02*
X119789000Y-97640000D01*
X119789000Y-95560000D02*
X119789000Y-93131000D01*
X119749000Y-100044000D02*
X119749000Y-97640000D01*
X119749000Y-95560000D02*
X119749000Y-93156000D01*
X119709000Y-100018000D02*
X119709000Y-97640000D01*
X119709000Y-95560000D02*
X119709000Y-93182000D01*
X119669000Y-99992000D02*
X119669000Y-97640000D01*
X119669000Y-95560000D02*
X119669000Y-93208000D01*
X119629000Y-99965000D02*
X119629000Y-97640000D01*
X119629000Y-95560000D02*
X119629000Y-93235000D01*
X119589000Y-99938000D02*
X119589000Y-97640000D01*
X119589000Y-95560000D02*
X119589000Y-93262000D01*
X119549000Y-99909000D02*
X119549000Y-97640000D01*
X119549000Y-95560000D02*
X119549000Y-93291000D01*
X119509000Y-99880000D02*
X119509000Y-97640000D01*
X119509000Y-95560000D02*
X119509000Y-93320000D01*
X119469000Y-99850000D02*
X119469000Y-97640000D01*
X119469000Y-95560000D02*
X119469000Y-93350000D01*
X119429000Y-99820000D02*
X119429000Y-97640000D01*
X119429000Y-95560000D02*
X119429000Y-93380000D01*
X119389000Y-99789000D02*
X119389000Y-97640000D01*
X119389000Y-95560000D02*
X119389000Y-93411000D01*
X119349000Y-99756000D02*
X119349000Y-97640000D01*
X119349000Y-95560000D02*
X119349000Y-93444000D01*
X119309000Y-99724000D02*
X119309000Y-97640000D01*
X119309000Y-95560000D02*
X119309000Y-93476000D01*
X119269000Y-99690000D02*
X119269000Y-97640000D01*
X119269000Y-95560000D02*
X119269000Y-93510000D01*
X119229000Y-99655000D02*
X119229000Y-97640000D01*
X119229000Y-95560000D02*
X119229000Y-93545000D01*
X119189000Y-99619000D02*
X119189000Y-97640000D01*
X119189000Y-95560000D02*
X119189000Y-93581000D01*
X119149000Y-99583000D02*
X119149000Y-93617000D01*
X119109000Y-99545000D02*
X119109000Y-93655000D01*
X119069000Y-99507000D02*
X119069000Y-93693000D01*
X119029000Y-99467000D02*
X119029000Y-93733000D01*
X118989000Y-99426000D02*
X118989000Y-93774000D01*
X118949000Y-99384000D02*
X118949000Y-93816000D01*
X118909000Y-99341000D02*
X118909000Y-93859000D01*
X118869000Y-99297000D02*
X118869000Y-93903000D01*
X118829000Y-99251000D02*
X118829000Y-93949000D01*
X118789000Y-99204000D02*
X118789000Y-93996000D01*
X118749000Y-99156000D02*
X118749000Y-94044000D01*
X118709000Y-99105000D02*
X118709000Y-94095000D01*
X118669000Y-99054000D02*
X118669000Y-94146000D01*
X118629000Y-99000000D02*
X118629000Y-94200000D01*
X118589000Y-98945000D02*
X118589000Y-94255000D01*
X118549000Y-98887000D02*
X118549000Y-94313000D01*
X118509000Y-98828000D02*
X118509000Y-94372000D01*
X118469000Y-98766000D02*
X118469000Y-94434000D01*
X118429000Y-98702000D02*
X118429000Y-94498000D01*
X118389000Y-98634000D02*
X118389000Y-94566000D01*
X118349000Y-98564000D02*
X118349000Y-94636000D01*
X118309000Y-98490000D02*
X118309000Y-94710000D01*
X118269000Y-98413000D02*
X118269000Y-94787000D01*
X118229000Y-98331000D02*
X118229000Y-94869000D01*
X118189000Y-98245000D02*
X118189000Y-94955000D01*
X118149000Y-98152000D02*
X118149000Y-95048000D01*
X118109000Y-98053000D02*
X118109000Y-95147000D01*
X118069000Y-97946000D02*
X118069000Y-95254000D01*
X118029000Y-97829000D02*
X118029000Y-95371000D01*
X117989000Y-97698000D02*
X117989000Y-95502000D01*
X117949000Y-97548000D02*
X117949000Y-95652000D01*
X117909000Y-97368000D02*
X117909000Y-95832000D01*
X117869000Y-97133000D02*
X117869000Y-96067000D01*
X126070000Y-96600000D02*
G75*
G03*
X126070000Y-96600000I-4120000J0D01*
G01*
%TD*%
M02*
