%TF.GenerationSoftware,KiCad,Pcbnew,7.0.7-7.0.7~ubuntu22.04.1*%
%TF.CreationDate,2023-08-15T15:59:34+03:00*%
%TF.ProjectId,supply-uv,73757070-6c79-42d7-9576-2e6b69636164,rev?*%
%TF.SameCoordinates,Original*%
%TF.FileFunction,Drillmap*%
%TF.FilePolarity,Positive*%
%FSLAX45Y45*%
G04 Gerber Fmt 4.5, Leading zero omitted, Abs format (unit mm)*
G04 Created by KiCad (PCBNEW 7.0.7-7.0.7~ubuntu22.04.1) date 2023-08-15 15:59:34*
%MOMM*%
%LPD*%
G01*
G04 APERTURE LIST*
%ADD10C,0.100000*%
%ADD11C,0.200000*%
%ADD12C,0.040000*%
%ADD13C,0.080000*%
%ADD14C,0.090000*%
%ADD15C,0.110000*%
%ADD16C,0.120000*%
%ADD17C,0.130000*%
%ADD18C,0.140000*%
%ADD19C,0.150000*%
%ADD20C,0.160000*%
%ADD21C,0.210000*%
G04 APERTURE END LIST*
D10*
X13600000Y-5000000D02*
X6000000Y-5000000D01*
X6000000Y-15000000D02*
X16000000Y-15000000D01*
X13600000Y-8900000D02*
X13600000Y-5000000D01*
X16000000Y-15000000D02*
X16000000Y-8900000D01*
X6000000Y-5000000D02*
X6000000Y-15000000D01*
X16000000Y-8900000D02*
X13600000Y-8900000D01*
D11*
D12*
X9390000Y-10388750D02*
X9430000Y-10428750D01*
X9430000Y-10388750D02*
X9390000Y-10428750D01*
X9620000Y-12308750D02*
X9660000Y-12348750D01*
X9660000Y-12308750D02*
X9620000Y-12348750D01*
X11280000Y-11950000D02*
X11320000Y-11990000D01*
X11320000Y-11950000D02*
X11280000Y-11990000D01*
X11405000Y-11188750D02*
X11445000Y-11228750D01*
X11445000Y-11188750D02*
X11405000Y-11228750D01*
X15180000Y-11460000D02*
X15220000Y-11500000D01*
X15220000Y-11460000D02*
X15180000Y-11500000D01*
D13*
X11590000Y-12154750D02*
G75*
G03*
X11590000Y-12154750I-40000J0D01*
G01*
X11590000Y-12408750D02*
G75*
G03*
X11590000Y-12408750I-40000J0D01*
G01*
X12060000Y-9660000D02*
G75*
G03*
X12060000Y-9660000I-40000J0D01*
G01*
X12159000Y-12908750D02*
G75*
G03*
X12159000Y-12908750I-40000J0D01*
G01*
X12163000Y-12373750D02*
G75*
G03*
X12163000Y-12373750I-40000J0D01*
G01*
X12410000Y-9660000D02*
G75*
G03*
X12410000Y-9660000I-40000J0D01*
G01*
X12750511Y-11773750D02*
G75*
G03*
X12750511Y-11773750I-40000J0D01*
G01*
X12921000Y-12908750D02*
G75*
G03*
X12921000Y-12908750I-40000J0D01*
G01*
X12925000Y-12373750D02*
G75*
G03*
X12925000Y-12373750I-40000J0D01*
G01*
X12940000Y-9350000D02*
G75*
G03*
X12940000Y-9350000I-40000J0D01*
G01*
X12950511Y-11773750D02*
G75*
G03*
X12950511Y-11773750I-40000J0D01*
G01*
X13290000Y-9350000D02*
G75*
G03*
X13290000Y-9350000I-40000J0D01*
G01*
X13490000Y-12679000D02*
G75*
G03*
X13490000Y-12679000I-40000J0D01*
G01*
X13490000Y-13441000D02*
G75*
G03*
X13490000Y-13441000I-40000J0D01*
G01*
X13860000Y-12758750D02*
G75*
G03*
X13860000Y-12758750I-40000J0D01*
G01*
X13860000Y-13258750D02*
G75*
G03*
X13860000Y-13258750I-40000J0D01*
G01*
X15232500Y-9480000D02*
G75*
G03*
X15232500Y-9480000I-40000J0D01*
G01*
X15232500Y-10242000D02*
G75*
G03*
X15232500Y-10242000I-40000J0D01*
G01*
X15486500Y-9480000D02*
G75*
G03*
X15486500Y-9480000I-40000J0D01*
G01*
X15486500Y-10242000D02*
G75*
G03*
X15486500Y-10242000I-40000J0D01*
G01*
D14*
X11950000Y-11098500D02*
X11950000Y-11188500D01*
X11905000Y-11143500D02*
X11995000Y-11143500D01*
X11950000Y-11352500D02*
X11950000Y-11442500D01*
X11905000Y-11397500D02*
X11995000Y-11397500D01*
X12751000Y-10758750D02*
X12751000Y-10848750D01*
X12706000Y-10803750D02*
X12796000Y-10803750D01*
X13005000Y-10758750D02*
X13005000Y-10848750D01*
X12960000Y-10803750D02*
X13050000Y-10803750D01*
D10*
X10570356Y-7900356D02*
X10570356Y-7829644D01*
X10499644Y-7829644D01*
X10499644Y-7900356D01*
X10570356Y-7900356D01*
X11770356Y-7900356D02*
X11770356Y-7829644D01*
X11699644Y-7829644D01*
X11699644Y-7900356D01*
X11770356Y-7900356D01*
D15*
X7994500Y-10159750D02*
X8049500Y-10104750D01*
X7994500Y-10049750D01*
X7939500Y-10104750D01*
X7994500Y-10159750D01*
X7994500Y-10413750D02*
X8049500Y-10358750D01*
X7994500Y-10303750D01*
X7939500Y-10358750D01*
X7994500Y-10413750D01*
X7994500Y-10667750D02*
X8049500Y-10612750D01*
X7994500Y-10557750D01*
X7939500Y-10612750D01*
X7994500Y-10667750D01*
X8446000Y-13169250D02*
X8501000Y-13114250D01*
X8446000Y-13059250D01*
X8391000Y-13114250D01*
X8446000Y-13169250D01*
X8954000Y-13169250D02*
X9009000Y-13114250D01*
X8954000Y-13059250D01*
X8899000Y-13114250D01*
X8954000Y-13169250D01*
X13270000Y-11276750D02*
X13325000Y-11221750D01*
X13270000Y-11166750D01*
X13215000Y-11221750D01*
X13270000Y-11276750D01*
X13270000Y-12038750D02*
X13325000Y-11983750D01*
X13270000Y-11928750D01*
X13215000Y-11983750D01*
X13270000Y-12038750D01*
X14370000Y-12714000D02*
X14425000Y-12659000D01*
X14370000Y-12604000D01*
X14315000Y-12659000D01*
X14370000Y-12714000D01*
X14370000Y-13476000D02*
X14425000Y-13421000D01*
X14370000Y-13366000D01*
X14315000Y-13421000D01*
X14370000Y-13476000D01*
X15172000Y-13095000D02*
X15227000Y-13040000D01*
X15172000Y-12985000D01*
X15117000Y-13040000D01*
X15172000Y-13095000D01*
X15426000Y-13095000D02*
X15481000Y-13040000D01*
X15426000Y-12985000D01*
X15371000Y-13040000D01*
X15426000Y-13095000D01*
X15680000Y-13095000D02*
X15735000Y-13040000D01*
X15680000Y-12985000D01*
X15625000Y-13040000D01*
X15680000Y-13095000D01*
D16*
X6567222Y-9073750D02*
X6687222Y-9193750D01*
X6687222Y-9073750D02*
X6567222Y-9193750D01*
X6687222Y-9133750D02*
G75*
G03*
X6687222Y-9133750I-60000J0D01*
G01*
X7317222Y-9073750D02*
X7437222Y-9193750D01*
X7437222Y-9073750D02*
X7317222Y-9193750D01*
X7437222Y-9133750D02*
G75*
G03*
X7437222Y-9133750I-60000J0D01*
G01*
X10324000Y-5240000D02*
X10444000Y-5360000D01*
X10444000Y-5240000D02*
X10324000Y-5360000D01*
X10444000Y-5300000D02*
G75*
G03*
X10444000Y-5300000I-60000J0D01*
G01*
X10444000Y-5820000D02*
X10564000Y-5940000D01*
X10564000Y-5820000D02*
X10444000Y-5940000D01*
X10564000Y-5880000D02*
G75*
G03*
X10564000Y-5880000I-60000J0D01*
G01*
X11086000Y-5240000D02*
X11206000Y-5360000D01*
X11206000Y-5240000D02*
X11086000Y-5360000D01*
X11206000Y-5300000D02*
G75*
G03*
X11206000Y-5300000I-60000J0D01*
G01*
X11206000Y-5820000D02*
X11326000Y-5940000D01*
X11326000Y-5820000D02*
X11206000Y-5940000D01*
X11326000Y-5880000D02*
G75*
G03*
X11326000Y-5880000I-60000J0D01*
G01*
X11720000Y-5099000D02*
X11840000Y-5219000D01*
X11840000Y-5099000D02*
X11720000Y-5219000D01*
X11840000Y-5159000D02*
G75*
G03*
X11840000Y-5159000I-60000J0D01*
G01*
X11720000Y-5861000D02*
X11840000Y-5981000D01*
X11840000Y-5861000D02*
X11720000Y-5981000D01*
X11840000Y-5921000D02*
G75*
G03*
X11840000Y-5921000I-60000J0D01*
G01*
X12370000Y-5140000D02*
X12490000Y-5260000D01*
X12490000Y-5140000D02*
X12370000Y-5260000D01*
X12490000Y-5200000D02*
G75*
G03*
X12490000Y-5200000I-60000J0D01*
G01*
X12370000Y-6640000D02*
X12490000Y-6760000D01*
X12490000Y-6640000D02*
X12370000Y-6760000D01*
X12490000Y-6700000D02*
G75*
G03*
X12490000Y-6700000I-60000J0D01*
G01*
X14718725Y-14100000D02*
X14838725Y-14220000D01*
X14838725Y-14100000D02*
X14718725Y-14220000D01*
X14838725Y-14160000D02*
G75*
G03*
X14838725Y-14160000I-60000J0D01*
G01*
X15468725Y-14100000D02*
X15588725Y-14220000D01*
X15588725Y-14100000D02*
X15468725Y-14220000D01*
X15588725Y-14160000D02*
G75*
G03*
X15588725Y-14160000I-60000J0D01*
G01*
D17*
X10465000Y-6575000D02*
X10595000Y-6705000D01*
X10595000Y-6575000D02*
X10465000Y-6705000D01*
X10530000Y-6575000D02*
X10530000Y-6705000D01*
X10465000Y-6640000D02*
X10595000Y-6640000D01*
X11065000Y-7995000D02*
X11195000Y-8125000D01*
X11195000Y-7995000D02*
X11065000Y-8125000D01*
X11130000Y-7995000D02*
X11130000Y-8125000D01*
X11065000Y-8060000D02*
X11195000Y-8060000D01*
X11670000Y-6580000D02*
X11800000Y-6710000D01*
X11800000Y-6580000D02*
X11670000Y-6710000D01*
X11735000Y-6580000D02*
X11735000Y-6710000D01*
X11670000Y-6645000D02*
X11800000Y-6645000D01*
D18*
X7249250Y-7458000D02*
X7389250Y-7598000D01*
X7389250Y-7458000D02*
X7249250Y-7598000D01*
X7368748Y-7577498D02*
X7368748Y-7478502D01*
X7269752Y-7478502D01*
X7269752Y-7577498D01*
X7368748Y-7577498D01*
X7757250Y-7458000D02*
X7897250Y-7598000D01*
X7897250Y-7458000D02*
X7757250Y-7598000D01*
X7876748Y-7577498D02*
X7876748Y-7478502D01*
X7777752Y-7478502D01*
X7777752Y-7577498D01*
X7876748Y-7577498D01*
X8265250Y-7458000D02*
X8405250Y-7598000D01*
X8405250Y-7458000D02*
X8265250Y-7598000D01*
X8384748Y-7577498D02*
X8384748Y-7478502D01*
X8285752Y-7478502D01*
X8285752Y-7577498D01*
X8384748Y-7577498D01*
X8773250Y-7458000D02*
X8913250Y-7598000D01*
X8913250Y-7458000D02*
X8773250Y-7598000D01*
X8892748Y-7577498D02*
X8892748Y-7478502D01*
X8793752Y-7478502D01*
X8793752Y-7577498D01*
X8892748Y-7577498D01*
X12440000Y-7391500D02*
X12580000Y-7531500D01*
X12580000Y-7391500D02*
X12440000Y-7531500D01*
X12559498Y-7510998D02*
X12559498Y-7412002D01*
X12460502Y-7412002D01*
X12460502Y-7510998D01*
X12559498Y-7510998D01*
X12440000Y-8128500D02*
X12580000Y-8268500D01*
X12580000Y-8128500D02*
X12440000Y-8268500D01*
X12559498Y-8247998D02*
X12559498Y-8149002D01*
X12460502Y-8149002D01*
X12460502Y-8247998D01*
X12559498Y-8247998D01*
D19*
X6250000Y-10558750D02*
X6400000Y-10708750D01*
X6400000Y-10558750D02*
X6250000Y-10708750D01*
X6325000Y-10708750D02*
X6400000Y-10633750D01*
X6325000Y-10558750D01*
X6250000Y-10633750D01*
X6325000Y-10708750D01*
D20*
X8550000Y-8646750D02*
X8550000Y-8806750D01*
X8470000Y-8726750D02*
X8630000Y-8726750D01*
X8630000Y-8726750D02*
G75*
G03*
X8630000Y-8726750I-80000J0D01*
G01*
X8550000Y-9154750D02*
X8550000Y-9314750D01*
X8470000Y-9234750D02*
X8630000Y-9234750D01*
X8630000Y-9234750D02*
G75*
G03*
X8630000Y-9234750I-80000J0D01*
G01*
X8550000Y-9662750D02*
X8550000Y-9822750D01*
X8470000Y-9742750D02*
X8630000Y-9742750D01*
X8630000Y-9742750D02*
G75*
G03*
X8630000Y-9742750I-80000J0D01*
G01*
X8550000Y-10170750D02*
X8550000Y-10330750D01*
X8470000Y-10250750D02*
X8630000Y-10250750D01*
X8630000Y-10250750D02*
G75*
G03*
X8630000Y-10250750I-80000J0D01*
G01*
X8550000Y-10678750D02*
X8550000Y-10838750D01*
X8470000Y-10758750D02*
X8630000Y-10758750D01*
X8630000Y-10758750D02*
G75*
G03*
X8630000Y-10758750I-80000J0D01*
G01*
X8550000Y-11186750D02*
X8550000Y-11346750D01*
X8470000Y-11266750D02*
X8630000Y-11266750D01*
X8630000Y-11266750D02*
G75*
G03*
X8630000Y-11266750I-80000J0D01*
G01*
X8550000Y-11694750D02*
X8550000Y-11854750D01*
X8470000Y-11774750D02*
X8630000Y-11774750D01*
X8630000Y-11774750D02*
G75*
G03*
X8630000Y-11774750I-80000J0D01*
G01*
X10836000Y-8646750D02*
X10836000Y-8806750D01*
X10756000Y-8726750D02*
X10916000Y-8726750D01*
X10916000Y-8726750D02*
G75*
G03*
X10916000Y-8726750I-80000J0D01*
G01*
X10836000Y-9154750D02*
X10836000Y-9314750D01*
X10756000Y-9234750D02*
X10916000Y-9234750D01*
X10916000Y-9234750D02*
G75*
G03*
X10916000Y-9234750I-80000J0D01*
G01*
X10836000Y-9662750D02*
X10836000Y-9822750D01*
X10756000Y-9742750D02*
X10916000Y-9742750D01*
X10916000Y-9742750D02*
G75*
G03*
X10916000Y-9742750I-80000J0D01*
G01*
X10836000Y-10170750D02*
X10836000Y-10330750D01*
X10756000Y-10250750D02*
X10916000Y-10250750D01*
X10916000Y-10250750D02*
G75*
G03*
X10916000Y-10250750I-80000J0D01*
G01*
X10836000Y-10678750D02*
X10836000Y-10838750D01*
X10756000Y-10758750D02*
X10916000Y-10758750D01*
X10916000Y-10758750D02*
G75*
G03*
X10916000Y-10758750I-80000J0D01*
G01*
X10836000Y-11186750D02*
X10836000Y-11346750D01*
X10756000Y-11266750D02*
X10916000Y-11266750D01*
X10916000Y-11266750D02*
G75*
G03*
X10916000Y-11266750I-80000J0D01*
G01*
X10836000Y-11694750D02*
X10836000Y-11854750D01*
X10756000Y-11774750D02*
X10916000Y-11774750D01*
X10916000Y-11774750D02*
G75*
G03*
X10916000Y-11774750I-80000J0D01*
G01*
X12909500Y-10150000D02*
X12909500Y-10310000D01*
X12829500Y-10230000D02*
X12989500Y-10230000D01*
X12989500Y-10230000D02*
G75*
G03*
X12989500Y-10230000I-80000J0D01*
G01*
X13290500Y-10150000D02*
X13290500Y-10310000D01*
X13210500Y-10230000D02*
X13370500Y-10230000D01*
X13370500Y-10230000D02*
G75*
G03*
X13370500Y-10230000I-80000J0D01*
G01*
X13769000Y-9099750D02*
X13769000Y-9259750D01*
X13689000Y-9179750D02*
X13849000Y-9179750D01*
X13849000Y-9179750D02*
G75*
G03*
X13849000Y-9179750I-80000J0D01*
G01*
X13769000Y-9607750D02*
X13769000Y-9767750D01*
X13689000Y-9687750D02*
X13849000Y-9687750D01*
X13849000Y-9687750D02*
G75*
G03*
X13849000Y-9687750I-80000J0D01*
G01*
X13769000Y-10115750D02*
X13769000Y-10275750D01*
X13689000Y-10195750D02*
X13849000Y-10195750D01*
X13849000Y-10195750D02*
G75*
G03*
X13849000Y-10195750I-80000J0D01*
G01*
X13769000Y-10623750D02*
X13769000Y-10783750D01*
X13689000Y-10703750D02*
X13849000Y-10703750D01*
X13849000Y-10703750D02*
G75*
G03*
X13849000Y-10703750I-80000J0D01*
G01*
X13769000Y-11131750D02*
X13769000Y-11291750D01*
X13689000Y-11211750D02*
X13849000Y-11211750D01*
X13849000Y-11211750D02*
G75*
G03*
X13849000Y-11211750I-80000J0D01*
G01*
X13769000Y-11639750D02*
X13769000Y-11799750D01*
X13689000Y-11719750D02*
X13849000Y-11719750D01*
X13849000Y-11719750D02*
G75*
G03*
X13849000Y-11719750I-80000J0D01*
G01*
X13769000Y-12147750D02*
X13769000Y-12307750D01*
X13689000Y-12227750D02*
X13849000Y-12227750D01*
X13849000Y-12227750D02*
G75*
G03*
X13849000Y-12227750I-80000J0D01*
G01*
X15801000Y-9099750D02*
X15801000Y-9259750D01*
X15721000Y-9179750D02*
X15881000Y-9179750D01*
X15881000Y-9179750D02*
G75*
G03*
X15881000Y-9179750I-80000J0D01*
G01*
X15801000Y-9607750D02*
X15801000Y-9767750D01*
X15721000Y-9687750D02*
X15881000Y-9687750D01*
X15881000Y-9687750D02*
G75*
G03*
X15881000Y-9687750I-80000J0D01*
G01*
X15801000Y-10115750D02*
X15801000Y-10275750D01*
X15721000Y-10195750D02*
X15881000Y-10195750D01*
X15881000Y-10195750D02*
G75*
G03*
X15881000Y-10195750I-80000J0D01*
G01*
X15801000Y-10623750D02*
X15801000Y-10783750D01*
X15721000Y-10703750D02*
X15881000Y-10703750D01*
X15881000Y-10703750D02*
G75*
G03*
X15881000Y-10703750I-80000J0D01*
G01*
X15801000Y-11131750D02*
X15801000Y-11291750D01*
X15721000Y-11211750D02*
X15881000Y-11211750D01*
X15881000Y-11211750D02*
G75*
G03*
X15881000Y-11211750I-80000J0D01*
G01*
X15801000Y-11639750D02*
X15801000Y-11799750D01*
X15721000Y-11719750D02*
X15881000Y-11719750D01*
X15881000Y-11719750D02*
G75*
G03*
X15881000Y-11719750I-80000J0D01*
G01*
X15801000Y-12147750D02*
X15801000Y-12307750D01*
X15721000Y-12227750D02*
X15881000Y-12227750D01*
X15881000Y-12227750D02*
G75*
G03*
X15881000Y-12227750I-80000J0D01*
G01*
D21*
X6774247Y-11407997D02*
X6774247Y-11259503D01*
X6625753Y-11259503D01*
X6625753Y-11407997D01*
X6774247Y-11407997D01*
X6805000Y-11333750D02*
G75*
G03*
X6805000Y-11333750I-105000J0D01*
G01*
X6774247Y-12007997D02*
X6774247Y-11859503D01*
X6625753Y-11859503D01*
X6625753Y-12007997D01*
X6774247Y-12007997D01*
X6805000Y-11933750D02*
G75*
G03*
X6805000Y-11933750I-105000J0D01*
G01*
X11454247Y-10224247D02*
X11454247Y-10075753D01*
X11305753Y-10075753D01*
X11305753Y-10224247D01*
X11454247Y-10224247D01*
X11485000Y-10150000D02*
G75*
G03*
X11485000Y-10150000I-105000J0D01*
G01*
X11824247Y-13707997D02*
X11824247Y-13559503D01*
X11675753Y-13559503D01*
X11675753Y-13707997D01*
X11824247Y-13707997D01*
X11855000Y-13633750D02*
G75*
G03*
X11855000Y-13633750I-105000J0D01*
G01*
X12424247Y-13707997D02*
X12424247Y-13559503D01*
X12275753Y-13559503D01*
X12275753Y-13707997D01*
X12424247Y-13707997D01*
X12455000Y-13633750D02*
G75*
G03*
X12455000Y-13633750I-105000J0D01*
G01*
X12474247Y-14232997D02*
X12474247Y-14084503D01*
X12325753Y-14084503D01*
X12325753Y-14232997D01*
X12474247Y-14232997D01*
X12505000Y-14158750D02*
G75*
G03*
X12505000Y-14158750I-105000J0D01*
G01*
X12474247Y-14832997D02*
X12474247Y-14684503D01*
X12325753Y-14684503D01*
X12325753Y-14832997D01*
X12474247Y-14832997D01*
X12505000Y-14758750D02*
G75*
G03*
X12505000Y-14758750I-105000J0D01*
G01*
X13324247Y-5404247D02*
X13324247Y-5255753D01*
X13175753Y-5255753D01*
X13175753Y-5404247D01*
X13324247Y-5404247D01*
X13355000Y-5330000D02*
G75*
G03*
X13355000Y-5330000I-105000J0D01*
G01*
X13324247Y-6184247D02*
X13324247Y-6035753D01*
X13175753Y-6035753D01*
X13175753Y-6184247D01*
X13324247Y-6184247D01*
X13355000Y-6110000D02*
G75*
G03*
X13355000Y-6110000I-105000J0D01*
G01*
X13324247Y-6964247D02*
X13324247Y-6815753D01*
X13175753Y-6815753D01*
X13175753Y-6964247D01*
X13324247Y-6964247D01*
X13355000Y-6890000D02*
G75*
G03*
X13355000Y-6890000I-105000J0D01*
G01*
D11*
X6255777Y-15316484D02*
X6255777Y-15116484D01*
X6255777Y-15116484D02*
X6303396Y-15116484D01*
X6303396Y-15116484D02*
X6331967Y-15126008D01*
X6331967Y-15126008D02*
X6351015Y-15145055D01*
X6351015Y-15145055D02*
X6360539Y-15164103D01*
X6360539Y-15164103D02*
X6370062Y-15202198D01*
X6370062Y-15202198D02*
X6370062Y-15230769D01*
X6370062Y-15230769D02*
X6360539Y-15268865D01*
X6360539Y-15268865D02*
X6351015Y-15287912D01*
X6351015Y-15287912D02*
X6331967Y-15306960D01*
X6331967Y-15306960D02*
X6303396Y-15316484D01*
X6303396Y-15316484D02*
X6255777Y-15316484D01*
X6455777Y-15316484D02*
X6455777Y-15183150D01*
X6455777Y-15221246D02*
X6465301Y-15202198D01*
X6465301Y-15202198D02*
X6474824Y-15192674D01*
X6474824Y-15192674D02*
X6493872Y-15183150D01*
X6493872Y-15183150D02*
X6512920Y-15183150D01*
X6579586Y-15316484D02*
X6579586Y-15183150D01*
X6579586Y-15116484D02*
X6570062Y-15126008D01*
X6570062Y-15126008D02*
X6579586Y-15135531D01*
X6579586Y-15135531D02*
X6589110Y-15126008D01*
X6589110Y-15126008D02*
X6579586Y-15116484D01*
X6579586Y-15116484D02*
X6579586Y-15135531D01*
X6703396Y-15316484D02*
X6684348Y-15306960D01*
X6684348Y-15306960D02*
X6674824Y-15287912D01*
X6674824Y-15287912D02*
X6674824Y-15116484D01*
X6808158Y-15316484D02*
X6789110Y-15306960D01*
X6789110Y-15306960D02*
X6779586Y-15287912D01*
X6779586Y-15287912D02*
X6779586Y-15116484D01*
X7036729Y-15316484D02*
X7036729Y-15116484D01*
X7036729Y-15116484D02*
X7103396Y-15259341D01*
X7103396Y-15259341D02*
X7170062Y-15116484D01*
X7170062Y-15116484D02*
X7170062Y-15316484D01*
X7351015Y-15316484D02*
X7351015Y-15211722D01*
X7351015Y-15211722D02*
X7341491Y-15192674D01*
X7341491Y-15192674D02*
X7322443Y-15183150D01*
X7322443Y-15183150D02*
X7284348Y-15183150D01*
X7284348Y-15183150D02*
X7265301Y-15192674D01*
X7351015Y-15306960D02*
X7331967Y-15316484D01*
X7331967Y-15316484D02*
X7284348Y-15316484D01*
X7284348Y-15316484D02*
X7265301Y-15306960D01*
X7265301Y-15306960D02*
X7255777Y-15287912D01*
X7255777Y-15287912D02*
X7255777Y-15268865D01*
X7255777Y-15268865D02*
X7265301Y-15249817D01*
X7265301Y-15249817D02*
X7284348Y-15240293D01*
X7284348Y-15240293D02*
X7331967Y-15240293D01*
X7331967Y-15240293D02*
X7351015Y-15230769D01*
X7446253Y-15183150D02*
X7446253Y-15383150D01*
X7446253Y-15192674D02*
X7465301Y-15183150D01*
X7465301Y-15183150D02*
X7503396Y-15183150D01*
X7503396Y-15183150D02*
X7522443Y-15192674D01*
X7522443Y-15192674D02*
X7531967Y-15202198D01*
X7531967Y-15202198D02*
X7541491Y-15221246D01*
X7541491Y-15221246D02*
X7541491Y-15278388D01*
X7541491Y-15278388D02*
X7531967Y-15297436D01*
X7531967Y-15297436D02*
X7522443Y-15306960D01*
X7522443Y-15306960D02*
X7503396Y-15316484D01*
X7503396Y-15316484D02*
X7465301Y-15316484D01*
X7465301Y-15316484D02*
X7446253Y-15306960D01*
X7627205Y-15297436D02*
X7636729Y-15306960D01*
X7636729Y-15306960D02*
X7627205Y-15316484D01*
X7627205Y-15316484D02*
X7617682Y-15306960D01*
X7617682Y-15306960D02*
X7627205Y-15297436D01*
X7627205Y-15297436D02*
X7627205Y-15316484D01*
X7627205Y-15192674D02*
X7636729Y-15202198D01*
X7636729Y-15202198D02*
X7627205Y-15211722D01*
X7627205Y-15211722D02*
X7617682Y-15202198D01*
X7617682Y-15202198D02*
X7627205Y-15192674D01*
X7627205Y-15192674D02*
X7627205Y-15211722D01*
D12*
X5955000Y-15625000D02*
X5995000Y-15665000D01*
X5995000Y-15625000D02*
X5955000Y-15665000D01*
D11*
X6293872Y-15536484D02*
X6312920Y-15536484D01*
X6312920Y-15536484D02*
X6331967Y-15546008D01*
X6331967Y-15546008D02*
X6341491Y-15555531D01*
X6341491Y-15555531D02*
X6351015Y-15574579D01*
X6351015Y-15574579D02*
X6360539Y-15612674D01*
X6360539Y-15612674D02*
X6360539Y-15660293D01*
X6360539Y-15660293D02*
X6351015Y-15698388D01*
X6351015Y-15698388D02*
X6341491Y-15717436D01*
X6341491Y-15717436D02*
X6331967Y-15726960D01*
X6331967Y-15726960D02*
X6312920Y-15736484D01*
X6312920Y-15736484D02*
X6293872Y-15736484D01*
X6293872Y-15736484D02*
X6274824Y-15726960D01*
X6274824Y-15726960D02*
X6265301Y-15717436D01*
X6265301Y-15717436D02*
X6255777Y-15698388D01*
X6255777Y-15698388D02*
X6246253Y-15660293D01*
X6246253Y-15660293D02*
X6246253Y-15612674D01*
X6246253Y-15612674D02*
X6255777Y-15574579D01*
X6255777Y-15574579D02*
X6265301Y-15555531D01*
X6265301Y-15555531D02*
X6274824Y-15546008D01*
X6274824Y-15546008D02*
X6293872Y-15536484D01*
X6446253Y-15717436D02*
X6455777Y-15726960D01*
X6455777Y-15726960D02*
X6446253Y-15736484D01*
X6446253Y-15736484D02*
X6436729Y-15726960D01*
X6436729Y-15726960D02*
X6446253Y-15717436D01*
X6446253Y-15717436D02*
X6446253Y-15736484D01*
X6627205Y-15603150D02*
X6627205Y-15736484D01*
X6579586Y-15526960D02*
X6531967Y-15669817D01*
X6531967Y-15669817D02*
X6655777Y-15669817D01*
X6770062Y-15536484D02*
X6789110Y-15536484D01*
X6789110Y-15536484D02*
X6808158Y-15546008D01*
X6808158Y-15546008D02*
X6817682Y-15555531D01*
X6817682Y-15555531D02*
X6827205Y-15574579D01*
X6827205Y-15574579D02*
X6836729Y-15612674D01*
X6836729Y-15612674D02*
X6836729Y-15660293D01*
X6836729Y-15660293D02*
X6827205Y-15698388D01*
X6827205Y-15698388D02*
X6817682Y-15717436D01*
X6817682Y-15717436D02*
X6808158Y-15726960D01*
X6808158Y-15726960D02*
X6789110Y-15736484D01*
X6789110Y-15736484D02*
X6770062Y-15736484D01*
X6770062Y-15736484D02*
X6751015Y-15726960D01*
X6751015Y-15726960D02*
X6741491Y-15717436D01*
X6741491Y-15717436D02*
X6731967Y-15698388D01*
X6731967Y-15698388D02*
X6722443Y-15660293D01*
X6722443Y-15660293D02*
X6722443Y-15612674D01*
X6722443Y-15612674D02*
X6731967Y-15574579D01*
X6731967Y-15574579D02*
X6741491Y-15555531D01*
X6741491Y-15555531D02*
X6751015Y-15546008D01*
X6751015Y-15546008D02*
X6770062Y-15536484D01*
X6960539Y-15536484D02*
X6979586Y-15536484D01*
X6979586Y-15536484D02*
X6998634Y-15546008D01*
X6998634Y-15546008D02*
X7008158Y-15555531D01*
X7008158Y-15555531D02*
X7017682Y-15574579D01*
X7017682Y-15574579D02*
X7027205Y-15612674D01*
X7027205Y-15612674D02*
X7027205Y-15660293D01*
X7027205Y-15660293D02*
X7017682Y-15698388D01*
X7017682Y-15698388D02*
X7008158Y-15717436D01*
X7008158Y-15717436D02*
X6998634Y-15726960D01*
X6998634Y-15726960D02*
X6979586Y-15736484D01*
X6979586Y-15736484D02*
X6960539Y-15736484D01*
X6960539Y-15736484D02*
X6941491Y-15726960D01*
X6941491Y-15726960D02*
X6931967Y-15717436D01*
X6931967Y-15717436D02*
X6922443Y-15698388D01*
X6922443Y-15698388D02*
X6912920Y-15660293D01*
X6912920Y-15660293D02*
X6912920Y-15612674D01*
X6912920Y-15612674D02*
X6922443Y-15574579D01*
X6922443Y-15574579D02*
X6931967Y-15555531D01*
X6931967Y-15555531D02*
X6941491Y-15546008D01*
X6941491Y-15546008D02*
X6960539Y-15536484D01*
X7112920Y-15736484D02*
X7112920Y-15603150D01*
X7112920Y-15622198D02*
X7122443Y-15612674D01*
X7122443Y-15612674D02*
X7141491Y-15603150D01*
X7141491Y-15603150D02*
X7170063Y-15603150D01*
X7170063Y-15603150D02*
X7189110Y-15612674D01*
X7189110Y-15612674D02*
X7198634Y-15631722D01*
X7198634Y-15631722D02*
X7198634Y-15736484D01*
X7198634Y-15631722D02*
X7208158Y-15612674D01*
X7208158Y-15612674D02*
X7227205Y-15603150D01*
X7227205Y-15603150D02*
X7255777Y-15603150D01*
X7255777Y-15603150D02*
X7274824Y-15612674D01*
X7274824Y-15612674D02*
X7284348Y-15631722D01*
X7284348Y-15631722D02*
X7284348Y-15736484D01*
X7379586Y-15736484D02*
X7379586Y-15603150D01*
X7379586Y-15622198D02*
X7389110Y-15612674D01*
X7389110Y-15612674D02*
X7408158Y-15603150D01*
X7408158Y-15603150D02*
X7436729Y-15603150D01*
X7436729Y-15603150D02*
X7455777Y-15612674D01*
X7455777Y-15612674D02*
X7465301Y-15631722D01*
X7465301Y-15631722D02*
X7465301Y-15736484D01*
X7465301Y-15631722D02*
X7474824Y-15612674D01*
X7474824Y-15612674D02*
X7493872Y-15603150D01*
X7493872Y-15603150D02*
X7522443Y-15603150D01*
X7522443Y-15603150D02*
X7541491Y-15612674D01*
X7541491Y-15612674D02*
X7551015Y-15631722D01*
X7551015Y-15631722D02*
X7551015Y-15736484D01*
X7941491Y-15526960D02*
X7770063Y-15784103D01*
X8198634Y-15536484D02*
X8217682Y-15536484D01*
X8217682Y-15536484D02*
X8236729Y-15546008D01*
X8236729Y-15546008D02*
X8246253Y-15555531D01*
X8246253Y-15555531D02*
X8255777Y-15574579D01*
X8255777Y-15574579D02*
X8265301Y-15612674D01*
X8265301Y-15612674D02*
X8265301Y-15660293D01*
X8265301Y-15660293D02*
X8255777Y-15698388D01*
X8255777Y-15698388D02*
X8246253Y-15717436D01*
X8246253Y-15717436D02*
X8236729Y-15726960D01*
X8236729Y-15726960D02*
X8217682Y-15736484D01*
X8217682Y-15736484D02*
X8198634Y-15736484D01*
X8198634Y-15736484D02*
X8179586Y-15726960D01*
X8179586Y-15726960D02*
X8170063Y-15717436D01*
X8170063Y-15717436D02*
X8160539Y-15698388D01*
X8160539Y-15698388D02*
X8151015Y-15660293D01*
X8151015Y-15660293D02*
X8151015Y-15612674D01*
X8151015Y-15612674D02*
X8160539Y-15574579D01*
X8160539Y-15574579D02*
X8170063Y-15555531D01*
X8170063Y-15555531D02*
X8179586Y-15546008D01*
X8179586Y-15546008D02*
X8198634Y-15536484D01*
X8351015Y-15717436D02*
X8360539Y-15726960D01*
X8360539Y-15726960D02*
X8351015Y-15736484D01*
X8351015Y-15736484D02*
X8341491Y-15726960D01*
X8341491Y-15726960D02*
X8351015Y-15717436D01*
X8351015Y-15717436D02*
X8351015Y-15736484D01*
X8484348Y-15536484D02*
X8503396Y-15536484D01*
X8503396Y-15536484D02*
X8522444Y-15546008D01*
X8522444Y-15546008D02*
X8531968Y-15555531D01*
X8531968Y-15555531D02*
X8541491Y-15574579D01*
X8541491Y-15574579D02*
X8551015Y-15612674D01*
X8551015Y-15612674D02*
X8551015Y-15660293D01*
X8551015Y-15660293D02*
X8541491Y-15698388D01*
X8541491Y-15698388D02*
X8531968Y-15717436D01*
X8531968Y-15717436D02*
X8522444Y-15726960D01*
X8522444Y-15726960D02*
X8503396Y-15736484D01*
X8503396Y-15736484D02*
X8484348Y-15736484D01*
X8484348Y-15736484D02*
X8465301Y-15726960D01*
X8465301Y-15726960D02*
X8455777Y-15717436D01*
X8455777Y-15717436D02*
X8446253Y-15698388D01*
X8446253Y-15698388D02*
X8436729Y-15660293D01*
X8436729Y-15660293D02*
X8436729Y-15612674D01*
X8436729Y-15612674D02*
X8446253Y-15574579D01*
X8446253Y-15574579D02*
X8455777Y-15555531D01*
X8455777Y-15555531D02*
X8465301Y-15546008D01*
X8465301Y-15546008D02*
X8484348Y-15536484D01*
X8741491Y-15736484D02*
X8627206Y-15736484D01*
X8684348Y-15736484D02*
X8684348Y-15536484D01*
X8684348Y-15536484D02*
X8665301Y-15565055D01*
X8665301Y-15565055D02*
X8646253Y-15584103D01*
X8646253Y-15584103D02*
X8627206Y-15593627D01*
X8922444Y-15536484D02*
X8827206Y-15536484D01*
X8827206Y-15536484D02*
X8817682Y-15631722D01*
X8817682Y-15631722D02*
X8827206Y-15622198D01*
X8827206Y-15622198D02*
X8846253Y-15612674D01*
X8846253Y-15612674D02*
X8893872Y-15612674D01*
X8893872Y-15612674D02*
X8912920Y-15622198D01*
X8912920Y-15622198D02*
X8922444Y-15631722D01*
X8922444Y-15631722D02*
X8931968Y-15650769D01*
X8931968Y-15650769D02*
X8931968Y-15698388D01*
X8931968Y-15698388D02*
X8922444Y-15717436D01*
X8922444Y-15717436D02*
X8912920Y-15726960D01*
X8912920Y-15726960D02*
X8893872Y-15736484D01*
X8893872Y-15736484D02*
X8846253Y-15736484D01*
X8846253Y-15736484D02*
X8827206Y-15726960D01*
X8827206Y-15726960D02*
X8817682Y-15717436D01*
X8998634Y-15536484D02*
X9131968Y-15536484D01*
X9131968Y-15536484D02*
X9046253Y-15736484D01*
X9198634Y-15536484D02*
X9198634Y-15574579D01*
X9274825Y-15536484D02*
X9274825Y-15574579D01*
X9570063Y-15812674D02*
X9560539Y-15803150D01*
X9560539Y-15803150D02*
X9541491Y-15774579D01*
X9541491Y-15774579D02*
X9531968Y-15755531D01*
X9531968Y-15755531D02*
X9522444Y-15726960D01*
X9522444Y-15726960D02*
X9512920Y-15679341D01*
X9512920Y-15679341D02*
X9512920Y-15641246D01*
X9512920Y-15641246D02*
X9522444Y-15593627D01*
X9522444Y-15593627D02*
X9531968Y-15565055D01*
X9531968Y-15565055D02*
X9541491Y-15546008D01*
X9541491Y-15546008D02*
X9560539Y-15517436D01*
X9560539Y-15517436D02*
X9570063Y-15507912D01*
X9741491Y-15536484D02*
X9646253Y-15536484D01*
X9646253Y-15536484D02*
X9636730Y-15631722D01*
X9636730Y-15631722D02*
X9646253Y-15622198D01*
X9646253Y-15622198D02*
X9665301Y-15612674D01*
X9665301Y-15612674D02*
X9712920Y-15612674D01*
X9712920Y-15612674D02*
X9731968Y-15622198D01*
X9731968Y-15622198D02*
X9741491Y-15631722D01*
X9741491Y-15631722D02*
X9751015Y-15650769D01*
X9751015Y-15650769D02*
X9751015Y-15698388D01*
X9751015Y-15698388D02*
X9741491Y-15717436D01*
X9741491Y-15717436D02*
X9731968Y-15726960D01*
X9731968Y-15726960D02*
X9712920Y-15736484D01*
X9712920Y-15736484D02*
X9665301Y-15736484D01*
X9665301Y-15736484D02*
X9646253Y-15726960D01*
X9646253Y-15726960D02*
X9636730Y-15717436D01*
X9989111Y-15736484D02*
X9989111Y-15536484D01*
X10074825Y-15736484D02*
X10074825Y-15631722D01*
X10074825Y-15631722D02*
X10065301Y-15612674D01*
X10065301Y-15612674D02*
X10046253Y-15603150D01*
X10046253Y-15603150D02*
X10017682Y-15603150D01*
X10017682Y-15603150D02*
X9998634Y-15612674D01*
X9998634Y-15612674D02*
X9989111Y-15622198D01*
X10198634Y-15736484D02*
X10179587Y-15726960D01*
X10179587Y-15726960D02*
X10170063Y-15717436D01*
X10170063Y-15717436D02*
X10160539Y-15698388D01*
X10160539Y-15698388D02*
X10160539Y-15641246D01*
X10160539Y-15641246D02*
X10170063Y-15622198D01*
X10170063Y-15622198D02*
X10179587Y-15612674D01*
X10179587Y-15612674D02*
X10198634Y-15603150D01*
X10198634Y-15603150D02*
X10227206Y-15603150D01*
X10227206Y-15603150D02*
X10246253Y-15612674D01*
X10246253Y-15612674D02*
X10255777Y-15622198D01*
X10255777Y-15622198D02*
X10265301Y-15641246D01*
X10265301Y-15641246D02*
X10265301Y-15698388D01*
X10265301Y-15698388D02*
X10255777Y-15717436D01*
X10255777Y-15717436D02*
X10246253Y-15726960D01*
X10246253Y-15726960D02*
X10227206Y-15736484D01*
X10227206Y-15736484D02*
X10198634Y-15736484D01*
X10379587Y-15736484D02*
X10360539Y-15726960D01*
X10360539Y-15726960D02*
X10351015Y-15707912D01*
X10351015Y-15707912D02*
X10351015Y-15536484D01*
X10531968Y-15726960D02*
X10512920Y-15736484D01*
X10512920Y-15736484D02*
X10474825Y-15736484D01*
X10474825Y-15736484D02*
X10455777Y-15726960D01*
X10455777Y-15726960D02*
X10446253Y-15707912D01*
X10446253Y-15707912D02*
X10446253Y-15631722D01*
X10446253Y-15631722D02*
X10455777Y-15612674D01*
X10455777Y-15612674D02*
X10474825Y-15603150D01*
X10474825Y-15603150D02*
X10512920Y-15603150D01*
X10512920Y-15603150D02*
X10531968Y-15612674D01*
X10531968Y-15612674D02*
X10541492Y-15631722D01*
X10541492Y-15631722D02*
X10541492Y-15650769D01*
X10541492Y-15650769D02*
X10446253Y-15669817D01*
X10617682Y-15726960D02*
X10636730Y-15736484D01*
X10636730Y-15736484D02*
X10674825Y-15736484D01*
X10674825Y-15736484D02*
X10693873Y-15726960D01*
X10693873Y-15726960D02*
X10703396Y-15707912D01*
X10703396Y-15707912D02*
X10703396Y-15698388D01*
X10703396Y-15698388D02*
X10693873Y-15679341D01*
X10693873Y-15679341D02*
X10674825Y-15669817D01*
X10674825Y-15669817D02*
X10646253Y-15669817D01*
X10646253Y-15669817D02*
X10627206Y-15660293D01*
X10627206Y-15660293D02*
X10617682Y-15641246D01*
X10617682Y-15641246D02*
X10617682Y-15631722D01*
X10617682Y-15631722D02*
X10627206Y-15612674D01*
X10627206Y-15612674D02*
X10646253Y-15603150D01*
X10646253Y-15603150D02*
X10674825Y-15603150D01*
X10674825Y-15603150D02*
X10693873Y-15612674D01*
X10770063Y-15812674D02*
X10779587Y-15803150D01*
X10779587Y-15803150D02*
X10798634Y-15774579D01*
X10798634Y-15774579D02*
X10808158Y-15755531D01*
X10808158Y-15755531D02*
X10817682Y-15726960D01*
X10817682Y-15726960D02*
X10827206Y-15679341D01*
X10827206Y-15679341D02*
X10827206Y-15641246D01*
X10827206Y-15641246D02*
X10817682Y-15593627D01*
X10817682Y-15593627D02*
X10808158Y-15565055D01*
X10808158Y-15565055D02*
X10798634Y-15546008D01*
X10798634Y-15546008D02*
X10779587Y-15517436D01*
X10779587Y-15517436D02*
X10770063Y-15507912D01*
D13*
X5995000Y-15909000D02*
G75*
G03*
X5995000Y-15909000I-40000J0D01*
G01*
D11*
X6293872Y-15800484D02*
X6312920Y-15800484D01*
X6312920Y-15800484D02*
X6331967Y-15810008D01*
X6331967Y-15810008D02*
X6341491Y-15819531D01*
X6341491Y-15819531D02*
X6351015Y-15838579D01*
X6351015Y-15838579D02*
X6360539Y-15876674D01*
X6360539Y-15876674D02*
X6360539Y-15924293D01*
X6360539Y-15924293D02*
X6351015Y-15962388D01*
X6351015Y-15962388D02*
X6341491Y-15981436D01*
X6341491Y-15981436D02*
X6331967Y-15990960D01*
X6331967Y-15990960D02*
X6312920Y-16000484D01*
X6312920Y-16000484D02*
X6293872Y-16000484D01*
X6293872Y-16000484D02*
X6274824Y-15990960D01*
X6274824Y-15990960D02*
X6265301Y-15981436D01*
X6265301Y-15981436D02*
X6255777Y-15962388D01*
X6255777Y-15962388D02*
X6246253Y-15924293D01*
X6246253Y-15924293D02*
X6246253Y-15876674D01*
X6246253Y-15876674D02*
X6255777Y-15838579D01*
X6255777Y-15838579D02*
X6265301Y-15819531D01*
X6265301Y-15819531D02*
X6274824Y-15810008D01*
X6274824Y-15810008D02*
X6293872Y-15800484D01*
X6446253Y-15981436D02*
X6455777Y-15990960D01*
X6455777Y-15990960D02*
X6446253Y-16000484D01*
X6446253Y-16000484D02*
X6436729Y-15990960D01*
X6436729Y-15990960D02*
X6446253Y-15981436D01*
X6446253Y-15981436D02*
X6446253Y-16000484D01*
X6570062Y-15886198D02*
X6551015Y-15876674D01*
X6551015Y-15876674D02*
X6541491Y-15867150D01*
X6541491Y-15867150D02*
X6531967Y-15848103D01*
X6531967Y-15848103D02*
X6531967Y-15838579D01*
X6531967Y-15838579D02*
X6541491Y-15819531D01*
X6541491Y-15819531D02*
X6551015Y-15810008D01*
X6551015Y-15810008D02*
X6570062Y-15800484D01*
X6570062Y-15800484D02*
X6608158Y-15800484D01*
X6608158Y-15800484D02*
X6627205Y-15810008D01*
X6627205Y-15810008D02*
X6636729Y-15819531D01*
X6636729Y-15819531D02*
X6646253Y-15838579D01*
X6646253Y-15838579D02*
X6646253Y-15848103D01*
X6646253Y-15848103D02*
X6636729Y-15867150D01*
X6636729Y-15867150D02*
X6627205Y-15876674D01*
X6627205Y-15876674D02*
X6608158Y-15886198D01*
X6608158Y-15886198D02*
X6570062Y-15886198D01*
X6570062Y-15886198D02*
X6551015Y-15895722D01*
X6551015Y-15895722D02*
X6541491Y-15905246D01*
X6541491Y-15905246D02*
X6531967Y-15924293D01*
X6531967Y-15924293D02*
X6531967Y-15962388D01*
X6531967Y-15962388D02*
X6541491Y-15981436D01*
X6541491Y-15981436D02*
X6551015Y-15990960D01*
X6551015Y-15990960D02*
X6570062Y-16000484D01*
X6570062Y-16000484D02*
X6608158Y-16000484D01*
X6608158Y-16000484D02*
X6627205Y-15990960D01*
X6627205Y-15990960D02*
X6636729Y-15981436D01*
X6636729Y-15981436D02*
X6646253Y-15962388D01*
X6646253Y-15962388D02*
X6646253Y-15924293D01*
X6646253Y-15924293D02*
X6636729Y-15905246D01*
X6636729Y-15905246D02*
X6627205Y-15895722D01*
X6627205Y-15895722D02*
X6608158Y-15886198D01*
X6770062Y-15800484D02*
X6789110Y-15800484D01*
X6789110Y-15800484D02*
X6808158Y-15810008D01*
X6808158Y-15810008D02*
X6817682Y-15819531D01*
X6817682Y-15819531D02*
X6827205Y-15838579D01*
X6827205Y-15838579D02*
X6836729Y-15876674D01*
X6836729Y-15876674D02*
X6836729Y-15924293D01*
X6836729Y-15924293D02*
X6827205Y-15962388D01*
X6827205Y-15962388D02*
X6817682Y-15981436D01*
X6817682Y-15981436D02*
X6808158Y-15990960D01*
X6808158Y-15990960D02*
X6789110Y-16000484D01*
X6789110Y-16000484D02*
X6770062Y-16000484D01*
X6770062Y-16000484D02*
X6751015Y-15990960D01*
X6751015Y-15990960D02*
X6741491Y-15981436D01*
X6741491Y-15981436D02*
X6731967Y-15962388D01*
X6731967Y-15962388D02*
X6722443Y-15924293D01*
X6722443Y-15924293D02*
X6722443Y-15876674D01*
X6722443Y-15876674D02*
X6731967Y-15838579D01*
X6731967Y-15838579D02*
X6741491Y-15819531D01*
X6741491Y-15819531D02*
X6751015Y-15810008D01*
X6751015Y-15810008D02*
X6770062Y-15800484D01*
X6960539Y-15800484D02*
X6979586Y-15800484D01*
X6979586Y-15800484D02*
X6998634Y-15810008D01*
X6998634Y-15810008D02*
X7008158Y-15819531D01*
X7008158Y-15819531D02*
X7017682Y-15838579D01*
X7017682Y-15838579D02*
X7027205Y-15876674D01*
X7027205Y-15876674D02*
X7027205Y-15924293D01*
X7027205Y-15924293D02*
X7017682Y-15962388D01*
X7017682Y-15962388D02*
X7008158Y-15981436D01*
X7008158Y-15981436D02*
X6998634Y-15990960D01*
X6998634Y-15990960D02*
X6979586Y-16000484D01*
X6979586Y-16000484D02*
X6960539Y-16000484D01*
X6960539Y-16000484D02*
X6941491Y-15990960D01*
X6941491Y-15990960D02*
X6931967Y-15981436D01*
X6931967Y-15981436D02*
X6922443Y-15962388D01*
X6922443Y-15962388D02*
X6912920Y-15924293D01*
X6912920Y-15924293D02*
X6912920Y-15876674D01*
X6912920Y-15876674D02*
X6922443Y-15838579D01*
X6922443Y-15838579D02*
X6931967Y-15819531D01*
X6931967Y-15819531D02*
X6941491Y-15810008D01*
X6941491Y-15810008D02*
X6960539Y-15800484D01*
X7112920Y-16000484D02*
X7112920Y-15867150D01*
X7112920Y-15886198D02*
X7122443Y-15876674D01*
X7122443Y-15876674D02*
X7141491Y-15867150D01*
X7141491Y-15867150D02*
X7170063Y-15867150D01*
X7170063Y-15867150D02*
X7189110Y-15876674D01*
X7189110Y-15876674D02*
X7198634Y-15895722D01*
X7198634Y-15895722D02*
X7198634Y-16000484D01*
X7198634Y-15895722D02*
X7208158Y-15876674D01*
X7208158Y-15876674D02*
X7227205Y-15867150D01*
X7227205Y-15867150D02*
X7255777Y-15867150D01*
X7255777Y-15867150D02*
X7274824Y-15876674D01*
X7274824Y-15876674D02*
X7284348Y-15895722D01*
X7284348Y-15895722D02*
X7284348Y-16000484D01*
X7379586Y-16000484D02*
X7379586Y-15867150D01*
X7379586Y-15886198D02*
X7389110Y-15876674D01*
X7389110Y-15876674D02*
X7408158Y-15867150D01*
X7408158Y-15867150D02*
X7436729Y-15867150D01*
X7436729Y-15867150D02*
X7455777Y-15876674D01*
X7455777Y-15876674D02*
X7465301Y-15895722D01*
X7465301Y-15895722D02*
X7465301Y-16000484D01*
X7465301Y-15895722D02*
X7474824Y-15876674D01*
X7474824Y-15876674D02*
X7493872Y-15867150D01*
X7493872Y-15867150D02*
X7522443Y-15867150D01*
X7522443Y-15867150D02*
X7541491Y-15876674D01*
X7541491Y-15876674D02*
X7551015Y-15895722D01*
X7551015Y-15895722D02*
X7551015Y-16000484D01*
X7941491Y-15790960D02*
X7770063Y-16048103D01*
X8198634Y-15800484D02*
X8217682Y-15800484D01*
X8217682Y-15800484D02*
X8236729Y-15810008D01*
X8236729Y-15810008D02*
X8246253Y-15819531D01*
X8246253Y-15819531D02*
X8255777Y-15838579D01*
X8255777Y-15838579D02*
X8265301Y-15876674D01*
X8265301Y-15876674D02*
X8265301Y-15924293D01*
X8265301Y-15924293D02*
X8255777Y-15962388D01*
X8255777Y-15962388D02*
X8246253Y-15981436D01*
X8246253Y-15981436D02*
X8236729Y-15990960D01*
X8236729Y-15990960D02*
X8217682Y-16000484D01*
X8217682Y-16000484D02*
X8198634Y-16000484D01*
X8198634Y-16000484D02*
X8179586Y-15990960D01*
X8179586Y-15990960D02*
X8170063Y-15981436D01*
X8170063Y-15981436D02*
X8160539Y-15962388D01*
X8160539Y-15962388D02*
X8151015Y-15924293D01*
X8151015Y-15924293D02*
X8151015Y-15876674D01*
X8151015Y-15876674D02*
X8160539Y-15838579D01*
X8160539Y-15838579D02*
X8170063Y-15819531D01*
X8170063Y-15819531D02*
X8179586Y-15810008D01*
X8179586Y-15810008D02*
X8198634Y-15800484D01*
X8351015Y-15981436D02*
X8360539Y-15990960D01*
X8360539Y-15990960D02*
X8351015Y-16000484D01*
X8351015Y-16000484D02*
X8341491Y-15990960D01*
X8341491Y-15990960D02*
X8351015Y-15981436D01*
X8351015Y-15981436D02*
X8351015Y-16000484D01*
X8484348Y-15800484D02*
X8503396Y-15800484D01*
X8503396Y-15800484D02*
X8522444Y-15810008D01*
X8522444Y-15810008D02*
X8531968Y-15819531D01*
X8531968Y-15819531D02*
X8541491Y-15838579D01*
X8541491Y-15838579D02*
X8551015Y-15876674D01*
X8551015Y-15876674D02*
X8551015Y-15924293D01*
X8551015Y-15924293D02*
X8541491Y-15962388D01*
X8541491Y-15962388D02*
X8531968Y-15981436D01*
X8531968Y-15981436D02*
X8522444Y-15990960D01*
X8522444Y-15990960D02*
X8503396Y-16000484D01*
X8503396Y-16000484D02*
X8484348Y-16000484D01*
X8484348Y-16000484D02*
X8465301Y-15990960D01*
X8465301Y-15990960D02*
X8455777Y-15981436D01*
X8455777Y-15981436D02*
X8446253Y-15962388D01*
X8446253Y-15962388D02*
X8436729Y-15924293D01*
X8436729Y-15924293D02*
X8436729Y-15876674D01*
X8436729Y-15876674D02*
X8446253Y-15838579D01*
X8446253Y-15838579D02*
X8455777Y-15819531D01*
X8455777Y-15819531D02*
X8465301Y-15810008D01*
X8465301Y-15810008D02*
X8484348Y-15800484D01*
X8617682Y-15800484D02*
X8741491Y-15800484D01*
X8741491Y-15800484D02*
X8674825Y-15876674D01*
X8674825Y-15876674D02*
X8703396Y-15876674D01*
X8703396Y-15876674D02*
X8722444Y-15886198D01*
X8722444Y-15886198D02*
X8731968Y-15895722D01*
X8731968Y-15895722D02*
X8741491Y-15914769D01*
X8741491Y-15914769D02*
X8741491Y-15962388D01*
X8741491Y-15962388D02*
X8731968Y-15981436D01*
X8731968Y-15981436D02*
X8722444Y-15990960D01*
X8722444Y-15990960D02*
X8703396Y-16000484D01*
X8703396Y-16000484D02*
X8646253Y-16000484D01*
X8646253Y-16000484D02*
X8627206Y-15990960D01*
X8627206Y-15990960D02*
X8617682Y-15981436D01*
X8931968Y-16000484D02*
X8817682Y-16000484D01*
X8874825Y-16000484D02*
X8874825Y-15800484D01*
X8874825Y-15800484D02*
X8855777Y-15829055D01*
X8855777Y-15829055D02*
X8836729Y-15848103D01*
X8836729Y-15848103D02*
X8817682Y-15857627D01*
X9112920Y-15800484D02*
X9017682Y-15800484D01*
X9017682Y-15800484D02*
X9008158Y-15895722D01*
X9008158Y-15895722D02*
X9017682Y-15886198D01*
X9017682Y-15886198D02*
X9036729Y-15876674D01*
X9036729Y-15876674D02*
X9084349Y-15876674D01*
X9084349Y-15876674D02*
X9103396Y-15886198D01*
X9103396Y-15886198D02*
X9112920Y-15895722D01*
X9112920Y-15895722D02*
X9122444Y-15914769D01*
X9122444Y-15914769D02*
X9122444Y-15962388D01*
X9122444Y-15962388D02*
X9112920Y-15981436D01*
X9112920Y-15981436D02*
X9103396Y-15990960D01*
X9103396Y-15990960D02*
X9084349Y-16000484D01*
X9084349Y-16000484D02*
X9036729Y-16000484D01*
X9036729Y-16000484D02*
X9017682Y-15990960D01*
X9017682Y-15990960D02*
X9008158Y-15981436D01*
X9198634Y-15800484D02*
X9198634Y-15838579D01*
X9274825Y-15800484D02*
X9274825Y-15838579D01*
X9570063Y-16076674D02*
X9560539Y-16067150D01*
X9560539Y-16067150D02*
X9541491Y-16038579D01*
X9541491Y-16038579D02*
X9531968Y-16019531D01*
X9531968Y-16019531D02*
X9522444Y-15990960D01*
X9522444Y-15990960D02*
X9512920Y-15943341D01*
X9512920Y-15943341D02*
X9512920Y-15905246D01*
X9512920Y-15905246D02*
X9522444Y-15857627D01*
X9522444Y-15857627D02*
X9531968Y-15829055D01*
X9531968Y-15829055D02*
X9541491Y-15810008D01*
X9541491Y-15810008D02*
X9560539Y-15781436D01*
X9560539Y-15781436D02*
X9570063Y-15771912D01*
X9636730Y-15819531D02*
X9646253Y-15810008D01*
X9646253Y-15810008D02*
X9665301Y-15800484D01*
X9665301Y-15800484D02*
X9712920Y-15800484D01*
X9712920Y-15800484D02*
X9731968Y-15810008D01*
X9731968Y-15810008D02*
X9741491Y-15819531D01*
X9741491Y-15819531D02*
X9751015Y-15838579D01*
X9751015Y-15838579D02*
X9751015Y-15857627D01*
X9751015Y-15857627D02*
X9741491Y-15886198D01*
X9741491Y-15886198D02*
X9627206Y-16000484D01*
X9627206Y-16000484D02*
X9751015Y-16000484D01*
X9874825Y-15800484D02*
X9893872Y-15800484D01*
X9893872Y-15800484D02*
X9912920Y-15810008D01*
X9912920Y-15810008D02*
X9922444Y-15819531D01*
X9922444Y-15819531D02*
X9931968Y-15838579D01*
X9931968Y-15838579D02*
X9941491Y-15876674D01*
X9941491Y-15876674D02*
X9941491Y-15924293D01*
X9941491Y-15924293D02*
X9931968Y-15962388D01*
X9931968Y-15962388D02*
X9922444Y-15981436D01*
X9922444Y-15981436D02*
X9912920Y-15990960D01*
X9912920Y-15990960D02*
X9893872Y-16000484D01*
X9893872Y-16000484D02*
X9874825Y-16000484D01*
X9874825Y-16000484D02*
X9855777Y-15990960D01*
X9855777Y-15990960D02*
X9846253Y-15981436D01*
X9846253Y-15981436D02*
X9836730Y-15962388D01*
X9836730Y-15962388D02*
X9827206Y-15924293D01*
X9827206Y-15924293D02*
X9827206Y-15876674D01*
X9827206Y-15876674D02*
X9836730Y-15838579D01*
X9836730Y-15838579D02*
X9846253Y-15819531D01*
X9846253Y-15819531D02*
X9855777Y-15810008D01*
X9855777Y-15810008D02*
X9874825Y-15800484D01*
X10179587Y-16000484D02*
X10179587Y-15800484D01*
X10265301Y-16000484D02*
X10265301Y-15895722D01*
X10265301Y-15895722D02*
X10255777Y-15876674D01*
X10255777Y-15876674D02*
X10236730Y-15867150D01*
X10236730Y-15867150D02*
X10208158Y-15867150D01*
X10208158Y-15867150D02*
X10189111Y-15876674D01*
X10189111Y-15876674D02*
X10179587Y-15886198D01*
X10389111Y-16000484D02*
X10370063Y-15990960D01*
X10370063Y-15990960D02*
X10360539Y-15981436D01*
X10360539Y-15981436D02*
X10351015Y-15962388D01*
X10351015Y-15962388D02*
X10351015Y-15905246D01*
X10351015Y-15905246D02*
X10360539Y-15886198D01*
X10360539Y-15886198D02*
X10370063Y-15876674D01*
X10370063Y-15876674D02*
X10389111Y-15867150D01*
X10389111Y-15867150D02*
X10417682Y-15867150D01*
X10417682Y-15867150D02*
X10436730Y-15876674D01*
X10436730Y-15876674D02*
X10446253Y-15886198D01*
X10446253Y-15886198D02*
X10455777Y-15905246D01*
X10455777Y-15905246D02*
X10455777Y-15962388D01*
X10455777Y-15962388D02*
X10446253Y-15981436D01*
X10446253Y-15981436D02*
X10436730Y-15990960D01*
X10436730Y-15990960D02*
X10417682Y-16000484D01*
X10417682Y-16000484D02*
X10389111Y-16000484D01*
X10570063Y-16000484D02*
X10551015Y-15990960D01*
X10551015Y-15990960D02*
X10541492Y-15971912D01*
X10541492Y-15971912D02*
X10541492Y-15800484D01*
X10722444Y-15990960D02*
X10703396Y-16000484D01*
X10703396Y-16000484D02*
X10665301Y-16000484D01*
X10665301Y-16000484D02*
X10646253Y-15990960D01*
X10646253Y-15990960D02*
X10636730Y-15971912D01*
X10636730Y-15971912D02*
X10636730Y-15895722D01*
X10636730Y-15895722D02*
X10646253Y-15876674D01*
X10646253Y-15876674D02*
X10665301Y-15867150D01*
X10665301Y-15867150D02*
X10703396Y-15867150D01*
X10703396Y-15867150D02*
X10722444Y-15876674D01*
X10722444Y-15876674D02*
X10731968Y-15895722D01*
X10731968Y-15895722D02*
X10731968Y-15914769D01*
X10731968Y-15914769D02*
X10636730Y-15933817D01*
X10808158Y-15990960D02*
X10827206Y-16000484D01*
X10827206Y-16000484D02*
X10865301Y-16000484D01*
X10865301Y-16000484D02*
X10884349Y-15990960D01*
X10884349Y-15990960D02*
X10893873Y-15971912D01*
X10893873Y-15971912D02*
X10893873Y-15962388D01*
X10893873Y-15962388D02*
X10884349Y-15943341D01*
X10884349Y-15943341D02*
X10865301Y-15933817D01*
X10865301Y-15933817D02*
X10836730Y-15933817D01*
X10836730Y-15933817D02*
X10817682Y-15924293D01*
X10817682Y-15924293D02*
X10808158Y-15905246D01*
X10808158Y-15905246D02*
X10808158Y-15895722D01*
X10808158Y-15895722D02*
X10817682Y-15876674D01*
X10817682Y-15876674D02*
X10836730Y-15867150D01*
X10836730Y-15867150D02*
X10865301Y-15867150D01*
X10865301Y-15867150D02*
X10884349Y-15876674D01*
X10960539Y-16076674D02*
X10970063Y-16067150D01*
X10970063Y-16067150D02*
X10989111Y-16038579D01*
X10989111Y-16038579D02*
X10998634Y-16019531D01*
X10998634Y-16019531D02*
X11008158Y-15990960D01*
X11008158Y-15990960D02*
X11017682Y-15943341D01*
X11017682Y-15943341D02*
X11017682Y-15905246D01*
X11017682Y-15905246D02*
X11008158Y-15857627D01*
X11008158Y-15857627D02*
X10998634Y-15829055D01*
X10998634Y-15829055D02*
X10989111Y-15810008D01*
X10989111Y-15810008D02*
X10970063Y-15781436D01*
X10970063Y-15781436D02*
X10960539Y-15771912D01*
D14*
X5950000Y-16128000D02*
X5950000Y-16218000D01*
X5905000Y-16173000D02*
X5995000Y-16173000D01*
D11*
X6293872Y-16064484D02*
X6312920Y-16064484D01*
X6312920Y-16064484D02*
X6331967Y-16074008D01*
X6331967Y-16074008D02*
X6341491Y-16083531D01*
X6341491Y-16083531D02*
X6351015Y-16102579D01*
X6351015Y-16102579D02*
X6360539Y-16140674D01*
X6360539Y-16140674D02*
X6360539Y-16188293D01*
X6360539Y-16188293D02*
X6351015Y-16226388D01*
X6351015Y-16226388D02*
X6341491Y-16245436D01*
X6341491Y-16245436D02*
X6331967Y-16254960D01*
X6331967Y-16254960D02*
X6312920Y-16264484D01*
X6312920Y-16264484D02*
X6293872Y-16264484D01*
X6293872Y-16264484D02*
X6274824Y-16254960D01*
X6274824Y-16254960D02*
X6265301Y-16245436D01*
X6265301Y-16245436D02*
X6255777Y-16226388D01*
X6255777Y-16226388D02*
X6246253Y-16188293D01*
X6246253Y-16188293D02*
X6246253Y-16140674D01*
X6246253Y-16140674D02*
X6255777Y-16102579D01*
X6255777Y-16102579D02*
X6265301Y-16083531D01*
X6265301Y-16083531D02*
X6274824Y-16074008D01*
X6274824Y-16074008D02*
X6293872Y-16064484D01*
X6446253Y-16245436D02*
X6455777Y-16254960D01*
X6455777Y-16254960D02*
X6446253Y-16264484D01*
X6446253Y-16264484D02*
X6436729Y-16254960D01*
X6436729Y-16254960D02*
X6446253Y-16245436D01*
X6446253Y-16245436D02*
X6446253Y-16264484D01*
X6551015Y-16264484D02*
X6589110Y-16264484D01*
X6589110Y-16264484D02*
X6608158Y-16254960D01*
X6608158Y-16254960D02*
X6617682Y-16245436D01*
X6617682Y-16245436D02*
X6636729Y-16216865D01*
X6636729Y-16216865D02*
X6646253Y-16178769D01*
X6646253Y-16178769D02*
X6646253Y-16102579D01*
X6646253Y-16102579D02*
X6636729Y-16083531D01*
X6636729Y-16083531D02*
X6627205Y-16074008D01*
X6627205Y-16074008D02*
X6608158Y-16064484D01*
X6608158Y-16064484D02*
X6570062Y-16064484D01*
X6570062Y-16064484D02*
X6551015Y-16074008D01*
X6551015Y-16074008D02*
X6541491Y-16083531D01*
X6541491Y-16083531D02*
X6531967Y-16102579D01*
X6531967Y-16102579D02*
X6531967Y-16150198D01*
X6531967Y-16150198D02*
X6541491Y-16169246D01*
X6541491Y-16169246D02*
X6551015Y-16178769D01*
X6551015Y-16178769D02*
X6570062Y-16188293D01*
X6570062Y-16188293D02*
X6608158Y-16188293D01*
X6608158Y-16188293D02*
X6627205Y-16178769D01*
X6627205Y-16178769D02*
X6636729Y-16169246D01*
X6636729Y-16169246D02*
X6646253Y-16150198D01*
X6770062Y-16064484D02*
X6789110Y-16064484D01*
X6789110Y-16064484D02*
X6808158Y-16074008D01*
X6808158Y-16074008D02*
X6817682Y-16083531D01*
X6817682Y-16083531D02*
X6827205Y-16102579D01*
X6827205Y-16102579D02*
X6836729Y-16140674D01*
X6836729Y-16140674D02*
X6836729Y-16188293D01*
X6836729Y-16188293D02*
X6827205Y-16226388D01*
X6827205Y-16226388D02*
X6817682Y-16245436D01*
X6817682Y-16245436D02*
X6808158Y-16254960D01*
X6808158Y-16254960D02*
X6789110Y-16264484D01*
X6789110Y-16264484D02*
X6770062Y-16264484D01*
X6770062Y-16264484D02*
X6751015Y-16254960D01*
X6751015Y-16254960D02*
X6741491Y-16245436D01*
X6741491Y-16245436D02*
X6731967Y-16226388D01*
X6731967Y-16226388D02*
X6722443Y-16188293D01*
X6722443Y-16188293D02*
X6722443Y-16140674D01*
X6722443Y-16140674D02*
X6731967Y-16102579D01*
X6731967Y-16102579D02*
X6741491Y-16083531D01*
X6741491Y-16083531D02*
X6751015Y-16074008D01*
X6751015Y-16074008D02*
X6770062Y-16064484D01*
X6960539Y-16064484D02*
X6979586Y-16064484D01*
X6979586Y-16064484D02*
X6998634Y-16074008D01*
X6998634Y-16074008D02*
X7008158Y-16083531D01*
X7008158Y-16083531D02*
X7017682Y-16102579D01*
X7017682Y-16102579D02*
X7027205Y-16140674D01*
X7027205Y-16140674D02*
X7027205Y-16188293D01*
X7027205Y-16188293D02*
X7017682Y-16226388D01*
X7017682Y-16226388D02*
X7008158Y-16245436D01*
X7008158Y-16245436D02*
X6998634Y-16254960D01*
X6998634Y-16254960D02*
X6979586Y-16264484D01*
X6979586Y-16264484D02*
X6960539Y-16264484D01*
X6960539Y-16264484D02*
X6941491Y-16254960D01*
X6941491Y-16254960D02*
X6931967Y-16245436D01*
X6931967Y-16245436D02*
X6922443Y-16226388D01*
X6922443Y-16226388D02*
X6912920Y-16188293D01*
X6912920Y-16188293D02*
X6912920Y-16140674D01*
X6912920Y-16140674D02*
X6922443Y-16102579D01*
X6922443Y-16102579D02*
X6931967Y-16083531D01*
X6931967Y-16083531D02*
X6941491Y-16074008D01*
X6941491Y-16074008D02*
X6960539Y-16064484D01*
X7112920Y-16264484D02*
X7112920Y-16131150D01*
X7112920Y-16150198D02*
X7122443Y-16140674D01*
X7122443Y-16140674D02*
X7141491Y-16131150D01*
X7141491Y-16131150D02*
X7170063Y-16131150D01*
X7170063Y-16131150D02*
X7189110Y-16140674D01*
X7189110Y-16140674D02*
X7198634Y-16159722D01*
X7198634Y-16159722D02*
X7198634Y-16264484D01*
X7198634Y-16159722D02*
X7208158Y-16140674D01*
X7208158Y-16140674D02*
X7227205Y-16131150D01*
X7227205Y-16131150D02*
X7255777Y-16131150D01*
X7255777Y-16131150D02*
X7274824Y-16140674D01*
X7274824Y-16140674D02*
X7284348Y-16159722D01*
X7284348Y-16159722D02*
X7284348Y-16264484D01*
X7379586Y-16264484D02*
X7379586Y-16131150D01*
X7379586Y-16150198D02*
X7389110Y-16140674D01*
X7389110Y-16140674D02*
X7408158Y-16131150D01*
X7408158Y-16131150D02*
X7436729Y-16131150D01*
X7436729Y-16131150D02*
X7455777Y-16140674D01*
X7455777Y-16140674D02*
X7465301Y-16159722D01*
X7465301Y-16159722D02*
X7465301Y-16264484D01*
X7465301Y-16159722D02*
X7474824Y-16140674D01*
X7474824Y-16140674D02*
X7493872Y-16131150D01*
X7493872Y-16131150D02*
X7522443Y-16131150D01*
X7522443Y-16131150D02*
X7541491Y-16140674D01*
X7541491Y-16140674D02*
X7551015Y-16159722D01*
X7551015Y-16159722D02*
X7551015Y-16264484D01*
X7941491Y-16054960D02*
X7770063Y-16312103D01*
X8198634Y-16064484D02*
X8217682Y-16064484D01*
X8217682Y-16064484D02*
X8236729Y-16074008D01*
X8236729Y-16074008D02*
X8246253Y-16083531D01*
X8246253Y-16083531D02*
X8255777Y-16102579D01*
X8255777Y-16102579D02*
X8265301Y-16140674D01*
X8265301Y-16140674D02*
X8265301Y-16188293D01*
X8265301Y-16188293D02*
X8255777Y-16226388D01*
X8255777Y-16226388D02*
X8246253Y-16245436D01*
X8246253Y-16245436D02*
X8236729Y-16254960D01*
X8236729Y-16254960D02*
X8217682Y-16264484D01*
X8217682Y-16264484D02*
X8198634Y-16264484D01*
X8198634Y-16264484D02*
X8179586Y-16254960D01*
X8179586Y-16254960D02*
X8170063Y-16245436D01*
X8170063Y-16245436D02*
X8160539Y-16226388D01*
X8160539Y-16226388D02*
X8151015Y-16188293D01*
X8151015Y-16188293D02*
X8151015Y-16140674D01*
X8151015Y-16140674D02*
X8160539Y-16102579D01*
X8160539Y-16102579D02*
X8170063Y-16083531D01*
X8170063Y-16083531D02*
X8179586Y-16074008D01*
X8179586Y-16074008D02*
X8198634Y-16064484D01*
X8351015Y-16245436D02*
X8360539Y-16254960D01*
X8360539Y-16254960D02*
X8351015Y-16264484D01*
X8351015Y-16264484D02*
X8341491Y-16254960D01*
X8341491Y-16254960D02*
X8351015Y-16245436D01*
X8351015Y-16245436D02*
X8351015Y-16264484D01*
X8484348Y-16064484D02*
X8503396Y-16064484D01*
X8503396Y-16064484D02*
X8522444Y-16074008D01*
X8522444Y-16074008D02*
X8531968Y-16083531D01*
X8531968Y-16083531D02*
X8541491Y-16102579D01*
X8541491Y-16102579D02*
X8551015Y-16140674D01*
X8551015Y-16140674D02*
X8551015Y-16188293D01*
X8551015Y-16188293D02*
X8541491Y-16226388D01*
X8541491Y-16226388D02*
X8531968Y-16245436D01*
X8531968Y-16245436D02*
X8522444Y-16254960D01*
X8522444Y-16254960D02*
X8503396Y-16264484D01*
X8503396Y-16264484D02*
X8484348Y-16264484D01*
X8484348Y-16264484D02*
X8465301Y-16254960D01*
X8465301Y-16254960D02*
X8455777Y-16245436D01*
X8455777Y-16245436D02*
X8446253Y-16226388D01*
X8446253Y-16226388D02*
X8436729Y-16188293D01*
X8436729Y-16188293D02*
X8436729Y-16140674D01*
X8436729Y-16140674D02*
X8446253Y-16102579D01*
X8446253Y-16102579D02*
X8455777Y-16083531D01*
X8455777Y-16083531D02*
X8465301Y-16074008D01*
X8465301Y-16074008D02*
X8484348Y-16064484D01*
X8617682Y-16064484D02*
X8741491Y-16064484D01*
X8741491Y-16064484D02*
X8674825Y-16140674D01*
X8674825Y-16140674D02*
X8703396Y-16140674D01*
X8703396Y-16140674D02*
X8722444Y-16150198D01*
X8722444Y-16150198D02*
X8731968Y-16159722D01*
X8731968Y-16159722D02*
X8741491Y-16178769D01*
X8741491Y-16178769D02*
X8741491Y-16226388D01*
X8741491Y-16226388D02*
X8731968Y-16245436D01*
X8731968Y-16245436D02*
X8722444Y-16254960D01*
X8722444Y-16254960D02*
X8703396Y-16264484D01*
X8703396Y-16264484D02*
X8646253Y-16264484D01*
X8646253Y-16264484D02*
X8627206Y-16254960D01*
X8627206Y-16254960D02*
X8617682Y-16245436D01*
X8922444Y-16064484D02*
X8827206Y-16064484D01*
X8827206Y-16064484D02*
X8817682Y-16159722D01*
X8817682Y-16159722D02*
X8827206Y-16150198D01*
X8827206Y-16150198D02*
X8846253Y-16140674D01*
X8846253Y-16140674D02*
X8893872Y-16140674D01*
X8893872Y-16140674D02*
X8912920Y-16150198D01*
X8912920Y-16150198D02*
X8922444Y-16159722D01*
X8922444Y-16159722D02*
X8931968Y-16178769D01*
X8931968Y-16178769D02*
X8931968Y-16226388D01*
X8931968Y-16226388D02*
X8922444Y-16245436D01*
X8922444Y-16245436D02*
X8912920Y-16254960D01*
X8912920Y-16254960D02*
X8893872Y-16264484D01*
X8893872Y-16264484D02*
X8846253Y-16264484D01*
X8846253Y-16264484D02*
X8827206Y-16254960D01*
X8827206Y-16254960D02*
X8817682Y-16245436D01*
X9103396Y-16131150D02*
X9103396Y-16264484D01*
X9055777Y-16054960D02*
X9008158Y-16197817D01*
X9008158Y-16197817D02*
X9131968Y-16197817D01*
X9198634Y-16064484D02*
X9198634Y-16102579D01*
X9274825Y-16064484D02*
X9274825Y-16102579D01*
X9570063Y-16340674D02*
X9560539Y-16331150D01*
X9560539Y-16331150D02*
X9541491Y-16302579D01*
X9541491Y-16302579D02*
X9531968Y-16283531D01*
X9531968Y-16283531D02*
X9522444Y-16254960D01*
X9522444Y-16254960D02*
X9512920Y-16207341D01*
X9512920Y-16207341D02*
X9512920Y-16169246D01*
X9512920Y-16169246D02*
X9522444Y-16121627D01*
X9522444Y-16121627D02*
X9531968Y-16093055D01*
X9531968Y-16093055D02*
X9541491Y-16074008D01*
X9541491Y-16074008D02*
X9560539Y-16045436D01*
X9560539Y-16045436D02*
X9570063Y-16035912D01*
X9731968Y-16131150D02*
X9731968Y-16264484D01*
X9684349Y-16054960D02*
X9636730Y-16197817D01*
X9636730Y-16197817D02*
X9760539Y-16197817D01*
X9989111Y-16264484D02*
X9989111Y-16064484D01*
X10074825Y-16264484D02*
X10074825Y-16159722D01*
X10074825Y-16159722D02*
X10065301Y-16140674D01*
X10065301Y-16140674D02*
X10046253Y-16131150D01*
X10046253Y-16131150D02*
X10017682Y-16131150D01*
X10017682Y-16131150D02*
X9998634Y-16140674D01*
X9998634Y-16140674D02*
X9989111Y-16150198D01*
X10198634Y-16264484D02*
X10179587Y-16254960D01*
X10179587Y-16254960D02*
X10170063Y-16245436D01*
X10170063Y-16245436D02*
X10160539Y-16226388D01*
X10160539Y-16226388D02*
X10160539Y-16169246D01*
X10160539Y-16169246D02*
X10170063Y-16150198D01*
X10170063Y-16150198D02*
X10179587Y-16140674D01*
X10179587Y-16140674D02*
X10198634Y-16131150D01*
X10198634Y-16131150D02*
X10227206Y-16131150D01*
X10227206Y-16131150D02*
X10246253Y-16140674D01*
X10246253Y-16140674D02*
X10255777Y-16150198D01*
X10255777Y-16150198D02*
X10265301Y-16169246D01*
X10265301Y-16169246D02*
X10265301Y-16226388D01*
X10265301Y-16226388D02*
X10255777Y-16245436D01*
X10255777Y-16245436D02*
X10246253Y-16254960D01*
X10246253Y-16254960D02*
X10227206Y-16264484D01*
X10227206Y-16264484D02*
X10198634Y-16264484D01*
X10379587Y-16264484D02*
X10360539Y-16254960D01*
X10360539Y-16254960D02*
X10351015Y-16235912D01*
X10351015Y-16235912D02*
X10351015Y-16064484D01*
X10531968Y-16254960D02*
X10512920Y-16264484D01*
X10512920Y-16264484D02*
X10474825Y-16264484D01*
X10474825Y-16264484D02*
X10455777Y-16254960D01*
X10455777Y-16254960D02*
X10446253Y-16235912D01*
X10446253Y-16235912D02*
X10446253Y-16159722D01*
X10446253Y-16159722D02*
X10455777Y-16140674D01*
X10455777Y-16140674D02*
X10474825Y-16131150D01*
X10474825Y-16131150D02*
X10512920Y-16131150D01*
X10512920Y-16131150D02*
X10531968Y-16140674D01*
X10531968Y-16140674D02*
X10541492Y-16159722D01*
X10541492Y-16159722D02*
X10541492Y-16178769D01*
X10541492Y-16178769D02*
X10446253Y-16197817D01*
X10617682Y-16254960D02*
X10636730Y-16264484D01*
X10636730Y-16264484D02*
X10674825Y-16264484D01*
X10674825Y-16264484D02*
X10693873Y-16254960D01*
X10693873Y-16254960D02*
X10703396Y-16235912D01*
X10703396Y-16235912D02*
X10703396Y-16226388D01*
X10703396Y-16226388D02*
X10693873Y-16207341D01*
X10693873Y-16207341D02*
X10674825Y-16197817D01*
X10674825Y-16197817D02*
X10646253Y-16197817D01*
X10646253Y-16197817D02*
X10627206Y-16188293D01*
X10627206Y-16188293D02*
X10617682Y-16169246D01*
X10617682Y-16169246D02*
X10617682Y-16159722D01*
X10617682Y-16159722D02*
X10627206Y-16140674D01*
X10627206Y-16140674D02*
X10646253Y-16131150D01*
X10646253Y-16131150D02*
X10674825Y-16131150D01*
X10674825Y-16131150D02*
X10693873Y-16140674D01*
X10770063Y-16340674D02*
X10779587Y-16331150D01*
X10779587Y-16331150D02*
X10798634Y-16302579D01*
X10798634Y-16302579D02*
X10808158Y-16283531D01*
X10808158Y-16283531D02*
X10817682Y-16254960D01*
X10817682Y-16254960D02*
X10827206Y-16207341D01*
X10827206Y-16207341D02*
X10827206Y-16169246D01*
X10827206Y-16169246D02*
X10817682Y-16121627D01*
X10817682Y-16121627D02*
X10808158Y-16093055D01*
X10808158Y-16093055D02*
X10798634Y-16074008D01*
X10798634Y-16074008D02*
X10779587Y-16045436D01*
X10779587Y-16045436D02*
X10770063Y-16035912D01*
D10*
X5980356Y-16472356D02*
X5980356Y-16401644D01*
X5909644Y-16401644D01*
X5909644Y-16472356D01*
X5980356Y-16472356D01*
D11*
X6360539Y-16528484D02*
X6246253Y-16528484D01*
X6303396Y-16528484D02*
X6303396Y-16328484D01*
X6303396Y-16328484D02*
X6284348Y-16357055D01*
X6284348Y-16357055D02*
X6265301Y-16376103D01*
X6265301Y-16376103D02*
X6246253Y-16385627D01*
X6446253Y-16509436D02*
X6455777Y-16518960D01*
X6455777Y-16518960D02*
X6446253Y-16528484D01*
X6446253Y-16528484D02*
X6436729Y-16518960D01*
X6436729Y-16518960D02*
X6446253Y-16509436D01*
X6446253Y-16509436D02*
X6446253Y-16528484D01*
X6579586Y-16328484D02*
X6598634Y-16328484D01*
X6598634Y-16328484D02*
X6617682Y-16338008D01*
X6617682Y-16338008D02*
X6627205Y-16347531D01*
X6627205Y-16347531D02*
X6636729Y-16366579D01*
X6636729Y-16366579D02*
X6646253Y-16404674D01*
X6646253Y-16404674D02*
X6646253Y-16452293D01*
X6646253Y-16452293D02*
X6636729Y-16490388D01*
X6636729Y-16490388D02*
X6627205Y-16509436D01*
X6627205Y-16509436D02*
X6617682Y-16518960D01*
X6617682Y-16518960D02*
X6598634Y-16528484D01*
X6598634Y-16528484D02*
X6579586Y-16528484D01*
X6579586Y-16528484D02*
X6560539Y-16518960D01*
X6560539Y-16518960D02*
X6551015Y-16509436D01*
X6551015Y-16509436D02*
X6541491Y-16490388D01*
X6541491Y-16490388D02*
X6531967Y-16452293D01*
X6531967Y-16452293D02*
X6531967Y-16404674D01*
X6531967Y-16404674D02*
X6541491Y-16366579D01*
X6541491Y-16366579D02*
X6551015Y-16347531D01*
X6551015Y-16347531D02*
X6560539Y-16338008D01*
X6560539Y-16338008D02*
X6579586Y-16328484D01*
X6770062Y-16328484D02*
X6789110Y-16328484D01*
X6789110Y-16328484D02*
X6808158Y-16338008D01*
X6808158Y-16338008D02*
X6817682Y-16347531D01*
X6817682Y-16347531D02*
X6827205Y-16366579D01*
X6827205Y-16366579D02*
X6836729Y-16404674D01*
X6836729Y-16404674D02*
X6836729Y-16452293D01*
X6836729Y-16452293D02*
X6827205Y-16490388D01*
X6827205Y-16490388D02*
X6817682Y-16509436D01*
X6817682Y-16509436D02*
X6808158Y-16518960D01*
X6808158Y-16518960D02*
X6789110Y-16528484D01*
X6789110Y-16528484D02*
X6770062Y-16528484D01*
X6770062Y-16528484D02*
X6751015Y-16518960D01*
X6751015Y-16518960D02*
X6741491Y-16509436D01*
X6741491Y-16509436D02*
X6731967Y-16490388D01*
X6731967Y-16490388D02*
X6722443Y-16452293D01*
X6722443Y-16452293D02*
X6722443Y-16404674D01*
X6722443Y-16404674D02*
X6731967Y-16366579D01*
X6731967Y-16366579D02*
X6741491Y-16347531D01*
X6741491Y-16347531D02*
X6751015Y-16338008D01*
X6751015Y-16338008D02*
X6770062Y-16328484D01*
X6960539Y-16328484D02*
X6979586Y-16328484D01*
X6979586Y-16328484D02*
X6998634Y-16338008D01*
X6998634Y-16338008D02*
X7008158Y-16347531D01*
X7008158Y-16347531D02*
X7017682Y-16366579D01*
X7017682Y-16366579D02*
X7027205Y-16404674D01*
X7027205Y-16404674D02*
X7027205Y-16452293D01*
X7027205Y-16452293D02*
X7017682Y-16490388D01*
X7017682Y-16490388D02*
X7008158Y-16509436D01*
X7008158Y-16509436D02*
X6998634Y-16518960D01*
X6998634Y-16518960D02*
X6979586Y-16528484D01*
X6979586Y-16528484D02*
X6960539Y-16528484D01*
X6960539Y-16528484D02*
X6941491Y-16518960D01*
X6941491Y-16518960D02*
X6931967Y-16509436D01*
X6931967Y-16509436D02*
X6922443Y-16490388D01*
X6922443Y-16490388D02*
X6912920Y-16452293D01*
X6912920Y-16452293D02*
X6912920Y-16404674D01*
X6912920Y-16404674D02*
X6922443Y-16366579D01*
X6922443Y-16366579D02*
X6931967Y-16347531D01*
X6931967Y-16347531D02*
X6941491Y-16338008D01*
X6941491Y-16338008D02*
X6960539Y-16328484D01*
X7112920Y-16528484D02*
X7112920Y-16395150D01*
X7112920Y-16414198D02*
X7122443Y-16404674D01*
X7122443Y-16404674D02*
X7141491Y-16395150D01*
X7141491Y-16395150D02*
X7170063Y-16395150D01*
X7170063Y-16395150D02*
X7189110Y-16404674D01*
X7189110Y-16404674D02*
X7198634Y-16423722D01*
X7198634Y-16423722D02*
X7198634Y-16528484D01*
X7198634Y-16423722D02*
X7208158Y-16404674D01*
X7208158Y-16404674D02*
X7227205Y-16395150D01*
X7227205Y-16395150D02*
X7255777Y-16395150D01*
X7255777Y-16395150D02*
X7274824Y-16404674D01*
X7274824Y-16404674D02*
X7284348Y-16423722D01*
X7284348Y-16423722D02*
X7284348Y-16528484D01*
X7379586Y-16528484D02*
X7379586Y-16395150D01*
X7379586Y-16414198D02*
X7389110Y-16404674D01*
X7389110Y-16404674D02*
X7408158Y-16395150D01*
X7408158Y-16395150D02*
X7436729Y-16395150D01*
X7436729Y-16395150D02*
X7455777Y-16404674D01*
X7455777Y-16404674D02*
X7465301Y-16423722D01*
X7465301Y-16423722D02*
X7465301Y-16528484D01*
X7465301Y-16423722D02*
X7474824Y-16404674D01*
X7474824Y-16404674D02*
X7493872Y-16395150D01*
X7493872Y-16395150D02*
X7522443Y-16395150D01*
X7522443Y-16395150D02*
X7541491Y-16404674D01*
X7541491Y-16404674D02*
X7551015Y-16423722D01*
X7551015Y-16423722D02*
X7551015Y-16528484D01*
X7941491Y-16318960D02*
X7770063Y-16576103D01*
X8198634Y-16328484D02*
X8217682Y-16328484D01*
X8217682Y-16328484D02*
X8236729Y-16338008D01*
X8236729Y-16338008D02*
X8246253Y-16347531D01*
X8246253Y-16347531D02*
X8255777Y-16366579D01*
X8255777Y-16366579D02*
X8265301Y-16404674D01*
X8265301Y-16404674D02*
X8265301Y-16452293D01*
X8265301Y-16452293D02*
X8255777Y-16490388D01*
X8255777Y-16490388D02*
X8246253Y-16509436D01*
X8246253Y-16509436D02*
X8236729Y-16518960D01*
X8236729Y-16518960D02*
X8217682Y-16528484D01*
X8217682Y-16528484D02*
X8198634Y-16528484D01*
X8198634Y-16528484D02*
X8179586Y-16518960D01*
X8179586Y-16518960D02*
X8170063Y-16509436D01*
X8170063Y-16509436D02*
X8160539Y-16490388D01*
X8160539Y-16490388D02*
X8151015Y-16452293D01*
X8151015Y-16452293D02*
X8151015Y-16404674D01*
X8151015Y-16404674D02*
X8160539Y-16366579D01*
X8160539Y-16366579D02*
X8170063Y-16347531D01*
X8170063Y-16347531D02*
X8179586Y-16338008D01*
X8179586Y-16338008D02*
X8198634Y-16328484D01*
X8351015Y-16509436D02*
X8360539Y-16518960D01*
X8360539Y-16518960D02*
X8351015Y-16528484D01*
X8351015Y-16528484D02*
X8341491Y-16518960D01*
X8341491Y-16518960D02*
X8351015Y-16509436D01*
X8351015Y-16509436D02*
X8351015Y-16528484D01*
X8484348Y-16328484D02*
X8503396Y-16328484D01*
X8503396Y-16328484D02*
X8522444Y-16338008D01*
X8522444Y-16338008D02*
X8531968Y-16347531D01*
X8531968Y-16347531D02*
X8541491Y-16366579D01*
X8541491Y-16366579D02*
X8551015Y-16404674D01*
X8551015Y-16404674D02*
X8551015Y-16452293D01*
X8551015Y-16452293D02*
X8541491Y-16490388D01*
X8541491Y-16490388D02*
X8531968Y-16509436D01*
X8531968Y-16509436D02*
X8522444Y-16518960D01*
X8522444Y-16518960D02*
X8503396Y-16528484D01*
X8503396Y-16528484D02*
X8484348Y-16528484D01*
X8484348Y-16528484D02*
X8465301Y-16518960D01*
X8465301Y-16518960D02*
X8455777Y-16509436D01*
X8455777Y-16509436D02*
X8446253Y-16490388D01*
X8446253Y-16490388D02*
X8436729Y-16452293D01*
X8436729Y-16452293D02*
X8436729Y-16404674D01*
X8436729Y-16404674D02*
X8446253Y-16366579D01*
X8446253Y-16366579D02*
X8455777Y-16347531D01*
X8455777Y-16347531D02*
X8465301Y-16338008D01*
X8465301Y-16338008D02*
X8484348Y-16328484D01*
X8617682Y-16328484D02*
X8741491Y-16328484D01*
X8741491Y-16328484D02*
X8674825Y-16404674D01*
X8674825Y-16404674D02*
X8703396Y-16404674D01*
X8703396Y-16404674D02*
X8722444Y-16414198D01*
X8722444Y-16414198D02*
X8731968Y-16423722D01*
X8731968Y-16423722D02*
X8741491Y-16442769D01*
X8741491Y-16442769D02*
X8741491Y-16490388D01*
X8741491Y-16490388D02*
X8731968Y-16509436D01*
X8731968Y-16509436D02*
X8722444Y-16518960D01*
X8722444Y-16518960D02*
X8703396Y-16528484D01*
X8703396Y-16528484D02*
X8646253Y-16528484D01*
X8646253Y-16528484D02*
X8627206Y-16518960D01*
X8627206Y-16518960D02*
X8617682Y-16509436D01*
X8836729Y-16528484D02*
X8874825Y-16528484D01*
X8874825Y-16528484D02*
X8893872Y-16518960D01*
X8893872Y-16518960D02*
X8903396Y-16509436D01*
X8903396Y-16509436D02*
X8922444Y-16480865D01*
X8922444Y-16480865D02*
X8931968Y-16442769D01*
X8931968Y-16442769D02*
X8931968Y-16366579D01*
X8931968Y-16366579D02*
X8922444Y-16347531D01*
X8922444Y-16347531D02*
X8912920Y-16338008D01*
X8912920Y-16338008D02*
X8893872Y-16328484D01*
X8893872Y-16328484D02*
X8855777Y-16328484D01*
X8855777Y-16328484D02*
X8836729Y-16338008D01*
X8836729Y-16338008D02*
X8827206Y-16347531D01*
X8827206Y-16347531D02*
X8817682Y-16366579D01*
X8817682Y-16366579D02*
X8817682Y-16414198D01*
X8817682Y-16414198D02*
X8827206Y-16433246D01*
X8827206Y-16433246D02*
X8836729Y-16442769D01*
X8836729Y-16442769D02*
X8855777Y-16452293D01*
X8855777Y-16452293D02*
X8893872Y-16452293D01*
X8893872Y-16452293D02*
X8912920Y-16442769D01*
X8912920Y-16442769D02*
X8922444Y-16433246D01*
X8922444Y-16433246D02*
X8931968Y-16414198D01*
X9103396Y-16395150D02*
X9103396Y-16528484D01*
X9055777Y-16318960D02*
X9008158Y-16461817D01*
X9008158Y-16461817D02*
X9131968Y-16461817D01*
X9198634Y-16328484D02*
X9198634Y-16366579D01*
X9274825Y-16328484D02*
X9274825Y-16366579D01*
X9570063Y-16604674D02*
X9560539Y-16595150D01*
X9560539Y-16595150D02*
X9541491Y-16566579D01*
X9541491Y-16566579D02*
X9531968Y-16547531D01*
X9531968Y-16547531D02*
X9522444Y-16518960D01*
X9522444Y-16518960D02*
X9512920Y-16471341D01*
X9512920Y-16471341D02*
X9512920Y-16433246D01*
X9512920Y-16433246D02*
X9522444Y-16385627D01*
X9522444Y-16385627D02*
X9531968Y-16357055D01*
X9531968Y-16357055D02*
X9541491Y-16338008D01*
X9541491Y-16338008D02*
X9560539Y-16309436D01*
X9560539Y-16309436D02*
X9570063Y-16299912D01*
X9636730Y-16347531D02*
X9646253Y-16338008D01*
X9646253Y-16338008D02*
X9665301Y-16328484D01*
X9665301Y-16328484D02*
X9712920Y-16328484D01*
X9712920Y-16328484D02*
X9731968Y-16338008D01*
X9731968Y-16338008D02*
X9741491Y-16347531D01*
X9741491Y-16347531D02*
X9751015Y-16366579D01*
X9751015Y-16366579D02*
X9751015Y-16385627D01*
X9751015Y-16385627D02*
X9741491Y-16414198D01*
X9741491Y-16414198D02*
X9627206Y-16528484D01*
X9627206Y-16528484D02*
X9751015Y-16528484D01*
X9989111Y-16528484D02*
X9989111Y-16328484D01*
X10074825Y-16528484D02*
X10074825Y-16423722D01*
X10074825Y-16423722D02*
X10065301Y-16404674D01*
X10065301Y-16404674D02*
X10046253Y-16395150D01*
X10046253Y-16395150D02*
X10017682Y-16395150D01*
X10017682Y-16395150D02*
X9998634Y-16404674D01*
X9998634Y-16404674D02*
X9989111Y-16414198D01*
X10198634Y-16528484D02*
X10179587Y-16518960D01*
X10179587Y-16518960D02*
X10170063Y-16509436D01*
X10170063Y-16509436D02*
X10160539Y-16490388D01*
X10160539Y-16490388D02*
X10160539Y-16433246D01*
X10160539Y-16433246D02*
X10170063Y-16414198D01*
X10170063Y-16414198D02*
X10179587Y-16404674D01*
X10179587Y-16404674D02*
X10198634Y-16395150D01*
X10198634Y-16395150D02*
X10227206Y-16395150D01*
X10227206Y-16395150D02*
X10246253Y-16404674D01*
X10246253Y-16404674D02*
X10255777Y-16414198D01*
X10255777Y-16414198D02*
X10265301Y-16433246D01*
X10265301Y-16433246D02*
X10265301Y-16490388D01*
X10265301Y-16490388D02*
X10255777Y-16509436D01*
X10255777Y-16509436D02*
X10246253Y-16518960D01*
X10246253Y-16518960D02*
X10227206Y-16528484D01*
X10227206Y-16528484D02*
X10198634Y-16528484D01*
X10379587Y-16528484D02*
X10360539Y-16518960D01*
X10360539Y-16518960D02*
X10351015Y-16499912D01*
X10351015Y-16499912D02*
X10351015Y-16328484D01*
X10531968Y-16518960D02*
X10512920Y-16528484D01*
X10512920Y-16528484D02*
X10474825Y-16528484D01*
X10474825Y-16528484D02*
X10455777Y-16518960D01*
X10455777Y-16518960D02*
X10446253Y-16499912D01*
X10446253Y-16499912D02*
X10446253Y-16423722D01*
X10446253Y-16423722D02*
X10455777Y-16404674D01*
X10455777Y-16404674D02*
X10474825Y-16395150D01*
X10474825Y-16395150D02*
X10512920Y-16395150D01*
X10512920Y-16395150D02*
X10531968Y-16404674D01*
X10531968Y-16404674D02*
X10541492Y-16423722D01*
X10541492Y-16423722D02*
X10541492Y-16442769D01*
X10541492Y-16442769D02*
X10446253Y-16461817D01*
X10617682Y-16518960D02*
X10636730Y-16528484D01*
X10636730Y-16528484D02*
X10674825Y-16528484D01*
X10674825Y-16528484D02*
X10693873Y-16518960D01*
X10693873Y-16518960D02*
X10703396Y-16499912D01*
X10703396Y-16499912D02*
X10703396Y-16490388D01*
X10703396Y-16490388D02*
X10693873Y-16471341D01*
X10693873Y-16471341D02*
X10674825Y-16461817D01*
X10674825Y-16461817D02*
X10646253Y-16461817D01*
X10646253Y-16461817D02*
X10627206Y-16452293D01*
X10627206Y-16452293D02*
X10617682Y-16433246D01*
X10617682Y-16433246D02*
X10617682Y-16423722D01*
X10617682Y-16423722D02*
X10627206Y-16404674D01*
X10627206Y-16404674D02*
X10646253Y-16395150D01*
X10646253Y-16395150D02*
X10674825Y-16395150D01*
X10674825Y-16395150D02*
X10693873Y-16404674D01*
X10770063Y-16604674D02*
X10779587Y-16595150D01*
X10779587Y-16595150D02*
X10798634Y-16566579D01*
X10798634Y-16566579D02*
X10808158Y-16547531D01*
X10808158Y-16547531D02*
X10817682Y-16518960D01*
X10817682Y-16518960D02*
X10827206Y-16471341D01*
X10827206Y-16471341D02*
X10827206Y-16433246D01*
X10827206Y-16433246D02*
X10817682Y-16385627D01*
X10817682Y-16385627D02*
X10808158Y-16357055D01*
X10808158Y-16357055D02*
X10798634Y-16338008D01*
X10798634Y-16338008D02*
X10779587Y-16309436D01*
X10779587Y-16309436D02*
X10770063Y-16299912D01*
D15*
X5940000Y-16756000D02*
X5995000Y-16701000D01*
X5940000Y-16646000D01*
X5885000Y-16701000D01*
X5940000Y-16756000D01*
D11*
X6360539Y-16792484D02*
X6246253Y-16792484D01*
X6303396Y-16792484D02*
X6303396Y-16592484D01*
X6303396Y-16592484D02*
X6284348Y-16621055D01*
X6284348Y-16621055D02*
X6265301Y-16640103D01*
X6265301Y-16640103D02*
X6246253Y-16649627D01*
X6446253Y-16773436D02*
X6455777Y-16782960D01*
X6455777Y-16782960D02*
X6446253Y-16792484D01*
X6446253Y-16792484D02*
X6436729Y-16782960D01*
X6436729Y-16782960D02*
X6446253Y-16773436D01*
X6446253Y-16773436D02*
X6446253Y-16792484D01*
X6646253Y-16792484D02*
X6531967Y-16792484D01*
X6589110Y-16792484D02*
X6589110Y-16592484D01*
X6589110Y-16592484D02*
X6570062Y-16621055D01*
X6570062Y-16621055D02*
X6551015Y-16640103D01*
X6551015Y-16640103D02*
X6531967Y-16649627D01*
X6770062Y-16592484D02*
X6789110Y-16592484D01*
X6789110Y-16592484D02*
X6808158Y-16602008D01*
X6808158Y-16602008D02*
X6817682Y-16611531D01*
X6817682Y-16611531D02*
X6827205Y-16630579D01*
X6827205Y-16630579D02*
X6836729Y-16668674D01*
X6836729Y-16668674D02*
X6836729Y-16716293D01*
X6836729Y-16716293D02*
X6827205Y-16754388D01*
X6827205Y-16754388D02*
X6817682Y-16773436D01*
X6817682Y-16773436D02*
X6808158Y-16782960D01*
X6808158Y-16782960D02*
X6789110Y-16792484D01*
X6789110Y-16792484D02*
X6770062Y-16792484D01*
X6770062Y-16792484D02*
X6751015Y-16782960D01*
X6751015Y-16782960D02*
X6741491Y-16773436D01*
X6741491Y-16773436D02*
X6731967Y-16754388D01*
X6731967Y-16754388D02*
X6722443Y-16716293D01*
X6722443Y-16716293D02*
X6722443Y-16668674D01*
X6722443Y-16668674D02*
X6731967Y-16630579D01*
X6731967Y-16630579D02*
X6741491Y-16611531D01*
X6741491Y-16611531D02*
X6751015Y-16602008D01*
X6751015Y-16602008D02*
X6770062Y-16592484D01*
X6960539Y-16592484D02*
X6979586Y-16592484D01*
X6979586Y-16592484D02*
X6998634Y-16602008D01*
X6998634Y-16602008D02*
X7008158Y-16611531D01*
X7008158Y-16611531D02*
X7017682Y-16630579D01*
X7017682Y-16630579D02*
X7027205Y-16668674D01*
X7027205Y-16668674D02*
X7027205Y-16716293D01*
X7027205Y-16716293D02*
X7017682Y-16754388D01*
X7017682Y-16754388D02*
X7008158Y-16773436D01*
X7008158Y-16773436D02*
X6998634Y-16782960D01*
X6998634Y-16782960D02*
X6979586Y-16792484D01*
X6979586Y-16792484D02*
X6960539Y-16792484D01*
X6960539Y-16792484D02*
X6941491Y-16782960D01*
X6941491Y-16782960D02*
X6931967Y-16773436D01*
X6931967Y-16773436D02*
X6922443Y-16754388D01*
X6922443Y-16754388D02*
X6912920Y-16716293D01*
X6912920Y-16716293D02*
X6912920Y-16668674D01*
X6912920Y-16668674D02*
X6922443Y-16630579D01*
X6922443Y-16630579D02*
X6931967Y-16611531D01*
X6931967Y-16611531D02*
X6941491Y-16602008D01*
X6941491Y-16602008D02*
X6960539Y-16592484D01*
X7112920Y-16792484D02*
X7112920Y-16659150D01*
X7112920Y-16678198D02*
X7122443Y-16668674D01*
X7122443Y-16668674D02*
X7141491Y-16659150D01*
X7141491Y-16659150D02*
X7170063Y-16659150D01*
X7170063Y-16659150D02*
X7189110Y-16668674D01*
X7189110Y-16668674D02*
X7198634Y-16687722D01*
X7198634Y-16687722D02*
X7198634Y-16792484D01*
X7198634Y-16687722D02*
X7208158Y-16668674D01*
X7208158Y-16668674D02*
X7227205Y-16659150D01*
X7227205Y-16659150D02*
X7255777Y-16659150D01*
X7255777Y-16659150D02*
X7274824Y-16668674D01*
X7274824Y-16668674D02*
X7284348Y-16687722D01*
X7284348Y-16687722D02*
X7284348Y-16792484D01*
X7379586Y-16792484D02*
X7379586Y-16659150D01*
X7379586Y-16678198D02*
X7389110Y-16668674D01*
X7389110Y-16668674D02*
X7408158Y-16659150D01*
X7408158Y-16659150D02*
X7436729Y-16659150D01*
X7436729Y-16659150D02*
X7455777Y-16668674D01*
X7455777Y-16668674D02*
X7465301Y-16687722D01*
X7465301Y-16687722D02*
X7465301Y-16792484D01*
X7465301Y-16687722D02*
X7474824Y-16668674D01*
X7474824Y-16668674D02*
X7493872Y-16659150D01*
X7493872Y-16659150D02*
X7522443Y-16659150D01*
X7522443Y-16659150D02*
X7541491Y-16668674D01*
X7541491Y-16668674D02*
X7551015Y-16687722D01*
X7551015Y-16687722D02*
X7551015Y-16792484D01*
X7941491Y-16582960D02*
X7770063Y-16840103D01*
X8198634Y-16592484D02*
X8217682Y-16592484D01*
X8217682Y-16592484D02*
X8236729Y-16602008D01*
X8236729Y-16602008D02*
X8246253Y-16611531D01*
X8246253Y-16611531D02*
X8255777Y-16630579D01*
X8255777Y-16630579D02*
X8265301Y-16668674D01*
X8265301Y-16668674D02*
X8265301Y-16716293D01*
X8265301Y-16716293D02*
X8255777Y-16754388D01*
X8255777Y-16754388D02*
X8246253Y-16773436D01*
X8246253Y-16773436D02*
X8236729Y-16782960D01*
X8236729Y-16782960D02*
X8217682Y-16792484D01*
X8217682Y-16792484D02*
X8198634Y-16792484D01*
X8198634Y-16792484D02*
X8179586Y-16782960D01*
X8179586Y-16782960D02*
X8170063Y-16773436D01*
X8170063Y-16773436D02*
X8160539Y-16754388D01*
X8160539Y-16754388D02*
X8151015Y-16716293D01*
X8151015Y-16716293D02*
X8151015Y-16668674D01*
X8151015Y-16668674D02*
X8160539Y-16630579D01*
X8160539Y-16630579D02*
X8170063Y-16611531D01*
X8170063Y-16611531D02*
X8179586Y-16602008D01*
X8179586Y-16602008D02*
X8198634Y-16592484D01*
X8351015Y-16773436D02*
X8360539Y-16782960D01*
X8360539Y-16782960D02*
X8351015Y-16792484D01*
X8351015Y-16792484D02*
X8341491Y-16782960D01*
X8341491Y-16782960D02*
X8351015Y-16773436D01*
X8351015Y-16773436D02*
X8351015Y-16792484D01*
X8484348Y-16592484D02*
X8503396Y-16592484D01*
X8503396Y-16592484D02*
X8522444Y-16602008D01*
X8522444Y-16602008D02*
X8531968Y-16611531D01*
X8531968Y-16611531D02*
X8541491Y-16630579D01*
X8541491Y-16630579D02*
X8551015Y-16668674D01*
X8551015Y-16668674D02*
X8551015Y-16716293D01*
X8551015Y-16716293D02*
X8541491Y-16754388D01*
X8541491Y-16754388D02*
X8531968Y-16773436D01*
X8531968Y-16773436D02*
X8522444Y-16782960D01*
X8522444Y-16782960D02*
X8503396Y-16792484D01*
X8503396Y-16792484D02*
X8484348Y-16792484D01*
X8484348Y-16792484D02*
X8465301Y-16782960D01*
X8465301Y-16782960D02*
X8455777Y-16773436D01*
X8455777Y-16773436D02*
X8446253Y-16754388D01*
X8446253Y-16754388D02*
X8436729Y-16716293D01*
X8436729Y-16716293D02*
X8436729Y-16668674D01*
X8436729Y-16668674D02*
X8446253Y-16630579D01*
X8446253Y-16630579D02*
X8455777Y-16611531D01*
X8455777Y-16611531D02*
X8465301Y-16602008D01*
X8465301Y-16602008D02*
X8484348Y-16592484D01*
X8722444Y-16659150D02*
X8722444Y-16792484D01*
X8674825Y-16582960D02*
X8627206Y-16725817D01*
X8627206Y-16725817D02*
X8751015Y-16725817D01*
X8808158Y-16592484D02*
X8931968Y-16592484D01*
X8931968Y-16592484D02*
X8865301Y-16668674D01*
X8865301Y-16668674D02*
X8893872Y-16668674D01*
X8893872Y-16668674D02*
X8912920Y-16678198D01*
X8912920Y-16678198D02*
X8922444Y-16687722D01*
X8922444Y-16687722D02*
X8931968Y-16706769D01*
X8931968Y-16706769D02*
X8931968Y-16754388D01*
X8931968Y-16754388D02*
X8922444Y-16773436D01*
X8922444Y-16773436D02*
X8912920Y-16782960D01*
X8912920Y-16782960D02*
X8893872Y-16792484D01*
X8893872Y-16792484D02*
X8836729Y-16792484D01*
X8836729Y-16792484D02*
X8817682Y-16782960D01*
X8817682Y-16782960D02*
X8808158Y-16773436D01*
X8998634Y-16592484D02*
X9122444Y-16592484D01*
X9122444Y-16592484D02*
X9055777Y-16668674D01*
X9055777Y-16668674D02*
X9084349Y-16668674D01*
X9084349Y-16668674D02*
X9103396Y-16678198D01*
X9103396Y-16678198D02*
X9112920Y-16687722D01*
X9112920Y-16687722D02*
X9122444Y-16706769D01*
X9122444Y-16706769D02*
X9122444Y-16754388D01*
X9122444Y-16754388D02*
X9112920Y-16773436D01*
X9112920Y-16773436D02*
X9103396Y-16782960D01*
X9103396Y-16782960D02*
X9084349Y-16792484D01*
X9084349Y-16792484D02*
X9027206Y-16792484D01*
X9027206Y-16792484D02*
X9008158Y-16782960D01*
X9008158Y-16782960D02*
X8998634Y-16773436D01*
X9198634Y-16592484D02*
X9198634Y-16630579D01*
X9274825Y-16592484D02*
X9274825Y-16630579D01*
X9570063Y-16868674D02*
X9560539Y-16859150D01*
X9560539Y-16859150D02*
X9541491Y-16830579D01*
X9541491Y-16830579D02*
X9531968Y-16811531D01*
X9531968Y-16811531D02*
X9522444Y-16782960D01*
X9522444Y-16782960D02*
X9512920Y-16735341D01*
X9512920Y-16735341D02*
X9512920Y-16697246D01*
X9512920Y-16697246D02*
X9522444Y-16649627D01*
X9522444Y-16649627D02*
X9531968Y-16621055D01*
X9531968Y-16621055D02*
X9541491Y-16602008D01*
X9541491Y-16602008D02*
X9560539Y-16573436D01*
X9560539Y-16573436D02*
X9570063Y-16563912D01*
X9751015Y-16792484D02*
X9636730Y-16792484D01*
X9693872Y-16792484D02*
X9693872Y-16592484D01*
X9693872Y-16592484D02*
X9674825Y-16621055D01*
X9674825Y-16621055D02*
X9655777Y-16640103D01*
X9655777Y-16640103D02*
X9636730Y-16649627D01*
X9827206Y-16611531D02*
X9836730Y-16602008D01*
X9836730Y-16602008D02*
X9855777Y-16592484D01*
X9855777Y-16592484D02*
X9903396Y-16592484D01*
X9903396Y-16592484D02*
X9922444Y-16602008D01*
X9922444Y-16602008D02*
X9931968Y-16611531D01*
X9931968Y-16611531D02*
X9941491Y-16630579D01*
X9941491Y-16630579D02*
X9941491Y-16649627D01*
X9941491Y-16649627D02*
X9931968Y-16678198D01*
X9931968Y-16678198D02*
X9817682Y-16792484D01*
X9817682Y-16792484D02*
X9941491Y-16792484D01*
X10179587Y-16792484D02*
X10179587Y-16592484D01*
X10265301Y-16792484D02*
X10265301Y-16687722D01*
X10265301Y-16687722D02*
X10255777Y-16668674D01*
X10255777Y-16668674D02*
X10236730Y-16659150D01*
X10236730Y-16659150D02*
X10208158Y-16659150D01*
X10208158Y-16659150D02*
X10189111Y-16668674D01*
X10189111Y-16668674D02*
X10179587Y-16678198D01*
X10389111Y-16792484D02*
X10370063Y-16782960D01*
X10370063Y-16782960D02*
X10360539Y-16773436D01*
X10360539Y-16773436D02*
X10351015Y-16754388D01*
X10351015Y-16754388D02*
X10351015Y-16697246D01*
X10351015Y-16697246D02*
X10360539Y-16678198D01*
X10360539Y-16678198D02*
X10370063Y-16668674D01*
X10370063Y-16668674D02*
X10389111Y-16659150D01*
X10389111Y-16659150D02*
X10417682Y-16659150D01*
X10417682Y-16659150D02*
X10436730Y-16668674D01*
X10436730Y-16668674D02*
X10446253Y-16678198D01*
X10446253Y-16678198D02*
X10455777Y-16697246D01*
X10455777Y-16697246D02*
X10455777Y-16754388D01*
X10455777Y-16754388D02*
X10446253Y-16773436D01*
X10446253Y-16773436D02*
X10436730Y-16782960D01*
X10436730Y-16782960D02*
X10417682Y-16792484D01*
X10417682Y-16792484D02*
X10389111Y-16792484D01*
X10570063Y-16792484D02*
X10551015Y-16782960D01*
X10551015Y-16782960D02*
X10541492Y-16763912D01*
X10541492Y-16763912D02*
X10541492Y-16592484D01*
X10722444Y-16782960D02*
X10703396Y-16792484D01*
X10703396Y-16792484D02*
X10665301Y-16792484D01*
X10665301Y-16792484D02*
X10646253Y-16782960D01*
X10646253Y-16782960D02*
X10636730Y-16763912D01*
X10636730Y-16763912D02*
X10636730Y-16687722D01*
X10636730Y-16687722D02*
X10646253Y-16668674D01*
X10646253Y-16668674D02*
X10665301Y-16659150D01*
X10665301Y-16659150D02*
X10703396Y-16659150D01*
X10703396Y-16659150D02*
X10722444Y-16668674D01*
X10722444Y-16668674D02*
X10731968Y-16687722D01*
X10731968Y-16687722D02*
X10731968Y-16706769D01*
X10731968Y-16706769D02*
X10636730Y-16725817D01*
X10808158Y-16782960D02*
X10827206Y-16792484D01*
X10827206Y-16792484D02*
X10865301Y-16792484D01*
X10865301Y-16792484D02*
X10884349Y-16782960D01*
X10884349Y-16782960D02*
X10893873Y-16763912D01*
X10893873Y-16763912D02*
X10893873Y-16754388D01*
X10893873Y-16754388D02*
X10884349Y-16735341D01*
X10884349Y-16735341D02*
X10865301Y-16725817D01*
X10865301Y-16725817D02*
X10836730Y-16725817D01*
X10836730Y-16725817D02*
X10817682Y-16716293D01*
X10817682Y-16716293D02*
X10808158Y-16697246D01*
X10808158Y-16697246D02*
X10808158Y-16687722D01*
X10808158Y-16687722D02*
X10817682Y-16668674D01*
X10817682Y-16668674D02*
X10836730Y-16659150D01*
X10836730Y-16659150D02*
X10865301Y-16659150D01*
X10865301Y-16659150D02*
X10884349Y-16668674D01*
X10960539Y-16868674D02*
X10970063Y-16859150D01*
X10970063Y-16859150D02*
X10989111Y-16830579D01*
X10989111Y-16830579D02*
X10998634Y-16811531D01*
X10998634Y-16811531D02*
X11008158Y-16782960D01*
X11008158Y-16782960D02*
X11017682Y-16735341D01*
X11017682Y-16735341D02*
X11017682Y-16697246D01*
X11017682Y-16697246D02*
X11008158Y-16649627D01*
X11008158Y-16649627D02*
X10998634Y-16621055D01*
X10998634Y-16621055D02*
X10989111Y-16602008D01*
X10989111Y-16602008D02*
X10970063Y-16573436D01*
X10970063Y-16573436D02*
X10960539Y-16563912D01*
D16*
X5875000Y-16905000D02*
X5995000Y-17025000D01*
X5995000Y-16905000D02*
X5875000Y-17025000D01*
X5995000Y-16965000D02*
G75*
G03*
X5995000Y-16965000I-60000J0D01*
G01*
D11*
X6360539Y-17056484D02*
X6246253Y-17056484D01*
X6303396Y-17056484D02*
X6303396Y-16856484D01*
X6303396Y-16856484D02*
X6284348Y-16885055D01*
X6284348Y-16885055D02*
X6265301Y-16904103D01*
X6265301Y-16904103D02*
X6246253Y-16913627D01*
X6446253Y-17037436D02*
X6455777Y-17046960D01*
X6455777Y-17046960D02*
X6446253Y-17056484D01*
X6446253Y-17056484D02*
X6436729Y-17046960D01*
X6436729Y-17046960D02*
X6446253Y-17037436D01*
X6446253Y-17037436D02*
X6446253Y-17056484D01*
X6531967Y-16875531D02*
X6541491Y-16866008D01*
X6541491Y-16866008D02*
X6560539Y-16856484D01*
X6560539Y-16856484D02*
X6608158Y-16856484D01*
X6608158Y-16856484D02*
X6627205Y-16866008D01*
X6627205Y-16866008D02*
X6636729Y-16875531D01*
X6636729Y-16875531D02*
X6646253Y-16894579D01*
X6646253Y-16894579D02*
X6646253Y-16913627D01*
X6646253Y-16913627D02*
X6636729Y-16942198D01*
X6636729Y-16942198D02*
X6522443Y-17056484D01*
X6522443Y-17056484D02*
X6646253Y-17056484D01*
X6770062Y-16856484D02*
X6789110Y-16856484D01*
X6789110Y-16856484D02*
X6808158Y-16866008D01*
X6808158Y-16866008D02*
X6817682Y-16875531D01*
X6817682Y-16875531D02*
X6827205Y-16894579D01*
X6827205Y-16894579D02*
X6836729Y-16932674D01*
X6836729Y-16932674D02*
X6836729Y-16980293D01*
X6836729Y-16980293D02*
X6827205Y-17018389D01*
X6827205Y-17018389D02*
X6817682Y-17037436D01*
X6817682Y-17037436D02*
X6808158Y-17046960D01*
X6808158Y-17046960D02*
X6789110Y-17056484D01*
X6789110Y-17056484D02*
X6770062Y-17056484D01*
X6770062Y-17056484D02*
X6751015Y-17046960D01*
X6751015Y-17046960D02*
X6741491Y-17037436D01*
X6741491Y-17037436D02*
X6731967Y-17018389D01*
X6731967Y-17018389D02*
X6722443Y-16980293D01*
X6722443Y-16980293D02*
X6722443Y-16932674D01*
X6722443Y-16932674D02*
X6731967Y-16894579D01*
X6731967Y-16894579D02*
X6741491Y-16875531D01*
X6741491Y-16875531D02*
X6751015Y-16866008D01*
X6751015Y-16866008D02*
X6770062Y-16856484D01*
X6960539Y-16856484D02*
X6979586Y-16856484D01*
X6979586Y-16856484D02*
X6998634Y-16866008D01*
X6998634Y-16866008D02*
X7008158Y-16875531D01*
X7008158Y-16875531D02*
X7017682Y-16894579D01*
X7017682Y-16894579D02*
X7027205Y-16932674D01*
X7027205Y-16932674D02*
X7027205Y-16980293D01*
X7027205Y-16980293D02*
X7017682Y-17018389D01*
X7017682Y-17018389D02*
X7008158Y-17037436D01*
X7008158Y-17037436D02*
X6998634Y-17046960D01*
X6998634Y-17046960D02*
X6979586Y-17056484D01*
X6979586Y-17056484D02*
X6960539Y-17056484D01*
X6960539Y-17056484D02*
X6941491Y-17046960D01*
X6941491Y-17046960D02*
X6931967Y-17037436D01*
X6931967Y-17037436D02*
X6922443Y-17018389D01*
X6922443Y-17018389D02*
X6912920Y-16980293D01*
X6912920Y-16980293D02*
X6912920Y-16932674D01*
X6912920Y-16932674D02*
X6922443Y-16894579D01*
X6922443Y-16894579D02*
X6931967Y-16875531D01*
X6931967Y-16875531D02*
X6941491Y-16866008D01*
X6941491Y-16866008D02*
X6960539Y-16856484D01*
X7112920Y-17056484D02*
X7112920Y-16923150D01*
X7112920Y-16942198D02*
X7122443Y-16932674D01*
X7122443Y-16932674D02*
X7141491Y-16923150D01*
X7141491Y-16923150D02*
X7170063Y-16923150D01*
X7170063Y-16923150D02*
X7189110Y-16932674D01*
X7189110Y-16932674D02*
X7198634Y-16951722D01*
X7198634Y-16951722D02*
X7198634Y-17056484D01*
X7198634Y-16951722D02*
X7208158Y-16932674D01*
X7208158Y-16932674D02*
X7227205Y-16923150D01*
X7227205Y-16923150D02*
X7255777Y-16923150D01*
X7255777Y-16923150D02*
X7274824Y-16932674D01*
X7274824Y-16932674D02*
X7284348Y-16951722D01*
X7284348Y-16951722D02*
X7284348Y-17056484D01*
X7379586Y-17056484D02*
X7379586Y-16923150D01*
X7379586Y-16942198D02*
X7389110Y-16932674D01*
X7389110Y-16932674D02*
X7408158Y-16923150D01*
X7408158Y-16923150D02*
X7436729Y-16923150D01*
X7436729Y-16923150D02*
X7455777Y-16932674D01*
X7455777Y-16932674D02*
X7465301Y-16951722D01*
X7465301Y-16951722D02*
X7465301Y-17056484D01*
X7465301Y-16951722D02*
X7474824Y-16932674D01*
X7474824Y-16932674D02*
X7493872Y-16923150D01*
X7493872Y-16923150D02*
X7522443Y-16923150D01*
X7522443Y-16923150D02*
X7541491Y-16932674D01*
X7541491Y-16932674D02*
X7551015Y-16951722D01*
X7551015Y-16951722D02*
X7551015Y-17056484D01*
X7941491Y-16846960D02*
X7770063Y-17104103D01*
X8198634Y-16856484D02*
X8217682Y-16856484D01*
X8217682Y-16856484D02*
X8236729Y-16866008D01*
X8236729Y-16866008D02*
X8246253Y-16875531D01*
X8246253Y-16875531D02*
X8255777Y-16894579D01*
X8255777Y-16894579D02*
X8265301Y-16932674D01*
X8265301Y-16932674D02*
X8265301Y-16980293D01*
X8265301Y-16980293D02*
X8255777Y-17018389D01*
X8255777Y-17018389D02*
X8246253Y-17037436D01*
X8246253Y-17037436D02*
X8236729Y-17046960D01*
X8236729Y-17046960D02*
X8217682Y-17056484D01*
X8217682Y-17056484D02*
X8198634Y-17056484D01*
X8198634Y-17056484D02*
X8179586Y-17046960D01*
X8179586Y-17046960D02*
X8170063Y-17037436D01*
X8170063Y-17037436D02*
X8160539Y-17018389D01*
X8160539Y-17018389D02*
X8151015Y-16980293D01*
X8151015Y-16980293D02*
X8151015Y-16932674D01*
X8151015Y-16932674D02*
X8160539Y-16894579D01*
X8160539Y-16894579D02*
X8170063Y-16875531D01*
X8170063Y-16875531D02*
X8179586Y-16866008D01*
X8179586Y-16866008D02*
X8198634Y-16856484D01*
X8351015Y-17037436D02*
X8360539Y-17046960D01*
X8360539Y-17046960D02*
X8351015Y-17056484D01*
X8351015Y-17056484D02*
X8341491Y-17046960D01*
X8341491Y-17046960D02*
X8351015Y-17037436D01*
X8351015Y-17037436D02*
X8351015Y-17056484D01*
X8484348Y-16856484D02*
X8503396Y-16856484D01*
X8503396Y-16856484D02*
X8522444Y-16866008D01*
X8522444Y-16866008D02*
X8531968Y-16875531D01*
X8531968Y-16875531D02*
X8541491Y-16894579D01*
X8541491Y-16894579D02*
X8551015Y-16932674D01*
X8551015Y-16932674D02*
X8551015Y-16980293D01*
X8551015Y-16980293D02*
X8541491Y-17018389D01*
X8541491Y-17018389D02*
X8531968Y-17037436D01*
X8531968Y-17037436D02*
X8522444Y-17046960D01*
X8522444Y-17046960D02*
X8503396Y-17056484D01*
X8503396Y-17056484D02*
X8484348Y-17056484D01*
X8484348Y-17056484D02*
X8465301Y-17046960D01*
X8465301Y-17046960D02*
X8455777Y-17037436D01*
X8455777Y-17037436D02*
X8446253Y-17018389D01*
X8446253Y-17018389D02*
X8436729Y-16980293D01*
X8436729Y-16980293D02*
X8436729Y-16932674D01*
X8436729Y-16932674D02*
X8446253Y-16894579D01*
X8446253Y-16894579D02*
X8455777Y-16875531D01*
X8455777Y-16875531D02*
X8465301Y-16866008D01*
X8465301Y-16866008D02*
X8484348Y-16856484D01*
X8722444Y-16923150D02*
X8722444Y-17056484D01*
X8674825Y-16846960D02*
X8627206Y-16989817D01*
X8627206Y-16989817D02*
X8751015Y-16989817D01*
X8808158Y-16856484D02*
X8941491Y-16856484D01*
X8941491Y-16856484D02*
X8855777Y-17056484D01*
X9008158Y-16875531D02*
X9017682Y-16866008D01*
X9017682Y-16866008D02*
X9036729Y-16856484D01*
X9036729Y-16856484D02*
X9084349Y-16856484D01*
X9084349Y-16856484D02*
X9103396Y-16866008D01*
X9103396Y-16866008D02*
X9112920Y-16875531D01*
X9112920Y-16875531D02*
X9122444Y-16894579D01*
X9122444Y-16894579D02*
X9122444Y-16913627D01*
X9122444Y-16913627D02*
X9112920Y-16942198D01*
X9112920Y-16942198D02*
X8998634Y-17056484D01*
X8998634Y-17056484D02*
X9122444Y-17056484D01*
X9198634Y-16856484D02*
X9198634Y-16894579D01*
X9274825Y-16856484D02*
X9274825Y-16894579D01*
X9570063Y-17132674D02*
X9560539Y-17123150D01*
X9560539Y-17123150D02*
X9541491Y-17094579D01*
X9541491Y-17094579D02*
X9531968Y-17075531D01*
X9531968Y-17075531D02*
X9522444Y-17046960D01*
X9522444Y-17046960D02*
X9512920Y-16999341D01*
X9512920Y-16999341D02*
X9512920Y-16961246D01*
X9512920Y-16961246D02*
X9522444Y-16913627D01*
X9522444Y-16913627D02*
X9531968Y-16885055D01*
X9531968Y-16885055D02*
X9541491Y-16866008D01*
X9541491Y-16866008D02*
X9560539Y-16837436D01*
X9560539Y-16837436D02*
X9570063Y-16827912D01*
X9751015Y-17056484D02*
X9636730Y-17056484D01*
X9693872Y-17056484D02*
X9693872Y-16856484D01*
X9693872Y-16856484D02*
X9674825Y-16885055D01*
X9674825Y-16885055D02*
X9655777Y-16904103D01*
X9655777Y-16904103D02*
X9636730Y-16913627D01*
X9827206Y-16875531D02*
X9836730Y-16866008D01*
X9836730Y-16866008D02*
X9855777Y-16856484D01*
X9855777Y-16856484D02*
X9903396Y-16856484D01*
X9903396Y-16856484D02*
X9922444Y-16866008D01*
X9922444Y-16866008D02*
X9931968Y-16875531D01*
X9931968Y-16875531D02*
X9941491Y-16894579D01*
X9941491Y-16894579D02*
X9941491Y-16913627D01*
X9941491Y-16913627D02*
X9931968Y-16942198D01*
X9931968Y-16942198D02*
X9817682Y-17056484D01*
X9817682Y-17056484D02*
X9941491Y-17056484D01*
X10179587Y-17056484D02*
X10179587Y-16856484D01*
X10265301Y-17056484D02*
X10265301Y-16951722D01*
X10265301Y-16951722D02*
X10255777Y-16932674D01*
X10255777Y-16932674D02*
X10236730Y-16923150D01*
X10236730Y-16923150D02*
X10208158Y-16923150D01*
X10208158Y-16923150D02*
X10189111Y-16932674D01*
X10189111Y-16932674D02*
X10179587Y-16942198D01*
X10389111Y-17056484D02*
X10370063Y-17046960D01*
X10370063Y-17046960D02*
X10360539Y-17037436D01*
X10360539Y-17037436D02*
X10351015Y-17018389D01*
X10351015Y-17018389D02*
X10351015Y-16961246D01*
X10351015Y-16961246D02*
X10360539Y-16942198D01*
X10360539Y-16942198D02*
X10370063Y-16932674D01*
X10370063Y-16932674D02*
X10389111Y-16923150D01*
X10389111Y-16923150D02*
X10417682Y-16923150D01*
X10417682Y-16923150D02*
X10436730Y-16932674D01*
X10436730Y-16932674D02*
X10446253Y-16942198D01*
X10446253Y-16942198D02*
X10455777Y-16961246D01*
X10455777Y-16961246D02*
X10455777Y-17018389D01*
X10455777Y-17018389D02*
X10446253Y-17037436D01*
X10446253Y-17037436D02*
X10436730Y-17046960D01*
X10436730Y-17046960D02*
X10417682Y-17056484D01*
X10417682Y-17056484D02*
X10389111Y-17056484D01*
X10570063Y-17056484D02*
X10551015Y-17046960D01*
X10551015Y-17046960D02*
X10541492Y-17027912D01*
X10541492Y-17027912D02*
X10541492Y-16856484D01*
X10722444Y-17046960D02*
X10703396Y-17056484D01*
X10703396Y-17056484D02*
X10665301Y-17056484D01*
X10665301Y-17056484D02*
X10646253Y-17046960D01*
X10646253Y-17046960D02*
X10636730Y-17027912D01*
X10636730Y-17027912D02*
X10636730Y-16951722D01*
X10636730Y-16951722D02*
X10646253Y-16932674D01*
X10646253Y-16932674D02*
X10665301Y-16923150D01*
X10665301Y-16923150D02*
X10703396Y-16923150D01*
X10703396Y-16923150D02*
X10722444Y-16932674D01*
X10722444Y-16932674D02*
X10731968Y-16951722D01*
X10731968Y-16951722D02*
X10731968Y-16970770D01*
X10731968Y-16970770D02*
X10636730Y-16989817D01*
X10808158Y-17046960D02*
X10827206Y-17056484D01*
X10827206Y-17056484D02*
X10865301Y-17056484D01*
X10865301Y-17056484D02*
X10884349Y-17046960D01*
X10884349Y-17046960D02*
X10893873Y-17027912D01*
X10893873Y-17027912D02*
X10893873Y-17018389D01*
X10893873Y-17018389D02*
X10884349Y-16999341D01*
X10884349Y-16999341D02*
X10865301Y-16989817D01*
X10865301Y-16989817D02*
X10836730Y-16989817D01*
X10836730Y-16989817D02*
X10817682Y-16980293D01*
X10817682Y-16980293D02*
X10808158Y-16961246D01*
X10808158Y-16961246D02*
X10808158Y-16951722D01*
X10808158Y-16951722D02*
X10817682Y-16932674D01*
X10817682Y-16932674D02*
X10836730Y-16923150D01*
X10836730Y-16923150D02*
X10865301Y-16923150D01*
X10865301Y-16923150D02*
X10884349Y-16932674D01*
X10960539Y-17132674D02*
X10970063Y-17123150D01*
X10970063Y-17123150D02*
X10989111Y-17094579D01*
X10989111Y-17094579D02*
X10998634Y-17075531D01*
X10998634Y-17075531D02*
X11008158Y-17046960D01*
X11008158Y-17046960D02*
X11017682Y-16999341D01*
X11017682Y-16999341D02*
X11017682Y-16961246D01*
X11017682Y-16961246D02*
X11008158Y-16913627D01*
X11008158Y-16913627D02*
X10998634Y-16885055D01*
X10998634Y-16885055D02*
X10989111Y-16866008D01*
X10989111Y-16866008D02*
X10970063Y-16837436D01*
X10970063Y-16837436D02*
X10960539Y-16827912D01*
D17*
X5865000Y-17164000D02*
X5995000Y-17294000D01*
X5995000Y-17164000D02*
X5865000Y-17294000D01*
X5930000Y-17164000D02*
X5930000Y-17294000D01*
X5865000Y-17229000D02*
X5995000Y-17229000D01*
D11*
X6360539Y-17320484D02*
X6246253Y-17320484D01*
X6303396Y-17320484D02*
X6303396Y-17120484D01*
X6303396Y-17120484D02*
X6284348Y-17149055D01*
X6284348Y-17149055D02*
X6265301Y-17168103D01*
X6265301Y-17168103D02*
X6246253Y-17177627D01*
X6446253Y-17301436D02*
X6455777Y-17310960D01*
X6455777Y-17310960D02*
X6446253Y-17320484D01*
X6446253Y-17320484D02*
X6436729Y-17310960D01*
X6436729Y-17310960D02*
X6446253Y-17301436D01*
X6446253Y-17301436D02*
X6446253Y-17320484D01*
X6522443Y-17120484D02*
X6646253Y-17120484D01*
X6646253Y-17120484D02*
X6579586Y-17196674D01*
X6579586Y-17196674D02*
X6608158Y-17196674D01*
X6608158Y-17196674D02*
X6627205Y-17206198D01*
X6627205Y-17206198D02*
X6636729Y-17215722D01*
X6636729Y-17215722D02*
X6646253Y-17234770D01*
X6646253Y-17234770D02*
X6646253Y-17282389D01*
X6646253Y-17282389D02*
X6636729Y-17301436D01*
X6636729Y-17301436D02*
X6627205Y-17310960D01*
X6627205Y-17310960D02*
X6608158Y-17320484D01*
X6608158Y-17320484D02*
X6551015Y-17320484D01*
X6551015Y-17320484D02*
X6531967Y-17310960D01*
X6531967Y-17310960D02*
X6522443Y-17301436D01*
X6770062Y-17120484D02*
X6789110Y-17120484D01*
X6789110Y-17120484D02*
X6808158Y-17130008D01*
X6808158Y-17130008D02*
X6817682Y-17139531D01*
X6817682Y-17139531D02*
X6827205Y-17158579D01*
X6827205Y-17158579D02*
X6836729Y-17196674D01*
X6836729Y-17196674D02*
X6836729Y-17244293D01*
X6836729Y-17244293D02*
X6827205Y-17282389D01*
X6827205Y-17282389D02*
X6817682Y-17301436D01*
X6817682Y-17301436D02*
X6808158Y-17310960D01*
X6808158Y-17310960D02*
X6789110Y-17320484D01*
X6789110Y-17320484D02*
X6770062Y-17320484D01*
X6770062Y-17320484D02*
X6751015Y-17310960D01*
X6751015Y-17310960D02*
X6741491Y-17301436D01*
X6741491Y-17301436D02*
X6731967Y-17282389D01*
X6731967Y-17282389D02*
X6722443Y-17244293D01*
X6722443Y-17244293D02*
X6722443Y-17196674D01*
X6722443Y-17196674D02*
X6731967Y-17158579D01*
X6731967Y-17158579D02*
X6741491Y-17139531D01*
X6741491Y-17139531D02*
X6751015Y-17130008D01*
X6751015Y-17130008D02*
X6770062Y-17120484D01*
X6960539Y-17120484D02*
X6979586Y-17120484D01*
X6979586Y-17120484D02*
X6998634Y-17130008D01*
X6998634Y-17130008D02*
X7008158Y-17139531D01*
X7008158Y-17139531D02*
X7017682Y-17158579D01*
X7017682Y-17158579D02*
X7027205Y-17196674D01*
X7027205Y-17196674D02*
X7027205Y-17244293D01*
X7027205Y-17244293D02*
X7017682Y-17282389D01*
X7017682Y-17282389D02*
X7008158Y-17301436D01*
X7008158Y-17301436D02*
X6998634Y-17310960D01*
X6998634Y-17310960D02*
X6979586Y-17320484D01*
X6979586Y-17320484D02*
X6960539Y-17320484D01*
X6960539Y-17320484D02*
X6941491Y-17310960D01*
X6941491Y-17310960D02*
X6931967Y-17301436D01*
X6931967Y-17301436D02*
X6922443Y-17282389D01*
X6922443Y-17282389D02*
X6912920Y-17244293D01*
X6912920Y-17244293D02*
X6912920Y-17196674D01*
X6912920Y-17196674D02*
X6922443Y-17158579D01*
X6922443Y-17158579D02*
X6931967Y-17139531D01*
X6931967Y-17139531D02*
X6941491Y-17130008D01*
X6941491Y-17130008D02*
X6960539Y-17120484D01*
X7112920Y-17320484D02*
X7112920Y-17187150D01*
X7112920Y-17206198D02*
X7122443Y-17196674D01*
X7122443Y-17196674D02*
X7141491Y-17187150D01*
X7141491Y-17187150D02*
X7170063Y-17187150D01*
X7170063Y-17187150D02*
X7189110Y-17196674D01*
X7189110Y-17196674D02*
X7198634Y-17215722D01*
X7198634Y-17215722D02*
X7198634Y-17320484D01*
X7198634Y-17215722D02*
X7208158Y-17196674D01*
X7208158Y-17196674D02*
X7227205Y-17187150D01*
X7227205Y-17187150D02*
X7255777Y-17187150D01*
X7255777Y-17187150D02*
X7274824Y-17196674D01*
X7274824Y-17196674D02*
X7284348Y-17215722D01*
X7284348Y-17215722D02*
X7284348Y-17320484D01*
X7379586Y-17320484D02*
X7379586Y-17187150D01*
X7379586Y-17206198D02*
X7389110Y-17196674D01*
X7389110Y-17196674D02*
X7408158Y-17187150D01*
X7408158Y-17187150D02*
X7436729Y-17187150D01*
X7436729Y-17187150D02*
X7455777Y-17196674D01*
X7455777Y-17196674D02*
X7465301Y-17215722D01*
X7465301Y-17215722D02*
X7465301Y-17320484D01*
X7465301Y-17215722D02*
X7474824Y-17196674D01*
X7474824Y-17196674D02*
X7493872Y-17187150D01*
X7493872Y-17187150D02*
X7522443Y-17187150D01*
X7522443Y-17187150D02*
X7541491Y-17196674D01*
X7541491Y-17196674D02*
X7551015Y-17215722D01*
X7551015Y-17215722D02*
X7551015Y-17320484D01*
X7941491Y-17110960D02*
X7770063Y-17368103D01*
X8198634Y-17120484D02*
X8217682Y-17120484D01*
X8217682Y-17120484D02*
X8236729Y-17130008D01*
X8236729Y-17130008D02*
X8246253Y-17139531D01*
X8246253Y-17139531D02*
X8255777Y-17158579D01*
X8255777Y-17158579D02*
X8265301Y-17196674D01*
X8265301Y-17196674D02*
X8265301Y-17244293D01*
X8265301Y-17244293D02*
X8255777Y-17282389D01*
X8255777Y-17282389D02*
X8246253Y-17301436D01*
X8246253Y-17301436D02*
X8236729Y-17310960D01*
X8236729Y-17310960D02*
X8217682Y-17320484D01*
X8217682Y-17320484D02*
X8198634Y-17320484D01*
X8198634Y-17320484D02*
X8179586Y-17310960D01*
X8179586Y-17310960D02*
X8170063Y-17301436D01*
X8170063Y-17301436D02*
X8160539Y-17282389D01*
X8160539Y-17282389D02*
X8151015Y-17244293D01*
X8151015Y-17244293D02*
X8151015Y-17196674D01*
X8151015Y-17196674D02*
X8160539Y-17158579D01*
X8160539Y-17158579D02*
X8170063Y-17139531D01*
X8170063Y-17139531D02*
X8179586Y-17130008D01*
X8179586Y-17130008D02*
X8198634Y-17120484D01*
X8351015Y-17301436D02*
X8360539Y-17310960D01*
X8360539Y-17310960D02*
X8351015Y-17320484D01*
X8351015Y-17320484D02*
X8341491Y-17310960D01*
X8341491Y-17310960D02*
X8351015Y-17301436D01*
X8351015Y-17301436D02*
X8351015Y-17320484D01*
X8484348Y-17120484D02*
X8503396Y-17120484D01*
X8503396Y-17120484D02*
X8522444Y-17130008D01*
X8522444Y-17130008D02*
X8531968Y-17139531D01*
X8531968Y-17139531D02*
X8541491Y-17158579D01*
X8541491Y-17158579D02*
X8551015Y-17196674D01*
X8551015Y-17196674D02*
X8551015Y-17244293D01*
X8551015Y-17244293D02*
X8541491Y-17282389D01*
X8541491Y-17282389D02*
X8531968Y-17301436D01*
X8531968Y-17301436D02*
X8522444Y-17310960D01*
X8522444Y-17310960D02*
X8503396Y-17320484D01*
X8503396Y-17320484D02*
X8484348Y-17320484D01*
X8484348Y-17320484D02*
X8465301Y-17310960D01*
X8465301Y-17310960D02*
X8455777Y-17301436D01*
X8455777Y-17301436D02*
X8446253Y-17282389D01*
X8446253Y-17282389D02*
X8436729Y-17244293D01*
X8436729Y-17244293D02*
X8436729Y-17196674D01*
X8436729Y-17196674D02*
X8446253Y-17158579D01*
X8446253Y-17158579D02*
X8455777Y-17139531D01*
X8455777Y-17139531D02*
X8465301Y-17130008D01*
X8465301Y-17130008D02*
X8484348Y-17120484D01*
X8731968Y-17120484D02*
X8636729Y-17120484D01*
X8636729Y-17120484D02*
X8627206Y-17215722D01*
X8627206Y-17215722D02*
X8636729Y-17206198D01*
X8636729Y-17206198D02*
X8655777Y-17196674D01*
X8655777Y-17196674D02*
X8703396Y-17196674D01*
X8703396Y-17196674D02*
X8722444Y-17206198D01*
X8722444Y-17206198D02*
X8731968Y-17215722D01*
X8731968Y-17215722D02*
X8741491Y-17234770D01*
X8741491Y-17234770D02*
X8741491Y-17282389D01*
X8741491Y-17282389D02*
X8731968Y-17301436D01*
X8731968Y-17301436D02*
X8722444Y-17310960D01*
X8722444Y-17310960D02*
X8703396Y-17320484D01*
X8703396Y-17320484D02*
X8655777Y-17320484D01*
X8655777Y-17320484D02*
X8636729Y-17310960D01*
X8636729Y-17310960D02*
X8627206Y-17301436D01*
X8931968Y-17320484D02*
X8817682Y-17320484D01*
X8874825Y-17320484D02*
X8874825Y-17120484D01*
X8874825Y-17120484D02*
X8855777Y-17149055D01*
X8855777Y-17149055D02*
X8836729Y-17168103D01*
X8836729Y-17168103D02*
X8817682Y-17177627D01*
X9008158Y-17139531D02*
X9017682Y-17130008D01*
X9017682Y-17130008D02*
X9036729Y-17120484D01*
X9036729Y-17120484D02*
X9084349Y-17120484D01*
X9084349Y-17120484D02*
X9103396Y-17130008D01*
X9103396Y-17130008D02*
X9112920Y-17139531D01*
X9112920Y-17139531D02*
X9122444Y-17158579D01*
X9122444Y-17158579D02*
X9122444Y-17177627D01*
X9122444Y-17177627D02*
X9112920Y-17206198D01*
X9112920Y-17206198D02*
X8998634Y-17320484D01*
X8998634Y-17320484D02*
X9122444Y-17320484D01*
X9198634Y-17120484D02*
X9198634Y-17158579D01*
X9274825Y-17120484D02*
X9274825Y-17158579D01*
X9570063Y-17396674D02*
X9560539Y-17387150D01*
X9560539Y-17387150D02*
X9541491Y-17358579D01*
X9541491Y-17358579D02*
X9531968Y-17339531D01*
X9531968Y-17339531D02*
X9522444Y-17310960D01*
X9522444Y-17310960D02*
X9512920Y-17263341D01*
X9512920Y-17263341D02*
X9512920Y-17225246D01*
X9512920Y-17225246D02*
X9522444Y-17177627D01*
X9522444Y-17177627D02*
X9531968Y-17149055D01*
X9531968Y-17149055D02*
X9541491Y-17130008D01*
X9541491Y-17130008D02*
X9560539Y-17101436D01*
X9560539Y-17101436D02*
X9570063Y-17091912D01*
X9627206Y-17120484D02*
X9751015Y-17120484D01*
X9751015Y-17120484D02*
X9684349Y-17196674D01*
X9684349Y-17196674D02*
X9712920Y-17196674D01*
X9712920Y-17196674D02*
X9731968Y-17206198D01*
X9731968Y-17206198D02*
X9741491Y-17215722D01*
X9741491Y-17215722D02*
X9751015Y-17234770D01*
X9751015Y-17234770D02*
X9751015Y-17282389D01*
X9751015Y-17282389D02*
X9741491Y-17301436D01*
X9741491Y-17301436D02*
X9731968Y-17310960D01*
X9731968Y-17310960D02*
X9712920Y-17320484D01*
X9712920Y-17320484D02*
X9655777Y-17320484D01*
X9655777Y-17320484D02*
X9636730Y-17310960D01*
X9636730Y-17310960D02*
X9627206Y-17301436D01*
X9989111Y-17320484D02*
X9989111Y-17120484D01*
X10074825Y-17320484D02*
X10074825Y-17215722D01*
X10074825Y-17215722D02*
X10065301Y-17196674D01*
X10065301Y-17196674D02*
X10046253Y-17187150D01*
X10046253Y-17187150D02*
X10017682Y-17187150D01*
X10017682Y-17187150D02*
X9998634Y-17196674D01*
X9998634Y-17196674D02*
X9989111Y-17206198D01*
X10198634Y-17320484D02*
X10179587Y-17310960D01*
X10179587Y-17310960D02*
X10170063Y-17301436D01*
X10170063Y-17301436D02*
X10160539Y-17282389D01*
X10160539Y-17282389D02*
X10160539Y-17225246D01*
X10160539Y-17225246D02*
X10170063Y-17206198D01*
X10170063Y-17206198D02*
X10179587Y-17196674D01*
X10179587Y-17196674D02*
X10198634Y-17187150D01*
X10198634Y-17187150D02*
X10227206Y-17187150D01*
X10227206Y-17187150D02*
X10246253Y-17196674D01*
X10246253Y-17196674D02*
X10255777Y-17206198D01*
X10255777Y-17206198D02*
X10265301Y-17225246D01*
X10265301Y-17225246D02*
X10265301Y-17282389D01*
X10265301Y-17282389D02*
X10255777Y-17301436D01*
X10255777Y-17301436D02*
X10246253Y-17310960D01*
X10246253Y-17310960D02*
X10227206Y-17320484D01*
X10227206Y-17320484D02*
X10198634Y-17320484D01*
X10379587Y-17320484D02*
X10360539Y-17310960D01*
X10360539Y-17310960D02*
X10351015Y-17291912D01*
X10351015Y-17291912D02*
X10351015Y-17120484D01*
X10531968Y-17310960D02*
X10512920Y-17320484D01*
X10512920Y-17320484D02*
X10474825Y-17320484D01*
X10474825Y-17320484D02*
X10455777Y-17310960D01*
X10455777Y-17310960D02*
X10446253Y-17291912D01*
X10446253Y-17291912D02*
X10446253Y-17215722D01*
X10446253Y-17215722D02*
X10455777Y-17196674D01*
X10455777Y-17196674D02*
X10474825Y-17187150D01*
X10474825Y-17187150D02*
X10512920Y-17187150D01*
X10512920Y-17187150D02*
X10531968Y-17196674D01*
X10531968Y-17196674D02*
X10541492Y-17215722D01*
X10541492Y-17215722D02*
X10541492Y-17234770D01*
X10541492Y-17234770D02*
X10446253Y-17253817D01*
X10617682Y-17310960D02*
X10636730Y-17320484D01*
X10636730Y-17320484D02*
X10674825Y-17320484D01*
X10674825Y-17320484D02*
X10693873Y-17310960D01*
X10693873Y-17310960D02*
X10703396Y-17291912D01*
X10703396Y-17291912D02*
X10703396Y-17282389D01*
X10703396Y-17282389D02*
X10693873Y-17263341D01*
X10693873Y-17263341D02*
X10674825Y-17253817D01*
X10674825Y-17253817D02*
X10646253Y-17253817D01*
X10646253Y-17253817D02*
X10627206Y-17244293D01*
X10627206Y-17244293D02*
X10617682Y-17225246D01*
X10617682Y-17225246D02*
X10617682Y-17215722D01*
X10617682Y-17215722D02*
X10627206Y-17196674D01*
X10627206Y-17196674D02*
X10646253Y-17187150D01*
X10646253Y-17187150D02*
X10674825Y-17187150D01*
X10674825Y-17187150D02*
X10693873Y-17196674D01*
X10770063Y-17396674D02*
X10779587Y-17387150D01*
X10779587Y-17387150D02*
X10798634Y-17358579D01*
X10798634Y-17358579D02*
X10808158Y-17339531D01*
X10808158Y-17339531D02*
X10817682Y-17310960D01*
X10817682Y-17310960D02*
X10827206Y-17263341D01*
X10827206Y-17263341D02*
X10827206Y-17225246D01*
X10827206Y-17225246D02*
X10817682Y-17177627D01*
X10817682Y-17177627D02*
X10808158Y-17149055D01*
X10808158Y-17149055D02*
X10798634Y-17130008D01*
X10798634Y-17130008D02*
X10779587Y-17101436D01*
X10779587Y-17101436D02*
X10770063Y-17091912D01*
D18*
X5855000Y-17423000D02*
X5995000Y-17563000D01*
X5995000Y-17423000D02*
X5855000Y-17563000D01*
X5974498Y-17542498D02*
X5974498Y-17443502D01*
X5875502Y-17443502D01*
X5875502Y-17542498D01*
X5974498Y-17542498D01*
D11*
X6360539Y-17584484D02*
X6246253Y-17584484D01*
X6303396Y-17584484D02*
X6303396Y-17384484D01*
X6303396Y-17384484D02*
X6284348Y-17413055D01*
X6284348Y-17413055D02*
X6265301Y-17432103D01*
X6265301Y-17432103D02*
X6246253Y-17441627D01*
X6446253Y-17565436D02*
X6455777Y-17574960D01*
X6455777Y-17574960D02*
X6446253Y-17584484D01*
X6446253Y-17584484D02*
X6436729Y-17574960D01*
X6436729Y-17574960D02*
X6446253Y-17565436D01*
X6446253Y-17565436D02*
X6446253Y-17584484D01*
X6627205Y-17451150D02*
X6627205Y-17584484D01*
X6579586Y-17374960D02*
X6531967Y-17517817D01*
X6531967Y-17517817D02*
X6655777Y-17517817D01*
X6770062Y-17384484D02*
X6789110Y-17384484D01*
X6789110Y-17384484D02*
X6808158Y-17394008D01*
X6808158Y-17394008D02*
X6817682Y-17403531D01*
X6817682Y-17403531D02*
X6827205Y-17422579D01*
X6827205Y-17422579D02*
X6836729Y-17460674D01*
X6836729Y-17460674D02*
X6836729Y-17508293D01*
X6836729Y-17508293D02*
X6827205Y-17546389D01*
X6827205Y-17546389D02*
X6817682Y-17565436D01*
X6817682Y-17565436D02*
X6808158Y-17574960D01*
X6808158Y-17574960D02*
X6789110Y-17584484D01*
X6789110Y-17584484D02*
X6770062Y-17584484D01*
X6770062Y-17584484D02*
X6751015Y-17574960D01*
X6751015Y-17574960D02*
X6741491Y-17565436D01*
X6741491Y-17565436D02*
X6731967Y-17546389D01*
X6731967Y-17546389D02*
X6722443Y-17508293D01*
X6722443Y-17508293D02*
X6722443Y-17460674D01*
X6722443Y-17460674D02*
X6731967Y-17422579D01*
X6731967Y-17422579D02*
X6741491Y-17403531D01*
X6741491Y-17403531D02*
X6751015Y-17394008D01*
X6751015Y-17394008D02*
X6770062Y-17384484D01*
X6960539Y-17384484D02*
X6979586Y-17384484D01*
X6979586Y-17384484D02*
X6998634Y-17394008D01*
X6998634Y-17394008D02*
X7008158Y-17403531D01*
X7008158Y-17403531D02*
X7017682Y-17422579D01*
X7017682Y-17422579D02*
X7027205Y-17460674D01*
X7027205Y-17460674D02*
X7027205Y-17508293D01*
X7027205Y-17508293D02*
X7017682Y-17546389D01*
X7017682Y-17546389D02*
X7008158Y-17565436D01*
X7008158Y-17565436D02*
X6998634Y-17574960D01*
X6998634Y-17574960D02*
X6979586Y-17584484D01*
X6979586Y-17584484D02*
X6960539Y-17584484D01*
X6960539Y-17584484D02*
X6941491Y-17574960D01*
X6941491Y-17574960D02*
X6931967Y-17565436D01*
X6931967Y-17565436D02*
X6922443Y-17546389D01*
X6922443Y-17546389D02*
X6912920Y-17508293D01*
X6912920Y-17508293D02*
X6912920Y-17460674D01*
X6912920Y-17460674D02*
X6922443Y-17422579D01*
X6922443Y-17422579D02*
X6931967Y-17403531D01*
X6931967Y-17403531D02*
X6941491Y-17394008D01*
X6941491Y-17394008D02*
X6960539Y-17384484D01*
X7112920Y-17584484D02*
X7112920Y-17451150D01*
X7112920Y-17470198D02*
X7122443Y-17460674D01*
X7122443Y-17460674D02*
X7141491Y-17451150D01*
X7141491Y-17451150D02*
X7170063Y-17451150D01*
X7170063Y-17451150D02*
X7189110Y-17460674D01*
X7189110Y-17460674D02*
X7198634Y-17479722D01*
X7198634Y-17479722D02*
X7198634Y-17584484D01*
X7198634Y-17479722D02*
X7208158Y-17460674D01*
X7208158Y-17460674D02*
X7227205Y-17451150D01*
X7227205Y-17451150D02*
X7255777Y-17451150D01*
X7255777Y-17451150D02*
X7274824Y-17460674D01*
X7274824Y-17460674D02*
X7284348Y-17479722D01*
X7284348Y-17479722D02*
X7284348Y-17584484D01*
X7379586Y-17584484D02*
X7379586Y-17451150D01*
X7379586Y-17470198D02*
X7389110Y-17460674D01*
X7389110Y-17460674D02*
X7408158Y-17451150D01*
X7408158Y-17451150D02*
X7436729Y-17451150D01*
X7436729Y-17451150D02*
X7455777Y-17460674D01*
X7455777Y-17460674D02*
X7465301Y-17479722D01*
X7465301Y-17479722D02*
X7465301Y-17584484D01*
X7465301Y-17479722D02*
X7474824Y-17460674D01*
X7474824Y-17460674D02*
X7493872Y-17451150D01*
X7493872Y-17451150D02*
X7522443Y-17451150D01*
X7522443Y-17451150D02*
X7541491Y-17460674D01*
X7541491Y-17460674D02*
X7551015Y-17479722D01*
X7551015Y-17479722D02*
X7551015Y-17584484D01*
X7941491Y-17374960D02*
X7770063Y-17632103D01*
X8198634Y-17384484D02*
X8217682Y-17384484D01*
X8217682Y-17384484D02*
X8236729Y-17394008D01*
X8236729Y-17394008D02*
X8246253Y-17403531D01*
X8246253Y-17403531D02*
X8255777Y-17422579D01*
X8255777Y-17422579D02*
X8265301Y-17460674D01*
X8265301Y-17460674D02*
X8265301Y-17508293D01*
X8265301Y-17508293D02*
X8255777Y-17546389D01*
X8255777Y-17546389D02*
X8246253Y-17565436D01*
X8246253Y-17565436D02*
X8236729Y-17574960D01*
X8236729Y-17574960D02*
X8217682Y-17584484D01*
X8217682Y-17584484D02*
X8198634Y-17584484D01*
X8198634Y-17584484D02*
X8179586Y-17574960D01*
X8179586Y-17574960D02*
X8170063Y-17565436D01*
X8170063Y-17565436D02*
X8160539Y-17546389D01*
X8160539Y-17546389D02*
X8151015Y-17508293D01*
X8151015Y-17508293D02*
X8151015Y-17460674D01*
X8151015Y-17460674D02*
X8160539Y-17422579D01*
X8160539Y-17422579D02*
X8170063Y-17403531D01*
X8170063Y-17403531D02*
X8179586Y-17394008D01*
X8179586Y-17394008D02*
X8198634Y-17384484D01*
X8351015Y-17565436D02*
X8360539Y-17574960D01*
X8360539Y-17574960D02*
X8351015Y-17584484D01*
X8351015Y-17584484D02*
X8341491Y-17574960D01*
X8341491Y-17574960D02*
X8351015Y-17565436D01*
X8351015Y-17565436D02*
X8351015Y-17584484D01*
X8484348Y-17384484D02*
X8503396Y-17384484D01*
X8503396Y-17384484D02*
X8522444Y-17394008D01*
X8522444Y-17394008D02*
X8531968Y-17403531D01*
X8531968Y-17403531D02*
X8541491Y-17422579D01*
X8541491Y-17422579D02*
X8551015Y-17460674D01*
X8551015Y-17460674D02*
X8551015Y-17508293D01*
X8551015Y-17508293D02*
X8541491Y-17546389D01*
X8541491Y-17546389D02*
X8531968Y-17565436D01*
X8531968Y-17565436D02*
X8522444Y-17574960D01*
X8522444Y-17574960D02*
X8503396Y-17584484D01*
X8503396Y-17584484D02*
X8484348Y-17584484D01*
X8484348Y-17584484D02*
X8465301Y-17574960D01*
X8465301Y-17574960D02*
X8455777Y-17565436D01*
X8455777Y-17565436D02*
X8446253Y-17546389D01*
X8446253Y-17546389D02*
X8436729Y-17508293D01*
X8436729Y-17508293D02*
X8436729Y-17460674D01*
X8436729Y-17460674D02*
X8446253Y-17422579D01*
X8446253Y-17422579D02*
X8455777Y-17403531D01*
X8455777Y-17403531D02*
X8465301Y-17394008D01*
X8465301Y-17394008D02*
X8484348Y-17384484D01*
X8731968Y-17384484D02*
X8636729Y-17384484D01*
X8636729Y-17384484D02*
X8627206Y-17479722D01*
X8627206Y-17479722D02*
X8636729Y-17470198D01*
X8636729Y-17470198D02*
X8655777Y-17460674D01*
X8655777Y-17460674D02*
X8703396Y-17460674D01*
X8703396Y-17460674D02*
X8722444Y-17470198D01*
X8722444Y-17470198D02*
X8731968Y-17479722D01*
X8731968Y-17479722D02*
X8741491Y-17498770D01*
X8741491Y-17498770D02*
X8741491Y-17546389D01*
X8741491Y-17546389D02*
X8731968Y-17565436D01*
X8731968Y-17565436D02*
X8722444Y-17574960D01*
X8722444Y-17574960D02*
X8703396Y-17584484D01*
X8703396Y-17584484D02*
X8655777Y-17584484D01*
X8655777Y-17584484D02*
X8636729Y-17574960D01*
X8636729Y-17574960D02*
X8627206Y-17565436D01*
X8922444Y-17384484D02*
X8827206Y-17384484D01*
X8827206Y-17384484D02*
X8817682Y-17479722D01*
X8817682Y-17479722D02*
X8827206Y-17470198D01*
X8827206Y-17470198D02*
X8846253Y-17460674D01*
X8846253Y-17460674D02*
X8893872Y-17460674D01*
X8893872Y-17460674D02*
X8912920Y-17470198D01*
X8912920Y-17470198D02*
X8922444Y-17479722D01*
X8922444Y-17479722D02*
X8931968Y-17498770D01*
X8931968Y-17498770D02*
X8931968Y-17546389D01*
X8931968Y-17546389D02*
X8922444Y-17565436D01*
X8922444Y-17565436D02*
X8912920Y-17574960D01*
X8912920Y-17574960D02*
X8893872Y-17584484D01*
X8893872Y-17584484D02*
X8846253Y-17584484D01*
X8846253Y-17584484D02*
X8827206Y-17574960D01*
X8827206Y-17574960D02*
X8817682Y-17565436D01*
X9122444Y-17584484D02*
X9008158Y-17584484D01*
X9065301Y-17584484D02*
X9065301Y-17384484D01*
X9065301Y-17384484D02*
X9046253Y-17413055D01*
X9046253Y-17413055D02*
X9027206Y-17432103D01*
X9027206Y-17432103D02*
X9008158Y-17441627D01*
X9198634Y-17384484D02*
X9198634Y-17422579D01*
X9274825Y-17384484D02*
X9274825Y-17422579D01*
X9570063Y-17660674D02*
X9560539Y-17651150D01*
X9560539Y-17651150D02*
X9541491Y-17622579D01*
X9541491Y-17622579D02*
X9531968Y-17603531D01*
X9531968Y-17603531D02*
X9522444Y-17574960D01*
X9522444Y-17574960D02*
X9512920Y-17527341D01*
X9512920Y-17527341D02*
X9512920Y-17489246D01*
X9512920Y-17489246D02*
X9522444Y-17441627D01*
X9522444Y-17441627D02*
X9531968Y-17413055D01*
X9531968Y-17413055D02*
X9541491Y-17394008D01*
X9541491Y-17394008D02*
X9560539Y-17365436D01*
X9560539Y-17365436D02*
X9570063Y-17355912D01*
X9731968Y-17384484D02*
X9693872Y-17384484D01*
X9693872Y-17384484D02*
X9674825Y-17394008D01*
X9674825Y-17394008D02*
X9665301Y-17403531D01*
X9665301Y-17403531D02*
X9646253Y-17432103D01*
X9646253Y-17432103D02*
X9636730Y-17470198D01*
X9636730Y-17470198D02*
X9636730Y-17546389D01*
X9636730Y-17546389D02*
X9646253Y-17565436D01*
X9646253Y-17565436D02*
X9655777Y-17574960D01*
X9655777Y-17574960D02*
X9674825Y-17584484D01*
X9674825Y-17584484D02*
X9712920Y-17584484D01*
X9712920Y-17584484D02*
X9731968Y-17574960D01*
X9731968Y-17574960D02*
X9741491Y-17565436D01*
X9741491Y-17565436D02*
X9751015Y-17546389D01*
X9751015Y-17546389D02*
X9751015Y-17498770D01*
X9751015Y-17498770D02*
X9741491Y-17479722D01*
X9741491Y-17479722D02*
X9731968Y-17470198D01*
X9731968Y-17470198D02*
X9712920Y-17460674D01*
X9712920Y-17460674D02*
X9674825Y-17460674D01*
X9674825Y-17460674D02*
X9655777Y-17470198D01*
X9655777Y-17470198D02*
X9646253Y-17479722D01*
X9646253Y-17479722D02*
X9636730Y-17498770D01*
X9989111Y-17584484D02*
X9989111Y-17384484D01*
X10074825Y-17584484D02*
X10074825Y-17479722D01*
X10074825Y-17479722D02*
X10065301Y-17460674D01*
X10065301Y-17460674D02*
X10046253Y-17451150D01*
X10046253Y-17451150D02*
X10017682Y-17451150D01*
X10017682Y-17451150D02*
X9998634Y-17460674D01*
X9998634Y-17460674D02*
X9989111Y-17470198D01*
X10198634Y-17584484D02*
X10179587Y-17574960D01*
X10179587Y-17574960D02*
X10170063Y-17565436D01*
X10170063Y-17565436D02*
X10160539Y-17546389D01*
X10160539Y-17546389D02*
X10160539Y-17489246D01*
X10160539Y-17489246D02*
X10170063Y-17470198D01*
X10170063Y-17470198D02*
X10179587Y-17460674D01*
X10179587Y-17460674D02*
X10198634Y-17451150D01*
X10198634Y-17451150D02*
X10227206Y-17451150D01*
X10227206Y-17451150D02*
X10246253Y-17460674D01*
X10246253Y-17460674D02*
X10255777Y-17470198D01*
X10255777Y-17470198D02*
X10265301Y-17489246D01*
X10265301Y-17489246D02*
X10265301Y-17546389D01*
X10265301Y-17546389D02*
X10255777Y-17565436D01*
X10255777Y-17565436D02*
X10246253Y-17574960D01*
X10246253Y-17574960D02*
X10227206Y-17584484D01*
X10227206Y-17584484D02*
X10198634Y-17584484D01*
X10379587Y-17584484D02*
X10360539Y-17574960D01*
X10360539Y-17574960D02*
X10351015Y-17555912D01*
X10351015Y-17555912D02*
X10351015Y-17384484D01*
X10531968Y-17574960D02*
X10512920Y-17584484D01*
X10512920Y-17584484D02*
X10474825Y-17584484D01*
X10474825Y-17584484D02*
X10455777Y-17574960D01*
X10455777Y-17574960D02*
X10446253Y-17555912D01*
X10446253Y-17555912D02*
X10446253Y-17479722D01*
X10446253Y-17479722D02*
X10455777Y-17460674D01*
X10455777Y-17460674D02*
X10474825Y-17451150D01*
X10474825Y-17451150D02*
X10512920Y-17451150D01*
X10512920Y-17451150D02*
X10531968Y-17460674D01*
X10531968Y-17460674D02*
X10541492Y-17479722D01*
X10541492Y-17479722D02*
X10541492Y-17498770D01*
X10541492Y-17498770D02*
X10446253Y-17517817D01*
X10617682Y-17574960D02*
X10636730Y-17584484D01*
X10636730Y-17584484D02*
X10674825Y-17584484D01*
X10674825Y-17584484D02*
X10693873Y-17574960D01*
X10693873Y-17574960D02*
X10703396Y-17555912D01*
X10703396Y-17555912D02*
X10703396Y-17546389D01*
X10703396Y-17546389D02*
X10693873Y-17527341D01*
X10693873Y-17527341D02*
X10674825Y-17517817D01*
X10674825Y-17517817D02*
X10646253Y-17517817D01*
X10646253Y-17517817D02*
X10627206Y-17508293D01*
X10627206Y-17508293D02*
X10617682Y-17489246D01*
X10617682Y-17489246D02*
X10617682Y-17479722D01*
X10617682Y-17479722D02*
X10627206Y-17460674D01*
X10627206Y-17460674D02*
X10646253Y-17451150D01*
X10646253Y-17451150D02*
X10674825Y-17451150D01*
X10674825Y-17451150D02*
X10693873Y-17460674D01*
X10770063Y-17660674D02*
X10779587Y-17651150D01*
X10779587Y-17651150D02*
X10798634Y-17622579D01*
X10798634Y-17622579D02*
X10808158Y-17603531D01*
X10808158Y-17603531D02*
X10817682Y-17574960D01*
X10817682Y-17574960D02*
X10827206Y-17527341D01*
X10827206Y-17527341D02*
X10827206Y-17489246D01*
X10827206Y-17489246D02*
X10817682Y-17441627D01*
X10817682Y-17441627D02*
X10808158Y-17413055D01*
X10808158Y-17413055D02*
X10798634Y-17394008D01*
X10798634Y-17394008D02*
X10779587Y-17365436D01*
X10779587Y-17365436D02*
X10770063Y-17355912D01*
D19*
X5845000Y-17682000D02*
X5995000Y-17832000D01*
X5995000Y-17682000D02*
X5845000Y-17832000D01*
X5920000Y-17832000D02*
X5995000Y-17757000D01*
X5920000Y-17682000D01*
X5845000Y-17757000D01*
X5920000Y-17832000D01*
D11*
X6360539Y-17848484D02*
X6246253Y-17848484D01*
X6303396Y-17848484D02*
X6303396Y-17648484D01*
X6303396Y-17648484D02*
X6284348Y-17677055D01*
X6284348Y-17677055D02*
X6265301Y-17696103D01*
X6265301Y-17696103D02*
X6246253Y-17705627D01*
X6446253Y-17829436D02*
X6455777Y-17838960D01*
X6455777Y-17838960D02*
X6446253Y-17848484D01*
X6446253Y-17848484D02*
X6436729Y-17838960D01*
X6436729Y-17838960D02*
X6446253Y-17829436D01*
X6446253Y-17829436D02*
X6446253Y-17848484D01*
X6636729Y-17648484D02*
X6541491Y-17648484D01*
X6541491Y-17648484D02*
X6531967Y-17743722D01*
X6531967Y-17743722D02*
X6541491Y-17734198D01*
X6541491Y-17734198D02*
X6560539Y-17724674D01*
X6560539Y-17724674D02*
X6608158Y-17724674D01*
X6608158Y-17724674D02*
X6627205Y-17734198D01*
X6627205Y-17734198D02*
X6636729Y-17743722D01*
X6636729Y-17743722D02*
X6646253Y-17762770D01*
X6646253Y-17762770D02*
X6646253Y-17810389D01*
X6646253Y-17810389D02*
X6636729Y-17829436D01*
X6636729Y-17829436D02*
X6627205Y-17838960D01*
X6627205Y-17838960D02*
X6608158Y-17848484D01*
X6608158Y-17848484D02*
X6560539Y-17848484D01*
X6560539Y-17848484D02*
X6541491Y-17838960D01*
X6541491Y-17838960D02*
X6531967Y-17829436D01*
X6770062Y-17648484D02*
X6789110Y-17648484D01*
X6789110Y-17648484D02*
X6808158Y-17658008D01*
X6808158Y-17658008D02*
X6817682Y-17667531D01*
X6817682Y-17667531D02*
X6827205Y-17686579D01*
X6827205Y-17686579D02*
X6836729Y-17724674D01*
X6836729Y-17724674D02*
X6836729Y-17772293D01*
X6836729Y-17772293D02*
X6827205Y-17810389D01*
X6827205Y-17810389D02*
X6817682Y-17829436D01*
X6817682Y-17829436D02*
X6808158Y-17838960D01*
X6808158Y-17838960D02*
X6789110Y-17848484D01*
X6789110Y-17848484D02*
X6770062Y-17848484D01*
X6770062Y-17848484D02*
X6751015Y-17838960D01*
X6751015Y-17838960D02*
X6741491Y-17829436D01*
X6741491Y-17829436D02*
X6731967Y-17810389D01*
X6731967Y-17810389D02*
X6722443Y-17772293D01*
X6722443Y-17772293D02*
X6722443Y-17724674D01*
X6722443Y-17724674D02*
X6731967Y-17686579D01*
X6731967Y-17686579D02*
X6741491Y-17667531D01*
X6741491Y-17667531D02*
X6751015Y-17658008D01*
X6751015Y-17658008D02*
X6770062Y-17648484D01*
X6960539Y-17648484D02*
X6979586Y-17648484D01*
X6979586Y-17648484D02*
X6998634Y-17658008D01*
X6998634Y-17658008D02*
X7008158Y-17667531D01*
X7008158Y-17667531D02*
X7017682Y-17686579D01*
X7017682Y-17686579D02*
X7027205Y-17724674D01*
X7027205Y-17724674D02*
X7027205Y-17772293D01*
X7027205Y-17772293D02*
X7017682Y-17810389D01*
X7017682Y-17810389D02*
X7008158Y-17829436D01*
X7008158Y-17829436D02*
X6998634Y-17838960D01*
X6998634Y-17838960D02*
X6979586Y-17848484D01*
X6979586Y-17848484D02*
X6960539Y-17848484D01*
X6960539Y-17848484D02*
X6941491Y-17838960D01*
X6941491Y-17838960D02*
X6931967Y-17829436D01*
X6931967Y-17829436D02*
X6922443Y-17810389D01*
X6922443Y-17810389D02*
X6912920Y-17772293D01*
X6912920Y-17772293D02*
X6912920Y-17724674D01*
X6912920Y-17724674D02*
X6922443Y-17686579D01*
X6922443Y-17686579D02*
X6931967Y-17667531D01*
X6931967Y-17667531D02*
X6941491Y-17658008D01*
X6941491Y-17658008D02*
X6960539Y-17648484D01*
X7112920Y-17848484D02*
X7112920Y-17715150D01*
X7112920Y-17734198D02*
X7122443Y-17724674D01*
X7122443Y-17724674D02*
X7141491Y-17715150D01*
X7141491Y-17715150D02*
X7170063Y-17715150D01*
X7170063Y-17715150D02*
X7189110Y-17724674D01*
X7189110Y-17724674D02*
X7198634Y-17743722D01*
X7198634Y-17743722D02*
X7198634Y-17848484D01*
X7198634Y-17743722D02*
X7208158Y-17724674D01*
X7208158Y-17724674D02*
X7227205Y-17715150D01*
X7227205Y-17715150D02*
X7255777Y-17715150D01*
X7255777Y-17715150D02*
X7274824Y-17724674D01*
X7274824Y-17724674D02*
X7284348Y-17743722D01*
X7284348Y-17743722D02*
X7284348Y-17848484D01*
X7379586Y-17848484D02*
X7379586Y-17715150D01*
X7379586Y-17734198D02*
X7389110Y-17724674D01*
X7389110Y-17724674D02*
X7408158Y-17715150D01*
X7408158Y-17715150D02*
X7436729Y-17715150D01*
X7436729Y-17715150D02*
X7455777Y-17724674D01*
X7455777Y-17724674D02*
X7465301Y-17743722D01*
X7465301Y-17743722D02*
X7465301Y-17848484D01*
X7465301Y-17743722D02*
X7474824Y-17724674D01*
X7474824Y-17724674D02*
X7493872Y-17715150D01*
X7493872Y-17715150D02*
X7522443Y-17715150D01*
X7522443Y-17715150D02*
X7541491Y-17724674D01*
X7541491Y-17724674D02*
X7551015Y-17743722D01*
X7551015Y-17743722D02*
X7551015Y-17848484D01*
X7941491Y-17638960D02*
X7770063Y-17896103D01*
X8198634Y-17648484D02*
X8217682Y-17648484D01*
X8217682Y-17648484D02*
X8236729Y-17658008D01*
X8236729Y-17658008D02*
X8246253Y-17667531D01*
X8246253Y-17667531D02*
X8255777Y-17686579D01*
X8255777Y-17686579D02*
X8265301Y-17724674D01*
X8265301Y-17724674D02*
X8265301Y-17772293D01*
X8265301Y-17772293D02*
X8255777Y-17810389D01*
X8255777Y-17810389D02*
X8246253Y-17829436D01*
X8246253Y-17829436D02*
X8236729Y-17838960D01*
X8236729Y-17838960D02*
X8217682Y-17848484D01*
X8217682Y-17848484D02*
X8198634Y-17848484D01*
X8198634Y-17848484D02*
X8179586Y-17838960D01*
X8179586Y-17838960D02*
X8170063Y-17829436D01*
X8170063Y-17829436D02*
X8160539Y-17810389D01*
X8160539Y-17810389D02*
X8151015Y-17772293D01*
X8151015Y-17772293D02*
X8151015Y-17724674D01*
X8151015Y-17724674D02*
X8160539Y-17686579D01*
X8160539Y-17686579D02*
X8170063Y-17667531D01*
X8170063Y-17667531D02*
X8179586Y-17658008D01*
X8179586Y-17658008D02*
X8198634Y-17648484D01*
X8351015Y-17829436D02*
X8360539Y-17838960D01*
X8360539Y-17838960D02*
X8351015Y-17848484D01*
X8351015Y-17848484D02*
X8341491Y-17838960D01*
X8341491Y-17838960D02*
X8351015Y-17829436D01*
X8351015Y-17829436D02*
X8351015Y-17848484D01*
X8484348Y-17648484D02*
X8503396Y-17648484D01*
X8503396Y-17648484D02*
X8522444Y-17658008D01*
X8522444Y-17658008D02*
X8531968Y-17667531D01*
X8531968Y-17667531D02*
X8541491Y-17686579D01*
X8541491Y-17686579D02*
X8551015Y-17724674D01*
X8551015Y-17724674D02*
X8551015Y-17772293D01*
X8551015Y-17772293D02*
X8541491Y-17810389D01*
X8541491Y-17810389D02*
X8531968Y-17829436D01*
X8531968Y-17829436D02*
X8522444Y-17838960D01*
X8522444Y-17838960D02*
X8503396Y-17848484D01*
X8503396Y-17848484D02*
X8484348Y-17848484D01*
X8484348Y-17848484D02*
X8465301Y-17838960D01*
X8465301Y-17838960D02*
X8455777Y-17829436D01*
X8455777Y-17829436D02*
X8446253Y-17810389D01*
X8446253Y-17810389D02*
X8436729Y-17772293D01*
X8436729Y-17772293D02*
X8436729Y-17724674D01*
X8436729Y-17724674D02*
X8446253Y-17686579D01*
X8446253Y-17686579D02*
X8455777Y-17667531D01*
X8455777Y-17667531D02*
X8465301Y-17658008D01*
X8465301Y-17658008D02*
X8484348Y-17648484D01*
X8731968Y-17648484D02*
X8636729Y-17648484D01*
X8636729Y-17648484D02*
X8627206Y-17743722D01*
X8627206Y-17743722D02*
X8636729Y-17734198D01*
X8636729Y-17734198D02*
X8655777Y-17724674D01*
X8655777Y-17724674D02*
X8703396Y-17724674D01*
X8703396Y-17724674D02*
X8722444Y-17734198D01*
X8722444Y-17734198D02*
X8731968Y-17743722D01*
X8731968Y-17743722D02*
X8741491Y-17762770D01*
X8741491Y-17762770D02*
X8741491Y-17810389D01*
X8741491Y-17810389D02*
X8731968Y-17829436D01*
X8731968Y-17829436D02*
X8722444Y-17838960D01*
X8722444Y-17838960D02*
X8703396Y-17848484D01*
X8703396Y-17848484D02*
X8655777Y-17848484D01*
X8655777Y-17848484D02*
X8636729Y-17838960D01*
X8636729Y-17838960D02*
X8627206Y-17829436D01*
X8836729Y-17848484D02*
X8874825Y-17848484D01*
X8874825Y-17848484D02*
X8893872Y-17838960D01*
X8893872Y-17838960D02*
X8903396Y-17829436D01*
X8903396Y-17829436D02*
X8922444Y-17800865D01*
X8922444Y-17800865D02*
X8931968Y-17762770D01*
X8931968Y-17762770D02*
X8931968Y-17686579D01*
X8931968Y-17686579D02*
X8922444Y-17667531D01*
X8922444Y-17667531D02*
X8912920Y-17658008D01*
X8912920Y-17658008D02*
X8893872Y-17648484D01*
X8893872Y-17648484D02*
X8855777Y-17648484D01*
X8855777Y-17648484D02*
X8836729Y-17658008D01*
X8836729Y-17658008D02*
X8827206Y-17667531D01*
X8827206Y-17667531D02*
X8817682Y-17686579D01*
X8817682Y-17686579D02*
X8817682Y-17734198D01*
X8817682Y-17734198D02*
X8827206Y-17753246D01*
X8827206Y-17753246D02*
X8836729Y-17762770D01*
X8836729Y-17762770D02*
X8855777Y-17772293D01*
X8855777Y-17772293D02*
X8893872Y-17772293D01*
X8893872Y-17772293D02*
X8912920Y-17762770D01*
X8912920Y-17762770D02*
X8922444Y-17753246D01*
X8922444Y-17753246D02*
X8931968Y-17734198D01*
X9122444Y-17848484D02*
X9008158Y-17848484D01*
X9065301Y-17848484D02*
X9065301Y-17648484D01*
X9065301Y-17648484D02*
X9046253Y-17677055D01*
X9046253Y-17677055D02*
X9027206Y-17696103D01*
X9027206Y-17696103D02*
X9008158Y-17705627D01*
X9198634Y-17648484D02*
X9198634Y-17686579D01*
X9274825Y-17648484D02*
X9274825Y-17686579D01*
X9570063Y-17924674D02*
X9560539Y-17915150D01*
X9560539Y-17915150D02*
X9541491Y-17886579D01*
X9541491Y-17886579D02*
X9531968Y-17867531D01*
X9531968Y-17867531D02*
X9522444Y-17838960D01*
X9522444Y-17838960D02*
X9512920Y-17791341D01*
X9512920Y-17791341D02*
X9512920Y-17753246D01*
X9512920Y-17753246D02*
X9522444Y-17705627D01*
X9522444Y-17705627D02*
X9531968Y-17677055D01*
X9531968Y-17677055D02*
X9541491Y-17658008D01*
X9541491Y-17658008D02*
X9560539Y-17629436D01*
X9560539Y-17629436D02*
X9570063Y-17619912D01*
X9751015Y-17848484D02*
X9636730Y-17848484D01*
X9693872Y-17848484D02*
X9693872Y-17648484D01*
X9693872Y-17648484D02*
X9674825Y-17677055D01*
X9674825Y-17677055D02*
X9655777Y-17696103D01*
X9655777Y-17696103D02*
X9636730Y-17705627D01*
X9989111Y-17848484D02*
X9989111Y-17648484D01*
X10074825Y-17848484D02*
X10074825Y-17743722D01*
X10074825Y-17743722D02*
X10065301Y-17724674D01*
X10065301Y-17724674D02*
X10046253Y-17715150D01*
X10046253Y-17715150D02*
X10017682Y-17715150D01*
X10017682Y-17715150D02*
X9998634Y-17724674D01*
X9998634Y-17724674D02*
X9989111Y-17734198D01*
X10198634Y-17848484D02*
X10179587Y-17838960D01*
X10179587Y-17838960D02*
X10170063Y-17829436D01*
X10170063Y-17829436D02*
X10160539Y-17810389D01*
X10160539Y-17810389D02*
X10160539Y-17753246D01*
X10160539Y-17753246D02*
X10170063Y-17734198D01*
X10170063Y-17734198D02*
X10179587Y-17724674D01*
X10179587Y-17724674D02*
X10198634Y-17715150D01*
X10198634Y-17715150D02*
X10227206Y-17715150D01*
X10227206Y-17715150D02*
X10246253Y-17724674D01*
X10246253Y-17724674D02*
X10255777Y-17734198D01*
X10255777Y-17734198D02*
X10265301Y-17753246D01*
X10265301Y-17753246D02*
X10265301Y-17810389D01*
X10265301Y-17810389D02*
X10255777Y-17829436D01*
X10255777Y-17829436D02*
X10246253Y-17838960D01*
X10246253Y-17838960D02*
X10227206Y-17848484D01*
X10227206Y-17848484D02*
X10198634Y-17848484D01*
X10379587Y-17848484D02*
X10360539Y-17838960D01*
X10360539Y-17838960D02*
X10351015Y-17819912D01*
X10351015Y-17819912D02*
X10351015Y-17648484D01*
X10531968Y-17838960D02*
X10512920Y-17848484D01*
X10512920Y-17848484D02*
X10474825Y-17848484D01*
X10474825Y-17848484D02*
X10455777Y-17838960D01*
X10455777Y-17838960D02*
X10446253Y-17819912D01*
X10446253Y-17819912D02*
X10446253Y-17743722D01*
X10446253Y-17743722D02*
X10455777Y-17724674D01*
X10455777Y-17724674D02*
X10474825Y-17715150D01*
X10474825Y-17715150D02*
X10512920Y-17715150D01*
X10512920Y-17715150D02*
X10531968Y-17724674D01*
X10531968Y-17724674D02*
X10541492Y-17743722D01*
X10541492Y-17743722D02*
X10541492Y-17762770D01*
X10541492Y-17762770D02*
X10446253Y-17781817D01*
X10608158Y-17924674D02*
X10617682Y-17915150D01*
X10617682Y-17915150D02*
X10636730Y-17886579D01*
X10636730Y-17886579D02*
X10646253Y-17867531D01*
X10646253Y-17867531D02*
X10655777Y-17838960D01*
X10655777Y-17838960D02*
X10665301Y-17791341D01*
X10665301Y-17791341D02*
X10665301Y-17753246D01*
X10665301Y-17753246D02*
X10655777Y-17705627D01*
X10655777Y-17705627D02*
X10646253Y-17677055D01*
X10646253Y-17677055D02*
X10636730Y-17658008D01*
X10636730Y-17658008D02*
X10617682Y-17629436D01*
X10617682Y-17629436D02*
X10608158Y-17619912D01*
D20*
X5915000Y-17947000D02*
X5915000Y-18107000D01*
X5835000Y-18027000D02*
X5995000Y-18027000D01*
X5995000Y-18027000D02*
G75*
G03*
X5995000Y-18027000I-80000J0D01*
G01*
D11*
X6360539Y-18118484D02*
X6246253Y-18118484D01*
X6303396Y-18118484D02*
X6303396Y-17918484D01*
X6303396Y-17918484D02*
X6284348Y-17947055D01*
X6284348Y-17947055D02*
X6265301Y-17966103D01*
X6265301Y-17966103D02*
X6246253Y-17975627D01*
X6446253Y-18099436D02*
X6455777Y-18108960D01*
X6455777Y-18108960D02*
X6446253Y-18118484D01*
X6446253Y-18118484D02*
X6436729Y-18108960D01*
X6436729Y-18108960D02*
X6446253Y-18099436D01*
X6446253Y-18099436D02*
X6446253Y-18118484D01*
X6627205Y-17918484D02*
X6589110Y-17918484D01*
X6589110Y-17918484D02*
X6570062Y-17928008D01*
X6570062Y-17928008D02*
X6560539Y-17937531D01*
X6560539Y-17937531D02*
X6541491Y-17966103D01*
X6541491Y-17966103D02*
X6531967Y-18004198D01*
X6531967Y-18004198D02*
X6531967Y-18080389D01*
X6531967Y-18080389D02*
X6541491Y-18099436D01*
X6541491Y-18099436D02*
X6551015Y-18108960D01*
X6551015Y-18108960D02*
X6570062Y-18118484D01*
X6570062Y-18118484D02*
X6608158Y-18118484D01*
X6608158Y-18118484D02*
X6627205Y-18108960D01*
X6627205Y-18108960D02*
X6636729Y-18099436D01*
X6636729Y-18099436D02*
X6646253Y-18080389D01*
X6646253Y-18080389D02*
X6646253Y-18032770D01*
X6646253Y-18032770D02*
X6636729Y-18013722D01*
X6636729Y-18013722D02*
X6627205Y-18004198D01*
X6627205Y-18004198D02*
X6608158Y-17994674D01*
X6608158Y-17994674D02*
X6570062Y-17994674D01*
X6570062Y-17994674D02*
X6551015Y-18004198D01*
X6551015Y-18004198D02*
X6541491Y-18013722D01*
X6541491Y-18013722D02*
X6531967Y-18032770D01*
X6770062Y-17918484D02*
X6789110Y-17918484D01*
X6789110Y-17918484D02*
X6808158Y-17928008D01*
X6808158Y-17928008D02*
X6817682Y-17937531D01*
X6817682Y-17937531D02*
X6827205Y-17956579D01*
X6827205Y-17956579D02*
X6836729Y-17994674D01*
X6836729Y-17994674D02*
X6836729Y-18042293D01*
X6836729Y-18042293D02*
X6827205Y-18080389D01*
X6827205Y-18080389D02*
X6817682Y-18099436D01*
X6817682Y-18099436D02*
X6808158Y-18108960D01*
X6808158Y-18108960D02*
X6789110Y-18118484D01*
X6789110Y-18118484D02*
X6770062Y-18118484D01*
X6770062Y-18118484D02*
X6751015Y-18108960D01*
X6751015Y-18108960D02*
X6741491Y-18099436D01*
X6741491Y-18099436D02*
X6731967Y-18080389D01*
X6731967Y-18080389D02*
X6722443Y-18042293D01*
X6722443Y-18042293D02*
X6722443Y-17994674D01*
X6722443Y-17994674D02*
X6731967Y-17956579D01*
X6731967Y-17956579D02*
X6741491Y-17937531D01*
X6741491Y-17937531D02*
X6751015Y-17928008D01*
X6751015Y-17928008D02*
X6770062Y-17918484D01*
X6960539Y-17918484D02*
X6979586Y-17918484D01*
X6979586Y-17918484D02*
X6998634Y-17928008D01*
X6998634Y-17928008D02*
X7008158Y-17937531D01*
X7008158Y-17937531D02*
X7017682Y-17956579D01*
X7017682Y-17956579D02*
X7027205Y-17994674D01*
X7027205Y-17994674D02*
X7027205Y-18042293D01*
X7027205Y-18042293D02*
X7017682Y-18080389D01*
X7017682Y-18080389D02*
X7008158Y-18099436D01*
X7008158Y-18099436D02*
X6998634Y-18108960D01*
X6998634Y-18108960D02*
X6979586Y-18118484D01*
X6979586Y-18118484D02*
X6960539Y-18118484D01*
X6960539Y-18118484D02*
X6941491Y-18108960D01*
X6941491Y-18108960D02*
X6931967Y-18099436D01*
X6931967Y-18099436D02*
X6922443Y-18080389D01*
X6922443Y-18080389D02*
X6912920Y-18042293D01*
X6912920Y-18042293D02*
X6912920Y-17994674D01*
X6912920Y-17994674D02*
X6922443Y-17956579D01*
X6922443Y-17956579D02*
X6931967Y-17937531D01*
X6931967Y-17937531D02*
X6941491Y-17928008D01*
X6941491Y-17928008D02*
X6960539Y-17918484D01*
X7112920Y-18118484D02*
X7112920Y-17985150D01*
X7112920Y-18004198D02*
X7122443Y-17994674D01*
X7122443Y-17994674D02*
X7141491Y-17985150D01*
X7141491Y-17985150D02*
X7170063Y-17985150D01*
X7170063Y-17985150D02*
X7189110Y-17994674D01*
X7189110Y-17994674D02*
X7198634Y-18013722D01*
X7198634Y-18013722D02*
X7198634Y-18118484D01*
X7198634Y-18013722D02*
X7208158Y-17994674D01*
X7208158Y-17994674D02*
X7227205Y-17985150D01*
X7227205Y-17985150D02*
X7255777Y-17985150D01*
X7255777Y-17985150D02*
X7274824Y-17994674D01*
X7274824Y-17994674D02*
X7284348Y-18013722D01*
X7284348Y-18013722D02*
X7284348Y-18118484D01*
X7379586Y-18118484D02*
X7379586Y-17985150D01*
X7379586Y-18004198D02*
X7389110Y-17994674D01*
X7389110Y-17994674D02*
X7408158Y-17985150D01*
X7408158Y-17985150D02*
X7436729Y-17985150D01*
X7436729Y-17985150D02*
X7455777Y-17994674D01*
X7455777Y-17994674D02*
X7465301Y-18013722D01*
X7465301Y-18013722D02*
X7465301Y-18118484D01*
X7465301Y-18013722D02*
X7474824Y-17994674D01*
X7474824Y-17994674D02*
X7493872Y-17985150D01*
X7493872Y-17985150D02*
X7522443Y-17985150D01*
X7522443Y-17985150D02*
X7541491Y-17994674D01*
X7541491Y-17994674D02*
X7551015Y-18013722D01*
X7551015Y-18013722D02*
X7551015Y-18118484D01*
X7941491Y-17908960D02*
X7770063Y-18166103D01*
X8198634Y-17918484D02*
X8217682Y-17918484D01*
X8217682Y-17918484D02*
X8236729Y-17928008D01*
X8236729Y-17928008D02*
X8246253Y-17937531D01*
X8246253Y-17937531D02*
X8255777Y-17956579D01*
X8255777Y-17956579D02*
X8265301Y-17994674D01*
X8265301Y-17994674D02*
X8265301Y-18042293D01*
X8265301Y-18042293D02*
X8255777Y-18080389D01*
X8255777Y-18080389D02*
X8246253Y-18099436D01*
X8246253Y-18099436D02*
X8236729Y-18108960D01*
X8236729Y-18108960D02*
X8217682Y-18118484D01*
X8217682Y-18118484D02*
X8198634Y-18118484D01*
X8198634Y-18118484D02*
X8179586Y-18108960D01*
X8179586Y-18108960D02*
X8170063Y-18099436D01*
X8170063Y-18099436D02*
X8160539Y-18080389D01*
X8160539Y-18080389D02*
X8151015Y-18042293D01*
X8151015Y-18042293D02*
X8151015Y-17994674D01*
X8151015Y-17994674D02*
X8160539Y-17956579D01*
X8160539Y-17956579D02*
X8170063Y-17937531D01*
X8170063Y-17937531D02*
X8179586Y-17928008D01*
X8179586Y-17928008D02*
X8198634Y-17918484D01*
X8351015Y-18099436D02*
X8360539Y-18108960D01*
X8360539Y-18108960D02*
X8351015Y-18118484D01*
X8351015Y-18118484D02*
X8341491Y-18108960D01*
X8341491Y-18108960D02*
X8351015Y-18099436D01*
X8351015Y-18099436D02*
X8351015Y-18118484D01*
X8484348Y-17918484D02*
X8503396Y-17918484D01*
X8503396Y-17918484D02*
X8522444Y-17928008D01*
X8522444Y-17928008D02*
X8531968Y-17937531D01*
X8531968Y-17937531D02*
X8541491Y-17956579D01*
X8541491Y-17956579D02*
X8551015Y-17994674D01*
X8551015Y-17994674D02*
X8551015Y-18042293D01*
X8551015Y-18042293D02*
X8541491Y-18080389D01*
X8541491Y-18080389D02*
X8531968Y-18099436D01*
X8531968Y-18099436D02*
X8522444Y-18108960D01*
X8522444Y-18108960D02*
X8503396Y-18118484D01*
X8503396Y-18118484D02*
X8484348Y-18118484D01*
X8484348Y-18118484D02*
X8465301Y-18108960D01*
X8465301Y-18108960D02*
X8455777Y-18099436D01*
X8455777Y-18099436D02*
X8446253Y-18080389D01*
X8446253Y-18080389D02*
X8436729Y-18042293D01*
X8436729Y-18042293D02*
X8436729Y-17994674D01*
X8436729Y-17994674D02*
X8446253Y-17956579D01*
X8446253Y-17956579D02*
X8455777Y-17937531D01*
X8455777Y-17937531D02*
X8465301Y-17928008D01*
X8465301Y-17928008D02*
X8484348Y-17918484D01*
X8722444Y-17918484D02*
X8684348Y-17918484D01*
X8684348Y-17918484D02*
X8665301Y-17928008D01*
X8665301Y-17928008D02*
X8655777Y-17937531D01*
X8655777Y-17937531D02*
X8636729Y-17966103D01*
X8636729Y-17966103D02*
X8627206Y-18004198D01*
X8627206Y-18004198D02*
X8627206Y-18080389D01*
X8627206Y-18080389D02*
X8636729Y-18099436D01*
X8636729Y-18099436D02*
X8646253Y-18108960D01*
X8646253Y-18108960D02*
X8665301Y-18118484D01*
X8665301Y-18118484D02*
X8703396Y-18118484D01*
X8703396Y-18118484D02*
X8722444Y-18108960D01*
X8722444Y-18108960D02*
X8731968Y-18099436D01*
X8731968Y-18099436D02*
X8741491Y-18080389D01*
X8741491Y-18080389D02*
X8741491Y-18032770D01*
X8741491Y-18032770D02*
X8731968Y-18013722D01*
X8731968Y-18013722D02*
X8722444Y-18004198D01*
X8722444Y-18004198D02*
X8703396Y-17994674D01*
X8703396Y-17994674D02*
X8665301Y-17994674D01*
X8665301Y-17994674D02*
X8646253Y-18004198D01*
X8646253Y-18004198D02*
X8636729Y-18013722D01*
X8636729Y-18013722D02*
X8627206Y-18032770D01*
X8808158Y-17918484D02*
X8931968Y-17918484D01*
X8931968Y-17918484D02*
X8865301Y-17994674D01*
X8865301Y-17994674D02*
X8893872Y-17994674D01*
X8893872Y-17994674D02*
X8912920Y-18004198D01*
X8912920Y-18004198D02*
X8922444Y-18013722D01*
X8922444Y-18013722D02*
X8931968Y-18032770D01*
X8931968Y-18032770D02*
X8931968Y-18080389D01*
X8931968Y-18080389D02*
X8922444Y-18099436D01*
X8922444Y-18099436D02*
X8912920Y-18108960D01*
X8912920Y-18108960D02*
X8893872Y-18118484D01*
X8893872Y-18118484D02*
X8836729Y-18118484D01*
X8836729Y-18118484D02*
X8817682Y-18108960D01*
X8817682Y-18108960D02*
X8808158Y-18099436D01*
X9055777Y-17918484D02*
X9074825Y-17918484D01*
X9074825Y-17918484D02*
X9093872Y-17928008D01*
X9093872Y-17928008D02*
X9103396Y-17937531D01*
X9103396Y-17937531D02*
X9112920Y-17956579D01*
X9112920Y-17956579D02*
X9122444Y-17994674D01*
X9122444Y-17994674D02*
X9122444Y-18042293D01*
X9122444Y-18042293D02*
X9112920Y-18080389D01*
X9112920Y-18080389D02*
X9103396Y-18099436D01*
X9103396Y-18099436D02*
X9093872Y-18108960D01*
X9093872Y-18108960D02*
X9074825Y-18118484D01*
X9074825Y-18118484D02*
X9055777Y-18118484D01*
X9055777Y-18118484D02*
X9036729Y-18108960D01*
X9036729Y-18108960D02*
X9027206Y-18099436D01*
X9027206Y-18099436D02*
X9017682Y-18080389D01*
X9017682Y-18080389D02*
X9008158Y-18042293D01*
X9008158Y-18042293D02*
X9008158Y-17994674D01*
X9008158Y-17994674D02*
X9017682Y-17956579D01*
X9017682Y-17956579D02*
X9027206Y-17937531D01*
X9027206Y-17937531D02*
X9036729Y-17928008D01*
X9036729Y-17928008D02*
X9055777Y-17918484D01*
X9198634Y-17918484D02*
X9198634Y-17956579D01*
X9274825Y-17918484D02*
X9274825Y-17956579D01*
X9570063Y-18194674D02*
X9560539Y-18185150D01*
X9560539Y-18185150D02*
X9541491Y-18156579D01*
X9541491Y-18156579D02*
X9531968Y-18137531D01*
X9531968Y-18137531D02*
X9522444Y-18108960D01*
X9522444Y-18108960D02*
X9512920Y-18061341D01*
X9512920Y-18061341D02*
X9512920Y-18023246D01*
X9512920Y-18023246D02*
X9522444Y-17975627D01*
X9522444Y-17975627D02*
X9531968Y-17947055D01*
X9531968Y-17947055D02*
X9541491Y-17928008D01*
X9541491Y-17928008D02*
X9560539Y-17899436D01*
X9560539Y-17899436D02*
X9570063Y-17889912D01*
X9627206Y-17918484D02*
X9751015Y-17918484D01*
X9751015Y-17918484D02*
X9684349Y-17994674D01*
X9684349Y-17994674D02*
X9712920Y-17994674D01*
X9712920Y-17994674D02*
X9731968Y-18004198D01*
X9731968Y-18004198D02*
X9741491Y-18013722D01*
X9741491Y-18013722D02*
X9751015Y-18032770D01*
X9751015Y-18032770D02*
X9751015Y-18080389D01*
X9751015Y-18080389D02*
X9741491Y-18099436D01*
X9741491Y-18099436D02*
X9731968Y-18108960D01*
X9731968Y-18108960D02*
X9712920Y-18118484D01*
X9712920Y-18118484D02*
X9655777Y-18118484D01*
X9655777Y-18118484D02*
X9636730Y-18108960D01*
X9636730Y-18108960D02*
X9627206Y-18099436D01*
X9874825Y-17918484D02*
X9893872Y-17918484D01*
X9893872Y-17918484D02*
X9912920Y-17928008D01*
X9912920Y-17928008D02*
X9922444Y-17937531D01*
X9922444Y-17937531D02*
X9931968Y-17956579D01*
X9931968Y-17956579D02*
X9941491Y-17994674D01*
X9941491Y-17994674D02*
X9941491Y-18042293D01*
X9941491Y-18042293D02*
X9931968Y-18080389D01*
X9931968Y-18080389D02*
X9922444Y-18099436D01*
X9922444Y-18099436D02*
X9912920Y-18108960D01*
X9912920Y-18108960D02*
X9893872Y-18118484D01*
X9893872Y-18118484D02*
X9874825Y-18118484D01*
X9874825Y-18118484D02*
X9855777Y-18108960D01*
X9855777Y-18108960D02*
X9846253Y-18099436D01*
X9846253Y-18099436D02*
X9836730Y-18080389D01*
X9836730Y-18080389D02*
X9827206Y-18042293D01*
X9827206Y-18042293D02*
X9827206Y-17994674D01*
X9827206Y-17994674D02*
X9836730Y-17956579D01*
X9836730Y-17956579D02*
X9846253Y-17937531D01*
X9846253Y-17937531D02*
X9855777Y-17928008D01*
X9855777Y-17928008D02*
X9874825Y-17918484D01*
X10179587Y-18118484D02*
X10179587Y-17918484D01*
X10265301Y-18118484D02*
X10265301Y-18013722D01*
X10265301Y-18013722D02*
X10255777Y-17994674D01*
X10255777Y-17994674D02*
X10236730Y-17985150D01*
X10236730Y-17985150D02*
X10208158Y-17985150D01*
X10208158Y-17985150D02*
X10189111Y-17994674D01*
X10189111Y-17994674D02*
X10179587Y-18004198D01*
X10389111Y-18118484D02*
X10370063Y-18108960D01*
X10370063Y-18108960D02*
X10360539Y-18099436D01*
X10360539Y-18099436D02*
X10351015Y-18080389D01*
X10351015Y-18080389D02*
X10351015Y-18023246D01*
X10351015Y-18023246D02*
X10360539Y-18004198D01*
X10360539Y-18004198D02*
X10370063Y-17994674D01*
X10370063Y-17994674D02*
X10389111Y-17985150D01*
X10389111Y-17985150D02*
X10417682Y-17985150D01*
X10417682Y-17985150D02*
X10436730Y-17994674D01*
X10436730Y-17994674D02*
X10446253Y-18004198D01*
X10446253Y-18004198D02*
X10455777Y-18023246D01*
X10455777Y-18023246D02*
X10455777Y-18080389D01*
X10455777Y-18080389D02*
X10446253Y-18099436D01*
X10446253Y-18099436D02*
X10436730Y-18108960D01*
X10436730Y-18108960D02*
X10417682Y-18118484D01*
X10417682Y-18118484D02*
X10389111Y-18118484D01*
X10570063Y-18118484D02*
X10551015Y-18108960D01*
X10551015Y-18108960D02*
X10541492Y-18089912D01*
X10541492Y-18089912D02*
X10541492Y-17918484D01*
X10722444Y-18108960D02*
X10703396Y-18118484D01*
X10703396Y-18118484D02*
X10665301Y-18118484D01*
X10665301Y-18118484D02*
X10646253Y-18108960D01*
X10646253Y-18108960D02*
X10636730Y-18089912D01*
X10636730Y-18089912D02*
X10636730Y-18013722D01*
X10636730Y-18013722D02*
X10646253Y-17994674D01*
X10646253Y-17994674D02*
X10665301Y-17985150D01*
X10665301Y-17985150D02*
X10703396Y-17985150D01*
X10703396Y-17985150D02*
X10722444Y-17994674D01*
X10722444Y-17994674D02*
X10731968Y-18013722D01*
X10731968Y-18013722D02*
X10731968Y-18032770D01*
X10731968Y-18032770D02*
X10636730Y-18051817D01*
X10808158Y-18108960D02*
X10827206Y-18118484D01*
X10827206Y-18118484D02*
X10865301Y-18118484D01*
X10865301Y-18118484D02*
X10884349Y-18108960D01*
X10884349Y-18108960D02*
X10893873Y-18089912D01*
X10893873Y-18089912D02*
X10893873Y-18080389D01*
X10893873Y-18080389D02*
X10884349Y-18061341D01*
X10884349Y-18061341D02*
X10865301Y-18051817D01*
X10865301Y-18051817D02*
X10836730Y-18051817D01*
X10836730Y-18051817D02*
X10817682Y-18042293D01*
X10817682Y-18042293D02*
X10808158Y-18023246D01*
X10808158Y-18023246D02*
X10808158Y-18013722D01*
X10808158Y-18013722D02*
X10817682Y-17994674D01*
X10817682Y-17994674D02*
X10836730Y-17985150D01*
X10836730Y-17985150D02*
X10865301Y-17985150D01*
X10865301Y-17985150D02*
X10884349Y-17994674D01*
X10960539Y-18194674D02*
X10970063Y-18185150D01*
X10970063Y-18185150D02*
X10989111Y-18156579D01*
X10989111Y-18156579D02*
X10998634Y-18137531D01*
X10998634Y-18137531D02*
X11008158Y-18108960D01*
X11008158Y-18108960D02*
X11017682Y-18061341D01*
X11017682Y-18061341D02*
X11017682Y-18023246D01*
X11017682Y-18023246D02*
X11008158Y-17975627D01*
X11008158Y-17975627D02*
X10998634Y-17947055D01*
X10998634Y-17947055D02*
X10989111Y-17928008D01*
X10989111Y-17928008D02*
X10970063Y-17899436D01*
X10970063Y-17899436D02*
X10960539Y-17889912D01*
X5965711Y-18377711D02*
X5965711Y-18236289D01*
X5824289Y-18236289D01*
X5824289Y-18377711D01*
X5965711Y-18377711D01*
X5995000Y-18307000D02*
G75*
G03*
X5995000Y-18307000I-100000J0D01*
G01*
X6246253Y-18217531D02*
X6255777Y-18208008D01*
X6255777Y-18208008D02*
X6274824Y-18198484D01*
X6274824Y-18198484D02*
X6322443Y-18198484D01*
X6322443Y-18198484D02*
X6341491Y-18208008D01*
X6341491Y-18208008D02*
X6351015Y-18217531D01*
X6351015Y-18217531D02*
X6360539Y-18236579D01*
X6360539Y-18236579D02*
X6360539Y-18255627D01*
X6360539Y-18255627D02*
X6351015Y-18284198D01*
X6351015Y-18284198D02*
X6236729Y-18398484D01*
X6236729Y-18398484D02*
X6360539Y-18398484D01*
X6446253Y-18379436D02*
X6455777Y-18388960D01*
X6455777Y-18388960D02*
X6446253Y-18398484D01*
X6446253Y-18398484D02*
X6436729Y-18388960D01*
X6436729Y-18388960D02*
X6446253Y-18379436D01*
X6446253Y-18379436D02*
X6446253Y-18398484D01*
X6646253Y-18398484D02*
X6531967Y-18398484D01*
X6589110Y-18398484D02*
X6589110Y-18198484D01*
X6589110Y-18198484D02*
X6570062Y-18227055D01*
X6570062Y-18227055D02*
X6551015Y-18246103D01*
X6551015Y-18246103D02*
X6531967Y-18255627D01*
X6770062Y-18198484D02*
X6789110Y-18198484D01*
X6789110Y-18198484D02*
X6808158Y-18208008D01*
X6808158Y-18208008D02*
X6817682Y-18217531D01*
X6817682Y-18217531D02*
X6827205Y-18236579D01*
X6827205Y-18236579D02*
X6836729Y-18274674D01*
X6836729Y-18274674D02*
X6836729Y-18322293D01*
X6836729Y-18322293D02*
X6827205Y-18360389D01*
X6827205Y-18360389D02*
X6817682Y-18379436D01*
X6817682Y-18379436D02*
X6808158Y-18388960D01*
X6808158Y-18388960D02*
X6789110Y-18398484D01*
X6789110Y-18398484D02*
X6770062Y-18398484D01*
X6770062Y-18398484D02*
X6751015Y-18388960D01*
X6751015Y-18388960D02*
X6741491Y-18379436D01*
X6741491Y-18379436D02*
X6731967Y-18360389D01*
X6731967Y-18360389D02*
X6722443Y-18322293D01*
X6722443Y-18322293D02*
X6722443Y-18274674D01*
X6722443Y-18274674D02*
X6731967Y-18236579D01*
X6731967Y-18236579D02*
X6741491Y-18217531D01*
X6741491Y-18217531D02*
X6751015Y-18208008D01*
X6751015Y-18208008D02*
X6770062Y-18198484D01*
X6960539Y-18198484D02*
X6979586Y-18198484D01*
X6979586Y-18198484D02*
X6998634Y-18208008D01*
X6998634Y-18208008D02*
X7008158Y-18217531D01*
X7008158Y-18217531D02*
X7017682Y-18236579D01*
X7017682Y-18236579D02*
X7027205Y-18274674D01*
X7027205Y-18274674D02*
X7027205Y-18322293D01*
X7027205Y-18322293D02*
X7017682Y-18360389D01*
X7017682Y-18360389D02*
X7008158Y-18379436D01*
X7008158Y-18379436D02*
X6998634Y-18388960D01*
X6998634Y-18388960D02*
X6979586Y-18398484D01*
X6979586Y-18398484D02*
X6960539Y-18398484D01*
X6960539Y-18398484D02*
X6941491Y-18388960D01*
X6941491Y-18388960D02*
X6931967Y-18379436D01*
X6931967Y-18379436D02*
X6922443Y-18360389D01*
X6922443Y-18360389D02*
X6912920Y-18322293D01*
X6912920Y-18322293D02*
X6912920Y-18274674D01*
X6912920Y-18274674D02*
X6922443Y-18236579D01*
X6922443Y-18236579D02*
X6931967Y-18217531D01*
X6931967Y-18217531D02*
X6941491Y-18208008D01*
X6941491Y-18208008D02*
X6960539Y-18198484D01*
X7112920Y-18398484D02*
X7112920Y-18265150D01*
X7112920Y-18284198D02*
X7122443Y-18274674D01*
X7122443Y-18274674D02*
X7141491Y-18265150D01*
X7141491Y-18265150D02*
X7170063Y-18265150D01*
X7170063Y-18265150D02*
X7189110Y-18274674D01*
X7189110Y-18274674D02*
X7198634Y-18293722D01*
X7198634Y-18293722D02*
X7198634Y-18398484D01*
X7198634Y-18293722D02*
X7208158Y-18274674D01*
X7208158Y-18274674D02*
X7227205Y-18265150D01*
X7227205Y-18265150D02*
X7255777Y-18265150D01*
X7255777Y-18265150D02*
X7274824Y-18274674D01*
X7274824Y-18274674D02*
X7284348Y-18293722D01*
X7284348Y-18293722D02*
X7284348Y-18398484D01*
X7379586Y-18398484D02*
X7379586Y-18265150D01*
X7379586Y-18284198D02*
X7389110Y-18274674D01*
X7389110Y-18274674D02*
X7408158Y-18265150D01*
X7408158Y-18265150D02*
X7436729Y-18265150D01*
X7436729Y-18265150D02*
X7455777Y-18274674D01*
X7455777Y-18274674D02*
X7465301Y-18293722D01*
X7465301Y-18293722D02*
X7465301Y-18398484D01*
X7465301Y-18293722D02*
X7474824Y-18274674D01*
X7474824Y-18274674D02*
X7493872Y-18265150D01*
X7493872Y-18265150D02*
X7522443Y-18265150D01*
X7522443Y-18265150D02*
X7541491Y-18274674D01*
X7541491Y-18274674D02*
X7551015Y-18293722D01*
X7551015Y-18293722D02*
X7551015Y-18398484D01*
X7941491Y-18188960D02*
X7770063Y-18446103D01*
X8198634Y-18198484D02*
X8217682Y-18198484D01*
X8217682Y-18198484D02*
X8236729Y-18208008D01*
X8236729Y-18208008D02*
X8246253Y-18217531D01*
X8246253Y-18217531D02*
X8255777Y-18236579D01*
X8255777Y-18236579D02*
X8265301Y-18274674D01*
X8265301Y-18274674D02*
X8265301Y-18322293D01*
X8265301Y-18322293D02*
X8255777Y-18360389D01*
X8255777Y-18360389D02*
X8246253Y-18379436D01*
X8246253Y-18379436D02*
X8236729Y-18388960D01*
X8236729Y-18388960D02*
X8217682Y-18398484D01*
X8217682Y-18398484D02*
X8198634Y-18398484D01*
X8198634Y-18398484D02*
X8179586Y-18388960D01*
X8179586Y-18388960D02*
X8170063Y-18379436D01*
X8170063Y-18379436D02*
X8160539Y-18360389D01*
X8160539Y-18360389D02*
X8151015Y-18322293D01*
X8151015Y-18322293D02*
X8151015Y-18274674D01*
X8151015Y-18274674D02*
X8160539Y-18236579D01*
X8160539Y-18236579D02*
X8170063Y-18217531D01*
X8170063Y-18217531D02*
X8179586Y-18208008D01*
X8179586Y-18208008D02*
X8198634Y-18198484D01*
X8351015Y-18379436D02*
X8360539Y-18388960D01*
X8360539Y-18388960D02*
X8351015Y-18398484D01*
X8351015Y-18398484D02*
X8341491Y-18388960D01*
X8341491Y-18388960D02*
X8351015Y-18379436D01*
X8351015Y-18379436D02*
X8351015Y-18398484D01*
X8484348Y-18198484D02*
X8503396Y-18198484D01*
X8503396Y-18198484D02*
X8522444Y-18208008D01*
X8522444Y-18208008D02*
X8531968Y-18217531D01*
X8531968Y-18217531D02*
X8541491Y-18236579D01*
X8541491Y-18236579D02*
X8551015Y-18274674D01*
X8551015Y-18274674D02*
X8551015Y-18322293D01*
X8551015Y-18322293D02*
X8541491Y-18360389D01*
X8541491Y-18360389D02*
X8531968Y-18379436D01*
X8531968Y-18379436D02*
X8522444Y-18388960D01*
X8522444Y-18388960D02*
X8503396Y-18398484D01*
X8503396Y-18398484D02*
X8484348Y-18398484D01*
X8484348Y-18398484D02*
X8465301Y-18388960D01*
X8465301Y-18388960D02*
X8455777Y-18379436D01*
X8455777Y-18379436D02*
X8446253Y-18360389D01*
X8446253Y-18360389D02*
X8436729Y-18322293D01*
X8436729Y-18322293D02*
X8436729Y-18274674D01*
X8436729Y-18274674D02*
X8446253Y-18236579D01*
X8446253Y-18236579D02*
X8455777Y-18217531D01*
X8455777Y-18217531D02*
X8465301Y-18208008D01*
X8465301Y-18208008D02*
X8484348Y-18198484D01*
X8665301Y-18284198D02*
X8646253Y-18274674D01*
X8646253Y-18274674D02*
X8636729Y-18265150D01*
X8636729Y-18265150D02*
X8627206Y-18246103D01*
X8627206Y-18246103D02*
X8627206Y-18236579D01*
X8627206Y-18236579D02*
X8636729Y-18217531D01*
X8636729Y-18217531D02*
X8646253Y-18208008D01*
X8646253Y-18208008D02*
X8665301Y-18198484D01*
X8665301Y-18198484D02*
X8703396Y-18198484D01*
X8703396Y-18198484D02*
X8722444Y-18208008D01*
X8722444Y-18208008D02*
X8731968Y-18217531D01*
X8731968Y-18217531D02*
X8741491Y-18236579D01*
X8741491Y-18236579D02*
X8741491Y-18246103D01*
X8741491Y-18246103D02*
X8731968Y-18265150D01*
X8731968Y-18265150D02*
X8722444Y-18274674D01*
X8722444Y-18274674D02*
X8703396Y-18284198D01*
X8703396Y-18284198D02*
X8665301Y-18284198D01*
X8665301Y-18284198D02*
X8646253Y-18293722D01*
X8646253Y-18293722D02*
X8636729Y-18303246D01*
X8636729Y-18303246D02*
X8627206Y-18322293D01*
X8627206Y-18322293D02*
X8627206Y-18360389D01*
X8627206Y-18360389D02*
X8636729Y-18379436D01*
X8636729Y-18379436D02*
X8646253Y-18388960D01*
X8646253Y-18388960D02*
X8665301Y-18398484D01*
X8665301Y-18398484D02*
X8703396Y-18398484D01*
X8703396Y-18398484D02*
X8722444Y-18388960D01*
X8722444Y-18388960D02*
X8731968Y-18379436D01*
X8731968Y-18379436D02*
X8741491Y-18360389D01*
X8741491Y-18360389D02*
X8741491Y-18322293D01*
X8741491Y-18322293D02*
X8731968Y-18303246D01*
X8731968Y-18303246D02*
X8722444Y-18293722D01*
X8722444Y-18293722D02*
X8703396Y-18284198D01*
X8817682Y-18217531D02*
X8827206Y-18208008D01*
X8827206Y-18208008D02*
X8846253Y-18198484D01*
X8846253Y-18198484D02*
X8893872Y-18198484D01*
X8893872Y-18198484D02*
X8912920Y-18208008D01*
X8912920Y-18208008D02*
X8922444Y-18217531D01*
X8922444Y-18217531D02*
X8931968Y-18236579D01*
X8931968Y-18236579D02*
X8931968Y-18255627D01*
X8931968Y-18255627D02*
X8922444Y-18284198D01*
X8922444Y-18284198D02*
X8808158Y-18398484D01*
X8808158Y-18398484D02*
X8931968Y-18398484D01*
X8998634Y-18198484D02*
X9131968Y-18198484D01*
X9131968Y-18198484D02*
X9046253Y-18398484D01*
X9198634Y-18198484D02*
X9198634Y-18236579D01*
X9274825Y-18198484D02*
X9274825Y-18236579D01*
X9570063Y-18474674D02*
X9560539Y-18465150D01*
X9560539Y-18465150D02*
X9541491Y-18436579D01*
X9541491Y-18436579D02*
X9531968Y-18417531D01*
X9531968Y-18417531D02*
X9522444Y-18388960D01*
X9522444Y-18388960D02*
X9512920Y-18341341D01*
X9512920Y-18341341D02*
X9512920Y-18303246D01*
X9512920Y-18303246D02*
X9522444Y-18255627D01*
X9522444Y-18255627D02*
X9531968Y-18227055D01*
X9531968Y-18227055D02*
X9541491Y-18208008D01*
X9541491Y-18208008D02*
X9560539Y-18179436D01*
X9560539Y-18179436D02*
X9570063Y-18169912D01*
X9751015Y-18398484D02*
X9636730Y-18398484D01*
X9693872Y-18398484D02*
X9693872Y-18198484D01*
X9693872Y-18198484D02*
X9674825Y-18227055D01*
X9674825Y-18227055D02*
X9655777Y-18246103D01*
X9655777Y-18246103D02*
X9636730Y-18255627D01*
X9874825Y-18198484D02*
X9893872Y-18198484D01*
X9893872Y-18198484D02*
X9912920Y-18208008D01*
X9912920Y-18208008D02*
X9922444Y-18217531D01*
X9922444Y-18217531D02*
X9931968Y-18236579D01*
X9931968Y-18236579D02*
X9941491Y-18274674D01*
X9941491Y-18274674D02*
X9941491Y-18322293D01*
X9941491Y-18322293D02*
X9931968Y-18360389D01*
X9931968Y-18360389D02*
X9922444Y-18379436D01*
X9922444Y-18379436D02*
X9912920Y-18388960D01*
X9912920Y-18388960D02*
X9893872Y-18398484D01*
X9893872Y-18398484D02*
X9874825Y-18398484D01*
X9874825Y-18398484D02*
X9855777Y-18388960D01*
X9855777Y-18388960D02*
X9846253Y-18379436D01*
X9846253Y-18379436D02*
X9836730Y-18360389D01*
X9836730Y-18360389D02*
X9827206Y-18322293D01*
X9827206Y-18322293D02*
X9827206Y-18274674D01*
X9827206Y-18274674D02*
X9836730Y-18236579D01*
X9836730Y-18236579D02*
X9846253Y-18217531D01*
X9846253Y-18217531D02*
X9855777Y-18208008D01*
X9855777Y-18208008D02*
X9874825Y-18198484D01*
X10179587Y-18398484D02*
X10179587Y-18198484D01*
X10265301Y-18398484D02*
X10265301Y-18293722D01*
X10265301Y-18293722D02*
X10255777Y-18274674D01*
X10255777Y-18274674D02*
X10236730Y-18265150D01*
X10236730Y-18265150D02*
X10208158Y-18265150D01*
X10208158Y-18265150D02*
X10189111Y-18274674D01*
X10189111Y-18274674D02*
X10179587Y-18284198D01*
X10389111Y-18398484D02*
X10370063Y-18388960D01*
X10370063Y-18388960D02*
X10360539Y-18379436D01*
X10360539Y-18379436D02*
X10351015Y-18360389D01*
X10351015Y-18360389D02*
X10351015Y-18303246D01*
X10351015Y-18303246D02*
X10360539Y-18284198D01*
X10360539Y-18284198D02*
X10370063Y-18274674D01*
X10370063Y-18274674D02*
X10389111Y-18265150D01*
X10389111Y-18265150D02*
X10417682Y-18265150D01*
X10417682Y-18265150D02*
X10436730Y-18274674D01*
X10436730Y-18274674D02*
X10446253Y-18284198D01*
X10446253Y-18284198D02*
X10455777Y-18303246D01*
X10455777Y-18303246D02*
X10455777Y-18360389D01*
X10455777Y-18360389D02*
X10446253Y-18379436D01*
X10446253Y-18379436D02*
X10436730Y-18388960D01*
X10436730Y-18388960D02*
X10417682Y-18398484D01*
X10417682Y-18398484D02*
X10389111Y-18398484D01*
X10570063Y-18398484D02*
X10551015Y-18388960D01*
X10551015Y-18388960D02*
X10541492Y-18369912D01*
X10541492Y-18369912D02*
X10541492Y-18198484D01*
X10722444Y-18388960D02*
X10703396Y-18398484D01*
X10703396Y-18398484D02*
X10665301Y-18398484D01*
X10665301Y-18398484D02*
X10646253Y-18388960D01*
X10646253Y-18388960D02*
X10636730Y-18369912D01*
X10636730Y-18369912D02*
X10636730Y-18293722D01*
X10636730Y-18293722D02*
X10646253Y-18274674D01*
X10646253Y-18274674D02*
X10665301Y-18265150D01*
X10665301Y-18265150D02*
X10703396Y-18265150D01*
X10703396Y-18265150D02*
X10722444Y-18274674D01*
X10722444Y-18274674D02*
X10731968Y-18293722D01*
X10731968Y-18293722D02*
X10731968Y-18312770D01*
X10731968Y-18312770D02*
X10636730Y-18331817D01*
X10808158Y-18388960D02*
X10827206Y-18398484D01*
X10827206Y-18398484D02*
X10865301Y-18398484D01*
X10865301Y-18398484D02*
X10884349Y-18388960D01*
X10884349Y-18388960D02*
X10893873Y-18369912D01*
X10893873Y-18369912D02*
X10893873Y-18360389D01*
X10893873Y-18360389D02*
X10884349Y-18341341D01*
X10884349Y-18341341D02*
X10865301Y-18331817D01*
X10865301Y-18331817D02*
X10836730Y-18331817D01*
X10836730Y-18331817D02*
X10817682Y-18322293D01*
X10817682Y-18322293D02*
X10808158Y-18303246D01*
X10808158Y-18303246D02*
X10808158Y-18293722D01*
X10808158Y-18293722D02*
X10817682Y-18274674D01*
X10817682Y-18274674D02*
X10836730Y-18265150D01*
X10836730Y-18265150D02*
X10865301Y-18265150D01*
X10865301Y-18265150D02*
X10884349Y-18274674D01*
X10960539Y-18474674D02*
X10970063Y-18465150D01*
X10970063Y-18465150D02*
X10989111Y-18436579D01*
X10989111Y-18436579D02*
X10998634Y-18417531D01*
X10998634Y-18417531D02*
X11008158Y-18388960D01*
X11008158Y-18388960D02*
X11017682Y-18341341D01*
X11017682Y-18341341D02*
X11017682Y-18303246D01*
X11017682Y-18303246D02*
X11008158Y-18255627D01*
X11008158Y-18255627D02*
X10998634Y-18227055D01*
X10998634Y-18227055D02*
X10989111Y-18208008D01*
X10989111Y-18208008D02*
X10970063Y-18179436D01*
X10970063Y-18179436D02*
X10960539Y-18169912D01*
M02*
