%TF.GenerationSoftware,KiCad,Pcbnew,8.0.3-8.0.3-0~ubuntu22.04.1*%
%TF.CreationDate,2024-07-10T15:47:34+03:00*%
%TF.ProjectId,supply-uv,73757070-6c79-42d7-9576-2e6b69636164,rev?*%
%TF.SameCoordinates,Original*%
%TF.FileFunction,Drillmap*%
%TF.FilePolarity,Positive*%
%FSLAX45Y45*%
G04 Gerber Fmt 4.5, Leading zero omitted, Abs format (unit mm)*
G04 Created by KiCad (PCBNEW 8.0.3-8.0.3-0~ubuntu22.04.1) date 2024-07-10 15:47:34*
%MOMM*%
%LPD*%
G01*
G04 APERTURE LIST*
%ADD10C,0.100000*%
%ADD11C,0.200000*%
%ADD12C,0.220000*%
G04 APERTURE END LIST*
D10*
X3010000Y-5100000D02*
X18010000Y-5100000D01*
X18010000Y-25100000D01*
X3010000Y-25100000D01*
X3010000Y-5100000D01*
D11*
D12*
X3400000Y-11490000D02*
X3620000Y-11710000D01*
X3620000Y-11490000D02*
X3400000Y-11710000D01*
X6700000Y-8590000D02*
X6920000Y-8810000D01*
X6920000Y-8590000D02*
X6700000Y-8810000D01*
X7200000Y-16190000D02*
X7420000Y-16410000D01*
X7420000Y-16190000D02*
X7200000Y-16410000D01*
X10000000Y-24390000D02*
X10220000Y-24610000D01*
X10220000Y-24390000D02*
X10000000Y-24610000D01*
X10400000Y-11890000D02*
X10620000Y-12110000D01*
X10620000Y-11890000D02*
X10400000Y-12110000D01*
X12600000Y-14990000D02*
X12820000Y-15210000D01*
X12820000Y-14990000D02*
X12600000Y-15210000D01*
X14200000Y-10790000D02*
X14420000Y-11010000D01*
X14420000Y-10790000D02*
X14200000Y-11010000D01*
D11*
X3265777Y-25416484D02*
X3265777Y-25216484D01*
X3265777Y-25216484D02*
X3313396Y-25216484D01*
X3313396Y-25216484D02*
X3341967Y-25226008D01*
X3341967Y-25226008D02*
X3361015Y-25245055D01*
X3361015Y-25245055D02*
X3370539Y-25264103D01*
X3370539Y-25264103D02*
X3380062Y-25302198D01*
X3380062Y-25302198D02*
X3380062Y-25330769D01*
X3380062Y-25330769D02*
X3370539Y-25368865D01*
X3370539Y-25368865D02*
X3361015Y-25387912D01*
X3361015Y-25387912D02*
X3341967Y-25406960D01*
X3341967Y-25406960D02*
X3313396Y-25416484D01*
X3313396Y-25416484D02*
X3265777Y-25416484D01*
X3465777Y-25416484D02*
X3465777Y-25283150D01*
X3465777Y-25321246D02*
X3475301Y-25302198D01*
X3475301Y-25302198D02*
X3484824Y-25292674D01*
X3484824Y-25292674D02*
X3503872Y-25283150D01*
X3503872Y-25283150D02*
X3522920Y-25283150D01*
X3589586Y-25416484D02*
X3589586Y-25283150D01*
X3589586Y-25216484D02*
X3580062Y-25226008D01*
X3580062Y-25226008D02*
X3589586Y-25235531D01*
X3589586Y-25235531D02*
X3599110Y-25226008D01*
X3599110Y-25226008D02*
X3589586Y-25216484D01*
X3589586Y-25216484D02*
X3589586Y-25235531D01*
X3713396Y-25416484D02*
X3694348Y-25406960D01*
X3694348Y-25406960D02*
X3684824Y-25387912D01*
X3684824Y-25387912D02*
X3684824Y-25216484D01*
X3818158Y-25416484D02*
X3799110Y-25406960D01*
X3799110Y-25406960D02*
X3789586Y-25387912D01*
X3789586Y-25387912D02*
X3789586Y-25216484D01*
X4046729Y-25416484D02*
X4046729Y-25216484D01*
X4046729Y-25216484D02*
X4113396Y-25359341D01*
X4113396Y-25359341D02*
X4180062Y-25216484D01*
X4180062Y-25216484D02*
X4180062Y-25416484D01*
X4361015Y-25416484D02*
X4361015Y-25311722D01*
X4361015Y-25311722D02*
X4351491Y-25292674D01*
X4351491Y-25292674D02*
X4332444Y-25283150D01*
X4332444Y-25283150D02*
X4294348Y-25283150D01*
X4294348Y-25283150D02*
X4275301Y-25292674D01*
X4361015Y-25406960D02*
X4341967Y-25416484D01*
X4341967Y-25416484D02*
X4294348Y-25416484D01*
X4294348Y-25416484D02*
X4275301Y-25406960D01*
X4275301Y-25406960D02*
X4265777Y-25387912D01*
X4265777Y-25387912D02*
X4265777Y-25368865D01*
X4265777Y-25368865D02*
X4275301Y-25349817D01*
X4275301Y-25349817D02*
X4294348Y-25340293D01*
X4294348Y-25340293D02*
X4341967Y-25340293D01*
X4341967Y-25340293D02*
X4361015Y-25330769D01*
X4456253Y-25283150D02*
X4456253Y-25483150D01*
X4456253Y-25292674D02*
X4475301Y-25283150D01*
X4475301Y-25283150D02*
X4513396Y-25283150D01*
X4513396Y-25283150D02*
X4532444Y-25292674D01*
X4532444Y-25292674D02*
X4541967Y-25302198D01*
X4541967Y-25302198D02*
X4551491Y-25321246D01*
X4551491Y-25321246D02*
X4551491Y-25378388D01*
X4551491Y-25378388D02*
X4541967Y-25397436D01*
X4541967Y-25397436D02*
X4532444Y-25406960D01*
X4532444Y-25406960D02*
X4513396Y-25416484D01*
X4513396Y-25416484D02*
X4475301Y-25416484D01*
X4475301Y-25416484D02*
X4456253Y-25406960D01*
X4637205Y-25397436D02*
X4646729Y-25406960D01*
X4646729Y-25406960D02*
X4637205Y-25416484D01*
X4637205Y-25416484D02*
X4627682Y-25406960D01*
X4627682Y-25406960D02*
X4637205Y-25397436D01*
X4637205Y-25397436D02*
X4637205Y-25416484D01*
X4637205Y-25292674D02*
X4646729Y-25302198D01*
X4646729Y-25302198D02*
X4637205Y-25311722D01*
X4637205Y-25311722D02*
X4627682Y-25302198D01*
X4627682Y-25302198D02*
X4637205Y-25292674D01*
X4637205Y-25292674D02*
X4637205Y-25311722D01*
X2805000Y-25645000D02*
X3005000Y-25845000D01*
X3005000Y-25645000D02*
X2805000Y-25845000D01*
X3256253Y-25655531D02*
X3265777Y-25646008D01*
X3265777Y-25646008D02*
X3284824Y-25636484D01*
X3284824Y-25636484D02*
X3332443Y-25636484D01*
X3332443Y-25636484D02*
X3351491Y-25646008D01*
X3351491Y-25646008D02*
X3361015Y-25655531D01*
X3361015Y-25655531D02*
X3370539Y-25674579D01*
X3370539Y-25674579D02*
X3370539Y-25693627D01*
X3370539Y-25693627D02*
X3361015Y-25722198D01*
X3361015Y-25722198D02*
X3246729Y-25836484D01*
X3246729Y-25836484D02*
X3370539Y-25836484D01*
X3456253Y-25817436D02*
X3465777Y-25826960D01*
X3465777Y-25826960D02*
X3456253Y-25836484D01*
X3456253Y-25836484D02*
X3446729Y-25826960D01*
X3446729Y-25826960D02*
X3456253Y-25817436D01*
X3456253Y-25817436D02*
X3456253Y-25836484D01*
X3541967Y-25655531D02*
X3551491Y-25646008D01*
X3551491Y-25646008D02*
X3570539Y-25636484D01*
X3570539Y-25636484D02*
X3618158Y-25636484D01*
X3618158Y-25636484D02*
X3637205Y-25646008D01*
X3637205Y-25646008D02*
X3646729Y-25655531D01*
X3646729Y-25655531D02*
X3656253Y-25674579D01*
X3656253Y-25674579D02*
X3656253Y-25693627D01*
X3656253Y-25693627D02*
X3646729Y-25722198D01*
X3646729Y-25722198D02*
X3532443Y-25836484D01*
X3532443Y-25836484D02*
X3656253Y-25836484D01*
X3780062Y-25636484D02*
X3799110Y-25636484D01*
X3799110Y-25636484D02*
X3818158Y-25646008D01*
X3818158Y-25646008D02*
X3827682Y-25655531D01*
X3827682Y-25655531D02*
X3837205Y-25674579D01*
X3837205Y-25674579D02*
X3846729Y-25712674D01*
X3846729Y-25712674D02*
X3846729Y-25760293D01*
X3846729Y-25760293D02*
X3837205Y-25798388D01*
X3837205Y-25798388D02*
X3827682Y-25817436D01*
X3827682Y-25817436D02*
X3818158Y-25826960D01*
X3818158Y-25826960D02*
X3799110Y-25836484D01*
X3799110Y-25836484D02*
X3780062Y-25836484D01*
X3780062Y-25836484D02*
X3761015Y-25826960D01*
X3761015Y-25826960D02*
X3751491Y-25817436D01*
X3751491Y-25817436D02*
X3741967Y-25798388D01*
X3741967Y-25798388D02*
X3732443Y-25760293D01*
X3732443Y-25760293D02*
X3732443Y-25712674D01*
X3732443Y-25712674D02*
X3741967Y-25674579D01*
X3741967Y-25674579D02*
X3751491Y-25655531D01*
X3751491Y-25655531D02*
X3761015Y-25646008D01*
X3761015Y-25646008D02*
X3780062Y-25636484D01*
X3970539Y-25636484D02*
X3989586Y-25636484D01*
X3989586Y-25636484D02*
X4008634Y-25646008D01*
X4008634Y-25646008D02*
X4018158Y-25655531D01*
X4018158Y-25655531D02*
X4027682Y-25674579D01*
X4027682Y-25674579D02*
X4037205Y-25712674D01*
X4037205Y-25712674D02*
X4037205Y-25760293D01*
X4037205Y-25760293D02*
X4027682Y-25798388D01*
X4027682Y-25798388D02*
X4018158Y-25817436D01*
X4018158Y-25817436D02*
X4008634Y-25826960D01*
X4008634Y-25826960D02*
X3989586Y-25836484D01*
X3989586Y-25836484D02*
X3970539Y-25836484D01*
X3970539Y-25836484D02*
X3951491Y-25826960D01*
X3951491Y-25826960D02*
X3941967Y-25817436D01*
X3941967Y-25817436D02*
X3932443Y-25798388D01*
X3932443Y-25798388D02*
X3922920Y-25760293D01*
X3922920Y-25760293D02*
X3922920Y-25712674D01*
X3922920Y-25712674D02*
X3932443Y-25674579D01*
X3932443Y-25674579D02*
X3941967Y-25655531D01*
X3941967Y-25655531D02*
X3951491Y-25646008D01*
X3951491Y-25646008D02*
X3970539Y-25636484D01*
X4122920Y-25836484D02*
X4122920Y-25703150D01*
X4122920Y-25722198D02*
X4132443Y-25712674D01*
X4132443Y-25712674D02*
X4151491Y-25703150D01*
X4151491Y-25703150D02*
X4180063Y-25703150D01*
X4180063Y-25703150D02*
X4199110Y-25712674D01*
X4199110Y-25712674D02*
X4208634Y-25731722D01*
X4208634Y-25731722D02*
X4208634Y-25836484D01*
X4208634Y-25731722D02*
X4218158Y-25712674D01*
X4218158Y-25712674D02*
X4237205Y-25703150D01*
X4237205Y-25703150D02*
X4265777Y-25703150D01*
X4265777Y-25703150D02*
X4284825Y-25712674D01*
X4284825Y-25712674D02*
X4294348Y-25731722D01*
X4294348Y-25731722D02*
X4294348Y-25836484D01*
X4389586Y-25836484D02*
X4389586Y-25703150D01*
X4389586Y-25722198D02*
X4399110Y-25712674D01*
X4399110Y-25712674D02*
X4418158Y-25703150D01*
X4418158Y-25703150D02*
X4446729Y-25703150D01*
X4446729Y-25703150D02*
X4465777Y-25712674D01*
X4465777Y-25712674D02*
X4475301Y-25731722D01*
X4475301Y-25731722D02*
X4475301Y-25836484D01*
X4475301Y-25731722D02*
X4484825Y-25712674D01*
X4484825Y-25712674D02*
X4503872Y-25703150D01*
X4503872Y-25703150D02*
X4532444Y-25703150D01*
X4532444Y-25703150D02*
X4551491Y-25712674D01*
X4551491Y-25712674D02*
X4561015Y-25731722D01*
X4561015Y-25731722D02*
X4561015Y-25836484D01*
X4951491Y-25626960D02*
X4780063Y-25884103D01*
X5208634Y-25636484D02*
X5227682Y-25636484D01*
X5227682Y-25636484D02*
X5246729Y-25646008D01*
X5246729Y-25646008D02*
X5256253Y-25655531D01*
X5256253Y-25655531D02*
X5265777Y-25674579D01*
X5265777Y-25674579D02*
X5275301Y-25712674D01*
X5275301Y-25712674D02*
X5275301Y-25760293D01*
X5275301Y-25760293D02*
X5265777Y-25798388D01*
X5265777Y-25798388D02*
X5256253Y-25817436D01*
X5256253Y-25817436D02*
X5246729Y-25826960D01*
X5246729Y-25826960D02*
X5227682Y-25836484D01*
X5227682Y-25836484D02*
X5208634Y-25836484D01*
X5208634Y-25836484D02*
X5189587Y-25826960D01*
X5189587Y-25826960D02*
X5180063Y-25817436D01*
X5180063Y-25817436D02*
X5170539Y-25798388D01*
X5170539Y-25798388D02*
X5161015Y-25760293D01*
X5161015Y-25760293D02*
X5161015Y-25712674D01*
X5161015Y-25712674D02*
X5170539Y-25674579D01*
X5170539Y-25674579D02*
X5180063Y-25655531D01*
X5180063Y-25655531D02*
X5189587Y-25646008D01*
X5189587Y-25646008D02*
X5208634Y-25636484D01*
X5361015Y-25817436D02*
X5370539Y-25826960D01*
X5370539Y-25826960D02*
X5361015Y-25836484D01*
X5361015Y-25836484D02*
X5351491Y-25826960D01*
X5351491Y-25826960D02*
X5361015Y-25817436D01*
X5361015Y-25817436D02*
X5361015Y-25836484D01*
X5494348Y-25636484D02*
X5513396Y-25636484D01*
X5513396Y-25636484D02*
X5532444Y-25646008D01*
X5532444Y-25646008D02*
X5541968Y-25655531D01*
X5541968Y-25655531D02*
X5551491Y-25674579D01*
X5551491Y-25674579D02*
X5561015Y-25712674D01*
X5561015Y-25712674D02*
X5561015Y-25760293D01*
X5561015Y-25760293D02*
X5551491Y-25798388D01*
X5551491Y-25798388D02*
X5541968Y-25817436D01*
X5541968Y-25817436D02*
X5532444Y-25826960D01*
X5532444Y-25826960D02*
X5513396Y-25836484D01*
X5513396Y-25836484D02*
X5494348Y-25836484D01*
X5494348Y-25836484D02*
X5475301Y-25826960D01*
X5475301Y-25826960D02*
X5465777Y-25817436D01*
X5465777Y-25817436D02*
X5456253Y-25798388D01*
X5456253Y-25798388D02*
X5446729Y-25760293D01*
X5446729Y-25760293D02*
X5446729Y-25712674D01*
X5446729Y-25712674D02*
X5456253Y-25674579D01*
X5456253Y-25674579D02*
X5465777Y-25655531D01*
X5465777Y-25655531D02*
X5475301Y-25646008D01*
X5475301Y-25646008D02*
X5494348Y-25636484D01*
X5675301Y-25722198D02*
X5656253Y-25712674D01*
X5656253Y-25712674D02*
X5646729Y-25703150D01*
X5646729Y-25703150D02*
X5637206Y-25684103D01*
X5637206Y-25684103D02*
X5637206Y-25674579D01*
X5637206Y-25674579D02*
X5646729Y-25655531D01*
X5646729Y-25655531D02*
X5656253Y-25646008D01*
X5656253Y-25646008D02*
X5675301Y-25636484D01*
X5675301Y-25636484D02*
X5713396Y-25636484D01*
X5713396Y-25636484D02*
X5732444Y-25646008D01*
X5732444Y-25646008D02*
X5741967Y-25655531D01*
X5741967Y-25655531D02*
X5751491Y-25674579D01*
X5751491Y-25674579D02*
X5751491Y-25684103D01*
X5751491Y-25684103D02*
X5741967Y-25703150D01*
X5741967Y-25703150D02*
X5732444Y-25712674D01*
X5732444Y-25712674D02*
X5713396Y-25722198D01*
X5713396Y-25722198D02*
X5675301Y-25722198D01*
X5675301Y-25722198D02*
X5656253Y-25731722D01*
X5656253Y-25731722D02*
X5646729Y-25741246D01*
X5646729Y-25741246D02*
X5637206Y-25760293D01*
X5637206Y-25760293D02*
X5637206Y-25798388D01*
X5637206Y-25798388D02*
X5646729Y-25817436D01*
X5646729Y-25817436D02*
X5656253Y-25826960D01*
X5656253Y-25826960D02*
X5675301Y-25836484D01*
X5675301Y-25836484D02*
X5713396Y-25836484D01*
X5713396Y-25836484D02*
X5732444Y-25826960D01*
X5732444Y-25826960D02*
X5741967Y-25817436D01*
X5741967Y-25817436D02*
X5751491Y-25798388D01*
X5751491Y-25798388D02*
X5751491Y-25760293D01*
X5751491Y-25760293D02*
X5741967Y-25741246D01*
X5741967Y-25741246D02*
X5732444Y-25731722D01*
X5732444Y-25731722D02*
X5713396Y-25722198D01*
X5922920Y-25636484D02*
X5884825Y-25636484D01*
X5884825Y-25636484D02*
X5865777Y-25646008D01*
X5865777Y-25646008D02*
X5856253Y-25655531D01*
X5856253Y-25655531D02*
X5837206Y-25684103D01*
X5837206Y-25684103D02*
X5827682Y-25722198D01*
X5827682Y-25722198D02*
X5827682Y-25798388D01*
X5827682Y-25798388D02*
X5837206Y-25817436D01*
X5837206Y-25817436D02*
X5846729Y-25826960D01*
X5846729Y-25826960D02*
X5865777Y-25836484D01*
X5865777Y-25836484D02*
X5903872Y-25836484D01*
X5903872Y-25836484D02*
X5922920Y-25826960D01*
X5922920Y-25826960D02*
X5932444Y-25817436D01*
X5932444Y-25817436D02*
X5941967Y-25798388D01*
X5941967Y-25798388D02*
X5941967Y-25750769D01*
X5941967Y-25750769D02*
X5932444Y-25731722D01*
X5932444Y-25731722D02*
X5922920Y-25722198D01*
X5922920Y-25722198D02*
X5903872Y-25712674D01*
X5903872Y-25712674D02*
X5865777Y-25712674D01*
X5865777Y-25712674D02*
X5846729Y-25722198D01*
X5846729Y-25722198D02*
X5837206Y-25731722D01*
X5837206Y-25731722D02*
X5827682Y-25750769D01*
X6113396Y-25636484D02*
X6075301Y-25636484D01*
X6075301Y-25636484D02*
X6056253Y-25646008D01*
X6056253Y-25646008D02*
X6046729Y-25655531D01*
X6046729Y-25655531D02*
X6027682Y-25684103D01*
X6027682Y-25684103D02*
X6018158Y-25722198D01*
X6018158Y-25722198D02*
X6018158Y-25798388D01*
X6018158Y-25798388D02*
X6027682Y-25817436D01*
X6027682Y-25817436D02*
X6037206Y-25826960D01*
X6037206Y-25826960D02*
X6056253Y-25836484D01*
X6056253Y-25836484D02*
X6094348Y-25836484D01*
X6094348Y-25836484D02*
X6113396Y-25826960D01*
X6113396Y-25826960D02*
X6122920Y-25817436D01*
X6122920Y-25817436D02*
X6132444Y-25798388D01*
X6132444Y-25798388D02*
X6132444Y-25750769D01*
X6132444Y-25750769D02*
X6122920Y-25731722D01*
X6122920Y-25731722D02*
X6113396Y-25722198D01*
X6113396Y-25722198D02*
X6094348Y-25712674D01*
X6094348Y-25712674D02*
X6056253Y-25712674D01*
X6056253Y-25712674D02*
X6037206Y-25722198D01*
X6037206Y-25722198D02*
X6027682Y-25731722D01*
X6027682Y-25731722D02*
X6018158Y-25750769D01*
X6208634Y-25636484D02*
X6208634Y-25674579D01*
X6284825Y-25636484D02*
X6284825Y-25674579D01*
X6580063Y-25912674D02*
X6570539Y-25903150D01*
X6570539Y-25903150D02*
X6551491Y-25874579D01*
X6551491Y-25874579D02*
X6541968Y-25855531D01*
X6541968Y-25855531D02*
X6532444Y-25826960D01*
X6532444Y-25826960D02*
X6522920Y-25779341D01*
X6522920Y-25779341D02*
X6522920Y-25741246D01*
X6522920Y-25741246D02*
X6532444Y-25693627D01*
X6532444Y-25693627D02*
X6541968Y-25665055D01*
X6541968Y-25665055D02*
X6551491Y-25646008D01*
X6551491Y-25646008D02*
X6570539Y-25617436D01*
X6570539Y-25617436D02*
X6580063Y-25607912D01*
X6637206Y-25636484D02*
X6770539Y-25636484D01*
X6770539Y-25636484D02*
X6684825Y-25836484D01*
X6999110Y-25836484D02*
X6999110Y-25636484D01*
X7084825Y-25836484D02*
X7084825Y-25731722D01*
X7084825Y-25731722D02*
X7075301Y-25712674D01*
X7075301Y-25712674D02*
X7056253Y-25703150D01*
X7056253Y-25703150D02*
X7027682Y-25703150D01*
X7027682Y-25703150D02*
X7008634Y-25712674D01*
X7008634Y-25712674D02*
X6999110Y-25722198D01*
X7208634Y-25836484D02*
X7189587Y-25826960D01*
X7189587Y-25826960D02*
X7180063Y-25817436D01*
X7180063Y-25817436D02*
X7170539Y-25798388D01*
X7170539Y-25798388D02*
X7170539Y-25741246D01*
X7170539Y-25741246D02*
X7180063Y-25722198D01*
X7180063Y-25722198D02*
X7189587Y-25712674D01*
X7189587Y-25712674D02*
X7208634Y-25703150D01*
X7208634Y-25703150D02*
X7237206Y-25703150D01*
X7237206Y-25703150D02*
X7256253Y-25712674D01*
X7256253Y-25712674D02*
X7265777Y-25722198D01*
X7265777Y-25722198D02*
X7275301Y-25741246D01*
X7275301Y-25741246D02*
X7275301Y-25798388D01*
X7275301Y-25798388D02*
X7265777Y-25817436D01*
X7265777Y-25817436D02*
X7256253Y-25826960D01*
X7256253Y-25826960D02*
X7237206Y-25836484D01*
X7237206Y-25836484D02*
X7208634Y-25836484D01*
X7389587Y-25836484D02*
X7370539Y-25826960D01*
X7370539Y-25826960D02*
X7361015Y-25807912D01*
X7361015Y-25807912D02*
X7361015Y-25636484D01*
X7541968Y-25826960D02*
X7522920Y-25836484D01*
X7522920Y-25836484D02*
X7484825Y-25836484D01*
X7484825Y-25836484D02*
X7465777Y-25826960D01*
X7465777Y-25826960D02*
X7456253Y-25807912D01*
X7456253Y-25807912D02*
X7456253Y-25731722D01*
X7456253Y-25731722D02*
X7465777Y-25712674D01*
X7465777Y-25712674D02*
X7484825Y-25703150D01*
X7484825Y-25703150D02*
X7522920Y-25703150D01*
X7522920Y-25703150D02*
X7541968Y-25712674D01*
X7541968Y-25712674D02*
X7551491Y-25731722D01*
X7551491Y-25731722D02*
X7551491Y-25750769D01*
X7551491Y-25750769D02*
X7456253Y-25769817D01*
X7627682Y-25826960D02*
X7646730Y-25836484D01*
X7646730Y-25836484D02*
X7684825Y-25836484D01*
X7684825Y-25836484D02*
X7703872Y-25826960D01*
X7703872Y-25826960D02*
X7713396Y-25807912D01*
X7713396Y-25807912D02*
X7713396Y-25798388D01*
X7713396Y-25798388D02*
X7703872Y-25779341D01*
X7703872Y-25779341D02*
X7684825Y-25769817D01*
X7684825Y-25769817D02*
X7656253Y-25769817D01*
X7656253Y-25769817D02*
X7637206Y-25760293D01*
X7637206Y-25760293D02*
X7627682Y-25741246D01*
X7627682Y-25741246D02*
X7627682Y-25731722D01*
X7627682Y-25731722D02*
X7637206Y-25712674D01*
X7637206Y-25712674D02*
X7656253Y-25703150D01*
X7656253Y-25703150D02*
X7684825Y-25703150D01*
X7684825Y-25703150D02*
X7703872Y-25712674D01*
X7780063Y-25912674D02*
X7789587Y-25903150D01*
X7789587Y-25903150D02*
X7808634Y-25874579D01*
X7808634Y-25874579D02*
X7818158Y-25855531D01*
X7818158Y-25855531D02*
X7827682Y-25826960D01*
X7827682Y-25826960D02*
X7837206Y-25779341D01*
X7837206Y-25779341D02*
X7837206Y-25741246D01*
X7837206Y-25741246D02*
X7827682Y-25693627D01*
X7827682Y-25693627D02*
X7818158Y-25665055D01*
X7818158Y-25665055D02*
X7808634Y-25646008D01*
X7808634Y-25646008D02*
X7789587Y-25617436D01*
X7789587Y-25617436D02*
X7780063Y-25607912D01*
X8141968Y-25912674D02*
X8132444Y-25903150D01*
X8132444Y-25903150D02*
X8113396Y-25874579D01*
X8113396Y-25874579D02*
X8103872Y-25855531D01*
X8103872Y-25855531D02*
X8094349Y-25826960D01*
X8094349Y-25826960D02*
X8084825Y-25779341D01*
X8084825Y-25779341D02*
X8084825Y-25741246D01*
X8084825Y-25741246D02*
X8094349Y-25693627D01*
X8094349Y-25693627D02*
X8103872Y-25665055D01*
X8103872Y-25665055D02*
X8113396Y-25646008D01*
X8113396Y-25646008D02*
X8132444Y-25617436D01*
X8132444Y-25617436D02*
X8141968Y-25607912D01*
X8218158Y-25703150D02*
X8218158Y-25836484D01*
X8218158Y-25722198D02*
X8227682Y-25712674D01*
X8227682Y-25712674D02*
X8246730Y-25703150D01*
X8246730Y-25703150D02*
X8275301Y-25703150D01*
X8275301Y-25703150D02*
X8294349Y-25712674D01*
X8294349Y-25712674D02*
X8303872Y-25731722D01*
X8303872Y-25731722D02*
X8303872Y-25836484D01*
X8427682Y-25836484D02*
X8408634Y-25826960D01*
X8408634Y-25826960D02*
X8399111Y-25817436D01*
X8399111Y-25817436D02*
X8389587Y-25798388D01*
X8389587Y-25798388D02*
X8389587Y-25741246D01*
X8389587Y-25741246D02*
X8399111Y-25722198D01*
X8399111Y-25722198D02*
X8408634Y-25712674D01*
X8408634Y-25712674D02*
X8427682Y-25703150D01*
X8427682Y-25703150D02*
X8456254Y-25703150D01*
X8456254Y-25703150D02*
X8475301Y-25712674D01*
X8475301Y-25712674D02*
X8484825Y-25722198D01*
X8484825Y-25722198D02*
X8494349Y-25741246D01*
X8494349Y-25741246D02*
X8494349Y-25798388D01*
X8494349Y-25798388D02*
X8484825Y-25817436D01*
X8484825Y-25817436D02*
X8475301Y-25826960D01*
X8475301Y-25826960D02*
X8456254Y-25836484D01*
X8456254Y-25836484D02*
X8427682Y-25836484D01*
X8551492Y-25703150D02*
X8627682Y-25703150D01*
X8580063Y-25636484D02*
X8580063Y-25807912D01*
X8580063Y-25807912D02*
X8589587Y-25826960D01*
X8589587Y-25826960D02*
X8608634Y-25836484D01*
X8608634Y-25836484D02*
X8627682Y-25836484D01*
X8846730Y-25703150D02*
X8846730Y-25903150D01*
X8846730Y-25712674D02*
X8865777Y-25703150D01*
X8865777Y-25703150D02*
X8903873Y-25703150D01*
X8903873Y-25703150D02*
X8922920Y-25712674D01*
X8922920Y-25712674D02*
X8932444Y-25722198D01*
X8932444Y-25722198D02*
X8941968Y-25741246D01*
X8941968Y-25741246D02*
X8941968Y-25798388D01*
X8941968Y-25798388D02*
X8932444Y-25817436D01*
X8932444Y-25817436D02*
X8922920Y-25826960D01*
X8922920Y-25826960D02*
X8903873Y-25836484D01*
X8903873Y-25836484D02*
X8865777Y-25836484D01*
X8865777Y-25836484D02*
X8846730Y-25826960D01*
X9056254Y-25836484D02*
X9037206Y-25826960D01*
X9037206Y-25826960D02*
X9027682Y-25807912D01*
X9027682Y-25807912D02*
X9027682Y-25636484D01*
X9218158Y-25836484D02*
X9218158Y-25731722D01*
X9218158Y-25731722D02*
X9208635Y-25712674D01*
X9208635Y-25712674D02*
X9189587Y-25703150D01*
X9189587Y-25703150D02*
X9151492Y-25703150D01*
X9151492Y-25703150D02*
X9132444Y-25712674D01*
X9218158Y-25826960D02*
X9199111Y-25836484D01*
X9199111Y-25836484D02*
X9151492Y-25836484D01*
X9151492Y-25836484D02*
X9132444Y-25826960D01*
X9132444Y-25826960D02*
X9122920Y-25807912D01*
X9122920Y-25807912D02*
X9122920Y-25788865D01*
X9122920Y-25788865D02*
X9132444Y-25769817D01*
X9132444Y-25769817D02*
X9151492Y-25760293D01*
X9151492Y-25760293D02*
X9199111Y-25760293D01*
X9199111Y-25760293D02*
X9218158Y-25750769D01*
X9284825Y-25703150D02*
X9361015Y-25703150D01*
X9313396Y-25636484D02*
X9313396Y-25807912D01*
X9313396Y-25807912D02*
X9322920Y-25826960D01*
X9322920Y-25826960D02*
X9341968Y-25836484D01*
X9341968Y-25836484D02*
X9361015Y-25836484D01*
X9503873Y-25826960D02*
X9484825Y-25836484D01*
X9484825Y-25836484D02*
X9446730Y-25836484D01*
X9446730Y-25836484D02*
X9427682Y-25826960D01*
X9427682Y-25826960D02*
X9418158Y-25807912D01*
X9418158Y-25807912D02*
X9418158Y-25731722D01*
X9418158Y-25731722D02*
X9427682Y-25712674D01*
X9427682Y-25712674D02*
X9446730Y-25703150D01*
X9446730Y-25703150D02*
X9484825Y-25703150D01*
X9484825Y-25703150D02*
X9503873Y-25712674D01*
X9503873Y-25712674D02*
X9513396Y-25731722D01*
X9513396Y-25731722D02*
X9513396Y-25750769D01*
X9513396Y-25750769D02*
X9418158Y-25769817D01*
X9684825Y-25836484D02*
X9684825Y-25636484D01*
X9684825Y-25826960D02*
X9665777Y-25836484D01*
X9665777Y-25836484D02*
X9627682Y-25836484D01*
X9627682Y-25836484D02*
X9608635Y-25826960D01*
X9608635Y-25826960D02*
X9599111Y-25817436D01*
X9599111Y-25817436D02*
X9589587Y-25798388D01*
X9589587Y-25798388D02*
X9589587Y-25741246D01*
X9589587Y-25741246D02*
X9599111Y-25722198D01*
X9599111Y-25722198D02*
X9608635Y-25712674D01*
X9608635Y-25712674D02*
X9627682Y-25703150D01*
X9627682Y-25703150D02*
X9665777Y-25703150D01*
X9665777Y-25703150D02*
X9684825Y-25712674D01*
X9761016Y-25912674D02*
X9770539Y-25903150D01*
X9770539Y-25903150D02*
X9789587Y-25874579D01*
X9789587Y-25874579D02*
X9799111Y-25855531D01*
X9799111Y-25855531D02*
X9808635Y-25826960D01*
X9808635Y-25826960D02*
X9818158Y-25779341D01*
X9818158Y-25779341D02*
X9818158Y-25741246D01*
X9818158Y-25741246D02*
X9808635Y-25693627D01*
X9808635Y-25693627D02*
X9799111Y-25665055D01*
X9799111Y-25665055D02*
X9789587Y-25646008D01*
X9789587Y-25646008D02*
X9770539Y-25617436D01*
X9770539Y-25617436D02*
X9761016Y-25607912D01*
M02*
