M48
; DRILL file {KiCad 8.0.3-8.0.3-0~ubuntu22.04.1} date 2024-07-10T15:47:35+0300
; FORMAT={-:-/ absolute / inch / decimal}
; #@! TF.CreationDate,2024-07-10T15:47:35+03:00
; #@! TF.GenerationSoftware,Kicad,Pcbnew,8.0.3-8.0.3-0~ubuntu22.04.1
; #@! TF.FileFunction,Plated,1,2,PTH
FMAT,2
INCH
; #@! TA.AperFunction,Plated,PTH,ViaDrill
T1C0.0157
; #@! TA.AperFunction,Plated,PTH,ComponentDrill
T2C0.0300
; #@! TA.AperFunction,Plated,PTH,ComponentDrill
T3C0.0315
; #@! TA.AperFunction,Plated,PTH,ComponentDrill
T4C0.0354
; #@! TA.AperFunction,Plated,PTH,ComponentDrill
T5C0.0374
; #@! TA.AperFunction,Plated,PTH,ComponentDrill
T6C0.0394
; #@! TA.AperFunction,Plated,PTH,ComponentDrill
T7C0.0433
; #@! TA.AperFunction,Plated,PTH,ComponentDrill
T8C0.0472
; #@! TA.AperFunction,Plated,PTH,ComponentDrill
T9C0.0512
; #@! TA.AperFunction,Plated,PTH,ComponentDrill
T10C0.0551
; #@! TA.AperFunction,Plated,PTH,ComponentDrill
T11C0.0591
; #@! TA.AperFunction,Plated,PTH,ComponentDrill
T12C0.0630
; #@! TA.AperFunction,Plated,PTH,ComponentDrill
T13C0.0827
%
G90
G05
T1
X1.4567Y-6.126
X1.752Y-8.9449
X1.752Y-8.9882
X1.752Y-9.0354
X1.7953Y-8.9409
X1.7953Y-8.9882
X1.7953Y-9.0354
X1.8386Y-8.9882
X1.8386Y-9.0394
X1.8425Y-8.9449
X2.1102Y-5.2008
X2.126Y-8.9921
X2.1299Y-8.9488
X2.1299Y-9.0354
X2.1614Y-5.2244
X2.1811Y-8.9488
X2.1811Y-8.9921
X2.185Y-9.0354
X2.2244Y-8.9921
X2.2283Y-8.9449
X2.2283Y-9.0394
X2.4567Y-5.189
X2.4567Y-5.3543
X2.7047Y-4.7283
X2.7067Y-5.2033
X2.7087Y-4.6811
X2.7087Y-4.7717
X2.7205Y-5.4331
X2.748Y-6.0984
X2.7559Y-4.6811
X2.7559Y-4.7283
X2.7559Y-4.7717
X2.7638Y-5.3661
X2.7657Y-5.1049
X2.8071Y-4.6811
X2.8071Y-4.7283
X2.811Y-4.7717
X2.9209Y-5.1531
X3.0591Y-5.8504
X3.0669Y-4.9331
X3.0846Y-5.3018
X3.2269Y-5.4041
X3.6614Y-4.5197
X3.878Y-4.0669
X3.9488Y-4.0669
X4.063Y-4.1378
X4.1772Y-5.6969
X4.2441Y-5.5394
X4.3543Y-4.2598
X4.4134Y-5.0591
X4.4331Y-5.189
X4.4331Y-5.252
X4.4803Y-5.6132
X4.6024Y-5.3858
X4.6102Y-5.0669
X4.7087Y-6.1929
X4.752Y-5.7874
X4.752Y-6.3228
X4.7756Y-5.2835
X4.815Y-6.0394
X4.9331Y-5.4921
X4.9882Y-5.189
X5.1063Y-4.8622
X5.1299Y-5.6299
X5.1575Y-5.0118
X5.1614Y-5.0866
X5.2955Y-5.4018
X5.3671Y-2.8543
X5.436Y-2.8642
X5.622Y-5.7244
X5.6412Y-2.8164
X5.8031Y-4.8189
X5.8189Y-5.8465
X5.9567Y-4.8307
X5.9567Y-4.9134
X5.9567Y-4.9961
X5.9685Y-5.685
X5.9764Y-4.5118
X6.0118Y-5.2362
X6.1614Y-5.0984
X6.1654Y-5.0512
X6.2165Y-5.1043
X6.2677Y-4.9016
X6.3071Y-4.9252
X6.311Y-5.3228
X6.4351Y-3.0768
X6.437Y-5.2559
X6.5Y-5.0236
X6.5827Y-5.2559
X6.5945Y-4.9764
X6.6063Y-4.7362
X6.7205Y-5.437
X6.7598Y-2.4449
X6.8846Y-4.1091
X7.0118Y-4.3858
T2
X1.248Y-3.3386
X1.3386Y-6.4213
X2.9331Y-5.7717
X3.9173Y-5.7205
X4.2244Y-5.6102
X5.1339Y-4.0394
X5.185Y-3.5079
X6.1535Y-3.4055
X6.3701Y-5.6969
X7.0079Y-3.8898
T3
X1.378Y-5.4567
X1.378Y-6.2441
X2.2352Y-3.6634
X2.2352Y-4.4508
X3.0167Y-7.2433
X3.0167Y-7.5433
X3.0384Y-3.6594
X3.0384Y-4.4469
X3.0404Y-2.4449
X3.1167Y-7.2433
X3.1167Y-7.5433
X3.1467Y-2.1496
X3.3297Y-2.4449
X3.436Y-2.1496
X3.6191Y-2.4449
X3.7254Y-2.1496
X3.7283Y-4.3701
X3.7283Y-4.4685
X3.9921Y-6.5551
X3.9921Y-7.3425
X4.3328Y-3.9843
X4.4646Y-2.0866
X4.4646Y-2.2835
X4.4706Y-3.9843
X4.5945Y-2.0744
X4.5945Y-2.3744
X4.5945Y-3.6024
X4.5945Y-3.7402
X4.6398Y-3.998
X4.6398Y-4.098
X4.8117Y-4.5984
X4.8465Y-4.1596
X4.8465Y-4.2973
X4.8961Y-2.8102
X4.8961Y-3.1102
X4.9101Y-4.5984
X4.9961Y-2.8102
X4.9961Y-3.1102
X5.3313Y-2.2283
X5.3352Y-2.0846
X5.3732Y-4.9817
X5.3732Y-5.0817
X5.3732Y-5.21
X5.3732Y-5.31
X5.5433Y-3.5758
X5.5433Y-3.6758
X5.5433Y-3.8031
X5.5433Y-3.9031
X5.6313Y-2.2283
X5.6352Y-2.0846
X5.6732Y-4.9817
X5.6732Y-5.0817
X5.6732Y-5.21
X5.6732Y-5.31
X5.8433Y-3.5758
X5.8433Y-3.6758
X5.8433Y-3.8031
X5.8433Y-3.9031
X6.3837Y-2.7974
X6.5215Y-2.7974
X6.7973Y-2.2087
X6.9351Y-2.2087
T4
X2.4817Y-9.0787
X2.5817Y-9.0787
X4.2608Y-3.7402
X4.3608Y-3.7402
X4.9Y-3.9488
X5.0Y-3.9488
X6.4459Y-3.8868
X6.5459Y-3.8868
X6.7846Y-4.6661
X6.7846Y-4.7661
X6.7846Y-4.8661
X6.7846Y-4.9661
X6.7846Y-5.0661
X6.7992Y-3.8858
X6.8846Y-4.6661
X6.8846Y-4.7661
X6.8846Y-4.8661
X6.8846Y-4.9661
X6.8846Y-5.0661
X6.8992Y-3.8858
T5
X6.1969Y-4.4921
X6.2953Y-4.4921
X6.3937Y-4.4921
X6.4921Y-4.4921
X6.8986Y-5.4252
X6.8986Y-5.5236
X6.8986Y-5.622
T6
X1.3504Y-9.0276
X1.5472Y-9.0276
X3.0128Y-3.2205
X3.4852Y-3.2205
X6.1125Y-4.0522
X6.1575Y-5.4606
X6.2559Y-5.4606
X6.3094Y-4.0522
X6.7717Y-3.3898
X6.9685Y-3.3898
T7
X1.6441Y-5.8758
X1.648Y-6.0844
X1.7441Y-5.8758
X1.748Y-6.0844
X1.8441Y-5.8758
X1.848Y-6.0844
X2.1969Y-5.8346
X2.1969Y-6.4252
X2.5197Y-5.8346
X2.5197Y-6.4252
X4.3504Y-7.2362
X4.3504Y-7.3362
X4.3504Y-7.4362
X4.3604Y-6.4748
X4.3604Y-6.5748
X4.3604Y-6.6748
X4.7283Y-2.0783
X4.7283Y-2.3783
X4.9472Y-2.3325
X5.0472Y-2.3325
X5.1472Y-2.3325
X5.3313Y-2.3661
X5.6313Y-2.3661
X6.4134Y-3.3543
X6.4134Y-3.4543
X6.4134Y-3.5543
X6.7528Y-2.6142
X6.8528Y-2.6142
X6.9528Y-2.6142
T8
X1.5276Y-4.9021
X1.5276Y-5.1974
X1.688Y-3.9105
X1.688Y-4.2058
X2.0039Y-9.3932
X2.0039Y-9.6885
X3.5231Y-5.0827
X3.7008Y-3.5281
X3.7008Y-3.8233
X3.7559Y-7.7972
X3.7559Y-8.6831
X3.8184Y-5.0827
X4.1841Y-2.9783
X4.1841Y-3.5689
X4.3465Y-7.7972
X4.3465Y-8.6831
X5.7205Y-5.9458
X5.7205Y-6.241
X6.3237Y-6.0945
X6.619Y-6.0945
T9
X3.0108Y-2.7382
X3.247Y-3.2972
X3.4852Y-2.7402
T10
X1.7022Y-3.3524
X1.9022Y-3.3524
X2.1022Y-3.3524
X2.3022Y-3.3524
X3.8061Y-2.7591
X3.8061Y-3.0492
T11
X2.0335Y-8.0579
X2.248Y-8.0579
X2.4626Y-8.0579
X5.5098Y-7.1843
X5.7244Y-7.1843
X5.939Y-7.1843
T12
X1.5102Y-6.8205
X1.5102Y-7.6205
X1.7102Y-6.8205
X1.7102Y-7.6205
X1.9102Y-6.8205
X1.9102Y-7.6205
X2.1102Y-6.8205
X2.1102Y-7.6205
X2.3102Y-6.8205
X2.3102Y-7.6205
X2.5102Y-6.8205
X2.5102Y-7.6205
X2.7102Y-6.8205
X2.7102Y-7.6205
X4.6002Y-2.5669
X4.6002Y-3.3669
X4.8002Y-2.5669
X4.8002Y-3.3669
X4.8858Y-3.5744
X4.8858Y-3.7244
X4.9835Y-7.785
X4.9835Y-7.985
X4.9835Y-8.185
X4.9835Y-8.385
X4.9835Y-8.585
X4.9835Y-8.785
X4.9835Y-8.985
X4.9835Y-9.185
X4.9835Y-9.385
X4.9835Y-9.585
X5.0002Y-2.5669
X5.0002Y-3.3669
X5.2002Y-2.5669
X5.2002Y-3.3669
X5.4002Y-2.5669
X5.4002Y-3.3669
X5.6002Y-2.5669
X5.6002Y-3.3669
X5.8002Y-2.5669
X5.8002Y-3.3669
X5.9998Y-2.748
X6.1498Y-2.748
X6.3502Y-2.1614
X6.5002Y-2.1614
X6.5835Y-7.785
X6.5835Y-7.985
X6.5835Y-8.185
X6.5835Y-8.385
X6.5835Y-8.585
X6.5835Y-8.785
X6.5835Y-8.985
X6.5835Y-9.185
X6.5835Y-9.385
X6.5835Y-9.585
T13
X3.1417Y-9.3858
X3.1417Y-9.622
X3.4528Y-9.3858
X3.4528Y-9.622
X4.1841Y-2.1319
X4.1841Y-2.439
X4.1841Y-2.7461
X5.2283Y-5.9843
X5.2283Y-6.2205
M30
