%TF.GenerationSoftware,KiCad,Pcbnew,8.0.3-8.0.3-0~ubuntu22.04.1*%
%TF.CreationDate,2024-07-10T15:47:32+03:00*%
%TF.ProjectId,supply-uv,73757070-6c79-42d7-9576-2e6b69636164,rev?*%
%TF.SameCoordinates,Original*%
%TF.FileFunction,Soldermask,Top*%
%TF.FilePolarity,Negative*%
%FSLAX46Y46*%
G04 Gerber Fmt 4.6, Leading zero omitted, Abs format (unit mm)*
G04 Created by KiCad (PCBNEW 8.0.3-8.0.3-0~ubuntu22.04.1) date 2024-07-10 15:47:32*
%MOMM*%
%LPD*%
G01*
G04 APERTURE LIST*
G04 Aperture macros list*
%AMRoundRect*
0 Rectangle with rounded corners*
0 $1 Rounding radius*
0 $2 $3 $4 $5 $6 $7 $8 $9 X,Y pos of 4 corners*
0 Add a 4 corners polygon primitive as box body*
4,1,4,$2,$3,$4,$5,$6,$7,$8,$9,$2,$3,0*
0 Add four circle primitives for the rounded corners*
1,1,$1+$1,$2,$3*
1,1,$1+$1,$4,$5*
1,1,$1+$1,$6,$7*
1,1,$1+$1,$8,$9*
0 Add four rect primitives between the rounded corners*
20,1,$1+$1,$2,$3,$4,$5,0*
20,1,$1+$1,$4,$5,$6,$7,0*
20,1,$1+$1,$6,$7,$8,$9,0*
20,1,$1+$1,$8,$9,$2,$3,0*%
%AMFreePoly0*
4,1,19,0.550000,-0.750000,0.000000,-0.750000,0.000000,-0.744911,-0.071157,-0.744911,-0.207708,-0.704816,-0.327430,-0.627875,-0.420627,-0.520320,-0.479746,-0.390866,-0.500000,-0.250000,-0.500000,0.250000,-0.479746,0.390866,-0.420627,0.520320,-0.327430,0.627875,-0.207708,0.704816,-0.071157,0.744911,0.000000,0.744911,0.000000,0.750000,0.550000,0.750000,0.550000,-0.750000,0.550000,-0.750000,
$1*%
%AMFreePoly1*
4,1,19,0.000000,0.744911,0.071157,0.744911,0.207708,0.704816,0.327430,0.627875,0.420627,0.520320,0.479746,0.390866,0.500000,0.250000,0.500000,-0.250000,0.479746,-0.390866,0.420627,-0.520320,0.327430,-0.627875,0.207708,-0.704816,0.071157,-0.744911,0.000000,-0.744911,0.000000,-0.750000,-0.550000,-0.750000,-0.550000,0.750000,0.000000,0.750000,0.000000,0.744911,0.000000,0.744911,
$1*%
%AMFreePoly2*
4,1,6,1.000000,0.000000,0.500000,-0.750000,-0.500000,-0.750000,-0.500000,0.750000,0.500000,0.750000,1.000000,0.000000,1.000000,0.000000,$1*%
%AMFreePoly3*
4,1,6,0.500000,-0.750000,-0.650000,-0.750000,-0.150000,0.000000,-0.650000,0.750000,0.500000,0.750000,0.500000,-0.750000,0.500000,-0.750000,$1*%
G04 Aperture macros list end*
%ADD10C,2.500000*%
%ADD11R,1.800000X1.800000*%
%ADD12C,1.800000*%
%ADD13C,1.524000*%
%ADD14RoundRect,0.250000X-0.262500X-0.450000X0.262500X-0.450000X0.262500X0.450000X-0.262500X0.450000X0*%
%ADD15R,2.400000X2.400000*%
%ADD16C,2.400000*%
%ADD17RoundRect,0.150000X-0.150000X0.825000X-0.150000X-0.825000X0.150000X-0.825000X0.150000X0.825000X0*%
%ADD18RoundRect,0.250000X0.650000X-1.000000X0.650000X1.000000X-0.650000X1.000000X-0.650000X-1.000000X0*%
%ADD19R,2.000000X1.905000*%
%ADD20O,2.000000X1.905000*%
%ADD21R,1.000000X1.000000*%
%ADD22RoundRect,0.250000X0.450000X-0.262500X0.450000X0.262500X-0.450000X0.262500X-0.450000X-0.262500X0*%
%ADD23C,1.600000*%
%ADD24R,1.600000X1.600000*%
%ADD25FreePoly0,90.000000*%
%ADD26R,1.500000X1.000000*%
%ADD27FreePoly1,90.000000*%
%ADD28RoundRect,0.250000X0.262500X0.450000X-0.262500X0.450000X-0.262500X-0.450000X0.262500X-0.450000X0*%
%ADD29RoundRect,0.250000X-0.325000X-1.100000X0.325000X-1.100000X0.325000X1.100000X-0.325000X1.100000X0*%
%ADD30R,2.500000X4.500000*%
%ADD31O,2.500000X4.500000*%
%ADD32RoundRect,0.249999X-1.300001X1.300001X-1.300001X-1.300001X1.300001X-1.300001X1.300001X1.300001X0*%
%ADD33C,3.100000*%
%ADD34RoundRect,0.225000X-0.225000X-0.250000X0.225000X-0.250000X0.225000X0.250000X-0.225000X0.250000X0*%
%ADD35C,2.200000*%
%ADD36RoundRect,0.250000X-1.000000X-0.650000X1.000000X-0.650000X1.000000X0.650000X-1.000000X0.650000X0*%
%ADD37RoundRect,0.250000X-0.537500X-0.425000X0.537500X-0.425000X0.537500X0.425000X-0.537500X0.425000X0*%
%ADD38RoundRect,0.150000X-0.587500X-0.150000X0.587500X-0.150000X0.587500X0.150000X-0.587500X0.150000X0*%
%ADD39O,1.600000X1.600000*%
%ADD40R,3.200000X3.200000*%
%ADD41O,3.200000X3.200000*%
%ADD42RoundRect,0.250000X0.600000X0.750000X-0.600000X0.750000X-0.600000X-0.750000X0.600000X-0.750000X0*%
%ADD43O,1.700000X2.000000*%
%ADD44RoundRect,0.250000X-1.400000X-1.000000X1.400000X-1.000000X1.400000X1.000000X-1.400000X1.000000X0*%
%ADD45R,1.905000X2.000000*%
%ADD46O,1.905000X2.000000*%
%ADD47RoundRect,0.250000X-0.625000X0.312500X-0.625000X-0.312500X0.625000X-0.312500X0.625000X0.312500X0*%
%ADD48R,2.000000X2.000000*%
%ADD49C,2.000000*%
%ADD50RoundRect,0.250000X-0.450000X0.262500X-0.450000X-0.262500X0.450000X-0.262500X0.450000X0.262500X0*%
%ADD51RoundRect,0.952500X-1.167500X-0.952500X1.167500X-0.952500X1.167500X0.952500X-1.167500X0.952500X0*%
%ADD52RoundRect,0.225000X0.225000X0.250000X-0.225000X0.250000X-0.225000X-0.250000X0.225000X-0.250000X0*%
%ADD53R,2.800000X2.800000*%
%ADD54C,2.800000*%
%ADD55R,3.500000X2.350000*%
%ADD56FreePoly2,270.000000*%
%ADD57FreePoly3,270.000000*%
%ADD58FreePoly2,180.000000*%
%ADD59FreePoly3,180.000000*%
%ADD60FreePoly2,0.000000*%
%ADD61FreePoly3,0.000000*%
%ADD62RoundRect,0.225000X-0.250000X0.225000X-0.250000X-0.225000X0.250000X-0.225000X0.250000X0.225000X0*%
%ADD63RoundRect,0.150000X-0.150000X0.587500X-0.150000X-0.587500X0.150000X-0.587500X0.150000X0.587500X0*%
%ADD64RoundRect,1.025000X1.025000X-1.025000X1.025000X1.025000X-1.025000X1.025000X-1.025000X-1.025000X0*%
%ADD65RoundRect,0.250000X-0.725000X0.600000X-0.725000X-0.600000X0.725000X-0.600000X0.725000X0.600000X0*%
%ADD66O,1.950000X1.700000*%
%ADD67RoundRect,0.225000X0.250000X-0.225000X0.250000X0.225000X-0.250000X0.225000X-0.250000X-0.225000X0*%
%ADD68R,2.200000X2.200000*%
%ADD69O,2.200000X2.200000*%
%ADD70R,2.350000X3.500000*%
%ADD71RoundRect,0.250000X0.600000X0.725000X-0.600000X0.725000X-0.600000X-0.725000X0.600000X-0.725000X0*%
%ADD72O,1.700000X1.950000*%
%ADD73RoundRect,0.150000X0.875000X0.150000X-0.875000X0.150000X-0.875000X-0.150000X0.875000X-0.150000X0*%
%ADD74RoundRect,0.952500X-0.952500X1.167500X-0.952500X-1.167500X0.952500X-1.167500X0.952500X1.167500X0*%
%ADD75RoundRect,0.250002X-1.699998X1.699998X-1.699998X-1.699998X1.699998X-1.699998X1.699998X1.699998X0*%
%ADD76C,3.900000*%
%ADD77C,1.400000*%
%ADD78C,3.000000*%
G04 APERTURE END LIST*
D10*
%TO.C,TR2*%
X38360000Y-193560000D03*
X38360000Y-173240000D03*
X43440000Y-193560000D03*
X43440000Y-173240000D03*
X48520000Y-193560000D03*
X48520000Y-173240000D03*
X53600000Y-193560000D03*
X53600000Y-173240000D03*
X58680000Y-193560000D03*
X58680000Y-173240000D03*
X63760000Y-193560000D03*
X63760000Y-173240000D03*
X68840000Y-193560000D03*
X68840000Y-173240000D03*
%TD*%
D11*
%TO.C,D18*%
X65575000Y-230600000D03*
D12*
X63035000Y-230600000D03*
%TD*%
D13*
%TO.C,TP3*%
X131700000Y-89100000D03*
%TD*%
D14*
%TO.C,R34*%
X70337500Y-129665000D03*
X72162500Y-129665000D03*
%TD*%
D11*
%TO.C,D13*%
X127000000Y-100300000D03*
D12*
X124460000Y-100300000D03*
%TD*%
D15*
%TO.C,C68*%
X160622220Y-154800000D03*
D16*
X168122220Y-154800000D03*
%TD*%
D13*
%TO.C,TP6*%
X156300000Y-86500000D03*
%TD*%
D17*
%TO.C,U18*%
X113805000Y-144725000D03*
X112535000Y-144725000D03*
X111265000Y-144725000D03*
X109995000Y-144725000D03*
X109995000Y-149675000D03*
X111265000Y-149675000D03*
X112535000Y-149675000D03*
X113805000Y-149675000D03*
%TD*%
D12*
%TO.C,R25*%
X79925000Y-54600000D03*
X77225000Y-62100000D03*
%TD*%
D18*
%TO.C,D20*%
X116500000Y-149200000D03*
X116500000Y-145200000D03*
%TD*%
D19*
%TO.C,Q10*%
X110500000Y-183800000D03*
D20*
X110500000Y-186340000D03*
X110500000Y-188880000D03*
%TD*%
D21*
%TO.C,TP22*%
X129700000Y-123400000D03*
%TD*%
%TO.C,TP13*%
X62400000Y-136000000D03*
%TD*%
D22*
%TO.C,R57*%
X133100000Y-126512500D03*
X133100000Y-124687500D03*
%TD*%
D13*
%TO.C,TP29*%
X161800000Y-144700000D03*
%TD*%
D23*
%TO.C,C7*%
X113400000Y-53000000D03*
X113400000Y-58000000D03*
%TD*%
D24*
%TO.C,C53*%
X122217621Y-116800000D03*
D23*
X124717621Y-116800000D03*
%TD*%
D25*
%TO.C,JP7*%
X133300000Y-141600000D03*
D26*
X133300000Y-140300000D03*
D27*
X133300000Y-139000000D03*
%TD*%
D28*
%TO.C,R39*%
X46912500Y-143900000D03*
X45087500Y-143900000D03*
%TD*%
D29*
%TO.C,C12*%
X173925000Y-62500000D03*
X176875000Y-62500000D03*
%TD*%
D22*
%TO.C,R75*%
X155300000Y-132712500D03*
X155300000Y-130887500D03*
%TD*%
D30*
%TO.C,D16*%
X51650000Y-204670000D03*
D31*
X57100000Y-204670000D03*
X62550000Y-204670000D03*
%TD*%
D32*
%TO.C,J2*%
X87700000Y-238400000D03*
D33*
X87700000Y-244400000D03*
%TD*%
D34*
%TO.C,C39*%
X74125000Y-127500000D03*
X75675000Y-127500000D03*
%TD*%
D24*
%TO.C,C15*%
X165645075Y-71054924D03*
D23*
X162145075Y-71054924D03*
%TD*%
D35*
%TO.C,H4*%
X35100000Y-116000000D03*
%TD*%
D13*
%TO.C,TP1*%
X31700000Y-84800000D03*
%TD*%
D21*
%TO.C,TP19*%
X64200000Y-142500000D03*
%TD*%
D13*
%TO.C,TP23*%
X107300000Y-142500000D03*
%TD*%
D22*
%TO.C,R15*%
X102100000Y-105112500D03*
X102100000Y-103287500D03*
%TD*%
D21*
%TO.C,TP21*%
X110200000Y-136400000D03*
%TD*%
D13*
%TO.C,TP16*%
X34000000Y-163100000D03*
%TD*%
D36*
%TO.C,D8*%
X172600000Y-94100000D03*
X176600000Y-94100000D03*
%TD*%
D35*
%TO.C,H2*%
X143100000Y-109000000D03*
%TD*%
D17*
%TO.C,U13*%
X55805000Y-134625000D03*
X54535000Y-134625000D03*
X53265000Y-134625000D03*
X51995000Y-134625000D03*
X51995000Y-139575000D03*
X53265000Y-139575000D03*
X54535000Y-139575000D03*
X55805000Y-139575000D03*
%TD*%
D28*
%TO.C,R40*%
X46812500Y-141900000D03*
X44987500Y-141900000D03*
%TD*%
D37*
%TO.C,C18*%
X171162500Y-71200000D03*
X174037500Y-71200000D03*
%TD*%
D32*
%TO.C,J3*%
X79800000Y-238400000D03*
D33*
X79800000Y-244400000D03*
%TD*%
D38*
%TO.C,U7*%
X104362500Y-103250000D03*
X104362500Y-105150000D03*
X106237500Y-104200000D03*
%TD*%
D23*
%TO.C,C45*%
X35000000Y-158600000D03*
D39*
X35000000Y-138600000D03*
%TD*%
D21*
%TO.C,TP35*%
X152700000Y-130800000D03*
%TD*%
D40*
%TO.C,D5*%
X124100000Y-94600000D03*
D41*
X124100000Y-90790000D03*
%TD*%
D28*
%TO.C,R3*%
X138412500Y-95100000D03*
X136587500Y-95100000D03*
%TD*%
D42*
%TO.C,SW1*%
X158900000Y-138700000D03*
D43*
X156400000Y-138700000D03*
%TD*%
D15*
%TO.C,C3*%
X94000000Y-97112755D03*
D16*
X94000000Y-89612755D03*
%TD*%
D44*
%TO.C,D17*%
X63800000Y-238600000D03*
X63800000Y-245400000D03*
%TD*%
D40*
%TO.C,D6*%
X156205000Y-69800000D03*
D41*
X152395000Y-69800000D03*
%TD*%
D45*
%TO.C,Q5*%
X41760000Y-149245000D03*
D46*
X44300000Y-149245000D03*
X46840000Y-149245000D03*
%TD*%
D35*
%TO.C,H6*%
X127100000Y-151000000D03*
%TD*%
D24*
%TO.C,U3*%
X140800000Y-96600000D03*
D39*
X140800000Y-99140000D03*
X148420000Y-99140000D03*
X148420000Y-96600000D03*
%TD*%
D47*
%TO.C,RV2*%
X69200000Y-240437500D03*
X69200000Y-243362500D03*
%TD*%
D35*
%TO.C,H7*%
X73100000Y-163000000D03*
%TD*%
D14*
%TO.C,R70*%
X167187500Y-135400000D03*
X169012500Y-135400000D03*
%TD*%
D48*
%TO.C,C22*%
X160257677Y-102925000D03*
D49*
X155257677Y-102925000D03*
%TD*%
D11*
%TO.C,D10*%
X166265000Y-98725000D03*
D12*
X163725000Y-98725000D03*
%TD*%
D50*
%TO.C,R68*%
X159700000Y-130987500D03*
X159700000Y-132812500D03*
%TD*%
D14*
%TO.C,R73*%
X168287500Y-143800000D03*
X170112500Y-143800000D03*
%TD*%
D22*
%TO.C,R61*%
X146600000Y-134912500D03*
X146600000Y-133087500D03*
%TD*%
D50*
%TO.C,R35*%
X76900000Y-129987500D03*
X76900000Y-131812500D03*
%TD*%
D13*
%TO.C,TP24*%
X99500000Y-145300000D03*
%TD*%
D21*
%TO.C,TP32*%
X151300000Y-122700000D03*
%TD*%
D35*
%TO.C,H5*%
X68100000Y-87000000D03*
%TD*%
D51*
%TO.C,F3*%
X63675000Y-112000000D03*
X70085000Y-112000000D03*
%TD*%
D24*
%TO.C,U4*%
X140800000Y-90825000D03*
D39*
X140800000Y-93365000D03*
X148420000Y-93365000D03*
X148420000Y-90825000D03*
%TD*%
D16*
%TO.C,C63*%
X95400000Y-220550000D03*
X95400000Y-198050000D03*
%TD*%
D22*
%TO.C,R63*%
X134100000Y-132312500D03*
X134100000Y-130487500D03*
%TD*%
D52*
%TO.C,C40*%
X54975000Y-130400000D03*
X53425000Y-130400000D03*
%TD*%
D53*
%TO.C,D1*%
X43235000Y-85150000D03*
D54*
X48315000Y-85150000D03*
X53395000Y-85150000D03*
X58475000Y-85150000D03*
%TD*%
%TO.C,RV1*%
X96675000Y-70080000D03*
X96675000Y-77450000D03*
%TD*%
D21*
%TO.C,TP7*%
X172800000Y-104800000D03*
%TD*%
D23*
%TO.C,R5*%
X143035000Y-56600000D03*
D39*
X135415000Y-56600000D03*
%TD*%
D55*
%TO.C,L1*%
X154200000Y-89275000D03*
X154200000Y-95325000D03*
%TD*%
D35*
%TO.C,C44*%
X64000000Y-148200000D03*
X64000000Y-163200000D03*
%TD*%
D18*
%TO.C,D15*%
X58600000Y-139400000D03*
X58600000Y-135400000D03*
%TD*%
D11*
%TO.C,J6*%
X172330000Y-118520000D03*
D12*
X174870000Y-118520000D03*
X172330000Y-121060000D03*
X174870000Y-121060000D03*
X172330000Y-123600000D03*
X174870000Y-123600000D03*
X172330000Y-126140000D03*
X174870000Y-126140000D03*
X172330000Y-128680000D03*
X174870000Y-128680000D03*
%TD*%
D56*
%TO.C,JP4*%
X176000000Y-101775000D03*
D57*
X176000000Y-103225000D03*
%TD*%
D35*
%TO.C,H1*%
X101100000Y-245000000D03*
%TD*%
D40*
%TO.C,D7*%
X165105000Y-54900000D03*
D41*
X161295000Y-54900000D03*
%TD*%
D19*
%TO.C,Q11*%
X110755000Y-164460000D03*
D20*
X110755000Y-167000000D03*
X110755000Y-169540000D03*
%TD*%
D21*
%TO.C,TP18*%
X39800000Y-144500000D03*
%TD*%
D52*
%TO.C,C56*%
X124275000Y-112500000D03*
X122725000Y-112500000D03*
%TD*%
D24*
%TO.C,U19*%
X144100000Y-134875000D03*
D39*
X144100000Y-132335000D03*
X136480000Y-132335000D03*
X136480000Y-134875000D03*
%TD*%
D11*
%TO.C,D11*%
X172700000Y-98700000D03*
D12*
X175240000Y-98700000D03*
%TD*%
D58*
%TO.C,JP1*%
X116025000Y-113000000D03*
D59*
X114575000Y-113000000D03*
%TD*%
D30*
%TO.C,D21*%
X150850000Y-182480000D03*
D31*
X145400000Y-182480000D03*
X139950000Y-182480000D03*
%TD*%
D32*
%TO.C,J4*%
X132800000Y-152000000D03*
D33*
X132800000Y-158000000D03*
%TD*%
D19*
%TO.C,U5*%
X162900000Y-85200000D03*
D20*
X162900000Y-87740000D03*
X162900000Y-90280000D03*
%TD*%
D34*
%TO.C,C58*%
X128025000Y-127300000D03*
X129575000Y-127300000D03*
%TD*%
D15*
%TO.C,C62*%
X89487246Y-129100000D03*
D16*
X96987246Y-129100000D03*
%TD*%
D50*
%TO.C,R58*%
X112500000Y-153687500D03*
X112500000Y-155512500D03*
%TD*%
D21*
%TO.C,TP12*%
X77700000Y-148600000D03*
%TD*%
D50*
%TO.C,R4*%
X136300000Y-91187500D03*
X136300000Y-93012500D03*
%TD*%
D38*
%TO.C,U21*%
X161662500Y-128950000D03*
X161662500Y-130850000D03*
X163537500Y-129900000D03*
%TD*%
D11*
%TO.C,D12*%
X108225000Y-95000000D03*
D12*
X110765000Y-95000000D03*
%TD*%
D24*
%TO.C,C26*%
X113552651Y-101200000D03*
D23*
X110052651Y-101200000D03*
%TD*%
D60*
%TO.C,JP2*%
X118175000Y-113000000D03*
D61*
X119625000Y-113000000D03*
%TD*%
D22*
%TO.C,R47*%
X146600000Y-128812500D03*
X146600000Y-126987500D03*
%TD*%
D62*
%TO.C,C37*%
X99500000Y-110925000D03*
X99500000Y-112475000D03*
%TD*%
D63*
%TO.C,Q13*%
X169050000Y-137662500D03*
X167150000Y-137662500D03*
X168100000Y-139537500D03*
%TD*%
D50*
%TO.C,R6*%
X138500000Y-97062500D03*
X138500000Y-98887500D03*
%TD*%
D64*
%TO.C,L4*%
X45700000Y-228400000D03*
X55300000Y-228400000D03*
%TD*%
D14*
%TO.C,R72*%
X163487500Y-135400000D03*
X165312500Y-135400000D03*
%TD*%
D35*
%TO.C,H3*%
X105100000Y-120000000D03*
%TD*%
D10*
%TO.C,TR1*%
X147325000Y-65200000D03*
X147325000Y-85520000D03*
X142245000Y-65200000D03*
X142245000Y-85520000D03*
X137165000Y-65200000D03*
X137165000Y-85520000D03*
X132085000Y-65200000D03*
X132085000Y-85520000D03*
X127005000Y-65200000D03*
X127005000Y-85520000D03*
X121925000Y-65200000D03*
X121925000Y-85520000D03*
X116845000Y-65200000D03*
X116845000Y-85520000D03*
%TD*%
D34*
%TO.C,C52*%
X115125000Y-126100000D03*
X116675000Y-126100000D03*
%TD*%
D24*
%TO.C,U11*%
X76625000Y-191600000D03*
D39*
X79165000Y-191600000D03*
X79165000Y-183980000D03*
X76625000Y-183980000D03*
%TD*%
D23*
%TO.C,C66*%
X101400000Y-166500000D03*
D39*
X101400000Y-186500000D03*
%TD*%
D48*
%TO.C,C23*%
X177000000Y-86100000D03*
D49*
X172000000Y-86100000D03*
%TD*%
D65*
%TO.C,J7*%
X175225000Y-137800000D03*
D66*
X175225000Y-140300000D03*
X175225000Y-142800000D03*
%TD*%
D23*
%TO.C,R2*%
X143135000Y-52950000D03*
D39*
X135515000Y-52950000D03*
%TD*%
D14*
%TO.C,R71*%
X168387500Y-141600000D03*
X170212500Y-141600000D03*
%TD*%
D60*
%TO.C,JP3*%
X162465000Y-108225000D03*
D61*
X163915000Y-108225000D03*
%TD*%
D15*
%TO.C,C48*%
X50900000Y-238587246D03*
D16*
X50900000Y-246087246D03*
%TD*%
D21*
%TO.C,TP2*%
X147500000Y-53400000D03*
%TD*%
%TO.C,TP26*%
X119600000Y-157300000D03*
%TD*%
D14*
%TO.C,R48*%
X128087500Y-131300000D03*
X129912500Y-131300000D03*
%TD*%
D16*
%TO.C,C65*%
X110400000Y-198050000D03*
X110400000Y-220550000D03*
%TD*%
D48*
%TO.C,C46*%
X39300000Y-229300000D03*
D49*
X34300000Y-229300000D03*
%TD*%
D23*
%TO.C,C13*%
X56775000Y-93050000D03*
D39*
X56775000Y-113050000D03*
%TD*%
D34*
%TO.C,C74*%
X161825000Y-127200000D03*
X163375000Y-127200000D03*
%TD*%
D24*
%TO.C,U15*%
X144100000Y-129075000D03*
D39*
X144100000Y-126535000D03*
X136480000Y-126535000D03*
X136480000Y-129075000D03*
%TD*%
D21*
%TO.C,TP9*%
X125600000Y-52300000D03*
%TD*%
D24*
%TO.C,C16*%
X176152651Y-56100000D03*
D23*
X172652651Y-56100000D03*
%TD*%
D25*
%TO.C,JP6*%
X73200000Y-153400000D03*
D26*
X73200000Y-152100000D03*
D27*
X73200000Y-150800000D03*
%TD*%
D21*
%TO.C,TP5*%
X165990000Y-104925000D03*
%TD*%
%TO.C,TP25*%
X122600000Y-157300000D03*
%TD*%
D34*
%TO.C,C24*%
X104525000Y-101400000D03*
X106075000Y-101400000D03*
%TD*%
D13*
%TO.C,TP4*%
X130400000Y-102600000D03*
%TD*%
D21*
%TO.C,TP36*%
X152700000Y-133000000D03*
%TD*%
D67*
%TO.C,C41*%
X61600000Y-140875000D03*
X61600000Y-139325000D03*
%TD*%
D34*
%TO.C,C31*%
X71975000Y-132365000D03*
X73525000Y-132365000D03*
%TD*%
D21*
%TO.C,TP20*%
X113700000Y-139400000D03*
%TD*%
%TO.C,TP28*%
X129100000Y-136800000D03*
%TD*%
D63*
%TO.C,Q14*%
X165350000Y-137722500D03*
X163450000Y-137722500D03*
X164400000Y-139597500D03*
%TD*%
D21*
%TO.C,TP14*%
X62400000Y-131800000D03*
%TD*%
%TO.C,TP10*%
X32600000Y-92500000D03*
%TD*%
D45*
%TO.C,Q6*%
X41860000Y-154545000D03*
D46*
X44400000Y-154545000D03*
X46940000Y-154545000D03*
%TD*%
D15*
%TO.C,C69*%
X145300000Y-151022220D03*
D16*
X145300000Y-158522220D03*
%TD*%
D68*
%TO.C,D3*%
X143035000Y-60100000D03*
D69*
X135415000Y-60100000D03*
%TD*%
D70*
%TO.C,L2*%
X171975000Y-76300000D03*
X178025000Y-76300000D03*
%TD*%
D34*
%TO.C,C60*%
X107525000Y-139400000D03*
X109075000Y-139400000D03*
%TD*%
D21*
%TO.C,TP31*%
X151300000Y-126900000D03*
%TD*%
D22*
%TO.C,R74*%
X157400000Y-132712500D03*
X157400000Y-130887500D03*
%TD*%
D50*
%TO.C,R7*%
X138400000Y-91087500D03*
X138400000Y-92912500D03*
%TD*%
D45*
%TO.C,Q1*%
X125660000Y-59245000D03*
D46*
X128200000Y-59245000D03*
X130740000Y-59245000D03*
%TD*%
D68*
%TO.C,D4*%
X120100000Y-52790000D03*
D69*
X120100000Y-60410000D03*
%TD*%
D15*
%TO.C,C42*%
X38800000Y-132012755D03*
D16*
X38800000Y-124512755D03*
%TD*%
D23*
%TO.C,R9*%
X116700000Y-52690000D03*
D39*
X116700000Y-60310000D03*
%TD*%
D71*
%TO.C,J1*%
X164900000Y-114100000D03*
D72*
X162400000Y-114100000D03*
X159900000Y-114100000D03*
X157400000Y-114100000D03*
%TD*%
D62*
%TO.C,C61*%
X108100000Y-146425000D03*
X108100000Y-147975000D03*
%TD*%
D73*
%TO.C,U16*%
X124350000Y-136845000D03*
X124350000Y-135575000D03*
X124350000Y-134305000D03*
X124350000Y-133035000D03*
X124350000Y-131765000D03*
X124350000Y-130495000D03*
X124350000Y-129225000D03*
X124350000Y-127955000D03*
X115050000Y-127955000D03*
X115050000Y-129225000D03*
X115050000Y-130495000D03*
X115050000Y-131765000D03*
X115050000Y-133035000D03*
X115050000Y-134305000D03*
X115050000Y-135575000D03*
X115050000Y-136845000D03*
%TD*%
D13*
%TO.C,TP15*%
X74500000Y-146600000D03*
%TD*%
D51*
%TO.C,F5*%
X63675000Y-120000000D03*
X70085000Y-120000000D03*
%TD*%
D24*
%TO.C,C30*%
X123100000Y-109152651D03*
D23*
X123100000Y-105652651D03*
%TD*%
D16*
%TO.C,Y1*%
X106275000Y-75650000D03*
X106275000Y-90650000D03*
%TD*%
D21*
%TO.C,TP27*%
X120700000Y-160600000D03*
%TD*%
%TO.C,TP30*%
X154300000Y-128400000D03*
%TD*%
D74*
%TO.C,F4*%
X51300000Y-118975000D03*
X51300000Y-125385000D03*
%TD*%
D35*
%TO.C,C43*%
X55800000Y-163200000D03*
X55800000Y-148200000D03*
%TD*%
D24*
%TO.C,C33*%
X94700000Y-113500000D03*
D23*
X94700000Y-111000000D03*
%TD*%
D21*
%TO.C,TP11*%
X120900000Y-101400000D03*
%TD*%
D45*
%TO.C,U6*%
X176600000Y-66400000D03*
D46*
X174060000Y-66400000D03*
X171520000Y-66400000D03*
%TD*%
D12*
%TO.C,R24*%
X87275000Y-54600000D03*
X84575000Y-62100000D03*
%TD*%
D24*
%TO.C,C14*%
X116700000Y-95000000D03*
D23*
X116700000Y-91500000D03*
%TD*%
D21*
%TO.C,TP17*%
X42600000Y-144500000D03*
%TD*%
D28*
%TO.C,R52*%
X129912500Y-129200000D03*
X128087500Y-129200000D03*
%TD*%
D21*
%TO.C,TP34*%
X157000000Y-142700000D03*
%TD*%
D10*
%TO.C,TR3*%
X126580000Y-197740000D03*
X167220000Y-197740000D03*
X126580000Y-202820000D03*
X167220000Y-202820000D03*
X126580000Y-207900000D03*
X167220000Y-207900000D03*
X126580000Y-212980000D03*
X167220000Y-212980000D03*
X126580000Y-218060000D03*
X167220000Y-218060000D03*
X126580000Y-223140000D03*
X167220000Y-223140000D03*
X126580000Y-228220000D03*
X167220000Y-228220000D03*
X126580000Y-233300000D03*
X167220000Y-233300000D03*
X126580000Y-238380000D03*
X167220000Y-238380000D03*
X126580000Y-243460000D03*
X167220000Y-243460000D03*
%TD*%
D21*
%TO.C,TP33*%
X151300000Y-124800000D03*
%TD*%
D75*
%TO.C,J5*%
X106275000Y-54150000D03*
D76*
X106275000Y-61950000D03*
X106275000Y-69750000D03*
%TD*%
D12*
%TO.C,R23*%
X94625000Y-54600000D03*
X91925000Y-62100000D03*
%TD*%
D34*
%TO.C,C57*%
X128025000Y-133100000D03*
X129575000Y-133100000D03*
%TD*%
D15*
%TO.C,C10*%
X42875000Y-106827780D03*
D16*
X42875000Y-99327780D03*
%TD*%
D34*
%TO.C,C54*%
X116725000Y-138600000D03*
X118275000Y-138600000D03*
%TD*%
D77*
%TO.C,JP5*%
X117850000Y-101550000D03*
X117850000Y-104090000D03*
%TD*%
D78*
%TO.C,K1*%
X82475000Y-83750000D03*
D10*
X88525000Y-81800000D03*
D78*
X88525000Y-69600000D03*
X76475000Y-69550000D03*
D10*
X76525000Y-81800000D03*
%TD*%
D50*
%TO.C,R59*%
X110000000Y-153687500D03*
X110000000Y-155512500D03*
%TD*%
D13*
%TO.C,TP8*%
X178000000Y-98800000D03*
%TD*%
D23*
%TO.C,C4*%
X77175000Y-92950000D03*
D39*
X77175000Y-112950000D03*
%TD*%
D67*
%TO.C,C67*%
X132300000Y-131975000D03*
X132300000Y-130425000D03*
%TD*%
D24*
%TO.C,U8*%
X126900000Y-79000000D03*
D39*
X124360000Y-79000000D03*
X124360000Y-71380000D03*
X126900000Y-71380000D03*
%TD*%
M02*
