%TF.GenerationSoftware,KiCad,Pcbnew,8.0.3-8.0.3-0~ubuntu22.04.1*%
%TF.CreationDate,2024-07-10T15:47:32+03:00*%
%TF.ProjectId,supply-uv,73757070-6c79-42d7-9576-2e6b69636164,rev?*%
%TF.SameCoordinates,Original*%
%TF.FileFunction,Paste,Top*%
%TF.FilePolarity,Positive*%
%FSLAX46Y46*%
G04 Gerber Fmt 4.6, Leading zero omitted, Abs format (unit mm)*
G04 Created by KiCad (PCBNEW 8.0.3-8.0.3-0~ubuntu22.04.1) date 2024-07-10 15:47:32*
%MOMM*%
%LPD*%
G01*
G04 APERTURE LIST*
G04 Aperture macros list*
%AMRoundRect*
0 Rectangle with rounded corners*
0 $1 Rounding radius*
0 $2 $3 $4 $5 $6 $7 $8 $9 X,Y pos of 4 corners*
0 Add a 4 corners polygon primitive as box body*
4,1,4,$2,$3,$4,$5,$6,$7,$8,$9,$2,$3,0*
0 Add four circle primitives for the rounded corners*
1,1,$1+$1,$2,$3*
1,1,$1+$1,$4,$5*
1,1,$1+$1,$6,$7*
1,1,$1+$1,$8,$9*
0 Add four rect primitives between the rounded corners*
20,1,$1+$1,$2,$3,$4,$5,0*
20,1,$1+$1,$4,$5,$6,$7,0*
20,1,$1+$1,$6,$7,$8,$9,0*
20,1,$1+$1,$8,$9,$2,$3,0*%
G04 Aperture macros list end*
%ADD10RoundRect,0.250000X-0.262500X-0.450000X0.262500X-0.450000X0.262500X0.450000X-0.262500X0.450000X0*%
%ADD11RoundRect,0.150000X-0.150000X0.825000X-0.150000X-0.825000X0.150000X-0.825000X0.150000X0.825000X0*%
%ADD12RoundRect,0.250000X0.650000X-1.000000X0.650000X1.000000X-0.650000X1.000000X-0.650000X-1.000000X0*%
%ADD13RoundRect,0.250000X0.450000X-0.262500X0.450000X0.262500X-0.450000X0.262500X-0.450000X-0.262500X0*%
%ADD14RoundRect,0.250000X0.262500X0.450000X-0.262500X0.450000X-0.262500X-0.450000X0.262500X-0.450000X0*%
%ADD15RoundRect,0.250000X-0.325000X-1.100000X0.325000X-1.100000X0.325000X1.100000X-0.325000X1.100000X0*%
%ADD16RoundRect,0.225000X-0.225000X-0.250000X0.225000X-0.250000X0.225000X0.250000X-0.225000X0.250000X0*%
%ADD17RoundRect,0.250000X-1.000000X-0.650000X1.000000X-0.650000X1.000000X0.650000X-1.000000X0.650000X0*%
%ADD18RoundRect,0.250000X-0.537500X-0.425000X0.537500X-0.425000X0.537500X0.425000X-0.537500X0.425000X0*%
%ADD19RoundRect,0.150000X-0.587500X-0.150000X0.587500X-0.150000X0.587500X0.150000X-0.587500X0.150000X0*%
%ADD20RoundRect,0.250000X-1.400000X-1.000000X1.400000X-1.000000X1.400000X1.000000X-1.400000X1.000000X0*%
%ADD21RoundRect,0.250000X-0.625000X0.312500X-0.625000X-0.312500X0.625000X-0.312500X0.625000X0.312500X0*%
%ADD22RoundRect,0.250000X-0.450000X0.262500X-0.450000X-0.262500X0.450000X-0.262500X0.450000X0.262500X0*%
%ADD23RoundRect,0.952500X-1.167500X-0.952500X1.167500X-0.952500X1.167500X0.952500X-1.167500X0.952500X0*%
%ADD24RoundRect,0.225000X0.225000X0.250000X-0.225000X0.250000X-0.225000X-0.250000X0.225000X-0.250000X0*%
%ADD25R,3.500000X2.350000*%
%ADD26RoundRect,0.225000X-0.250000X0.225000X-0.250000X-0.225000X0.250000X-0.225000X0.250000X0.225000X0*%
%ADD27RoundRect,0.150000X-0.150000X0.587500X-0.150000X-0.587500X0.150000X-0.587500X0.150000X0.587500X0*%
%ADD28RoundRect,1.025000X1.025000X-1.025000X1.025000X1.025000X-1.025000X1.025000X-1.025000X-1.025000X0*%
%ADD29RoundRect,0.225000X0.250000X-0.225000X0.250000X0.225000X-0.250000X0.225000X-0.250000X-0.225000X0*%
%ADD30R,2.350000X3.500000*%
%ADD31RoundRect,0.150000X0.875000X0.150000X-0.875000X0.150000X-0.875000X-0.150000X0.875000X-0.150000X0*%
%ADD32RoundRect,0.952500X-0.952500X1.167500X-0.952500X-1.167500X0.952500X-1.167500X0.952500X1.167500X0*%
G04 APERTURE END LIST*
D10*
%TO.C,R34*%
X70337500Y-129665000D03*
X72162500Y-129665000D03*
%TD*%
D11*
%TO.C,U18*%
X113805000Y-144725000D03*
X112535000Y-144725000D03*
X111265000Y-144725000D03*
X109995000Y-144725000D03*
X109995000Y-149675000D03*
X111265000Y-149675000D03*
X112535000Y-149675000D03*
X113805000Y-149675000D03*
%TD*%
D12*
%TO.C,D20*%
X116500000Y-149200000D03*
X116500000Y-145200000D03*
%TD*%
D13*
%TO.C,R57*%
X133100000Y-126512500D03*
X133100000Y-124687500D03*
%TD*%
D14*
%TO.C,R39*%
X46912500Y-143900000D03*
X45087500Y-143900000D03*
%TD*%
D15*
%TO.C,C12*%
X173925000Y-62500000D03*
X176875000Y-62500000D03*
%TD*%
D13*
%TO.C,R75*%
X155300000Y-132712500D03*
X155300000Y-130887500D03*
%TD*%
D16*
%TO.C,C39*%
X74125000Y-127500000D03*
X75675000Y-127500000D03*
%TD*%
D13*
%TO.C,R15*%
X102100000Y-105112500D03*
X102100000Y-103287500D03*
%TD*%
D17*
%TO.C,D8*%
X172600000Y-94100000D03*
X176600000Y-94100000D03*
%TD*%
D11*
%TO.C,U13*%
X55805000Y-134625000D03*
X54535000Y-134625000D03*
X53265000Y-134625000D03*
X51995000Y-134625000D03*
X51995000Y-139575000D03*
X53265000Y-139575000D03*
X54535000Y-139575000D03*
X55805000Y-139575000D03*
%TD*%
D14*
%TO.C,R40*%
X46812500Y-141900000D03*
X44987500Y-141900000D03*
%TD*%
D18*
%TO.C,C18*%
X171162500Y-71200000D03*
X174037500Y-71200000D03*
%TD*%
D19*
%TO.C,U7*%
X104362500Y-103250000D03*
X104362500Y-105150000D03*
X106237500Y-104200000D03*
%TD*%
D14*
%TO.C,R3*%
X138412500Y-95100000D03*
X136587500Y-95100000D03*
%TD*%
D20*
%TO.C,D17*%
X63800000Y-238600000D03*
X63800000Y-245400000D03*
%TD*%
D21*
%TO.C,RV2*%
X69200000Y-240437500D03*
X69200000Y-243362500D03*
%TD*%
D10*
%TO.C,R70*%
X167187500Y-135400000D03*
X169012500Y-135400000D03*
%TD*%
D22*
%TO.C,R68*%
X159700000Y-130987500D03*
X159700000Y-132812500D03*
%TD*%
D10*
%TO.C,R73*%
X168287500Y-143800000D03*
X170112500Y-143800000D03*
%TD*%
D13*
%TO.C,R61*%
X146600000Y-134912500D03*
X146600000Y-133087500D03*
%TD*%
D22*
%TO.C,R35*%
X76900000Y-129987500D03*
X76900000Y-131812500D03*
%TD*%
D23*
%TO.C,F3*%
X63675000Y-112000000D03*
X70085000Y-112000000D03*
%TD*%
D13*
%TO.C,R63*%
X134100000Y-132312500D03*
X134100000Y-130487500D03*
%TD*%
D24*
%TO.C,C40*%
X54975000Y-130400000D03*
X53425000Y-130400000D03*
%TD*%
D25*
%TO.C,L1*%
X154200000Y-89275000D03*
X154200000Y-95325000D03*
%TD*%
D12*
%TO.C,D15*%
X58600000Y-139400000D03*
X58600000Y-135400000D03*
%TD*%
D24*
%TO.C,C56*%
X124275000Y-112500000D03*
X122725000Y-112500000D03*
%TD*%
D16*
%TO.C,C58*%
X128025000Y-127300000D03*
X129575000Y-127300000D03*
%TD*%
D22*
%TO.C,R58*%
X112500000Y-153687500D03*
X112500000Y-155512500D03*
%TD*%
%TO.C,R4*%
X136300000Y-91187500D03*
X136300000Y-93012500D03*
%TD*%
D19*
%TO.C,U21*%
X161662500Y-128950000D03*
X161662500Y-130850000D03*
X163537500Y-129900000D03*
%TD*%
D13*
%TO.C,R47*%
X146600000Y-128812500D03*
X146600000Y-126987500D03*
%TD*%
D26*
%TO.C,C37*%
X99500000Y-110925000D03*
X99500000Y-112475000D03*
%TD*%
D27*
%TO.C,Q13*%
X169050000Y-137662500D03*
X167150000Y-137662500D03*
X168100000Y-139537500D03*
%TD*%
D22*
%TO.C,R6*%
X138500000Y-97062500D03*
X138500000Y-98887500D03*
%TD*%
D28*
%TO.C,L4*%
X45700000Y-228400000D03*
X55300000Y-228400000D03*
%TD*%
D10*
%TO.C,R72*%
X163487500Y-135400000D03*
X165312500Y-135400000D03*
%TD*%
D16*
%TO.C,C52*%
X115125000Y-126100000D03*
X116675000Y-126100000D03*
%TD*%
D10*
%TO.C,R71*%
X168387500Y-141600000D03*
X170212500Y-141600000D03*
%TD*%
%TO.C,R48*%
X128087500Y-131300000D03*
X129912500Y-131300000D03*
%TD*%
D16*
%TO.C,C74*%
X161825000Y-127200000D03*
X163375000Y-127200000D03*
%TD*%
%TO.C,C24*%
X104525000Y-101400000D03*
X106075000Y-101400000D03*
%TD*%
D29*
%TO.C,C41*%
X61600000Y-140875000D03*
X61600000Y-139325000D03*
%TD*%
D16*
%TO.C,C31*%
X71975000Y-132365000D03*
X73525000Y-132365000D03*
%TD*%
D27*
%TO.C,Q14*%
X165350000Y-137722500D03*
X163450000Y-137722500D03*
X164400000Y-139597500D03*
%TD*%
D30*
%TO.C,L2*%
X171975000Y-76300000D03*
X178025000Y-76300000D03*
%TD*%
D16*
%TO.C,C60*%
X107525000Y-139400000D03*
X109075000Y-139400000D03*
%TD*%
D13*
%TO.C,R74*%
X157400000Y-132712500D03*
X157400000Y-130887500D03*
%TD*%
D22*
%TO.C,R7*%
X138400000Y-91087500D03*
X138400000Y-92912500D03*
%TD*%
D26*
%TO.C,C61*%
X108100000Y-146425000D03*
X108100000Y-147975000D03*
%TD*%
D31*
%TO.C,U16*%
X124350000Y-136845000D03*
X124350000Y-135575000D03*
X124350000Y-134305000D03*
X124350000Y-133035000D03*
X124350000Y-131765000D03*
X124350000Y-130495000D03*
X124350000Y-129225000D03*
X124350000Y-127955000D03*
X115050000Y-127955000D03*
X115050000Y-129225000D03*
X115050000Y-130495000D03*
X115050000Y-131765000D03*
X115050000Y-133035000D03*
X115050000Y-134305000D03*
X115050000Y-135575000D03*
X115050000Y-136845000D03*
%TD*%
D23*
%TO.C,F5*%
X63675000Y-120000000D03*
X70085000Y-120000000D03*
%TD*%
D32*
%TO.C,F4*%
X51300000Y-118975000D03*
X51300000Y-125385000D03*
%TD*%
D14*
%TO.C,R52*%
X129912500Y-129200000D03*
X128087500Y-129200000D03*
%TD*%
D16*
%TO.C,C57*%
X128025000Y-133100000D03*
X129575000Y-133100000D03*
%TD*%
%TO.C,C54*%
X116725000Y-138600000D03*
X118275000Y-138600000D03*
%TD*%
D22*
%TO.C,R59*%
X110000000Y-153687500D03*
X110000000Y-155512500D03*
%TD*%
D29*
%TO.C,C67*%
X132300000Y-131975000D03*
X132300000Y-130425000D03*
%TD*%
M02*
